<?xml version="1.0" encoding="UTF-8" standalone="no"?>
<?xml-stylesheet href="../static/svg.css" type="text/css"?>
<!DOCTYPE svg PUBLIC "-//W3C//DTD SVG 1.1//EN"
 "http://www.w3.org/Graphics/SVG/1.1/DTD/svg11.dtd">
<!-- Generated by graphviz version 2.40.1 (20161225.0304)
 -->
<!-- Title: term Pages: 1 -->
<svg width="674pt" height="517pt"
 viewBox="0.00 0.00 674.02 516.60" xmlns="http://www.w3.org/2000/svg" xmlns:xlink="http://www.w3.org/1999/xlink">
<g id="graph0" class="graph" transform="scale(1 1) rotate(0) translate(4 512.6003)">
<title>term</title>
<!-- Wrist shot -->
<g id="node1" class="node root has&#45;pronunciation">
<title>Wrist shot</title>
<g id="a_node1"><a xlink:href="javascript:history.back()" xlink:title="Кистевой" target="_top">
<ellipse fill="none" stroke="#c0c0c0" stroke-width=".2" cx="56.5685" cy="-248.4163" rx="56.6372" ry="56.6372"/>
<text text-anchor="middle" x="56.5685" y="-261.9163" font-family="Times,serif" font-size="15.00" fill="#000000">Wrist shot</text>
<text text-anchor="middle" x="56.5685" y="-244.9163" font-family="Times,serif" font-size="15.00" fill="#000000">Кистевой</text>
<text text-anchor="middle" x="56.5685" y="-227.9163" font-family="Times,serif" font-size="15.00" fill="#000000">Рист шат</text>
</a>
</g>
</g>
<!-- Shot -->
<g id="node2" class="node has&#45;pronunciation">
<title>Shot</title>
<g id="a_node2"><a xlink:href="../shot.html" xlink:title="Бросок" target="_top">
<ellipse fill="none" stroke="#c0c0c0" stroke-width=".2" cx="598.8401" cy="-275.8241" rx="67.3507" ry="67.3507"/>
<text text-anchor="middle" x="598.8401" y="-297.8241" font-family="Times,serif" font-size="25.00" fill="#000000">Shot</text>
<text text-anchor="middle" x="598.8401" y="-269.8241" font-family="Times,serif" font-size="25.00" fill="#000000">Бросок</text>
<text text-anchor="middle" x="598.8401" y="-241.8241" font-family="Times,serif" font-size="25.00" fill="#000000">Шат</text>
</a>
</g>
</g>
<!-- Shot&#45;&gt;Wrist shot -->
<g id="edge3" class="edge">
<title>Shot&#45;&gt;Wrist shot</title>
<path fill="none" stroke="#000000" stroke-dasharray="5,2" d="M531.5305,-272.4221C427.0821,-267.143 227.192,-257.04 123.1743,-251.7827"/>
<polygon fill="#000000" stroke="#000000" points="113.109,-251.274 123.3234,-247.2846 118.1026,-251.5264 123.0962,-251.7789 123.0962,-251.7789 123.0962,-251.7789 118.1026,-251.5264 122.869,-256.2731 113.109,-251.274 113.109,-251.274"/>
</g>
<!-- Snap shot -->
<g id="node3" class="node has&#45;pronunciation">
<title>Snap shot</title>
<g id="a_node3"><a xlink:href="../snap-shot.html" xlink:title="Короткий щелчок" target="_top">
<ellipse fill="none" stroke="#c0c0c0" stroke-width=".2" cx="402.0022" cy="-91.9239" rx="91.8478" ry="91.8478"/>
<text text-anchor="middle" x="402.0022" y="-105.4239" font-family="Times,serif" font-size="15.00" fill="#000000">Snap shot</text>
<text text-anchor="middle" x="402.0022" y="-88.4239" font-family="Times,serif" font-size="15.00" fill="#000000">Короткий щелчок</text>
<text text-anchor="middle" x="402.0022" y="-71.4239" font-family="Times,serif" font-size="15.00" fill="#000000">Снэп шат</text>
</a>
</g>
</g>
<!-- Shot&#45;&gt;Snap shot -->
<g id="edge1" class="edge">
<title>Shot&#45;&gt;Snap shot</title>
<path fill="none" stroke="#000000" stroke-dasharray="5,2" d="M549.6773,-229.8927C527.6967,-209.3567 501.2995,-184.6946 476.9404,-161.9366"/>
<polygon fill="#000000" stroke="#000000" points="469.4533,-154.9416 479.8325,-158.4802 473.1069,-158.355 476.7604,-161.7684 476.7604,-161.7684 476.7604,-161.7684 473.1069,-158.355 473.6883,-165.0567 469.4533,-154.9416 469.4533,-154.9416"/>
</g>
<!-- Backhand shot -->
<g id="node4" class="node has&#45;pronunciation">
<title>Backhand shot</title>
<g id="a_node4"><a xlink:href="../backhand-shot.html" xlink:title="С неудобной" target="_top">
<ellipse fill="none" stroke="#c0c0c0" stroke-width=".2" cx="251.5623" cy="-432.2328" rx="76.2353" ry="76.2353"/>
<text text-anchor="middle" x="251.5623" y="-445.7328" font-family="Times,serif" font-size="15.00" fill="#000000">Backhand shot</text>
<text text-anchor="middle" x="251.5623" y="-428.7328" font-family="Times,serif" font-size="15.00" fill="#000000">С неудобной</text>
<text text-anchor="middle" x="251.5623" y="-411.7328" font-family="Times,serif" font-size="15.00" fill="#000000">ˈБэкˌхэнд шат</text>
</a>
</g>
</g>
<!-- Shot&#45;&gt;Backhand shot -->
<g id="edge2" class="edge">
<title>Shot&#45;&gt;Backhand shot</title>
<path fill="none" stroke="#000000" stroke-dasharray="5,2" d="M537.5532,-303.4268C480.0448,-329.3277 393.7222,-368.2061 330.9625,-396.4721"/>
<polygon fill="#000000" stroke="#000000" points="321.4906,-400.7381 328.7606,-392.5284 326.0496,-398.6848 330.6086,-396.6315 330.6086,-396.6315 330.6086,-396.6315 326.0496,-398.6848 332.4565,-400.7345 321.4906,-400.7381 321.4906,-400.7381"/>
</g>
<!-- Snap shot&#45;&gt;Wrist shot -->
<g id="edge4" class="edge">
<title>Snap shot&#45;&gt;Wrist shot</title>
<path fill="none" stroke="#000000" stroke-dasharray="5,2" d="M317.9414,-130.0061C256.0201,-158.0584 173.2408,-195.5601 117.5754,-220.7783"/>
<polygon fill="#000000" stroke="#000000" points="108.1959,-225.0275 115.4478,-216.8018 112.7504,-222.9641 117.3048,-220.9008 117.3048,-220.9008 117.3048,-220.9008 112.7504,-222.9641 119.1618,-224.9998 108.1959,-225.0275 108.1959,-225.0275"/>
</g>
<!-- Backhand shot&#45;&gt;Wrist shot -->
<g id="edge5" class="edge">
<title>Backhand shot&#45;&gt;Wrist shot</title>
<path fill="none" stroke="#000000" stroke-dasharray="5,2" d="M195.9458,-379.8044C167.4441,-352.9364 133.0469,-320.5108 105.5552,-294.595"/>
<polygon fill="#000000" stroke="#000000" points="97.9948,-287.468 108.3582,-291.053 101.6331,-290.8978 105.2714,-294.3275 105.2714,-294.3275 105.2714,-294.3275 101.6331,-290.8978 102.1847,-297.6019 97.9948,-287.468 97.9948,-287.468"/>
</g>
</g>
</svg>
