<?xml version="1.0" encoding="UTF-8" standalone="no"?>
<?xml-stylesheet href="../static/svg.css" type="text/css"?>
<!DOCTYPE svg PUBLIC "-//W3C//DTD SVG 1.1//EN"
 "http://www.w3.org/Graphics/SVG/1.1/DTD/svg11.dtd">
<!-- Generated by graphviz version 2.40.1 (20161225.0304)
 -->
<!-- Title: term Pages: 1 -->
<svg width="413pt" height="241pt"
 viewBox="0.00 0.00 413.49 240.61" xmlns="http://www.w3.org/2000/svg" xmlns:xlink="http://www.w3.org/1999/xlink">
<g id="graph0" class="graph" transform="scale(1 1) rotate(0) translate(4 236.6142)">
<title>term</title>
<!-- Score -->
<g id="node1" class="node root has&#45;pronunciation">
<title>Score</title>
<g id="a_node1"><a xlink:href="javascript:history.back()" xlink:title="Счёт" target="_top">
<ellipse fill="none" stroke="#c0c0c0" stroke-width=".2" cx="185.4281" cy="-138.3827" rx="52.1524" ry="52.1524"/>
<text text-anchor="middle" x="185.4281" y="-155.3827" font-family="Times,serif" font-size="20.00" fill="#000000">Score</text>
<text text-anchor="middle" x="185.4281" y="-133.3827" font-family="Times,serif" font-size="20.00" fill="#000000">Счёт</text>
<text text-anchor="middle" x="185.4281" y="-111.3827" font-family="Times,serif" font-size="20.00" fill="#000000">Скор</text>
</a>
</g>
</g>
<!-- Goal -->
<g id="node3" class="node has&#45;pronunciation">
<title>Goal</title>
<g id="a_node3"><a xlink:href="../goal.html" xlink:title="Гол" target="_top">
<ellipse fill="none" stroke="#c0c0c0" stroke-width=".2" cx="62.3345" cy="-52.3259" rx="52.1524" ry="52.1524"/>
<text text-anchor="middle" x="62.3345" y="-69.3259" font-family="Times,serif" font-size="20.00" fill="#000000">Goal</text>
<text text-anchor="middle" x="62.3345" y="-47.3259" font-family="Times,serif" font-size="20.00" fill="#000000">Гол</text>
<text text-anchor="middle" x="62.3345" y="-25.3259" font-family="Times,serif" font-size="20.00" fill="#000000">Гoул</text>
</a>
</g>
</g>
<!-- Score&#45;&gt;Goal -->
<g id="edge3" class="edge">
<title>Score&#45;&gt;Goal</title>
<path fill="none" stroke="#000000" stroke-dasharray="5,2" d="M142.376,-108.2842C133.153,-101.8363 123.3192,-94.9613 113.8146,-88.3165"/>
<polygon fill="#000000" stroke="#000000" points="105.5705,-82.5529 116.3446,-84.5946 109.6683,-85.4178 113.7662,-88.2827 113.7662,-88.2827 113.7662,-88.2827 109.6683,-85.4178 111.1878,-91.9707 105.5705,-82.5529 105.5705,-82.5529"/>
</g>
<!-- Point -->
<g id="node4" class="node has&#45;pronunciation">
<title>Point</title>
<g id="a_node4"><a xlink:href="../point.html" xlink:title="Очко" target="_top">
<ellipse fill="none" stroke="#c0c0c0" stroke-width=".2" cx="41.7193" cy="-190.8949" rx="41.9398" ry="41.9398"/>
<text text-anchor="middle" x="41.7193" y="-204.3949" font-family="Times,serif" font-size="15.00" fill="#000000">Point</text>
<text text-anchor="middle" x="41.7193" y="-187.3949" font-family="Times,serif" font-size="15.00" fill="#000000">Очко</text>
<text text-anchor="middle" x="41.7193" y="-170.3949" font-family="Times,serif" font-size="15.00" fill="#000000">Пойнт</text>
</a>
</g>
</g>
<!-- Score&#45;&gt;Point -->
<g id="edge4" class="edge">
<title>Score&#45;&gt;Point</title>
<path fill="none" stroke="#000000" stroke-dasharray="5,2" d="M135.9717,-156.4544C121.4588,-161.7575 105.5914,-167.5556 91.0842,-172.8566"/>
<polygon fill="#000000" stroke="#000000" points="81.2914,-176.435 89.1395,-168.7761 85.9877,-174.7189 90.684,-173.0028 90.684,-173.0028 90.684,-173.0028 85.9877,-174.7189 92.2285,-177.2295 81.2914,-176.435 81.2914,-176.435"/>
</g>
<!-- Winner -->
<g id="node2" class="node has&#45;pronunciation">
<title>Winner</title>
<g id="a_node2"><a xlink:href="../winner.html" xlink:title="Победитель" target="_top">
<ellipse fill="none" stroke="#c0c0c0" stroke-width=".2" cx="340.4318" cy="-154.7847" rx="65.1077" ry="65.1077"/>
<text text-anchor="middle" x="340.4318" y="-168.2847" font-family="Times,serif" font-size="15.00" fill="#000000">Winner</text>
<text text-anchor="middle" x="340.4318" y="-151.2847" font-family="Times,serif" font-size="15.00" fill="#000000">Победитель</text>
<text text-anchor="middle" x="340.4318" y="-134.2847" font-family="Times,serif" font-size="15.00" fill="#000000">ˈУинэр</text>
</a>
</g>
</g>
<!-- Winner&#45;&gt;Score -->
<g id="edge2" class="edge">
<title>Winner&#45;&gt;Score</title>
<path fill="none" stroke="#000000" stroke-dasharray="5,2" d="M275.5944,-147.9238C266.4326,-146.9543 257.0282,-145.9592 247.9119,-144.9945"/>
<polygon fill="#000000" stroke="#000000" points="237.7702,-143.9214 248.1883,-140.4987 242.7425,-144.4475 247.7147,-144.9737 247.7147,-144.9737 247.7147,-144.9737 242.7425,-144.4475 247.2411,-149.4488 237.7702,-143.9214 237.7702,-143.9214"/>
</g>
<!-- Point&#45;&gt;Goal -->
<g id="edge1" class="edge">
<title>Point&#45;&gt;Goal</title>
<path fill="none" stroke="#000000" stroke-dasharray="5,2" d="M47.9045,-149.3197C49.5538,-138.2337 51.3717,-126.0145 53.1449,-114.0955"/>
<polygon fill="#000000" stroke="#000000" points="54.6192,-104.1856 57.5986,-114.739 53.8834,-109.1312 53.1476,-114.0768 53.1476,-114.0768 53.1476,-114.0768 53.8834,-109.1312 48.6966,-113.4145 54.6192,-104.1856 54.6192,-104.1856"/>
</g>
</g>
</svg>
