<?xml version="1.0" encoding="UTF-8" standalone="no"?>
<?xml-stylesheet href="../static/svg.css" type="text/css"?>
<!DOCTYPE svg PUBLIC "-//W3C//DTD SVG 1.1//EN"
 "http://www.w3.org/Graphics/SVG/1.1/DTD/svg11.dtd">
<!-- Generated by graphviz version 2.40.1 (20161225.0304)
 -->
<!-- Title: term Pages: 1 -->
<svg width="915pt" height="589pt"
 viewBox="0.00 0.00 915.36 588.87" xmlns="http://www.w3.org/2000/svg" xmlns:xlink="http://www.w3.org/1999/xlink">
<g id="graph0" class="graph" transform="scale(1 1) rotate(0) translate(4 584.873)">
<title>term</title>
<!-- Winner -->
<g id="node1" class="node root has&#45;pronunciation">
<title>Winner</title>
<g id="a_node1"><a xlink:href="javascript:history.back()" xlink:title="Победитель" target="_top">
<ellipse fill="none" stroke="#c0c0c0" stroke-width=".2" cx="532.0606" cy="-252.5334" rx="65.1077" ry="65.1077"/>
<text text-anchor="middle" x="532.0606" y="-266.0334" font-family="Times,serif" font-size="15.00" fill="#000000">Winner</text>
<text text-anchor="middle" x="532.0606" y="-249.0334" font-family="Times,serif" font-size="15.00" fill="#000000">Победитель</text>
<text text-anchor="middle" x="532.0606" y="-232.0334" font-family="Times,serif" font-size="15.00" fill="#000000">ˈУинэр</text>
</a>
</g>
</g>
<!-- Game -->
<g id="node4" class="node has&#45;pronunciation">
<title>Game</title>
<g id="a_node4"><a xlink:href="../game.html" xlink:title="Игра" target="_top">
<ellipse fill="none" stroke="#c0c0c0" stroke-width=".2" cx="268.749" cy="-377.8536" rx="52.1524" ry="52.1524"/>
<text text-anchor="middle" x="268.749" y="-394.8536" font-family="Times,serif" font-size="20.00" fill="#000000">Game</text>
<text text-anchor="middle" x="268.749" y="-372.8536" font-family="Times,serif" font-size="20.00" fill="#000000">Игра</text>
<text text-anchor="middle" x="268.749" y="-350.8536" font-family="Times,serif" font-size="20.00" fill="#000000">Гейм</text>
</a>
</g>
</g>
<!-- Winner&#45;&gt;Game -->
<g id="edge6" class="edge">
<title>Winner&#45;&gt;Game</title>
<path fill="none" stroke="#000000" stroke-dasharray="5,2" d="M473.296,-280.5017C429.1465,-301.5142 369.028,-330.1269 325.3996,-350.8914"/>
<polygon fill="#000000" stroke="#000000" points="316.3517,-355.1976 323.4473,-346.8368 320.8665,-353.0489 325.3812,-350.9001 325.3812,-350.9001 325.3812,-350.9001 320.8665,-353.0489 327.3151,-354.9634 316.3517,-355.1976 316.3517,-355.1976"/>
</g>
<!-- Score -->
<g id="node5" class="node has&#45;pronunciation">
<title>Score</title>
<g id="a_node5"><a xlink:href="../score.html" xlink:title="Счёт" target="_top">
<ellipse fill="none" stroke="#c0c0c0" stroke-width=".2" cx="798.9673" cy="-52.3259" rx="52.1524" ry="52.1524"/>
<text text-anchor="middle" x="798.9673" y="-69.3259" font-family="Times,serif" font-size="20.00" fill="#000000">Score</text>
<text text-anchor="middle" x="798.9673" y="-47.3259" font-family="Times,serif" font-size="20.00" fill="#000000">Счёт</text>
<text text-anchor="middle" x="798.9673" y="-25.3259" font-family="Times,serif" font-size="20.00" fill="#000000">Скор</text>
</a>
</g>
</g>
<!-- Winner&#45;&gt;Score -->
<g id="edge7" class="edge">
<title>Winner&#45;&gt;Score</title>
<path fill="none" stroke="#000000" stroke-dasharray="5,2" d="M584.1565,-213.4561C631.814,-177.7081 701.8555,-125.1698 748.873,-89.9018"/>
<polygon fill="#000000" stroke="#000000" points="757.0831,-83.7433 751.7838,-93.3437 753.0833,-86.7436 749.0835,-89.7439 749.0835,-89.7439 749.0835,-89.7439 753.0833,-86.7436 746.3832,-86.1441 757.0831,-83.7433 757.0831,-83.7433"/>
</g>
<!-- Team -->
<g id="node6" class="node has&#45;pronunciation">
<title>Team</title>
<g id="a_node6"><a xlink:href="../team.html" xlink:title="Команда" target="_top">
<ellipse fill="none" stroke="#c0c0c0" stroke-width=".2" cx="452.7014" cy="-529.2542" rx="51.7379" ry="51.7379"/>
<text text-anchor="middle" x="452.7014" y="-542.7542" font-family="Times,serif" font-size="15.00" fill="#000000">Team</text>
<text text-anchor="middle" x="452.7014" y="-525.7542" font-family="Times,serif" font-size="15.00" fill="#000000">Команда</text>
<text text-anchor="middle" x="452.7014" y="-508.7542" font-family="Times,serif" font-size="15.00" fill="#000000">Тим</text>
</a>
</g>
</g>
<!-- Winner&#45;&gt;Team -->
<g id="edge8" class="edge">
<title>Winner&#45;&gt;Team</title>
<path fill="none" stroke="#000000" stroke-dasharray="5,2" d="M514.0527,-315.3256C500.76,-361.6766 482.7866,-424.349 469.7313,-469.8719"/>
<polygon fill="#000000" stroke="#000000" points="466.9408,-479.6024 465.3719,-468.7493 468.3192,-474.7961 469.6976,-469.9899 469.6976,-469.9899 469.6976,-469.9899 468.3192,-474.7961 474.0232,-471.2304 466.9408,-479.6024 466.9408,-479.6024"/>
</g>
<!-- Overtime -->
<g id="node2" class="node has&#45;pronunciation">
<title>Overtime</title>
<g id="a_node2"><a xlink:href="../overtime.html" xlink:title="Овертайм" target="_top">
<ellipse fill="none" stroke="#c0c0c0" stroke-width=".2" cx="840.1893" cy="-393.849" rx="67.3507" ry="67.3507"/>
<text text-anchor="middle" x="840.1893" y="-407.349" font-family="Times,serif" font-size="15.00" fill="#000000">Overtime</text>
<text text-anchor="middle" x="840.1893" y="-390.349" font-family="Times,serif" font-size="15.00" fill="#000000">Овертайм</text>
<text text-anchor="middle" x="840.1893" y="-373.349" font-family="Times,serif" font-size="15.00" fill="#000000">ˈОувэрˌтайм</text>
</a>
</g>
</g>
<!-- Overtime&#45;&gt;Winner -->
<g id="edge4" class="edge">
<title>Overtime&#45;&gt;Winner</title>
<path fill="none" stroke="#000000" stroke-dasharray="5,2" d="M778.9445,-365.7607C727.5362,-342.1835 654.1453,-308.5246 600.7497,-284.036"/>
<polygon fill="#000000" stroke="#000000" points="591.3572,-279.7283 602.3228,-279.8068 595.902,-281.8127 600.4469,-283.8971 600.4469,-283.8971 600.4469,-283.8971 595.902,-281.8127 598.5709,-287.9875 591.3572,-279.7283 591.3572,-279.7283"/>
</g>
<!-- Shootout -->
<g id="node3" class="node has&#45;pronunciation">
<title>Shootout</title>
<g id="a_node3"><a xlink:href="../shootout.html" xlink:title="Буллиты" target="_top">
<ellipse fill="none" stroke="#c0c0c0" stroke-width=".2" cx="50.9117" cy="-186.4205" rx="50.8235" ry="50.8235"/>
<text text-anchor="middle" x="50.9117" y="-199.9205" font-family="Times,serif" font-size="15.00" fill="#000000">Shootout</text>
<text text-anchor="middle" x="50.9117" y="-182.9205" font-family="Times,serif" font-size="15.00" fill="#000000">Буллиты</text>
<text text-anchor="middle" x="50.9117" y="-165.9205" font-family="Times,serif" font-size="15.00" fill="#000000">ˈШутaут</text>
</a>
</g>
</g>
<!-- Shootout&#45;&gt;Winner -->
<g id="edge5" class="edge">
<title>Shootout&#45;&gt;Winner</title>
<path fill="none" stroke="#000000" stroke-dasharray="5,2" d="M101.4937,-193.3708C186.5186,-205.0537 358.4722,-228.6812 457.4142,-242.2765"/>
<polygon fill="#000000" stroke="#000000" points="467.3435,-243.6408 456.8239,-246.7376 462.39,-242.9602 457.4365,-242.2795 457.4365,-242.2795 457.4365,-242.2795 462.39,-242.9602 458.0491,-237.8214 467.3435,-243.6408 467.3435,-243.6408"/>
</g>
<!-- Game&#45;&gt;Overtime -->
<g id="edge2" class="edge">
<title>Game&#45;&gt;Overtime</title>
<path fill="none" stroke="#000000" stroke-dasharray="5,2" d="M321.2297,-379.3226C422.3021,-382.1518 644.4027,-388.3687 762.6068,-391.6774"/>
<polygon fill="#000000" stroke="#000000" points="772.6719,-391.9591 762.5498,-396.1775 767.6738,-391.8192 762.6758,-391.6792 762.6758,-391.6792 762.6758,-391.6792 767.6738,-391.8192 762.8017,-387.181 772.6719,-391.9591 772.6719,-391.9591"/>
</g>
<!-- Game&#45;&gt;Shootout -->
<g id="edge3" class="edge">
<title>Game&#45;&gt;Shootout</title>
<path fill="none" stroke="#000000" stroke-dasharray="5,2" d="M229.3003,-343.1865C192.0585,-310.4588 136.2194,-261.388 96.9567,-226.8844"/>
<polygon fill="#000000" stroke="#000000" points="89.3356,-220.187 99.8178,-223.408 93.0915,-223.4876 96.8473,-226.7882 96.8473,-226.7882 96.8473,-226.7882 93.0915,-223.4876 93.8768,-230.1685 89.3356,-220.187 89.3356,-220.187"/>
</g>
<!-- Game&#45;&gt;Team -->
<g id="edge1" class="edge">
<title>Game&#45;&gt;Team</title>
<path fill="none" stroke="#000000" stroke-dasharray="5,2" d="M309.574,-411.4543C337.7518,-434.6458 375.321,-465.5669 404.8981,-489.9101"/>
<polygon fill="#000000" stroke="#000000" points="412.6235,-496.2684 402.0426,-493.388 408.7629,-493.0909 404.9023,-489.9135 404.9023,-489.9135 404.9023,-489.9135 408.7629,-493.0909 407.762,-486.439 412.6235,-496.2684 412.6235,-496.2684"/>
</g>
</g>
</svg>
