<?xml version="1.0" encoding="UTF-8" standalone="no"?>
<?xml-stylesheet href="../static/svg.css" type="text/css"?>
<!DOCTYPE svg PUBLIC "-//W3C//DTD SVG 1.1//EN"
 "http://www.w3.org/Graphics/SVG/1.1/DTD/svg11.dtd">
<!-- Generated by graphviz version 2.40.1 (20161225.0304)
 -->
<!-- Title: term Pages: 1 -->
<svg width="1194pt" height="736pt"
 viewBox="0.00 0.00 1194.29 735.68" xmlns="http://www.w3.org/2000/svg" xmlns:xlink="http://www.w3.org/1999/xlink">
<g id="graph0" class="graph" transform="scale(1 1) rotate(0) translate(4 731.6752)">
<title>term</title>
<!-- Puck -->
<g id="node1" class="node root has&#45;pronunciation">
<title>Puck</title>
<g id="a_node1"><a xlink:href="javascript:history.back()" xlink:title="Шайба" target="_top">
<ellipse fill="none" stroke="#c0c0c0" stroke-width=".2" cx="409.879" cy="-428.9566" rx="65.1077" ry="65.1077"/>
<text text-anchor="middle" x="409.879" y="-450.9566" font-family="Times,serif" font-size="25.00" fill="#000000">Puck</text>
<text text-anchor="middle" x="409.879" y="-422.9566" font-family="Times,serif" font-size="25.00" fill="#000000">Шайба</text>
<text text-anchor="middle" x="409.879" y="-394.9566" font-family="Times,serif" font-size="25.00" fill="#000000">Пак</text>
</a>
</g>
</g>
<!-- Ice -->
<g id="node6" class="node has&#45;pronunciation">
<title>Ice</title>
<g id="a_node6"><a xlink:href="../ice.html" xlink:title="Лёд" target="_top">
<ellipse fill="none" stroke="#c0c0c0" stroke-width=".2" cx="41.7193" cy="-685.9559" rx="41.9398" ry="41.9398"/>
<text text-anchor="middle" x="41.7193" y="-699.4559" font-family="Times,serif" font-size="15.00" fill="#000000">Ice</text>
<text text-anchor="middle" x="41.7193" y="-682.4559" font-family="Times,serif" font-size="15.00" fill="#000000">Лёд</text>
<text text-anchor="middle" x="41.7193" y="-665.4559" font-family="Times,serif" font-size="15.00" fill="#000000">Айс</text>
</a>
</g>
</g>
<!-- Puck&#45;&gt;Ice -->
<g id="edge13" class="edge">
<title>Puck&#45;&gt;Ice</title>
<path fill="none" stroke="#000000" stroke-dasharray="5,2" d="M356.3455,-466.3265C282.7141,-517.726 151.6695,-609.2036 84.3027,-656.2299"/>
<polygon fill="#000000" stroke="#000000" points="76.0178,-662.0133 81.6418,-652.5994 80.1177,-659.1513 84.2176,-656.2893 84.2176,-656.2893 84.2176,-656.2893 80.1177,-659.1513 86.7934,-659.9792 76.0178,-662.0133 76.0178,-662.0133"/>
</g>
<!-- Goal net -->
<g id="node7" class="node has&#45;pronunciation">
<title>Goal net</title>
<g id="a_node7"><a xlink:href="../goal-net.html" xlink:title="Ворота" target="_top">
<ellipse fill="none" stroke="#c0c0c0" stroke-width=".2" cx="120.2532" cy="-205.1408" rx="77.5641" ry="77.5641"/>
<text text-anchor="middle" x="120.2532" y="-227.1408" font-family="Times,serif" font-size="25.00" fill="#000000">Goal net</text>
<text text-anchor="middle" x="120.2532" y="-199.1408" font-family="Times,serif" font-size="25.00" fill="#000000">Ворота</text>
<text text-anchor="middle" x="120.2532" y="-171.1408" font-family="Times,serif" font-size="25.00" fill="#000000">Гoул нет</text>
</a>
</g>
</g>
<!-- Puck&#45;&gt;Goal net -->
<g id="edge14" class="edge">
<title>Puck&#45;&gt;Goal net</title>
<path fill="none" stroke="#000000" stroke-dasharray="5,2" d="M358.0997,-388.9428C311.2254,-352.7195 241.7987,-299.0682 190.0392,-259.0697"/>
<polygon fill="#000000" stroke="#000000" points="181.89,-252.7722 192.5543,-255.3263 185.8463,-255.8296 189.8026,-258.887 189.8026,-258.887 189.8026,-258.887 185.8463,-255.8296 187.051,-262.4477 181.89,-252.7722 181.89,-252.7722"/>
</g>
<!-- Stick -->
<g id="node2" class="node has&#45;pronunciation">
<title>Stick</title>
<g id="a_node2"><a xlink:href="../stick.html" xlink:title="Клюшка" target="_top">
<ellipse fill="none" stroke="#c0c0c0" stroke-width=".2" cx="1137.4957" cy="-486.1033" rx="48.5816" ry="48.5816"/>
<text text-anchor="middle" x="1137.4957" y="-499.6033" font-family="Times,serif" font-size="15.00" fill="#000000">Stick</text>
<text text-anchor="middle" x="1137.4957" y="-482.6033" font-family="Times,serif" font-size="15.00" fill="#000000">Клюшка</text>
<text text-anchor="middle" x="1137.4957" y="-465.6033" font-family="Times,serif" font-size="15.00" fill="#000000">Стик</text>
</a>
</g>
</g>
<!-- Stick&#45;&gt;Puck -->
<g id="edge9" class="edge">
<title>Stick&#45;&gt;Puck</title>
<path fill="none" stroke="#000000" stroke-dasharray="5,2" d="M1088.6249,-482.265C964.034,-472.4797 633.8712,-446.5489 484.7946,-434.8404"/>
<polygon fill="#000000" stroke="#000000" points="474.81,-434.0563 485.1317,-430.3531 479.7947,-434.4478 484.7793,-434.8393 484.7793,-434.8393 484.7793,-434.8393 479.7947,-434.4478 484.427,-439.3255 474.81,-434.0563 474.81,-434.0563"/>
</g>
<!-- Goal -->
<g id="node3" class="node has&#45;pronunciation">
<title>Goal</title>
<g id="a_node3"><a xlink:href="../goal.html" xlink:title="Гол" target="_top">
<ellipse fill="none" stroke="#c0c0c0" stroke-width=".2" cx="456.5884" cy="-65.0538" rx="65.1077" ry="65.1077"/>
<text text-anchor="middle" x="456.5884" y="-87.0538" font-family="Times,serif" font-size="25.00" fill="#000000">Goal</text>
<text text-anchor="middle" x="456.5884" y="-59.0538" font-family="Times,serif" font-size="25.00" fill="#000000">Гол</text>
<text text-anchor="middle" x="456.5884" y="-31.0538" font-family="Times,serif" font-size="25.00" fill="#000000">Гoул</text>
</a>
</g>
</g>
<!-- Goal&#45;&gt;Puck -->
<g id="edge10" class="edge">
<title>Goal&#45;&gt;Puck</title>
<path fill="none" stroke="#000000" stroke-dasharray="5,2" d="M448.2915,-129.693C440.2124,-192.6358 427.9423,-288.2295 419.4535,-354.3639"/>
<polygon fill="#000000" stroke="#000000" points="418.1772,-364.3076 414.987,-353.816 418.8138,-359.3483 419.4504,-354.389 419.4504,-354.389 419.4504,-354.389 418.8138,-359.3483 423.9138,-354.9619 418.1772,-364.3076 418.1772,-364.3076"/>
</g>
<!-- Goal&#45;&gt;Goal net -->
<g id="edge1" class="edge">
<title>Goal&#45;&gt;Goal net</title>
<path fill="none" stroke="#000000" stroke-dasharray="5,2" d="M396.4584,-90.0986C342.1141,-112.7335 261.6665,-146.2407 201.5912,-171.2627"/>
<polygon fill="#000000" stroke="#000000" points="192.1315,-175.2028 199.6325,-167.2037 196.7471,-173.2803 201.3628,-171.3578 201.3628,-171.3578 201.3628,-171.3578 196.7471,-173.2803 203.093,-175.5119 192.1315,-175.2028 192.1315,-175.2028"/>
</g>
<!-- Shot -->
<g id="node4" class="node has&#45;pronunciation">
<title>Shot</title>
<g id="a_node4"><a xlink:href="../shot.html" xlink:title="Бросок" target="_top">
<ellipse fill="none" stroke="#c0c0c0" stroke-width=".2" cx="722.5028" cy="-317.5866" rx="67.3507" ry="67.3507"/>
<text text-anchor="middle" x="722.5028" y="-339.5866" font-family="Times,serif" font-size="25.00" fill="#000000">Shot</text>
<text text-anchor="middle" x="722.5028" y="-311.5866" font-family="Times,serif" font-size="25.00" fill="#000000">Бросок</text>
<text text-anchor="middle" x="722.5028" y="-283.5866" font-family="Times,serif" font-size="25.00" fill="#000000">Шат</text>
</a>
</g>
</g>
<!-- Shot&#45;&gt;Puck -->
<g id="edge11" class="edge">
<title>Shot&#45;&gt;Puck</title>
<path fill="none" stroke="#000000" stroke-dasharray="5,2" d="M658.8619,-340.2582C607.158,-358.6774 534.2827,-384.6387 480.7301,-403.7164"/>
<polygon fill="#000000" stroke="#000000" points="471.3017,-407.0752 479.2117,-399.4802 476.0118,-405.3972 480.7218,-403.7193 480.7218,-403.7193 480.7218,-403.7193 476.0118,-405.3972 482.232,-407.9583 471.3017,-407.0752 471.3017,-407.0752"/>
</g>
<!-- Shot&#45;&gt;Stick -->
<g id="edge3" class="edge">
<title>Shot&#45;&gt;Stick</title>
<path fill="none" stroke="#000000" stroke-dasharray="5,2" d="M785.0808,-342.9977C865.9664,-375.843 1005.5342,-432.5175 1082.5254,-463.7814"/>
<polygon fill="#000000" stroke="#000000" points="1092.0513,-467.6496 1081.0929,-468.0566 1087.4186,-465.7684 1082.786,-463.8872 1082.786,-463.8872 1082.786,-463.8872 1087.4186,-465.7684 1084.4791,-459.7178 1092.0513,-467.6496 1092.0513,-467.6496"/>
</g>
<!-- Shot&#45;&gt;Goal -->
<g id="edge2" class="edge">
<title>Shot&#45;&gt;Goal</title>
<path fill="none" stroke="#000000" stroke-dasharray="5,2" d="M673.73,-271.2682C627.9023,-227.7467 559.4067,-162.698 511.6391,-117.3342"/>
<polygon fill="#000000" stroke="#000000" points="504.1573,-110.2289 514.5073,-113.8522 507.7829,-113.6721 511.4085,-117.1152 511.4085,-117.1152 511.4085,-117.1152 507.7829,-113.6721 508.3097,-120.3783 504.1573,-110.2289 504.1573,-110.2289"/>
</g>
<!-- Shot&#45;&gt;Goal net -->
<g id="edge4" class="edge">
<title>Shot&#45;&gt;Goal net</title>
<path fill="none" stroke="#000000" stroke-dasharray="5,2" d="M656.3288,-305.2313C546.9565,-284.8104 328.5082,-244.024 206.9475,-221.3275"/>
<polygon fill="#000000" stroke="#000000" points="196.9297,-219.457 207.5858,-216.8689 201.8448,-220.3748 206.7598,-221.2925 206.7598,-221.2925 206.7598,-221.2925 201.8448,-220.3748 205.9339,-225.7161 196.9297,-219.457 196.9297,-219.457"/>
</g>
<!-- Hockey -->
<g id="node5" class="node has&#45;pronunciation">
<title>Hockey</title>
<g id="a_node5"><a xlink:href="../hockey.html" xlink:title="Хоккей" target="_top">
<ellipse fill="none" stroke="#c0c0c0" stroke-width=".2" cx="925.3276" cy="-184.5065" rx="45.011" ry="45.011"/>
<text text-anchor="middle" x="925.3276" y="-198.0065" font-family="Times,serif" font-size="15.00" fill="#000000">Hockey</text>
<text text-anchor="middle" x="925.3276" y="-181.0065" font-family="Times,serif" font-size="15.00" fill="#000000">Хоккей</text>
<text text-anchor="middle" x="925.3276" y="-164.0065" font-family="Times,serif" font-size="15.00" fill="#000000">ˈХаки</text>
</a>
</g>
</g>
<!-- Hockey&#45;&gt;Puck -->
<g id="edge12" class="edge">
<title>Hockey&#45;&gt;Puck</title>
<path fill="none" stroke="#000000" stroke-dasharray="5,2" d="M881.4843,-197.2656C840.1931,-209.5527 776.7704,-229.1252 722.6518,-248.8116 629.429,-282.7227 531.8989,-343.5796 471.0359,-385.0898"/>
<polygon fill="#000000" stroke="#000000" points="462.6955,-390.8138 468.3942,-381.4449 466.818,-387.9845 470.9406,-385.1552 470.9406,-385.1552 470.9406,-385.1552 466.818,-387.9845 473.4869,-388.8655 462.6955,-390.8138 462.6955,-390.8138"/>
</g>
<!-- Hockey&#45;&gt;Stick -->
<g id="edge6" class="edge">
<title>Hockey&#45;&gt;Stick</title>
<path fill="none" stroke="#000000" stroke-dasharray="5,2" d="M951.5563,-221.7907C989.8886,-276.2799 1061.238,-377.7031 1103.5345,-437.8275"/>
<polygon fill="#000000" stroke="#000000" points="1109.3035,-446.028 1099.8692,-440.4383 1106.4266,-441.9386 1103.5497,-437.8491 1103.5497,-437.8491 1103.5497,-437.8491 1106.4266,-441.9386 1107.2302,-435.2599 1109.3035,-446.028 1109.3035,-446.028"/>
</g>
<!-- Hockey&#45;&gt;Goal -->
<g id="edge8" class="edge">
<title>Hockey&#45;&gt;Goal</title>
<path fill="none" stroke="#000000" stroke-dasharray="5,2" d="M881.2297,-173.2687C800.4767,-152.6897 628.1179,-108.7661 529.621,-83.6653"/>
<polygon fill="#000000" stroke="#000000" points="519.7409,-81.1475 530.5425,-79.2564 524.586,-82.3823 529.4312,-83.617 529.4312,-83.617 529.4312,-83.617 524.586,-82.3823 528.3199,-87.9777 519.7409,-81.1475 519.7409,-81.1475"/>
</g>
<!-- Hockey&#45;&gt;Shot -->
<g id="edge5" class="edge">
<title>Hockey&#45;&gt;Shot</title>
<path fill="none" stroke="#000000" stroke-dasharray="5,2" d="M887.1778,-209.5379C859.1575,-227.9229 820.409,-253.3471 787.5382,-274.9147"/>
<polygon fill="#000000" stroke="#000000" points="778.8787,-280.5965 784.771,-271.3481 783.0592,-277.8535 787.2396,-275.1106 787.2396,-275.1106 787.2396,-275.1106 783.0592,-277.8535 789.7083,-278.873 778.8787,-280.5965 778.8787,-280.5965"/>
</g>
<!-- Hockey&#45;&gt;Goal net -->
<g id="edge7" class="edge">
<title>Hockey&#45;&gt;Goal net</title>
<path fill="none" stroke="#000000" stroke-dasharray="5,2" d="M880.0278,-185.6676C750.9059,-188.977 379.3221,-198.5008 208.3091,-202.8839"/>
<polygon fill="#000000" stroke="#000000" points="198.0834,-203.146 207.9648,-198.3911 203.0818,-203.0178 208.0801,-202.8897 208.0801,-202.8897 208.0801,-202.8897 203.0818,-203.0178 208.1955,-207.3882 198.0834,-203.146 198.0834,-203.146"/>
</g>
</g>
</svg>
