<?xml version="1.0" encoding="UTF-8" standalone="no"?>
<?xml-stylesheet href="../static/svg.css" type="text/css"?>
<!DOCTYPE svg PUBLIC "-//W3C//DTD SVG 1.1//EN"
 "http://www.w3.org/Graphics/SVG/1.1/DTD/svg11.dtd">
<!-- Generated by graphviz version 2.40.1 (20161225.0304)
 -->
<!-- Title: term Pages: 1 -->
<svg width="446pt" height="352pt"
 viewBox="0.00 0.00 446.36 351.69" xmlns="http://www.w3.org/2000/svg" xmlns:xlink="http://www.w3.org/1999/xlink">
<g id="graph0" class="graph" transform="scale(1 1) rotate(0) translate(4 347.6924)">
<title>term</title>
<!-- Ice -->
<g id="node1" class="node root has&#45;pronunciation">
<title>Ice</title>
<g id="a_node1"><a xlink:href="javascript:history.back()" xlink:title="Лёд" target="_top">
<ellipse fill="none" stroke="#c0c0c0" stroke-width=".2" cx="168.4013" cy="-179.4218" rx="41.9398" ry="41.9398"/>
<text text-anchor="middle" x="168.4013" y="-192.9218" font-family="Times,serif" font-size="15.00" fill="#000000">Ice</text>
<text text-anchor="middle" x="168.4013" y="-175.9218" font-family="Times,serif" font-size="15.00" fill="#000000">Лёд</text>
<text text-anchor="middle" x="168.4013" y="-158.9218" font-family="Times,serif" font-size="15.00" fill="#000000">Айс</text>
</a>
</g>
</g>
<!-- Rink -->
<g id="node2" class="node has&#45;pronunciation">
<title>Rink</title>
<g id="a_node2"><a xlink:href="../rink.html" xlink:title="Площадка" target="_top">
<ellipse fill="none" stroke="#c0c0c0" stroke-width=".2" cx="381.0804" cy="-286.4167" rx="57.0522" ry="57.0522"/>
<text text-anchor="middle" x="381.0804" y="-299.9167" font-family="Times,serif" font-size="15.00" fill="#000000">Rink</text>
<text text-anchor="middle" x="381.0804" y="-282.9167" font-family="Times,serif" font-size="15.00" fill="#000000">Площадка</text>
<text text-anchor="middle" x="381.0804" y="-265.9167" font-family="Times,serif" font-size="15.00" fill="#000000">Ринк</text>
</a>
</g>
</g>
<!-- Rink&#45;&gt;Ice -->
<g id="edge1" class="edge">
<title>Rink&#45;&gt;Ice</title>
<path fill="none" stroke="#000000" stroke-dasharray="5,2" d="M329.8678,-260.6526C294.9269,-243.0744 249.0104,-219.9747 215.0774,-202.9037"/>
<polygon fill="#000000" stroke="#000000" points="205.8434,-198.2582 216.799,-198.7324 210.31,-200.5053 214.7766,-202.7524 214.7766,-202.7524 214.7766,-202.7524 210.31,-200.5053 212.7542,-206.7724 205.8434,-198.2582 205.8434,-198.2582"/>
</g>
<!-- Puck -->
<g id="node3" class="node has&#45;pronunciation">
<title>Puck</title>
<g id="a_node3"><a xlink:href="../puck.html" xlink:title="Шайба" target="_top">
<ellipse fill="none" stroke="#c0c0c0" stroke-width=".2" cx="52.3259" cy="-52.3259" rx="52.1524" ry="52.1524"/>
<text text-anchor="middle" x="52.3259" y="-69.3259" font-family="Times,serif" font-size="20.00" fill="#000000">Puck</text>
<text text-anchor="middle" x="52.3259" y="-47.3259" font-family="Times,serif" font-size="20.00" fill="#000000">Шайба</text>
<text text-anchor="middle" x="52.3259" y="-25.3259" font-family="Times,serif" font-size="20.00" fill="#000000">Пак</text>
</a>
</g>
</g>
<!-- Puck&#45;&gt;Ice -->
<g id="edge2" class="edge">
<title>Puck&#45;&gt;Ice</title>
<path fill="none" stroke="#000000" stroke-dasharray="5,2" d="M87.7831,-91.1494C102.2215,-106.9587 118.869,-125.1867 133.2735,-140.9589"/>
<polygon fill="#000000" stroke="#000000" points="140.1452,-148.483 130.0787,-144.1337 136.7733,-144.791 133.4015,-141.099 133.4015,-141.099 133.4015,-141.099 136.7733,-144.791 136.7243,-138.0643 140.1452,-148.483 140.1452,-148.483"/>
</g>
</g>
</svg>
