<?xml version="1.0" encoding="UTF-8" standalone="no"?>
<?xml-stylesheet href="../static/svg.css" type="text/css"?>
<!DOCTYPE svg PUBLIC "-//W3C//DTD SVG 1.1//EN"
 "http://www.w3.org/Graphics/SVG/1.1/DTD/svg11.dtd">
<!-- Generated by graphviz version 2.40.1 (20161225.0304)
 -->
<!-- Title: term Pages: 1 -->
<svg width="996pt" height="600pt"
 viewBox="0.00 0.00 996.40 599.86" xmlns="http://www.w3.org/2000/svg" xmlns:xlink="http://www.w3.org/1999/xlink">
<g id="graph0" class="graph" transform="scale(1 1) rotate(0) translate(4 595.8564)">
<title>term</title>
<!-- Goal -->
<g id="node1" class="node root has&#45;pronunciation">
<title>Goal</title>
<g id="a_node1"><a xlink:href="javascript:history.back()" xlink:title="Гол" target="_top">
<ellipse fill="none" stroke="#c0c0c0" stroke-width=".2" cx="516.1485" cy="-285.0591" rx="65.1077" ry="65.1077"/>
<text text-anchor="middle" x="516.1485" y="-307.0591" font-family="Times,serif" font-size="25.00" fill="#000000">Goal</text>
<text text-anchor="middle" x="516.1485" y="-279.0591" font-family="Times,serif" font-size="25.00" fill="#000000">Гол</text>
<text text-anchor="middle" x="516.1485" y="-251.0591" font-family="Times,serif" font-size="25.00" fill="#000000">Гoул</text>
</a>
</g>
</g>
<!-- Puck -->
<g id="node7" class="node has&#45;pronunciation">
<title>Puck</title>
<g id="a_node7"><a xlink:href="../puck.html" xlink:title="Шайба" target="_top">
<ellipse fill="none" stroke="#c0c0c0" stroke-width=".2" cx="65.0538" cy="-142.2792" rx="65.1077" ry="65.1077"/>
<text text-anchor="middle" x="65.0538" y="-164.2792" font-family="Times,serif" font-size="25.00" fill="#000000">Puck</text>
<text text-anchor="middle" x="65.0538" y="-136.2792" font-family="Times,serif" font-size="25.00" fill="#000000">Шайба</text>
<text text-anchor="middle" x="65.0538" y="-108.2792" font-family="Times,serif" font-size="25.00" fill="#000000">Пак</text>
</a>
</g>
</g>
<!-- Goal&#45;&gt;Puck -->
<g id="edge16" class="edge">
<title>Goal&#45;&gt;Puck</title>
<path fill="none" stroke="#000000" stroke-dasharray="5,2" d="M453.8993,-265.3561C370.9654,-239.1059 224.5431,-192.7605 136.9808,-165.0454"/>
<polygon fill="#000000" stroke="#000000" points="127.388,-162.0091 138.2798,-160.7366 132.1549,-163.518 136.9218,-165.0268 136.9218,-165.0268 136.9218,-165.0268 132.1549,-163.518 135.5639,-169.3171 127.388,-162.0091 127.388,-162.0091"/>
</g>
<!-- Goal net -->
<g id="node8" class="node has&#45;pronunciation">
<title>Goal net</title>
<g id="a_node8"><a xlink:href="../goal-net.html" xlink:title="Ворота" target="_top">
<ellipse fill="none" stroke="#c0c0c0" stroke-width=".2" cx="328.6046" cy="-77.7817" rx="77.5641" ry="77.5641"/>
<text text-anchor="middle" x="328.6046" y="-99.7817" font-family="Times,serif" font-size="25.00" fill="#000000">Goal net</text>
<text text-anchor="middle" x="328.6046" y="-71.7817" font-family="Times,serif" font-size="25.00" fill="#000000">Ворота</text>
<text text-anchor="middle" x="328.6046" y="-43.7817" font-family="Times,serif" font-size="25.00" fill="#000000">Гoул нет</text>
</a>
</g>
</g>
<!-- Goal&#45;&gt;Goal net -->
<g id="edge17" class="edge">
<title>Goal&#45;&gt;Goal net</title>
<path fill="none" stroke="#000000" stroke-dasharray="5,2" d="M472.4145,-236.7234C447.2695,-208.9326 415.3359,-173.6389 387.9509,-143.3724"/>
<polygon fill="#000000" stroke="#000000" points="381.0935,-135.7935 391.1396,-140.1896 384.4481,-139.5011 387.8028,-143.2088 387.8028,-143.2088 387.8028,-143.2088 384.4481,-139.5011 384.4659,-146.228 381.0935,-135.7935 381.0935,-135.7935"/>
</g>
<!-- Score -->
<g id="node2" class="node has&#45;pronunciation">
<title>Score</title>
<g id="a_node2"><a xlink:href="../score.html" xlink:title="Счёт" target="_top">
<ellipse fill="none" stroke="#c0c0c0" stroke-width=".2" cx="923.346" cy="-239.4881" rx="65.1077" ry="65.1077"/>
<text text-anchor="middle" x="923.346" y="-261.4881" font-family="Times,serif" font-size="25.00" fill="#000000">Score</text>
<text text-anchor="middle" x="923.346" y="-233.4881" font-family="Times,serif" font-size="25.00" fill="#000000">Счёт</text>
<text text-anchor="middle" x="923.346" y="-205.4881" font-family="Times,serif" font-size="25.00" fill="#000000">Скор</text>
</a>
</g>
</g>
<!-- Score&#45;&gt;Goal -->
<g id="edge11" class="edge">
<title>Score&#45;&gt;Goal</title>
<path fill="none" stroke="#000000" stroke-dasharray="5,2" d="M858.3741,-246.7594C785.5267,-254.912 667.5883,-268.1109 590.9536,-276.6874"/>
<polygon fill="#000000" stroke="#000000" points="580.889,-277.8138 590.3264,-272.2294 585.8579,-277.2576 590.8269,-276.7015 590.8269,-276.7015 590.8269,-276.7015 585.8579,-277.2576 591.3274,-281.1736 580.889,-277.8138 580.889,-277.8138"/>
</g>
<!-- Point -->
<g id="node3" class="node has&#45;pronunciation">
<title>Point</title>
<g id="a_node3"><a xlink:href="../point.html" xlink:title="Очко" target="_top">
<ellipse fill="none" stroke="#c0c0c0" stroke-width=".2" cx="793.6969" cy="-478.4745" rx="41.9398" ry="41.9398"/>
<text text-anchor="middle" x="793.6969" y="-491.9745" font-family="Times,serif" font-size="15.00" fill="#000000">Point</text>
<text text-anchor="middle" x="793.6969" y="-474.9745" font-family="Times,serif" font-size="15.00" fill="#000000">Очко</text>
<text text-anchor="middle" x="793.6969" y="-457.9745" font-family="Times,serif" font-size="15.00" fill="#000000">Пойнт</text>
</a>
</g>
</g>
<!-- Score&#45;&gt;Point -->
<g id="edge1" class="edge">
<title>Score&#45;&gt;Point</title>
<path fill="none" stroke="#000000" stroke-dasharray="5,2" d="M892.2918,-296.7313C869.6827,-338.4075 839.4697,-394.1001 818.4731,-432.8038"/>
<polygon fill="#000000" stroke="#000000" points="813.6096,-441.7688 814.4227,-430.8331 815.9939,-437.3739 818.3781,-432.9789 818.3781,-432.9789 818.3781,-432.9789 815.9939,-437.3739 822.3336,-435.1247 813.6096,-441.7688 813.6096,-441.7688"/>
</g>
<!-- Point&#45;&gt;Goal -->
<g id="edge12" class="edge">
<title>Point&#45;&gt;Goal</title>
<path fill="none" stroke="#000000" stroke-dasharray="5,2" d="M759.3857,-454.564C714.2058,-423.0794 633.9632,-367.1607 578.0475,-328.1947"/>
<polygon fill="#000000" stroke="#000000" points="569.6366,-322.3334 580.4138,-324.3589 573.7388,-325.1921 577.841,-328.0508 577.841,-328.0508 577.841,-328.0508 573.7388,-325.1921 575.2681,-331.7428 569.6366,-322.3334 569.6366,-322.3334"/>
</g>
<!-- Player -->
<g id="node4" class="node has&#45;pronunciation">
<title>Player</title>
<g id="a_node4"><a xlink:href="../player.html" xlink:title="Игрок" target="_top">
<ellipse fill="none" stroke="#c0c0c0" stroke-width=".2" cx="400.1838" cy="-545.1874" rx="46.8387" ry="46.8387"/>
<text text-anchor="middle" x="400.1838" y="-558.6874" font-family="Times,serif" font-size="15.00" fill="#000000">Player</text>
<text text-anchor="middle" x="400.1838" y="-541.6874" font-family="Times,serif" font-size="15.00" fill="#000000">Игрок</text>
<text text-anchor="middle" x="400.1838" y="-524.6874" font-family="Times,serif" font-size="15.00" fill="#000000">&#39;Плейэр</text>
</a>
</g>
</g>
<!-- Point&#45;&gt;Player -->
<g id="edge2" class="edge">
<title>Point&#45;&gt;Player</title>
<path fill="none" stroke="#000000" stroke-dasharray="5,2" d="M752.3279,-485.4879C681.3642,-497.5184 536.3611,-522.101 456.3356,-535.6679"/>
<polygon fill="#000000" stroke="#000000" points="446.435,-537.3463 455.5421,-531.2381 451.3646,-536.5106 456.2943,-535.6748 456.2943,-535.6748 456.2943,-535.6748 451.3646,-536.5106 457.0465,-540.1115 446.435,-537.3463 446.435,-537.3463"/>
</g>
<!-- Player&#45;&gt;Goal -->
<g id="edge13" class="edge">
<title>Player&#45;&gt;Goal</title>
<path fill="none" stroke="#000000" stroke-dasharray="5,2" d="M419.2031,-502.5238C437.1545,-462.2557 464.3798,-401.1849 485.4134,-354.0029"/>
<polygon fill="#000000" stroke="#000000" points="489.533,-344.762 489.5714,-355.7278 487.4971,-349.3288 485.4613,-353.8955 485.4613,-353.8955 485.4613,-353.8955 487.4971,-349.3288 481.3512,-352.0632 489.533,-344.762 489.533,-344.762"/>
</g>
<!-- Shot -->
<g id="node5" class="node has&#45;pronunciation">
<title>Shot</title>
<g id="a_node5"><a xlink:href="../shot.html" xlink:title="Бросок" target="_top">
<ellipse fill="none" stroke="#c0c0c0" stroke-width=".2" cx="261.4593" cy="-310.6387" rx="67.3507" ry="67.3507"/>
<text text-anchor="middle" x="261.4593" y="-332.6387" font-family="Times,serif" font-size="25.00" fill="#000000">Shot</text>
<text text-anchor="middle" x="261.4593" y="-304.6387" font-family="Times,serif" font-size="25.00" fill="#000000">Бросок</text>
<text text-anchor="middle" x="261.4593" y="-276.6387" font-family="Times,serif" font-size="25.00" fill="#000000">Шат</text>
</a>
</g>
</g>
<!-- Player&#45;&gt;Shot -->
<g id="edge3" class="edge">
<title>Player&#45;&gt;Shot</title>
<path fill="none" stroke="#000000" stroke-dasharray="5,2" d="M376.3362,-504.867C355.695,-469.9679 325.426,-418.7905 301.1401,-377.7291"/>
<polygon fill="#000000" stroke="#000000" points="295.8969,-368.8642 304.861,-375.1806 298.4423,-373.1678 300.9877,-377.4714 300.9877,-377.4714 300.9877,-377.4714 298.4423,-373.1678 297.1145,-379.7623 295.8969,-368.8642 295.8969,-368.8642"/>
</g>
<!-- Shot&#45;&gt;Goal -->
<g id="edge14" class="edge">
<title>Shot&#45;&gt;Goal</title>
<path fill="none" stroke="#000000" stroke-dasharray="5,2" d="M328.3759,-303.918C362.8502,-300.4555 405.0163,-296.2206 440.6508,-292.6417"/>
<polygon fill="#000000" stroke="#000000" points="450.9988,-291.6024 441.4986,-297.0793 446.0238,-292.1021 441.0489,-292.6018 441.0489,-292.6018 441.0489,-292.6018 446.0238,-292.1021 440.5991,-288.1243 450.9988,-291.6024 450.9988,-291.6024"/>
</g>
<!-- Shot&#45;&gt;Puck -->
<g id="edge4" class="edge">
<title>Shot&#45;&gt;Puck</title>
<path fill="none" stroke="#000000" stroke-dasharray="5,2" d="M210.3688,-266.8437C183.3567,-243.6889 150.1122,-215.1915 122.241,-191.3002"/>
<polygon fill="#000000" stroke="#000000" points="114.532,-184.6921 125.053,-187.7837 118.3282,-187.9462 122.1244,-191.2003 122.1244,-191.2003 122.1244,-191.2003 118.3282,-187.9462 119.1957,-194.6168 114.532,-184.6921 114.532,-184.6921"/>
</g>
<!-- Shot&#45;&gt;Goal net -->
<g id="edge5" class="edge">
<title>Shot&#45;&gt;Goal net</title>
<path fill="none" stroke="#000000" stroke-dasharray="5,2" d="M280.0738,-246.0843C287.5382,-220.1983 296.2425,-190.0121 304.2021,-162.4087"/>
<polygon fill="#000000" stroke="#000000" points="306.9831,-152.7641 308.5362,-163.6194 305.5978,-157.5684 304.2124,-162.3726 304.2124,-162.3726 304.2124,-162.3726 305.5978,-157.5684 299.8886,-161.1258 306.9831,-152.7641 306.9831,-152.7641"/>
</g>
<!-- Hockey -->
<g id="node6" class="node has&#45;pronunciation">
<title>Hockey</title>
<g id="a_node6"><a xlink:href="../hockey.html" xlink:title="Хоккей" target="_top">
<ellipse fill="none" stroke="#c0c0c0" stroke-width=".2" cx="77.6368" cy="-371.0598" rx="45.011" ry="45.011"/>
<text text-anchor="middle" x="77.6368" y="-384.5598" font-family="Times,serif" font-size="15.00" fill="#000000">Hockey</text>
<text text-anchor="middle" x="77.6368" y="-367.5598" font-family="Times,serif" font-size="15.00" fill="#000000">Хоккей</text>
<text text-anchor="middle" x="77.6368" y="-350.5598" font-family="Times,serif" font-size="15.00" fill="#000000">ˈХаки</text>
</a>
</g>
</g>
<!-- Hockey&#45;&gt;Goal -->
<g id="edge15" class="edge">
<title>Hockey&#45;&gt;Goal</title>
<path fill="none" stroke="#000000" stroke-dasharray="5,2" d="M122.3773,-378.0444C159.6782,-382.6867 214.1063,-386.7142 261.0315,-379.4125 327.2524,-369.1084 398.4546,-341.2321 448.7644,-318.4331"/>
<polygon fill="#000000" stroke="#000000" points="457.9092,-314.2405 450.6944,-322.4987 453.3641,-316.3243 448.819,-318.4081 448.819,-318.4081 448.819,-318.4081 453.3641,-316.3243 446.9436,-314.3175 457.9092,-314.2405 457.9092,-314.2405"/>
</g>
<!-- Hockey&#45;&gt;Player -->
<g id="edge7" class="edge">
<title>Hockey&#45;&gt;Player</title>
<path fill="none" stroke="#000000" stroke-dasharray="5,2" d="M117.5109,-392.5859C176.1479,-424.2412 285.6061,-483.3324 349.7503,-517.9607"/>
<polygon fill="#000000" stroke="#000000" points="358.8739,-522.8862 347.9366,-522.0955 354.4741,-520.5109 350.0743,-518.1356 350.0743,-518.1356 350.0743,-518.1356 354.4741,-520.5109 352.212,-514.1758 358.8739,-522.8862 358.8739,-522.8862"/>
</g>
<!-- Hockey&#45;&gt;Shot -->
<g id="edge6" class="edge">
<title>Hockey&#45;&gt;Shot</title>
<path fill="none" stroke="#000000" stroke-dasharray="5,2" d="M120.735,-356.8937C140.6985,-350.3319 164.9901,-342.3474 187.7342,-334.8716"/>
<polygon fill="#000000" stroke="#000000" points="197.3697,-331.7045 189.275,-339.1021 192.6198,-333.2658 187.8698,-334.8271 187.8698,-334.8271 187.8698,-334.8271 192.6198,-333.2658 186.4646,-330.5521 197.3697,-331.7045 197.3697,-331.7045"/>
</g>
<!-- Hockey&#45;&gt;Puck -->
<g id="edge8" class="edge">
<title>Hockey&#45;&gt;Puck</title>
<path fill="none" stroke="#000000" stroke-dasharray="5,2" d="M75.1508,-325.8601C73.4559,-295.0443 71.1709,-253.4977 69.2032,-217.7224"/>
<polygon fill="#000000" stroke="#000000" points="68.6307,-207.3125 73.6731,-217.0503 68.9053,-212.305 69.1799,-217.2975 69.1799,-217.2975 69.1799,-217.2975 68.9053,-212.305 64.6867,-217.5446 68.6307,-207.3125 68.6307,-207.3125"/>
</g>
<!-- Hockey&#45;&gt;Goal net -->
<g id="edge9" class="edge">
<title>Hockey&#45;&gt;Goal net</title>
<path fill="none" stroke="#000000" stroke-dasharray="5,2" d="M107.164,-336.5547C147.3417,-289.6035 220.0738,-204.6096 271.1928,-144.8725"/>
<polygon fill="#000000" stroke="#000000" points="277.9426,-136.9848 274.8599,-147.5085 274.6917,-140.7837 271.4409,-144.5827 271.4409,-144.5827 271.4409,-144.5827 274.6917,-140.7837 268.0218,-141.6569 277.9426,-136.9848 277.9426,-136.9848"/>
</g>
<!-- Puck&#45;&gt;Goal net -->
<g id="edge10" class="edge">
<title>Puck&#45;&gt;Goal net</title>
<path fill="none" stroke="#000000" stroke-dasharray="5,2" d="M128.5162,-126.7484C162.9116,-118.331 205.8896,-107.8132 243.1885,-98.6852"/>
<polygon fill="#000000" stroke="#000000" points="253.0416,-96.2739 244.3979,-103.0221 248.1849,-97.4625 243.3282,-98.6511 243.3282,-98.6511 243.3282,-98.6511 248.1849,-97.4625 242.2585,-94.2801 253.0416,-96.2739 253.0416,-96.2739"/>
</g>
</g>
</svg>
