<?xml version="1.0" encoding="UTF-8" standalone="no"?>
<?xml-stylesheet href="../static/svg.css" type="text/css"?>
<!DOCTYPE svg PUBLIC "-//W3C//DTD SVG 1.1//EN"
 "http://www.w3.org/Graphics/SVG/1.1/DTD/svg11.dtd">
<!-- Generated by graphviz version 2.40.1 (20161225.0304)
 -->
<!-- Title: term Pages: 1 -->
<svg width="508pt" height="394pt"
 viewBox="0.00 0.00 507.63 393.93" xmlns="http://www.w3.org/2000/svg" xmlns:xlink="http://www.w3.org/1999/xlink">
<g id="graph0" class="graph" transform="scale(1 1) rotate(0) translate(4 389.9342)">
<title>term</title>
<!-- Overtime -->
<g id="node1" class="node root has&#45;pronunciation">
<title>Overtime</title>
<g id="a_node1"><a xlink:href="javascript:history.back()" xlink:title="Овертайм" target="_top">
<ellipse fill="none" stroke="#c0c0c0" stroke-width=".2" cx="67.1751" cy="-173.5301" rx="67.3507" ry="67.3507"/>
<text text-anchor="middle" x="67.1751" y="-187.0301" font-family="Times,serif" font-size="15.00" fill="#000000">Overtime</text>
<text text-anchor="middle" x="67.1751" y="-170.0301" font-family="Times,serif" font-size="15.00" fill="#000000">Овертайм</text>
<text text-anchor="middle" x="67.1751" y="-153.0301" font-family="Times,serif" font-size="15.00" fill="#000000">ˈОувэрˌтайм</text>
</a>
</g>
</g>
<!-- Period -->
<g id="node3" class="node has&#45;pronunciation">
<title>Period</title>
<g id="a_node3"><a xlink:href="../period.html" xlink:title="Период" target="_top">
<ellipse fill="none" stroke="#c0c0c0" stroke-width=".2" cx="309.3228" cy="-48.0833" rx="48.1667" ry="48.1667"/>
<text text-anchor="middle" x="309.3228" y="-61.5833" font-family="Times,serif" font-size="15.00" fill="#000000">Period</text>
<text text-anchor="middle" x="309.3228" y="-44.5833" font-family="Times,serif" font-size="15.00" fill="#000000">Период</text>
<text text-anchor="middle" x="309.3228" y="-27.5833" font-family="Times,serif" font-size="15.00" fill="#000000">ˈПириэд</text>
</a>
</g>
</g>
<!-- Overtime&#45;&gt;Period -->
<g id="edge4" class="edge">
<title>Overtime&#45;&gt;Period</title>
<path fill="none" stroke="#000000" stroke-dasharray="5,2" d="M127.0319,-142.5208C167.0962,-121.7651 219.2969,-94.722 257.5652,-74.8968"/>
<polygon fill="#000000" stroke="#000000" points="266.4869,-70.2748 259.6777,-78.8704 262.0473,-72.5748 257.6077,-74.8748 257.6077,-74.8748 257.6077,-74.8748 262.0473,-72.5748 255.5377,-70.8791 266.4869,-70.2748 266.4869,-70.2748"/>
</g>
<!-- Winner -->
<g id="node4" class="node has&#45;pronunciation">
<title>Winner</title>
<g id="a_node4"><a xlink:href="../winner.html" xlink:title="Победитель" target="_top">
<ellipse fill="none" stroke="#c0c0c0" stroke-width=".2" cx="203.865" cy="-320.8803" rx="65.1077" ry="65.1077"/>
<text text-anchor="middle" x="203.865" y="-334.3803" font-family="Times,serif" font-size="15.00" fill="#000000">Winner</text>
<text text-anchor="middle" x="203.865" y="-317.3803" font-family="Times,serif" font-size="15.00" fill="#000000">Победитель</text>
<text text-anchor="middle" x="203.865" y="-300.3803" font-family="Times,serif" font-size="15.00" fill="#000000">ˈУинэр</text>
</a>
</g>
</g>
<!-- Overtime&#45;&gt;Winner -->
<g id="edge5" class="edge">
<title>Overtime&#45;&gt;Winner</title>
<path fill="none" stroke="#000000" stroke-dasharray="5,2" d="M113.0711,-223.0055C125.6356,-236.5498 139.3387,-251.3217 152.2021,-265.1883"/>
<polygon fill="#000000" stroke="#000000" points="159.2495,-272.7853 149.1495,-268.5144 155.849,-269.1196 152.4486,-265.454 152.4486,-265.454 152.4486,-265.454 155.849,-269.1196 155.7477,-262.3936 159.2495,-272.7853 159.2495,-272.7853"/>
</g>
<!-- Game -->
<g id="node2" class="node has&#45;pronunciation">
<title>Game</title>
<g id="a_node2"><a xlink:href="../game.html" xlink:title="Игра" target="_top">
<ellipse fill="none" stroke="#c0c0c0" stroke-width=".2" cx="447.3054" cy="-195.5006" rx="52.1524" ry="52.1524"/>
<text text-anchor="middle" x="447.3054" y="-212.5006" font-family="Times,serif" font-size="20.00" fill="#000000">Game</text>
<text text-anchor="middle" x="447.3054" y="-190.5006" font-family="Times,serif" font-size="20.00" fill="#000000">Игра</text>
<text text-anchor="middle" x="447.3054" y="-168.5006" font-family="Times,serif" font-size="20.00" fill="#000000">Гейм</text>
</a>
</g>
</g>
<!-- Game&#45;&gt;Overtime -->
<g id="edge3" class="edge">
<title>Game&#45;&gt;Overtime</title>
<path fill="none" stroke="#000000" stroke-dasharray="5,2" d="M394.849,-192.4688C330.0732,-188.7249 219.3362,-182.3246 144.732,-178.0127"/>
<polygon fill="#000000" stroke="#000000" points="134.4534,-177.4186 144.6964,-173.5032 139.4451,-177.7072 144.4367,-177.9957 144.4367,-177.9957 144.4367,-177.9957 139.4451,-177.7072 144.177,-182.4882 134.4534,-177.4186 134.4534,-177.4186"/>
</g>
<!-- Game&#45;&gt;Period -->
<g id="edge1" class="edge">
<title>Game&#45;&gt;Period</title>
<path fill="none" stroke="#000000" stroke-dasharray="5,2" d="M411.4123,-157.1533C392.3529,-136.7907 368.8769,-111.7094 349.2444,-90.7345"/>
<polygon fill="#000000" stroke="#000000" points="342.2005,-83.209 352.3195,-87.4348 345.6173,-86.8595 349.0341,-90.5099 349.0341,-90.5099 349.0341,-90.5099 345.6173,-86.8595 345.7487,-93.585 342.2005,-83.209 342.2005,-83.209"/>
</g>
<!-- Winner&#45;&gt;Game -->
<g id="edge2" class="edge">
<title>Winner&#45;&gt;Game</title>
<path fill="none" stroke="#000000" stroke-dasharray="5,2" d="M261.8657,-291.0081C301.185,-270.7573 352.8584,-244.1439 391.669,-224.1552"/>
<polygon fill="#000000" stroke="#000000" points="400.7422,-219.4822 393.9125,-228.0615 396.2971,-221.7716 391.852,-224.061 391.852,-224.061 391.852,-224.061 396.2971,-221.7716 389.7916,-220.0604 400.7422,-219.4822 400.7422,-219.4822"/>
</g>
</g>
</svg>
