<?xml version="1.0" encoding="UTF-8" standalone="no"?>
<?xml-stylesheet href="../static/svg.css" type="text/css"?>
<!DOCTYPE svg PUBLIC "-//W3C//DTD SVG 1.1//EN"
 "http://www.w3.org/Graphics/SVG/1.1/DTD/svg11.dtd">
<!-- Generated by graphviz version 2.40.1 (20161225.0304)
 -->
<!-- Title: term Pages: 1 -->
<svg width="698pt" height="449pt"
 viewBox="0.00 0.00 697.81 449.04" xmlns="http://www.w3.org/2000/svg" xmlns:xlink="http://www.w3.org/1999/xlink">
<g id="graph0" class="graph" transform="scale(1 1) rotate(0) translate(4 445.0395)">
<title>term</title>
<!-- Goal net -->
<g id="node1" class="node root has&#45;pronunciation">
<title>Goal net</title>
<g id="a_node1"><a xlink:href="javascript:history.back()" xlink:title="Ворота" target="_top">
<ellipse fill="none" stroke="#c0c0c0" stroke-width=".2" cx="358.6433" cy="-259.4972" rx="77.5641" ry="77.5641"/>
<text text-anchor="middle" x="358.6433" y="-281.4972" font-family="Times,serif" font-size="25.00" fill="#000000">Goal net</text>
<text text-anchor="middle" x="358.6433" y="-253.4972" font-family="Times,serif" font-size="25.00" fill="#000000">Ворота</text>
<text text-anchor="middle" x="358.6433" y="-225.4972" font-family="Times,serif" font-size="25.00" fill="#000000">Гoул нет</text>
</a>
</g>
</g>
<!-- Rink -->
<g id="node2" class="node has&#45;pronunciation">
<title>Rink</title>
<g id="a_node2"><a xlink:href="../rink.html" xlink:title="Площадка" target="_top">
<ellipse fill="none" stroke="#c0c0c0" stroke-width=".2" cx="632.5331" cy="-383.7639" rx="57.0522" ry="57.0522"/>
<text text-anchor="middle" x="632.5331" y="-397.2639" font-family="Times,serif" font-size="15.00" fill="#000000">Rink</text>
<text text-anchor="middle" x="632.5331" y="-380.2639" font-family="Times,serif" font-size="15.00" fill="#000000">Площадка</text>
<text text-anchor="middle" x="632.5331" y="-363.2639" font-family="Times,serif" font-size="15.00" fill="#000000">Ринк</text>
</a>
</g>
</g>
<!-- Rink&#45;&gt;Goal net -->
<g id="edge5" class="edge">
<title>Rink&#45;&gt;Goal net</title>
<path fill="none" stroke="#000000" stroke-dasharray="5,2" d="M580.3719,-360.0978C540.368,-341.9476 484.4508,-316.5774 438.7796,-295.8559"/>
<polygon fill="#000000" stroke="#000000" points="429.4946,-291.6432 440.4605,-291.677 434.0479,-293.7091 438.6012,-295.775 438.6012,-295.775 438.6012,-295.775 434.0479,-293.7091 436.7419,-299.8729 429.4946,-291.6432 429.4946,-291.6432"/>
</g>
<!-- Puck -->
<g id="node3" class="node has&#45;pronunciation">
<title>Puck</title>
<g id="a_node3"><a xlink:href="../puck.html" xlink:title="Шайба" target="_top">
<ellipse fill="none" stroke="#c0c0c0" stroke-width=".2" cx="286.2022" cy="-96.8522" rx="65.1077" ry="65.1077"/>
<text text-anchor="middle" x="286.2022" y="-118.8522" font-family="Times,serif" font-size="25.00" fill="#000000">Puck</text>
<text text-anchor="middle" x="286.2022" y="-90.8522" font-family="Times,serif" font-size="25.00" fill="#000000">Шайба</text>
<text text-anchor="middle" x="286.2022" y="-62.8522" font-family="Times,serif" font-size="25.00" fill="#000000">Пак</text>
</a>
</g>
</g>
<!-- Puck&#45;&gt;Goal net -->
<g id="edge6" class="edge">
<title>Puck&#45;&gt;Goal net</title>
<path fill="none" stroke="#000000" stroke-dasharray="5,2" d="M312.7652,-156.4917C316.0379,-163.8395 319.4241,-171.4421 322.8058,-179.0348"/>
<polygon fill="#000000" stroke="#000000" points="326.9206,-188.2734 318.7412,-180.9694 324.8863,-183.7059 322.8519,-179.1385 322.8519,-179.1385 322.8519,-179.1385 324.8863,-183.7059 326.9626,-177.3075 326.9206,-188.2734 326.9206,-188.2734"/>
</g>
<!-- Opponent -->
<g id="node4" class="node has&#45;pronunciation">
<title>Opponent</title>
<g id="a_node4"><a xlink:href="../opponent.html" xlink:title="Противник" target="_top">
<ellipse fill="none" stroke="#c0c0c0" stroke-width=".2" cx="60.8112" cy="-361.3761" rx="60.623" ry="60.623"/>
<text text-anchor="middle" x="60.8112" y="-374.8761" font-family="Times,serif" font-size="15.00" fill="#000000">Opponent</text>
<text text-anchor="middle" x="60.8112" y="-357.8761" font-family="Times,serif" font-size="15.00" fill="#000000">Противник</text>
<text text-anchor="middle" x="60.8112" y="-340.8761" font-family="Times,serif" font-size="15.00" fill="#000000">Эˈпoунэнт</text>
</a>
</g>
</g>
<!-- Opponent&#45;&gt;Goal net -->
<g id="edge7" class="edge">
<title>Opponent&#45;&gt;Goal net</title>
<path fill="none" stroke="#000000" stroke-dasharray="5,2" d="M118.5894,-341.6121C163.1665,-326.3636 225.4471,-305.0594 275.3995,-287.9723"/>
<polygon fill="#000000" stroke="#000000" points="284.896,-284.7238 276.8907,-292.2182 280.1651,-286.3421 275.4342,-287.9605 275.4342,-287.9605 275.4342,-287.9605 280.1651,-286.3421 273.9778,-283.7027 284.896,-284.7238 284.896,-284.7238"/>
</g>
<!-- Goal -->
<g id="node5" class="node has&#45;pronunciation">
<title>Goal</title>
<g id="a_node5"><a xlink:href="../goal.html" xlink:title="Гол" target="_top">
<ellipse fill="none" stroke="#c0c0c0" stroke-width=".2" cx="538.6465" cy="-65.0538" rx="65.1077" ry="65.1077"/>
<text text-anchor="middle" x="538.6465" y="-87.0538" font-family="Times,serif" font-size="25.00" fill="#000000">Goal</text>
<text text-anchor="middle" x="538.6465" y="-59.0538" font-family="Times,serif" font-size="25.00" fill="#000000">Гол</text>
<text text-anchor="middle" x="538.6465" y="-31.0538" font-family="Times,serif" font-size="25.00" fill="#000000">Гoул</text>
</a>
</g>
</g>
<!-- Goal&#45;&gt;Goal net -->
<g id="edge8" class="edge">
<title>Goal&#45;&gt;Goal net</title>
<path fill="none" stroke="#000000" stroke-dasharray="5,2" d="M494.1513,-113.1185C471.3123,-137.7897 443.1677,-168.1921 418.457,-194.8852"/>
<polygon fill="#000000" stroke="#000000" points="411.5856,-202.3078 415.0767,-191.9125 414.9823,-198.6386 418.3789,-194.9695 418.3789,-194.9695 418.3789,-194.9695 414.9823,-198.6386 421.6812,-198.0265 411.5856,-202.3078 411.5856,-202.3078"/>
</g>
<!-- Goal&#45;&gt;Puck -->
<g id="edge1" class="edge">
<title>Goal&#45;&gt;Puck</title>
<path fill="none" stroke="#000000" stroke-dasharray="5,2" d="M473.9636,-73.2014C439.5126,-77.5409 396.9636,-82.9005 361.0855,-87.4197"/>
<polygon fill="#000000" stroke="#000000" points="351.1552,-88.6706 360.5144,-82.956 356.116,-88.0457 361.0768,-87.4208 361.0768,-87.4208 361.0768,-87.4208 356.116,-88.0457 361.6392,-91.8855 351.1552,-88.6706 351.1552,-88.6706"/>
</g>
<!-- Hockey -->
<g id="node6" class="node has&#45;pronunciation">
<title>Hockey</title>
<g id="a_node6"><a xlink:href="../hockey.html" xlink:title="Хоккей" target="_top">
<ellipse fill="none" stroke="#c0c0c0" stroke-width=".2" cx="624.8289" cy="-206.0166" rx="45.011" ry="45.011"/>
<text text-anchor="middle" x="624.8289" y="-219.5166" font-family="Times,serif" font-size="15.00" fill="#000000">Hockey</text>
<text text-anchor="middle" x="624.8289" y="-202.5166" font-family="Times,serif" font-size="15.00" fill="#000000">Хоккей</text>
<text text-anchor="middle" x="624.8289" y="-185.5166" font-family="Times,serif" font-size="15.00" fill="#000000">ˈХаки</text>
</a>
</g>
</g>
<!-- Hockey&#45;&gt;Goal net -->
<g id="edge9" class="edge">
<title>Hockey&#45;&gt;Goal net</title>
<path fill="none" stroke="#000000" stroke-dasharray="5,2" d="M580.2754,-214.9681C543.4688,-222.3631 490.1286,-233.0799 445,-242.1469"/>
<polygon fill="#000000" stroke="#000000" points="434.9124,-244.1736 443.83,-237.7919 439.8144,-243.1887 444.7164,-242.2038 444.7164,-242.2038 444.7164,-242.2038 439.8144,-243.1887 445.6029,-246.6156 434.9124,-244.1736 434.9124,-244.1736"/>
</g>
<!-- Hockey&#45;&gt;Rink -->
<g id="edge2" class="edge">
<title>Hockey&#45;&gt;Rink</title>
<path fill="none" stroke="#000000" stroke-dasharray="5,2" d="M626.7929,-251.3297C627.6473,-271.0418 628.6664,-294.5523 629.6071,-316.2558"/>
<polygon fill="#000000" stroke="#000000" points="630.0472,-326.4091 625.1183,-316.6134 629.8306,-321.4138 629.614,-316.4185 629.614,-316.4185 629.614,-316.4185 629.8306,-321.4138 634.1098,-316.2236 630.0472,-326.4091 630.0472,-326.4091"/>
</g>
<!-- Hockey&#45;&gt;Puck -->
<g id="edge3" class="edge">
<title>Hockey&#45;&gt;Puck</title>
<path fill="none" stroke="#000000" stroke-dasharray="5,2" d="M581.5976,-192.08C525.2618,-173.9188 425.9626,-141.9073 358.1805,-120.0561"/>
<polygon fill="#000000" stroke="#000000" points="348.4174,-116.9088 359.3159,-115.6941 353.1763,-118.4429 357.9351,-119.9771 357.9351,-119.9771 357.9351,-119.9771 353.1763,-118.4429 356.5544,-124.26 348.4174,-116.9088 348.4174,-116.9088"/>
</g>
<!-- Hockey&#45;&gt;Goal -->
<g id="edge4" class="edge">
<title>Hockey&#45;&gt;Goal</title>
<path fill="none" stroke="#000000" stroke-dasharray="5,2" d="M601.051,-167.1248C593.9263,-155.4714 585.9135,-142.3652 578.0643,-129.5269"/>
<polygon fill="#000000" stroke="#000000" points="572.6694,-120.7028 581.7249,-126.8873 575.2775,-124.9687 577.8856,-129.2346 577.8856,-129.2346 577.8856,-129.2346 575.2775,-124.9687 574.0463,-131.5819 572.6694,-120.7028 572.6694,-120.7028"/>
</g>
</g>
</svg>
