<?xml version="1.0" encoding="UTF-8" standalone="no"?>
<?xml-stylesheet href="../static/svg.css" type="text/css"?>
<!DOCTYPE svg PUBLIC "-//W3C//DTD SVG 1.1//EN"
 "http://www.w3.org/Graphics/SVG/1.1/DTD/svg11.dtd">
<!-- Generated by graphviz version 2.40.1 (20161225.0304)
 -->
<!-- Title: term Pages: 1 -->
<svg width="499pt" height="391pt"
 viewBox="0.00 0.00 499.25 390.99" xmlns="http://www.w3.org/2000/svg" xmlns:xlink="http://www.w3.org/1999/xlink">
<g id="graph0" class="graph" transform="scale(1 1) rotate(0) translate(4 386.9905)">
<title>term</title>
<!-- Rink -->
<g id="node1" class="node root has&#45;pronunciation">
<title>Rink</title>
<g id="a_node1"><a xlink:href="javascript:history.back()" xlink:title="Площадка" target="_top">
<ellipse fill="none" stroke="#c0c0c0" stroke-width=".2" cx="209.0388" cy="-220.8391" rx="57.0522" ry="57.0522"/>
<text text-anchor="middle" x="209.0388" y="-234.3391" font-family="Times,serif" font-size="15.00" fill="#000000">Rink</text>
<text text-anchor="middle" x="209.0388" y="-217.3391" font-family="Times,serif" font-size="15.00" fill="#000000">Площадка</text>
<text text-anchor="middle" x="209.0388" y="-200.3391" font-family="Times,serif" font-size="15.00" fill="#000000">Ринк</text>
</a>
</g>
</g>
<!-- Ice -->
<g id="node2" class="node has&#45;pronunciation">
<title>Ice</title>
<g id="a_node2"><a xlink:href="../ice.html" xlink:title="Лёд" target="_top">
<ellipse fill="none" stroke="#c0c0c0" stroke-width=".2" cx="449.5345" cy="-341.2712" rx="41.9398" ry="41.9398"/>
<text text-anchor="middle" x="449.5345" y="-354.7712" font-family="Times,serif" font-size="15.00" fill="#000000">Ice</text>
<text text-anchor="middle" x="449.5345" y="-337.7712" font-family="Times,serif" font-size="15.00" fill="#000000">Лёд</text>
<text text-anchor="middle" x="449.5345" y="-320.7712" font-family="Times,serif" font-size="15.00" fill="#000000">Айс</text>
</a>
</g>
</g>
<!-- Rink&#45;&gt;Ice -->
<g id="edge1" class="edge">
<title>Rink&#45;&gt;Ice</title>
<path fill="none" stroke="#000000" stroke-dasharray="5,2" d="M260.3361,-246.5271C302.6591,-267.721 362.1939,-297.534 403.1171,-318.027"/>
<polygon fill="#000000" stroke="#000000" points="412.0674,-322.509 401.1109,-322.055 407.5966,-320.2701 403.1258,-318.0313 403.1258,-318.0313 403.1258,-318.0313 407.5966,-320.2701 405.1408,-314.0076 412.0674,-322.509 412.0674,-322.509"/>
</g>
<!-- Goal net -->
<g id="node3" class="node has&#45;pronunciation">
<title>Goal net</title>
<g id="a_node3"><a xlink:href="../goal-net.html" xlink:title="Ворота" target="_top">
<ellipse fill="none" stroke="#c0c0c0" stroke-width=".2" cx="77.7817" cy="-77.7817" rx="77.5641" ry="77.5641"/>
<text text-anchor="middle" x="77.7817" y="-99.7817" font-family="Times,serif" font-size="25.00" fill="#000000">Goal net</text>
<text text-anchor="middle" x="77.7817" y="-71.7817" font-family="Times,serif" font-size="25.00" fill="#000000">Ворота</text>
<text text-anchor="middle" x="77.7817" y="-43.7817" font-family="Times,serif" font-size="25.00" fill="#000000">Гoул нет</text>
</a>
</g>
</g>
<!-- Rink&#45;&gt;Goal net -->
<g id="edge2" class="edge">
<title>Rink&#45;&gt;Goal net</title>
<path fill="none" stroke="#000000" stroke-dasharray="5,2" d="M170.0127,-178.3045C159.7496,-167.1187 148.4416,-154.7942 137.3653,-142.7221"/>
<polygon fill="#000000" stroke="#000000" points="130.5101,-135.2505 140.5866,-139.5767 133.8904,-138.9348 137.2708,-142.619 137.2708,-142.619 137.2708,-142.619 133.8904,-138.9348 133.955,-145.6613 130.5101,-135.2505 130.5101,-135.2505"/>
</g>
</g>
</svg>
