<?xml version="1.0" encoding="UTF-8" standalone="no"?>
<?xml-stylesheet href="../static/svg.css" type="text/css"?>
<!DOCTYPE svg PUBLIC "-//W3C//DTD SVG 1.1//EN"
 "http://www.w3.org/Graphics/SVG/1.1/DTD/svg11.dtd">
<!-- Generated by graphviz version 2.40.1 (20161225.0304)
 -->
<!-- Title: term Pages: 1 -->
<svg width="1027pt" height="617pt"
 viewBox="0.00 0.00 1026.78 616.52" xmlns="http://www.w3.org/2000/svg" xmlns:xlink="http://www.w3.org/1999/xlink">
<g id="graph0" class="graph" transform="scale(1 1) rotate(0) translate(4 612.5226)">
<title>term</title>
<!-- Player -->
<g id="node1" class="node root has&#45;pronunciation">
<title>Player</title>
<g id="a_node1"><a xlink:href="javascript:history.back()" xlink:title="Игрок" target="_top">
<ellipse fill="none" stroke="#c0c0c0" stroke-width=".2" cx="508.6114" cy="-335.4677" rx="46.8387" ry="46.8387"/>
<text text-anchor="middle" x="508.6114" y="-348.9677" font-family="Times,serif" font-size="15.00" fill="#000000">Player</text>
<text text-anchor="middle" x="508.6114" y="-331.9677" font-family="Times,serif" font-size="15.00" fill="#000000">Игрок</text>
<text text-anchor="middle" x="508.6114" y="-314.9677" font-family="Times,serif" font-size="15.00" fill="#000000">&#39;Плейэр</text>
</a>
</g>
</g>
<!-- Goal -->
<g id="node6" class="node has&#45;pronunciation">
<title>Goal</title>
<g id="a_node6"><a xlink:href="../goal.html" xlink:title="Гол" target="_top">
<ellipse fill="none" stroke="#c0c0c0" stroke-width=".2" cx="640.2175" cy="-556.1967" rx="52.1524" ry="52.1524"/>
<text text-anchor="middle" x="640.2175" y="-573.1967" font-family="Times,serif" font-size="20.00" fill="#000000">Goal</text>
<text text-anchor="middle" x="640.2175" y="-551.1967" font-family="Times,serif" font-size="20.00" fill="#000000">Гол</text>
<text text-anchor="middle" x="640.2175" y="-529.1967" font-family="Times,serif" font-size="20.00" fill="#000000">Гoул</text>
</a>
</g>
</g>
<!-- Player&#45;&gt;Goal -->
<g id="edge16" class="edge">
<title>Player&#45;&gt;Goal</title>
<path fill="none" stroke="#000000" stroke-dasharray="5,2" d="M532.597,-375.6961C553.7576,-411.1866 584.7693,-463.1993 608.0735,-502.2849"/>
<polygon fill="#000000" stroke="#000000" points="613.2212,-510.9186 604.2349,-504.6339 610.6606,-506.624 608.1,-502.3294 608.1,-502.3294 608.1,-502.3294 610.6606,-506.624 611.9651,-500.0248 613.2212,-510.9186 613.2212,-510.9186"/>
</g>
<!-- Sport -->
<g id="node7" class="node">
<title>Sport</title>
<g id="a_node7"><a xlink:href="../sport.html" xlink:title="Спорт" target="_top">
<ellipse fill="none" stroke="#c0c0c0" stroke-width=".2" cx="39.598" cy="-203.8183" rx="39.6962" ry="39.6962"/>
<text text-anchor="middle" x="39.598" y="-208.8183" font-family="Times,serif" font-size="15.00" fill="#000000">Sport</text>
<text text-anchor="middle" x="39.598" y="-191.8183" font-family="Times,serif" font-size="15.00" fill="#000000">Спорт</text>
</a>
</g>
</g>
<!-- Player&#45;&gt;Sport -->
<g id="edge17" class="edge">
<title>Player&#45;&gt;Sport</title>
<path fill="none" stroke="#000000" stroke-dasharray="5,2" d="M463.0888,-324.2237C427.935,-315.4295 378.1215,-302.7259 334.6927,-290.7498 247.0849,-266.5907 145.5683,-236.1419 87.3367,-218.4378"/>
<polygon fill="#000000" stroke="#000000" points="77.676,-215.4969 88.5531,-214.1043 82.4593,-216.9531 87.2426,-218.4093 87.2426,-218.4093 87.2426,-218.4093 82.4593,-216.9531 85.932,-222.7142 77.676,-215.4969 77.676,-215.4969"/>
</g>
<!-- Shot -->
<g id="node8" class="node has&#45;pronunciation">
<title>Shot</title>
<g id="a_node8"><a xlink:href="../shot.html" xlink:title="Бросок" target="_top">
<ellipse fill="none" stroke="#c0c0c0" stroke-width=".2" cx="951.6077" cy="-457.0512" rx="67.3507" ry="67.3507"/>
<text text-anchor="middle" x="951.6077" y="-479.0512" font-family="Times,serif" font-size="25.00" fill="#000000">Shot</text>
<text text-anchor="middle" x="951.6077" y="-451.0512" font-family="Times,serif" font-size="25.00" fill="#000000">Бросок</text>
<text text-anchor="middle" x="951.6077" y="-423.0512" font-family="Times,serif" font-size="25.00" fill="#000000">Шат</text>
</a>
</g>
</g>
<!-- Player&#45;&gt;Shot -->
<g id="edge18" class="edge">
<title>Player&#45;&gt;Shot</title>
<path fill="none" stroke="#000000" stroke-dasharray="5,2" d="M553.938,-347.9079C630.1077,-368.8132 784.497,-411.1865 876.8988,-436.5468"/>
<polygon fill="#000000" stroke="#000000" points="886.7457,-439.2494 875.9112,-440.9421 881.924,-437.926 877.1023,-436.6026 877.1023,-436.6026 877.1023,-436.6026 881.924,-437.926 878.2933,-432.2631 886.7457,-439.2494 886.7457,-439.2494"/>
</g>
<!-- Game -->
<g id="node9" class="node has&#45;pronunciation">
<title>Game</title>
<g id="a_node9"><a xlink:href="../game.html" xlink:title="Игра" target="_top">
<ellipse fill="none" stroke="#c0c0c0" stroke-width=".2" cx="389.6505" cy="-71.3416" rx="52.1524" ry="52.1524"/>
<text text-anchor="middle" x="389.6505" y="-88.3416" font-family="Times,serif" font-size="20.00" fill="#000000">Game</text>
<text text-anchor="middle" x="389.6505" y="-66.3416" font-family="Times,serif" font-size="20.00" fill="#000000">Игра</text>
<text text-anchor="middle" x="389.6505" y="-44.3416" font-family="Times,serif" font-size="20.00" fill="#000000">Гейм</text>
</a>
</g>
</g>
<!-- Player&#45;&gt;Game -->
<g id="edge19" class="edge">
<title>Player&#45;&gt;Game</title>
<path fill="none" stroke="#000000" stroke-dasharray="5,2" d="M489.3661,-292.7377C469.2884,-248.1598 437.6966,-178.0172 415.463,-128.6524"/>
<polygon fill="#000000" stroke="#000000" points="411.2864,-119.3792 419.4961,-126.6491 413.3397,-123.9382 415.3931,-128.4971 415.3931,-128.4971 415.3931,-128.4971 413.3397,-123.9382 411.29,-130.3451 411.2864,-119.3792 411.2864,-119.3792"/>
</g>
<!-- Team -->
<g id="node2" class="node has&#45;pronunciation">
<title>Team</title>
<g id="a_node2"><a xlink:href="../team.html" xlink:title="Команда" target="_top">
<ellipse fill="none" stroke="#c0c0c0" stroke-width=".2" cx="334.7675" cy="-237.531" rx="51.7379" ry="51.7379"/>
<text text-anchor="middle" x="334.7675" y="-251.031" font-family="Times,serif" font-size="15.00" fill="#000000">Team</text>
<text text-anchor="middle" x="334.7675" y="-234.031" font-family="Times,serif" font-size="15.00" fill="#000000">Команда</text>
<text text-anchor="middle" x="334.7675" y="-217.031" font-family="Times,serif" font-size="15.00" fill="#000000">Тим</text>
</a>
</g>
</g>
<!-- Team&#45;&gt;Player -->
<g id="edge12" class="edge">
<title>Team&#45;&gt;Player</title>
<path fill="none" stroke="#000000" stroke-dasharray="5,2" d="M379.9891,-263.0071C404.1812,-276.6359 434.0211,-293.4465 458.8673,-307.4439"/>
<polygon fill="#000000" stroke="#000000" points="467.7755,-312.4624 456.8542,-311.4747 463.4192,-310.0082 459.063,-307.554 459.063,-307.554 459.063,-307.554 463.4192,-310.0082 461.2717,-303.6334 467.7755,-312.4624 467.7755,-312.4624"/>
</g>
<!-- Team&#45;&gt;Sport -->
<g id="edge1" class="edge">
<title>Team&#45;&gt;Sport</title>
<path fill="none" stroke="#000000" stroke-dasharray="5,2" d="M283.3529,-231.6587C228.7326,-225.4203 142.9848,-215.6266 89.1034,-209.4725"/>
<polygon fill="#000000" stroke="#000000" points="79.0996,-208.3299 89.5457,-204.9939 84.0673,-208.8974 89.035,-209.4648 89.035,-209.4648 89.035,-209.4648 84.0673,-208.8974 88.5243,-213.9357 79.0996,-208.3299 79.0996,-208.3299"/>
</g>
<!-- Opponent -->
<g id="node3" class="node has&#45;pronunciation">
<title>Opponent</title>
<g id="a_node3"><a xlink:href="../opponent.html" xlink:title="Противник" target="_top">
<ellipse fill="none" stroke="#c0c0c0" stroke-width=".2" cx="718.9768" cy="-60.8112" rx="60.623" ry="60.623"/>
<text text-anchor="middle" x="718.9768" y="-74.3112" font-family="Times,serif" font-size="15.00" fill="#000000">Opponent</text>
<text text-anchor="middle" x="718.9768" y="-57.3112" font-family="Times,serif" font-size="15.00" fill="#000000">Противник</text>
<text text-anchor="middle" x="718.9768" y="-40.3112" font-family="Times,serif" font-size="15.00" fill="#000000">Эˈпoунэнт</text>
</a>
</g>
</g>
<!-- Opponent&#45;&gt;Player -->
<g id="edge13" class="edge">
<title>Opponent&#45;&gt;Player</title>
<path fill="none" stroke="#000000" stroke-dasharray="5,2" d="M681.8519,-109.282C642.7456,-160.3399 581.6432,-240.1162 543.4295,-290.0086"/>
<polygon fill="#000000" stroke="#000000" points="537.268,-298.0532 539.7761,-287.378 540.3083,-294.0837 543.3486,-290.1143 543.3486,-290.1143 543.3486,-290.1143 540.3083,-294.0837 546.9212,-292.8505 537.268,-298.0532 537.268,-298.0532"/>
</g>
<!-- Opponent&#45;&gt;Team -->
<g id="edge2" class="edge">
<title>Opponent&#45;&gt;Team</title>
<path fill="none" stroke="#000000" stroke-dasharray="5,2" d="M663.5198,-86.319C590.9279,-119.7082 464.3623,-177.9229 391.2609,-211.5465"/>
<polygon fill="#000000" stroke="#000000" points="381.7476,-215.9221 388.9522,-207.6551 386.2902,-213.8328 390.8327,-211.7434 390.8327,-211.7434 390.8327,-211.7434 386.2902,-213.8328 392.7132,-215.8316 381.7476,-215.9221 381.7476,-215.9221"/>
</g>
<!-- Point -->
<g id="node4" class="node has&#45;pronunciation">
<title>Point</title>
<g id="a_node4"><a xlink:href="../point.html" xlink:title="Очко" target="_top">
<ellipse fill="none" stroke="#c0c0c0" stroke-width=".2" cx="240.5015" cy="-522.8218" rx="41.9398" ry="41.9398"/>
<text text-anchor="middle" x="240.5015" y="-536.3218" font-family="Times,serif" font-size="15.00" fill="#000000">Point</text>
<text text-anchor="middle" x="240.5015" y="-519.3218" font-family="Times,serif" font-size="15.00" fill="#000000">Очко</text>
<text text-anchor="middle" x="240.5015" y="-502.3218" font-family="Times,serif" font-size="15.00" fill="#000000">Пойнт</text>
</a>
</g>
</g>
<!-- Point&#45;&gt;Player -->
<g id="edge14" class="edge">
<title>Point&#45;&gt;Player</title>
<path fill="none" stroke="#000000" stroke-dasharray="5,2" d="M274.7301,-498.903C322.3006,-465.6609 408.5623,-405.3816 461.9804,-368.0533"/>
<polygon fill="#000000" stroke="#000000" points="470.2607,-362.267 464.6414,-371.6837 466.1622,-365.131 462.0638,-367.9951 462.0638,-367.9951 462.0638,-367.9951 466.1622,-365.131 459.4861,-364.3064 470.2607,-362.267 470.2607,-362.267"/>
</g>
<!-- Point&#45;&gt;Team -->
<g id="edge4" class="edge">
<title>Point&#45;&gt;Team</title>
<path fill="none" stroke="#000000" stroke-dasharray="5,2" d="M253.6087,-483.1534C269.5962,-434.7681 296.7676,-352.5356 315.2256,-296.6733"/>
<polygon fill="#000000" stroke="#000000" points="318.4518,-286.9093 319.5872,-297.8163 316.8831,-291.6569 315.3144,-296.4045 315.3144,-296.4045 315.3144,-296.4045 316.8831,-291.6569 311.0416,-294.9926 318.4518,-286.9093 318.4518,-286.9093"/>
</g>
<!-- Point&#45;&gt;Goal -->
<g id="edge3" class="edge">
<title>Point&#45;&gt;Goal</title>
<path fill="none" stroke="#000000" stroke-dasharray="5,2" d="M282.1469,-526.2991C352.5924,-532.181 495.6296,-544.1241 578.0039,-551.0021"/>
<polygon fill="#000000" stroke="#000000" points="587.9849,-551.8354 577.6451,-555.4877 583.0022,-551.4194 578.0196,-551.0033 578.0196,-551.0033 578.0196,-551.0033 583.0022,-551.4194 578.394,-546.5189 587.9849,-551.8354 587.9849,-551.8354"/>
</g>
<!-- Hockey -->
<g id="node5" class="node has&#45;pronunciation">
<title>Hockey</title>
<g id="a_node5"><a xlink:href="../hockey.html" xlink:title="Хоккей" target="_top">
<ellipse fill="none" stroke="#c0c0c0" stroke-width=".2" cx="774.5866" cy="-275.3653" rx="45.011" ry="45.011"/>
<text text-anchor="middle" x="774.5866" y="-288.8653" font-family="Times,serif" font-size="15.00" fill="#000000">Hockey</text>
<text text-anchor="middle" x="774.5866" y="-271.8653" font-family="Times,serif" font-size="15.00" fill="#000000">Хоккей</text>
<text text-anchor="middle" x="774.5866" y="-254.8653" font-family="Times,serif" font-size="15.00" fill="#000000">ˈХаки</text>
</a>
</g>
</g>
<!-- Hockey&#45;&gt;Player -->
<g id="edge15" class="edge">
<title>Hockey&#45;&gt;Player</title>
<path fill="none" stroke="#000000" stroke-dasharray="5,2" d="M730.3677,-285.3575C684.7629,-295.6628 613.5268,-311.76 564.152,-322.9172"/>
<polygon fill="#000000" stroke="#000000" points="554.2739,-325.1493 563.0361,-318.5558 559.151,-324.0472 564.028,-322.9451 564.028,-322.9451 564.028,-322.9451 559.151,-324.0472 565.0199,-327.3345 554.2739,-325.1493 554.2739,-325.1493"/>
</g>
<!-- Hockey&#45;&gt;Team -->
<g id="edge6" class="edge">
<title>Hockey&#45;&gt;Team</title>
<path fill="none" stroke="#000000" stroke-dasharray="5,2" d="M729.1748,-271.4589C649.8189,-264.6325 485.8541,-250.5278 396.3532,-242.8288"/>
<polygon fill="#000000" stroke="#000000" points="386.3462,-241.9679 396.6951,-238.3416 391.3278,-242.3965 396.3094,-242.8251 396.3094,-242.8251 396.3094,-242.8251 391.3278,-242.3965 395.9237,-247.3085 386.3462,-241.9679 386.3462,-241.9679"/>
</g>
<!-- Hockey&#45;&gt;Goal -->
<g id="edge8" class="edge">
<title>Hockey&#45;&gt;Goal</title>
<path fill="none" stroke="#000000" stroke-dasharray="5,2" d="M755.0482,-316.2006C731.9292,-364.5192 693.3021,-445.2499 667.3055,-499.5829"/>
<polygon fill="#000000" stroke="#000000" points="662.9259,-508.7362 663.1828,-497.7733 665.084,-504.2259 667.242,-499.7156 667.242,-499.7156 667.242,-499.7156 665.084,-504.2259 671.3013,-501.6578 662.9259,-508.7362 662.9259,-508.7362"/>
</g>
<!-- Hockey&#45;&gt;Shot -->
<g id="edge7" class="edge">
<title>Hockey&#45;&gt;Shot</title>
<path fill="none" stroke="#000000" stroke-dasharray="5,2" d="M806.2345,-307.8471C831.553,-333.8328 867.6365,-370.8672 897.5192,-401.5374"/>
<polygon fill="#000000" stroke="#000000" points="904.5779,-408.782 894.3762,-404.7599 901.0886,-405.2008 897.5993,-401.6196 897.5993,-401.6196 897.5993,-401.6196 901.0886,-405.2008 900.8224,-398.4793 904.5779,-408.782 904.5779,-408.782"/>
</g>
<!-- Hockey&#45;&gt;Game -->
<g id="edge5" class="edge">
<title>Hockey&#45;&gt;Game</title>
<path fill="none" stroke="#000000" stroke-dasharray="5,2" d="M734.4811,-254.1086C665.3686,-217.4776 523.703,-142.392 445.1648,-100.7652"/>
<polygon fill="#000000" stroke="#000000" points="435.909,-95.8595 446.8521,-96.5666 440.3268,-98.201 444.7447,-100.5426 444.7447,-100.5426 444.7447,-100.5426 440.3268,-98.201 442.6372,-104.5187 435.909,-95.8595 435.909,-95.8595"/>
</g>
<!-- Sport&#45;&gt;Game -->
<g id="edge9" class="edge">
<title>Sport&#45;&gt;Game</title>
<path fill="none" stroke="#000000" stroke-dasharray="5,2" d="M76.7283,-189.7664C137.5196,-166.76 258.7522,-120.8798 331.1765,-93.4709"/>
<polygon fill="#000000" stroke="#000000" points="340.6266,-89.8945 332.8668,-97.6428 335.9503,-91.6643 331.274,-93.4341 331.274,-93.4341 331.274,-93.4341 335.9503,-91.6643 329.6812,-89.2254 340.6266,-89.8945 340.6266,-89.8945"/>
</g>
<!-- Shot&#45;&gt;Goal -->
<g id="edge10" class="edge">
<title>Shot&#45;&gt;Goal</title>
<path fill="none" stroke="#000000" stroke-dasharray="5,2" d="M887.4651,-477.474C832.4903,-494.9778 753.897,-520.0016 700.1685,-537.1085"/>
<polygon fill="#000000" stroke="#000000" points="690.4369,-540.207 698.6003,-532.8852 695.2012,-538.69 699.9656,-537.1731 699.9656,-537.1731 699.9656,-537.1731 695.2012,-538.69 701.3309,-541.461 690.4369,-540.207 690.4369,-540.207"/>
</g>
<!-- Game&#45;&gt;Team -->
<g id="edge11" class="edge">
<title>Game&#45;&gt;Team</title>
<path fill="none" stroke="#000000" stroke-dasharray="5,2" d="M373.1838,-121.2039C367.2147,-139.2786 360.4162,-159.8649 354.2145,-178.644"/>
<polygon fill="#000000" stroke="#000000" points="351.0334,-188.2766 349.8963,-177.3698 352.6014,-183.5288 354.1693,-178.781 354.1693,-178.781 354.1693,-178.781 352.6014,-183.5288 358.4424,-180.1922 351.0334,-188.2766 351.0334,-188.2766"/>
</g>
</g>
</svg>
