<?xml version="1.0" encoding="UTF-8" standalone="no"?>
<?xml-stylesheet href="../static/svg.css" type="text/css"?>
<!DOCTYPE svg PUBLIC "-//W3C//DTD SVG 1.1//EN"
 "http://www.w3.org/Graphics/SVG/1.1/DTD/svg11.dtd">
<!-- Generated by graphviz version 2.40.1 (20161225.0304)
 -->
<!-- Title: term Pages: 1 -->
<svg width="1392pt" height="852pt"
 viewBox="0.00 0.00 1391.82 851.97" xmlns="http://www.w3.org/2000/svg" xmlns:xlink="http://www.w3.org/1999/xlink">
<g id="graph0" class="graph" transform="scale(1 1) rotate(0) translate(4 847.9719)">
<title>term</title>
<!-- Shot -->
<g id="node1" class="node root has&#45;pronunciation">
<title>Shot</title>
<g id="a_node1"><a xlink:href="javascript:history.back()" xlink:title="Бросок" target="_top">
<ellipse fill="none" stroke="#c0c0c0" stroke-width=".2" cx="667.2421" cy="-415.1829" rx="67.3507" ry="67.3507"/>
<text text-anchor="middle" x="667.2421" y="-437.1829" font-family="Times,serif" font-size="25.00" fill="#000000">Shot</text>
<text text-anchor="middle" x="667.2421" y="-409.1829" font-family="Times,serif" font-size="25.00" fill="#000000">Бросок</text>
<text text-anchor="middle" x="667.2421" y="-381.1829" font-family="Times,serif" font-size="25.00" fill="#000000">Шат</text>
</a>
</g>
</g>
<!-- Goal -->
<g id="node4" class="node has&#45;pronunciation">
<title>Goal</title>
<g id="a_node4"><a xlink:href="../goal.html" xlink:title="Гол" target="_top">
<ellipse fill="none" stroke="#c0c0c0" stroke-width=".2" cx="251.5082" cy="-683.7507" rx="65.1077" ry="65.1077"/>
<text text-anchor="middle" x="251.5082" y="-705.7507" font-family="Times,serif" font-size="25.00" fill="#000000">Goal</text>
<text text-anchor="middle" x="251.5082" y="-677.7507" font-family="Times,serif" font-size="25.00" fill="#000000">Гол</text>
<text text-anchor="middle" x="251.5082" y="-649.7507" font-family="Times,serif" font-size="25.00" fill="#000000">Гoул</text>
</a>
</g>
</g>
<!-- Shot&#45;&gt;Goal -->
<g id="edge16" class="edge">
<title>Shot&#45;&gt;Goal</title>
<path fill="none" stroke="#000000" stroke-dasharray="5,2" d="M610.7417,-451.6826C533.5207,-501.5681 395.4284,-590.777 314.8089,-642.8579"/>
<polygon fill="#000000" stroke="#000000" points="306.2309,-648.3994 312.1888,-639.1932 310.4308,-645.6862 314.6306,-642.973 314.6306,-642.973 314.6306,-642.973 310.4308,-645.6862 317.0725,-646.7529 306.2309,-648.3994 306.2309,-648.3994"/>
</g>
<!-- Puck -->
<g id="node5" class="node has&#45;pronunciation">
<title>Puck</title>
<g id="a_node5"><a xlink:href="../puck.html" xlink:title="Шайба" target="_top">
<ellipse fill="none" stroke="#c0c0c0" stroke-width=".2" cx="499.0547" cy="-778.9181" rx="65.1077" ry="65.1077"/>
<text text-anchor="middle" x="499.0547" y="-800.9181" font-family="Times,serif" font-size="25.00" fill="#000000">Puck</text>
<text text-anchor="middle" x="499.0547" y="-772.9181" font-family="Times,serif" font-size="25.00" fill="#000000">Шайба</text>
<text text-anchor="middle" x="499.0547" y="-744.9181" font-family="Times,serif" font-size="25.00" fill="#000000">Пак</text>
</a>
</g>
</g>
<!-- Shot&#45;&gt;Puck -->
<g id="edge17" class="edge">
<title>Shot&#45;&gt;Puck</title>
<path fill="none" stroke="#000000" stroke-dasharray="5,2" d="M638.9016,-476.4743C608.9486,-541.253 561.8201,-643.1767 530.679,-710.5248"/>
<polygon fill="#000000" stroke="#000000" points="526.3944,-719.791 526.507,-708.8257 528.493,-715.2526 530.5915,-710.7143 530.5915,-710.7143 530.5915,-710.7143 528.493,-715.2526 534.676,-712.603 526.3944,-719.791 526.3944,-719.791"/>
</g>
<!-- Stick -->
<g id="node6" class="node has&#45;pronunciation">
<title>Stick</title>
<g id="a_node6"><a xlink:href="../stick.html" xlink:title="Клюшка" target="_top">
<ellipse fill="none" stroke="#c0c0c0" stroke-width=".2" cx="937.9361" cy="-759.9269" rx="48.5816" ry="48.5816"/>
<text text-anchor="middle" x="937.9361" y="-773.4269" font-family="Times,serif" font-size="15.00" fill="#000000">Stick</text>
<text text-anchor="middle" x="937.9361" y="-756.4269" font-family="Times,serif" font-size="15.00" fill="#000000">Клюшка</text>
<text text-anchor="middle" x="937.9361" y="-739.4269" font-family="Times,serif" font-size="15.00" fill="#000000">Стик</text>
</a>
</g>
</g>
<!-- Shot&#45;&gt;Stick -->
<g id="edge18" class="edge">
<title>Shot&#45;&gt;Stick</title>
<path fill="none" stroke="#000000" stroke-dasharray="5,2" d="M700.7971,-473.5061C733.0751,-527.3822 784.907,-608.3524 839.5283,-671.2789 855.2138,-689.3494 874.4079,-707.3768 891.6662,-722.4102"/>
<polygon fill="#000000" stroke="#000000" points="899.4399,-729.0961 888.924,-725.9871 895.6491,-725.8358 891.8583,-722.5754 891.8583,-722.5754 891.8583,-722.5754 895.6491,-725.8358 894.7926,-719.1637 899.4399,-729.0961 899.4399,-729.0961"/>
</g>
<!-- Goal net -->
<g id="node7" class="node has&#45;pronunciation">
<title>Goal net</title>
<g id="a_node7"><a xlink:href="../goal-net.html" xlink:title="Ворота" target="_top">
<ellipse fill="none" stroke="#c0c0c0" stroke-width=".2" cx="110.1507" cy="-530.1756" rx="77.5641" ry="77.5641"/>
<text text-anchor="middle" x="110.1507" y="-552.1756" font-family="Times,serif" font-size="25.00" fill="#000000">Goal net</text>
<text text-anchor="middle" x="110.1507" y="-524.1756" font-family="Times,serif" font-size="25.00" fill="#000000">Ворота</text>
<text text-anchor="middle" x="110.1507" y="-496.1756" font-family="Times,serif" font-size="25.00" fill="#000000">Гoул нет</text>
</a>
</g>
</g>
<!-- Shot&#45;&gt;Goal net -->
<g id="edge19" class="edge">
<title>Shot&#45;&gt;Goal net</title>
<path fill="none" stroke="#000000" stroke-dasharray="5,2" d="M601.4238,-428.7688C500.6692,-449.5662 308.1494,-489.3054 196.3687,-512.3788"/>
<polygon fill="#000000" stroke="#000000" points="186.4731,-514.4214 195.3569,-507.9927 191.3698,-513.4106 196.2666,-512.3998 196.2666,-512.3998 196.2666,-512.3998 191.3698,-513.4106 197.1763,-516.8069 186.4731,-514.4214 186.4731,-514.4214"/>
</g>
<!-- Flip shot -->
<g id="node8" class="node has&#45;pronunciation">
<title>Flip shot</title>
<g id="a_node8"><a xlink:href="../flip-shot.html" xlink:title="Подкидка" target="_top">
<ellipse fill="none" stroke="#c0c0c0" stroke-width=".2" cx="1237.8887" cy="-300.1838" rx="55.7232" ry="55.7232"/>
<text text-anchor="middle" x="1237.8887" y="-313.6838" font-family="Times,serif" font-size="15.00" fill="#000000">Flip shot</text>
<text text-anchor="middle" x="1237.8887" y="-296.6838" font-family="Times,serif" font-size="15.00" fill="#000000">Подкидка</text>
<text text-anchor="middle" x="1237.8887" y="-279.6838" font-family="Times,serif" font-size="15.00" fill="#000000">Флип шат</text>
</a>
</g>
</g>
<!-- Shot&#45;&gt;Flip shot -->
<g id="edge20" class="edge">
<title>Shot&#45;&gt;Flip shot</title>
<path fill="none" stroke="#000000" stroke-dasharray="5,2" d="M733.26,-401.8787C843.504,-379.6618 1063.742,-335.2786 1173.1372,-313.2328"/>
<polygon fill="#000000" stroke="#000000" points="1183.0519,-311.2348 1174.138,-317.6217 1178.1504,-312.2226 1173.249,-313.2104 1173.249,-313.2104 1173.249,-313.2104 1178.1504,-312.2226 1172.3599,-308.7991 1183.0519,-311.2348 1183.0519,-311.2348"/>
</g>
<!-- Wrist shot -->
<g id="node9" class="node has&#45;pronunciation">
<title>Wrist shot</title>
<g id="a_node9"><a xlink:href="../wrist-shot.html" xlink:title="Кистевой" target="_top">
<ellipse fill="none" stroke="#c0c0c0" stroke-width=".2" cx="327.6348" cy="-142.4949" rx="56.6372" ry="56.6372"/>
<text text-anchor="middle" x="327.6348" y="-155.9949" font-family="Times,serif" font-size="15.00" fill="#000000">Wrist shot</text>
<text text-anchor="middle" x="327.6348" y="-138.9949" font-family="Times,serif" font-size="15.00" fill="#000000">Кистевой</text>
<text text-anchor="middle" x="327.6348" y="-121.9949" font-family="Times,serif" font-size="15.00" fill="#000000">Рист шат</text>
</a>
</g>
</g>
<!-- Shot&#45;&gt;Wrist shot -->
<g id="edge21" class="edge">
<title>Shot&#45;&gt;Wrist shot</title>
<path fill="none" stroke="#000000" stroke-dasharray="5,2" d="M614.5511,-372.8746C550.5887,-321.5159 443.4006,-235.4491 379.7149,-184.3127"/>
<polygon fill="#000000" stroke="#000000" points="371.789,-177.9485 382.4039,-180.7007 375.6877,-181.079 379.5864,-184.2095 379.5864,-184.2095 379.5864,-184.2095 375.6877,-181.079 376.769,-187.7184 371.789,-177.9485 371.789,-177.9485"/>
</g>
<!-- Slapshot -->
<g id="node10" class="node has&#45;pronunciation">
<title>Slapshot</title>
<g id="a_node10"><a xlink:href="../slapshot.html" xlink:title="Щелчок" target="_top">
<ellipse fill="none" stroke="#c0c0c0" stroke-width=".2" cx="1001.4307" cy="-148.0541" rx="50.8235" ry="50.8235"/>
<text text-anchor="middle" x="1001.4307" y="-161.5541" font-family="Times,serif" font-size="15.00" fill="#000000">Slapshot</text>
<text text-anchor="middle" x="1001.4307" y="-144.5541" font-family="Times,serif" font-size="15.00" fill="#000000">Щелчок</text>
<text text-anchor="middle" x="1001.4307" y="-127.5541" font-family="Times,serif" font-size="15.00" fill="#000000">Слэпшат</text>
</a>
</g>
</g>
<!-- Shot&#45;&gt;Slapshot -->
<g id="edge22" class="edge">
<title>Shot&#45;&gt;Slapshot</title>
<path fill="none" stroke="#000000" stroke-dasharray="5,2" d="M719.8267,-373.1501C783.8596,-321.9664 891.1208,-236.2288 953.1434,-186.6519"/>
<polygon fill="#000000" stroke="#000000" points="961.2158,-180.1993 956.2143,-189.9582 957.3102,-183.3212 953.4046,-186.4431 953.4046,-186.4431 953.4046,-186.4431 957.3102,-183.3212 950.5949,-182.9281 961.2158,-180.1993 961.2158,-180.1993"/>
</g>
<!-- Snap shot -->
<g id="node11" class="node has&#45;pronunciation">
<title>Snap shot</title>
<g id="a_node11"><a xlink:href="../snap-shot.html" xlink:title="Короткий щелчок" target="_top">
<ellipse fill="none" stroke="#c0c0c0" stroke-width=".2" cx="666.9742" cy="-91.9239" rx="91.8478" ry="91.8478"/>
<text text-anchor="middle" x="666.9742" y="-105.4239" font-family="Times,serif" font-size="15.00" fill="#000000">Snap shot</text>
<text text-anchor="middle" x="666.9742" y="-88.4239" font-family="Times,serif" font-size="15.00" fill="#000000">Короткий щелчок</text>
<text text-anchor="middle" x="666.9742" y="-71.4239" font-family="Times,serif" font-size="15.00" fill="#000000">Снэп шат</text>
</a>
</g>
</g>
<!-- Shot&#45;&gt;Snap shot -->
<g id="edge23" class="edge">
<title>Shot&#45;&gt;Snap shot</title>
<path fill="none" stroke="#000000" stroke-dasharray="5,2" d="M667.1863,-347.8107C667.1495,-303.4082 667.1006,-244.4175 667.059,-194.2669"/>
<polygon fill="#000000" stroke="#000000" points="667.0505,-184.0352 671.5589,-194.0315 667.0547,-189.0352 667.0589,-194.0352 667.0589,-194.0352 667.0589,-194.0352 667.0547,-189.0352 662.5589,-194.039 667.0505,-184.0352 667.0505,-184.0352"/>
</g>
<!-- Backhand shot -->
<g id="node12" class="node has&#45;pronunciation">
<title>Backhand shot</title>
<g id="a_node12"><a xlink:href="../backhand-shot.html" xlink:title="С неудобной" target="_top">
<ellipse fill="none" stroke="#c0c0c0" stroke-width=".2" cx="75.6604" cy="-279.0172" rx="75.8212" ry="75.8212"/>
<text text-anchor="middle" x="75.6604" y="-292.5172" font-family="Times,serif" font-size="15.00" fill="#000000">Backhand shot</text>
<text text-anchor="middle" x="75.6604" y="-275.5172" font-family="Times,serif" font-size="15.00" fill="#000000">С неудобной</text>
<text text-anchor="middle" x="75.6604" y="-258.5172" font-family="Times,serif" font-size="15.00" fill="#000000">ˈБэкˌхэнд шат</text>
</a>
</g>
</g>
<!-- Shot&#45;&gt;Backhand shot -->
<g id="edge24" class="edge">
<title>Shot&#45;&gt;Backhand shot</title>
<path fill="none" stroke="#000000" stroke-dasharray="5,2" d="M601.6722,-400.0905C493.7008,-375.2385 278.6245,-325.7339 159.6603,-298.3516"/>
<polygon fill="#000000" stroke="#000000" points="149.8595,-296.0957 160.6141,-293.9535 154.7321,-297.2173 159.6047,-298.3389 159.6047,-298.3389 159.6047,-298.3389 154.7321,-297.2173 158.5953,-302.7242 149.8595,-296.0957 149.8595,-296.0957"/>
</g>
<!-- One&#45;timer -->
<g id="node13" class="node has&#45;pronunciation">
<title>One&#45;timer</title>
<g id="a_node13"><a xlink:href="../one-timer.html" xlink:title="В одно касание" target="_top">
<ellipse fill="none" stroke="#c0c0c0" stroke-width=".2" cx="1303.9185" cy="-502.0444" rx="79.8063" ry="79.8062"/>
<text text-anchor="middle" x="1303.9185" y="-515.5444" font-family="Times,serif" font-size="15.00" fill="#000000">One&#45;timer</text>
<text text-anchor="middle" x="1303.9185" y="-498.5444" font-family="Times,serif" font-size="15.00" fill="#000000">В одно касание</text>
<text text-anchor="middle" x="1303.9185" y="-481.5444" font-family="Times,serif" font-size="15.00" fill="#000000">Уан&#45;ˈтаймэр</text>
</a>
</g>
</g>
<!-- Shot&#45;&gt;One&#45;timer -->
<g id="edge25" class="edge">
<title>Shot&#45;&gt;One&#45;timer</title>
<path fill="none" stroke="#000000" stroke-dasharray="5,2" d="M733.8748,-424.2735C848.9825,-439.9776 1085.1304,-472.1952 1214.429,-489.8354"/>
<polygon fill="#000000" stroke="#000000" points="1224.6941,-491.2359 1214.1776,-494.3427 1219.74,-490.5599 1214.7859,-489.884 1214.7859,-489.884 1214.7859,-489.884 1219.74,-490.5599 1215.3943,-485.4253 1224.6941,-491.2359 1224.6941,-491.2359"/>
</g>
<!-- Player -->
<g id="node2" class="node has&#45;pronunciation">
<title>Player</title>
<g id="a_node2"><a xlink:href="../player.html" xlink:title="Игрок" target="_top">
<ellipse fill="none" stroke="#c0c0c0" stroke-width=".2" cx="873.8618" cy="-637.3508" rx="46.8387" ry="46.8387"/>
<text text-anchor="middle" x="873.8618" y="-650.8508" font-family="Times,serif" font-size="15.00" fill="#000000">Player</text>
<text text-anchor="middle" x="873.8618" y="-633.8508" font-family="Times,serif" font-size="15.00" fill="#000000">Игрок</text>
<text text-anchor="middle" x="873.8618" y="-616.8508" font-family="Times,serif" font-size="15.00" fill="#000000">&#39;Плейэр</text>
</a>
</g>
</g>
<!-- Player&#45;&gt;Shot -->
<g id="edge14" class="edge">
<title>Player&#45;&gt;Shot</title>
<path fill="none" stroke="#000000" stroke-dasharray="5,2" d="M842.0302,-603.1239C809.6338,-568.2896 758.8438,-513.6777 720.3446,-472.2814"/>
<polygon fill="#000000" stroke="#000000" points="713.3062,-464.7134 723.4117,-468.9714 716.7113,-468.3747 720.1164,-472.036 720.1164,-472.036 720.1164,-472.036 716.7113,-468.3747 716.8212,-475.1006 713.3062,-464.7134 713.3062,-464.7134"/>
</g>
<!-- Player&#45;&gt;Goal -->
<g id="edge1" class="edge">
<title>Player&#45;&gt;Goal</title>
<path fill="none" stroke="#000000" stroke-dasharray="5,2" d="M827.0841,-640.8383C720.1562,-648.8104 457.0725,-668.4248 326.9243,-678.1281"/>
<polygon fill="#000000" stroke="#000000" points="316.6488,-678.8941 326.2865,-673.663 321.6349,-678.5224 326.6211,-678.1506 326.6211,-678.1506 326.6211,-678.1506 321.6349,-678.5224 326.9557,-682.6381 316.6488,-678.8941 316.6488,-678.8941"/>
</g>
<!-- Hockey -->
<g id="node3" class="node has&#45;pronunciation">
<title>Hockey</title>
<g id="a_node3"><a xlink:href="../hockey.html" xlink:title="Хоккей" target="_top">
<ellipse fill="none" stroke="#c0c0c0" stroke-width=".2" cx="525.4973" cy="-600.3095" rx="45.011" ry="45.011"/>
<text text-anchor="middle" x="525.4973" y="-613.8095" font-family="Times,serif" font-size="15.00" fill="#000000">Hockey</text>
<text text-anchor="middle" x="525.4973" y="-596.8095" font-family="Times,serif" font-size="15.00" fill="#000000">Хоккей</text>
<text text-anchor="middle" x="525.4973" y="-579.8095" font-family="Times,serif" font-size="15.00" fill="#000000">ˈХаки</text>
</a>
</g>
</g>
<!-- Hockey&#45;&gt;Shot -->
<g id="edge15" class="edge">
<title>Hockey&#45;&gt;Shot</title>
<path fill="none" stroke="#000000" stroke-dasharray="5,2" d="M553.1636,-564.1757C572.1636,-539.3607 597.8629,-505.7959 620.0592,-476.8063"/>
<polygon fill="#000000" stroke="#000000" points="626.2184,-468.7622 623.712,-479.4378 623.1787,-472.7321 620.139,-476.7021 620.139,-476.7021 620.139,-476.7021 623.1787,-472.7321 616.566,-473.9664 626.2184,-468.7622 626.2184,-468.7622"/>
</g>
<!-- Hockey&#45;&gt;Player -->
<g id="edge2" class="edge">
<title>Hockey&#45;&gt;Player</title>
<path fill="none" stroke="#000000" stroke-dasharray="5,2" d="M570.6828,-605.114C633.81,-611.8263 748.3658,-624.0069 817.1503,-631.3207"/>
<polygon fill="#000000" stroke="#000000" points="827.3684,-632.4072 816.9486,-635.8246 822.3965,-631.8785 817.4245,-631.3498 817.4245,-631.3498 817.4245,-631.3498 822.3965,-631.8785 817.9003,-626.875 827.3684,-632.4072 827.3684,-632.4072"/>
</g>
<!-- Hockey&#45;&gt;Goal -->
<g id="edge6" class="edge">
<title>Hockey&#45;&gt;Goal</title>
<path fill="none" stroke="#000000" stroke-dasharray="5,2" d="M482.0829,-613.531C439.5734,-626.4769 374.0364,-646.4357 323.6828,-661.7705"/>
<polygon fill="#000000" stroke="#000000" points="313.8258,-664.7724 322.081,-657.5542 318.6089,-663.3157 323.392,-661.859 323.392,-661.859 323.392,-661.859 318.6089,-663.3157 324.7031,-666.1638 313.8258,-664.7724 313.8258,-664.7724"/>
</g>
<!-- Hockey&#45;&gt;Puck -->
<g id="edge4" class="edge">
<title>Hockey&#45;&gt;Puck</title>
<path fill="none" stroke="#000000" stroke-dasharray="5,2" d="M518.8247,-645.38C516.1809,-663.238 513.0696,-684.2532 510.1076,-704.2602"/>
<polygon fill="#000000" stroke="#000000" points="508.6221,-714.2942 505.6352,-703.743 509.3544,-709.3482 510.0867,-704.4021 510.0867,-704.4021 510.0867,-704.4021 509.3544,-709.3482 514.5382,-705.0611 508.6221,-714.2942 508.6221,-714.2942"/>
</g>
<!-- Hockey&#45;&gt;Stick -->
<g id="edge3" class="edge">
<title>Hockey&#45;&gt;Stick</title>
<path fill="none" stroke="#000000" stroke-dasharray="5,2" d="M568.0821,-616.7902C643.2142,-645.8669 799.2231,-706.2438 882.5887,-738.507"/>
<polygon fill="#000000" stroke="#000000" points="892.1399,-742.2034 881.1897,-742.7908 887.4769,-740.3987 882.8139,-738.5941 882.8139,-738.5941 882.8139,-738.5941 887.4769,-740.3987 884.4381,-734.3974 892.1399,-742.2034 892.1399,-742.2034"/>
</g>
<!-- Hockey&#45;&gt;Goal net -->
<g id="edge5" class="edge">
<title>Hockey&#45;&gt;Goal net</title>
<path fill="none" stroke="#000000" stroke-dasharray="5,2" d="M480.6533,-592.7373C413.0585,-581.3235 283.787,-559.4952 197.25,-544.8828"/>
<polygon fill="#000000" stroke="#000000" points="187.1785,-543.1822 197.7882,-540.4101 192.1087,-544.0147 197.0389,-544.8473 197.0389,-544.8473 197.0389,-544.8473 192.1087,-544.0147 196.2896,-549.2845 187.1785,-543.1822 187.1785,-543.1822"/>
</g>
<!-- Goal&#45;&gt;Puck -->
<g id="edge7" class="edge">
<title>Goal&#45;&gt;Puck</title>
<path fill="none" stroke="#000000" stroke-dasharray="5,2" d="M312.382,-707.1532C347.4693,-720.6422 391.7415,-737.6623 428.3642,-751.7416"/>
<polygon fill="#000000" stroke="#000000" points="437.9869,-755.441 427.0381,-756.0529 433.3199,-753.6468 428.6529,-751.8526 428.6529,-751.8526 428.6529,-751.8526 433.3199,-753.6468 430.2677,-747.6523 437.9869,-755.441 437.9869,-755.441"/>
</g>
<!-- Goal&#45;&gt;Goal net -->
<g id="edge8" class="edge">
<title>Goal&#45;&gt;Goal net</title>
<path fill="none" stroke="#000000" stroke-dasharray="5,2" d="M207.1697,-635.58C195.3509,-622.7397 182.3854,-608.6536 169.8878,-595.0757"/>
<polygon fill="#000000" stroke="#000000" points="163.003,-587.5959 173.0863,-591.906 166.3892,-591.2748 169.7753,-594.9536 169.7753,-594.9536 169.7753,-594.9536 166.3892,-591.2748 166.4644,-598.0012 163.003,-587.5959 163.003,-587.5959"/>
</g>
<!-- Puck&#45;&gt;Goal net -->
<g id="edge9" class="edge">
<title>Puck&#45;&gt;Goal net</title>
<path fill="none" stroke="#000000" stroke-dasharray="5,2" d="M447.0071,-739.7803C407.2223,-710.4118 350.6261,-669.7999 299.0615,-637.0451 263.2944,-614.3252 222.499,-590.9446 187.994,-571.8677"/>
<polygon fill="#000000" stroke="#000000" points="178.9026,-566.8601 189.8328,-567.7431 183.2822,-569.2724 187.6618,-571.6847 187.6618,-571.6847 187.6618,-571.6847 183.2822,-569.2724 185.4907,-575.6264 178.9026,-566.8601 178.9026,-566.8601"/>
</g>
<!-- Stick&#45;&gt;Puck -->
<g id="edge10" class="edge">
<title>Stick&#45;&gt;Puck</title>
<path fill="none" stroke="#000000" stroke-dasharray="5,2" d="M888.8683,-762.0501C812.4084,-765.3587 664.2911,-771.768 574.2779,-775.663"/>
<polygon fill="#000000" stroke="#000000" points="564.137,-776.1018 573.9331,-771.1736 569.1323,-775.8856 574.1277,-775.6694 574.1277,-775.6694 574.1277,-775.6694 569.1323,-775.8856 574.3222,-780.1652 564.137,-776.1018 564.137,-776.1018"/>
</g>
<!-- Snap shot&#45;&gt;Wrist shot -->
<g id="edge11" class="edge">
<title>Snap shot&#45;&gt;Wrist shot</title>
<path fill="none" stroke="#000000" stroke-dasharray="5,2" d="M576.0375,-105.476C518.6135,-114.0338 445.7295,-124.8955 393.7912,-132.6358"/>
<polygon fill="#000000" stroke="#000000" points="383.6936,-134.1406 392.921,-128.2156 388.639,-133.4035 393.5843,-132.6665 393.5843,-132.6665 393.5843,-132.6665 388.639,-133.4035 394.2477,-137.1173 383.6936,-134.1406 383.6936,-134.1406"/>
</g>
<!-- Snap shot&#45;&gt;Slapshot -->
<g id="edge12" class="edge">
<title>Snap shot&#45;&gt;Slapshot</title>
<path fill="none" stroke="#000000" stroke-dasharray="5,2" d="M757.9241,-107.1876C816.1363,-116.957 890.0426,-129.3604 941.0833,-137.9263"/>
<polygon fill="#000000" stroke="#000000" points="950.9751,-139.5864 940.3682,-142.3692 946.0441,-138.7588 941.1131,-137.9312 941.1131,-137.9312 941.1131,-137.9312 946.0441,-138.7588 941.8579,-133.4933 950.9751,-139.5864 950.9751,-139.5864"/>
</g>
<!-- Backhand shot&#45;&gt;Wrist shot -->
<g id="edge13" class="edge">
<title>Backhand shot&#45;&gt;Wrist shot</title>
<path fill="none" stroke="#000000" stroke-dasharray="5,2" d="M142.1933,-242.969C181.4738,-221.6864 230.759,-194.9832 268.6451,-174.4561"/>
<polygon fill="#000000" stroke="#000000" points="277.5262,-169.6443 270.8775,-178.3647 273.13,-172.0262 268.7338,-174.4081 268.7338,-174.4081 268.7338,-174.4081 273.13,-172.0262 266.59,-170.4515 277.5262,-169.6443 277.5262,-169.6443"/>
</g>
</g>
</svg>
