<?xml version="1.0" encoding="UTF-8" standalone="no"?>
<?xml-stylesheet href="../static/svg.css" type="text/css"?>
<!DOCTYPE svg PUBLIC "-//W3C//DTD SVG 1.1//EN"
 "http://www.w3.org/Graphics/SVG/1.1/DTD/svg11.dtd">
<!-- Generated by graphviz version 2.40.1 (20161225.0304)
 -->
<!-- Title: term Pages: 1 -->
<svg width="2020pt" height="1198pt"
 viewBox="0.00 0.00 2019.99 1198.08" xmlns="http://www.w3.org/2000/svg" xmlns:xlink="http://www.w3.org/1999/xlink">
<g id="graph0" class="graph" transform="scale(1 1) rotate(0) translate(4 1194.0828)">
<title>term</title>
<!-- Team -->
<g id="node1" class="node has&#45;pronunciation">
<title>Team</title>
<g id="a_node1"><a xlink:href="../team.html" xlink:title="Команда" target="_top">
<ellipse fill="none" stroke="#c0c0c0" stroke-width=".2" cx="256.8246" cy="-327.0222" rx="51.7379" ry="51.7379"/>
<text text-anchor="middle" x="256.8246" y="-340.5222" font-family="Times,serif" font-size="15.00" fill="#000000">Team</text>
<text text-anchor="middle" x="256.8246" y="-323.5222" font-family="Times,serif" font-size="15.00" fill="#000000">Команда</text>
<text text-anchor="middle" x="256.8246" y="-306.5222" font-family="Times,serif" font-size="15.00" fill="#000000">Тим</text>
</a>
</g>
</g>
<!-- Player -->
<g id="node2" class="node has&#45;pronunciation">
<title>Player</title>
<g id="a_node2"><a xlink:href="../player.html" xlink:title="Игрок" target="_top">
<ellipse fill="none" stroke="#c0c0c0" stroke-width=".2" cx="703.6337" cy="-405.6168" rx="46.8387" ry="46.8387"/>
<text text-anchor="middle" x="703.6337" y="-419.1168" font-family="Times,serif" font-size="15.00" fill="#000000">Player</text>
<text text-anchor="middle" x="703.6337" y="-402.1168" font-family="Times,serif" font-size="15.00" fill="#000000">Игрок</text>
<text text-anchor="middle" x="703.6337" y="-385.1168" font-family="Times,serif" font-size="15.00" fill="#000000">&#39;Плейэр</text>
</a>
</g>
</g>
<!-- Team&#45;&gt;Player -->
<g id="edge1" class="edge">
<title>Team&#45;&gt;Player</title>
<path fill="none" stroke="#000000" stroke-dasharray="5,2" d="M308.0793,-336.038C392.4179,-350.8733 559.8108,-380.318 647.3361,-395.7139"/>
<polygon fill="#000000" stroke="#000000" points="657.3467,-397.4748 646.7183,-400.1742 652.4223,-396.6085 647.4979,-395.7423 647.4979,-395.7423 647.4979,-395.7423 652.4223,-396.6085 648.2776,-391.3103 657.3467,-397.4748 657.3467,-397.4748"/>
</g>
<!-- Sport -->
<g id="node9" class="node">
<title>Sport</title>
<g id="a_node9"><a xlink:href="../sport.html" xlink:title="Спорт" target="_top">
<ellipse fill="none" stroke="#c0c0c0" stroke-width=".2" cx="425.3575" cy="-169.6207" rx="39.6962" ry="39.6962"/>
<text text-anchor="middle" x="425.3575" y="-174.6207" font-family="Times,serif" font-size="15.00" fill="#000000">Sport</text>
<text text-anchor="middle" x="425.3575" y="-157.6207" font-family="Times,serif" font-size="15.00" fill="#000000">Спорт</text>
</a>
</g>
</g>
<!-- Team&#45;&gt;Sport -->
<g id="edge10" class="edge">
<title>Team&#45;&gt;Sport</title>
<path fill="none" stroke="#000000" stroke-dasharray="5,2" d="M294.6467,-291.6982C322.7674,-265.4348 360.9233,-229.7991 388.7495,-203.8108"/>
<polygon fill="#000000" stroke="#000000" points="396.307,-196.7524 392.0702,-206.8668 392.6529,-200.1653 388.9987,-203.5781 388.9987,-203.5781 388.9987,-203.5781 392.6529,-200.1653 385.9272,-200.2893 396.307,-196.7524 396.307,-196.7524"/>
</g>
<!-- Player&#45;&gt;Sport -->
<g id="edge15" class="edge">
<title>Player&#45;&gt;Sport</title>
<path fill="none" stroke="#000000" stroke-dasharray="5,2" d="M667.8237,-375.2475C615.2168,-330.6335 517.4626,-247.7317 463.5367,-201.999"/>
<polygon fill="#000000" stroke="#000000" points="455.909,-195.5303 466.4463,-198.5662 459.7223,-198.7642 463.5357,-201.9982 463.5357,-201.9982 463.5357,-201.9982 459.7223,-198.7642 460.6251,-205.4302 455.909,-195.5303 455.909,-195.5303"/>
</g>
<!-- Goal -->
<g id="node11" class="node has&#45;pronunciation">
<title>Goal</title>
<g id="a_node11"><a xlink:href="../goal.html" xlink:title="Гол" target="_top">
<ellipse fill="none" stroke="#c0c0c0" stroke-width=".2" cx="1069.6836" cy="-437.6655" rx="65.1077" ry="65.1077"/>
<text text-anchor="middle" x="1069.6836" y="-459.6655" font-family="Times,serif" font-size="25.00" fill="#000000">Goal</text>
<text text-anchor="middle" x="1069.6836" y="-431.6655" font-family="Times,serif" font-size="25.00" fill="#000000">Гол</text>
<text text-anchor="middle" x="1069.6836" y="-403.6655" font-family="Times,serif" font-size="25.00" fill="#000000">Гoул</text>
</a>
</g>
</g>
<!-- Player&#45;&gt;Goal -->
<g id="edge14" class="edge">
<title>Player&#45;&gt;Goal</title>
<path fill="none" stroke="#000000" stroke-dasharray="5,2" d="M750.366,-409.7083C812.0331,-415.1074 921.3235,-424.6761 994.6357,-431.0948"/>
<polygon fill="#000000" stroke="#000000" points="1004.7329,-431.9789 994.3785,-435.5895 999.752,-431.5427 994.771,-431.1066 994.771,-431.1066 994.771,-431.1066 999.752,-431.5427 995.1636,-426.6238 1004.7329,-431.9789 1004.7329,-431.9789"/>
</g>
<!-- Shot -->
<g id="node13" class="node has&#45;pronunciation">
<title>Shot</title>
<g id="a_node13"><a xlink:href="../shot.html" xlink:title="Бросок" target="_top">
<ellipse fill="none" stroke="#c0c0c0" stroke-width=".2" cx="1292.7711" cy="-725.3732" rx="67.3507" ry="67.3507"/>
<text text-anchor="middle" x="1292.7711" y="-747.3732" font-family="Times,serif" font-size="25.00" fill="#000000">Shot</text>
<text text-anchor="middle" x="1292.7711" y="-719.3732" font-family="Times,serif" font-size="25.00" fill="#000000">Бросок</text>
<text text-anchor="middle" x="1292.7711" y="-691.3732" font-family="Times,serif" font-size="25.00" fill="#000000">Шат</text>
</a>
</g>
</g>
<!-- Player&#45;&gt;Shot -->
<g id="edge20" class="edge">
<title>Player&#45;&gt;Shot</title>
<path fill="none" stroke="#000000" stroke-dasharray="5,2" d="M745.0607,-428.1014C845.2246,-482.4657 1101.3296,-621.4676 1224.5382,-688.3396"/>
<polygon fill="#000000" stroke="#000000" points="1233.5339,-693.222 1222.5984,-692.4067 1229.1395,-690.8369 1224.745,-688.4517 1224.745,-688.4517 1224.745,-688.4517 1229.1395,-690.8369 1226.8916,-684.4967 1233.5339,-693.222 1233.5339,-693.222"/>
</g>
<!-- Rink -->
<g id="node3" class="node has&#45;pronunciation">
<title>Rink</title>
<g id="a_node3"><a xlink:href="../rink.html" xlink:title="Площадка" target="_top">
<ellipse fill="none" stroke="#c0c0c0" stroke-width=".2" cx="116.1824" cy="-998.8609" rx="57.0522" ry="57.0522"/>
<text text-anchor="middle" x="116.1824" y="-1012.3609" font-family="Times,serif" font-size="15.00" fill="#000000">Rink</text>
<text text-anchor="middle" x="116.1824" y="-995.3609" font-family="Times,serif" font-size="15.00" fill="#000000">Площадка</text>
<text text-anchor="middle" x="116.1824" y="-978.3609" font-family="Times,serif" font-size="15.00" fill="#000000">Ринк</text>
</a>
</g>
</g>
<!-- Ice -->
<g id="node4" class="node has&#45;pronunciation">
<title>Ice</title>
<g id="a_node4"><a xlink:href="../ice.html" xlink:title="Лёд" target="_top">
<ellipse fill="none" stroke="#c0c0c0" stroke-width=".2" cx="529.2053" cy="-1138.031" rx="41.9398" ry="41.9398"/>
<text text-anchor="middle" x="529.2053" y="-1151.531" font-family="Times,serif" font-size="15.00" fill="#000000">Ice</text>
<text text-anchor="middle" x="529.2053" y="-1134.531" font-family="Times,serif" font-size="15.00" fill="#000000">Лёд</text>
<text text-anchor="middle" x="529.2053" y="-1117.531" font-family="Times,serif" font-size="15.00" fill="#000000">Айс</text>
</a>
</g>
</g>
<!-- Rink&#45;&gt;Ice -->
<g id="edge2" class="edge">
<title>Rink&#45;&gt;Ice</title>
<path fill="none" stroke="#000000" stroke-dasharray="5,2" d="M170.6027,-1017.198C251.4779,-1044.4493 402.1869,-1095.2315 479.9586,-1121.4371"/>
<polygon fill="#000000" stroke="#000000" points="489.5261,-1124.6609 478.6126,-1125.7321 484.7878,-1123.0642 480.0496,-1121.4676 480.0496,-1121.4676 480.0496,-1121.4676 484.7878,-1123.0642 481.4865,-1117.2032 489.5261,-1124.6609 489.5261,-1124.6609"/>
</g>
<!-- Goal net -->
<g id="node5" class="node has&#45;pronunciation">
<title>Goal net</title>
<g id="a_node5"><a xlink:href="../goal-net.html" xlink:title="Ворота" target="_top">
<ellipse fill="none" stroke="#c0c0c0" stroke-width=".2" cx="594.9658" cy="-744.8032" rx="77.5641" ry="77.5641"/>
<text text-anchor="middle" x="594.9658" y="-766.8032" font-family="Times,serif" font-size="25.00" fill="#000000">Goal net</text>
<text text-anchor="middle" x="594.9658" y="-738.8032" font-family="Times,serif" font-size="25.00" fill="#000000">Ворота</text>
<text text-anchor="middle" x="594.9658" y="-710.8032" font-family="Times,serif" font-size="25.00" fill="#000000">Гoул нет</text>
</a>
</g>
</g>
<!-- Rink&#45;&gt;Goal net -->
<g id="edge3" class="edge">
<title>Rink&#45;&gt;Goal net</title>
<path fill="none" stroke="#000000" stroke-dasharray="5,2" d="M166.9673,-971.9128C250.6339,-927.5166 418.0053,-838.7041 516.8372,-786.2607"/>
<polygon fill="#000000" stroke="#000000" points="525.8883,-781.4579 519.1642,-790.1203 521.4716,-783.8016 517.0549,-786.1453 517.0549,-786.1453 517.0549,-786.1453 521.4716,-783.8016 514.9456,-782.1702 525.8883,-781.4579 525.8883,-781.4579"/>
</g>
<!-- Opponent -->
<g id="node6" class="node has&#45;pronunciation">
<title>Opponent</title>
<g id="a_node6"><a xlink:href="../opponent.html" xlink:title="Противник" target="_top">
<ellipse fill="none" stroke="#c0c0c0" stroke-width=".2" cx="60.8112" cy="-568.3951" rx="60.623" ry="60.623"/>
<text text-anchor="middle" x="60.8112" y="-581.8951" font-family="Times,serif" font-size="15.00" fill="#000000">Opponent</text>
<text text-anchor="middle" x="60.8112" y="-564.8951" font-family="Times,serif" font-size="15.00" fill="#000000">Противник</text>
<text text-anchor="middle" x="60.8112" y="-547.8951" font-family="Times,serif" font-size="15.00" fill="#000000">Эˈпoунэнт</text>
</a>
</g>
</g>
<!-- Opponent&#45;&gt;Team -->
<g id="edge4" class="edge">
<title>Opponent&#45;&gt;Team</title>
<path fill="none" stroke="#000000" stroke-dasharray="5,2" d="M99.3033,-520.9956C133.554,-478.8189 183.4118,-417.4235 217.8178,-375.0556"/>
<polygon fill="#000000" stroke="#000000" points="224.2692,-367.1112 221.4585,-377.7108 221.1172,-370.9926 217.9652,-374.874 217.9652,-374.874 217.9652,-374.874 221.1172,-370.9926 214.472,-372.0372 224.2692,-367.1112 224.2692,-367.1112"/>
</g>
<!-- Opponent&#45;&gt;Player -->
<g id="edge5" class="edge">
<title>Opponent&#45;&gt;Player</title>
<path fill="none" stroke="#000000" stroke-dasharray="5,2" d="M119.8475,-553.4457C243.4713,-522.1411 528.05,-450.0789 648.3436,-419.6176"/>
<polygon fill="#000000" stroke="#000000" points="658.0922,-417.149 649.5028,-423.9661 653.2451,-418.3764 648.3981,-419.6038 648.3981,-419.6038 648.3981,-419.6038 653.2451,-418.3764 647.2934,-415.2415 658.0922,-417.149 658.0922,-417.149"/>
</g>
<!-- Opponent&#45;&gt;Goal net -->
<g id="edge9" class="edge">
<title>Opponent&#45;&gt;Goal net</title>
<path fill="none" stroke="#000000" stroke-dasharray="5,2" d="M118.737,-587.5255C213.5108,-618.8252 402.074,-681.0994 511.3477,-717.1878"/>
<polygon fill="#000000" stroke="#000000" points="521.0202,-720.3822 510.1134,-721.5192 516.2724,-718.8142 511.5247,-717.2462 511.5247,-717.2462 511.5247,-717.2462 516.2724,-718.8142 512.9359,-712.9731 521.0202,-720.3822 521.0202,-720.3822"/>
</g>
<!-- Stick -->
<g id="node7" class="node has&#45;pronunciation">
<title>Stick</title>
<g id="a_node7"><a xlink:href="../stick.html" xlink:title="Клюшка" target="_top">
<ellipse fill="none" stroke="#c0c0c0" stroke-width=".2" cx="1355.3402" cy="-522.0504" rx="48.5816" ry="48.5816"/>
<text text-anchor="middle" x="1355.3402" y="-535.5504" font-family="Times,serif" font-size="15.00" fill="#000000">Stick</text>
<text text-anchor="middle" x="1355.3402" y="-518.5504" font-family="Times,serif" font-size="15.00" fill="#000000">Клюшка</text>
<text text-anchor="middle" x="1355.3402" y="-501.5504" font-family="Times,serif" font-size="15.00" fill="#000000">Стик</text>
</a>
</g>
</g>
<!-- Puck -->
<g id="node8" class="node has&#45;pronunciation">
<title>Puck</title>
<g id="a_node8"><a xlink:href="../puck.html" xlink:title="Шайба" target="_top">
<ellipse fill="none" stroke="#c0c0c0" stroke-width=".2" cx="922.9541" cy="-794.1889" rx="65.1077" ry="65.1077"/>
<text text-anchor="middle" x="922.9541" y="-816.1889" font-family="Times,serif" font-size="25.00" fill="#000000">Puck</text>
<text text-anchor="middle" x="922.9541" y="-788.1889" font-family="Times,serif" font-size="25.00" fill="#000000">Шайба</text>
<text text-anchor="middle" x="922.9541" y="-760.1889" font-family="Times,serif" font-size="25.00" fill="#000000">Пак</text>
</a>
</g>
</g>
<!-- Stick&#45;&gt;Puck -->
<g id="edge6" class="edge">
<title>Stick&#45;&gt;Puck</title>
<path fill="none" stroke="#000000" stroke-dasharray="5,2" d="M1313.8812,-548.1442C1238.0149,-595.8935 1076.4036,-697.6097 986.5478,-754.1637"/>
<polygon fill="#000000" stroke="#000000" points="978.0814,-759.4924 984.1476,-750.3572 982.313,-756.829 986.5447,-754.1657 986.5447,-754.1657 986.5447,-754.1657 982.313,-756.829 988.9417,-757.9742 978.0814,-759.4924 978.0814,-759.4924"/>
</g>
<!-- Puck&#45;&gt;Ice -->
<g id="edge7" class="edge">
<title>Puck&#45;&gt;Ice</title>
<path fill="none" stroke="#000000" stroke-dasharray="5,2" d="M873.8816,-837.0415C794.7166,-906.1726 640.4132,-1040.9184 568.2134,-1103.967"/>
<polygon fill="#000000" stroke="#000000" points="560.6558,-1110.5668 565.2281,-1100.5996 564.4219,-1107.2779 568.1881,-1103.9891 568.1881,-1103.9891 568.1881,-1103.9891 564.4219,-1107.2779 571.148,-1107.3787 560.6558,-1110.5668 560.6558,-1110.5668"/>
</g>
<!-- Puck&#45;&gt;Goal net -->
<g id="edge8" class="edge">
<title>Puck&#45;&gt;Goal net</title>
<path fill="none" stroke="#000000" stroke-dasharray="5,2" d="M858.5455,-784.4908C808.1399,-776.9011 737.5337,-766.2699 682.083,-757.9206"/>
<polygon fill="#000000" stroke="#000000" points="671.9138,-756.3894 682.4724,-753.4286 676.8581,-757.1339 681.8024,-757.8784 681.8024,-757.8784 681.8024,-757.8784 676.8581,-757.1339 681.1323,-762.3282 671.9138,-756.3894 671.9138,-756.3894"/>
</g>
<!-- Score -->
<g id="node10" class="node has&#45;pronunciation">
<title>Score</title>
<g id="a_node10"><a xlink:href="../score.html" xlink:title="Счёт" target="_top">
<ellipse fill="none" stroke="#c0c0c0" stroke-width=".2" cx="1261.7834" cy="-65.0538" rx="65.1077" ry="65.1077"/>
<text text-anchor="middle" x="1261.7834" y="-87.0538" font-family="Times,serif" font-size="25.00" fill="#000000">Score</text>
<text text-anchor="middle" x="1261.7834" y="-59.0538" font-family="Times,serif" font-size="25.00" fill="#000000">Счёт</text>
<text text-anchor="middle" x="1261.7834" y="-31.0538" font-family="Times,serif" font-size="25.00" fill="#000000">Скор</text>
</a>
</g>
</g>
<!-- Score&#45;&gt;Goal -->
<g id="edge11" class="edge">
<title>Score&#45;&gt;Goal</title>
<path fill="none" stroke="#000000" stroke-dasharray="5,2" d="M1231.7678,-123.2744C1197.2799,-190.1697 1140.7773,-299.7665 1104.4182,-370.2916"/>
<polygon fill="#000000" stroke="#000000" points="1099.6464,-379.5472 1100.2291,-368.5968 1101.9376,-375.1031 1104.2288,-370.6589 1104.2288,-370.6589 1104.2288,-370.6589 1101.9376,-375.1031 1108.2286,-372.721 1099.6464,-379.5472 1099.6464,-379.5472"/>
</g>
<!-- Point -->
<g id="node12" class="node has&#45;pronunciation">
<title>Point</title>
<g id="a_node12"><a xlink:href="../point.html" xlink:title="Очко" target="_top">
<ellipse fill="none" stroke="#c0c0c0" stroke-width=".2" cx="779.7398" cy="-109.2449" rx="41.9398" ry="41.9398"/>
<text text-anchor="middle" x="779.7398" y="-122.7449" font-family="Times,serif" font-size="15.00" fill="#000000">Point</text>
<text text-anchor="middle" x="779.7398" y="-105.7449" font-family="Times,serif" font-size="15.00" fill="#000000">Очко</text>
<text text-anchor="middle" x="779.7398" y="-88.7449" font-family="Times,serif" font-size="15.00" fill="#000000">Пойнт</text>
</a>
</g>
</g>
<!-- Score&#45;&gt;Point -->
<g id="edge12" class="edge">
<title>Score&#45;&gt;Point</title>
<path fill="none" stroke="#000000" stroke-dasharray="5,2" d="M1196.7729,-71.0136C1099.9943,-79.8857 919.9677,-96.3896 831.5124,-104.4987"/>
<polygon fill="#000000" stroke="#000000" points="821.447,-105.4214 830.9944,-100.0272 826.4261,-104.9649 831.4053,-104.5084 831.4053,-104.5084 831.4053,-104.5084 826.4261,-104.9649 831.8161,-108.9896 821.447,-105.4214 821.447,-105.4214"/>
</g>
<!-- Goal&#45;&gt;Goal net -->
<g id="edge19" class="edge">
<title>Goal&#45;&gt;Goal net</title>
<path fill="none" stroke="#000000" stroke-dasharray="5,2" d="M1014.7637,-473.1982C929.3565,-528.4557 764.5937,-635.0557 668.8469,-697.0028"/>
<polygon fill="#000000" stroke="#000000" points="660.3704,-702.4871 666.3219,-693.2767 664.5684,-699.771 668.7664,-697.0549 668.7664,-697.0549 668.7664,-697.0549 664.5684,-699.771 671.2108,-700.8331 660.3704,-702.4871 660.3704,-702.4871"/>
</g>
<!-- Goal&#45;&gt;Puck -->
<g id="edge18" class="edge">
<title>Goal&#45;&gt;Puck</title>
<path fill="none" stroke="#000000" stroke-dasharray="5,2" d="M1044.7929,-498.1448C1018.998,-560.8213 978.7322,-658.6592 951.6226,-724.5301"/>
<polygon fill="#000000" stroke="#000000" points="947.7215,-734.0088 947.3661,-723.0487 949.6245,-729.3851 951.5275,-724.7614 951.5275,-724.7614 951.5275,-724.7614 949.6245,-729.3851 955.6888,-726.474 947.7215,-734.0088 947.7215,-734.0088"/>
</g>
<!-- Point&#45;&gt;Team -->
<g id="edge17" class="edge">
<title>Point&#45;&gt;Team</title>
<path fill="none" stroke="#000000" stroke-dasharray="5,2" d="M740.8634,-125.4357C649.5343,-163.4713 420.9524,-258.6682 313.8613,-303.2682"/>
<polygon fill="#000000" stroke="#000000" points="304.504,-307.1652 312.0053,-299.1665 309.1197,-305.2429 313.7354,-303.3206 313.7354,-303.3206 313.7354,-303.3206 309.1197,-305.2429 315.4655,-307.4747 304.504,-307.1652 304.504,-307.1652"/>
</g>
<!-- Point&#45;&gt;Player -->
<g id="edge16" class="edge">
<title>Point&#45;&gt;Player</title>
<path fill="none" stroke="#000000" stroke-dasharray="5,2" d="M769.3171,-149.8327C755.9633,-201.8352 732.7599,-292.1936 717.8089,-350.416"/>
<polygon fill="#000000" stroke="#000000" points="715.3004,-360.1844 713.4291,-349.3794 716.544,-355.3416 717.7877,-350.4987 717.7877,-350.4987 717.7877,-350.4987 716.544,-355.3416 722.1463,-351.618 715.3004,-360.1844 715.3004,-360.1844"/>
</g>
<!-- Point&#45;&gt;Goal -->
<g id="edge13" class="edge">
<title>Point&#45;&gt;Goal</title>
<path fill="none" stroke="#000000" stroke-dasharray="5,2" d="M807.5408,-140.7353C856.4005,-196.0788 958.2963,-311.4967 1019.665,-381.0093"/>
<polygon fill="#000000" stroke="#000000" points="1026.5745,-388.8357 1016.5827,-384.3173 1023.2653,-385.0874 1019.9562,-381.3391 1019.9562,-381.3391 1019.9562,-381.3391 1023.2653,-385.0874 1023.3296,-378.3608 1026.5745,-388.8357 1026.5745,-388.8357"/>
</g>
<!-- Shot&#45;&gt;Goal net -->
<g id="edge24" class="edge">
<title>Shot&#45;&gt;Goal net</title>
<path fill="none" stroke="#000000" stroke-dasharray="5,2" d="M1225.3705,-724.8256C1151.3298,-724.4439 1028.9144,-724.4599 923.4961,-727.5372 841.9375,-729.9181 749.0983,-735.0184 682.9662,-739.0617"/>
<polygon fill="#000000" stroke="#000000" points="672.5876,-739.701 682.292,-734.5946 677.5781,-739.3936 682.5687,-739.0861 682.5687,-739.0861 682.5687,-739.0861 677.5781,-739.3936 682.8454,-743.5776 672.5876,-739.701 672.5876,-739.701"/>
</g>
<!-- Shot&#45;&gt;Stick -->
<g id="edge23" class="edge">
<title>Shot&#45;&gt;Stick</title>
<path fill="none" stroke="#000000" stroke-dasharray="5,2" d="M1312.5684,-661.0406C1320.7273,-634.5278 1330.0966,-604.0814 1337.9826,-578.4553"/>
<polygon fill="#000000" stroke="#000000" points="1340.9267,-568.8882 1342.2864,-579.7695 1339.456,-573.667 1337.9854,-578.4459 1337.9854,-578.4459 1337.9854,-578.4459 1339.456,-573.667 1333.6844,-577.1223 1340.9267,-568.8882 1340.9267,-568.8882"/>
</g>
<!-- Shot&#45;&gt;Puck -->
<g id="edge22" class="edge">
<title>Shot&#45;&gt;Puck</title>
<path fill="none" stroke="#000000" stroke-dasharray="5,2" d="M1226.6553,-737.6761C1162.1342,-749.6822 1064.1492,-767.9152 997.034,-780.404"/>
<polygon fill="#000000" stroke="#000000" points="986.9507,-782.2803 995.9587,-776.0268 991.8664,-781.3656 996.782,-780.4509 996.782,-780.4509 996.782,-780.4509 991.8664,-781.3656 997.6052,-784.8749 986.9507,-782.2803 986.9507,-782.2803"/>
</g>
<!-- Shot&#45;&gt;Goal -->
<g id="edge21" class="edge">
<title>Shot&#45;&gt;Goal</title>
<path fill="none" stroke="#000000" stroke-dasharray="5,2" d="M1251.5935,-672.2679C1213.2324,-622.795 1156.1042,-549.1189 1116.1321,-497.5685"/>
<polygon fill="#000000" stroke="#000000" points="1109.8697,-489.492 1119.5536,-494.6372 1112.9335,-493.4433 1115.9974,-497.3947 1115.9974,-497.3947 1115.9974,-497.3947 1112.9335,-493.4433 1112.4412,-500.1521 1109.8697,-489.492 1109.8697,-489.492"/>
</g>
<!-- Flip shot -->
<g id="node14" class="node has&#45;pronunciation">
<title>Flip shot</title>
<g id="a_node14"><a xlink:href="../flip-shot.html" xlink:title="Подкидка" target="_top">
<ellipse fill="none" stroke="#c0c0c0" stroke-width=".2" cx="1940.1338" cy="-818.0652" rx="55.7232" ry="55.7232"/>
<text text-anchor="middle" x="1940.1338" y="-831.5652" font-family="Times,serif" font-size="15.00" fill="#000000">Flip shot</text>
<text text-anchor="middle" x="1940.1338" y="-814.5652" font-family="Times,serif" font-size="15.00" fill="#000000">Подкидка</text>
<text text-anchor="middle" x="1940.1338" y="-797.5652" font-family="Times,serif" font-size="15.00" fill="#000000">Флип шат</text>
</a>
</g>
</g>
<!-- Shot&#45;&gt;Flip shot -->
<g id="edge25" class="edge">
<title>Shot&#45;&gt;Flip shot</title>
<path fill="none" stroke="#000000" stroke-dasharray="5,2" d="M1359.3098,-734.9005C1483.8986,-752.7396 1750.9334,-790.9748 1874.6858,-808.6941"/>
<polygon fill="#000000" stroke="#000000" points="1884.7766,-810.139 1874.2397,-813.1761 1879.8271,-809.4302 1874.8776,-808.7215 1874.8776,-808.7215 1874.8776,-808.7215 1879.8271,-809.4302 1875.5155,-804.2669 1884.7766,-810.139 1884.7766,-810.139"/>
</g>
<!-- Wrist shot -->
<g id="node15" class="node has&#45;pronunciation">
<title>Wrist shot</title>
<g id="a_node15"><a xlink:href="../wrist-shot.html" xlink:title="Кистевой" target="_top">
<ellipse fill="none" stroke="#c0c0c0" stroke-width=".2" cx="1758.8252" cy="-938.4952" rx="56.6372" ry="56.6372"/>
<text text-anchor="middle" x="1758.8252" y="-951.9952" font-family="Times,serif" font-size="15.00" fill="#000000">Wrist shot</text>
<text text-anchor="middle" x="1758.8252" y="-934.9952" font-family="Times,serif" font-size="15.00" fill="#000000">Кистевой</text>
<text text-anchor="middle" x="1758.8252" y="-917.9952" font-family="Times,serif" font-size="15.00" fill="#000000">Рист шат</text>
</a>
</g>
</g>
<!-- Shot&#45;&gt;Wrist shot -->
<g id="edge26" class="edge">
<title>Shot&#45;&gt;Wrist shot</title>
<path fill="none" stroke="#000000" stroke-dasharray="5,2" d="M1354.1788,-753.4543C1443.7015,-794.3922 1609.0537,-870.0062 1698.1568,-910.7521"/>
<polygon fill="#000000" stroke="#000000" points="1707.3234,-914.944 1696.3578,-914.8776 1702.7763,-912.8646 1698.2292,-910.7852 1698.2292,-910.7852 1698.2292,-910.7852 1702.7763,-912.8646 1700.1006,-906.6928 1707.3234,-914.944 1707.3234,-914.944"/>
</g>
<!-- Slapshot -->
<g id="node16" class="node has&#45;pronunciation">
<title>Slapshot</title>
<g id="a_node16"><a xlink:href="../slapshot.html" xlink:title="Щелчок" target="_top">
<ellipse fill="none" stroke="#c0c0c0" stroke-width=".2" cx="1843.0273" cy="-436.0047" rx="50.8235" ry="50.8235"/>
<text text-anchor="middle" x="1843.0273" y="-449.5047" font-family="Times,serif" font-size="15.00" fill="#000000">Slapshot</text>
<text text-anchor="middle" x="1843.0273" y="-432.5047" font-family="Times,serif" font-size="15.00" fill="#000000">Щелчок</text>
<text text-anchor="middle" x="1843.0273" y="-415.5047" font-family="Times,serif" font-size="15.00" fill="#000000">Слэпшат</text>
</a>
</g>
</g>
<!-- Shot&#45;&gt;Slapshot -->
<g id="edge27" class="edge">
<title>Shot&#45;&gt;Slapshot</title>
<path fill="none" stroke="#000000" stroke-dasharray="5,2" d="M1352.4431,-693.9929C1460.0664,-637.3961 1685.0961,-519.0575 1788.6948,-464.577"/>
<polygon fill="#000000" stroke="#000000" points="1797.7365,-459.8222 1790.9803,-468.4595 1793.3112,-462.1494 1788.8858,-464.4767 1788.8858,-464.4767 1788.8858,-464.4767 1793.3112,-462.1494 1786.7912,-460.4938 1797.7365,-459.8222 1797.7365,-459.8222"/>
</g>
<!-- Snap shot -->
<g id="node17" class="node has&#45;pronunciation">
<title>Snap shot</title>
<g id="a_node17"><a xlink:href="../snap-shot.html" xlink:title="Короткий щелчок" target="_top">
<ellipse fill="none" stroke="#c0c0c0" stroke-width=".2" cx="1920.0694" cy="-654.2348" rx="91.8478" ry="91.8478"/>
<text text-anchor="middle" x="1920.0694" y="-667.7348" font-family="Times,serif" font-size="15.00" fill="#000000">Snap shot</text>
<text text-anchor="middle" x="1920.0694" y="-650.7348" font-family="Times,serif" font-size="15.00" fill="#000000">Короткий щелчок</text>
<text text-anchor="middle" x="1920.0694" y="-633.7348" font-family="Times,serif" font-size="15.00" fill="#000000">Снэп шат</text>
</a>
</g>
</g>
<!-- Shot&#45;&gt;Snap shot -->
<g id="edge28" class="edge">
<title>Shot&#45;&gt;Snap shot</title>
<path fill="none" stroke="#000000" stroke-dasharray="5,2" d="M1359.6058,-717.7939C1469.4902,-705.3325 1688.9988,-680.4392 1818.2942,-665.7766"/>
<polygon fill="#000000" stroke="#000000" points="1828.5962,-664.6083 1819.167,-670.2065 1823.6281,-665.1717 1818.6599,-665.7352 1818.6599,-665.7352 1818.6599,-665.7352 1823.6281,-665.1717 1818.1528,-661.2638 1828.5962,-664.6083 1828.5962,-664.6083"/>
</g>
<!-- Backhand shot -->
<g id="node18" class="node has&#45;pronunciation">
<title>Backhand shot</title>
<g id="a_node18"><a xlink:href="../backhand-shot.html" xlink:title="С неудобной" target="_top">
<ellipse fill="none" stroke="#c0c0c0" stroke-width=".2" cx="1487.5432" cy="-1089.7454" rx="75.8212" ry="75.8212"/>
<text text-anchor="middle" x="1487.5432" y="-1103.2454" font-family="Times,serif" font-size="15.00" fill="#000000">Backhand shot</text>
<text text-anchor="middle" x="1487.5432" y="-1086.2454" font-family="Times,serif" font-size="15.00" fill="#000000">С неудобной</text>
<text text-anchor="middle" x="1487.5432" y="-1069.2454" font-family="Times,serif" font-size="15.00" fill="#000000">ˈБэкˌхэнд шат</text>
</a>
</g>
</g>
<!-- Shot&#45;&gt;Backhand shot -->
<g id="edge31" class="edge">
<title>Shot&#45;&gt;Backhand shot</title>
<path fill="none" stroke="#000000" stroke-dasharray="5,2" d="M1324.4981,-784.7268C1357.923,-847.2567 1410.6634,-945.9216 1447.0641,-1014.0187"/>
<polygon fill="#000000" stroke="#000000" points="1451.8651,-1023 1443.1822,-1016.3023 1449.5079,-1018.5905 1447.1508,-1014.1809 1447.1508,-1014.1809 1447.1508,-1014.1809 1449.5079,-1018.5905 1451.1194,-1012.0595 1451.8651,-1023 1451.8651,-1023"/>
</g>
<!-- One&#45;timer -->
<g id="node19" class="node has&#45;pronunciation">
<title>One&#45;timer</title>
<g id="a_node19"><a xlink:href="../one-timer.html" xlink:title="В одно касание" target="_top">
<ellipse fill="none" stroke="#c0c0c0" stroke-width=".2" cx="1153.7821" cy="-1110.1797" rx="79.8063" ry="79.8063"/>
<text text-anchor="middle" x="1153.7821" y="-1123.6797" font-family="Times,serif" font-size="15.00" fill="#000000">One&#45;timer</text>
<text text-anchor="middle" x="1153.7821" y="-1106.6797" font-family="Times,serif" font-size="15.00" fill="#000000">В одно касание</text>
<text text-anchor="middle" x="1153.7821" y="-1089.6797" font-family="Times,serif" font-size="15.00" fill="#000000">Уан&#45;ˈтаймэр</text>
</a>
</g>
</g>
<!-- Shot&#45;&gt;One&#45;timer -->
<g id="edge33" class="edge">
<title>Shot&#45;&gt;One&#45;timer</title>
<path fill="none" stroke="#000000" stroke-dasharray="5,2" d="M1269.8199,-788.9162C1246.4654,-853.5759 1210.1316,-954.17 1184.3496,-1025.5503"/>
<polygon fill="#000000" stroke="#000000" points="1180.9429,-1034.9822 1180.1077,-1024.0482 1182.6415,-1030.2796 1184.34,-1025.5769 1184.34,-1025.5769 1184.34,-1025.5769 1182.6415,-1030.2796 1188.5724,-1027.1057 1180.9429,-1034.9822 1180.9429,-1034.9822"/>
</g>
<!-- Snap shot&#45;&gt;Wrist shot -->
<g id="edge29" class="edge">
<title>Snap shot&#45;&gt;Wrist shot</title>
<path fill="none" stroke="#000000" stroke-dasharray="5,2" d="M1874.5098,-734.5526C1848.1658,-780.995 1815.6186,-838.3731 1791.7643,-880.4262"/>
<polygon fill="#000000" stroke="#000000" points="1786.8114,-889.1578 1787.8312,-878.2394 1789.2784,-884.8087 1791.7454,-880.4597 1791.7454,-880.4597 1791.7454,-880.4597 1789.2784,-884.8087 1795.6595,-882.68 1786.8114,-889.1578 1786.8114,-889.1578"/>
</g>
<!-- Snap shot&#45;&gt;Slapshot -->
<g id="edge30" class="edge">
<title>Snap shot&#45;&gt;Slapshot</title>
<path fill="none" stroke="#000000" stroke-dasharray="5,2" d="M1889.3989,-567.3574C1880.6994,-542.7149 1871.4419,-516.4921 1863.5048,-494.0093"/>
<polygon fill="#000000" stroke="#000000" points="1860.0739,-484.2911 1867.6463,-492.2226 1861.7384,-489.0059 1863.403,-493.7207 1863.403,-493.7207 1863.403,-493.7207 1861.7384,-489.0059 1859.1596,-495.2188 1860.0739,-484.2911 1860.0739,-484.2911"/>
</g>
<!-- Backhand shot&#45;&gt;Wrist shot -->
<g id="edge32" class="edge">
<title>Backhand shot&#45;&gt;Wrist shot</title>
<path fill="none" stroke="#000000" stroke-dasharray="5,2" d="M1553.9062,-1052.7454C1598.7181,-1027.7611 1657.3199,-995.0883 1700.3717,-971.0853"/>
<polygon fill="#000000" stroke="#000000" points="1709.3119,-966.1008 1702.7691,-974.9009 1704.9448,-968.5356 1700.5777,-970.9705 1700.5777,-970.9705 1700.5777,-970.9705 1704.9448,-968.5356 1698.3863,-967.0401 1709.3119,-966.1008 1709.3119,-966.1008"/>
</g>
<!-- Hockey -->
<g id="node20" class="node root has&#45;pronunciation">
<title>Hockey</title>
<g id="a_node20"><a xlink:href="../hockey.html" xlink:title="Хоккей" target="_top">
<ellipse fill="none" stroke="#c0c0c0" stroke-width=".2" cx="787.6936" cy="-553.8271" rx="45.011" ry="45.011"/>
<text text-anchor="middle" x="787.6936" y="-567.3271" font-family="Times,serif" font-size="15.00" fill="#000000">Hockey</text>
<text text-anchor="middle" x="787.6936" y="-550.3271" font-family="Times,serif" font-size="15.00" fill="#000000">Хоккей</text>
<text text-anchor="middle" x="787.6936" y="-533.3271" font-family="Times,serif" font-size="15.00" fill="#000000">ˈХаки</text>
</a>
</g>
</g>
<!-- Hockey&#45;&gt;Team -->
<g id="edge34" class="edge">
<title>Hockey&#45;&gt;Team</title>
<path fill="none" stroke="#000000" stroke-dasharray="5,2" d="M746.0372,-536.0301C651.6047,-495.6854 421.1382,-397.2224 313.6996,-351.3211"/>
<polygon fill="#000000" stroke="#000000" points="304.3151,-347.3117 315.279,-347.1024 308.9131,-349.2761 313.511,-351.2406 313.511,-351.2406 313.511,-351.2406 308.9131,-349.2761 311.743,-355.3787 304.3151,-347.3117 304.3151,-347.3117"/>
</g>
<!-- Hockey&#45;&gt;Player -->
<g id="edge37" class="edge">
<title>Hockey&#45;&gt;Player</title>
<path fill="none" stroke="#000000" stroke-dasharray="5,2" d="M765.1671,-514.1095C754.8812,-495.974 742.593,-474.3079 731.7119,-455.1229"/>
<polygon fill="#000000" stroke="#000000" points="726.6616,-446.2185 735.5094,-452.6968 729.1284,-450.5677 731.5951,-454.9169 731.5951,-454.9169 731.5951,-454.9169 729.1284,-450.5677 727.6808,-457.1369 726.6616,-446.2185 726.6616,-446.2185"/>
</g>
<!-- Hockey&#45;&gt;Goal net -->
<g id="edge40" class="edge">
<title>Hockey&#45;&gt;Goal net</title>
<path fill="none" stroke="#000000" stroke-dasharray="5,2" d="M755.4353,-585.7922C728.8358,-612.1499 690.3101,-650.3255 657.6744,-682.6646"/>
<polygon fill="#000000" stroke="#000000" points="650.3784,-689.8942 654.3143,-679.659 653.9301,-686.3749 657.4817,-682.8555 657.4817,-682.8555 657.4817,-682.8555 653.9301,-686.3749 660.6492,-686.052 650.3784,-689.8942 650.3784,-689.8942"/>
</g>
<!-- Hockey&#45;&gt;Stick -->
<g id="edge38" class="edge">
<title>Hockey&#45;&gt;Stick</title>
<path fill="none" stroke="#000000" stroke-dasharray="5,2" d="M833.1869,-551.2804C935.2358,-545.5678 1182.3535,-531.7342 1296.1605,-525.3633"/>
<polygon fill="#000000" stroke="#000000" points="1306.4209,-524.7889 1296.6881,-529.8409 1301.4287,-525.0684 1296.4365,-525.3479 1296.4365,-525.3479 1296.4365,-525.3479 1301.4287,-525.0684 1296.185,-520.8549 1306.4209,-524.7889 1306.4209,-524.7889"/>
</g>
<!-- Hockey&#45;&gt;Puck -->
<g id="edge39" class="edge">
<title>Hockey&#45;&gt;Puck</title>
<path fill="none" stroke="#000000" stroke-dasharray="5,2" d="M810.0291,-593.518C830.6675,-630.1929 861.721,-685.3759 886.0433,-728.5974"/>
<polygon fill="#000000" stroke="#000000" points="890.9688,-737.3502 882.1429,-730.8422 888.5167,-732.9928 886.0646,-728.6353 886.0646,-728.6353 886.0646,-728.6353 888.5167,-732.9928 889.9863,-726.4284 890.9688,-737.3502 890.9688,-737.3502"/>
</g>
<!-- Hockey&#45;&gt;Sport -->
<g id="edge35" class="edge">
<title>Hockey&#45;&gt;Sport</title>
<path fill="none" stroke="#000000" stroke-dasharray="5,2" d="M754.4508,-522.8941C730.3977,-500.2355 697.3356,-468.5156 669.3318,-439.5767 591.4036,-359.0465 504.3258,-260.4971 458.1975,-207.5693"/>
<polygon fill="#000000" stroke="#000000" points="451.4241,-199.7875 461.3839,-204.3759 454.7068,-203.5589 457.9896,-207.3304 457.9896,-207.3304 457.9896,-207.3304 454.7068,-203.5589 454.5953,-210.2848 451.4241,-199.7875 451.4241,-199.7875"/>
</g>
<!-- Hockey&#45;&gt;Goal -->
<g id="edge41" class="edge">
<title>Hockey&#45;&gt;Goal</title>
<path fill="none" stroke="#000000" stroke-dasharray="5,2" d="M829.6058,-536.562C874.4737,-518.0793 946.4099,-488.4463 999.8552,-466.4303"/>
<polygon fill="#000000" stroke="#000000" points="1009.2721,-462.5511 1001.7399,-470.5208 1004.649,-464.4556 1000.0259,-466.36 1000.0259,-466.36 1000.0259,-466.36 1004.649,-464.4556 998.3119,-462.1992 1009.2721,-462.5511 1009.2721,-462.5511"/>
</g>
<!-- Hockey&#45;&gt;Shot -->
<g id="edge36" class="edge">
<title>Hockey&#45;&gt;Shot</title>
<path fill="none" stroke="#000000" stroke-dasharray="5,2" d="M830.7562,-568.4531C917.0447,-597.7603 1112,-663.9755 1219.0189,-700.3238"/>
<polygon fill="#000000" stroke="#000000" points="1228.7787,-703.6386 1217.8627,-704.6835 1224.0443,-702.0306 1219.31,-700.4226 1219.31,-700.4226 1219.31,-700.4226 1224.0443,-702.0306 1220.7572,-696.1616 1228.7787,-703.6386 1228.7787,-703.6386"/>
</g>
</g>
</svg>
