<?xml version="1.0" encoding="UTF-8" standalone="no"?>
<?xml-stylesheet href="../static/svg.css" type="text/css"?>
<!DOCTYPE svg PUBLIC "-//W3C//DTD SVG 1.1//EN"
 "http://www.w3.org/Graphics/SVG/1.1/DTD/svg11.dtd">
<!-- Generated by graphviz version 2.40.1 (20161225.0304)
 -->
<!-- Title: term Pages: 1 -->
<svg width="411pt" height="280pt"
 viewBox="0.00 0.00 410.50 280.46" xmlns="http://www.w3.org/2000/svg" xmlns:xlink="http://www.w3.org/1999/xlink">
<g id="graph0" class="graph" transform="scale(1 1) rotate(0) translate(4 276.4579)">
<title>term</title>
<!-- Backhand shot -->
<g id="node1" class="node root has&#45;pronunciation">
<title>Backhand shot</title>
<g id="a_node1"><a xlink:href="javascript:history.back()" xlink:title="С неудобной" target="_top">
<ellipse fill="none" stroke="#c0c0c0" stroke-width=".2" cx="75.6604" cy="-196.7975" rx="75.8212" ry="75.8212"/>
<text text-anchor="middle" x="75.6604" y="-210.2975" font-family="Times,serif" font-size="15.00" fill="#000000">Backhand shot</text>
<text text-anchor="middle" x="75.6604" y="-193.2975" font-family="Times,serif" font-size="15.00" fill="#000000">С неудобной</text>
<text text-anchor="middle" x="75.6604" y="-176.2975" font-family="Times,serif" font-size="15.00" fill="#000000">ˈБэкˌхэнд шат</text>
</a>
</g>
</g>
<!-- Wrist shot -->
<g id="node3" class="node has&#45;pronunciation">
<title>Wrist shot</title>
<g id="a_node3"><a xlink:href="../wrist-shot.html" xlink:title="Кистевой" target="_top">
<ellipse fill="none" stroke="#c0c0c0" stroke-width=".2" cx="207.2521" cy="-56.5685" rx="56.6372" ry="56.6372"/>
<text text-anchor="middle" x="207.2521" y="-70.0685" font-family="Times,serif" font-size="15.00" fill="#000000">Wrist shot</text>
<text text-anchor="middle" x="207.2521" y="-53.0685" font-family="Times,serif" font-size="15.00" fill="#000000">Кистевой</text>
<text text-anchor="middle" x="207.2521" y="-36.0685" font-family="Times,serif" font-size="15.00" fill="#000000">Рист шат</text>
</a>
</g>
</g>
<!-- Backhand shot&#45;&gt;Wrist shot -->
<g id="edge3" class="edge">
<title>Backhand shot&#45;&gt;Wrist shot</title>
<path fill="none" stroke="#000000" stroke-dasharray="5,2" d="M127.669,-141.3753C138.748,-129.569 150.3732,-117.1808 161.2103,-105.6324"/>
<polygon fill="#000000" stroke="#000000" points="168.2044,-98.1793 164.6429,-108.5507 164.7829,-101.8253 161.3614,-105.4714 161.3614,-105.4714 161.3614,-105.4714 164.7829,-101.8253 158.08,-102.392 168.2044,-98.1793 168.2044,-98.1793"/>
</g>
<!-- Shot -->
<g id="node2" class="node has&#45;pronunciation">
<title>Shot</title>
<g id="a_node2"><a xlink:href="../shot.html" xlink:title="Бросок" target="_top">
<ellipse fill="none" stroke="#c0c0c0" stroke-width=".2" cx="335.3273" cy="-197.8703" rx="67.3507" ry="67.3507"/>
<text text-anchor="middle" x="335.3273" y="-219.8703" font-family="Times,serif" font-size="25.00" fill="#000000">Shot</text>
<text text-anchor="middle" x="335.3273" y="-191.8703" font-family="Times,serif" font-size="25.00" fill="#000000">Бросок</text>
<text text-anchor="middle" x="335.3273" y="-163.8703" font-family="Times,serif" font-size="25.00" fill="#000000">Шат</text>
</a>
</g>
</g>
<!-- Shot&#45;&gt;Backhand shot -->
<g id="edge2" class="edge">
<title>Shot&#45;&gt;Backhand shot</title>
<path fill="none" stroke="#000000" stroke-dasharray="5,2" d="M268.1189,-197.5926C235.7046,-197.4587 196.4422,-197.2965 161.8553,-197.1536"/>
<polygon fill="#000000" stroke="#000000" points="151.7606,-197.1119 161.7791,-192.6534 156.7605,-197.1326 161.7605,-197.1533 161.7605,-197.1533 161.7605,-197.1533 156.7605,-197.1326 161.7418,-201.6533 151.7606,-197.1119 151.7606,-197.1119"/>
</g>
<!-- Shot&#45;&gt;Wrist shot -->
<g id="edge1" class="edge">
<title>Shot&#45;&gt;Wrist shot</title>
<path fill="none" stroke="#000000" stroke-dasharray="5,2" d="M290.1728,-148.0526C278.0117,-134.6356 264.8529,-120.1178 252.6772,-106.6847"/>
<polygon fill="#000000" stroke="#000000" points="245.6369,-98.9173 255.6869,-103.3046 248.9948,-102.622 252.3527,-106.3267 252.3527,-106.3267 252.3527,-106.3267 248.9948,-102.622 249.0185,-109.3488 245.6369,-98.9173 245.6369,-98.9173"/>
</g>
</g>
</svg>
