<?xml version="1.0" encoding="UTF-8" standalone="no"?>
<?xml-stylesheet href="../static/svg.css" type="text/css"?>
<!DOCTYPE svg PUBLIC "-//W3C//DTD SVG 1.1//EN"
 "http://www.w3.org/Graphics/SVG/1.1/DTD/svg11.dtd">
<!-- Generated by graphviz version 2.40.1 (20161225.0304)
 -->
<!-- Title: term Pages: 1 -->
<svg width="882pt" height="554pt"
 viewBox="0.00 0.00 882.23 554.13" xmlns="http://www.w3.org/2000/svg" xmlns:xlink="http://www.w3.org/1999/xlink">
<g id="graph0" class="graph" transform="scale(1 1) rotate(0) translate(4 550.1304)">
<title>term</title>
<!-- Player -->
<g id="node1" class="node root has&#45;pronunciation">
<title>Player</title>
<g id="a_node1"><a xlink:href="javascript:history.back()" xlink:title="Игрок" target="_top">
<ellipse fill="none" stroke="#c0c0c0" stroke-width=".2" cx="386.5554" cy="-307.9031" rx="46.8387" ry="46.8387"/>
<text text-anchor="middle" x="386.5554" y="-321.4031" font-family="Times,serif" font-size="15.00" fill="#000000">Player</text>
<text text-anchor="middle" x="386.5554" y="-304.4031" font-family="Times,serif" font-size="15.00" fill="#000000">Игрок</text>
<text text-anchor="middle" x="386.5554" y="-287.4031" font-family="Times,serif" font-size="15.00" fill="#000000">&#39;Плейэр</text>
</a>
</g>
</g>
<!-- Goal -->
<g id="node6" class="node has&#45;pronunciation">
<title>Goal</title>
<g id="a_node6"><a xlink:href="../goal.html" xlink:title="Гол" target="_top">
<ellipse fill="none" stroke="#c0c0c0" stroke-width=".2" cx="502.1613" cy="-481.0766" rx="65.1077" ry="65.1077"/>
<text text-anchor="middle" x="502.1613" y="-503.0766" font-family="Times,serif" font-size="25.00" fill="#000000">Goal</text>
<text text-anchor="middle" x="502.1613" y="-475.0766" font-family="Times,serif" font-size="25.00" fill="#000000">Гол</text>
<text text-anchor="middle" x="502.1613" y="-447.0766" font-family="Times,serif" font-size="25.00" fill="#000000">Гoул</text>
</a>
</g>
</g>
<!-- Player&#45;&gt;Goal -->
<g id="edge14" class="edge">
<title>Player&#45;&gt;Goal</title>
<path fill="none" stroke="#000000" stroke-dasharray="5,2" d="M412.4997,-346.7666C426.613,-367.9079 444.4114,-394.5692 460.4233,-418.5545"/>
<polygon fill="#000000" stroke="#000000" points="466.0034,-426.9133 456.7085,-421.0948 463.2273,-422.7548 460.4511,-418.5963 460.4511,-418.5963 460.4511,-418.5963 463.2273,-422.7548 464.1938,-416.0977 466.0034,-426.9133 466.0034,-426.9133"/>
</g>
<!-- Sport -->
<g id="node7" class="node">
<title>Sport</title>
<g id="a_node7"><a xlink:href="../sport.html" xlink:title="Спорт" target="_top">
<ellipse fill="none" stroke="#c0c0c0" stroke-width=".2" cx="39.598" cy="-234.7792" rx="39.6962" ry="39.6962"/>
<text text-anchor="middle" x="39.598" y="-239.7792" font-family="Times,serif" font-size="15.00" fill="#000000">Sport</text>
<text text-anchor="middle" x="39.598" y="-222.7792" font-family="Times,serif" font-size="15.00" fill="#000000">Спорт</text>
</a>
</g>
</g>
<!-- Player&#45;&gt;Sport -->
<g id="edge15" class="edge">
<title>Player&#45;&gt;Sport</title>
<path fill="none" stroke="#000000" stroke-dasharray="5,2" d="M340.84,-298.2682C275.38,-284.4721 155.4592,-259.1978 88.3571,-245.0556"/>
<polygon fill="#000000" stroke="#000000" points="78.4552,-242.9687 89.1683,-240.6278 83.3477,-243.9999 88.2403,-245.031 88.2403,-245.031 88.2403,-245.031 83.3477,-243.9999 87.3122,-249.4343 78.4552,-242.9687 78.4552,-242.9687"/>
</g>
<!-- Shot -->
<g id="node8" class="node has&#45;pronunciation">
<title>Shot</title>
<g id="a_node8"><a xlink:href="../shot.html" xlink:title="Бросок" target="_top">
<ellipse fill="none" stroke="#c0c0c0" stroke-width=".2" cx="807.0566" cy="-392.3333" rx="67.3507" ry="67.3507"/>
<text text-anchor="middle" x="807.0566" y="-414.3333" font-family="Times,serif" font-size="25.00" fill="#000000">Shot</text>
<text text-anchor="middle" x="807.0566" y="-386.3333" font-family="Times,serif" font-size="25.00" fill="#000000">Бросок</text>
<text text-anchor="middle" x="807.0566" y="-358.3333" font-family="Times,serif" font-size="25.00" fill="#000000">Шат</text>
</a>
</g>
</g>
<!-- Player&#45;&gt;Shot -->
<g id="edge16" class="edge">
<title>Player&#45;&gt;Shot</title>
<path fill="none" stroke="#000000" stroke-dasharray="5,2" d="M432.3569,-317.0993C504.1959,-331.5235 644.1343,-359.621 731.1804,-377.0985"/>
<polygon fill="#000000" stroke="#000000" points="741.0019,-379.0706 730.3117,-381.5139 736.0998,-378.0862 731.1976,-377.1019 731.1976,-377.1019 731.1976,-377.1019 736.0998,-378.0862 732.0835,-372.69 741.0019,-379.0706 741.0019,-379.0706"/>
</g>
<!-- Team -->
<g id="node2" class="node has&#45;pronunciation">
<title>Team</title>
<g id="a_node2"><a xlink:href="../team.html" xlink:title="Команда" target="_top">
<ellipse fill="none" stroke="#c0c0c0" stroke-width=".2" cx="250.9826" cy="-164.5104" rx="51.7379" ry="51.7379"/>
<text text-anchor="middle" x="250.9826" y="-178.0104" font-family="Times,serif" font-size="15.00" fill="#000000">Team</text>
<text text-anchor="middle" x="250.9826" y="-161.0104" font-family="Times,serif" font-size="15.00" fill="#000000">Команда</text>
<text text-anchor="middle" x="250.9826" y="-144.0104" font-family="Times,serif" font-size="15.00" fill="#000000">Тим</text>
</a>
</g>
</g>
<!-- Team&#45;&gt;Player -->
<g id="edge10" class="edge">
<title>Team&#45;&gt;Player</title>
<path fill="none" stroke="#000000" stroke-dasharray="5,2" d="M286.6028,-202.1851C305.3285,-221.991 328.3176,-246.306 347.5253,-266.6217"/>
<polygon fill="#000000" stroke="#000000" points="354.4158,-273.9097 344.2757,-269.7348 350.9807,-270.2764 347.5456,-266.6432 347.5456,-266.6432 347.5456,-266.6432 350.9807,-270.2764 350.8155,-263.5516 354.4158,-273.9097 354.4158,-273.9097"/>
</g>
<!-- Team&#45;&gt;Sport -->
<g id="edge1" class="edge">
<title>Team&#45;&gt;Sport</title>
<path fill="none" stroke="#000000" stroke-dasharray="5,2" d="M201.9554,-180.8081C167.4327,-192.2842 121.4584,-207.567 87.2462,-218.9399"/>
<polygon fill="#000000" stroke="#000000" points="77.4808,-222.1862 85.5507,-214.7614 82.2255,-220.6089 86.9702,-219.0316 86.9702,-219.0316 86.9702,-219.0316 82.2255,-220.6089 88.3898,-223.3018 77.4808,-222.1862 77.4808,-222.1862"/>
</g>
<!-- Opponent -->
<g id="node3" class="node has&#45;pronunciation">
<title>Opponent</title>
<g id="a_node3"><a xlink:href="../opponent.html" xlink:title="Противник" target="_top">
<ellipse fill="none" stroke="#c0c0c0" stroke-width=".2" cx="530.6197" cy="-60.8112" rx="60.623" ry="60.623"/>
<text text-anchor="middle" x="530.6197" y="-74.3112" font-family="Times,serif" font-size="15.00" fill="#000000">Opponent</text>
<text text-anchor="middle" x="530.6197" y="-57.3112" font-family="Times,serif" font-size="15.00" fill="#000000">Противник</text>
<text text-anchor="middle" x="530.6197" y="-40.3112" font-family="Times,serif" font-size="15.00" fill="#000000">Эˈпoунэнт</text>
</a>
</g>
</g>
<!-- Opponent&#45;&gt;Player -->
<g id="edge11" class="edge">
<title>Opponent&#45;&gt;Player</title>
<path fill="none" stroke="#000000" stroke-dasharray="5,2" d="M499.891,-113.5155C474.8175,-156.5204 439.6594,-216.8218 415.1748,-258.8166"/>
<polygon fill="#000000" stroke="#000000" points="410.1195,-267.4871 411.2689,-256.5816 412.638,-263.1676 415.1564,-258.8482 415.1564,-258.8482 415.1564,-258.8482 412.638,-263.1676 419.0439,-261.1148 410.1195,-267.4871 410.1195,-267.4871"/>
</g>
<!-- Opponent&#45;&gt;Team -->
<g id="edge2" class="edge">
<title>Opponent&#45;&gt;Team</title>
<path fill="none" stroke="#000000" stroke-dasharray="5,2" d="M473.3561,-82.0465C425.5196,-99.786 357.5966,-124.9742 309.4319,-142.8353"/>
<polygon fill="#000000" stroke="#000000" points="299.7716,-146.4177 307.583,-138.7214 304.4596,-144.6792 309.1477,-142.9407 309.1477,-142.9407 309.1477,-142.9407 304.4596,-144.6792 310.7123,-147.1599 299.7716,-146.4177 299.7716,-146.4177"/>
</g>
<!-- Point -->
<g id="node4" class="node has&#45;pronunciation">
<title>Point</title>
<g id="a_node4"><a xlink:href="../point.html" xlink:title="Очко" target="_top">
<ellipse fill="none" stroke="#c0c0c0" stroke-width=".2" cx="120.2895" cy="-423.1116" rx="41.9398" ry="41.9398"/>
<text text-anchor="middle" x="120.2895" y="-436.6116" font-family="Times,serif" font-size="15.00" fill="#000000">Point</text>
<text text-anchor="middle" x="120.2895" y="-419.6116" font-family="Times,serif" font-size="15.00" fill="#000000">Очко</text>
<text text-anchor="middle" x="120.2895" y="-402.6116" font-family="Times,serif" font-size="15.00" fill="#000000">Пойнт</text>
</a>
</g>
</g>
<!-- Point&#45;&gt;Player -->
<g id="edge12" class="edge">
<title>Point&#45;&gt;Player</title>
<path fill="none" stroke="#000000" stroke-dasharray="5,2" d="M158.7225,-406.4824C204.9551,-386.4783 282.7781,-352.8057 334.4028,-330.4686"/>
<polygon fill="#000000" stroke="#000000" points="343.7238,-326.4356 336.3331,-334.5367 339.135,-328.4211 334.5461,-330.4067 334.5461,-330.4067 334.5461,-330.4067 339.135,-328.4211 332.7591,-326.2767 343.7238,-326.4356 343.7238,-326.4356"/>
</g>
<!-- Point&#45;&gt;Team -->
<g id="edge4" class="edge">
<title>Point&#45;&gt;Team</title>
<path fill="none" stroke="#000000" stroke-dasharray="5,2" d="M139.1538,-385.785C161.1145,-342.3317 197.5966,-270.1448 222.8928,-220.0915"/>
<polygon fill="#000000" stroke="#000000" points="227.4799,-211.0149 226.9856,-221.9696 225.2246,-215.4774 222.9693,-219.9399 222.9693,-219.9399 222.9693,-219.9399 225.2246,-215.4774 218.9531,-217.9101 227.4799,-211.0149 227.4799,-211.0149"/>
</g>
<!-- Point&#45;&gt;Goal -->
<g id="edge3" class="edge">
<title>Point&#45;&gt;Goal</title>
<path fill="none" stroke="#000000" stroke-dasharray="5,2" d="M161.8834,-429.4252C225.6533,-439.105 348.5118,-457.7539 427.8415,-469.7954"/>
<polygon fill="#000000" stroke="#000000" points="437.7733,-471.303 427.2112,-474.2512 432.83,-470.5526 427.8866,-469.8022 427.8866,-469.8022 427.8866,-469.8022 432.83,-470.5526 428.5619,-465.3532 437.7733,-471.303 437.7733,-471.303"/>
</g>
<!-- Hockey -->
<g id="node5" class="node has&#45;pronunciation">
<title>Hockey</title>
<g id="a_node5"><a xlink:href="../hockey.html" xlink:title="Хоккей" target="_top">
<ellipse fill="none" stroke="#c0c0c0" stroke-width=".2" cx="581.0015" cy="-262.6078" rx="45.011" ry="45.011"/>
<text text-anchor="middle" x="581.0015" y="-276.1078" font-family="Times,serif" font-size="15.00" fill="#000000">Hockey</text>
<text text-anchor="middle" x="581.0015" y="-259.1078" font-family="Times,serif" font-size="15.00" fill="#000000">Хоккей</text>
<text text-anchor="middle" x="581.0015" y="-242.1078" font-family="Times,serif" font-size="15.00" fill="#000000">ˈХаки</text>
</a>
</g>
</g>
<!-- Hockey&#45;&gt;Player -->
<g id="edge13" class="edge">
<title>Hockey&#45;&gt;Player</title>
<path fill="none" stroke="#000000" stroke-dasharray="5,2" d="M536.8786,-272.886C508.7917,-279.4288 472.1757,-287.9583 442.1141,-294.961"/>
<polygon fill="#000000" stroke="#000000" points="432.1924,-297.2722 440.9107,-290.6207 437.062,-296.1378 441.9316,-295.0034 441.9316,-295.0034 441.9316,-295.0034 437.062,-296.1378 442.9526,-299.3861 432.1924,-297.2722 432.1924,-297.2722"/>
</g>
<!-- Hockey&#45;&gt;Team -->
<g id="edge5" class="edge">
<title>Hockey&#45;&gt;Team</title>
<path fill="none" stroke="#000000" stroke-dasharray="5,2" d="M537.5179,-249.6824C479.2493,-232.3622 375.6136,-201.5567 310.2424,-182.1252"/>
<polygon fill="#000000" stroke="#000000" points="300.4888,-179.226 311.3565,-177.7618 305.2815,-180.6506 310.0743,-182.0753 310.0743,-182.0753 310.0743,-182.0753 305.2815,-180.6506 308.792,-186.3888 300.4888,-179.226 300.4888,-179.226"/>
</g>
<!-- Hockey&#45;&gt;Goal -->
<g id="edge8" class="edge">
<title>Hockey&#45;&gt;Goal</title>
<path fill="none" stroke="#000000" stroke-dasharray="5,2" d="M565.6131,-305.2494C554.8813,-334.9878 540.3067,-375.3744 527.8322,-409.9417"/>
<polygon fill="#000000" stroke="#000000" points="524.3743,-419.5235 523.5361,-408.5897 526.0716,-414.8203 527.7689,-410.1172 527.7689,-410.1172 527.7689,-410.1172 526.0716,-414.8203 532.0017,-411.6448 524.3743,-419.5235 524.3743,-419.5235"/>
</g>
<!-- Hockey&#45;&gt;Sport -->
<g id="edge6" class="edge">
<title>Hockey&#45;&gt;Sport</title>
<path fill="none" stroke="#000000" stroke-dasharray="5,2" d="M535.7729,-260.2831C435.3015,-255.1187 194.1667,-242.7242 89.4931,-237.3439"/>
<polygon fill="#000000" stroke="#000000" points="79.5005,-236.8303 89.7184,-232.8496 84.4939,-237.087 89.4873,-237.3437 89.4873,-237.3437 89.4873,-237.3437 84.4939,-237.087 89.2563,-241.8378 79.5005,-236.8303 79.5005,-236.8303"/>
</g>
<!-- Hockey&#45;&gt;Shot -->
<g id="edge7" class="edge">
<title>Hockey&#45;&gt;Shot</title>
<path fill="none" stroke="#000000" stroke-dasharray="5,2" d="M620.3773,-285.2043C653.3059,-304.101 701.0067,-331.4748 739.9467,-353.8212"/>
<polygon fill="#000000" stroke="#000000" points="748.6213,-358.7993 737.7082,-357.7249 744.2847,-356.3106 739.948,-353.8219 739.948,-353.8219 739.948,-353.8219 744.2847,-356.3106 742.1878,-349.9189 748.6213,-358.7993 748.6213,-358.7993"/>
</g>
<!-- Shot&#45;&gt;Goal -->
<g id="edge9" class="edge">
<title>Shot&#45;&gt;Goal</title>
<path fill="none" stroke="#000000" stroke-dasharray="5,2" d="M742.3961,-411.1535C693.1303,-425.4929 625.3094,-445.2329 574.2891,-460.083"/>
<polygon fill="#000000" stroke="#000000" points="564.6432,-462.8905 572.9872,-455.7751 569.444,-461.4931 574.2448,-460.0958 574.2448,-460.0958 574.2448,-460.0958 569.444,-461.4931 575.5024,-464.4165 564.6432,-462.8905 564.6432,-462.8905"/>
</g>
</g>
</svg>
