<?xml version="1.0" encoding="UTF-8" standalone="no"?>
<?xml-stylesheet href="../static/svg.css" type="text/css"?>
<!DOCTYPE svg PUBLIC "-//W3C//DTD SVG 1.1//EN"
 "http://www.w3.org/Graphics/SVG/1.1/DTD/svg11.dtd">
<!-- Generated by graphviz version 2.40.1 (20161225.0304)
 -->
<!-- Title: term Pages: 1 -->
<svg width="686pt" height="458pt"
 viewBox="0.00 0.00 685.65 458.26" xmlns="http://www.w3.org/2000/svg" xmlns:xlink="http://www.w3.org/1999/xlink">
<g id="graph0" class="graph" transform="scale(1 1) rotate(0) translate(4 454.2587)">
<title>term</title>
<!-- Opponent -->
<g id="node1" class="node root has&#45;pronunciation">
<title>Opponent</title>
<g id="a_node1"><a xlink:href="javascript:history.back()" xlink:title="Противник" target="_top">
<ellipse fill="none" stroke="#c0c0c0" stroke-width=".2" cx="293.8424" cy="-225.8841" rx="60.623" ry="60.623"/>
<text text-anchor="middle" x="293.8424" y="-239.3841" font-family="Times,serif" font-size="15.00" fill="#000000">Opponent</text>
<text text-anchor="middle" x="293.8424" y="-222.3841" font-family="Times,serif" font-size="15.00" fill="#000000">Противник</text>
<text text-anchor="middle" x="293.8424" y="-205.3841" font-family="Times,serif" font-size="15.00" fill="#000000">Эˈпoунэнт</text>
</a>
</g>
</g>
<!-- Team -->
<g id="node2" class="node has&#45;pronunciation">
<title>Team</title>
<g id="a_node2"><a xlink:href="../team.html" xlink:title="Команда" target="_top">
<ellipse fill="none" stroke="#c0c0c0" stroke-width=".2" cx="626.0311" cy="-157.1871" rx="51.7379" ry="51.7379"/>
<text text-anchor="middle" x="626.0311" y="-170.6871" font-family="Times,serif" font-size="15.00" fill="#000000">Team</text>
<text text-anchor="middle" x="626.0311" y="-153.6871" font-family="Times,serif" font-size="15.00" fill="#000000">Команда</text>
<text text-anchor="middle" x="626.0311" y="-136.6871" font-family="Times,serif" font-size="15.00" fill="#000000">Тим</text>
</a>
</g>
</g>
<!-- Opponent&#45;&gt;Team -->
<g id="edge2" class="edge">
<title>Opponent&#45;&gt;Team</title>
<path fill="none" stroke="#000000" stroke-dasharray="5,2" d="M353.6147,-213.5231C413.4753,-201.1439 505.1218,-182.1913 565.3142,-169.7435"/>
<polygon fill="#000000" stroke="#000000" points="575.4327,-167.6509 566.5513,-174.0829 570.5363,-168.6635 565.6399,-169.6762 565.6399,-169.6762 565.6399,-169.6762 570.5363,-168.6635 564.7286,-165.2694 575.4327,-167.6509 575.4327,-167.6509"/>
</g>
<!-- Player -->
<g id="node3" class="node has&#45;pronunciation">
<title>Player</title>
<g id="a_node3"><a xlink:href="../player.html" xlink:title="Игрок" target="_top">
<ellipse fill="none" stroke="#c0c0c0" stroke-width=".2" cx="347.6257" cy="-46.669" rx="46.8387" ry="46.8387"/>
<text text-anchor="middle" x="347.6257" y="-60.169" font-family="Times,serif" font-size="15.00" fill="#000000">Player</text>
<text text-anchor="middle" x="347.6257" y="-43.169" font-family="Times,serif" font-size="15.00" fill="#000000">Игрок</text>
<text text-anchor="middle" x="347.6257" y="-26.169" font-family="Times,serif" font-size="15.00" fill="#000000">&#39;Плейэр</text>
</a>
</g>
</g>
<!-- Opponent&#45;&gt;Player -->
<g id="edge3" class="edge">
<title>Opponent&#45;&gt;Player</title>
<path fill="none" stroke="#000000" stroke-dasharray="5,2" d="M311.4531,-167.2024C317.8268,-145.9638 324.9935,-122.0834 331.2562,-101.2151"/>
<polygon fill="#000000" stroke="#000000" points="334.1569,-91.5493 335.5925,-102.4208 332.7197,-96.3383 331.2824,-101.1273 331.2824,-101.1273 331.2824,-101.1273 332.7197,-96.3383 326.9723,-99.8338 334.1569,-91.5493 334.1569,-91.5493"/>
</g>
<!-- Goal net -->
<g id="node4" class="node has&#45;pronunciation">
<title>Goal net</title>
<g id="a_node4"><a xlink:href="../goal-net.html" xlink:title="Ворота" target="_top">
<ellipse fill="none" stroke="#c0c0c0" stroke-width=".2" cx="77.7817" cy="-372.477" rx="77.5641" ry="77.5641"/>
<text text-anchor="middle" x="77.7817" y="-394.477" font-family="Times,serif" font-size="25.00" fill="#000000">Goal net</text>
<text text-anchor="middle" x="77.7817" y="-366.477" font-family="Times,serif" font-size="25.00" fill="#000000">Ворота</text>
<text text-anchor="middle" x="77.7817" y="-338.477" font-family="Times,serif" font-size="25.00" fill="#000000">Гoул нет</text>
</a>
</g>
</g>
<!-- Opponent&#45;&gt;Goal net -->
<g id="edge4" class="edge">
<title>Opponent&#45;&gt;Goal net</title>
<path fill="none" stroke="#000000" stroke-dasharray="5,2" d="M243.4584,-260.0686C215.8754,-278.7832 181.2015,-302.3087 150.7124,-322.9949"/>
<polygon fill="#000000" stroke="#000000" points="142.2333,-328.7479 147.9819,-319.4095 146.3709,-325.9406 150.5084,-323.1333 150.5084,-323.1333 150.5084,-323.1333 146.3709,-325.9406 153.035,-326.8571 142.2333,-328.7479 142.2333,-328.7479"/>
</g>
<!-- Team&#45;&gt;Player -->
<g id="edge1" class="edge">
<title>Team&#45;&gt;Player</title>
<path fill="none" stroke="#000000" stroke-dasharray="5,2" d="M577.8544,-138.0625C528.436,-118.445 451.7618,-88.0078 400.647,-67.7168"/>
<polygon fill="#000000" stroke="#000000" points="391.0967,-63.9256 402.0515,-63.4328 395.7439,-65.7705 400.3911,-67.6153 400.3911,-67.6153 400.3911,-67.6153 395.7439,-65.7705 398.7308,-71.7978 391.0967,-63.9256 391.0967,-63.9256"/>
</g>
</g>
</svg>
