<?xml version="1.0" encoding="UTF-8" standalone="no"?>
<?xml-stylesheet href="../static/svg.css" type="text/css"?>
<!DOCTYPE svg PUBLIC "-//W3C//DTD SVG 1.1//EN"
 "http://www.w3.org/Graphics/SVG/1.1/DTD/svg11.dtd">
<!-- Generated by graphviz version 2.40.1 (20161225.0304)
 -->
<!-- Title: term Pages: 1 -->
<svg width="673pt" height="516pt"
 viewBox="0.00 0.00 673.26 515.89" xmlns="http://www.w3.org/2000/svg" xmlns:xlink="http://www.w3.org/1999/xlink">
<g id="graph0" class="graph" transform="scale(1 1) rotate(0) translate(4 511.8932)">
<title>term</title>
<!-- Wrist shot -->
<g id="node1" class="node root has&#45;pronunciation">
<title>Wrist shot</title>
<g id="a_node1"><a xlink:href="javascript:history.back()" xlink:title="Кистевой" target="_top">
<ellipse fill="none" stroke="#c0c0c0" stroke-width=".2" cx="56.5685" cy="-248.4163" rx="56.6372" ry="56.6372"/>
<text text-anchor="middle" x="56.5685" y="-261.9163" font-family="Times,serif" font-size="15.00" fill="#000000">Wrist shot</text>
<text text-anchor="middle" x="56.5685" y="-244.9163" font-family="Times,serif" font-size="15.00" fill="#000000">Кистевой</text>
<text text-anchor="middle" x="56.5685" y="-227.9163" font-family="Times,serif" font-size="15.00" fill="#000000">Рист шат</text>
</a>
</g>
</g>
<!-- Shot -->
<g id="node2" class="node has&#45;pronunciation">
<title>Shot</title>
<g id="a_node2"><a xlink:href="../shot.html" xlink:title="Бросок" target="_top">
<ellipse fill="none" stroke="#c0c0c0" stroke-width=".2" cx="598.0862" cy="-275.8241" rx="67.3507" ry="67.3507"/>
<text text-anchor="middle" x="598.0862" y="-297.8241" font-family="Times,serif" font-size="25.00" fill="#000000">Shot</text>
<text text-anchor="middle" x="598.0862" y="-269.8241" font-family="Times,serif" font-size="25.00" fill="#000000">Бросок</text>
<text text-anchor="middle" x="598.0862" y="-241.8241" font-family="Times,serif" font-size="25.00" fill="#000000">Шат</text>
</a>
</g>
</g>
<!-- Shot&#45;&gt;Wrist shot -->
<g id="edge3" class="edge">
<title>Shot&#45;&gt;Wrist shot</title>
<path fill="none" stroke="#000000" stroke-dasharray="5,2" d="M530.8701,-272.4221C426.704,-267.1499 227.4792,-257.0666 123.4916,-251.8035"/>
<polygon fill="#000000" stroke="#000000" points="113.4272,-251.2941 123.6419,-247.3054 118.4208,-251.5469 123.4144,-251.7997 123.4144,-251.7997 123.4144,-251.7997 118.4208,-251.5469 123.1869,-256.2939 113.4272,-251.2941 113.4272,-251.2941"/>
</g>
<!-- Snap shot -->
<g id="node3" class="node has&#45;pronunciation">
<title>Snap shot</title>
<g id="a_node3"><a xlink:href="../snap-shot.html" xlink:title="Короткий щелчок" target="_top">
<ellipse fill="none" stroke="#c0c0c0" stroke-width=".2" cx="401.522" cy="-91.9239" rx="91.8478" ry="91.8478"/>
<text text-anchor="middle" x="401.522" y="-105.4239" font-family="Times,serif" font-size="15.00" fill="#000000">Snap shot</text>
<text text-anchor="middle" x="401.522" y="-88.4239" font-family="Times,serif" font-size="15.00" fill="#000000">Короткий щелчок</text>
<text text-anchor="middle" x="401.522" y="-71.4239" font-family="Times,serif" font-size="15.00" fill="#000000">Снэп шат</text>
</a>
</g>
</g>
<!-- Shot&#45;&gt;Snap shot -->
<g id="edge1" class="edge">
<title>Shot&#45;&gt;Snap shot</title>
<path fill="none" stroke="#000000" stroke-dasharray="5,2" d="M548.9918,-229.8927C527.0416,-209.3567 500.6812,-184.6946 476.356,-161.9366"/>
<polygon fill="#000000" stroke="#000000" points="468.8793,-154.9416 479.256,-158.4874 472.5305,-158.3575 476.1817,-161.7735 476.1817,-161.7735 476.1817,-161.7735 472.5305,-158.3575 473.1073,-165.0596 468.8793,-154.9416 468.8793,-154.9416"/>
</g>
<!-- Backhand shot -->
<g id="node4" class="node has&#45;pronunciation">
<title>Backhand shot</title>
<g id="a_node4"><a xlink:href="../backhand-shot.html" xlink:title="С неудобной" target="_top">
<ellipse fill="none" stroke="#c0c0c0" stroke-width=".2" cx="251.2912" cy="-432.2328" rx="75.8212" ry="75.8212"/>
<text text-anchor="middle" x="251.2912" y="-445.7328" font-family="Times,serif" font-size="15.00" fill="#000000">Backhand shot</text>
<text text-anchor="middle" x="251.2912" y="-428.7328" font-family="Times,serif" font-size="15.00" fill="#000000">С неудобной</text>
<text text-anchor="middle" x="251.2912" y="-411.7328" font-family="Times,serif" font-size="15.00" fill="#000000">ˈБэкˌхэнд шат</text>
</a>
</g>
</g>
<!-- Shot&#45;&gt;Backhand shot -->
<g id="edge2" class="edge">
<title>Shot&#45;&gt;Backhand shot</title>
<path fill="none" stroke="#000000" stroke-dasharray="5,2" d="M536.4858,-303.6066C478.8162,-329.6163 392.3854,-368.5976 329.7937,-396.8272"/>
<polygon fill="#000000" stroke="#000000" points="320.3498,-401.0865 327.6155,-392.873 324.9077,-399.0308 329.4656,-396.9751 329.4656,-396.9751 329.4656,-396.9751 324.9077,-399.0308 331.3157,-401.0772 320.3498,-401.0865 320.3498,-401.0865"/>
</g>
<!-- Snap shot&#45;&gt;Wrist shot -->
<g id="edge4" class="edge">
<title>Snap shot&#45;&gt;Wrist shot</title>
<path fill="none" stroke="#000000" stroke-dasharray="5,2" d="M317.578,-130.0061C255.7428,-158.0584 173.0786,-195.5601 117.4906,-220.7783"/>
<polygon fill="#000000" stroke="#000000" points="108.1242,-225.0275 115.3717,-216.798 112.6775,-222.9617 117.2309,-220.896 117.2309,-220.896 117.2309,-220.896 112.6775,-222.9617 119.09,-224.994 108.1242,-225.0275 108.1242,-225.0275"/>
</g>
<!-- Backhand shot&#45;&gt;Wrist shot -->
<g id="edge5" class="edge">
<title>Backhand shot&#45;&gt;Wrist shot</title>
<path fill="none" stroke="#000000" stroke-dasharray="5,2" d="M196.2723,-380.2954C167.6941,-353.3178 133.071,-320.634 105.4428,-294.5532"/>
<polygon fill="#000000" stroke="#000000" points="97.8465,-287.3824 108.2074,-290.9746 101.4824,-290.8146 105.1183,-294.2469 105.1183,-294.2469 105.1183,-294.2469 101.4824,-290.8146 102.0293,-297.5192 97.8465,-287.3824 97.8465,-287.3824"/>
</g>
</g>
</svg>
