<?xml version="1.0" encoding="UTF-8" standalone="no"?>
<?xml-stylesheet href="../static/svg.css" type="text/css"?>
<!DOCTYPE svg PUBLIC "-//W3C//DTD SVG 1.1//EN"
 "http://www.w3.org/Graphics/SVG/1.1/DTD/svg11.dtd">
<!-- Generated by graphviz version 2.40.1 (20161225.0304)
 -->
<!-- Title: term Pages: 1 -->
<svg width="535pt" height="409pt"
 viewBox="0.00 0.00 535.44 408.83" xmlns="http://www.w3.org/2000/svg" xmlns:xlink="http://www.w3.org/1999/xlink">
<g id="graph0" class="graph" transform="scale(1 1) rotate(0) translate(4 404.8275)">
<title>term</title>
<!-- Rink -->
<g id="node1" class="node root has&#45;pronunciation">
<title>Rink</title>
<g id="a_node1"><a xlink:href="javascript:history.back()" xlink:title="Площадка" target="_top">
<ellipse fill="none" stroke="#c0c0c0" stroke-width=".2" cx="173.6806" cy="-179.9884" rx="57.0522" ry="57.0522"/>
<text text-anchor="middle" x="173.6806" y="-193.4884" font-family="Times,serif" font-size="15.00" fill="#000000">Rink</text>
<text text-anchor="middle" x="173.6806" y="-176.4884" font-family="Times,serif" font-size="15.00" fill="#000000">Площадка</text>
<text text-anchor="middle" x="173.6806" y="-159.4884" font-family="Times,serif" font-size="15.00" fill="#000000">Ринк</text>
</a>
</g>
</g>
<!-- Ice -->
<g id="node3" class="node has&#45;pronunciation">
<title>Ice</title>
<g id="a_node3"><a xlink:href="../ice.html" xlink:title="Лёд" target="_top">
<ellipse fill="none" stroke="#c0c0c0" stroke-width=".2" cx="41.7193" cy="-41.7193" rx="41.9398" ry="41.9398"/>
<text text-anchor="middle" x="41.7193" y="-55.2193" font-family="Times,serif" font-size="15.00" fill="#000000">Ice</text>
<text text-anchor="middle" x="41.7193" y="-38.2193" font-family="Times,serif" font-size="15.00" fill="#000000">Лёд</text>
<text text-anchor="middle" x="41.7193" y="-21.2193" font-family="Times,serif" font-size="15.00" fill="#000000">Айс</text>
</a>
</g>
</g>
<!-- Rink&#45;&gt;Ice -->
<g id="edge3" class="edge">
<title>Rink&#45;&gt;Ice</title>
<path fill="none" stroke="#000000" stroke-dasharray="5,2" d="M134.0879,-138.5031C116.2851,-119.8493 95.4137,-97.9803 78.019,-79.7542"/>
<polygon fill="#000000" stroke="#000000" points="70.7962,-72.186 80.9557,-76.3133 74.2482,-75.8031 77.7003,-79.4202 77.7003,-79.4202 77.7003,-79.4202 74.2482,-75.8031 74.4449,-82.5271 70.7962,-72.186 70.7962,-72.186"/>
</g>
<!-- Goal net -->
<g id="node4" class="node has&#45;pronunciation">
<title>Goal net</title>
<g id="a_node4"><a xlink:href="../goal-net.html" xlink:title="Ворота" target="_top">
<ellipse fill="none" stroke="#c0c0c0" stroke-width=".2" cx="108.6212" cy="-323.0458" rx="77.5641" ry="77.5641"/>
<text text-anchor="middle" x="108.6212" y="-345.0458" font-family="Times,serif" font-size="25.00" fill="#000000">Goal net</text>
<text text-anchor="middle" x="108.6212" y="-317.0458" font-family="Times,serif" font-size="25.00" fill="#000000">Ворота</text>
<text text-anchor="middle" x="108.6212" y="-289.0458" font-family="Times,serif" font-size="25.00" fill="#000000">Гoул нет</text>
</a>
</g>
</g>
<!-- Rink&#45;&gt;Goal net -->
<g id="edge4" class="edge">
<title>Rink&#45;&gt;Goal net</title>
<path fill="none" stroke="#000000" stroke-dasharray="5,2" d="M149.8243,-232.4453C148.283,-235.8344 146.7137,-239.2851 145.1317,-242.7639"/>
<polygon fill="#000000" stroke="#000000" points="140.9246,-252.0148 140.9681,-241.0489 142.9945,-247.4633 145.0644,-242.9119 145.0644,-242.9119 145.0644,-242.9119 142.9945,-247.4633 149.1607,-244.7748 140.9246,-252.0148 140.9246,-252.0148"/>
</g>
<!-- Hockey -->
<g id="node2" class="node has&#45;pronunciation">
<title>Hockey</title>
<g id="a_node2"><a xlink:href="../hockey.html" xlink:title="Хоккей" target="_top">
<ellipse fill="none" stroke="#c0c0c0" stroke-width=".2" cx="482.1873" cy="-273.5716" rx="45.011" ry="45.011"/>
<text text-anchor="middle" x="482.1873" y="-287.0716" font-family="Times,serif" font-size="15.00" fill="#000000">Hockey</text>
<text text-anchor="middle" x="482.1873" y="-270.0716" font-family="Times,serif" font-size="15.00" fill="#000000">Хоккей</text>
<text text-anchor="middle" x="482.1873" y="-253.0716" font-family="Times,serif" font-size="15.00" fill="#000000">ˈХаки</text>
</a>
</g>
</g>
<!-- Hockey&#45;&gt;Rink -->
<g id="edge2" class="edge">
<title>Hockey&#45;&gt;Rink</title>
<path fill="none" stroke="#000000" stroke-dasharray="5,2" d="M438.6402,-260.3619C386.4836,-244.5406 298.6374,-217.8931 238.4988,-199.6505"/>
<polygon fill="#000000" stroke="#000000" points="228.7236,-196.6852 239.5993,-195.2819 233.5083,-198.1367 238.293,-199.5881 238.293,-199.5881 238.293,-199.5881 233.5083,-198.1367 236.9867,-203.8944 228.7236,-196.6852 228.7236,-196.6852"/>
</g>
<!-- Hockey&#45;&gt;Goal net -->
<g id="edge1" class="edge">
<title>Hockey&#45;&gt;Goal net</title>
<path fill="none" stroke="#000000" stroke-dasharray="5,2" d="M437.1265,-279.5394C377.6037,-287.4224 271.4995,-301.4746 195.9882,-311.4751"/>
<polygon fill="#000000" stroke="#000000" points="186.0093,-312.7967 195.3319,-307.0226 190.966,-312.1402 195.9227,-311.4837 195.9227,-311.4837 195.9227,-311.4837 190.966,-312.1402 196.5136,-315.9447 186.0093,-312.7967 186.0093,-312.7967"/>
</g>
</g>
</svg>
