<?xml version="1.0" encoding="UTF-8" standalone="no"?>
<?xml-stylesheet href="../static/svg.css" type="text/css"?>
<!DOCTYPE svg PUBLIC "-//W3C//DTD SVG 1.1//EN"
 "http://www.w3.org/Graphics/SVG/1.1/DTD/svg11.dtd">
<!-- Generated by graphviz version 2.40.1 (20161225.0304)
 -->
<!-- Title: term Pages: 1 -->
<svg width="1011pt" height="626pt"
 viewBox="0.00 0.00 1011.05 626.49" xmlns="http://www.w3.org/2000/svg" xmlns:xlink="http://www.w3.org/1999/xlink">
<g id="graph0" class="graph" transform="scale(1 1) rotate(0) translate(4 622.4892)">
<title>term</title>
<!-- Team -->
<g id="node1" class="node root has&#45;pronunciation">
<title>Team</title>
<g id="a_node1"><a xlink:href="javascript:history.back()" xlink:title="Команда" target="_top">
<ellipse fill="none" stroke="#c0c0c0" stroke-width=".2" cx="581.4419" cy="-283.3373" rx="51.7379" ry="51.7379"/>
<text text-anchor="middle" x="581.4419" y="-296.8373" font-family="Times,serif" font-size="15.00" fill="#000000">Team</text>
<text text-anchor="middle" x="581.4419" y="-279.8373" font-family="Times,serif" font-size="15.00" fill="#000000">Команда</text>
<text text-anchor="middle" x="581.4419" y="-262.8373" font-family="Times,serif" font-size="15.00" fill="#000000">Тим</text>
</a>
</g>
</g>
<!-- Player -->
<g id="node7" class="node has&#45;pronunciation">
<title>Player</title>
<g id="a_node7"><a xlink:href="../player.html" xlink:title="Игрок" target="_top">
<ellipse fill="none" stroke="#c0c0c0" stroke-width=".2" cx="468.6374" cy="-177.0495" rx="46.8387" ry="46.8387"/>
<text text-anchor="middle" x="468.6374" y="-190.5495" font-family="Times,serif" font-size="15.00" fill="#000000">Player</text>
<text text-anchor="middle" x="468.6374" y="-173.5495" font-family="Times,serif" font-size="15.00" fill="#000000">Игрок</text>
<text text-anchor="middle" x="468.6374" y="-156.5495" font-family="Times,serif" font-size="15.00" fill="#000000">&#39;Плейэр</text>
</a>
</g>
</g>
<!-- Team&#45;&gt;Player -->
<g id="edge14" class="edge">
<title>Team&#45;&gt;Player</title>
<path fill="none" stroke="#000000" stroke-dasharray="5,2" d="M543.5658,-247.6493C532.8528,-237.5552 521.1368,-226.516 510.2183,-216.2283"/>
<polygon fill="#000000" stroke="#000000" points="502.8089,-209.2469 513.1731,-212.8295 506.448,-212.6758 510.0871,-216.1047 510.0871,-216.1047 510.0871,-216.1047 506.448,-212.6758 507.0011,-219.3799 502.8089,-209.2469 502.8089,-209.2469"/>
</g>
<!-- Sport -->
<g id="node8" class="node">
<title>Sport</title>
<g id="a_node8"><a xlink:href="../sport.html" xlink:title="Спорт" target="_top">
<ellipse fill="none" stroke="#c0c0c0" stroke-width=".2" cx="963.4509" cy="-329.2255" rx="39.6962" ry="39.6962"/>
<text text-anchor="middle" x="963.4509" y="-334.2255" font-family="Times,serif" font-size="15.00" fill="#000000">Sport</text>
<text text-anchor="middle" x="963.4509" y="-317.2255" font-family="Times,serif" font-size="15.00" fill="#000000">Спорт</text>
</a>
</g>
</g>
<!-- Team&#45;&gt;Sport -->
<g id="edge15" class="edge">
<title>Team&#45;&gt;Sport</title>
<path fill="none" stroke="#000000" stroke-dasharray="5,2" d="M632.9613,-289.526C706.6261,-298.3748 841.1532,-314.5347 913.7825,-323.2592"/>
<polygon fill="#000000" stroke="#000000" points="924.0345,-324.4907 913.5692,-327.7658 919.0702,-323.8943 914.1059,-323.2979 914.1059,-323.2979 914.1059,-323.2979 919.0702,-323.8943 914.6427,-318.83 924.0345,-324.4907 924.0345,-324.4907"/>
</g>
<!-- Opponent -->
<g id="node2" class="node has&#45;pronunciation">
<title>Opponent</title>
<g id="a_node2"><a xlink:href="../opponent.html" xlink:title="Противник" target="_top">
<ellipse fill="none" stroke="#c0c0c0" stroke-width=".2" cx="903.3892" cy="-65.083" rx="60.623" ry="60.623"/>
<text text-anchor="middle" x="903.3892" y="-78.583" font-family="Times,serif" font-size="15.00" fill="#000000">Opponent</text>
<text text-anchor="middle" x="903.3892" y="-61.583" font-family="Times,serif" font-size="15.00" fill="#000000">Противник</text>
<text text-anchor="middle" x="903.3892" y="-44.583" font-family="Times,serif" font-size="15.00" fill="#000000">Эˈпoунэнт</text>
</a>
</g>
</g>
<!-- Opponent&#45;&gt;Team -->
<g id="edge9" class="edge">
<title>Opponent&#45;&gt;Team</title>
<path fill="none" stroke="#000000" stroke-dasharray="5,2" d="M852.7307,-99.4253C792.7298,-140.1011 693.3298,-207.4863 632.9568,-248.4143"/>
<polygon fill="#000000" stroke="#000000" points="624.3419,-254.2546 630.094,-244.9184 628.4805,-251.4489 632.6191,-248.6432 632.6191,-248.6432 632.6191,-248.6432 628.4805,-251.4489 635.1443,-252.368 624.3419,-254.2546 624.3419,-254.2546"/>
</g>
<!-- Opponent&#45;&gt;Player -->
<g id="edge1" class="edge">
<title>Opponent&#45;&gt;Player</title>
<path fill="none" stroke="#000000" stroke-dasharray="5,2" d="M844.3041,-80.2998C759.9476,-102.0251 606.1282,-141.6399 523.919,-162.8122"/>
<polygon fill="#000000" stroke="#000000" points="514.0164,-165.3625 522.578,-158.5106 518.8584,-164.1154 523.7004,-162.8684 523.7004,-162.8684 523.7004,-162.8684 518.8584,-164.1154 524.8227,-167.2262 514.0164,-165.3625 514.0164,-165.3625"/>
</g>
<!-- Point -->
<g id="node3" class="node has&#45;pronunciation">
<title>Point</title>
<g id="a_node3"><a xlink:href="../point.html" xlink:title="Очко" target="_top">
<ellipse fill="none" stroke="#c0c0c0" stroke-width=".2" cx="208.7685" cy="-41.7193" rx="41.9398" ry="41.9398"/>
<text text-anchor="middle" x="208.7685" y="-55.2193" font-family="Times,serif" font-size="15.00" fill="#000000">Point</text>
<text text-anchor="middle" x="208.7685" y="-38.2193" font-family="Times,serif" font-size="15.00" fill="#000000">Очко</text>
<text text-anchor="middle" x="208.7685" y="-21.2193" font-family="Times,serif" font-size="15.00" fill="#000000">Пойнт</text>
</a>
</g>
</g>
<!-- Point&#45;&gt;Team -->
<g id="edge10" class="edge">
<title>Point&#45;&gt;Team</title>
<path fill="none" stroke="#000000" stroke-dasharray="5,2" d="M240.6744,-68.714C283.2081,-103.973 361.6122,-166.4665 434.5037,-211.1786 463.2338,-228.8018 496.879,-245.5826 524.7197,-258.5194"/>
<polygon fill="#000000" stroke="#000000" points="533.9234,-262.755 522.9579,-262.6622 529.3813,-260.6647 524.8392,-258.5744 524.8392,-258.5744 524.8392,-258.5744 529.3813,-260.6647 526.7205,-254.4865 533.9234,-262.755 533.9234,-262.755"/>
</g>
<!-- Point&#45;&gt;Player -->
<g id="edge2" class="edge">
<title>Point&#45;&gt;Player</title>
<path fill="none" stroke="#000000" stroke-dasharray="5,2" d="M246.0013,-61.1088C291.1866,-84.6396 367.5805,-124.4228 418.0657,-150.7136"/>
<polygon fill="#000000" stroke="#000000" points="427.1775,-155.4587 416.2296,-154.831 422.7428,-153.1492 418.3081,-150.8398 418.3081,-150.8398 418.3081,-150.8398 422.7428,-153.1492 420.3866,-146.8485 427.1775,-155.4587 427.1775,-155.4587"/>
</g>
<!-- Game -->
<g id="node4" class="node has&#45;pronunciation">
<title>Game</title>
<g id="a_node4"><a xlink:href="../game.html" xlink:title="Игра" target="_top">
<ellipse fill="none" stroke="#c0c0c0" stroke-width=".2" cx="432.566" cy="-436.2396" rx="52.1524" ry="52.1524"/>
<text text-anchor="middle" x="432.566" y="-453.2396" font-family="Times,serif" font-size="20.00" fill="#000000">Game</text>
<text text-anchor="middle" x="432.566" y="-431.2396" font-family="Times,serif" font-size="20.00" fill="#000000">Игра</text>
<text text-anchor="middle" x="432.566" y="-409.2396" font-family="Times,serif" font-size="20.00" fill="#000000">Гейм</text>
</a>
</g>
</g>
<!-- Game&#45;&gt;Team -->
<g id="edge11" class="edge">
<title>Game&#45;&gt;Team</title>
<path fill="none" stroke="#000000" stroke-dasharray="5,2" d="M469.3668,-398.4435C490.1769,-377.0706 516.3128,-350.2278 538.1098,-327.8413"/>
<polygon fill="#000000" stroke="#000000" points="545.3216,-320.4345 541.5696,-330.7386 541.8335,-324.0169 538.3454,-327.5993 538.3454,-327.5993 538.3454,-327.5993 541.8335,-324.0169 535.1213,-324.4601 545.3216,-320.4345 545.3216,-320.4345"/>
</g>
<!-- Winner -->
<g id="node5" class="node has&#45;pronunciation">
<title>Winner</title>
<g id="a_node5"><a xlink:href="../winner.html" xlink:title="Победитель" target="_top">
<ellipse fill="none" stroke="#c0c0c0" stroke-width=".2" cx="747.6294" cy="-553.4354" rx="65.1077" ry="65.1077"/>
<text text-anchor="middle" x="747.6294" y="-566.9354" font-family="Times,serif" font-size="15.00" fill="#000000">Winner</text>
<text text-anchor="middle" x="747.6294" y="-549.9354" font-family="Times,serif" font-size="15.00" fill="#000000">Победитель</text>
<text text-anchor="middle" x="747.6294" y="-532.9354" font-family="Times,serif" font-size="15.00" fill="#000000">ˈУинэр</text>
</a>
</g>
</g>
<!-- Winner&#45;&gt;Team -->
<g id="edge12" class="edge">
<title>Winner&#45;&gt;Team</title>
<path fill="none" stroke="#000000" stroke-dasharray="5,2" d="M713.3967,-497.7984C684.2071,-450.3576 642.541,-382.6394 613.8787,-336.0556"/>
<polygon fill="#000000" stroke="#000000" points="608.5058,-327.3232 617.5788,-333.482 611.126,-331.5817 613.7462,-335.8401 613.7462,-335.8401 613.7462,-335.8401 611.126,-331.5817 609.9135,-338.1983 608.5058,-327.3232 608.5058,-327.3232"/>
</g>
<!-- Winner&#45;&gt;Game -->
<g id="edge3" class="edge">
<title>Winner&#45;&gt;Game</title>
<path fill="none" stroke="#000000" stroke-dasharray="5,2" d="M686.5084,-530.6999C630.1246,-509.7265 546.9667,-478.7939 491.3412,-458.1025"/>
<polygon fill="#000000" stroke="#000000" points="481.6312,-454.4907 492.5726,-453.7594 486.3175,-456.2339 491.0037,-457.9771 491.0037,-457.9771 491.0037,-457.9771 486.3175,-456.2339 489.4349,-462.1947 481.6312,-454.4907 481.6312,-454.4907"/>
</g>
<!-- Hockey -->
<g id="node6" class="node has&#45;pronunciation">
<title>Hockey</title>
<g id="a_node6"><a xlink:href="../hockey.html" xlink:title="Хоккей" target="_top">
<ellipse fill="none" stroke="#c0c0c0" stroke-width=".2" cx="45.2548" cy="-327.9705" rx="45.011" ry="45.011"/>
<text text-anchor="middle" x="45.2548" y="-341.4705" font-family="Times,serif" font-size="15.00" fill="#000000">Hockey</text>
<text text-anchor="middle" x="45.2548" y="-324.4705" font-family="Times,serif" font-size="15.00" fill="#000000">Хоккей</text>
<text text-anchor="middle" x="45.2548" y="-307.4705" font-family="Times,serif" font-size="15.00" fill="#000000">ˈХаки</text>
</a>
</g>
</g>
<!-- Hockey&#45;&gt;Team -->
<g id="edge13" class="edge">
<title>Hockey&#45;&gt;Team</title>
<path fill="none" stroke="#000000" stroke-dasharray="5,2" d="M90.5077,-324.2035C186.5077,-316.2123 410.6808,-297.5518 519.7066,-288.4763"/>
<polygon fill="#000000" stroke="#000000" points="529.8898,-287.6286 520.2977,-292.9427 524.9071,-288.0434 519.9243,-288.4582 519.9243,-288.4582 519.9243,-288.4582 524.9071,-288.0434 519.551,-283.9737 529.8898,-287.6286 529.8898,-287.6286"/>
</g>
<!-- Hockey&#45;&gt;Game -->
<g id="edge4" class="edge">
<title>Hockey&#45;&gt;Game</title>
<path fill="none" stroke="#000000" stroke-dasharray="5,2" d="M88.9315,-340.1798C158.2745,-359.564 293.7226,-397.4273 372.268,-419.3839"/>
<polygon fill="#000000" stroke="#000000" points="382.0242,-422.1112 371.1819,-423.7528 377.2088,-420.765 372.3934,-419.4189 372.3934,-419.4189 372.3934,-419.4189 377.2088,-420.765 373.605,-415.085 382.0242,-422.1112 382.0242,-422.1112"/>
</g>
<!-- Hockey&#45;&gt;Player -->
<g id="edge5" class="edge">
<title>Hockey&#45;&gt;Player</title>
<path fill="none" stroke="#000000" stroke-dasharray="5,2" d="M88.181,-312.6688C166.0135,-284.9242 330.2185,-226.3909 415.1852,-196.1033"/>
<polygon fill="#000000" stroke="#000000" points="424.6463,-192.7307 416.7379,-200.3272 419.9366,-194.4096 415.2269,-196.0885 415.2269,-196.0885 415.2269,-196.0885 419.9366,-194.4096 413.7159,-191.8497 424.6463,-192.7307 424.6463,-192.7307"/>
</g>
<!-- Player&#45;&gt;Game -->
<g id="edge7" class="edge">
<title>Player&#45;&gt;Game</title>
<path fill="none" stroke="#000000" stroke-dasharray="5,2" d="M462.1885,-223.3875C456.336,-265.4409 447.6606,-327.7778 441.2092,-374.1345"/>
<polygon fill="#000000" stroke="#000000" points="439.8269,-384.0664 436.7484,-373.5415 440.5162,-379.1141 441.2054,-374.1618 441.2054,-374.1618 441.2054,-374.1618 440.5162,-379.1141 445.6625,-374.7821 439.8269,-384.0664 439.8269,-384.0664"/>
</g>
<!-- Player&#45;&gt;Sport -->
<g id="edge6" class="edge">
<title>Player&#45;&gt;Sport</title>
<path fill="none" stroke="#000000" stroke-dasharray="5,2" d="M513.4215,-190.8225C606.4763,-219.4407 820.0132,-285.1123 915.6279,-314.5179"/>
<polygon fill="#000000" stroke="#000000" points="925.3254,-317.5003 914.4444,-318.8619 920.5463,-316.0305 915.7672,-314.5607 915.7672,-314.5607 915.7672,-314.5607 920.5463,-316.0305 917.0901,-310.2595 925.3254,-317.5003 925.3254,-317.5003"/>
</g>
<!-- Sport&#45;&gt;Game -->
<g id="edge8" class="edge">
<title>Sport&#45;&gt;Game</title>
<path fill="none" stroke="#000000" stroke-dasharray="5,2" d="M924.4137,-337.0945C832.9243,-355.5366 604.0866,-401.6651 493.8361,-423.889"/>
<polygon fill="#000000" stroke="#000000" points="483.8651,-425.8989 492.7786,-419.5116 488.7665,-424.9109 493.6679,-423.9228 493.6679,-423.9228 493.6679,-423.9228 488.7665,-424.9109 494.5571,-428.3341 483.8651,-425.8989 483.8651,-425.8989"/>
</g>
</g>
</svg>
