<?xml version="1.0" encoding="UTF-8" standalone="no"?>
<?xml-stylesheet href="../static/svg.css" type="text/css"?>
<!DOCTYPE svg PUBLIC "-//W3C//DTD SVG 1.1//EN"
 "http://www.w3.org/Graphics/SVG/1.1/DTD/svg11.dtd">
<!-- Generated by graphviz version 2.40.1 (20161225.0304)
 -->
<!-- Title: term Pages: 1 -->
<svg width="949pt" height="568pt"
 viewBox="0.00 0.00 948.55 568.06" xmlns="http://www.w3.org/2000/svg" xmlns:xlink="http://www.w3.org/1999/xlink">
<g id="graph0" class="graph" transform="scale(1 1) rotate(0) translate(4 564.0584)">
<title>term</title>
<!-- Hockey -->
<g id="node1" class="node root has&#45;pronunciation">
<title>Hockey</title>
<g id="a_node1"><a xlink:href="../all-in-one.html" xlink:title="Хоккей" target="_top">
<ellipse fill="none" stroke="#c0c0c0" stroke-width=".2" cx="495.641" cy="-254.7583" rx="45.011" ry="45.011"/>
<text text-anchor="middle" x="495.641" y="-268.2583" font-family="Times,serif" font-size="15.00" fill="#000000">Hockey</text>
<text text-anchor="middle" x="495.641" y="-251.2583" font-family="Times,serif" font-size="15.00" fill="#000000">Хоккей</text>
<text text-anchor="middle" x="495.641" y="-234.2583" font-family="Times,serif" font-size="15.00" fill="#000000">ˈХаки</text>
</a>
</g>
</g>
<!-- Team -->
<g id="node2" class="node has&#45;pronunciation">
<title>Team</title>
<g id="a_node2"><a xlink:href="../team.html" xlink:title="Команда" target="_top">
<ellipse fill="none" stroke="#c0c0c0" stroke-width=".2" cx="851.4461" cy="-304.4067" rx="51.7379" ry="51.7379"/>
<text text-anchor="middle" x="851.4461" y="-317.9067" font-family="Times,serif" font-size="15.00" fill="#000000">Team</text>
<text text-anchor="middle" x="851.4461" y="-300.9067" font-family="Times,serif" font-size="15.00" fill="#000000">Команда</text>
<text text-anchor="middle" x="851.4461" y="-283.9067" font-family="Times,serif" font-size="15.00" fill="#000000">Тим</text>
</a>
</g>
</g>
<!-- Hockey&#45;&gt;Team -->
<g id="edge10" class="edge">
<title>Hockey&#45;&gt;Team</title>
<path fill="none" stroke="#000000" stroke-dasharray="5,2" d="M540.7039,-261.0463C603.8868,-269.8627 719.007,-285.9264 789.9983,-295.8324"/>
<polygon fill="#000000" stroke="#000000" points="800.1408,-297.2477 789.6149,-300.3224 795.1888,-296.5566 790.2368,-295.8656 790.2368,-295.8656 790.2368,-295.8656 795.1888,-296.5566 790.8587,-291.4088 800.1408,-297.2477 800.1408,-297.2477"/>
</g>
<!-- Sport -->
<g id="node3" class="node">
<title>Sport</title>
<g id="a_node3"><a xlink:href="../sport.html" xlink:title="Спорт" target="_top">
<ellipse fill="none" stroke="#c0c0c0" stroke-width=".2" cx="900.949" cy="-153.9065" rx="39.6962" ry="39.6962"/>
<text text-anchor="middle" x="900.949" y="-158.9065" font-family="Times,serif" font-size="15.00" fill="#000000">Sport</text>
<text text-anchor="middle" x="900.949" y="-141.9065" font-family="Times,serif" font-size="15.00" fill="#000000">Спорт</text>
</a>
</g>
</g>
<!-- Hockey&#45;&gt;Sport -->
<g id="edge11" class="edge">
<title>Hockey&#45;&gt;Sport</title>
<path fill="none" stroke="#000000" stroke-dasharray="5,2" d="M539.7876,-243.7734C616.3251,-224.7287 773.0588,-185.7291 852.4954,-165.9631"/>
<polygon fill="#000000" stroke="#000000" points="862.2513,-163.5356 853.6338,-170.3171 857.3993,-164.7429 852.5472,-165.9503 852.5472,-165.9503 852.5472,-165.9503 857.3993,-164.7429 851.4606,-161.5834 862.2513,-163.5356 862.2513,-163.5356"/>
</g>
<!-- Rink -->
<g id="node4" class="node has&#45;pronunciation">
<title>Rink</title>
<g id="a_node4"><a xlink:href="../rink.html" xlink:title="Площадка" target="_top">
<ellipse fill="none" stroke="#c0c0c0" stroke-width=".2" cx="498.6639" cy="-502.7828" rx="57.0522" ry="57.0522"/>
<text text-anchor="middle" x="498.6639" y="-516.2828" font-family="Times,serif" font-size="15.00" fill="#000000">Rink</text>
<text text-anchor="middle" x="498.6639" y="-499.2828" font-family="Times,serif" font-size="15.00" fill="#000000">Площадка</text>
<text text-anchor="middle" x="498.6639" y="-482.2828" font-family="Times,serif" font-size="15.00" fill="#000000">Ринк</text>
</a>
</g>
</g>
<!-- Hockey&#45;&gt;Rink -->
<g id="edge12" class="edge">
<title>Hockey&#45;&gt;Rink</title>
<path fill="none" stroke="#000000" stroke-dasharray="5,2" d="M496.1954,-300.2498C496.6562,-338.0548 497.3185,-392.3986 497.8411,-435.2778"/>
<polygon fill="#000000" stroke="#000000" points="497.964,-445.3551 493.3423,-435.4107 497.903,-440.3555 497.842,-435.3558 497.842,-435.3558 497.842,-435.3558 497.903,-440.3555 502.3417,-435.301 497.964,-445.3551 497.964,-445.3551"/>
</g>
<!-- Player -->
<g id="node5" class="node has&#45;pronunciation">
<title>Player</title>
<g id="a_node5"><a xlink:href="../player.html" xlink:title="Игрок" target="_top">
<ellipse fill="none" stroke="#c0c0c0" stroke-width=".2" cx="676.3411" cy="-69.7752" rx="46.8387" ry="46.8387"/>
<text text-anchor="middle" x="676.3411" y="-83.2752" font-family="Times,serif" font-size="15.00" fill="#000000">Player</text>
<text text-anchor="middle" x="676.3411" y="-66.2752" font-family="Times,serif" font-size="15.00" fill="#000000">Игрок</text>
<text text-anchor="middle" x="676.3411" y="-49.2752" font-family="Times,serif" font-size="15.00" fill="#000000">&#39;Плейэр</text>
</a>
</g>
</g>
<!-- Hockey&#45;&gt;Player -->
<g id="edge13" class="edge">
<title>Hockey&#45;&gt;Player</title>
<path fill="none" stroke="#000000" stroke-dasharray="5,2" d="M527.5306,-222.1128C557.8614,-191.0631 603.5963,-144.2442 636.3533,-110.7108"/>
<polygon fill="#000000" stroke="#000000" points="643.5506,-103.3429 639.7818,-113.6408 640.0567,-106.9196 636.5628,-110.4963 636.5628,-110.4963 636.5628,-110.4963 640.0567,-106.9196 633.3437,-107.3518 643.5506,-103.3429 643.5506,-103.3429"/>
</g>
<!-- Stick -->
<g id="node6" class="node has&#45;pronunciation">
<title>Stick</title>
<g id="a_node6"><a xlink:href="../stick.html" xlink:title="Клюшка" target="_top">
<ellipse fill="none" stroke="#c0c0c0" stroke-width=".2" cx="48.7904" cy="-355.5228" rx="48.5816" ry="48.5816"/>
<text text-anchor="middle" x="48.7904" y="-369.0228" font-family="Times,serif" font-size="15.00" fill="#000000">Stick</text>
<text text-anchor="middle" x="48.7904" y="-352.0228" font-family="Times,serif" font-size="15.00" fill="#000000">Клюшка</text>
<text text-anchor="middle" x="48.7904" y="-335.0228" font-family="Times,serif" font-size="15.00" fill="#000000">Стик</text>
</a>
</g>
</g>
<!-- Hockey&#45;&gt;Stick -->
<g id="edge14" class="edge">
<title>Hockey&#45;&gt;Stick</title>
<path fill="none" stroke="#000000" stroke-dasharray="5,2" d="M450.6757,-248.817C405.6336,-244.0898 334.5371,-239.9671 274.3093,-251.3613 210.0857,-263.5114 142.863,-297.7832 98.7023,-323.7249"/>
<polygon fill="#000000" stroke="#000000" points="89.9121,-328.958 96.2027,-319.9759 94.2084,-326.4003 98.5047,-323.8425 98.5047,-323.8425 98.5047,-323.8425 94.2084,-326.4003 100.8066,-327.7092 89.9121,-328.958 89.9121,-328.958"/>
</g>
<!-- Puck -->
<g id="node7" class="node has&#45;pronunciation">
<title>Puck</title>
<g id="a_node7"><a xlink:href="../puck.html" xlink:title="Шайба" target="_top">
<ellipse fill="none" stroke="#c0c0c0" stroke-width=".2" cx="96.3255" cy="-166.9059" rx="65.1077" ry="65.1077"/>
<text text-anchor="middle" x="96.3255" y="-188.9059" font-family="Times,serif" font-size="25.00" fill="#000000">Puck</text>
<text text-anchor="middle" x="96.3255" y="-160.9059" font-family="Times,serif" font-size="25.00" fill="#000000">Шайба</text>
<text text-anchor="middle" x="96.3255" y="-132.9059" font-family="Times,serif" font-size="25.00" fill="#000000">Пак</text>
</a>
</g>
</g>
<!-- Hockey&#45;&gt;Puck -->
<g id="edge15" class="edge">
<title>Hockey&#45;&gt;Puck</title>
<path fill="none" stroke="#000000" stroke-dasharray="5,2" d="M451.3815,-245.0209C383.3795,-230.0599 252.4361,-201.2514 169.9805,-183.1106"/>
<polygon fill="#000000" stroke="#000000" points="160.1728,-180.9528 170.9062,-178.7067 165.056,-182.0272 169.9392,-183.1016 169.9392,-183.1016 169.9392,-183.1016 165.056,-182.0272 168.9723,-187.4965 160.1728,-180.9528 160.1728,-180.9528"/>
</g>
<!-- Goal net -->
<g id="node8" class="node has&#45;pronunciation">
<title>Goal net</title>
<g id="a_node8"><a xlink:href="../goal-net.html" xlink:title="Ворота" target="_top">
<ellipse fill="none" stroke="#c0c0c0" stroke-width=".2" cx="274.0391" cy="-330.7426" rx="77.5641" ry="77.5641"/>
<text text-anchor="middle" x="274.0391" y="-352.7426" font-family="Times,serif" font-size="25.00" fill="#000000">Goal net</text>
<text text-anchor="middle" x="274.0391" y="-324.7426" font-family="Times,serif" font-size="25.00" fill="#000000">Ворота</text>
<text text-anchor="middle" x="274.0391" y="-296.7426" font-family="Times,serif" font-size="25.00" fill="#000000">Гoул нет</text>
</a>
</g>
</g>
<!-- Hockey&#45;&gt;Goal net -->
<g id="edge16" class="edge">
<title>Hockey&#45;&gt;Goal net</title>
<path fill="none" stroke="#000000" stroke-dasharray="5,2" d="M452.6512,-269.4989C425.6157,-278.769 389.8284,-291.04 357.3907,-302.1624"/>
<polygon fill="#000000" stroke="#000000" points="347.8943,-305.4186 355.8941,-297.9184 352.624,-303.7969 357.3537,-302.1751 357.3537,-302.1751 357.3537,-302.1751 352.624,-303.7969 358.8133,-306.4318 347.8943,-305.4186 347.8943,-305.4186"/>
</g>
<!-- Goal -->
<g id="node9" class="node has&#45;pronunciation">
<title>Goal</title>
<g id="a_node9"><a xlink:href="../goal.html" xlink:title="Гол" target="_top">
<ellipse fill="none" stroke="#c0c0c0" stroke-width=".2" cx="334.0816" cy="-65.0538" rx="65.1077" ry="65.1077"/>
<text text-anchor="middle" x="334.0816" y="-87.0538" font-family="Times,serif" font-size="25.00" fill="#000000">Goal</text>
<text text-anchor="middle" x="334.0816" y="-59.0538" font-family="Times,serif" font-size="25.00" fill="#000000">Гол</text>
<text text-anchor="middle" x="334.0816" y="-31.0538" font-family="Times,serif" font-size="25.00" fill="#000000">Гoул</text>
</a>
</g>
</g>
<!-- Hockey&#45;&gt;Goal -->
<g id="edge17" class="edge">
<title>Hockey&#45;&gt;Goal</title>
<path fill="none" stroke="#000000" stroke-dasharray="5,2" d="M466.0085,-219.9636C442.8304,-192.7477 410.1086,-154.3254 383.0525,-122.5559"/>
<polygon fill="#000000" stroke="#000000" points="376.3052,-114.6332 386.2149,-119.3287 379.5471,-118.4398 382.789,-122.2464 382.789,-122.2464 382.789,-122.2464 379.5471,-118.4398 379.363,-125.1641 376.3052,-114.6332 376.3052,-114.6332"/>
</g>
<!-- Team&#45;&gt;Sport -->
<g id="edge2" class="edge">
<title>Team&#45;&gt;Sport</title>
<path fill="none" stroke="#000000" stroke-dasharray="5,2" d="M867.6552,-255.1273C873.3123,-237.9284 879.648,-218.6663 885.2619,-201.5988"/>
<polygon fill="#000000" stroke="#000000" points="888.4733,-191.8355 889.6234,-202.7409 886.911,-196.5852 885.3487,-201.3348 885.3487,-201.3348 885.3487,-201.3348 886.911,-196.5852 881.074,-199.9287 888.4733,-191.8355 888.4733,-191.8355"/>
</g>
<!-- Team&#45;&gt;Player -->
<g id="edge1" class="edge">
<title>Team&#45;&gt;Player</title>
<path fill="none" stroke="#000000" stroke-dasharray="5,2" d="M820.5439,-262.9994C789.7086,-221.6817 742.444,-158.3496 710.5079,-115.5568"/>
<polygon fill="#000000" stroke="#000000" points="704.3344,-107.2848 713.9219,-112.6075 707.3249,-111.2919 710.3155,-115.299 710.3155,-115.299 710.3155,-115.299 707.3249,-111.2919 706.709,-117.9905 704.3344,-107.2848 704.3344,-107.2848"/>
</g>
<!-- Rink&#45;&gt;Goal net -->
<g id="edge3" class="edge">
<title>Rink&#45;&gt;Goal net</title>
<path fill="none" stroke="#000000" stroke-dasharray="5,2" d="M452.937,-467.7605C421.5727,-443.7386 379.3656,-411.4121 343.8246,-384.1913"/>
<polygon fill="#000000" stroke="#000000" points="335.8827,-378.1086 346.5579,-380.6165 339.8522,-381.1488 343.8217,-384.1891 343.8217,-384.1891 343.8217,-384.1891 339.8522,-381.1488 341.0854,-387.7616 335.8827,-378.1086 335.8827,-378.1086"/>
</g>
<!-- Player&#45;&gt;Sport -->
<g id="edge5" class="edge">
<title>Player&#45;&gt;Sport</title>
<path fill="none" stroke="#000000" stroke-dasharray="5,2" d="M720.181,-86.1963C758.6663,-100.6117 814.4976,-121.5244 853.9079,-136.2864"/>
<polygon fill="#000000" stroke="#000000" points="863.5532,-139.8992 852.6101,-140.6055 858.8709,-138.1453 854.1885,-136.3914 854.1885,-136.3914 854.1885,-136.3914 858.8709,-138.1453 855.767,-132.1773 863.5532,-139.8992 863.5532,-139.8992"/>
</g>
<!-- Player&#45;&gt;Goal -->
<g id="edge4" class="edge">
<title>Player&#45;&gt;Goal</title>
<path fill="none" stroke="#000000" stroke-dasharray="5,2" d="M629.469,-69.1286C572.7867,-68.3467 476.644,-67.0204 409.4908,-66.0941"/>
<polygon fill="#000000" stroke="#000000" points="399.3874,-65.9547 409.4486,-61.5932 404.3869,-66.0237 409.3865,-66.0927 409.3865,-66.0927 409.3865,-66.0927 404.3869,-66.0237 409.3244,-70.5923 399.3874,-65.9547 399.3874,-65.9547"/>
</g>
<!-- Stick&#45;&gt;Puck -->
<g id="edge6" class="edge">
<title>Stick&#45;&gt;Puck</title>
<path fill="none" stroke="#000000" stroke-dasharray="5,2" d="M60.7855,-307.9268C65.9605,-287.3927 72.1316,-262.9059 77.8679,-240.1447"/>
<polygon fill="#000000" stroke="#000000" points="80.3813,-230.1717 82.301,-240.9682 79.1594,-235.0201 77.9374,-239.8685 77.9374,-239.8685 77.9374,-239.8685 79.1594,-235.0201 73.5739,-238.7687 80.3813,-230.1717 80.3813,-230.1717"/>
</g>
<!-- Puck&#45;&gt;Goal net -->
<g id="edge7" class="edge">
<title>Puck&#45;&gt;Goal net</title>
<path fill="none" stroke="#000000" stroke-dasharray="5,2" d="M144.4174,-211.2425C164.3711,-229.6381 187.8263,-251.2618 209.2599,-271.0218"/>
<polygon fill="#000000" stroke="#000000" points="216.7479,-277.925 206.3454,-274.4553 213.0717,-274.5359 209.3956,-271.1468 209.3956,-271.1468 209.3956,-271.1468 213.0717,-274.5359 212.4458,-267.8383 216.7479,-277.925 216.7479,-277.925"/>
</g>
<!-- Goal&#45;&gt;Puck -->
<g id="edge8" class="edge">
<title>Goal&#45;&gt;Puck</title>
<path fill="none" stroke="#000000" stroke-dasharray="5,2" d="M274.0857,-90.7554C241.141,-104.8685 200.1246,-122.4395 165.7953,-137.1458"/>
<polygon fill="#000000" stroke="#000000" points="156.3022,-141.2126 163.7222,-133.1383 160.8982,-139.2436 165.4943,-137.2747 165.4943,-137.2747 165.4943,-137.2747 160.8982,-139.2436 167.2663,-141.4112 156.3022,-141.2126 156.3022,-141.2126"/>
</g>
<!-- Goal&#45;&gt;Goal net -->
<g id="edge9" class="edge">
<title>Goal&#45;&gt;Goal net</title>
<path fill="none" stroke="#000000" stroke-dasharray="5,2" d="M319.6999,-128.6929C311.8336,-163.5015 301.9797,-207.1051 293.4413,-244.8876"/>
<polygon fill="#000000" stroke="#000000" points="291.1862,-254.8666 289.0012,-244.1206 292.2884,-249.9896 293.3906,-245.1126 293.3906,-245.1126 293.3906,-245.1126 292.2884,-249.9896 297.7799,-246.1046 291.1862,-254.8666 291.1862,-254.8666"/>
</g>
</g>
</svg>
