<?xml version="1.0" encoding="UTF-8" standalone="no"?>
<?xml-stylesheet href="../static/svg.css" type="text/css"?>
<!DOCTYPE svg PUBLIC "-//W3C//DTD SVG 1.1//EN"
 "http://www.w3.org/Graphics/SVG/1.1/DTD/svg11.dtd">
<!-- Generated by graphviz version 2.40.1 (20161225.0304)
 -->
<!-- Title: term Pages: 1 -->
<svg width="488pt" height="334pt"
 viewBox="0.00 0.00 487.71 334.20" xmlns="http://www.w3.org/2000/svg" xmlns:xlink="http://www.w3.org/1999/xlink">
<g id="graph0" class="graph" transform="scale(1 1) rotate(0) translate(4 330.1981)">
<title>term</title>
<!-- Slapshot -->
<g id="node1" class="node root has&#45;pronunciation">
<title>Slapshot</title>
<g id="a_node1"><a xlink:href="javascript:history.back()" xlink:title="Щелчок" target="_top">
<ellipse fill="none" stroke="#c0c0c0" stroke-width=".2" cx="50.9117" cy="-257.7543" rx="50.8235" ry="50.8235"/>
<text text-anchor="middle" x="50.9117" y="-271.2543" font-family="Times,serif" font-size="15.00" fill="#000000">Slapshot</text>
<text text-anchor="middle" x="50.9117" y="-254.2543" font-family="Times,serif" font-size="15.00" fill="#000000">Щелчок</text>
<text text-anchor="middle" x="50.9117" y="-237.2543" font-family="Times,serif" font-size="15.00" fill="#000000">Слэпшат</text>
</a>
</g>
</g>
<!-- Shot -->
<g id="node2" class="node has&#45;pronunciation">
<title>Shot</title>
<g id="a_node2"><a xlink:href="../shot.html" xlink:title="Бросок" target="_top">
<ellipse fill="none" stroke="#c0c0c0" stroke-width=".2" cx="412.534" cy="-259.0229" rx="67.3507" ry="67.3507"/>
<text text-anchor="middle" x="412.534" y="-281.0229" font-family="Times,serif" font-size="25.00" fill="#000000">Shot</text>
<text text-anchor="middle" x="412.534" y="-253.0229" font-family="Times,serif" font-size="25.00" fill="#000000">Бросок</text>
<text text-anchor="middle" x="412.534" y="-225.0229" font-family="Times,serif" font-size="25.00" fill="#000000">Шат</text>
</a>
</g>
</g>
<!-- Shot&#45;&gt;Slapshot -->
<g id="edge2" class="edge">
<title>Shot&#45;&gt;Slapshot</title>
<path fill="none" stroke="#000000" stroke-dasharray="5,2" d="M344.9398,-258.7858C277.994,-258.5509 176.3993,-258.1945 111.867,-257.9681"/>
<polygon fill="#000000" stroke="#000000" points="101.8391,-257.933 111.8549,-253.4682 106.8391,-257.9505 111.8391,-257.9681 111.8391,-257.9681 111.8391,-257.9681 106.8391,-257.9505 111.8232,-262.4681 101.8391,-257.933 101.8391,-257.933"/>
</g>
<!-- Snap shot -->
<g id="node3" class="node has&#45;pronunciation">
<title>Snap shot</title>
<g id="a_node3"><a xlink:href="../snap-shot.html" xlink:title="Короткий щелчок" target="_top">
<ellipse fill="none" stroke="#c0c0c0" stroke-width=".2" cx="234.1715" cy="-91.9239" rx="91.8478" ry="91.8478"/>
<text text-anchor="middle" x="234.1715" y="-105.4239" font-family="Times,serif" font-size="15.00" fill="#000000">Snap shot</text>
<text text-anchor="middle" x="234.1715" y="-88.4239" font-family="Times,serif" font-size="15.00" fill="#000000">Короткий щелчок</text>
<text text-anchor="middle" x="234.1715" y="-71.4239" font-family="Times,serif" font-size="15.00" fill="#000000">Снэп шат</text>
</a>
</g>
</g>
<!-- Shot&#45;&gt;Snap shot -->
<g id="edge1" class="edge">
<title>Shot&#45;&gt;Snap shot</title>
<path fill="none" stroke="#000000" stroke-dasharray="5,2" d="M363.3235,-212.92C346.6319,-197.2825 327.585,-179.4384 309.3406,-162.3461"/>
<polygon fill="#000000" stroke="#000000" points="301.5798,-155.0755 311.9542,-158.6284 305.2287,-158.4939 308.8776,-161.9124 308.8776,-161.9124 308.8776,-161.9124 305.2287,-158.4939 305.801,-165.1964 301.5798,-155.0755 301.5798,-155.0755"/>
</g>
<!-- Snap shot&#45;&gt;Slapshot -->
<g id="edge3" class="edge">
<title>Snap shot&#45;&gt;Slapshot</title>
<path fill="none" stroke="#000000" stroke-dasharray="5,2" d="M165.9323,-153.673C142.73,-174.6686 117.3833,-197.6046 96.4031,-216.5894"/>
<polygon fill="#000000" stroke="#000000" points="88.8832,-223.3941 93.2788,-213.3477 92.5907,-220.0393 96.2981,-216.6844 96.2981,-216.6844 96.2981,-216.6844 92.5907,-220.0393 99.3175,-220.0211 88.8832,-223.3941 88.8832,-223.3941"/>
</g>
</g>
</svg>
