<?xml version="1.0" encoding="UTF-8" standalone="no"?>
<?xml-stylesheet href="../static/svg.css" type="text/css"?>
<!DOCTYPE svg PUBLIC "-//W3C//DTD SVG 1.1//EN"
 "http://www.w3.org/Graphics/SVG/1.1/DTD/svg11.dtd">
<!-- Generated by graphviz version 2.40.1 (20161225.0304)
 -->
<!-- Title: term Pages: 1 -->
<svg width="968pt" height="631pt"
 viewBox="0.00 0.00 967.57 630.72" xmlns="http://www.w3.org/2000/svg" xmlns:xlink="http://www.w3.org/1999/xlink">
<g id="graph0" class="graph" transform="scale(1 1) rotate(0) translate(4 626.7228)">
<title>term</title>
<!-- Goal net -->
<g id="node1" class="node root has&#45;pronunciation">
<title>Goal net</title>
<g id="a_node1"><a xlink:href="javascript:history.back()" xlink:title="Ворота" target="_top">
<ellipse fill="none" stroke="#c0c0c0" stroke-width=".2" cx="541.5719" cy="-346.6559" rx="77.5641" ry="77.5641"/>
<text text-anchor="middle" x="541.5719" y="-368.6559" font-family="Times,serif" font-size="25.00" fill="#000000">Goal net</text>
<text text-anchor="middle" x="541.5719" y="-340.6559" font-family="Times,serif" font-size="25.00" fill="#000000">Ворота</text>
<text text-anchor="middle" x="541.5719" y="-312.6559" font-family="Times,serif" font-size="25.00" fill="#000000">Гoул нет</text>
</a>
</g>
</g>
<!-- Rink -->
<g id="node2" class="node has&#45;pronunciation">
<title>Rink</title>
<g id="a_node2"><a xlink:href="../rink.html" xlink:title="Площадка" target="_top">
<ellipse fill="none" stroke="#c0c0c0" stroke-width=".2" cx="854.0453" cy="-565.4471" rx="57.0522" ry="57.0522"/>
<text text-anchor="middle" x="854.0453" y="-578.9471" font-family="Times,serif" font-size="15.00" fill="#000000">Rink</text>
<text text-anchor="middle" x="854.0453" y="-561.9471" font-family="Times,serif" font-size="15.00" fill="#000000">Площадка</text>
<text text-anchor="middle" x="854.0453" y="-544.9471" font-family="Times,serif" font-size="15.00" fill="#000000">Ринк</text>
</a>
</g>
</g>
<!-- Rink&#45;&gt;Goal net -->
<g id="edge7" class="edge">
<title>Rink&#45;&gt;Goal net</title>
<path fill="none" stroke="#000000" stroke-dasharray="5,2" d="M806.9266,-532.455C755.6339,-496.5403 673.001,-438.6814 613.5686,-397.0673"/>
<polygon fill="#000000" stroke="#000000" points="605.3421,-391.3072 616.1147,-393.3567 609.4379,-394.1751 613.5337,-397.0429 613.5337,-397.0429 613.5337,-397.0429 609.4379,-394.1751 610.9526,-400.7291 605.3421,-391.3072 605.3421,-391.3072"/>
</g>
<!-- Puck -->
<g id="node3" class="node has&#45;pronunciation">
<title>Puck</title>
<g id="a_node3"><a xlink:href="../puck.html" xlink:title="Шайба" target="_top">
<ellipse fill="none" stroke="#c0c0c0" stroke-width=".2" cx="517.951" cy="-65.0538" rx="65.1077" ry="65.1077"/>
<text text-anchor="middle" x="517.951" y="-87.0538" font-family="Times,serif" font-size="25.00" fill="#000000">Puck</text>
<text text-anchor="middle" x="517.951" y="-59.0538" font-family="Times,serif" font-size="25.00" fill="#000000">Шайба</text>
<text text-anchor="middle" x="517.951" y="-31.0538" font-family="Times,serif" font-size="25.00" fill="#000000">Пак</text>
</a>
</g>
</g>
<!-- Puck&#45;&gt;Goal net -->
<g id="edge8" class="edge">
<title>Puck&#45;&gt;Goal net</title>
<path fill="none" stroke="#000000" stroke-dasharray="5,2" d="M523.3998,-130.0126C526.6095,-168.2771 530.7126,-217.1935 534.2075,-258.859"/>
<polygon fill="#000000" stroke="#000000" points="535.0587,-269.0074 529.7385,-259.4185 534.6408,-264.0249 534.2228,-259.0424 534.2228,-259.0424 534.2228,-259.0424 534.6408,-264.0249 538.707,-258.6662 535.0587,-269.0074 535.0587,-269.0074"/>
</g>
<!-- Opponent -->
<g id="node4" class="node has&#45;pronunciation">
<title>Opponent</title>
<g id="a_node4"><a xlink:href="../opponent.html" xlink:title="Противник" target="_top">
<ellipse fill="none" stroke="#c0c0c0" stroke-width=".2" cx="60.8112" cy="-484.1719" rx="60.623" ry="60.623"/>
<text text-anchor="middle" x="60.8112" y="-497.6719" font-family="Times,serif" font-size="15.00" fill="#000000">Opponent</text>
<text text-anchor="middle" x="60.8112" y="-480.6719" font-family="Times,serif" font-size="15.00" fill="#000000">Противник</text>
<text text-anchor="middle" x="60.8112" y="-463.6719" font-family="Times,serif" font-size="15.00" fill="#000000">Эˈпoунэнт</text>
</a>
</g>
</g>
<!-- Opponent&#45;&gt;Goal net -->
<g id="edge9" class="edge">
<title>Opponent&#45;&gt;Goal net</title>
<path fill="none" stroke="#000000" stroke-dasharray="5,2" d="M119.2812,-467.4473C203.5947,-443.3304 359.8131,-398.6459 456.7885,-370.9072"/>
<polygon fill="#000000" stroke="#000000" points="466.565,-368.1108 458.1881,-375.1874 461.7577,-369.4858 456.9505,-370.8609 456.9505,-370.8609 456.9505,-370.8609 461.7577,-369.4858 455.713,-366.5344 466.565,-368.1108 466.565,-368.1108"/>
</g>
<!-- Goal -->
<g id="node5" class="node has&#45;pronunciation">
<title>Goal</title>
<g id="a_node5"><a xlink:href="../goal.html" xlink:title="Гол" target="_top">
<ellipse fill="none" stroke="#c0c0c0" stroke-width=".2" cx="854.0532" cy="-103.0954" rx="65.1077" ry="65.1077"/>
<text text-anchor="middle" x="854.0532" y="-125.0954" font-family="Times,serif" font-size="25.00" fill="#000000">Goal</text>
<text text-anchor="middle" x="854.0532" y="-97.0954" font-family="Times,serif" font-size="25.00" fill="#000000">Гол</text>
<text text-anchor="middle" x="854.0532" y="-69.0954" font-family="Times,serif" font-size="25.00" fill="#000000">Гoул</text>
</a>
</g>
</g>
<!-- Goal&#45;&gt;Goal net -->
<g id="edge10" class="edge">
<title>Goal&#45;&gt;Goal net</title>
<path fill="none" stroke="#000000" stroke-dasharray="5,2" d="M802.4533,-143.3145C750.2193,-184.0278 669.1071,-247.2499 611.2001,-292.3849"/>
<polygon fill="#000000" stroke="#000000" points="603.1887,-298.6293 608.3094,-288.9325 607.1323,-295.5555 611.0758,-292.4817 611.0758,-292.4817 611.0758,-292.4817 607.1323,-295.5555 613.8423,-296.031 603.1887,-298.6293 603.1887,-298.6293"/>
</g>
<!-- Goal&#45;&gt;Puck -->
<g id="edge1" class="edge">
<title>Goal&#45;&gt;Puck</title>
<path fill="none" stroke="#000000" stroke-dasharray="5,2" d="M789.2494,-95.7606C733.0782,-89.4029 651.7806,-80.2013 592.8381,-73.5299"/>
<polygon fill="#000000" stroke="#000000" points="582.842,-72.3985 593.2847,-69.0518 587.8103,-72.9609 592.7786,-73.5232 592.7786,-73.5232 592.7786,-73.5232 587.8103,-72.9609 592.2725,-77.9947 582.842,-72.3985 582.842,-72.3985"/>
</g>
<!-- Shot -->
<g id="node6" class="node has&#45;pronunciation">
<title>Shot</title>
<g id="a_node6"><a xlink:href="../shot.html" xlink:title="Бросок" target="_top">
<ellipse fill="none" stroke="#c0c0c0" stroke-width=".2" cx="892.3911" cy="-248.4805" rx="67.3507" ry="67.3507"/>
<text text-anchor="middle" x="892.3911" y="-270.4805" font-family="Times,serif" font-size="25.00" fill="#000000">Shot</text>
<text text-anchor="middle" x="892.3911" y="-242.4805" font-family="Times,serif" font-size="25.00" fill="#000000">Бросок</text>
<text text-anchor="middle" x="892.3911" y="-214.4805" font-family="Times,serif" font-size="25.00" fill="#000000">Шат</text>
</a>
</g>
</g>
<!-- Shot&#45;&gt;Goal net -->
<g id="edge11" class="edge">
<title>Shot&#45;&gt;Goal net</title>
<path fill="none" stroke="#000000" stroke-dasharray="5,2" d="M827.6366,-266.6018C770.976,-282.458 688.2797,-305.6003 626.3567,-322.9292"/>
<polygon fill="#000000" stroke="#000000" points="616.604,-325.6585 625.0213,-318.6299 621.419,-324.311 626.234,-322.9635 626.234,-322.9635 626.234,-322.9635 621.419,-324.311 627.4468,-327.297 616.604,-325.6585 616.604,-325.6585"/>
</g>
<!-- Shot&#45;&gt;Puck -->
<g id="edge3" class="edge">
<title>Shot&#45;&gt;Puck</title>
<path fill="none" stroke="#000000" stroke-dasharray="5,2" d="M831.8147,-218.806C764.4648,-185.8133 655.952,-132.6563 585.7991,-98.2905"/>
<polygon fill="#000000" stroke="#000000" points="576.5891,-93.7788 587.5492,-94.1369 581.0793,-95.9785 585.5695,-98.1781 585.5695,-98.1781 585.5695,-98.1781 581.0793,-95.9785 583.5898,-102.2193 576.5891,-93.7788 576.5891,-93.7788"/>
</g>
<!-- Shot&#45;&gt;Goal -->
<g id="edge2" class="edge">
<title>Shot&#45;&gt;Goal</title>
<path fill="none" stroke="#000000" stroke-dasharray="5,2" d="M875.2406,-183.4421C874.5777,-180.9283 873.9115,-178.4021 873.2453,-175.8757"/>
<polygon fill="#000000" stroke="#000000" points="870.6824,-166.1565 877.5835,-174.6785 871.9573,-170.9913 873.2323,-175.826 873.2323,-175.826 873.2323,-175.826 871.9573,-170.9913 868.881,-176.9734 870.6824,-166.1565 870.6824,-166.1565"/>
</g>
<!-- Hockey -->
<g id="node7" class="node has&#45;pronunciation">
<title>Hockey</title>
<g id="a_node7"><a xlink:href="../hockey.html" xlink:title="Хоккей" target="_top">
<ellipse fill="none" stroke="#c0c0c0" stroke-width=".2" cx="325.601" cy="-183.3625" rx="45.011" ry="45.011"/>
<text text-anchor="middle" x="325.601" y="-196.8625" font-family="Times,serif" font-size="15.00" fill="#000000">Hockey</text>
<text text-anchor="middle" x="325.601" y="-179.8625" font-family="Times,serif" font-size="15.00" fill="#000000">Хоккей</text>
<text text-anchor="middle" x="325.601" y="-162.8625" font-family="Times,serif" font-size="15.00" fill="#000000">ˈХаки</text>
</a>
</g>
</g>
<!-- Hockey&#45;&gt;Goal net -->
<g id="edge12" class="edge">
<title>Hockey&#45;&gt;Goal net</title>
<path fill="none" stroke="#000000" stroke-dasharray="5,2" d="M361.7497,-210.6941C391.5571,-233.2312 434.729,-265.8731 471.3006,-293.5245"/>
<polygon fill="#000000" stroke="#000000" points="479.4765,-299.7062 468.7859,-297.2646 475.4882,-296.6906 471.4999,-293.6751 471.4999,-293.6751 471.4999,-293.6751 475.4882,-296.6906 474.2138,-290.0856 479.4765,-299.7062 479.4765,-299.7062"/>
</g>
<!-- Hockey&#45;&gt;Puck -->
<g id="edge5" class="edge">
<title>Hockey&#45;&gt;Puck</title>
<path fill="none" stroke="#000000" stroke-dasharray="5,2" d="M364.5259,-159.421C390.1037,-143.6888 424.1755,-122.7323 453.7133,-104.5645"/>
<polygon fill="#000000" stroke="#000000" points="462.3155,-99.2736 456.1552,-108.3457 458.0566,-101.8931 453.7977,-104.5127 453.7977,-104.5127 453.7977,-104.5127 458.0566,-101.8931 451.4401,-100.6797 462.3155,-99.2736 462.3155,-99.2736"/>
</g>
<!-- Hockey&#45;&gt;Goal -->
<g id="edge6" class="edge">
<title>Hockey&#45;&gt;Goal</title>
<path fill="none" stroke="#000000" stroke-dasharray="5,2" d="M370.6566,-176.519C461.6645,-162.6957 668.2046,-131.3241 779.5715,-114.4085"/>
<polygon fill="#000000" stroke="#000000" points="789.717,-112.8675 780.5062,-118.8183 784.7737,-113.6184 779.8304,-114.3693 779.8304,-114.3693 779.8304,-114.3693 784.7737,-113.6184 779.1546,-109.9203 789.717,-112.8675 789.717,-112.8675"/>
</g>
<!-- Hockey&#45;&gt;Shot -->
<g id="edge4" class="edge">
<title>Hockey&#45;&gt;Shot</title>
<path fill="none" stroke="#000000" stroke-dasharray="5,2" d="M371.0258,-188.5813C467.7656,-199.6957 695.0697,-225.8104 815.0676,-239.5969"/>
<polygon fill="#000000" stroke="#000000" points="825.2805,-240.7702 814.8322,-244.0994 820.3132,-240.1995 815.3459,-239.6288 815.3459,-239.6288 815.3459,-239.6288 820.3132,-240.1995 815.8596,-235.1582 825.2805,-240.7702 825.2805,-240.7702"/>
</g>
</g>
</svg>
