<?xml version="1.0" encoding="UTF-8" standalone="no"?>
<?xml-stylesheet href="../static/svg.css" type="text/css"?>
<!DOCTYPE svg PUBLIC "-//W3C//DTD SVG 1.1//EN"
 "http://www.w3.org/Graphics/SVG/1.1/DTD/svg11.dtd">
<!-- Generated by graphviz version 2.40.1 (20161225.0304)
 -->
<!-- Title: term Pages: 1 -->
<svg width="1370pt" height="838pt"
 viewBox="0.00 0.00 1370.26 837.54" xmlns="http://www.w3.org/2000/svg" xmlns:xlink="http://www.w3.org/1999/xlink">
<g id="graph0" class="graph" transform="scale(1 1) rotate(0) translate(4 833.5383)">
<title>term</title>
<!-- Shot -->
<g id="node1" class="node root has&#45;pronunciation">
<title>Shot</title>
<g id="a_node1"><a xlink:href="javascript:history.back()" xlink:title="Бросок" target="_top">
<ellipse fill="none" stroke="#c0c0c0" stroke-width=".2" cx="656.8572" cy="-414.3803" rx="67.3507" ry="67.3507"/>
<text text-anchor="middle" x="656.8572" y="-436.3803" font-family="Times,serif" font-size="25.00" fill="#000000">Shot</text>
<text text-anchor="middle" x="656.8572" y="-408.3803" font-family="Times,serif" font-size="25.00" fill="#000000">Бросок</text>
<text text-anchor="middle" x="656.8572" y="-380.3803" font-family="Times,serif" font-size="25.00" fill="#000000">Шат</text>
</a>
</g>
</g>
<!-- Goal -->
<g id="node4" class="node has&#45;pronunciation">
<title>Goal</title>
<g id="a_node4"><a xlink:href="../goal.html" xlink:title="Гол" target="_top">
<ellipse fill="none" stroke="#c0c0c0" stroke-width=".2" cx="248.4213" cy="-682.2814" rx="52.1524" ry="52.1524"/>
<text text-anchor="middle" x="248.4213" y="-699.2814" font-family="Times,serif" font-size="20.00" fill="#000000">Goal</text>
<text text-anchor="middle" x="248.4213" y="-677.2814" font-family="Times,serif" font-size="20.00" fill="#000000">Гол</text>
<text text-anchor="middle" x="248.4213" y="-655.2814" font-family="Times,serif" font-size="20.00" fill="#000000">Гoул</text>
</a>
</g>
</g>
<!-- Shot&#45;&gt;Goal -->
<g id="edge16" class="edge">
<title>Shot&#45;&gt;Goal</title>
<path fill="none" stroke="#000000" stroke-dasharray="5,2" d="M600.4948,-451.3495C521.2654,-503.3176 378.0411,-597.2612 300.9429,-647.8314"/>
<polygon fill="#000000" stroke="#000000" points="292.331,-653.4801 298.2247,-644.2327 296.5119,-650.7378 300.6928,-647.9954 300.6928,-647.9954 300.6928,-647.9954 296.5119,-650.7378 303.1609,-651.7582 292.331,-653.4801 292.331,-653.4801"/>
</g>
<!-- Puck -->
<g id="node5" class="node has&#45;pronunciation">
<title>Puck</title>
<g id="a_node5"><a xlink:href="../puck.html" xlink:title="Шайба" target="_top">
<ellipse fill="none" stroke="#c0c0c0" stroke-width=".2" cx="491.6223" cy="-777.2124" rx="52.1524" ry="52.1524"/>
<text text-anchor="middle" x="491.6223" y="-794.2124" font-family="Times,serif" font-size="20.00" fill="#000000">Puck</text>
<text text-anchor="middle" x="491.6223" y="-772.2124" font-family="Times,serif" font-size="20.00" fill="#000000">Шайба</text>
<text text-anchor="middle" x="491.6223" y="-750.2124" font-family="Times,serif" font-size="20.00" fill="#000000">Пак</text>
</a>
</g>
</g>
<!-- Shot&#45;&gt;Puck -->
<g id="edge17" class="edge">
<title>Shot&#45;&gt;Puck</title>
<path fill="none" stroke="#000000" stroke-dasharray="5,2" d="M629.0142,-475.5195C597.9378,-543.7589 548.043,-653.3207 517.7012,-719.9468"/>
<polygon fill="#000000" stroke="#000000" points="513.371,-729.4553 513.4202,-718.4895 515.4433,-724.905 517.5156,-720.3546 517.5156,-720.3546 517.5156,-720.3546 515.4433,-724.905 521.6109,-722.2196 513.371,-729.4553 513.371,-729.4553"/>
</g>
<!-- Stick -->
<g id="node6" class="node has&#45;pronunciation">
<title>Stick</title>
<g id="a_node6"><a xlink:href="../stick.html" xlink:title="Клюшка" target="_top">
<ellipse fill="none" stroke="#c0c0c0" stroke-width=".2" cx="922.7994" cy="-758.2684" rx="48.5816" ry="48.5816"/>
<text text-anchor="middle" x="922.7994" y="-771.7684" font-family="Times,serif" font-size="15.00" fill="#000000">Stick</text>
<text text-anchor="middle" x="922.7994" y="-754.7684" font-family="Times,serif" font-size="15.00" fill="#000000">Клюшка</text>
<text text-anchor="middle" x="922.7994" y="-737.7684" font-family="Times,serif" font-size="15.00" fill="#000000">Стик</text>
</a>
</g>
</g>
<!-- Shot&#45;&gt;Stick -->
<g id="edge18" class="edge">
<title>Shot&#45;&gt;Stick</title>
<path fill="none" stroke="#000000" stroke-dasharray="5,2" d="M689.8664,-473.1074C721.3859,-526.8745 771.9068,-607.3573 825.5164,-669.9247 840.9636,-687.9531 859.9272,-705.9223 876.9959,-720.9014"/>
<polygon fill="#000000" stroke="#000000" points="884.6856,-727.5628 874.1808,-724.4164 880.9064,-724.289 877.1272,-721.0151 877.1272,-721.0151 877.1272,-721.0151 880.9064,-724.289 880.0737,-717.6139 884.6856,-727.5628 884.6856,-727.5628"/>
</g>
<!-- Goal net -->
<g id="node7" class="node has&#45;pronunciation">
<title>Goal net</title>
<g id="a_node7"><a xlink:href="../goal-net.html" xlink:title="Ворота" target="_top">
<ellipse fill="none" stroke="#c0c0c0" stroke-width=".2" cx="109.5452" cy="-529.0875" rx="62.8651" ry="62.8651"/>
<text text-anchor="middle" x="109.5452" y="-546.0875" font-family="Times,serif" font-size="20.00" fill="#000000">Goal net</text>
<text text-anchor="middle" x="109.5452" y="-524.0875" font-family="Times,serif" font-size="20.00" fill="#000000">Ворота</text>
<text text-anchor="middle" x="109.5452" y="-502.0875" font-family="Times,serif" font-size="20.00" fill="#000000">Гoул нет</text>
</a>
</g>
</g>
<!-- Shot&#45;&gt;Goal net -->
<g id="edge19" class="edge">
<title>Shot&#45;&gt;Goal net</title>
<path fill="none" stroke="#000000" stroke-dasharray="5,2" d="M590.8386,-428.2166C487.4153,-449.8924 288.0044,-491.6855 181.2065,-514.0685"/>
<polygon fill="#000000" stroke="#000000" points="171.1667,-516.1727 180.0309,-509.7171 176.0603,-515.147 180.954,-514.1214 180.954,-514.1214 180.954,-514.1214 176.0603,-515.147 181.8771,-518.5257 171.1667,-516.1727 171.1667,-516.1727"/>
</g>
<!-- Flip shot -->
<g id="node8" class="node has&#45;pronunciation">
<title>Flip shot</title>
<g id="a_node8"><a xlink:href="../flip-shot.html" xlink:title="Подкидка" target="_top">
<ellipse fill="none" stroke="#c0c0c0" stroke-width=".2" cx="1217.4865" cy="-299.6668" rx="55.7232" ry="55.7232"/>
<text text-anchor="middle" x="1217.4865" y="-313.1668" font-family="Times,serif" font-size="15.00" fill="#000000">Flip shot</text>
<text text-anchor="middle" x="1217.4865" y="-296.1668" font-family="Times,serif" font-size="15.00" fill="#000000">Подкидка</text>
<text text-anchor="middle" x="1217.4865" y="-279.1668" font-family="Times,serif" font-size="15.00" fill="#000000">Флип шат</text>
</a>
</g>
</g>
<!-- Shot&#45;&gt;Flip shot -->
<g id="edge20" class="edge">
<title>Shot&#45;&gt;Flip shot</title>
<path fill="none" stroke="#000000" stroke-dasharray="5,2" d="M722.8171,-400.8839C831.0529,-378.7371 1045.0492,-334.9501 1152.5886,-312.9459"/>
<polygon fill="#000000" stroke="#000000" points="1162.6562,-310.8859 1153.7613,-317.2993 1157.7577,-311.8883 1152.8592,-312.8906 1152.8592,-312.8906 1152.8592,-312.8906 1157.7577,-311.8883 1151.9571,-308.482 1162.6562,-310.8859 1162.6562,-310.8859"/>
</g>
<!-- Wrist shot -->
<g id="node9" class="node has&#45;pronunciation">
<title>Wrist shot</title>
<g id="a_node9"><a xlink:href="../wrist-shot.html" xlink:title="Кистевой" target="_top">
<ellipse fill="none" stroke="#c0c0c0" stroke-width=".2" cx="323.2115" cy="-142.3693" rx="56.6372" ry="56.6372"/>
<text text-anchor="middle" x="323.2115" y="-155.8693" font-family="Times,serif" font-size="15.00" fill="#000000">Wrist shot</text>
<text text-anchor="middle" x="323.2115" y="-138.8693" font-family="Times,serif" font-size="15.00" fill="#000000">Кистевой</text>
<text text-anchor="middle" x="323.2115" y="-121.8693" font-family="Times,serif" font-size="15.00" fill="#000000">Рист шат</text>
</a>
</g>
</g>
<!-- Shot&#45;&gt;Wrist shot -->
<g id="edge21" class="edge">
<title>Shot&#45;&gt;Wrist shot</title>
<path fill="none" stroke="#000000" stroke-dasharray="5,2" d="M604.7251,-371.8786C542.0667,-320.7951 437.5694,-235.6018 375.0446,-184.6272"/>
<polygon fill="#000000" stroke="#000000" points="367.2589,-178.2798 377.8531,-181.1109 371.1342,-181.4392 375.0096,-184.5987 375.0096,-184.5987 375.0096,-184.5987 371.1342,-181.4392 372.1661,-188.0865 367.2589,-178.2798 367.2589,-178.2798"/>
</g>
<!-- Slapshot -->
<g id="node10" class="node has&#45;pronunciation">
<title>Slapshot</title>
<g id="a_node10"><a xlink:href="../slapshot.html" xlink:title="Щелчок" target="_top">
<ellipse fill="none" stroke="#c0c0c0" stroke-width=".2" cx="985.1794" cy="-147.9148" rx="50.8235" ry="50.8235"/>
<text text-anchor="middle" x="985.1794" y="-161.4148" font-family="Times,serif" font-size="15.00" fill="#000000">Slapshot</text>
<text text-anchor="middle" x="985.1794" y="-144.4148" font-family="Times,serif" font-size="15.00" fill="#000000">Щелчок</text>
<text text-anchor="middle" x="985.1794" y="-127.4148" font-family="Times,serif" font-size="15.00" fill="#000000">Слэпшат</text>
</a>
</g>
</g>
<!-- Shot&#45;&gt;Slapshot -->
<g id="edge22" class="edge">
<title>Shot&#45;&gt;Slapshot</title>
<path fill="none" stroke="#000000" stroke-dasharray="5,2" d="M709.2439,-371.8634C772.1389,-320.818 876.7207,-235.9396 937.4624,-186.6418"/>
<polygon fill="#000000" stroke="#000000" points="945.3711,-180.2231 940.4423,-190.0189 941.4888,-183.374 937.6065,-186.5249 937.6065,-186.5249 937.6065,-186.5249 941.4888,-183.374 934.7707,-183.0308 945.3711,-180.2231 945.3711,-180.2231"/>
</g>
<!-- Snap shot -->
<g id="node11" class="node has&#45;pronunciation">
<title>Snap shot</title>
<g id="a_node11"><a xlink:href="../snap-shot.html" xlink:title="Короткий щелчок" target="_top">
<ellipse fill="none" stroke="#c0c0c0" stroke-width=".2" cx="656.5941" cy="-91.9239" rx="91.8478" ry="91.8478"/>
<text text-anchor="middle" x="656.5941" y="-105.4239" font-family="Times,serif" font-size="15.00" fill="#000000">Snap shot</text>
<text text-anchor="middle" x="656.5941" y="-88.4239" font-family="Times,serif" font-size="15.00" fill="#000000">Короткий щелчок</text>
<text text-anchor="middle" x="656.5941" y="-71.4239" font-family="Times,serif" font-size="15.00" fill="#000000">Снэп шат</text>
</a>
</g>
</g>
<!-- Shot&#45;&gt;Snap shot -->
<g id="edge23" class="edge">
<title>Shot&#45;&gt;Snap shot</title>
<path fill="none" stroke="#000000" stroke-dasharray="5,2" d="M656.8024,-347.1754C656.7663,-302.9695 656.7184,-244.2682 656.6776,-194.3054"/>
<polygon fill="#000000" stroke="#000000" points="656.6693,-184.1111 661.1776,-194.1074 656.6734,-189.1111 656.6776,-194.1111 656.6776,-194.1111 656.6776,-194.1111 656.6734,-189.1111 652.1776,-194.1148 656.6693,-184.1111 656.6693,-184.1111"/>
</g>
<!-- Backhand shot -->
<g id="node12" class="node has&#45;pronunciation">
<title>Backhand shot</title>
<g id="a_node12"><a xlink:href="../backhand-shot.html" xlink:title="С неудобной" target="_top">
<ellipse fill="none" stroke="#c0c0c0" stroke-width=".2" cx="75.6604" cy="-278.5526" rx="75.8212" ry="75.8212"/>
<text text-anchor="middle" x="75.6604" y="-292.0526" font-family="Times,serif" font-size="15.00" fill="#000000">Backhand shot</text>
<text text-anchor="middle" x="75.6604" y="-275.0526" font-family="Times,serif" font-size="15.00" fill="#000000">С неудобной</text>
<text text-anchor="middle" x="75.6604" y="-258.0526" font-family="Times,serif" font-size="15.00" fill="#000000">ˈБэкˌхэнд шат</text>
</a>
</g>
</g>
<!-- Shot&#45;&gt;Backhand shot -->
<g id="edge24" class="edge">
<title>Shot&#45;&gt;Backhand shot</title>
<path fill="none" stroke="#000000" stroke-dasharray="5,2" d="M591.3163,-399.0631C485.3061,-374.2882 276.3378,-325.4516 159.5934,-298.1681"/>
<polygon fill="#000000" stroke="#000000" points="149.6255,-295.8385 160.3872,-293.7324 154.4943,-296.9764 159.3631,-298.1143 159.3631,-298.1143 159.3631,-298.1143 154.4943,-296.9764 158.339,-302.4962 149.6255,-295.8385 149.6255,-295.8385"/>
</g>
<!-- One&#45;timer -->
<g id="node13" class="node has&#45;pronunciation">
<title>One&#45;timer</title>
<g id="a_node13"><a xlink:href="../one-timer.html" xlink:title="В одно касание" target="_top">
<ellipse fill="none" stroke="#c0c0c0" stroke-width=".2" cx="1282.3572" cy="-501.0262" rx="79.8063" ry="79.8063"/>
<text text-anchor="middle" x="1282.3572" y="-514.5262" font-family="Times,serif" font-size="15.00" fill="#000000">One&#45;timer</text>
<text text-anchor="middle" x="1282.3572" y="-497.5262" font-family="Times,serif" font-size="15.00" fill="#000000">В одно касание</text>
<text text-anchor="middle" x="1282.3572" y="-480.5262" font-family="Times,serif" font-size="15.00" fill="#000000">Уан&#45;ˈтаймэр</text>
</a>
</g>
</g>
<!-- Shot&#45;&gt;One&#45;timer -->
<g id="edge25" class="edge">
<title>Shot&#45;&gt;One&#45;timer</title>
<path fill="none" stroke="#000000" stroke-dasharray="5,2" d="M723.5003,-423.6119C836.5943,-439.2779 1066.1439,-471.0757 1193.0296,-488.6523"/>
<polygon fill="#000000" stroke="#000000" points="1203.108,-490.0484 1192.5851,-493.1336 1198.1553,-489.3623 1193.2026,-488.6762 1193.2026,-488.6762 1193.2026,-488.6762 1198.1553,-489.3623 1193.8201,-484.2187 1203.108,-490.0484 1203.108,-490.0484"/>
</g>
<!-- Player -->
<g id="node2" class="node has&#45;pronunciation">
<title>Player</title>
<g id="a_node2"><a xlink:href="../player.html" xlink:title="Игрок" target="_top">
<ellipse fill="none" stroke="#c0c0c0" stroke-width=".2" cx="859.8498" cy="-635.9966" rx="46.8387" ry="46.8387"/>
<text text-anchor="middle" x="859.8498" y="-649.4966" font-family="Times,serif" font-size="15.00" fill="#000000">Player</text>
<text text-anchor="middle" x="859.8498" y="-632.4966" font-family="Times,serif" font-size="15.00" fill="#000000">Игрок</text>
<text text-anchor="middle" x="859.8498" y="-615.4966" font-family="Times,serif" font-size="15.00" fill="#000000">&#39;Плейэр</text>
</a>
</g>
</g>
<!-- Player&#45;&gt;Shot -->
<g id="edge14" class="edge">
<title>Player&#45;&gt;Shot</title>
<path fill="none" stroke="#000000" stroke-dasharray="5,2" d="M828.1322,-601.3691C796.3253,-566.6439 746.7979,-512.5727 709.1674,-471.4897"/>
<polygon fill="#000000" stroke="#000000" points="702.2864,-463.9773 712.3592,-468.312 705.6636,-467.6644 709.0408,-471.3515 709.0408,-471.3515 709.0408,-471.3515 705.6636,-467.6644 705.7224,-474.391 702.2864,-463.9773 702.2864,-463.9773"/>
</g>
<!-- Player&#45;&gt;Goal -->
<g id="edge1" class="edge">
<title>Player&#45;&gt;Goal</title>
<path fill="none" stroke="#000000" stroke-dasharray="5,2" d="M813.1397,-639.5326C704.2573,-647.7749 433.548,-668.2674 310.7538,-677.5628"/>
<polygon fill="#000000" stroke="#000000" points="300.7552,-678.3197 310.387,-673.0776 305.741,-677.9423 310.7267,-677.5648 310.7267,-677.5648 310.7267,-677.5648 305.741,-677.9423 311.0664,-682.052 300.7552,-678.3197 300.7552,-678.3197"/>
</g>
<!-- Hockey -->
<g id="node3" class="node has&#45;pronunciation">
<title>Hockey</title>
<g id="a_node3"><a xlink:href="../hockey.html" xlink:title="Хоккей" target="_top">
<ellipse fill="none" stroke="#c0c0c0" stroke-width=".2" cx="517.6007" cy="-599.0473" rx="45.011" ry="45.011"/>
<text text-anchor="middle" x="517.6007" y="-612.5473" font-family="Times,serif" font-size="15.00" fill="#000000">Hockey</text>
<text text-anchor="middle" x="517.6007" y="-595.5473" font-family="Times,serif" font-size="15.00" fill="#000000">Хоккей</text>
<text text-anchor="middle" x="517.6007" y="-578.5473" font-family="Times,serif" font-size="15.00" fill="#000000">ˈХаки</text>
</a>
</g>
</g>
<!-- Hockey&#45;&gt;Shot -->
<g id="edge15" class="edge">
<title>Hockey&#45;&gt;Shot</title>
<path fill="none" stroke="#000000" stroke-dasharray="5,2" d="M545.1133,-562.563C563.582,-538.0718 588.3831,-505.1833 609.9282,-476.6125"/>
<polygon fill="#000000" stroke="#000000" points="616.2041,-468.29 613.7761,-478.9838 613.1937,-472.2822 610.1832,-476.2743 610.1832,-476.2743 610.1832,-476.2743 613.1937,-472.2822 606.5903,-473.5649 616.2041,-468.29 616.2041,-468.29"/>
</g>
<!-- Hockey&#45;&gt;Player -->
<g id="edge2" class="edge">
<title>Hockey&#45;&gt;Player</title>
<path fill="none" stroke="#000000" stroke-dasharray="5,2" d="M562.6958,-603.9158C624.5913,-610.598 735.8481,-622.6094 803.2617,-629.8874"/>
<polygon fill="#000000" stroke="#000000" points="813.2845,-630.9694 802.8592,-634.37 808.3134,-630.4327 803.3423,-629.896 803.3423,-629.896 803.3423,-629.896 808.3134,-630.4327 803.8253,-625.422 813.2845,-630.9694 813.2845,-630.9694"/>
</g>
<!-- Hockey&#45;&gt;Goal -->
<g id="edge6" class="edge">
<title>Hockey&#45;&gt;Goal</title>
<path fill="none" stroke="#000000" stroke-dasharray="5,2" d="M474.3524,-612.4203C429.35,-626.3357 358.5507,-648.2278 308.2101,-663.7938"/>
<polygon fill="#000000" stroke="#000000" points="298.4284,-666.8185 306.6527,-659.5651 303.2053,-665.3414 307.9821,-663.8643 307.9821,-663.8643 307.9821,-663.8643 303.2053,-665.3414 309.3115,-668.1634 298.4284,-666.8185 298.4284,-666.8185"/>
</g>
<!-- Hockey&#45;&gt;Puck -->
<g id="edge4" class="edge">
<title>Hockey&#45;&gt;Puck</title>
<path fill="none" stroke="#000000" stroke-dasharray="5,2" d="M511.0453,-644.0059C507.9028,-665.5572 504.0883,-691.7181 500.6744,-715.1309"/>
<polygon fill="#000000" stroke="#000000" points="499.1887,-725.3206 496.1787,-714.7759 499.9102,-720.3729 500.6316,-715.4252 500.6316,-715.4252 500.6316,-715.4252 499.9102,-720.3729 505.0845,-716.0745 499.1887,-725.3206 499.1887,-725.3206"/>
</g>
<!-- Hockey&#45;&gt;Stick -->
<g id="edge3" class="edge">
<title>Hockey&#45;&gt;Stick</title>
<path fill="none" stroke="#000000" stroke-dasharray="5,2" d="M559.8174,-615.6361C633.5417,-644.6058 785.6968,-704.3945 867.647,-736.5965"/>
<polygon fill="#000000" stroke="#000000" points="877.2829,-740.3829 866.3299,-740.9138 872.6293,-738.5542 867.9757,-736.7256 867.9757,-736.7256 867.9757,-736.7256 872.6293,-738.5542 869.6214,-732.5373 877.2829,-740.3829 877.2829,-740.3829"/>
</g>
<!-- Hockey&#45;&gt;Goal net -->
<g id="edge5" class="edge">
<title>Hockey&#45;&gt;Goal net</title>
<path fill="none" stroke="#000000" stroke-dasharray="5,2" d="M472.7644,-591.3602C402.536,-579.3198 265.9338,-555.8998 181.7316,-541.4636"/>
<polygon fill="#000000" stroke="#000000" points="171.7308,-539.749 182.3474,-537.0036 176.6589,-540.5939 181.587,-541.4389 181.587,-541.4389 181.587,-541.4389 176.6589,-540.5939 180.8265,-545.8742 171.7308,-539.749 171.7308,-539.749"/>
</g>
<!-- Goal&#45;&gt;Puck -->
<g id="edge7" class="edge">
<title>Goal&#45;&gt;Puck</title>
<path fill="none" stroke="#000000" stroke-dasharray="5,2" d="M297.3441,-701.3779C336.5929,-716.6982 391.7974,-738.2468 433.334,-754.4602"/>
<polygon fill="#000000" stroke="#000000" points="442.7777,-758.1464 431.8259,-758.7021 438.1199,-756.3283 433.4622,-754.5101 433.4622,-754.5101 433.4622,-754.5101 438.1199,-756.3283 435.0985,-750.3182 442.7777,-758.1464 442.7777,-758.1464"/>
</g>
<!-- Goal&#45;&gt;Goal net -->
<g id="edge8" class="edge">
<title>Goal&#45;&gt;Goal net</title>
<path fill="none" stroke="#000000" stroke-dasharray="5,2" d="M213.0177,-643.2277C196.5569,-625.0699 176.706,-603.1724 158.8121,-583.4337"/>
<polygon fill="#000000" stroke="#000000" points="152.0611,-575.9866 162.1115,-580.3731 155.4193,-579.691 158.7775,-583.3954 158.7775,-583.3954 158.7775,-583.3954 155.4193,-579.691 155.4435,-586.4178 152.0611,-575.9866 152.0611,-575.9866"/>
</g>
<!-- Puck&#45;&gt;Goal net -->
<g id="edge9" class="edge">
<title>Puck&#45;&gt;Goal net</title>
<path fill="none" stroke="#000000" stroke-dasharray="5,2" d="M447.4199,-748.5069C379.3277,-704.2871 248.5642,-619.3679 171.202,-569.128"/>
<polygon fill="#000000" stroke="#000000" points="162.502,-563.4782 173.3397,-565.1506 166.6954,-566.2014 170.8888,-568.9247 170.8888,-568.9247 170.8888,-568.9247 166.6954,-566.2014 168.4379,-572.6987 162.502,-563.4782 162.502,-563.4782"/>
</g>
<!-- Stick&#45;&gt;Puck -->
<g id="edge10" class="edge">
<title>Stick&#45;&gt;Puck</title>
<path fill="none" stroke="#000000" stroke-dasharray="5,2" d="M873.7577,-760.4231C795.0675,-763.8804 640.6875,-770.6631 554.1761,-774.4641"/>
<polygon fill="#000000" stroke="#000000" points="543.9721,-774.9124 553.7649,-769.9777 548.9673,-774.6929 553.9624,-774.4734 553.9624,-774.4734 553.9624,-774.4734 548.9673,-774.6929 554.16,-778.969 543.9721,-774.9124 543.9721,-774.9124"/>
</g>
<!-- Snap shot&#45;&gt;Wrist shot -->
<g id="edge11" class="edge">
<title>Snap shot&#45;&gt;Wrist shot</title>
<path fill="none" stroke="#000000" stroke-dasharray="5,2" d="M565.4958,-105.7083C509.7634,-114.1414 439.7275,-124.7388 389.3072,-132.3681"/>
<polygon fill="#000000" stroke="#000000" points="379.1767,-133.901 388.3909,-127.9555 384.1204,-133.1529 389.0641,-132.4048 389.0641,-132.4048 389.0641,-132.4048 384.1204,-133.1529 389.7374,-136.8542 379.1767,-133.901 379.1767,-133.901"/>
</g>
<!-- Snap shot&#45;&gt;Slapshot -->
<g id="edge12" class="edge">
<title>Snap shot&#45;&gt;Slapshot</title>
<path fill="none" stroke="#000000" stroke-dasharray="5,2" d="M747.2513,-107.3719C803.765,-117.0018 874.9352,-129.1292 924.6484,-137.6003"/>
<polygon fill="#000000" stroke="#000000" points="934.6058,-139.297 923.9919,-142.0532 929.6768,-138.4571 924.7479,-137.6172 924.7479,-137.6172 924.7479,-137.6172 929.6768,-138.4571 925.5038,-133.1811 934.6058,-139.297 934.6058,-139.297"/>
</g>
<!-- Backhand shot&#45;&gt;Wrist shot -->
<g id="edge13" class="edge">
<title>Backhand shot&#45;&gt;Wrist shot</title>
<path fill="none" stroke="#000000" stroke-dasharray="5,2" d="M141.9996,-242.058C180.156,-221.0673 227.6693,-194.9292 264.4701,-174.6843"/>
<polygon fill="#000000" stroke="#000000" points="273.5832,-169.671 266.9905,-178.4338 269.2024,-172.081 264.8215,-174.491 264.8215,-174.491 264.8215,-174.491 269.2024,-172.081 262.6525,-170.5483 273.5832,-169.671 273.5832,-169.671"/>
</g>
</g>
</svg>
