<?xml version="1.0" encoding="UTF-8" standalone="no"?>
<?xml-stylesheet href="../static/svg.css" type="text/css"?>
<!DOCTYPE svg PUBLIC "-//W3C//DTD SVG 1.1//EN"
 "http://www.w3.org/Graphics/SVG/1.1/DTD/svg11.dtd">
<!-- Generated by graphviz version 2.40.1 (20161225.0304)
 -->
<!-- Title: term Pages: 1 -->
<svg width="658pt" height="383pt"
 viewBox="0.00 0.00 658.44 383.16" xmlns="http://www.w3.org/2000/svg" xmlns:xlink="http://www.w3.org/1999/xlink">
<g id="graph0" class="graph" transform="scale(1 1) rotate(0) translate(4 379.1578)">
<title>term</title>
<!-- Goal -->
<g id="node1" class="node root has&#45;pronunciation">
<title>Goal</title>
<g id="a_node1"><a xlink:href="javascript:history.back()" xlink:title="Гол" target="_top">
<ellipse fill="none" stroke="#c0c0c0" stroke-width=".2" cx="309.7896" cy="-164.7294" rx="65.1077" ry="65.1077"/>
<text text-anchor="middle" x="309.7896" y="-186.7294" font-family="Times,serif" font-size="25.00" fill="#000000">Goal</text>
<text text-anchor="middle" x="309.7896" y="-158.7294" font-family="Times,serif" font-size="25.00" fill="#000000">Гол</text>
<text text-anchor="middle" x="309.7896" y="-130.7294" font-family="Times,serif" font-size="25.00" fill="#000000">Гoул</text>
</a>
</g>
</g>
<!-- Puck -->
<g id="node6" class="node has&#45;pronunciation">
<title>Puck</title>
<g id="a_node6"><a xlink:href="../puck.html" xlink:title="Шайба" target="_top">
<ellipse fill="none" stroke="#c0c0c0" stroke-width=".2" cx="65.0538" cy="-263.1332" rx="65.1077" ry="65.1077"/>
<text text-anchor="middle" x="65.0538" y="-285.1332" font-family="Times,serif" font-size="25.00" fill="#000000">Puck</text>
<text text-anchor="middle" x="65.0538" y="-257.1332" font-family="Times,serif" font-size="25.00" fill="#000000">Шайба</text>
<text text-anchor="middle" x="65.0538" y="-229.1332" font-family="Times,serif" font-size="25.00" fill="#000000">Пак</text>
</a>
</g>
</g>
<!-- Goal&#45;&gt;Puck -->
<g id="edge11" class="edge">
<title>Goal&#45;&gt;Puck</title>
<path fill="none" stroke="#000000" stroke-dasharray="5,2" d="M249.2931,-189.054C214.7296,-202.9513 171.2291,-220.4421 135.1774,-234.9378"/>
<polygon fill="#000000" stroke="#000000" points="125.7026,-238.7475 133.3019,-230.8417 130.3416,-236.8822 134.9807,-235.0169 134.9807,-235.0169 134.9807,-235.0169 130.3416,-236.8822 136.6594,-239.192 125.7026,-238.7475 125.7026,-238.7475"/>
</g>
<!-- Goal net -->
<g id="node7" class="node has&#45;pronunciation">
<title>Goal net</title>
<g id="a_node7"><a xlink:href="../goal-net.html" xlink:title="Ворота" target="_top">
<ellipse fill="none" stroke="#c0c0c0" stroke-width=".2" cx="103.9258" cy="-112.2977" rx="77.5641" ry="77.5641"/>
<text text-anchor="middle" x="103.9258" y="-134.2977" font-family="Times,serif" font-size="25.00" fill="#000000">Goal net</text>
<text text-anchor="middle" x="103.9258" y="-106.2977" font-family="Times,serif" font-size="25.00" fill="#000000">Ворота</text>
<text text-anchor="middle" x="103.9258" y="-78.2977" font-family="Times,serif" font-size="25.00" fill="#000000">Гoул нет</text>
</a>
</g>
</g>
<!-- Goal&#45;&gt;Goal net -->
<g id="edge12" class="edge">
<title>Goal&#45;&gt;Goal net</title>
<path fill="none" stroke="#000000" stroke-dasharray="5,2" d="M246.6246,-148.6418C228.6086,-144.0533 208.6719,-138.9756 189.5549,-134.1067"/>
<polygon fill="#000000" stroke="#000000" points="179.6472,-131.5833 190.4486,-129.6907 184.4926,-132.8174 189.3379,-134.0515 189.3379,-134.0515 189.3379,-134.0515 184.4926,-132.8174 188.2272,-138.4123 179.6472,-131.5833 179.6472,-131.5833"/>
</g>
<!-- Score -->
<g id="node2" class="node has&#45;pronunciation">
<title>Score</title>
<g id="a_node2"><a xlink:href="../score.html" xlink:title="Счёт" target="_top">
<ellipse fill="none" stroke="#c0c0c0" stroke-width=".2" cx="585.3879" cy="-131.5413" rx="65.1077" ry="65.1077"/>
<text text-anchor="middle" x="585.3879" y="-153.5413" font-family="Times,serif" font-size="25.00" fill="#000000">Score</text>
<text text-anchor="middle" x="585.3879" y="-125.5413" font-family="Times,serif" font-size="25.00" fill="#000000">Счёт</text>
<text text-anchor="middle" x="585.3879" y="-97.5413" font-family="Times,serif" font-size="25.00" fill="#000000">Скор</text>
</a>
</g>
</g>
<!-- Score&#45;&gt;Goal -->
<g id="edge7" class="edge">
<title>Score&#45;&gt;Goal</title>
<path fill="none" stroke="#000000" stroke-dasharray="5,2" d="M520.7723,-139.3224C479.9728,-144.2356 427.1154,-150.6008 384.5139,-155.7309"/>
<polygon fill="#000000" stroke="#000000" points="374.4772,-156.9396 383.8674,-151.2762 379.4413,-156.3418 384.4055,-155.7439 384.4055,-155.7439 384.4055,-155.7439 379.4413,-156.3418 384.9435,-160.2116 374.4772,-156.9396 374.4772,-156.9396"/>
</g>
<!-- Point -->
<g id="node3" class="node has&#45;pronunciation">
<title>Point</title>
<g id="a_node3"><a xlink:href="../point.html" xlink:title="Очко" target="_top">
<ellipse fill="none" stroke="#c0c0c0" stroke-width=".2" cx="452.6031" cy="-41.7193" rx="41.9398" ry="41.9398"/>
<text text-anchor="middle" x="452.6031" y="-55.2193" font-family="Times,serif" font-size="15.00" fill="#000000">Point</text>
<text text-anchor="middle" x="452.6031" y="-38.2193" font-family="Times,serif" font-size="15.00" fill="#000000">Очко</text>
<text text-anchor="middle" x="452.6031" y="-21.2193" font-family="Times,serif" font-size="15.00" fill="#000000">Пойнт</text>
</a>
</g>
</g>
<!-- Score&#45;&gt;Point -->
<g id="edge1" class="edge">
<title>Score&#45;&gt;Point</title>
<path fill="none" stroke="#000000" stroke-dasharray="5,2" d="M531.3792,-95.0072C519.5926,-87.0342 507.2662,-78.696 495.9576,-71.0464"/>
<polygon fill="#000000" stroke="#000000" points="487.5342,-65.3483 498.3384,-67.224 491.6756,-68.1498 495.8171,-70.9513 495.8171,-70.9513 495.8171,-70.9513 491.6756,-68.1498 493.2957,-74.6786 487.5342,-65.3483 487.5342,-65.3483"/>
</g>
<!-- Point&#45;&gt;Goal -->
<g id="edge8" class="edge">
<title>Point&#45;&gt;Goal</title>
<path fill="none" stroke="#000000" stroke-dasharray="5,2" d="M420.9082,-69.0192C405.0893,-82.6445 385.4579,-99.5537 367.117,-115.3513"/>
<polygon fill="#000000" stroke="#000000" points="359.3505,-122.0409 363.9906,-112.1051 363.139,-118.7778 366.9274,-115.5147 366.9274,-115.5147 366.9274,-115.5147 363.139,-118.7778 369.8642,-118.9243 359.3505,-122.0409 359.3505,-122.0409"/>
</g>
<!-- Player -->
<g id="node4" class="node has&#45;pronunciation">
<title>Player</title>
<g id="a_node4"><a xlink:href="../player.html" xlink:title="Игрок" target="_top">
<ellipse fill="none" stroke="#c0c0c0" stroke-width=".2" cx="454.0118" cy="-294.5131" rx="46.8387" ry="46.8387"/>
<text text-anchor="middle" x="454.0118" y="-308.0131" font-family="Times,serif" font-size="15.00" fill="#000000">Player</text>
<text text-anchor="middle" x="454.0118" y="-291.0131" font-family="Times,serif" font-size="15.00" fill="#000000">Игрок</text>
<text text-anchor="middle" x="454.0118" y="-274.0131" font-family="Times,serif" font-size="15.00" fill="#000000">&#39;Плейэр</text>
</a>
</g>
</g>
<!-- Point&#45;&gt;Player -->
<g id="edge2" class="edge">
<title>Point&#45;&gt;Player</title>
<path fill="none" stroke="#000000" stroke-dasharray="5,2" d="M452.8357,-83.4631C453.0697,-125.4438 453.4321,-190.4826 453.6928,-237.2645"/>
<polygon fill="#000000" stroke="#000000" points="453.7501,-247.5477 449.1944,-237.573 453.7222,-242.5478 453.6943,-237.5479 453.6943,-237.5479 453.6943,-237.5479 453.7222,-242.5478 458.1942,-237.5228 453.7501,-247.5477 453.7501,-247.5477"/>
</g>
<!-- Player&#45;&gt;Goal -->
<g id="edge9" class="edge">
<title>Player&#45;&gt;Goal</title>
<path fill="none" stroke="#000000" stroke-dasharray="5,2" d="M419.0997,-263.0961C403.1248,-248.7205 383.7959,-231.3268 365.8614,-215.1877"/>
<polygon fill="#000000" stroke="#000000" points="358.2743,-208.3602 368.7179,-211.7044 361.991,-211.7048 365.7077,-215.0494 365.7077,-215.0494 365.7077,-215.0494 361.991,-211.7048 362.6976,-218.3944 358.2743,-208.3602 358.2743,-208.3602"/>
</g>
<!-- Hockey -->
<g id="node5" class="node has&#45;pronunciation">
<title>Hockey</title>
<g id="a_node5"><a xlink:href="../hockey.html" xlink:title="Хоккей" target="_top">
<ellipse fill="none" stroke="#c0c0c0" stroke-width=".2" cx="228.6739" cy="-329.903" rx="45.011" ry="45.011"/>
<text text-anchor="middle" x="228.6739" y="-343.403" font-family="Times,serif" font-size="15.00" fill="#000000">Hockey</text>
<text text-anchor="middle" x="228.6739" y="-326.403" font-family="Times,serif" font-size="15.00" fill="#000000">Хоккей</text>
<text text-anchor="middle" x="228.6739" y="-309.403" font-family="Times,serif" font-size="15.00" fill="#000000">ˈХаки</text>
</a>
</g>
</g>
<!-- Hockey&#45;&gt;Goal -->
<g id="edge10" class="edge">
<title>Hockey&#45;&gt;Goal</title>
<path fill="none" stroke="#000000" stroke-dasharray="5,2" d="M248.725,-289.0735C257.1492,-271.9195 267.1753,-251.5037 276.6434,-232.2239"/>
<polygon fill="#000000" stroke="#000000" points="281.0913,-223.1668 280.7224,-234.1265 278.8873,-227.6548 276.6832,-232.1428 276.6832,-232.1428 276.6832,-232.1428 278.8873,-227.6548 272.644,-230.1592 281.0913,-223.1668 281.0913,-223.1668"/>
</g>
<!-- Hockey&#45;&gt;Player -->
<g id="edge3" class="edge">
<title>Hockey&#45;&gt;Player</title>
<path fill="none" stroke="#000000" stroke-dasharray="5,2" d="M273.4629,-322.8687C309.1628,-317.262 359.3586,-309.3786 397.7647,-303.3469"/>
<polygon fill="#000000" stroke="#000000" points="407.7595,-301.7771 398.5788,-307.7742 402.8201,-302.5529 397.8806,-303.3287 397.8806,-303.3287 397.8806,-303.3287 402.8201,-302.5529 397.1824,-298.8832 407.7595,-301.7771 407.7595,-301.7771"/>
</g>
<!-- Hockey&#45;&gt;Puck -->
<g id="edge4" class="edge">
<title>Hockey&#45;&gt;Puck</title>
<path fill="none" stroke="#000000" stroke-dasharray="5,2" d="M186.5377,-312.7081C170.8789,-306.3181 152.6615,-298.884 135.172,-291.7469"/>
<polygon fill="#000000" stroke="#000000" points="125.5513,-287.8209 136.5103,-287.4328 130.1807,-289.7101 134.8101,-291.5993 134.8101,-291.5993 134.8101,-291.5993 130.1807,-289.7101 133.1098,-295.7657 125.5513,-287.8209 125.5513,-287.8209"/>
</g>
<!-- Hockey&#45;&gt;Goal net -->
<g id="edge5" class="edge">
<title>Hockey&#45;&gt;Goal net</title>
<path fill="none" stroke="#000000" stroke-dasharray="5,2" d="M206.083,-290.4963C189.9052,-262.2765 167.5994,-223.3672 147.9574,-189.1045"/>
<polygon fill="#000000" stroke="#000000" points="142.7617,-180.0414 151.6392,-186.4788 145.2485,-184.3791 147.7353,-188.7169 147.7353,-188.7169 147.7353,-188.7169 145.2485,-184.3791 143.8313,-190.955 142.7617,-180.0414 142.7617,-180.0414"/>
</g>
<!-- Puck&#45;&gt;Goal net -->
<g id="edge6" class="edge">
<title>Puck&#45;&gt;Goal net</title>
<path fill="none" stroke="#000000" stroke-dasharray="5,2" d="M81.3138,-200.0393C81.5089,-199.2825 81.7043,-198.524 81.9002,-197.7641"/>
<polygon fill="#000000" stroke="#000000" points="84.4596,-187.8328 86.3216,-198.6395 83.2118,-192.6746 81.9639,-197.5164 81.9639,-197.5164 81.9639,-197.5164 83.2118,-192.6746 77.6063,-196.3934 84.4596,-187.8328 84.4596,-187.8328"/>
</g>
</g>
</svg>
