<?xml version="1.0" encoding="UTF-8" standalone="no"?>
<?xml-stylesheet href="../static/svg.css" type="text/css"?>
<!DOCTYPE svg PUBLIC "-//W3C//DTD SVG 1.1//EN"
 "http://www.w3.org/Graphics/SVG/1.1/DTD/svg11.dtd">
<!-- Generated by graphviz version 2.40.1 (20161225.0304)
 -->
<!-- Title: term Pages: 1 -->
<svg width="375pt" height="258pt"
 viewBox="0.00 0.00 375.00 257.83" xmlns="http://www.w3.org/2000/svg" xmlns:xlink="http://www.w3.org/1999/xlink">
<g id="graph0" class="graph" transform="scale(1 1) rotate(0) translate(4 253.8305)">
<title>term</title>
<!-- Period -->
<g id="node1" class="node root has&#45;pronunciation">
<title>Period</title>
<g id="a_node1"><a xlink:href="javascript:history.back()" xlink:title="Период" target="_top">
<ellipse fill="none" stroke="#c0c0c0" stroke-width=".2" cx="48.7904" cy="-196.5259" rx="48.5816" ry="48.5816"/>
<text text-anchor="middle" x="48.7904" y="-210.0259" font-family="Times,serif" font-size="15.00" fill="#000000">Period</text>
<text text-anchor="middle" x="48.7904" y="-193.0259" font-family="Times,serif" font-size="15.00" fill="#000000">Период</text>
<text text-anchor="middle" x="48.7904" y="-176.0259" font-family="Times,serif" font-size="15.00" fill="#000000">ˈПириэд</text>
</a>
</g>
</g>
<!-- Game -->
<g id="node2" class="node has&#45;pronunciation">
<title>Game</title>
<g id="a_node2"><a xlink:href="../game.html" xlink:title="Игра" target="_top">
<ellipse fill="none" stroke="#c0c0c0" stroke-width=".2" cx="314.6705" cy="-197.5046" rx="52.1524" ry="52.1524"/>
<text text-anchor="middle" x="314.6705" y="-214.5046" font-family="Times,serif" font-size="20.00" fill="#000000">Game</text>
<text text-anchor="middle" x="314.6705" y="-192.5046" font-family="Times,serif" font-size="20.00" fill="#000000">Игра</text>
<text text-anchor="middle" x="314.6705" y="-170.5046" font-family="Times,serif" font-size="20.00" fill="#000000">Гейм</text>
</a>
</g>
</g>
<!-- Game&#45;&gt;Period -->
<g id="edge2" class="edge">
<title>Game&#45;&gt;Period</title>
<path fill="none" stroke="#000000" stroke-dasharray="5,2" d="M262.1412,-197.3113C217.6806,-197.1476 153.9993,-196.9132 107.7927,-196.7431"/>
<polygon fill="#000000" stroke="#000000" points="97.6246,-196.7057 107.6412,-192.2426 102.6246,-196.7241 107.6245,-196.7426 107.6245,-196.7426 107.6245,-196.7426 102.6246,-196.7241 107.6079,-201.2425 97.6246,-196.7057 97.6246,-196.7057"/>
</g>
<!-- Overtime -->
<g id="node3" class="node has&#45;pronunciation">
<title>Overtime</title>
<g id="a_node3"><a xlink:href="../overtime.html" xlink:title="Овертайм" target="_top">
<ellipse fill="none" stroke="#c0c0c0" stroke-width=".2" cx="183.5308" cy="-68.5894" rx="68.6788" ry="68.6788"/>
<text text-anchor="middle" x="183.5308" y="-82.0894" font-family="Times,serif" font-size="15.00" fill="#000000">Overtime</text>
<text text-anchor="middle" x="183.5308" y="-65.0894" font-family="Times,serif" font-size="15.00" fill="#000000">Овертайм</text>
<text text-anchor="middle" x="183.5308" y="-48.0894" font-family="Times,serif" font-size="15.00" fill="#000000">ˈОувэрˌтайм</text>
</a>
</g>
</g>
<!-- Game&#45;&gt;Overtime -->
<g id="edge1" class="edge">
<title>Game&#45;&gt;Overtime</title>
<path fill="none" stroke="#000000" stroke-dasharray="5,2" d="M277.0912,-160.5627C265.5762,-149.243 252.6433,-136.5295 240.152,-124.2501"/>
<polygon fill="#000000" stroke="#000000" points="232.8624,-117.0842 243.1484,-120.8854 236.4281,-120.5894 239.9937,-124.0945 239.9937,-124.0945 239.9937,-124.0945 236.4281,-120.5894 236.8391,-127.3036 232.8624,-117.0842 232.8624,-117.0842"/>
</g>
<!-- Overtime&#45;&gt;Period -->
<g id="edge3" class="edge">
<title>Overtime&#45;&gt;Period</title>
<path fill="none" stroke="#000000" stroke-dasharray="5,2" d="M133.7413,-115.8647C119.9522,-128.9575 105.1067,-143.0533 91.7434,-155.7418"/>
<polygon fill="#000000" stroke="#000000" points="84.488,-162.6308 88.6413,-152.4819 88.1139,-159.188 91.7398,-155.7452 91.7398,-155.7452 91.7398,-155.7452 88.1139,-159.188 94.8384,-159.0085 84.488,-162.6308 84.488,-162.6308"/>
</g>
</g>
</svg>
