<?xml version="1.0" encoding="UTF-8" standalone="no"?>
<?xml-stylesheet href="../static/svg.css" type="text/css"?>
<!DOCTYPE svg PUBLIC "-//W3C//DTD SVG 1.1//EN"
 "http://www.w3.org/Graphics/SVG/1.1/DTD/svg11.dtd">
<!-- Generated by graphviz version 2.40.1 (20161225.0304)
 -->
<!-- Title: term Pages: 1 -->
<svg width="355pt" height="244pt"
 viewBox="0.00 0.00 355.27 243.69" xmlns="http://www.w3.org/2000/svg" xmlns:xlink="http://www.w3.org/1999/xlink">
<g id="graph0" class="graph" transform="scale(1 1) rotate(0) translate(4 239.6884)">
<title>term</title>
<!-- Stick -->
<g id="node1" class="node root has&#45;pronunciation">
<title>Stick</title>
<g id="a_node1"><a xlink:href="javascript:history.back()" xlink:title="Клюшка" target="_top">
<ellipse fill="none" stroke="#c0c0c0" stroke-width=".2" cx="48.7904" cy="-186.898" rx="48.5816" ry="48.5816"/>
<text text-anchor="middle" x="48.7904" y="-200.398" font-family="Times,serif" font-size="15.00" fill="#000000">Stick</text>
<text text-anchor="middle" x="48.7904" y="-183.398" font-family="Times,serif" font-size="15.00" fill="#000000">Клюшка</text>
<text text-anchor="middle" x="48.7904" y="-166.398" font-family="Times,serif" font-size="15.00" fill="#000000">Стик</text>
</a>
</g>
</g>
<!-- Puck -->
<g id="node3" class="node has&#45;pronunciation">
<title>Puck</title>
<g id="a_node3"><a xlink:href="../puck.html" xlink:title="Шайба" target="_top">
<ellipse fill="none" stroke="#c0c0c0" stroke-width=".2" cx="177.1181" cy="-65.0538" rx="65.1077" ry="65.1077"/>
<text text-anchor="middle" x="177.1181" y="-87.0538" font-family="Times,serif" font-size="25.00" fill="#000000">Puck</text>
<text text-anchor="middle" x="177.1181" y="-59.0538" font-family="Times,serif" font-size="25.00" fill="#000000">Шайба</text>
<text text-anchor="middle" x="177.1181" y="-31.0538" font-family="Times,serif" font-size="25.00" fill="#000000">Пак</text>
</a>
</g>
</g>
<!-- Stick&#45;&gt;Puck -->
<g id="edge3" class="edge">
<title>Stick&#45;&gt;Puck</title>
<path fill="none" stroke="#000000" stroke-dasharray="5,2" d="M84.1962,-153.281C95.9793,-142.0932 109.3939,-129.3564 122.2939,-117.1082"/>
<polygon fill="#000000" stroke="#000000" points="129.8135,-109.9685 125.66,-120.1174 126.1875,-113.4113 122.5615,-116.854 122.5615,-116.854 122.5615,-116.854 126.1875,-113.4113 119.4631,-113.5907 129.8135,-109.9685 129.8135,-109.9685"/>
</g>
<!-- Hockey -->
<g id="node2" class="node has&#45;pronunciation">
<title>Hockey</title>
<g id="a_node2"><a xlink:href="../hockey.html" xlink:title="Хоккей" target="_top">
<ellipse fill="none" stroke="#c0c0c0" stroke-width=".2" cx="302.0165" cy="-187.8301" rx="45.011" ry="45.011"/>
<text text-anchor="middle" x="302.0165" y="-201.3301" font-family="Times,serif" font-size="15.00" fill="#000000">Hockey</text>
<text text-anchor="middle" x="302.0165" y="-184.3301" font-family="Times,serif" font-size="15.00" fill="#000000">Хоккей</text>
<text text-anchor="middle" x="302.0165" y="-167.3301" font-family="Times,serif" font-size="15.00" fill="#000000">ˈХаки</text>
</a>
</g>
</g>
<!-- Hockey&#45;&gt;Stick -->
<g id="edge2" class="edge">
<title>Hockey&#45;&gt;Stick</title>
<path fill="none" stroke="#000000" stroke-dasharray="5,2" d="M256.7448,-187.6635C215.2161,-187.5106 153.4411,-187.2832 108.0073,-187.116"/>
<polygon fill="#000000" stroke="#000000" points="97.995,-187.0791 108.0116,-182.6161 102.995,-187.0976 107.995,-187.116 107.995,-187.116 107.995,-187.116 102.995,-187.0976 107.9784,-191.616 97.995,-187.0791 97.995,-187.0791"/>
</g>
<!-- Hockey&#45;&gt;Puck -->
<g id="edge1" class="edge">
<title>Hockey&#45;&gt;Puck</title>
<path fill="none" stroke="#000000" stroke-dasharray="5,2" d="M269.527,-155.8926C257.6958,-144.2625 243.9845,-130.7841 230.8045,-117.828"/>
<polygon fill="#000000" stroke="#000000" points="223.5522,-110.6989 233.8382,-114.5 227.1179,-114.2041 230.6836,-117.7092 230.6836,-117.7092 230.6836,-117.7092 227.1179,-114.2041 227.529,-120.9183 223.5522,-110.6989 223.5522,-110.6989"/>
</g>
</g>
</svg>
