<?xml version="1.0" encoding="UTF-8" standalone="no"?>
<?xml-stylesheet href="../static/svg.css" type="text/css"?>
<!DOCTYPE svg PUBLIC "-//W3C//DTD SVG 1.1//EN"
 "http://www.w3.org/Graphics/SVG/1.1/DTD/svg11.dtd">
<!-- Generated by graphviz version 2.40.1 (20161225.0304)
 -->
<!-- Title: term Pages: 1 -->
<svg width="981pt" height="585pt"
 viewBox="0.00 0.00 981.35 585.01" xmlns="http://www.w3.org/2000/svg" xmlns:xlink="http://www.w3.org/1999/xlink">
<g id="graph0" class="graph" transform="scale(1 1) rotate(0) translate(4 581.0072)">
<title>term</title>
<!-- Goal -->
<g id="node1" class="node root has&#45;pronunciation">
<title>Goal</title>
<g id="a_node1"><a xlink:href="javascript:history.back()" xlink:title="Гол" target="_top">
<ellipse fill="none" stroke="#c0c0c0" stroke-width=".2" cx="508.888" cy="-270.2099" rx="52.1524" ry="52.1524"/>
<text text-anchor="middle" x="508.888" y="-287.2099" font-family="Times,serif" font-size="20.00" fill="#000000">Goal</text>
<text text-anchor="middle" x="508.888" y="-265.2099" font-family="Times,serif" font-size="20.00" fill="#000000">Гол</text>
<text text-anchor="middle" x="508.888" y="-243.2099" font-family="Times,serif" font-size="20.00" fill="#000000">Гoул</text>
</a>
</g>
</g>
<!-- Puck -->
<g id="node7" class="node has&#45;pronunciation">
<title>Puck</title>
<g id="a_node7"><a xlink:href="../puck.html" xlink:title="Шайба" target="_top">
<ellipse fill="none" stroke="#c0c0c0" stroke-width=".2" cx="52.3259" cy="-127.43" rx="52.1524" ry="52.1524"/>
<text text-anchor="middle" x="52.3259" y="-144.43" font-family="Times,serif" font-size="20.00" fill="#000000">Puck</text>
<text text-anchor="middle" x="52.3259" y="-122.43" font-family="Times,serif" font-size="20.00" fill="#000000">Шайба</text>
<text text-anchor="middle" x="52.3259" y="-100.43" font-family="Times,serif" font-size="20.00" fill="#000000">Пак</text>
</a>
</g>
</g>
<!-- Goal&#45;&gt;Puck -->
<g id="edge16" class="edge">
<title>Goal&#45;&gt;Puck</title>
<path fill="none" stroke="#000000" stroke-dasharray="5,2" d="M458.7218,-254.5215C374.0147,-228.0312 203.0038,-174.5512 112.1761,-146.1468"/>
<polygon fill="#000000" stroke="#000000" points="102.575,-143.1443 113.4623,-141.8342 107.3471,-144.6367 112.1192,-146.1291 112.1192,-146.1291 112.1192,-146.1291 107.3471,-144.6367 110.776,-150.424 102.575,-143.1443 102.575,-143.1443"/>
</g>
<!-- Goal net -->
<g id="node8" class="node has&#45;pronunciation">
<title>Goal net</title>
<g id="a_node8"><a xlink:href="../goal-net.html" xlink:title="Ворота" target="_top">
<ellipse fill="none" stroke="#c0c0c0" stroke-width=".2" cx="319.071" cy="-62.9325" rx="62.8651" ry="62.8651"/>
<text text-anchor="middle" x="319.071" y="-79.9325" font-family="Times,serif" font-size="20.00" fill="#000000">Goal net</text>
<text text-anchor="middle" x="319.071" y="-57.9325" font-family="Times,serif" font-size="20.00" fill="#000000">Ворота</text>
<text text-anchor="middle" x="319.071" y="-35.9325" font-family="Times,serif" font-size="20.00" fill="#000000">Гoул нет</text>
</a>
</g>
</g>
<!-- Goal&#45;&gt;Goal net -->
<g id="edge17" class="edge">
<title>Goal&#45;&gt;Goal net</title>
<path fill="none" stroke="#000000" stroke-dasharray="5,2" d="M473.1849,-231.2226C443.6077,-198.9247 401.2578,-152.6792 368.4344,-116.8366"/>
<polygon fill="#000000" stroke="#000000" points="361.5829,-109.3548 371.6552,-113.6905 364.9597,-113.0422 368.3365,-116.7297 368.3365,-116.7297 368.3365,-116.7297 364.9597,-113.0422 365.0178,-119.7688 361.5829,-109.3548 361.5829,-109.3548"/>
</g>
<!-- Score -->
<g id="node2" class="node has&#45;pronunciation">
<title>Score</title>
<g id="a_node2"><a xlink:href="../score.html" xlink:title="Счёт" target="_top">
<ellipse fill="none" stroke="#c0c0c0" stroke-width=".2" cx="921.0209" cy="-224.6389" rx="52.1524" ry="52.1524"/>
<text text-anchor="middle" x="921.0209" y="-241.6389" font-family="Times,serif" font-size="20.00" fill="#000000">Score</text>
<text text-anchor="middle" x="921.0209" y="-219.6389" font-family="Times,serif" font-size="20.00" fill="#000000">Счёт</text>
<text text-anchor="middle" x="921.0209" y="-197.6389" font-family="Times,serif" font-size="20.00" fill="#000000">Скор</text>
</a>
</g>
</g>
<!-- Score&#45;&gt;Goal -->
<g id="edge11" class="edge">
<title>Score&#45;&gt;Goal</title>
<path fill="none" stroke="#000000" stroke-dasharray="5,2" d="M868.824,-230.4105C792.9038,-238.8053 652.244,-254.3585 571.0652,-263.3347"/>
<polygon fill="#000000" stroke="#000000" points="560.9853,-264.4493 570.4302,-258.8774 565.955,-263.8997 570.9248,-263.3502 570.9248,-263.3502 570.9248,-263.3502 565.955,-263.8997 571.4194,-267.8229 560.9853,-264.4493 560.9853,-264.4493"/>
</g>
<!-- Point -->
<g id="node3" class="node has&#45;pronunciation">
<title>Point</title>
<g id="a_node3"><a xlink:href="../point.html" xlink:title="Очко" target="_top">
<ellipse fill="none" stroke="#c0c0c0" stroke-width=".2" cx="789.8004" cy="-463.6253" rx="41.9398" ry="41.9398"/>
<text text-anchor="middle" x="789.8004" y="-477.1253" font-family="Times,serif" font-size="15.00" fill="#000000">Point</text>
<text text-anchor="middle" x="789.8004" y="-460.1253" font-family="Times,serif" font-size="15.00" fill="#000000">Очко</text>
<text text-anchor="middle" x="789.8004" y="-443.1253" font-family="Times,serif" font-size="15.00" fill="#000000">Пойнт</text>
</a>
</g>
</g>
<!-- Score&#45;&gt;Point -->
<g id="edge1" class="edge">
<title>Score&#45;&gt;Point</title>
<path fill="none" stroke="#000000" stroke-dasharray="5,2" d="M895.7203,-270.7179C872.4767,-313.0504 838.2131,-375.4533 815.0012,-417.7282"/>
<polygon fill="#000000" stroke="#000000" points="810.0788,-426.693 810.9473,-415.7616 812.4853,-422.3102 814.8918,-417.9274 814.8918,-417.9274 814.8918,-417.9274 812.4853,-422.3102 818.8364,-420.0933 810.0788,-426.693 810.0788,-426.693"/>
</g>
<!-- Point&#45;&gt;Goal -->
<g id="edge12" class="edge">
<title>Point&#45;&gt;Goal</title>
<path fill="none" stroke="#000000" stroke-dasharray="5,2" d="M755.3551,-439.9087C706.7207,-406.4227 617.5445,-345.0226 560.842,-305.9815"/>
<polygon fill="#000000" stroke="#000000" points="552.3762,-300.1526 563.1646,-302.1172 556.4944,-302.9881 560.6127,-305.8237 560.6127,-305.8237 560.6127,-305.8237 556.4944,-302.9881 558.0607,-309.5301 552.3762,-300.1526 552.3762,-300.1526"/>
</g>
<!-- Player -->
<g id="node4" class="node has&#45;pronunciation">
<title>Player</title>
<g id="a_node4"><a xlink:href="../player.html" xlink:title="Игрок" target="_top">
<ellipse fill="none" stroke="#c0c0c0" stroke-width=".2" cx="391.5178" cy="-530.3381" rx="46.8387" ry="46.8387"/>
<text text-anchor="middle" x="391.5178" y="-543.8381" font-family="Times,serif" font-size="15.00" fill="#000000">Player</text>
<text text-anchor="middle" x="391.5178" y="-526.8381" font-family="Times,serif" font-size="15.00" fill="#000000">Игрок</text>
<text text-anchor="middle" x="391.5178" y="-509.8381" font-family="Times,serif" font-size="15.00" fill="#000000">&#39;Плейэр</text>
</a>
</g>
</g>
<!-- Point&#45;&gt;Player -->
<g id="edge2" class="edge">
<title>Point&#45;&gt;Player</title>
<path fill="none" stroke="#000000" stroke-dasharray="5,2" d="M748.3043,-470.5759C676.4633,-482.6094 528.8541,-507.3341 447.8281,-520.9061"/>
<polygon fill="#000000" stroke="#000000" points="437.8083,-522.5844 446.9274,-516.4942 442.7396,-521.7584 447.6709,-520.9323 447.6709,-520.9323 447.6709,-520.9323 442.7396,-521.7584 448.4143,-525.3705 437.8083,-522.5844 437.8083,-522.5844"/>
</g>
<!-- Player&#45;&gt;Goal -->
<g id="edge13" class="edge">
<title>Player&#45;&gt;Goal</title>
<path fill="none" stroke="#000000" stroke-dasharray="5,2" d="M410.7676,-487.6745C430.4609,-444.0283 461.1813,-375.9425 482.9967,-327.5928"/>
<polygon fill="#000000" stroke="#000000" points="487.2352,-318.1991 487.2242,-329.1649 485.1788,-322.7566 483.1224,-327.3142 483.1224,-327.3142 483.1224,-327.3142 485.1788,-322.7566 479.0206,-325.4634 487.2352,-318.1991 487.2352,-318.1991"/>
</g>
<!-- Shot -->
<g id="node5" class="node has&#45;pronunciation">
<title>Shot</title>
<g id="a_node5"><a xlink:href="../shot.html" xlink:title="Бросок" target="_top">
<ellipse fill="none" stroke="#c0c0c0" stroke-width=".2" cx="251.1119" cy="-295.7894" rx="67.3507" ry="67.3507"/>
<text text-anchor="middle" x="251.1119" y="-317.7894" font-family="Times,serif" font-size="25.00" fill="#000000">Shot</text>
<text text-anchor="middle" x="251.1119" y="-289.7894" font-family="Times,serif" font-size="25.00" fill="#000000">Бросок</text>
<text text-anchor="middle" x="251.1119" y="-261.7894" font-family="Times,serif" font-size="25.00" fill="#000000">Шат</text>
</a>
</g>
</g>
<!-- Player&#45;&gt;Shot -->
<g id="edge3" class="edge">
<title>Player&#45;&gt;Shot</title>
<path fill="none" stroke="#000000" stroke-dasharray="5,2" d="M367.5407,-490.2843C346.5546,-455.2269 315.6475,-403.5965 290.9506,-362.3402"/>
<polygon fill="#000000" stroke="#000000" points="285.7806,-353.7037 294.778,-359.9725 288.3487,-357.9938 290.9169,-362.2839 290.9169,-362.2839 290.9169,-362.2839 288.3487,-357.9938 287.0558,-364.5952 285.7806,-353.7037 285.7806,-353.7037"/>
</g>
<!-- Shot&#45;&gt;Goal -->
<g id="edge14" class="edge">
<title>Shot&#45;&gt;Goal</title>
<path fill="none" stroke="#000000" stroke-dasharray="5,2" d="M318.1666,-289.1355C357.8788,-285.1948 407.8546,-280.2356 446.6852,-276.3824"/>
<polygon fill="#000000" stroke="#000000" points="456.8128,-275.3774 447.3061,-280.8429 451.8373,-275.8711 446.8617,-276.3649 446.8617,-276.3649 446.8617,-276.3649 451.8373,-275.8711 446.4173,-271.8869 456.8128,-275.3774 456.8128,-275.3774"/>
</g>
<!-- Shot&#45;&gt;Puck -->
<g id="edge4" class="edge">
<title>Shot&#45;&gt;Puck</title>
<path fill="none" stroke="#000000" stroke-dasharray="5,2" d="M199.661,-252.2137C168.931,-226.1873 130.161,-193.3515 100.1055,-167.8964"/>
<polygon fill="#000000" stroke="#000000" points="92.2688,-161.2592 102.8081,-164.2882 96.0843,-164.4906 99.8998,-167.7221 99.8998,-167.7221 99.8998,-167.7221 96.0843,-164.4906 96.9914,-171.156 92.2688,-161.2592 92.2688,-161.2592"/>
</g>
<!-- Shot&#45;&gt;Goal net -->
<g id="edge5" class="edge">
<title>Shot&#45;&gt;Goal net</title>
<path fill="none" stroke="#000000" stroke-dasharray="5,2" d="M269.952,-231.235C278.8134,-200.8722 289.4015,-164.593 298.4744,-133.5052"/>
<polygon fill="#000000" stroke="#000000" points="301.3629,-123.6082 302.881,-134.4685 299.962,-128.408 298.5612,-133.2078 298.5612,-133.2078 298.5612,-133.2078 299.962,-128.408 294.2414,-131.947 301.3629,-123.6082 301.3629,-123.6082"/>
</g>
<!-- Hockey -->
<g id="node6" class="node has&#45;pronunciation">
<title>Hockey</title>
<g id="a_node6"><a xlink:href="../hockey.html" xlink:title="Хоккей" target="_top">
<ellipse fill="none" stroke="#c0c0c0" stroke-width=".2" cx="65.0614" cy="-356.2106" rx="45.011" ry="45.011"/>
<text text-anchor="middle" x="65.0614" y="-369.7106" font-family="Times,serif" font-size="15.00" fill="#000000">Hockey</text>
<text text-anchor="middle" x="65.0614" y="-352.7106" font-family="Times,serif" font-size="15.00" fill="#000000">Хоккей</text>
<text text-anchor="middle" x="65.0614" y="-335.7106" font-family="Times,serif" font-size="15.00" fill="#000000">ˈХаки</text>
</a>
</g>
</g>
<!-- Hockey&#45;&gt;Goal -->
<g id="edge15" class="edge">
<title>Hockey&#45;&gt;Goal</title>
<path fill="none" stroke="#000000" stroke-dasharray="5,2" d="M109.9602,-363.153C147.7203,-367.8178 203.0183,-371.8984 250.6841,-364.5633 323.0676,-353.4243 401.4472,-321.7384 452.6276,-298.1399"/>
<polygon fill="#000000" stroke="#000000" points="461.8601,-293.8344 454.699,-302.1392 457.3286,-295.9476 452.7971,-298.0609 452.7971,-298.0609 452.7971,-298.0609 457.3286,-295.9476 450.8952,-293.9826 461.8601,-293.8344 461.8601,-293.8344"/>
</g>
<!-- Hockey&#45;&gt;Player -->
<g id="edge7" class="edge">
<title>Hockey&#45;&gt;Player</title>
<path fill="none" stroke="#000000" stroke-dasharray="5,2" d="M105.0914,-377.562C164.6073,-409.3071 276.3662,-468.9178 341.2905,-503.5476"/>
<polygon fill="#000000" stroke="#000000" points="350.1304,-508.2627 339.1893,-507.5269 345.7188,-505.9095 341.3071,-503.5564 341.3071,-503.5564 341.3071,-503.5564 345.7188,-505.9095 343.4249,-499.5859 350.1304,-508.2627 350.1304,-508.2627"/>
</g>
<!-- Hockey&#45;&gt;Shot -->
<g id="edge6" class="edge">
<title>Hockey&#45;&gt;Shot</title>
<path fill="none" stroke="#000000" stroke-dasharray="5,2" d="M108.2128,-342.1969C128.7804,-335.5174 153.9662,-327.3381 177.4334,-319.717"/>
<polygon fill="#000000" stroke="#000000" points="187.0188,-316.6041 178.8977,-323.9729 182.2632,-318.1485 177.5077,-319.693 177.5077,-319.693 177.5077,-319.693 182.2632,-318.1485 176.1178,-315.413 187.0188,-316.6041 187.0188,-316.6041"/>
</g>
<!-- Hockey&#45;&gt;Puck -->
<g id="edge8" class="edge">
<title>Hockey&#45;&gt;Puck</title>
<path fill="none" stroke="#000000" stroke-dasharray="5,2" d="M62.5453,-311.0109C60.6155,-276.3444 57.9298,-228.0976 55.7959,-189.7644"/>
<polygon fill="#000000" stroke="#000000" points="55.238,-179.742 60.2869,-189.4764 55.5159,-184.7343 55.7939,-189.7266 55.7939,-189.7266 55.7939,-189.7266 55.5159,-184.7343 51.3008,-189.9767 55.238,-179.742 55.238,-179.742"/>
</g>
<!-- Hockey&#45;&gt;Goal net -->
<g id="edge9" class="edge">
<title>Hockey&#45;&gt;Goal net</title>
<path fill="none" stroke="#000000" stroke-dasharray="5,2" d="M94.6967,-321.9939C137.9691,-272.0318 218.9298,-178.5551 270.8522,-118.6057"/>
<polygon fill="#000000" stroke="#000000" points="277.6642,-110.7406 274.5189,-121.2457 274.3908,-114.5201 271.1173,-118.2996 271.1173,-118.2996 271.1173,-118.2996 274.3908,-114.5201 267.7158,-115.3535 277.6642,-110.7406 277.6642,-110.7406"/>
</g>
<!-- Puck&#45;&gt;Goal net -->
<g id="edge10" class="edge">
<title>Puck&#45;&gt;Goal net</title>
<path fill="none" stroke="#000000" stroke-dasharray="5,2" d="M103.4414,-115.0705C144.4538,-105.154 202.4912,-91.1208 248.0249,-80.1111"/>
<polygon fill="#000000" stroke="#000000" points="257.8344,-77.7392 249.1722,-84.4634 252.9745,-78.9143 248.1145,-80.0895 248.1145,-80.0895 248.1145,-80.0895 252.9745,-78.9143 247.0569,-75.7155 257.8344,-77.7392 257.8344,-77.7392"/>
</g>
</g>
</svg>
