<?xml version="1.0" encoding="UTF-8" standalone="no"?>
<?xml-stylesheet href="../static/svg.css" type="text/css"?>
<!DOCTYPE svg PUBLIC "-//W3C//DTD SVG 1.1//EN"
 "http://www.w3.org/Graphics/SVG/1.1/DTD/svg11.dtd">
<!-- Generated by graphviz version 2.40.1 (20161225.0304)
 -->
<!-- Title: term Pages: 1 -->
<svg width="615pt" height="410pt"
 viewBox="0.00 0.00 614.88 410.41" xmlns="http://www.w3.org/2000/svg" xmlns:xlink="http://www.w3.org/1999/xlink">
<g id="graph0" class="graph" transform="scale(1 1) rotate(0) translate(4 406.4065)">
<title>term</title>
<!-- Opponent -->
<g id="node1" class="node root has&#45;pronunciation">
<title>Opponent</title>
<g id="a_node1"><a xlink:href="javascript:history.back()" xlink:title="Противник" target="_top">
<ellipse fill="none" stroke="#c0c0c0" stroke-width=".2" cx="256.9552" cy="-207.7303" rx="60.623" ry="60.623"/>
<text text-anchor="middle" x="256.9552" y="-221.2303" font-family="Times,serif" font-size="15.00" fill="#000000">Opponent</text>
<text text-anchor="middle" x="256.9552" y="-204.2303" font-family="Times,serif" font-size="15.00" fill="#000000">Противник</text>
<text text-anchor="middle" x="256.9552" y="-187.2303" font-family="Times,serif" font-size="15.00" fill="#000000">Эˈпoунэнт</text>
</a>
</g>
</g>
<!-- Team -->
<g id="node2" class="node has&#45;pronunciation">
<title>Team</title>
<g id="a_node2"><a xlink:href="../team.html" xlink:title="Команда" target="_top">
<ellipse fill="none" stroke="#c0c0c0" stroke-width=".2" cx="555.261" cy="-145.9921" rx="51.7379" ry="51.7379"/>
<text text-anchor="middle" x="555.261" y="-159.4921" font-family="Times,serif" font-size="15.00" fill="#000000">Team</text>
<text text-anchor="middle" x="555.261" y="-142.4921" font-family="Times,serif" font-size="15.00" fill="#000000">Команда</text>
<text text-anchor="middle" x="555.261" y="-125.4921" font-family="Times,serif" font-size="15.00" fill="#000000">Тим</text>
</a>
</g>
</g>
<!-- Opponent&#45;&gt;Team -->
<g id="edge2" class="edge">
<title>Opponent&#45;&gt;Team</title>
<path fill="none" stroke="#000000" stroke-dasharray="5,2" d="M316.6048,-195.3851C368.2502,-184.6964 442.6144,-169.3058 494.5639,-158.5541"/>
<polygon fill="#000000" stroke="#000000" points="504.6416,-156.4684 495.7612,-162.9018 499.7454,-157.4818 494.8491,-158.4952 494.8491,-158.4952 494.8491,-158.4952 499.7454,-157.4818 493.9371,-154.0886 504.6416,-156.4684 504.6416,-156.4684"/>
</g>
<!-- Player -->
<g id="node3" class="node has&#45;pronunciation">
<title>Player</title>
<g id="a_node3"><a xlink:href="../player.html" xlink:title="Игрок" target="_top">
<ellipse fill="none" stroke="#c0c0c0" stroke-width=".2" cx="305.2526" cy="-46.669" rx="46.8387" ry="46.8387"/>
<text text-anchor="middle" x="305.2526" y="-60.169" font-family="Times,serif" font-size="15.00" fill="#000000">Player</text>
<text text-anchor="middle" x="305.2526" y="-43.169" font-family="Times,serif" font-size="15.00" fill="#000000">Игрок</text>
<text text-anchor="middle" x="305.2526" y="-26.169" font-family="Times,serif" font-size="15.00" fill="#000000">&#39;Плейэр</text>
</a>
</g>
</g>
<!-- Opponent&#45;&gt;Player -->
<g id="edge3" class="edge">
<title>Opponent&#45;&gt;Player</title>
<path fill="none" stroke="#000000" stroke-dasharray="5,2" d="M274.5283,-149.1279C279.1967,-133.5598 284.22,-116.8082 288.8247,-101.4525"/>
<polygon fill="#000000" stroke="#000000" points="291.7823,-91.5896 293.2203,-102.4608 290.3461,-96.3789 288.9099,-101.1682 288.9099,-101.1682 288.9099,-101.1682 290.3461,-96.3789 284.5995,-99.8756 291.7823,-91.5896 291.7823,-91.5896"/>
</g>
<!-- Goal net -->
<g id="node4" class="node has&#45;pronunciation">
<title>Goal net</title>
<g id="a_node4"><a xlink:href="../goal-net.html" xlink:title="Ворота" target="_top">
<ellipse fill="none" stroke="#c0c0c0" stroke-width=".2" cx="62.9325" cy="-339.474" rx="62.8651" ry="62.8651"/>
<text text-anchor="middle" x="62.9325" y="-356.474" font-family="Times,serif" font-size="20.00" fill="#000000">Goal net</text>
<text text-anchor="middle" x="62.9325" y="-334.474" font-family="Times,serif" font-size="20.00" fill="#000000">Ворота</text>
<text text-anchor="middle" x="62.9325" y="-312.474" font-family="Times,serif" font-size="20.00" fill="#000000">Гoул нет</text>
</a>
</g>
</g>
<!-- Opponent&#45;&gt;Goal net -->
<g id="edge4" class="edge">
<title>Opponent&#45;&gt;Goal net</title>
<path fill="none" stroke="#000000" stroke-dasharray="5,2" d="M206.4845,-242.0005C181.1554,-259.1993 150.279,-280.1647 123.6606,-298.239"/>
<polygon fill="#000000" stroke="#000000" points="115.1803,-303.9972 120.9254,-294.6567 119.3168,-301.1884 123.4533,-298.3796 123.4533,-298.3796 123.4533,-298.3796 119.3168,-301.1884 125.9812,-302.1025 115.1803,-303.9972 115.1803,-303.9972"/>
</g>
<!-- Team&#45;&gt;Player -->
<g id="edge1" class="edge">
<title>Team&#45;&gt;Player</title>
<path fill="none" stroke="#000000" stroke-dasharray="5,2" d="M507.0568,-126.8416C464.3582,-109.8784 402.141,-85.1608 358.098,-67.6634"/>
<polygon fill="#000000" stroke="#000000" points="348.7115,-63.9343 359.6664,-63.4444 353.3582,-65.7804 358.005,-67.6265 358.005,-67.6265 358.005,-67.6265 353.3582,-65.7804 356.3435,-71.8086 348.7115,-63.9343 348.7115,-63.9343"/>
</g>
</g>
</svg>
