<?xml version="1.0" encoding="UTF-8" standalone="no"?>
<?xml-stylesheet href="../static/svg.css" type="text/css"?>
<!DOCTYPE svg PUBLIC "-//W3C//DTD SVG 1.1//EN"
 "http://www.w3.org/Graphics/SVG/1.1/DTD/svg11.dtd">
<!-- Generated by graphviz version 2.40.1 (20161225.0304)
 -->
<!-- Title: term Pages: 1 -->
<svg width="1230pt" height="692pt"
 viewBox="0.00 0.00 1230.00 692.32" xmlns="http://www.w3.org/2000/svg" xmlns:xlink="http://www.w3.org/1999/xlink">
<g id="graph0" class="graph" transform="scale(1 1) rotate(0) translate(4 688.32)">
<title>term</title>
<!-- Team -->
<g id="node1" class="node">
<title>Team</title>
<g id="a_node1"><a xlink:href="../team.html" xlink:title="Команда" target="_top">
<ellipse fill="none" stroke="#c0c0c0" stroke-width=".2" cx="413.3717" cy="-222.2118" rx="51.7379" ry="29.8983"/>
<text text-anchor="middle" x="413.3717" y="-227.2118" font-family="Times,serif" font-size="15.00" fill="#000000">Team</text>
<text text-anchor="middle" x="413.3717" y="-210.2118" font-family="Times,serif" font-size="15.00" fill="#000000">Команда</text>
</a>
</g>
</g>
<!-- Player -->
<g id="node2" class="node">
<title>Player</title>
<g id="a_node2"><a xlink:href="../player.html" xlink:title="Игрок" target="_top">
<ellipse fill="none" stroke="#c0c0c0" stroke-width=".2" cx="543.3211" cy="-252.3787" rx="39.6962" ry="29.8983"/>
<text text-anchor="middle" x="543.3211" y="-257.3787" font-family="Times,serif" font-size="15.00" fill="#000000">Player</text>
<text text-anchor="middle" x="543.3211" y="-240.3787" font-family="Times,serif" font-size="15.00" fill="#000000">Игрок</text>
</a>
</g>
</g>
<!-- Team&#45;&gt;Player -->
<g id="edge1" class="edge">
<title>Team&#45;&gt;Player</title>
<path fill="none" stroke="#000000" stroke-dasharray="5,2" d="M461.3909,-233.3591C472.4618,-235.9292 484.239,-238.6632 495.3096,-241.2332"/>
<polygon fill="#000000" stroke="#000000" points="505.2374,-243.5378 494.4788,-245.6599 500.3669,-242.4071 495.4964,-241.2764 495.4964,-241.2764 495.4964,-241.2764 500.3669,-242.4071 496.514,-236.893 505.2374,-243.5378 505.2374,-243.5378"/>
</g>
<!-- Sport -->
<g id="node9" class="node">
<title>Sport</title>
<g id="a_node9"><a xlink:href="../sport.html" xlink:title="Спорт" target="_top">
<ellipse fill="none" stroke="#c0c0c0" stroke-width=".2" cx="325.5912" cy="-136.5449" rx="39.6962" ry="29.8983"/>
<text text-anchor="middle" x="325.5912" y="-141.5449" font-family="Times,serif" font-size="15.00" fill="#000000">Sport</text>
<text text-anchor="middle" x="325.5912" y="-124.5449" font-family="Times,serif" font-size="15.00" fill="#000000">Спорт</text>
</a>
</g>
</g>
<!-- Team&#45;&gt;Sport -->
<g id="edge10" class="edge">
<title>Team&#45;&gt;Sport</title>
<path fill="none" stroke="#000000" stroke-dasharray="5,2" d="M387.0347,-196.5089C377.6179,-187.3188 366.9104,-176.8692 357.1014,-167.2964"/>
<polygon fill="#000000" stroke="#000000" points="349.8118,-160.1823 360.1115,-163.9462 353.3902,-163.6745 356.9685,-167.1667 356.9685,-167.1667 356.9685,-167.1667 353.3902,-163.6745 353.8255,-170.3872 349.8118,-160.1823 349.8118,-160.1823"/>
</g>
<!-- Player&#45;&gt;Sport -->
<g id="edge15" class="edge">
<title>Player&#45;&gt;Sport</title>
<path fill="none" stroke="#000000" stroke-dasharray="5,2" d="M511.9907,-234.1558C494.2763,-223.9728 471.6555,-211.1692 451.258,-200.2313 423.7345,-185.4721 392.4038,-169.5922 367.9112,-157.3812"/>
<polygon fill="#000000" stroke="#000000" points="358.8811,-152.8909 369.8388,-153.3142 363.3581,-155.1172 367.8352,-157.3435 367.8352,-157.3435 367.8352,-157.3435 363.3581,-155.1172 365.8315,-161.3728 358.8811,-152.8909 358.8811,-152.8909"/>
</g>
<!-- Goal -->
<g id="node11" class="node">
<title>Goal</title>
<g id="a_node11"><a xlink:href="../goal.html" xlink:title="Гол" target="_top">
<ellipse fill="none" stroke="#c0c0c0" stroke-width=".2" cx="649.0994" cy="-202.6079" rx="38.7821" ry="36.5405"/>
<text text-anchor="middle" x="649.0994" y="-208.6079" font-family="Times,serif" font-size="20.00" fill="#000000">Goal</text>
<text text-anchor="middle" x="649.0994" y="-186.6079" font-family="Times,serif" font-size="20.00" fill="#000000">Гол</text>
</a>
</g>
</g>
<!-- Player&#45;&gt;Goal -->
<g id="edge14" class="edge">
<title>Player&#45;&gt;Goal</title>
<path fill="none" stroke="#000000" stroke-dasharray="5,2" d="M577.0808,-236.4941C585.9688,-232.3121 595.6897,-227.7382 605.0327,-223.3421"/>
<polygon fill="#000000" stroke="#000000" points="614.2048,-219.0265 607.0723,-227.3558 609.6806,-221.1552 605.1564,-223.284 605.1564,-223.284 605.1564,-223.284 609.6806,-221.1552 603.2405,-219.2122 614.2048,-219.0265 614.2048,-219.0265"/>
</g>
<!-- Shot -->
<g id="node13" class="node">
<title>Shot</title>
<g id="a_node13"><a xlink:href="../shot.html" xlink:title="Бросок" target="_top">
<ellipse fill="none" stroke="#c0c0c0" stroke-width=".2" cx="852.2459" cy="-291.1094" rx="67.3507" ry="45.011"/>
<text text-anchor="middle" x="852.2459" y="-299.1094" font-family="Times,serif" font-size="25.00" fill="#000000">Shot</text>
<text text-anchor="middle" x="852.2459" y="-271.1094" font-family="Times,serif" font-size="25.00" fill="#000000">Бросок</text>
</a>
</g>
</g>
<!-- Player&#45;&gt;Shot -->
<g id="edge20" class="edge">
<title>Player&#45;&gt;Shot</title>
<path fill="none" stroke="#000000" stroke-dasharray="5,2" d="M582.4466,-257.284C630.9694,-263.3674 714.7722,-273.874 776.1352,-281.5672"/>
<polygon fill="#000000" stroke="#000000" points="786.1648,-282.8247 775.6827,-286.0456 781.2037,-282.2026 776.2425,-281.5806 776.2425,-281.5806 776.2425,-281.5806 781.2037,-282.2026 776.8023,-277.1156 786.1648,-282.8247 786.1648,-282.8247"/>
</g>
<!-- Game -->
<g id="node20" class="node">
<title>Game</title>
<g id="a_node20"><a xlink:href="../game.html" xlink:title="Игра" target="_top">
<ellipse fill="none" stroke="#c0c0c0" stroke-width=".2" cx="326.9816" cy="-367.2752" rx="45.9239" ry="36.5405"/>
<text text-anchor="middle" x="326.9816" y="-373.2752" font-family="Times,serif" font-size="20.00" fill="#000000">Game</text>
<text text-anchor="middle" x="326.9816" y="-351.2752" font-family="Times,serif" font-size="20.00" fill="#000000">Игра</text>
</a>
</g>
</g>
<!-- Player&#45;&gt;Game -->
<g id="edge35" class="edge">
<title>Player&#45;&gt;Game</title>
<path fill="none" stroke="#000000" stroke-dasharray="5,2" d="M510.9329,-269.5799C474.7695,-288.786 415.8965,-320.0531 374.5143,-342.0309"/>
<polygon fill="#000000" stroke="#000000" points="365.4426,-346.8489 372.1636,-338.184 369.8584,-344.5036 374.2743,-342.1583 374.2743,-342.1583 374.2743,-342.1583 369.8584,-344.5036 376.385,-346.1326 365.4426,-346.8489 365.4426,-346.8489"/>
</g>
<!-- Rink -->
<g id="node3" class="node">
<title>Rink</title>
<g id="a_node3"><a xlink:href="../rink.html" xlink:title="Площадка" target="_top">
<ellipse fill="none" stroke="#c0c0c0" stroke-width=".2" cx="462.2094" cy="-603.8648" rx="57.0522" ry="29.8983"/>
<text text-anchor="middle" x="462.2094" y="-608.8648" font-family="Times,serif" font-size="15.00" fill="#000000">Rink</text>
<text text-anchor="middle" x="462.2094" y="-591.8648" font-family="Times,serif" font-size="15.00" fill="#000000">Площадка</text>
</a>
</g>
</g>
<!-- Ice -->
<g id="node4" class="node">
<title>Ice</title>
<g id="a_node4"><a xlink:href="../ice.html" xlink:title="Лёд" target="_top">
<ellipse fill="none" stroke="#c0c0c0" stroke-width=".2" cx="663.732" cy="-651.1022" rx="28.9828" ry="29.8983"/>
<text text-anchor="middle" x="663.732" y="-656.1022" font-family="Times,serif" font-size="15.00" fill="#000000">Ice</text>
<text text-anchor="middle" x="663.732" y="-639.1022" font-family="Times,serif" font-size="15.00" fill="#000000">Лёд</text>
</a>
</g>
</g>
<!-- Rink&#45;&gt;Ice -->
<g id="edge2" class="edge">
<title>Rink&#45;&gt;Ice</title>
<path fill="none" stroke="#000000" stroke-dasharray="5,2" d="M514.6311,-616.1526C549.2075,-624.2574 593.7365,-634.6951 625.0974,-642.0462"/>
<polygon fill="#000000" stroke="#000000" points="635.1945,-644.413 624.4314,-646.512 630.3265,-643.2719 625.4584,-642.1307 625.4584,-642.1307 625.4584,-642.1307 630.3265,-643.2719 626.4854,-637.7495 635.1945,-644.413 635.1945,-644.413"/>
</g>
<!-- Goal net -->
<g id="node5" class="node">
<title>Goal net</title>
<g id="a_node5"><a xlink:href="../goal-net.html" xlink:title="Ворота" target="_top">
<ellipse fill="none" stroke="#c0c0c0" stroke-width=".2" cx="635.4892" cy="-458.2269" rx="59.2941" ry="36.5405"/>
<text text-anchor="middle" x="635.4892" y="-464.2269" font-family="Times,serif" font-size="20.00" fill="#000000">Goal net</text>
<text text-anchor="middle" x="635.4892" y="-442.2269" font-family="Times,serif" font-size="20.00" fill="#000000">Ворота</text>
</a>
</g>
</g>
<!-- Rink&#45;&gt;Goal net -->
<g id="edge3" class="edge">
<title>Rink&#45;&gt;Goal net</title>
<path fill="none" stroke="#000000" stroke-dasharray="5,2" d="M492.3925,-578.4966C520.0137,-555.2815 561.1945,-520.67 592.2968,-494.5292"/>
<polygon fill="#000000" stroke="#000000" points="599.9726,-488.0778 595.2127,-497.9568 596.145,-491.2949 592.3174,-494.5119 592.3174,-494.5119 592.3174,-494.5119 596.145,-491.2949 589.422,-491.0671 599.9726,-488.0778 599.9726,-488.0778"/>
</g>
<!-- Opponent -->
<g id="node6" class="node">
<title>Opponent</title>
<g id="a_node6"><a xlink:href="../opponent.html" xlink:title="Противник" target="_top">
<ellipse fill="none" stroke="#c0c0c0" stroke-width=".2" cx="443.0009" cy="-458.1365" rx="60.623" ry="29.8983"/>
<text text-anchor="middle" x="443.0009" y="-463.1365" font-family="Times,serif" font-size="15.00" fill="#000000">Opponent</text>
<text text-anchor="middle" x="443.0009" y="-446.1365" font-family="Times,serif" font-size="15.00" fill="#000000">Противник</text>
</a>
</g>
</g>
<!-- Opponent&#45;&gt;Team -->
<g id="edge4" class="edge">
<title>Opponent&#45;&gt;Team</title>
<path fill="none" stroke="#000000" stroke-dasharray="5,2" d="M439.2483,-428.2564C433.9498,-386.0661 424.265,-308.9502 418.3642,-261.9646"/>
<polygon fill="#000000" stroke="#000000" points="417.0938,-251.8492 422.8049,-261.2105 417.7169,-256.8102 418.34,-261.7712 418.34,-261.7712 418.34,-261.7712 417.7169,-256.8102 413.875,-262.332 417.0938,-251.8492 417.0938,-251.8492"/>
</g>
<!-- Opponent&#45;&gt;Player -->
<g id="edge5" class="edge">
<title>Opponent&#45;&gt;Player</title>
<path fill="none" stroke="#000000" stroke-dasharray="5,2" d="M457.1615,-429.0928C475.0122,-392.4809 505.7189,-329.5011 525.246,-289.451"/>
<polygon fill="#000000" stroke="#000000" points="529.7144,-280.2862 529.3767,-291.2469 527.5231,-284.7804 525.3319,-289.2747 525.3319,-289.2747 525.3319,-289.2747 527.5231,-284.7804 521.287,-287.3026 529.7144,-280.2862 529.7144,-280.2862"/>
</g>
<!-- Opponent&#45;&gt;Goal net -->
<g id="edge9" class="edge">
<title>Opponent&#45;&gt;Goal net</title>
<path fill="none" stroke="#000000" stroke-dasharray="5,2" d="M503.9054,-458.1651C523.5981,-458.1743 545.5832,-458.1846 565.8581,-458.1942"/>
<polygon fill="#000000" stroke="#000000" points="575.9687,-458.1989 565.9665,-462.6941 570.9687,-458.1965 565.9687,-458.1941 565.9687,-458.1941 565.9687,-458.1941 570.9687,-458.1965 565.9708,-453.6941 575.9687,-458.1989 575.9687,-458.1989"/>
</g>
<!-- Stick -->
<g id="node7" class="node">
<title>Stick</title>
<g id="a_node7"><a xlink:href="../stick.html" xlink:title="Клюшка" target="_top">
<ellipse fill="none" stroke="#c0c0c0" stroke-width=".2" cx="751.3208" cy="-188.8076" rx="48.5816" ry="29.8983"/>
<text text-anchor="middle" x="751.3208" y="-193.8076" font-family="Times,serif" font-size="15.00" fill="#000000">Stick</text>
<text text-anchor="middle" x="751.3208" y="-176.8076" font-family="Times,serif" font-size="15.00" fill="#000000">Клюшка</text>
</a>
</g>
</g>
<!-- Puck -->
<g id="node8" class="node">
<title>Puck</title>
<g id="a_node8"><a xlink:href="../puck.html" xlink:title="Шайба" target="_top">
<ellipse fill="none" stroke="#c0c0c0" stroke-width=".2" cx="765.7507" cy="-425.2519" rx="52.1524" ry="36.5405"/>
<text text-anchor="middle" x="765.7507" y="-431.2519" font-family="Times,serif" font-size="20.00" fill="#000000">Puck</text>
<text text-anchor="middle" x="765.7507" y="-409.2519" font-family="Times,serif" font-size="20.00" fill="#000000">Шайба</text>
</a>
</g>
</g>
<!-- Stick&#45;&gt;Puck -->
<g id="edge6" class="edge">
<title>Stick&#45;&gt;Puck</title>
<path fill="none" stroke="#000000" stroke-dasharray="5,2" d="M753.1484,-218.7534C755.6,-258.9258 759.9799,-330.6933 762.8757,-378.1417"/>
<polygon fill="#000000" stroke="#000000" points="763.4878,-388.1714 758.3869,-378.4642 763.1831,-383.1807 762.8785,-378.19 762.8785,-378.19 762.8785,-378.19 763.1831,-383.1807 767.3701,-377.9158 763.4878,-388.1714 763.4878,-388.1714"/>
</g>
<!-- Puck&#45;&gt;Ice -->
<g id="edge7" class="edge">
<title>Puck&#45;&gt;Ice</title>
<path fill="none" stroke="#000000" stroke-dasharray="5,2" d="M749.8103,-460.541C730.8458,-502.5248 699.3468,-572.2578 680.1673,-614.7175"/>
<polygon fill="#000000" stroke="#000000" points="676.0379,-623.8594 676.0535,-612.8935 678.0962,-619.3027 680.1545,-614.746 680.1545,-614.746 680.1545,-614.746 678.0962,-619.3027 684.2555,-616.5985 676.0379,-623.8594 676.0379,-623.8594"/>
</g>
<!-- Puck&#45;&gt;Goal net -->
<g id="edge8" class="edge">
<title>Puck&#45;&gt;Goal net</title>
<path fill="none" stroke="#000000" stroke-dasharray="5,2" d="M716.5045,-437.7183C711.191,-439.0634 705.7274,-440.4465 700.2671,-441.8287"/>
<polygon fill="#000000" stroke="#000000" points="690.4752,-444.3075 699.0651,-437.491 695.3223,-443.0804 700.1694,-441.8534 700.1694,-441.8534 700.1694,-441.8534 695.3223,-443.0804 701.2738,-446.2158 690.4752,-444.3075 690.4752,-444.3075"/>
</g>
<!-- Sport&#45;&gt;Game -->
<g id="edge34" class="edge">
<title>Sport&#45;&gt;Game</title>
<path fill="none" stroke="#000000" stroke-dasharray="5,2" d="M325.773,-166.7089C326.0084,-205.7748 326.4213,-274.2914 326.6981,-320.2246"/>
<polygon fill="#000000" stroke="#000000" points="326.7584,-330.2364 322.1981,-320.2638 326.7282,-325.2365 326.6981,-320.2366 326.6981,-320.2366 326.6981,-320.2366 326.7282,-325.2365 331.198,-320.2094 326.7584,-330.2364 326.7584,-330.2364"/>
</g>
<!-- Score -->
<g id="node10" class="node">
<title>Score</title>
<g id="a_node10"><a xlink:href="../score.html" xlink:title="Счёт" target="_top">
<ellipse fill="none" stroke="#c0c0c0" stroke-width=".2" cx="421.7506" cy="-68.4735" rx="43.6818" ry="36.5405"/>
<text text-anchor="middle" x="421.7506" y="-74.4735" font-family="Times,serif" font-size="20.00" fill="#000000">Score</text>
<text text-anchor="middle" x="421.7506" y="-52.4735" font-family="Times,serif" font-size="20.00" fill="#000000">Счёт</text>
</a>
</g>
</g>
<!-- Score&#45;&gt;Goal -->
<g id="edge11" class="edge">
<title>Score&#45;&gt;Goal</title>
<path fill="none" stroke="#000000" stroke-dasharray="5,2" d="M457.7747,-89.7275C498.3365,-113.6587 564.165,-152.4972 607.0476,-177.7976"/>
<polygon fill="#000000" stroke="#000000" points="615.8326,-182.9807 604.9332,-181.775 611.5263,-180.44 607.2199,-177.8992 607.2199,-177.8992 607.2199,-177.8992 611.5263,-180.44 609.5066,-174.0235 615.8326,-182.9807 615.8326,-182.9807"/>
</g>
<!-- Point -->
<g id="node12" class="node">
<title>Point</title>
<g id="a_node12"><a xlink:href="../point.html" xlink:title="Очко" target="_top">
<ellipse fill="none" stroke="#c0c0c0" stroke-width=".2" cx="538.7101" cy="-39.1715" rx="35.2113" ry="29.8983"/>
<text text-anchor="middle" x="538.7101" y="-44.1715" font-family="Times,serif" font-size="15.00" fill="#000000">Point</text>
<text text-anchor="middle" x="538.7101" y="-27.1715" font-family="Times,serif" font-size="15.00" fill="#000000">Очко</text>
</a>
</g>
</g>
<!-- Score&#45;&gt;Point -->
<g id="edge12" class="edge">
<title>Score&#45;&gt;Point</title>
<path fill="none" stroke="#000000" stroke-dasharray="5,2" d="M463.9757,-57.8948C473.9869,-55.3867 484.6885,-52.7056 494.7739,-50.1789"/>
<polygon fill="#000000" stroke="#000000" points="504.6055,-47.7158 495.9989,-54.5112 499.7554,-48.9309 494.9053,-50.1461 494.9053,-50.1461 494.9053,-50.1461 499.7554,-48.9309 493.8117,-45.781 504.6055,-47.7158 504.6055,-47.7158"/>
</g>
<!-- Goal&#45;&gt;Goal net -->
<g id="edge19" class="edge">
<title>Goal&#45;&gt;Goal net</title>
<path fill="none" stroke="#000000" stroke-dasharray="5,2" d="M647.1349,-239.5041C644.7226,-284.8105 640.6278,-361.7177 637.9922,-411.2166"/>
<polygon fill="#000000" stroke="#000000" points="637.4531,-421.3418 633.4913,-411.1167 637.719,-416.3489 637.9849,-411.356 637.9849,-411.356 637.9849,-411.356 637.719,-416.3489 642.4786,-411.5953 637.4531,-421.3418 637.4531,-421.3418"/>
</g>
<!-- Goal&#45;&gt;Puck -->
<g id="edge18" class="edge">
<title>Goal&#45;&gt;Puck</title>
<path fill="none" stroke="#000000" stroke-dasharray="5,2" d="M666.5632,-235.9399C686.8735,-274.7046 720.4683,-338.8246 742.8536,-381.5499"/>
<polygon fill="#000000" stroke="#000000" points="747.5905,-390.5908 738.9634,-383.8214 745.27,-386.1619 742.9495,-381.7329 742.9495,-381.7329 742.9495,-381.7329 745.27,-386.1619 746.9355,-379.6445 747.5905,-390.5908 747.5905,-390.5908"/>
</g>
<!-- Point&#45;&gt;Team -->
<g id="edge17" class="edge">
<title>Point&#45;&gt;Team</title>
<path fill="none" stroke="#000000" stroke-dasharray="5,2" d="M521.018,-65.0085C499.4319,-96.5322 462.7986,-150.0303 438.347,-185.7386"/>
<polygon fill="#000000" stroke="#000000" points="432.4095,-194.4096 434.3465,-183.6161 435.2345,-190.2841 438.0595,-186.1586 438.0595,-186.1586 438.0595,-186.1586 435.2345,-190.2841 441.7724,-188.7011 432.4095,-194.4096 432.4095,-194.4096"/>
</g>
<!-- Point&#45;&gt;Player -->
<g id="edge16" class="edge">
<title>Point&#45;&gt;Player</title>
<path fill="none" stroke="#000000" stroke-dasharray="5,2" d="M539.361,-69.2667C540.1711,-106.7266 541.5574,-170.8256 542.4562,-212.386"/>
<polygon fill="#000000" stroke="#000000" points="542.6735,-222.4366 537.9583,-212.5363 542.5654,-217.4378 542.4572,-212.439 542.4572,-212.439 542.4572,-212.439 542.5654,-217.4378 546.9562,-212.3416 542.6735,-222.4366 542.6735,-222.4366"/>
</g>
<!-- Point&#45;&gt;Goal -->
<g id="edge13" class="edge">
<title>Point&#45;&gt;Goal</title>
<path fill="none" stroke="#000000" stroke-dasharray="5,2" d="M556.2016,-65.0685C573.9633,-91.3656 601.7032,-132.4357 622.2502,-162.8565"/>
<polygon fill="#000000" stroke="#000000" points="628.1082,-171.5295 618.7819,-165.7614 625.3096,-167.386 622.511,-163.2426 622.511,-163.2426 622.511,-163.2426 625.3096,-167.386 626.2401,-160.7239 628.1082,-171.5295 628.1082,-171.5295"/>
</g>
<!-- Shot&#45;&gt;Goal net -->
<g id="edge24" class="edge">
<title>Shot&#45;&gt;Goal net</title>
<path fill="none" stroke="#000000" stroke-dasharray="5,2" d="M807.8589,-325.3314C770.8962,-353.8293 718.4619,-394.2557 681.1495,-423.0232"/>
<polygon fill="#000000" stroke="#000000" points="672.9564,-429.34 678.1283,-419.6703 676.9162,-426.2871 680.8759,-423.2341 680.8759,-423.2341 680.8759,-423.2341 676.9162,-426.2871 683.6236,-426.7979 672.9564,-429.34 672.9564,-429.34"/>
</g>
<!-- Shot&#45;&gt;Stick -->
<g id="edge23" class="edge">
<title>Shot&#45;&gt;Stick</title>
<path fill="none" stroke="#000000" stroke-dasharray="5,2" d="M814.9519,-253.3066C804.6498,-242.864 793.5603,-231.6233 783.5706,-221.4973"/>
<polygon fill="#000000" stroke="#000000" points="776.518,-214.3485 786.7445,-218.3069 780.0295,-217.9079 783.541,-221.4673 783.541,-221.4673 783.541,-221.4673 780.0295,-217.9079 780.3375,-224.6277 776.518,-214.3485 776.518,-214.3485"/>
</g>
<!-- Shot&#45;&gt;Puck -->
<g id="edge22" class="edge">
<title>Shot&#45;&gt;Puck</title>
<path fill="none" stroke="#000000" stroke-dasharray="5,2" d="M825.3524,-332.8176C815.0591,-348.7812 803.3162,-366.9929 792.9908,-383.0063"/>
<polygon fill="#000000" stroke="#000000" points="787.4184,-391.6482 789.0556,-380.8052 790.128,-387.446 792.8376,-383.2439 792.8376,-383.2439 792.8376,-383.2439 790.128,-387.446 796.6196,-385.6825 787.4184,-391.6482 787.4184,-391.6482"/>
</g>
<!-- Shot&#45;&gt;Goal -->
<g id="edge21" class="edge">
<title>Shot&#45;&gt;Goal</title>
<path fill="none" stroke="#000000" stroke-dasharray="5,2" d="M795.6583,-266.4568C763.5596,-252.4729 723.9498,-235.2167 694.004,-222.1708"/>
<polygon fill="#000000" stroke="#000000" points="684.6427,-218.0925 695.6078,-217.961 689.2266,-220.0895 693.8105,-222.0865 693.8105,-222.0865 693.8105,-222.0865 689.2266,-220.0895 692.0132,-226.212 684.6427,-218.0925 684.6427,-218.0925"/>
</g>
<!-- Flip shot -->
<g id="node14" class="node">
<title>Flip shot</title>
<g id="a_node14"><a xlink:href="../flip-shot.html" xlink:title="Подкидка" target="_top">
<ellipse fill="none" stroke="#c0c0c0" stroke-width=".2" cx="1121.3074" cy="-329.1754" rx="55.7232" ry="29.8983"/>
<text text-anchor="middle" x="1121.3074" y="-334.1754" font-family="Times,serif" font-size="15.00" fill="#000000">Flip shot</text>
<text text-anchor="middle" x="1121.3074" y="-317.1754" font-family="Times,serif" font-size="15.00" fill="#000000">Подкидка</text>
</a>
</g>
</g>
<!-- Shot&#45;&gt;Flip shot -->
<g id="edge25" class="edge">
<title>Shot&#45;&gt;Flip shot</title>
<path fill="none" stroke="#000000" stroke-dasharray="5,2" d="M918.0658,-300.4214C960.3212,-306.3996 1014.9393,-314.1267 1056.9127,-320.065"/>
<polygon fill="#000000" stroke="#000000" points="1067.0232,-321.4954 1056.4914,-324.5501 1062.0725,-320.795 1057.1218,-320.0945 1057.1218,-320.0945 1057.1218,-320.0945 1062.0725,-320.795 1057.7522,-315.6389 1067.0232,-321.4954 1067.0232,-321.4954"/>
</g>
<!-- Wrist shot -->
<g id="node15" class="node">
<title>Wrist shot</title>
<g id="a_node15"><a xlink:href="../wrist-shot.html" xlink:title="Кистевой" target="_top">
<ellipse fill="none" stroke="#c0c0c0" stroke-width=".2" cx="1099.437" cy="-217.7982" rx="56.6372" ry="29.8983"/>
<text text-anchor="middle" x="1099.437" y="-222.7982" font-family="Times,serif" font-size="15.00" fill="#000000">Wrist shot</text>
<text text-anchor="middle" x="1099.437" y="-205.7982" font-family="Times,serif" font-size="15.00" fill="#000000">Кистевой</text>
</a>
</g>
</g>
<!-- Shot&#45;&gt;Wrist shot -->
<g id="edge26" class="edge">
<title>Shot&#45;&gt;Wrist shot</title>
<path fill="none" stroke="#000000" stroke-dasharray="5,2" d="M913.985,-272.799C952.5784,-261.3531 1002.0133,-246.6918 1040.1372,-235.3851"/>
<polygon fill="#000000" stroke="#000000" points="1050.0708,-232.4391 1041.7631,-239.5967 1045.2772,-233.8608 1040.4836,-235.2825 1040.4836,-235.2825 1040.4836,-235.2825 1045.2772,-233.8608 1039.204,-230.9682 1050.0708,-232.4391 1050.0708,-232.4391"/>
</g>
<!-- Slapshot -->
<g id="node16" class="node">
<title>Slapshot</title>
<g id="a_node16"><a xlink:href="../slapshot.html" xlink:title="Щелчок" target="_top">
<ellipse fill="none" stroke="#c0c0c0" stroke-width=".2" cx="984.4278" cy="-33.5463" rx="48.5816" ry="29.8983"/>
<text text-anchor="middle" x="984.4278" y="-38.5463" font-family="Times,serif" font-size="15.00" fill="#000000">Slapshot</text>
<text text-anchor="middle" x="984.4278" y="-21.5463" font-family="Times,serif" font-size="15.00" fill="#000000">Щелчок</text>
</a>
</g>
</g>
<!-- Shot&#45;&gt;Slapshot -->
<g id="edge27" class="edge">
<title>Shot&#45;&gt;Slapshot</title>
<path fill="none" stroke="#000000" stroke-dasharray="5,2" d="M874.2215,-248.289C899.6171,-198.8043 941.006,-118.1558 965.1827,-71.0463"/>
<polygon fill="#000000" stroke="#000000" points="969.7787,-62.0907 969.2164,-73.0422 967.4958,-66.5391 965.2128,-70.9875 965.2128,-70.9875 965.2128,-70.9875 967.4958,-66.5391 961.2093,-68.9329 969.7787,-62.0907 969.7787,-62.0907"/>
</g>
<!-- Snap shot -->
<g id="node17" class="node">
<title>Snap shot</title>
<g id="a_node17"><a xlink:href="../snap-shot.html" xlink:title="Короткий щелчок" target="_top">
<ellipse fill="none" stroke="#c0c0c0" stroke-width=".2" cx="1130.0521" cy="-122.6483" rx="91.8478" ry="29.8983"/>
<text text-anchor="middle" x="1130.0521" y="-127.6483" font-family="Times,serif" font-size="15.00" fill="#000000">Snap shot</text>
<text text-anchor="middle" x="1130.0521" y="-110.6483" font-family="Times,serif" font-size="15.00" fill="#000000">Короткий щелчок</text>
</a>
</g>
</g>
<!-- Shot&#45;&gt;Snap shot -->
<g id="edge28" class="edge">
<title>Shot&#45;&gt;Snap shot</title>
<path fill="none" stroke="#000000" stroke-dasharray="5,2" d="M902.233,-260.7974C951.7483,-230.7714 1027.2696,-184.9754 1077.6202,-154.4429"/>
<polygon fill="#000000" stroke="#000000" points="1086.4062,-149.1151 1080.1888,-158.1481 1082.1309,-151.7077 1077.8555,-154.3002 1077.8555,-154.3002 1077.8555,-154.3002 1082.1309,-151.7077 1075.5222,-150.4524 1086.4062,-149.1151 1086.4062,-149.1151"/>
</g>
<!-- Backhand shot -->
<g id="node18" class="node">
<title>Backhand shot</title>
<g id="a_node18"><a xlink:href="../backhand-shot.html" xlink:title="С неудобной" target="_top">
<ellipse fill="none" stroke="#c0c0c0" stroke-width=".2" cx="1119.5911" cy="-440.4064" rx="74.9067" ry="29.8983"/>
<text text-anchor="middle" x="1119.5911" y="-445.4064" font-family="Times,serif" font-size="15.00" fill="#000000">Backhand shot</text>
<text text-anchor="middle" x="1119.5911" y="-428.4064" font-family="Times,serif" font-size="15.00" fill="#000000">С неудобной</text>
</a>
</g>
</g>
<!-- Shot&#45;&gt;Backhand shot -->
<g id="edge31" class="edge">
<title>Shot&#45;&gt;Backhand shot</title>
<path fill="none" stroke="#000000" stroke-dasharray="5,2" d="M904.1098,-320.0724C951.0425,-346.2817 1019.837,-384.6994 1066.9954,-411.0347"/>
<polygon fill="#000000" stroke="#000000" points="1075.832,-415.9694 1064.9071,-415.0226 1071.4666,-413.5316 1067.1012,-411.0937 1067.1012,-411.0937 1067.1012,-411.0937 1071.4666,-413.5316 1069.2952,-407.1648 1075.832,-415.9694 1075.832,-415.9694"/>
</g>
<!-- One&#45;timer -->
<g id="node19" class="node">
<title>One&#45;timer</title>
<g id="a_node19"><a xlink:href="../one-timer.html" xlink:title="В одно касание" target="_top">
<ellipse fill="none" stroke="#c0c0c0" stroke-width=".2" cx="1032.1165" cy="-567.1386" rx="79.8063" ry="29.8983"/>
<text text-anchor="middle" x="1032.1165" y="-572.1386" font-family="Times,serif" font-size="15.00" fill="#000000">One&#45;timer</text>
<text text-anchor="middle" x="1032.1165" y="-555.1386" font-family="Times,serif" font-size="15.00" fill="#000000">В одно касание</text>
</a>
</g>
</g>
<!-- Shot&#45;&gt;One&#45;timer -->
<g id="edge33" class="edge">
<title>Shot&#45;&gt;One&#45;timer</title>
<path fill="none" stroke="#000000" stroke-dasharray="5,2" d="M879.3691,-332.7327C914.1595,-386.122 973.9974,-477.9491 1007.521,-529.3944"/>
<polygon fill="#000000" stroke="#000000" points="1013.065,-537.9023 1003.8353,-531.9809 1010.3352,-533.7132 1007.6054,-529.5241 1007.6054,-529.5241 1007.6054,-529.5241 1010.3352,-533.7132 1011.3756,-527.0673 1013.065,-537.9023 1013.065,-537.9023"/>
</g>
<!-- Snap shot&#45;&gt;Wrist shot -->
<g id="edge29" class="edge">
<title>Snap shot&#45;&gt;Wrist shot</title>
<path fill="none" stroke="#000000" stroke-dasharray="5,2" d="M1120.5331,-152.2327C1117.8549,-160.5564 1114.8995,-169.7418 1112.0698,-178.536"/>
<polygon fill="#000000" stroke="#000000" points="1108.9501,-188.232 1107.7294,-177.3343 1110.4816,-183.4723 1112.0131,-178.7126 1112.0131,-178.7126 1112.0131,-178.7126 1110.4816,-183.4723 1116.2968,-180.091 1108.9501,-188.232 1108.9501,-188.232"/>
</g>
<!-- Snap shot&#45;&gt;Slapshot -->
<g id="edge30" class="edge">
<title>Snap shot&#45;&gt;Slapshot</title>
<path fill="none" stroke="#000000" stroke-dasharray="5,2" d="M1086.7543,-96.156C1068.0809,-84.7304 1046.29,-71.3974 1027.6275,-59.9785"/>
<polygon fill="#000000" stroke="#000000" points="1019.0209,-54.7125 1029.8996,-56.0932 1023.2859,-57.3221 1027.5509,-59.9317 1027.5509,-59.9317 1027.5509,-59.9317 1023.2859,-57.3221 1025.2023,-63.7702 1019.0209,-54.7125 1019.0209,-54.7125"/>
</g>
<!-- Backhand shot&#45;&gt;Wrist shot -->
<g id="edge32" class="edge">
<title>Backhand shot&#45;&gt;Wrist shot</title>
<path fill="none" stroke="#000000" stroke-dasharray="5,2" d="M1097.3731,-411.5711C1082.8686,-390.1204 1066.1966,-359.4165 1063.8467,-329.0159 1061.8955,-303.775 1070.3163,-276.6954 1079.4546,-255.5768"/>
<polygon fill="#000000" stroke="#000000" points="1083.6691,-246.3211 1083.6204,-257.2869 1081.597,-250.8716 1079.525,-255.4221 1079.525,-255.4221 1079.525,-255.4221 1081.597,-250.8716 1075.4296,-253.5573 1083.6691,-246.3211 1083.6691,-246.3211"/>
</g>
<!-- Game&#45;&gt;Team -->
<g id="edge37" class="edge">
<title>Game&#45;&gt;Team</title>
<path fill="none" stroke="#000000" stroke-dasharray="5,2" d="M346.8013,-333.9947C360.0824,-311.6934 377.5826,-282.3076 391.3068,-259.2624"/>
<polygon fill="#000000" stroke="#000000" points="396.5539,-250.4517 395.3035,-261.3461 393.9955,-254.7476 391.4371,-259.0435 391.4371,-259.0435 391.4371,-259.0435 393.9955,-254.7476 387.5708,-256.741 396.5539,-250.4517 396.5539,-250.4517"/>
</g>
<!-- Game&#45;&gt;Rink -->
<g id="edge38" class="edge">
<title>Game&#45;&gt;Rink</title>
<path fill="none" stroke="#000000" stroke-dasharray="5,2" d="M346.2129,-400.9215C371.1807,-444.6043 414.6329,-520.6267 440.6789,-566.1958"/>
<polygon fill="#000000" stroke="#000000" points="445.8026,-575.16 436.9333,-568.7111 443.3214,-570.819 440.8402,-566.478 440.8402,-566.478 440.8402,-566.478 443.3214,-570.819 444.7471,-564.245 445.8026,-575.16 445.8026,-575.16"/>
</g>
<!-- Period -->
<g id="node22" class="node">
<title>Period</title>
<g id="a_node22"><a xlink:href="../period.html" xlink:title="Период" target="_top">
<ellipse fill="none" stroke="#c0c0c0" stroke-width=".2" cx="96.1085" cy="-297.1023" rx="45.011" ry="29.8983"/>
<text text-anchor="middle" x="96.1085" y="-302.1023" font-family="Times,serif" font-size="15.00" fill="#000000">Period</text>
<text text-anchor="middle" x="96.1085" y="-285.1023" font-family="Times,serif" font-size="15.00" fill="#000000">Период</text>
</a>
</g>
</g>
<!-- Game&#45;&gt;Period -->
<g id="edge39" class="edge">
<title>Game&#45;&gt;Period</title>
<path fill="none" stroke="#000000" stroke-dasharray="5,2" d="M283.827,-354.1585C245.1233,-342.3947 188.28,-325.1174 147.2938,-312.6598"/>
<polygon fill="#000000" stroke="#000000" points="137.498,-309.6825 148.3745,-308.2851 142.2819,-311.1365 147.0658,-312.5906 147.0658,-312.5906 147.0658,-312.5906 142.2819,-311.1365 145.7571,-316.8961 137.498,-309.6825 137.498,-309.6825"/>
</g>
<!-- Overtime -->
<g id="node23" class="node">
<title>Overtime</title>
<g id="a_node23"><a xlink:href="../overtime.html" xlink:title="Овертайм" target="_top">
<ellipse fill="none" stroke="#c0c0c0" stroke-width=".2" cx="55.5773" cy="-377.0342" rx="55.7232" ry="29.8983"/>
<text text-anchor="middle" x="55.5773" y="-382.0342" font-family="Times,serif" font-size="15.00" fill="#000000">Overtime</text>
<text text-anchor="middle" x="55.5773" y="-365.0342" font-family="Times,serif" font-size="15.00" fill="#000000">Овертайм</text>
</a>
</g>
</g>
<!-- Game&#45;&gt;Overtime -->
<g id="edge40" class="edge">
<title>Game&#45;&gt;Overtime</title>
<path fill="none" stroke="#000000" stroke-dasharray="5,2" d="M280.9416,-368.9307C237.3129,-370.4995 171.3036,-372.873 121.9843,-374.6464"/>
<polygon fill="#000000" stroke="#000000" points="111.7275,-375.0152 121.5593,-370.1586 116.7243,-374.8354 121.7211,-374.6557 121.7211,-374.6557 121.7211,-374.6557 116.7243,-374.8354 121.8828,-379.1528 111.7275,-375.0152 111.7275,-375.0152"/>
</g>
<!-- Shootout -->
<g id="node24" class="node">
<title>Shootout</title>
<g id="a_node24"><a xlink:href="../shootout.html" xlink:title="Буллиты" target="_top">
<ellipse fill="none" stroke="#c0c0c0" stroke-width=".2" cx="136.6279" cy="-464.2033" rx="50.8235" ry="29.8983"/>
<text text-anchor="middle" x="136.6279" y="-469.2033" font-family="Times,serif" font-size="15.00" fill="#000000">Shootout</text>
<text text-anchor="middle" x="136.6279" y="-452.2033" font-family="Times,serif" font-size="15.00" fill="#000000">Буллиты</text>
</a>
</g>
</g>
<!-- Game&#45;&gt;Shootout -->
<g id="edge42" class="edge">
<title>Game&#45;&gt;Shootout</title>
<path fill="none" stroke="#000000" stroke-dasharray="5,2" d="M288.0014,-387.124C258.0049,-402.3981 216.4059,-423.5804 184.4058,-439.8748"/>
<polygon fill="#000000" stroke="#000000" points="175.2303,-444.547 182.0996,-435.9993 179.6859,-442.2781 184.1416,-440.0093 184.1416,-440.0093 184.1416,-440.0093 179.6859,-442.2781 186.1835,-444.0194 175.2303,-444.547 175.2303,-444.547"/>
</g>
<!-- Hockey -->
<g id="node21" class="node root ">
<title>Hockey</title>
<g id="a_node21"><a xlink:href="../hockey.html" xlink:title="Хоккей" target="_top">
<ellipse fill="none" stroke="#c0c0c0" stroke-width=".2" cx="582.4733" cy="-334.8262" rx="45.011" ry="29.8983"/>
<text text-anchor="middle" x="582.4733" y="-339.8262" font-family="Times,serif" font-size="15.00" fill="#000000">Hockey</text>
<text text-anchor="middle" x="582.4733" y="-322.8262" font-family="Times,serif" font-size="15.00" fill="#000000">Хоккей</text>
</a>
</g>
</g>
<!-- Hockey&#45;&gt;Team -->
<g id="edge48" class="edge">
<title>Hockey&#45;&gt;Team</title>
<path fill="none" stroke="#000000" stroke-dasharray="5,2" d="M550.6666,-313.6443C523.8467,-295.7834 485.2381,-270.0717 455.7896,-250.4603"/>
<polygon fill="#000000" stroke="#000000" points="447.3568,-244.8444 458.1744,-246.6419 451.5184,-247.6158 455.68,-250.3873 455.68,-250.3873 455.68,-250.3873 451.5184,-247.6158 453.1857,-254.1328 447.3568,-244.8444 447.3568,-244.8444"/>
</g>
<!-- Hockey&#45;&gt;Player -->
<g id="edge50" class="edge">
<title>Hockey&#45;&gt;Player</title>
<path fill="none" stroke="#000000" stroke-dasharray="5,2" d="M568.9993,-306.4524C566.4486,-301.0812 563.7444,-295.3865 561.0851,-289.7865"/>
<polygon fill="#000000" stroke="#000000" points="556.6872,-280.5255 565.0419,-287.6283 558.8321,-285.0421 560.9769,-289.5587 560.9769,-289.5587 560.9769,-289.5587 558.8321,-285.0421 556.912,-291.4891 556.6872,-280.5255 556.6872,-280.5255"/>
</g>
<!-- Hockey&#45;&gt;Goal net -->
<g id="edge53" class="edge">
<title>Hockey&#45;&gt;Goal net</title>
<path fill="none" stroke="#000000" stroke-dasharray="5,2" d="M594.7694,-363.4469C601.0597,-378.0883 608.8659,-396.2581 615.9555,-412.76"/>
<polygon fill="#000000" stroke="#000000" points="620.0301,-422.2441 611.9481,-414.8324 618.0564,-417.6501 616.0827,-413.0561 616.0827,-413.0561 616.0827,-413.0561 618.0564,-417.6501 620.2173,-411.2798 620.0301,-422.2441 620.0301,-422.2441"/>
</g>
<!-- Hockey&#45;&gt;Stick -->
<g id="edge51" class="edge">
<title>Hockey&#45;&gt;Stick</title>
<path fill="none" stroke="#000000" stroke-dasharray="5,2" d="M609.9773,-311.0408C638.6641,-286.2325 683.7632,-247.2311 715.2808,-219.9748"/>
<polygon fill="#000000" stroke="#000000" points="722.9829,-213.314 718.3626,-223.259 719.201,-216.5846 715.419,-219.8553 715.419,-219.8553 715.419,-219.8553 719.201,-216.5846 712.4755,-216.4515 722.9829,-213.314 722.9829,-213.314"/>
</g>
<!-- Hockey&#45;&gt;Puck -->
<g id="edge52" class="edge">
<title>Hockey&#45;&gt;Puck</title>
<path fill="none" stroke="#000000" stroke-dasharray="5,2" d="M618.683,-352.6914C645.8164,-366.0785 683.3347,-384.5894 713.685,-399.5636"/>
<polygon fill="#000000" stroke="#000000" points="722.8544,-404.0877 711.8955,-403.6986 718.3705,-401.8754 713.8865,-399.663 713.8865,-399.663 713.8865,-399.663 718.3705,-401.8754 715.8776,-395.6275 722.8544,-404.0877 722.8544,-404.0877"/>
</g>
<!-- Hockey&#45;&gt;Goal -->
<g id="edge54" class="edge">
<title>Hockey&#45;&gt;Goal</title>
<path fill="none" stroke="#000000" stroke-dasharray="5,2" d="M596.7662,-306.462C605.7852,-288.5641 617.6013,-265.1152 627.7231,-245.0286"/>
<polygon fill="#000000" stroke="#000000" points="632.2383,-236.0683 631.7569,-247.0236 629.9883,-240.5334 627.7382,-244.9985 627.7382,-244.9985 627.7382,-244.9985 629.9883,-240.5334 623.7196,-242.9735 632.2383,-236.0683 632.2383,-236.0683"/>
</g>
<!-- Hockey&#45;&gt;Shot -->
<g id="edge49" class="edge">
<title>Hockey&#45;&gt;Shot</title>
<path fill="none" stroke="#000000" stroke-dasharray="5,2" d="M626.4173,-327.705C667.0491,-321.1206 728.2886,-311.1967 776.7493,-303.3437"/>
<polygon fill="#000000" stroke="#000000" points="786.8844,-301.7013 777.733,-307.7431 781.9487,-302.5012 777.0131,-303.301 777.0131,-303.301 777.0131,-303.301 781.9487,-302.5012 776.2933,-298.859 786.8844,-301.7013 786.8844,-301.7013"/>
</g>
<!-- Hockey&#45;&gt;Game -->
<g id="edge36" class="edge">
<title>Hockey&#45;&gt;Game</title>
<path fill="none" stroke="#000000" stroke-dasharray="5,2" d="M537.97,-340.4784C494.8146,-345.9594 429.2101,-354.2916 382.626,-360.208"/>
<polygon fill="#000000" stroke="#000000" points="372.6953,-361.4693 382.0485,-355.7451 377.6554,-360.8393 382.6156,-360.2093 382.6156,-360.2093 382.6156,-360.2093 377.6554,-360.8393 383.1826,-364.6734 372.6953,-361.4693 372.6953,-361.4693"/>
</g>
<!-- Overtime&#45;&gt;Period -->
<g id="edge41" class="edge">
<title>Overtime&#45;&gt;Period</title>
<path fill="none" stroke="#000000" stroke-dasharray="5,2" d="M70.21,-348.1769C72.4449,-343.7694 74.7791,-339.1661 77.0916,-334.6058"/>
<polygon fill="#000000" stroke="#000000" points="81.7688,-325.3817 81.2597,-336.3358 79.5075,-329.8412 77.2462,-334.3006 77.2462,-334.3006 77.2462,-334.3006 79.5075,-329.8412 73.2327,-332.2655 81.7688,-325.3817 81.7688,-325.3817"/>
</g>
<!-- Winner -->
<g id="node25" class="node">
<title>Winner</title>
<g id="a_node25"><a xlink:href="../winner.html" xlink:title="Победитель" target="_top">
<ellipse fill="none" stroke="#c0c0c0" stroke-width=".2" cx="203.0948" cy="-207.8345" rx="65.1077" ry="29.8983"/>
<text text-anchor="middle" x="203.0948" y="-212.8345" font-family="Times,serif" font-size="15.00" fill="#000000">Winner</text>
<text text-anchor="middle" x="203.0948" y="-195.8345" font-family="Times,serif" font-size="15.00" fill="#000000">Победитель</text>
</a>
</g>
</g>
<!-- Overtime&#45;&gt;Winner -->
<g id="edge46" class="edge">
<title>Overtime&#45;&gt;Winner</title>
<path fill="none" stroke="#000000" stroke-dasharray="5,2" d="M90.083,-353.5482C103.1055,-343.7957 117.554,-331.8364 129.1152,-319.3167 149.7049,-297.0198 168.5481,-268.4433 182.0643,-245.805"/>
<polygon fill="#000000" stroke="#000000" points="187.1568,-237.1322 185.9738,-248.0341 184.625,-241.4438 182.0933,-245.7555 182.0933,-245.7555 182.0933,-245.7555 184.625,-241.4438 178.2128,-243.4769 187.1568,-237.1322 187.1568,-237.1322"/>
</g>
<!-- Shootout&#45;&gt;Winner -->
<g id="edge47" class="edge">
<title>Shootout&#45;&gt;Winner</title>
<path fill="none" stroke="#000000" stroke-dasharray="5,2" d="M144.2525,-434.7946C156.2085,-388.6793 179.3845,-299.2872 192.8063,-247.5181"/>
<polygon fill="#000000" stroke="#000000" points="195.3544,-237.6899 197.2006,-248.4993 194.0995,-242.5299 192.8447,-247.3699 192.8447,-247.3699 192.8447,-247.3699 194.0995,-242.5299 188.4887,-246.2405 195.3544,-237.6899 195.3544,-237.6899"/>
</g>
<!-- Winner&#45;&gt;Team -->
<g id="edge45" class="edge">
<title>Winner&#45;&gt;Team</title>
<path fill="none" stroke="#000000" stroke-dasharray="5,2" d="M267.6138,-212.2458C294.3651,-214.0749 325.2621,-216.1874 351.7059,-217.9955"/>
<polygon fill="#000000" stroke="#000000" points="361.9811,-218.698 351.6974,-222.5053 356.9927,-218.3569 352.0044,-218.0158 352.0044,-218.0158 352.0044,-218.0158 356.9927,-218.3569 352.3114,-213.5263 361.9811,-218.698 361.9811,-218.698"/>
</g>
<!-- Winner&#45;&gt;Score -->
<g id="edge44" class="edge">
<title>Winner&#45;&gt;Score</title>
<path fill="none" stroke="#000000" stroke-dasharray="5,2" d="M225.524,-179.5493C243.0517,-159.0338 269.0223,-131.8919 296.7347,-114.2066 319.0657,-99.9557 346.4627,-89.2978 369.9121,-81.8725"/>
<polygon fill="#000000" stroke="#000000" points="379.6939,-78.8871 371.4431,-86.1102 374.9117,-80.3466 370.1294,-81.8062 370.1294,-81.8062 370.1294,-81.8062 374.9117,-80.3466 368.8158,-77.5022 379.6939,-78.8871 379.6939,-78.8871"/>
</g>
<!-- Winner&#45;&gt;Game -->
<g id="edge43" class="edge">
<title>Winner&#45;&gt;Game</title>
<path fill="none" stroke="#000000" stroke-dasharray="5,2" d="M224.9581,-235.9723C244.7469,-261.4401 274.0995,-299.2167 296.247,-327.7202"/>
<polygon fill="#000000" stroke="#000000" points="302.5789,-335.8693 292.8899,-330.7338 299.5111,-331.921 296.4433,-327.9728 296.4433,-327.9728 296.4433,-327.9728 299.5111,-331.921 299.9967,-325.2118 302.5789,-335.8693 302.5789,-335.8693"/>
</g>
</g>
</svg>
