<?xml version="1.0" encoding="UTF-8" standalone="no"?>
<?xml-stylesheet href="../static/svg.css" type="text/css"?>
<!DOCTYPE svg PUBLIC "-//W3C//DTD SVG 1.1//EN"
 "http://www.w3.org/Graphics/SVG/1.1/DTD/svg11.dtd">
<!-- Generated by graphviz version 2.40.1 (20161225.0304)
 -->
<!-- Title: term Pages: 1 -->
<svg width="1076pt" height="667pt"
 viewBox="0.00 0.00 1076.50 666.59" xmlns="http://www.w3.org/2000/svg" xmlns:xlink="http://www.w3.org/1999/xlink">
<g id="graph0" class="graph" transform="scale(1 1) rotate(0) translate(4 662.5909)">
<title>term</title>
<!-- Puck -->
<g id="node1" class="node root has&#45;pronunciation">
<title>Puck</title>
<g id="a_node1"><a xlink:href="javascript:history.back()" xlink:title="Шайба" target="_top">
<ellipse fill="none" stroke="#c0c0c0" stroke-width=".2" cx="370.3041" cy="-383.1989" rx="52.1524" ry="52.1524"/>
<text text-anchor="middle" x="370.3041" y="-400.1989" font-family="Times,serif" font-size="20.00" fill="#000000">Puck</text>
<text text-anchor="middle" x="370.3041" y="-378.1989" font-family="Times,serif" font-size="20.00" fill="#000000">Шайба</text>
<text text-anchor="middle" x="370.3041" y="-356.1989" font-family="Times,serif" font-size="20.00" fill="#000000">Пак</text>
</a>
</g>
</g>
<!-- Ice -->
<g id="node6" class="node has&#45;pronunciation">
<title>Ice</title>
<g id="a_node6"><a xlink:href="../ice.html" xlink:title="Лёд" target="_top">
<ellipse fill="none" stroke="#c0c0c0" stroke-width=".2" cx="41.7193" cy="-616.8716" rx="41.9398" ry="41.9398"/>
<text text-anchor="middle" x="41.7193" y="-630.3716" font-family="Times,serif" font-size="15.00" fill="#000000">Ice</text>
<text text-anchor="middle" x="41.7193" y="-613.3716" font-family="Times,serif" font-size="15.00" fill="#000000">Лёд</text>
<text text-anchor="middle" x="41.7193" y="-596.3716" font-family="Times,serif" font-size="15.00" fill="#000000">Айс</text>
</a>
</g>
</g>
<!-- Puck&#45;&gt;Ice -->
<g id="edge13" class="edge">
<title>Puck&#45;&gt;Ice</title>
<path fill="none" stroke="#000000" stroke-dasharray="5,2" d="M327.3474,-413.7476C264.3788,-458.5276 147.682,-541.5164 84.6998,-586.3061"/>
<polygon fill="#000000" stroke="#000000" points="76.1804,-592.3646 81.7219,-582.9019 80.2552,-589.4669 84.3299,-586.5691 84.3299,-586.5691 84.3299,-586.5691 80.2552,-589.4669 86.9378,-590.2364 76.1804,-592.3646 76.1804,-592.3646"/>
</g>
<!-- Goal net -->
<g id="node7" class="node has&#45;pronunciation">
<title>Goal net</title>
<g id="a_node7"><a xlink:href="../goal-net.html" xlink:title="Ворота" target="_top">
<ellipse fill="none" stroke="#c0c0c0" stroke-width=".2" cx="111.8112" cy="-179.6978" rx="62.8651" ry="62.8651"/>
<text text-anchor="middle" x="111.8112" y="-196.6978" font-family="Times,serif" font-size="20.00" fill="#000000">Goal net</text>
<text text-anchor="middle" x="111.8112" y="-174.6978" font-family="Times,serif" font-size="20.00" fill="#000000">Ворота</text>
<text text-anchor="middle" x="111.8112" y="-152.6978" font-family="Times,serif" font-size="20.00" fill="#000000">Гoул нет</text>
</a>
</g>
</g>
<!-- Puck&#45;&gt;Goal net -->
<g id="edge14" class="edge">
<title>Puck&#45;&gt;Goal net</title>
<path fill="none" stroke="#000000" stroke-dasharray="5,2" d="M329.0593,-350.7286C285.8524,-316.7135 217.6579,-263.0266 169.2076,-224.8837"/>
<polygon fill="#000000" stroke="#000000" points="161.3072,-218.6641 171.9481,-221.314 165.2359,-221.7569 169.1645,-224.8498 169.1645,-224.8498 169.1645,-224.8498 165.2359,-221.7569 166.3809,-228.3856 161.3072,-218.6641 161.3072,-218.6641"/>
</g>
<!-- Stick -->
<g id="node2" class="node has&#45;pronunciation">
<title>Stick</title>
<g id="a_node2"><a xlink:href="../stick.html" xlink:title="Клюшка" target="_top">
<ellipse fill="none" stroke="#c0c0c0" stroke-width=".2" cx="1019.7065" cy="-435.1587" rx="48.5816" ry="48.5816"/>
<text text-anchor="middle" x="1019.7065" y="-448.6587" font-family="Times,serif" font-size="15.00" fill="#000000">Stick</text>
<text text-anchor="middle" x="1019.7065" y="-431.6587" font-family="Times,serif" font-size="15.00" fill="#000000">Клюшка</text>
<text text-anchor="middle" x="1019.7065" y="-414.6587" font-family="Times,serif" font-size="15.00" fill="#000000">Стик</text>
</a>
</g>
</g>
<!-- Stick&#45;&gt;Puck -->
<g id="edge9" class="edge">
<title>Stick&#45;&gt;Puck</title>
<path fill="none" stroke="#000000" stroke-dasharray="5,2" d="M970.8958,-431.2533C854.7254,-421.9583 561.9148,-398.53 432.9459,-388.211"/>
<polygon fill="#000000" stroke="#000000" points="422.8352,-387.402 433.1623,-383.714 427.8193,-387.8009 432.8034,-388.1997 432.8034,-388.1997 432.8034,-388.1997 427.8193,-387.8009 432.4444,-392.6854 422.8352,-387.402 422.8352,-387.402"/>
</g>
<!-- Goal -->
<g id="node3" class="node has&#45;pronunciation">
<title>Goal</title>
<g id="a_node3"><a xlink:href="../goal.html" xlink:title="Гол" target="_top">
<ellipse fill="none" stroke="#c0c0c0" stroke-width=".2" cx="411.9925" cy="-52.3259" rx="52.1524" ry="52.1524"/>
<text text-anchor="middle" x="411.9925" y="-69.3259" font-family="Times,serif" font-size="20.00" fill="#000000">Goal</text>
<text text-anchor="middle" x="411.9925" y="-47.3259" font-family="Times,serif" font-size="20.00" fill="#000000">Гол</text>
<text text-anchor="middle" x="411.9925" y="-25.3259" font-family="Times,serif" font-size="20.00" fill="#000000">Гoул</text>
</a>
</g>
</g>
<!-- Goal&#45;&gt;Puck -->
<g id="edge10" class="edge">
<title>Goal&#45;&gt;Puck</title>
<path fill="none" stroke="#000000" stroke-dasharray="5,2" d="M405.4328,-104.3888C398.037,-163.0883 386.0182,-258.4788 378.1363,-321.0365"/>
<polygon fill="#000000" stroke="#000000" points="376.8599,-331.167 373.6453,-320.6829 377.485,-326.2062 378.11,-321.2454 378.11,-321.2454 378.11,-321.2454 377.485,-326.2062 382.5748,-321.808 376.8599,-331.167 376.8599,-331.167"/>
</g>
<!-- Goal&#45;&gt;Goal net -->
<g id="edge1" class="edge">
<title>Goal&#45;&gt;Goal net</title>
<path fill="none" stroke="#000000" stroke-dasharray="5,2" d="M363.7632,-72.7904C313.8646,-93.9632 235.5259,-127.2037 179.4506,-150.9973"/>
<polygon fill="#000000" stroke="#000000" points="169.9519,-155.0278 177.3997,-146.9791 174.5547,-153.0747 179.1575,-151.1216 179.1575,-151.1216 179.1575,-151.1216 174.5547,-153.0747 180.9153,-155.2642 169.9519,-155.0278 169.9519,-155.0278"/>
</g>
<!-- Shot -->
<g id="node4" class="node has&#45;pronunciation">
<title>Shot</title>
<g id="a_node4"><a xlink:href="../shot.html" xlink:title="Бросок" target="_top">
<ellipse fill="none" stroke="#c0c0c0" stroke-width=".2" cx="649.3227" cy="-281.9375" rx="67.3507" ry="67.3507"/>
<text text-anchor="middle" x="649.3227" y="-303.9375" font-family="Times,serif" font-size="25.00" fill="#000000">Shot</text>
<text text-anchor="middle" x="649.3227" y="-275.9375" font-family="Times,serif" font-size="25.00" fill="#000000">Бросок</text>
<text text-anchor="middle" x="649.3227" y="-247.9375" font-family="Times,serif" font-size="25.00" fill="#000000">Шат</text>
</a>
</g>
</g>
<!-- Shot&#45;&gt;Puck -->
<g id="edge11" class="edge">
<title>Shot&#45;&gt;Puck</title>
<path fill="none" stroke="#000000" stroke-dasharray="5,2" d="M586.0091,-304.9153C539.0252,-321.9667 475.409,-345.0543 429.4501,-361.7337"/>
<polygon fill="#000000" stroke="#000000" points="419.9233,-365.1912 427.7882,-357.5496 424.6233,-363.4854 429.3234,-361.7796 429.3234,-361.7796 429.3234,-361.7796 424.6233,-363.4854 430.8586,-366.0097 419.9233,-365.1912 419.9233,-365.1912"/>
</g>
<!-- Shot&#45;&gt;Stick -->
<g id="edge3" class="edge">
<title>Shot&#45;&gt;Stick</title>
<path fill="none" stroke="#000000" stroke-dasharray="5,2" d="M711.7345,-307.7561C782.6714,-337.1014 897.3518,-384.5427 964.9455,-412.505"/>
<polygon fill="#000000" stroke="#000000" points="974.5658,-416.4848 963.6051,-416.8204 969.9456,-414.5735 965.3253,-412.6621 965.3253,-412.6621 965.3253,-412.6621 969.9456,-414.5735 967.0455,-408.5039 974.5658,-416.4848 974.5658,-416.4848"/>
</g>
<!-- Shot&#45;&gt;Goal -->
<g id="edge2" class="edge">
<title>Shot&#45;&gt;Goal</title>
<path fill="none" stroke="#000000" stroke-dasharray="5,2" d="M601.0094,-235.1954C558.8174,-194.3756 498.0546,-135.589 456.902,-95.7749"/>
<polygon fill="#000000" stroke="#000000" points="449.7098,-88.8166 460.0258,-92.5357 453.3033,-92.2932 456.8968,-95.7698 456.8968,-95.7698 456.8968,-95.7698 453.3033,-92.2932 453.7679,-99.004 449.7098,-88.8166 449.7098,-88.8166"/>
</g>
<!-- Shot&#45;&gt;Goal net -->
<g id="edge4" class="edge">
<title>Shot&#45;&gt;Goal net</title>
<path fill="none" stroke="#000000" stroke-dasharray="5,2" d="M583.1439,-269.3496C481.7477,-250.0632 288.7097,-213.3455 183.8858,-193.4071"/>
<polygon fill="#000000" stroke="#000000" points="174.023,-191.5311 184.6877,-188.979 178.9349,-192.4654 183.8468,-193.3998 183.8468,-193.3998 183.8468,-193.3998 178.9349,-192.4654 183.0059,-197.8205 174.023,-191.5311 174.023,-191.5311"/>
</g>
<!-- Hockey -->
<g id="node5" class="node has&#45;pronunciation">
<title>Hockey</title>
<g id="a_node5"><a xlink:href="../hockey.html" xlink:title="Хоккей" target="_top">
<ellipse fill="none" stroke="#c0c0c0" stroke-width=".2" cx="830.3451" cy="-160.9364" rx="45.011" ry="45.011"/>
<text text-anchor="middle" x="830.3451" y="-174.4364" font-family="Times,serif" font-size="15.00" fill="#000000">Hockey</text>
<text text-anchor="middle" x="830.3451" y="-157.4364" font-family="Times,serif" font-size="15.00" fill="#000000">Хоккей</text>
<text text-anchor="middle" x="830.3451" y="-140.4364" font-family="Times,serif" font-size="15.00" fill="#000000">ˈХаки</text>
</a>
</g>
</g>
<!-- Hockey&#45;&gt;Puck -->
<g id="edge12" class="edge">
<title>Hockey&#45;&gt;Puck</title>
<path fill="none" stroke="#000000" stroke-dasharray="5,2" d="M786.4329,-172.1716C749.5411,-181.9538 695.6055,-197.0601 649.4717,-213.1625 562.2497,-243.6061 473.0695,-304.0893 419.6917,-344.0971"/>
<polygon fill="#000000" stroke="#000000" points="411.4381,-350.3346 416.703,-340.7152 415.4271,-347.32 419.4162,-344.3054 419.4162,-344.3054 419.4162,-344.3054 415.4271,-347.32 422.1293,-347.8955 411.4381,-350.3346 411.4381,-350.3346"/>
</g>
<!-- Hockey&#45;&gt;Stick -->
<g id="edge6" class="edge">
<title>Hockey&#45;&gt;Stick</title>
<path fill="none" stroke="#000000" stroke-dasharray="5,2" d="M856.0803,-198.2047C889.772,-246.995 948.9033,-332.6256 986.0985,-386.4895"/>
<polygon fill="#000000" stroke="#000000" points="991.8725,-394.8511 982.4872,-389.1794 989.0313,-390.7367 986.1902,-386.6224 986.1902,-386.6224 986.1902,-386.6224 989.0313,-390.7367 989.8931,-384.0653 991.8725,-394.8511 991.8725,-394.8511"/>
</g>
<!-- Hockey&#45;&gt;Goal -->
<g id="edge8" class="edge">
<title>Hockey&#45;&gt;Goal</title>
<path fill="none" stroke="#000000" stroke-dasharray="5,2" d="M786.3647,-149.5185C711.1957,-130.0035 557.8844,-90.2016 472.6184,-68.0653"/>
<polygon fill="#000000" stroke="#000000" points="462.8195,-65.5213 473.6294,-63.6787 467.6591,-66.7778 472.4986,-68.0343 472.4986,-68.0343 472.4986,-68.0343 467.6591,-66.7778 471.3678,-72.3899 462.8195,-65.5213 462.8195,-65.5213"/>
</g>
<!-- Hockey&#45;&gt;Shot -->
<g id="edge5" class="edge">
<title>Hockey&#45;&gt;Shot</title>
<path fill="none" stroke="#000000" stroke-dasharray="5,2" d="M792.3969,-186.3022C769.6641,-201.4975 740.1616,-221.2179 713.8572,-238.8006"/>
<polygon fill="#000000" stroke="#000000" points="705.4418,-244.4257 711.2548,-235.1274 709.5986,-241.6471 713.7555,-238.8685 713.7555,-238.8685 713.7555,-238.8685 709.5986,-241.6471 716.2562,-242.6097 705.4418,-244.4257 705.4418,-244.4257"/>
</g>
<!-- Hockey&#45;&gt;Goal net -->
<g id="edge7" class="edge">
<title>Hockey&#45;&gt;Goal net</title>
<path fill="none" stroke="#000000" stroke-dasharray="5,2" d="M784.8525,-162.1243C663.8202,-165.2845 333.0795,-173.9204 185.0879,-177.7845"/>
<polygon fill="#000000" stroke="#000000" points="174.7537,-178.0544 184.6328,-173.2948 179.752,-177.9238 184.7503,-177.7933 184.7503,-177.7933 184.7503,-177.7933 179.752,-177.9238 184.8678,-182.2917 174.7537,-178.0544 174.7537,-178.0544"/>
</g>
</g>
</svg>
