<?xml version="1.0" encoding="UTF-8" standalone="no"?>
<?xml-stylesheet href="../static/svg.css" type="text/css"?>
<!DOCTYPE svg PUBLIC "-//W3C//DTD SVG 1.1//EN"
 "http://www.w3.org/Graphics/SVG/1.1/DTD/svg11.dtd">
<!-- Generated by graphviz version 2.40.1 (20161225.0304)
 -->
<!-- Title: term Pages: 1 -->
<svg width="1265pt" height="742pt"
 viewBox="0.00 0.00 1265.10 741.65" xmlns="http://www.w3.org/2000/svg" xmlns:xlink="http://www.w3.org/1999/xlink">
<g id="graph0" class="graph" transform="scale(1 1) rotate(0) translate(4 737.6517)">
<title>term</title>
<!-- Team -->
<g id="node1" class="node has&#45;pronunciation">
<title>Team</title>
<g id="a_node1"><a xlink:href="../team.html" xlink:title="Команда" target="_top">
<ellipse fill="none" stroke="#c0c0c0" stroke-width=".2" cx="145.1772" cy="-502.0674" rx="51.7379" ry="51.7379"/>
<text text-anchor="middle" x="145.1772" y="-515.5674" font-family="Times,serif" font-size="15.00" fill="#000000">Team</text>
<text text-anchor="middle" x="145.1772" y="-498.5674" font-family="Times,serif" font-size="15.00" fill="#000000">Команда</text>
<text text-anchor="middle" x="145.1772" y="-481.5674" font-family="Times,serif" font-size="15.00" fill="#000000">Тим</text>
</a>
</g>
</g>
<!-- Player -->
<g id="node2" class="node has&#45;pronunciation">
<title>Player</title>
<g id="a_node2"><a xlink:href="../player.html" xlink:title="Игрок" target="_top">
<ellipse fill="none" stroke="#c0c0c0" stroke-width=".2" cx="318.9677" cy="-452.1291" rx="46.8387" ry="46.8387"/>
<text text-anchor="middle" x="318.9677" y="-465.6291" font-family="Times,serif" font-size="15.00" fill="#000000">Player</text>
<text text-anchor="middle" x="318.9677" y="-448.6291" font-family="Times,serif" font-size="15.00" fill="#000000">Игрок</text>
<text text-anchor="middle" x="318.9677" y="-431.6291" font-family="Times,serif" font-size="15.00" fill="#000000">&#39;Плейэр</text>
</a>
</g>
</g>
<!-- Team&#45;&gt;Player -->
<g id="edge1" class="edge">
<title>Team&#45;&gt;Player</title>
<path fill="none" stroke="#000000" stroke-dasharray="5,2" d="M194.9786,-487.7571C216.647,-481.5307 242.1038,-474.2158 264.2945,-467.8393"/>
<polygon fill="#000000" stroke="#000000" points="273.9086,-465.0768 265.5403,-472.1635 269.103,-466.4577 264.2975,-467.8385 264.2975,-467.8385 264.2975,-467.8385 269.103,-466.4577 263.0547,-463.5136 273.9086,-465.0768 273.9086,-465.0768"/>
</g>
<!-- Sport -->
<g id="node9" class="node">
<title>Sport</title>
<g id="a_node9"><a xlink:href="../sport.html" xlink:title="Спорт" target="_top">
<ellipse fill="none" stroke="#c0c0c0" stroke-width=".2" cx="212.3915" cy="-318.5369" rx="39.6962" ry="39.6962"/>
<text text-anchor="middle" x="212.3915" y="-323.5369" font-family="Times,serif" font-size="15.00" fill="#000000">Sport</text>
<text text-anchor="middle" x="212.3915" y="-306.5369" font-family="Times,serif" font-size="15.00" fill="#000000">Спорт</text>
</a>
</g>
</g>
<!-- Team&#45;&gt;Sport -->
<g id="edge10" class="edge">
<title>Team&#45;&gt;Sport</title>
<path fill="none" stroke="#000000" stroke-dasharray="5,2" d="M163.0129,-453.3664C172.9886,-426.1274 185.362,-392.3414 195.2271,-365.4046"/>
<polygon fill="#000000" stroke="#000000" points="198.739,-355.8152 199.5256,-366.7529 197.0195,-360.5103 195.3,-365.2053 195.3,-365.2053 195.3,-365.2053 197.0195,-360.5103 191.0745,-363.6578 198.739,-355.8152 198.739,-355.8152"/>
</g>
<!-- Player&#45;&gt;Sport -->
<g id="edge15" class="edge">
<title>Player&#45;&gt;Sport</title>
<path fill="none" stroke="#000000" stroke-dasharray="5,2" d="M289.8453,-415.6245C275.5218,-397.6701 258.2429,-376.0112 243.643,-357.7103"/>
<polygon fill="#000000" stroke="#000000" points="237.1436,-349.5635 246.8977,-354.5743 240.2618,-353.4721 243.38,-357.3807 243.38,-357.3807 243.38,-357.3807 240.2618,-353.4721 239.8623,-360.187 237.1436,-349.5635 237.1436,-349.5635"/>
</g>
<!-- Goal -->
<g id="node11" class="node has&#45;pronunciation">
<title>Goal</title>
<g id="a_node11"><a xlink:href="../goal.html" xlink:title="Гол" target="_top">
<ellipse fill="none" stroke="#c0c0c0" stroke-width=".2" cx="463.3876" cy="-240.6759" rx="65.1077" ry="65.1077"/>
<text text-anchor="middle" x="463.3876" y="-262.6759" font-family="Times,serif" font-size="25.00" fill="#000000">Goal</text>
<text text-anchor="middle" x="463.3876" y="-234.6759" font-family="Times,serif" font-size="25.00" fill="#000000">Гол</text>
<text text-anchor="middle" x="463.3876" y="-206.6759" font-family="Times,serif" font-size="25.00" fill="#000000">Гoул</text>
</a>
</g>
</g>
<!-- Player&#45;&gt;Goal -->
<g id="edge14" class="edge">
<title>Player&#45;&gt;Goal</title>
<path fill="none" stroke="#000000" stroke-dasharray="5,2" d="M345.4566,-413.3454C366.4897,-382.5496 396.3145,-338.8813 420.7078,-303.1658"/>
<polygon fill="#000000" stroke="#000000" points="426.4624,-294.7401 424.5385,-305.5359 423.6424,-298.869 420.8224,-302.9979 420.8224,-302.9979 420.8224,-302.9979 423.6424,-298.869 417.1064,-300.4599 426.4624,-294.7401 426.4624,-294.7401"/>
</g>
<!-- Rink -->
<g id="node3" class="node has&#45;pronunciation">
<title>Rink</title>
<g id="a_node3"><a xlink:href="../rink.html" xlink:title="Площадка" target="_top">
<ellipse fill="none" stroke="#c0c0c0" stroke-width=".2" cx="952.8535" cy="-529.756" rx="57.0522" ry="57.0522"/>
<text text-anchor="middle" x="952.8535" y="-543.256" font-family="Times,serif" font-size="15.00" fill="#000000">Rink</text>
<text text-anchor="middle" x="952.8535" y="-526.256" font-family="Times,serif" font-size="15.00" fill="#000000">Площадка</text>
<text text-anchor="middle" x="952.8535" y="-509.256" font-family="Times,serif" font-size="15.00" fill="#000000">Ринк</text>
</a>
</g>
</g>
<!-- Ice -->
<g id="node4" class="node has&#45;pronunciation">
<title>Ice</title>
<g id="a_node4"><a xlink:href="../ice.html" xlink:title="Лёд" target="_top">
<ellipse fill="none" stroke="#c0c0c0" stroke-width=".2" cx="1215.3817" cy="-372.6087" rx="41.9398" ry="41.9398"/>
<text text-anchor="middle" x="1215.3817" y="-386.1087" font-family="Times,serif" font-size="15.00" fill="#000000">Ice</text>
<text text-anchor="middle" x="1215.3817" y="-369.1087" font-family="Times,serif" font-size="15.00" fill="#000000">Лёд</text>
<text text-anchor="middle" x="1215.3817" y="-352.1087" font-family="Times,serif" font-size="15.00" fill="#000000">Айс</text>
</a>
</g>
</g>
<!-- Rink&#45;&gt;Ice -->
<g id="edge2" class="edge">
<title>Rink&#45;&gt;Ice</title>
<path fill="none" stroke="#000000" stroke-dasharray="5,2" d="M1002.233,-500.1978C1050.6528,-471.2141 1123.8225,-427.4153 1170.5968,-399.4166"/>
<polygon fill="#000000" stroke="#000000" points="1179.2979,-394.2082 1173.0289,-403.2054 1175.0078,-396.7763 1170.7176,-399.3443 1170.7176,-399.3443 1170.7176,-399.3443 1175.0078,-396.7763 1168.4064,-395.4832 1179.2979,-394.2082 1179.2979,-394.2082"/>
</g>
<!-- Goal net -->
<g id="node5" class="node has&#45;pronunciation">
<title>Goal net</title>
<g id="a_node5"><a xlink:href="../goal-net.html" xlink:title="Ворота" target="_top">
<ellipse fill="none" stroke="#c0c0c0" stroke-width=".2" cx="665.7884" cy="-508.7638" rx="77.5641" ry="77.5641"/>
<text text-anchor="middle" x="665.7884" y="-530.7638" font-family="Times,serif" font-size="25.00" fill="#000000">Goal net</text>
<text text-anchor="middle" x="665.7884" y="-502.7638" font-family="Times,serif" font-size="25.00" fill="#000000">Ворота</text>
<text text-anchor="middle" x="665.7884" y="-474.7638" font-family="Times,serif" font-size="25.00" fill="#000000">Гoул нет</text>
</a>
</g>
</g>
<!-- Rink&#45;&gt;Goal net -->
<g id="edge3" class="edge">
<title>Rink&#45;&gt;Goal net</title>
<path fill="none" stroke="#000000" stroke-dasharray="5,2" d="M895.4515,-525.5584C854.8278,-522.5877 799.5971,-518.5488 753.4787,-515.1763"/>
<polygon fill="#000000" stroke="#000000" points="743.4834,-514.4454 753.785,-510.6868 748.4701,-514.8101 753.4568,-515.1748 753.4568,-515.1748 753.4568,-515.1748 748.4701,-514.8101 753.1286,-519.6629 743.4834,-514.4454 743.4834,-514.4454"/>
</g>
<!-- Opponent -->
<g id="node6" class="node has&#45;pronunciation">
<title>Opponent</title>
<g id="a_node6"><a xlink:href="../opponent.html" xlink:title="Противник" target="_top">
<ellipse fill="none" stroke="#c0c0c0" stroke-width=".2" cx="372.7134" cy="-672.8405" rx="60.623" ry="60.623"/>
<text text-anchor="middle" x="372.7134" y="-686.3405" font-family="Times,serif" font-size="15.00" fill="#000000">Opponent</text>
<text text-anchor="middle" x="372.7134" y="-669.3405" font-family="Times,serif" font-size="15.00" fill="#000000">Противник</text>
<text text-anchor="middle" x="372.7134" y="-652.3405" font-family="Times,serif" font-size="15.00" fill="#000000">Эˈпoунэнт</text>
</a>
</g>
</g>
<!-- Opponent&#45;&gt;Team -->
<g id="edge4" class="edge">
<title>Opponent&#45;&gt;Team</title>
<path fill="none" stroke="#000000" stroke-dasharray="5,2" d="M323.9012,-636.2054C285.9031,-607.6866 233.3664,-568.2562 195.091,-539.5293"/>
<polygon fill="#000000" stroke="#000000" points="186.6638,-533.2044 197.363,-535.6081 190.6628,-536.2058 194.6618,-539.2072 194.6618,-539.2072 194.6618,-539.2072 190.6628,-536.2058 191.9605,-542.8063 186.6638,-533.2044 186.6638,-533.2044"/>
</g>
<!-- Opponent&#45;&gt;Player -->
<g id="edge5" class="edge">
<title>Opponent&#45;&gt;Player</title>
<path fill="none" stroke="#000000" stroke-dasharray="5,2" d="M358.3106,-613.6939C350.2796,-580.7139 340.3394,-539.8936 332.4598,-507.5356"/>
<polygon fill="#000000" stroke="#000000" points="330.085,-497.7833 336.8233,-506.4346 331.2681,-502.6413 332.4511,-507.4993 332.4511,-507.4993 332.4511,-507.4993 331.2681,-502.6413 328.0788,-508.5641 330.085,-497.7833 330.085,-497.7833"/>
</g>
<!-- Opponent&#45;&gt;Goal net -->
<g id="edge9" class="edge">
<title>Opponent&#45;&gt;Goal net</title>
<path fill="none" stroke="#000000" stroke-dasharray="5,2" d="M425.7871,-643.1275C471.3974,-617.5928 537.7408,-580.4507 589.1213,-551.6856"/>
<polygon fill="#000000" stroke="#000000" points="597.8815,-546.7812 591.3541,-555.5928 593.5187,-549.2238 589.1558,-551.6663 589.1558,-551.6663 589.1558,-551.6663 593.5187,-549.2238 586.9576,-547.7397 597.8815,-546.7812 597.8815,-546.7812"/>
</g>
<!-- Stick -->
<g id="node7" class="node has&#45;pronunciation">
<title>Stick</title>
<g id="a_node7"><a xlink:href="../stick.html" xlink:title="Клюшка" target="_top">
<ellipse fill="none" stroke="#c0c0c0" stroke-width=".2" cx="832.1173" cy="-122.652" rx="48.5816" ry="48.5816"/>
<text text-anchor="middle" x="832.1173" y="-136.152" font-family="Times,serif" font-size="15.00" fill="#000000">Stick</text>
<text text-anchor="middle" x="832.1173" y="-119.152" font-family="Times,serif" font-size="15.00" fill="#000000">Клюшка</text>
<text text-anchor="middle" x="832.1173" y="-102.152" font-family="Times,serif" font-size="15.00" fill="#000000">Стик</text>
</a>
</g>
</g>
<!-- Puck -->
<g id="node8" class="node has&#45;pronunciation">
<title>Puck</title>
<g id="a_node8"><a xlink:href="../puck.html" xlink:title="Шайба" target="_top">
<ellipse fill="none" stroke="#c0c0c0" stroke-width=".2" cx="846.4364" cy="-297.3366" rx="65.1077" ry="65.1077"/>
<text text-anchor="middle" x="846.4364" y="-319.3366" font-family="Times,serif" font-size="25.00" fill="#000000">Puck</text>
<text text-anchor="middle" x="846.4364" y="-291.3366" font-family="Times,serif" font-size="25.00" fill="#000000">Шайба</text>
<text text-anchor="middle" x="846.4364" y="-263.3366" font-family="Times,serif" font-size="25.00" fill="#000000">Пак</text>
</a>
</g>
</g>
<!-- Stick&#45;&gt;Puck -->
<g id="edge6" class="edge">
<title>Stick&#45;&gt;Puck</title>
<path fill="none" stroke="#000000" stroke-dasharray="5,2" d="M836.106,-171.3114C837.3996,-187.0924 838.8662,-204.9846 840.2797,-222.228"/>
<polygon fill="#000000" stroke="#000000" points="841.1041,-232.2847 835.802,-222.6858 840.6955,-227.3014 840.287,-222.3181 840.287,-222.3181 840.287,-222.3181 840.6955,-227.3014 844.7719,-221.9505 841.1041,-232.2847 841.1041,-232.2847"/>
</g>
<!-- Puck&#45;&gt;Ice -->
<g id="edge7" class="edge">
<title>Puck&#45;&gt;Ice</title>
<path fill="none" stroke="#000000" stroke-dasharray="5,2" d="M910.2806,-310.3621C982.3744,-325.0706 1098.2397,-348.7094 1164.5047,-362.2288"/>
<polygon fill="#000000" stroke="#000000" points="1174.305,-364.2282 1163.6072,-366.6383 1169.4059,-363.2287 1164.5068,-362.2291 1164.5068,-362.2291 1164.5068,-362.2291 1169.4059,-363.2287 1165.4064,-357.82 1174.305,-364.2282 1174.305,-364.2282"/>
</g>
<!-- Puck&#45;&gt;Goal net -->
<g id="edge8" class="edge">
<title>Puck&#45;&gt;Goal net</title>
<path fill="none" stroke="#000000" stroke-dasharray="5,2" d="M804.0825,-346.9069C779.9518,-375.149 749.3863,-410.9224 723.1307,-441.6515"/>
<polygon fill="#000000" stroke="#000000" points="716.5549,-449.3476 719.6297,-438.8216 719.8029,-445.5462 723.0509,-441.7448 723.0509,-441.7448 723.0509,-441.7448 719.8029,-445.5462 726.4722,-444.668 716.5549,-449.3476 716.5549,-449.3476"/>
</g>
<!-- Score -->
<g id="node10" class="node has&#45;pronunciation">
<title>Score</title>
<g id="a_node10"><a xlink:href="../score.html" xlink:title="Счёт" target="_top">
<ellipse fill="none" stroke="#c0c0c0" stroke-width=".2" cx="194.7676" cy="-65.0538" rx="65.1077" ry="65.1077"/>
<text text-anchor="middle" x="194.7676" y="-87.0538" font-family="Times,serif" font-size="25.00" fill="#000000">Score</text>
<text text-anchor="middle" x="194.7676" y="-59.0538" font-family="Times,serif" font-size="25.00" fill="#000000">Счёт</text>
<text text-anchor="middle" x="194.7676" y="-31.0538" font-family="Times,serif" font-size="25.00" fill="#000000">Скор</text>
</a>
</g>
</g>
<!-- Score&#45;&gt;Goal -->
<g id="edge11" class="edge">
<title>Score&#45;&gt;Goal</title>
<path fill="none" stroke="#000000" stroke-dasharray="5,2" d="M249.4506,-100.8053C293.1164,-129.3537 354.3563,-169.3919 400.132,-199.3199"/>
<polygon fill="#000000" stroke="#000000" points="408.7811,-204.9746 397.9487,-203.2688 404.5962,-202.2385 400.4112,-199.5023 400.4112,-199.5023 400.4112,-199.5023 404.5962,-202.2385 402.8737,-195.7359 408.7811,-204.9746 408.7811,-204.9746"/>
</g>
<!-- Point -->
<g id="node12" class="node has&#45;pronunciation">
<title>Point</title>
<g id="a_node12"><a xlink:href="../point.html" xlink:title="Очко" target="_top">
<ellipse fill="none" stroke="#c0c0c0" stroke-width=".2" cx="41.7193" cy="-275.5372" rx="41.9398" ry="41.9398"/>
<text text-anchor="middle" x="41.7193" y="-289.0372" font-family="Times,serif" font-size="15.00" fill="#000000">Point</text>
<text text-anchor="middle" x="41.7193" y="-272.0372" font-family="Times,serif" font-size="15.00" fill="#000000">Очко</text>
<text text-anchor="middle" x="41.7193" y="-255.0372" font-family="Times,serif" font-size="15.00" fill="#000000">Пойнт</text>
</a>
</g>
</g>
<!-- Score&#45;&gt;Point -->
<g id="edge12" class="edge">
<title>Score&#45;&gt;Point</title>
<path fill="none" stroke="#000000" stroke-dasharray="5,2" d="M156.3446,-117.896C130.305,-153.7076 96.363,-200.3871 72.187,-233.6358"/>
<polygon fill="#000000" stroke="#000000" points="66.2617,-241.7847 68.5031,-231.0503 69.2022,-237.7407 72.1427,-233.6967 72.1427,-233.6967 72.1427,-233.6967 69.2022,-237.7407 75.7823,-236.3432 66.2617,-241.7847 66.2617,-241.7847"/>
</g>
<!-- Goal&#45;&gt;Goal net -->
<g id="edge19" class="edge">
<title>Goal&#45;&gt;Goal net</title>
<path fill="none" stroke="#000000" stroke-dasharray="5,2" d="M494.1181,-298.4618C511.762,-329.7006 535.2693,-368.2937 559.9271,-400.1652 572.5959,-416.5404 587.4697,-433.1019 601.9986,-448.1904"/>
<polygon fill="#000000" stroke="#000000" points="609.0922,-455.4718 598.8908,-451.449 605.6031,-451.8904 602.1141,-448.3089 602.1141,-448.3089 602.1141,-448.3089 605.6031,-451.8904 605.3374,-445.1688 609.0922,-455.4718 609.0922,-455.4718"/>
</g>
<!-- Goal&#45;&gt;Puck -->
<g id="edge18" class="edge">
<title>Goal&#45;&gt;Puck</title>
<path fill="none" stroke="#000000" stroke-dasharray="5,2" d="M527.9334,-250.2236C595.301,-260.1886 700.8163,-275.7965 771.7412,-286.2877"/>
<polygon fill="#000000" stroke="#000000" points="781.9459,-287.7972 771.395,-290.7854 776.9997,-287.0655 772.0535,-286.3338 772.0535,-286.3338 772.0535,-286.3338 776.9997,-287.0655 772.7121,-281.8822 781.9459,-287.7972 781.9459,-287.7972"/>
</g>
<!-- Point&#45;&gt;Team -->
<g id="edge17" class="edge">
<title>Point&#45;&gt;Team</title>
<path fill="none" stroke="#000000" stroke-dasharray="5,2" d="M59.1525,-313.7088C75.6958,-349.9319 100.7564,-404.8043 119.5685,-445.995"/>
<polygon fill="#000000" stroke="#000000" points="123.7232,-455.0921 115.4755,-447.8653 121.646,-450.5439 119.5688,-445.9958 119.5688,-445.9958 119.5688,-445.9958 121.646,-450.5439 123.6621,-444.1263 123.7232,-455.0921 123.7232,-455.0921"/>
</g>
<!-- Point&#45;&gt;Player -->
<g id="edge16" class="edge">
<title>Point&#45;&gt;Player</title>
<path fill="none" stroke="#000000" stroke-dasharray="5,2" d="M77.1146,-298.0821C126.3065,-329.4146 215.5085,-386.2313 270.7473,-421.4154"/>
<polygon fill="#000000" stroke="#000000" points="279.3098,-426.8693 268.4579,-425.2924 275.0926,-424.1831 270.8754,-421.497 270.8754,-421.497 270.8754,-421.497 275.0926,-424.1831 273.293,-417.7015 279.3098,-426.8693 279.3098,-426.8693"/>
</g>
<!-- Point&#45;&gt;Goal -->
<g id="edge13" class="edge">
<title>Point&#45;&gt;Goal</title>
<path fill="none" stroke="#000000" stroke-dasharray="5,2" d="M83.3045,-272.0992C154.2272,-266.2357 299.5202,-254.2236 388.4965,-246.8675"/>
<polygon fill="#000000" stroke="#000000" points="398.5254,-246.0384 388.9302,-251.3471 393.5424,-246.4504 388.5594,-246.8624 388.5594,-246.8624 388.5594,-246.8624 393.5424,-246.4504 388.1886,-242.3777 398.5254,-246.0384 398.5254,-246.0384"/>
</g>
<!-- Hockey -->
<g id="node13" class="node root has&#45;pronunciation">
<title>Hockey</title>
<g id="a_node13"><a xlink:href="../hockey.html" xlink:title="Хоккей" target="_top">
<ellipse fill="none" stroke="#c0c0c0" stroke-width=".2" cx="593.1567" cy="-367.1324" rx="45.011" ry="45.011"/>
<text text-anchor="middle" x="593.1567" y="-380.6324" font-family="Times,serif" font-size="15.00" fill="#000000">Hockey</text>
<text text-anchor="middle" x="593.1567" y="-363.6324" font-family="Times,serif" font-size="15.00" fill="#000000">Хоккей</text>
<text text-anchor="middle" x="593.1567" y="-346.6324" font-family="Times,serif" font-size="15.00" fill="#000000">ˈХаки</text>
</a>
</g>
</g>
<!-- Hockey&#45;&gt;Team -->
<g id="edge20" class="edge">
<title>Hockey&#45;&gt;Team</title>
<path fill="none" stroke="#000000" stroke-dasharray="5,2" d="M547.7483,-366.3479C485.2786,-367.0458 370.8253,-374.8092 285.0397,-417.7957 255.0961,-432.8001 223.0021,-451.9039 197.12,-468.1277"/>
<polygon fill="#000000" stroke="#000000" points="188.5928,-473.5091 194.6479,-464.3665 192.8212,-470.8406 197.0496,-468.1721 197.0496,-468.1721 197.0496,-468.1721 192.8212,-470.8406 199.4512,-471.9776 188.5928,-473.5091 188.5928,-473.5091"/>
</g>
<!-- Hockey&#45;&gt;Player -->
<g id="edge23" class="edge">
<title>Hockey&#45;&gt;Player</title>
<path fill="none" stroke="#000000" stroke-dasharray="5,2" d="M549.7106,-380.6004C501.9035,-395.4203 424.9932,-419.2619 373.2511,-435.3017"/>
<polygon fill="#000000" stroke="#000000" points="363.575,-438.3012 371.7942,-431.0419 368.3508,-436.8207 373.1266,-435.3402 373.1266,-435.3402 373.1266,-435.3402 368.3508,-436.8207 374.4591,-439.6384 363.575,-438.3012 363.575,-438.3012"/>
</g>
<!-- Hockey&#45;&gt;Rink -->
<g id="edge22" class="edge">
<title>Hockey&#45;&gt;Rink</title>
<path fill="none" stroke="#000000" stroke-dasharray="5,2" d="M634.4185,-385.7874C697.4176,-414.2701 817.9825,-468.7791 891.3339,-501.9422"/>
<polygon fill="#000000" stroke="#000000" points="900.4783,-506.0765 889.5124,-506.0572 895.9223,-504.0166 891.3663,-501.9568 891.3663,-501.9568 891.3663,-501.9568 895.9223,-504.0166 893.2202,-497.8564 900.4783,-506.0765 900.4783,-506.0765"/>
</g>
<!-- Hockey&#45;&gt;Goal net -->
<g id="edge26" class="edge">
<title>Hockey&#45;&gt;Goal net</title>
<path fill="none" stroke="#000000" stroke-dasharray="5,2" d="M613.97,-407.7183C617.6157,-414.8273 621.5179,-422.4366 625.4844,-430.1712"/>
<polygon fill="#000000" stroke="#000000" points="630.1587,-439.286 621.5913,-432.4413 627.877,-434.837 625.5954,-430.3879 625.5954,-430.3879 625.5954,-430.3879 627.877,-434.837 629.5996,-428.3344 630.1587,-439.286 630.1587,-439.286"/>
</g>
<!-- Hockey&#45;&gt;Stick -->
<g id="edge24" class="edge">
<title>Hockey&#45;&gt;Stick</title>
<path fill="none" stroke="#000000" stroke-dasharray="5,2" d="M624.8888,-334.6673C667.6371,-290.9316 743.7849,-213.0248 790.9135,-164.8076"/>
<polygon fill="#000000" stroke="#000000" points="797.9337,-157.6253 794.1619,-167.9221 794.4387,-161.201 790.9438,-164.7767 790.9438,-164.7767 790.9438,-164.7767 794.4387,-161.201 787.7257,-161.6312 797.9337,-157.6253 797.9337,-157.6253"/>
</g>
<!-- Hockey&#45;&gt;Puck -->
<g id="edge25" class="edge">
<title>Hockey&#45;&gt;Puck</title>
<path fill="none" stroke="#000000" stroke-dasharray="5,2" d="M636.9855,-355.0546C674.6318,-344.6805 729.6644,-329.5153 773.8723,-317.333"/>
<polygon fill="#000000" stroke="#000000" points="783.7047,-314.6235 775.2596,-321.6185 778.8844,-315.9518 774.064,-317.2802 774.064,-317.2802 774.064,-317.2802 778.8844,-315.9518 772.8685,-312.9419 783.7047,-314.6235 783.7047,-314.6235"/>
</g>
<!-- Hockey&#45;&gt;Sport -->
<g id="edge21" class="edge">
<title>Hockey&#45;&gt;Sport</title>
<path fill="none" stroke="#000000" stroke-dasharray="5,2" d="M547.9827,-361.367C476.1115,-352.1944 336.2658,-334.3465 261.8136,-324.8444"/>
<polygon fill="#000000" stroke="#000000" points="251.7559,-323.5608 262.2452,-320.3631 256.7157,-324.1939 261.6755,-324.8269 261.6755,-324.8269 261.6755,-324.8269 256.7157,-324.1939 261.1058,-329.2907 251.7559,-323.5608 251.7559,-323.5608"/>
</g>
<!-- Hockey&#45;&gt;Goal -->
<g id="edge27" class="edge">
<title>Hockey&#45;&gt;Goal</title>
<path fill="none" stroke="#000000" stroke-dasharray="5,2" d="M560.7452,-335.5483C547.5842,-322.7233 532.0216,-307.5579 517.245,-293.1585"/>
<polygon fill="#000000" stroke="#000000" points="510.0682,-286.1649 520.3707,-289.9211 513.6491,-289.6545 517.2301,-293.144 517.2301,-293.144 517.2301,-293.144 513.6491,-289.6545 514.0895,-296.3669 510.0682,-286.1649 510.0682,-286.1649"/>
</g>
</g>
</svg>
