<?xml version="1.0" encoding="UTF-8" standalone="no"?>
<?xml-stylesheet href="../static/svg.css" type="text/css"?>
<!DOCTYPE svg PUBLIC "-//W3C//DTD SVG 1.1//EN"
 "http://www.w3.org/Graphics/SVG/1.1/DTD/svg11.dtd">
<!-- Generated by graphviz version 2.40.1 (20161225.0304)
 -->
<!-- Title: term Pages: 1 -->
<svg width="371pt" height="255pt"
 viewBox="0.00 0.00 370.85 255.00" xmlns="http://www.w3.org/2000/svg" xmlns:xlink="http://www.w3.org/1999/xlink">
<g id="graph0" class="graph" transform="scale(1 1) rotate(0) translate(4 251.0021)">
<title>term</title>
<!-- Period -->
<g id="node1" class="node root has&#45;pronunciation">
<title>Period</title>
<g id="a_node1"><a xlink:href="javascript:history.back()" xlink:title="Период" target="_top">
<ellipse fill="none" stroke="#c0c0c0" stroke-width=".2" cx="48.0833" cy="-193.7082" rx="48.1667" ry="48.1667"/>
<text text-anchor="middle" x="48.0833" y="-207.2082" font-family="Times,serif" font-size="15.00" fill="#000000">Period</text>
<text text-anchor="middle" x="48.0833" y="-190.2082" font-family="Times,serif" font-size="15.00" fill="#000000">Период</text>
<text text-anchor="middle" x="48.0833" y="-173.2082" font-family="Times,serif" font-size="15.00" fill="#000000">ˈПириэд</text>
</a>
</g>
</g>
<!-- Game -->
<g id="node2" class="node has&#45;pronunciation">
<title>Game</title>
<g id="a_node2"><a xlink:href="../game.html" xlink:title="Игра" target="_top">
<ellipse fill="none" stroke="#c0c0c0" stroke-width=".2" cx="310.5269" cy="-194.6762" rx="52.1524" ry="52.1524"/>
<text text-anchor="middle" x="310.5269" y="-211.6762" font-family="Times,serif" font-size="20.00" fill="#000000">Game</text>
<text text-anchor="middle" x="310.5269" y="-189.6762" font-family="Times,serif" font-size="20.00" fill="#000000">Игра</text>
<text text-anchor="middle" x="310.5269" y="-167.6762" font-family="Times,serif" font-size="20.00" fill="#000000">Гейм</text>
</a>
</g>
</g>
<!-- Game&#45;&gt;Period -->
<g id="edge2" class="edge">
<title>Game&#45;&gt;Period</title>
<path fill="none" stroke="#000000" stroke-dasharray="5,2" d="M258.0483,-194.4826C214.334,-194.3214 152.1186,-194.0919 106.7634,-193.9246"/>
<polygon fill="#000000" stroke="#000000" points="96.4882,-193.8867 106.5048,-189.4238 101.4882,-193.9052 106.4882,-193.9237 106.4882,-193.9237 106.4882,-193.9237 101.4882,-193.9052 106.4715,-198.4237 96.4882,-193.8867 96.4882,-193.8867"/>
</g>
<!-- Overtime -->
<g id="node3" class="node has&#45;pronunciation">
<title>Overtime</title>
<g id="a_node3"><a xlink:href="../overtime.html" xlink:title="Овертайм" target="_top">
<ellipse fill="none" stroke="#c0c0c0" stroke-width=".2" cx="181.0822" cy="-67.1751" rx="67.3507" ry="67.3507"/>
<text text-anchor="middle" x="181.0822" y="-80.6751" font-family="Times,serif" font-size="15.00" fill="#000000">Overtime</text>
<text text-anchor="middle" x="181.0822" y="-63.6751" font-family="Times,serif" font-size="15.00" fill="#000000">Овертайм</text>
<text text-anchor="middle" x="181.0822" y="-46.6751" font-family="Times,serif" font-size="15.00" fill="#000000">ˈОувэрˌтайм</text>
</a>
</g>
</g>
<!-- Game&#45;&gt;Overtime -->
<g id="edge1" class="edge">
<title>Game&#45;&gt;Overtime</title>
<path fill="none" stroke="#000000" stroke-dasharray="5,2" d="M273.0861,-157.7976C261.6013,-146.4852 248.7136,-133.791 236.3024,-121.5662"/>
<polygon fill="#000000" stroke="#000000" points="229.0642,-114.4367 239.3464,-118.2481 232.6264,-117.9454 236.1886,-121.4541 236.1886,-121.4541 236.1886,-121.4541 232.6264,-117.9454 233.0307,-124.6601 229.0642,-114.4367 229.0642,-114.4367"/>
</g>
<!-- Overtime&#45;&gt;Period -->
<g id="edge3" class="edge">
<title>Overtime&#45;&gt;Period</title>
<path fill="none" stroke="#000000" stroke-dasharray="5,2" d="M132.3135,-113.5729C118.6793,-126.5442 103.9725,-140.5361 90.7225,-153.1419"/>
<polygon fill="#000000" stroke="#000000" points="83.1087,-160.3856 87.2519,-150.2325 86.7312,-156.9392 90.3537,-153.4928 90.3537,-153.4928 90.3537,-153.4928 86.7312,-156.9392 93.4554,-156.753 83.1087,-160.3856 83.1087,-160.3856"/>
</g>
</g>
</svg>
