<?xml version="1.0" encoding="UTF-8" standalone="no"?>
<?xml-stylesheet href="../static/svg.css" type="text/css"?>
<!DOCTYPE svg PUBLIC "-//W3C//DTD SVG 1.1//EN"
 "http://www.w3.org/Graphics/SVG/1.1/DTD/svg11.dtd">
<!-- Generated by graphviz version 2.40.1 (20161225.0304)
 -->
<!-- Title: term Pages: 1 -->
<svg width="539pt" height="392pt"
 viewBox="0.00 0.00 539.08 392.46" xmlns="http://www.w3.org/2000/svg" xmlns:xlink="http://www.w3.org/1999/xlink">
<g id="graph0" class="graph" transform="scale(1 1) rotate(0) translate(4 388.4623)">
<title>term</title>
<!-- Point -->
<g id="node1" class="node root has&#45;pronunciation">
<title>Point</title>
<g id="a_node1"><a xlink:href="javascript:history.back()" xlink:title="Очко" target="_top">
<ellipse fill="none" stroke="#c0c0c0" stroke-width=".2" cx="385.39" cy="-191.0133" rx="41.9398" ry="41.9398"/>
<text text-anchor="middle" x="385.39" y="-204.5133" font-family="Times,serif" font-size="15.00" fill="#000000">Point</text>
<text text-anchor="middle" x="385.39" y="-187.5133" font-family="Times,serif" font-size="15.00" fill="#000000">Очко</text>
<text text-anchor="middle" x="385.39" y="-170.5133" font-family="Times,serif" font-size="15.00" fill="#000000">Пойнт</text>
</a>
</g>
</g>
<!-- Goal -->
<g id="node3" class="node has&#45;pronunciation">
<title>Goal</title>
<g id="a_node3"><a xlink:href="../goal.html" xlink:title="Гол" target="_top">
<ellipse fill="none" stroke="#c0c0c0" stroke-width=".2" cx="123.0904" cy="-94.3082" rx="52.1524" ry="52.1524"/>
<text text-anchor="middle" x="123.0904" y="-111.3082" font-family="Times,serif" font-size="20.00" fill="#000000">Goal</text>
<text text-anchor="middle" x="123.0904" y="-89.3082" font-family="Times,serif" font-size="20.00" fill="#000000">Гол</text>
<text text-anchor="middle" x="123.0904" y="-67.3082" font-family="Times,serif" font-size="20.00" fill="#000000">Гoул</text>
</a>
</g>
</g>
<!-- Point&#45;&gt;Goal -->
<g id="edge5" class="edge">
<title>Point&#45;&gt;Goal</title>
<path fill="none" stroke="#000000" stroke-dasharray="5,2" d="M346.1211,-176.5356C302.62,-160.4975 232.0164,-134.4672 181.9094,-115.9937"/>
<polygon fill="#000000" stroke="#000000" points="172.4895,-112.5207 183.4288,-111.7578 177.1808,-114.2504 181.8722,-115.98 181.8722,-115.98 181.8722,-115.98 177.1808,-114.2504 180.3155,-120.2022 172.4895,-112.5207 172.4895,-112.5207"/>
</g>
<!-- Player -->
<g id="node4" class="node has&#45;pronunciation">
<title>Player</title>
<g id="a_node4"><a xlink:href="../player.html" xlink:title="Игрок" target="_top">
<ellipse fill="none" stroke="#c0c0c0" stroke-width=".2" cx="46.669" cy="-239.9946" rx="46.8387" ry="46.8387"/>
<text text-anchor="middle" x="46.669" y="-253.4946" font-family="Times,serif" font-size="15.00" fill="#000000">Player</text>
<text text-anchor="middle" x="46.669" y="-236.4946" font-family="Times,serif" font-size="15.00" fill="#000000">Игрок</text>
<text text-anchor="middle" x="46.669" y="-219.4946" font-family="Times,serif" font-size="15.00" fill="#000000">&#39;Плейэр</text>
</a>
</g>
</g>
<!-- Point&#45;&gt;Player -->
<g id="edge6" class="edge">
<title>Point&#45;&gt;Player</title>
<path fill="none" stroke="#000000" stroke-dasharray="5,2" d="M343.8562,-197.0194C283.365,-205.7668 170.859,-222.0359 102.9691,-231.8532"/>
<polygon fill="#000000" stroke="#000000" points="92.8796,-233.3122 102.1326,-227.4273 97.8281,-232.5966 102.7767,-231.8809 102.7767,-231.8809 102.7767,-231.8809 97.8281,-232.5966 103.4207,-236.3346 92.8796,-233.3122 92.8796,-233.3122"/>
</g>
<!-- Team -->
<g id="node5" class="node has&#45;pronunciation">
<title>Team</title>
<g id="a_node5"><a xlink:href="../team.html" xlink:title="Команда" target="_top">
<ellipse fill="none" stroke="#c0c0c0" stroke-width=".2" cx="331.5764" cy="-332.8435" rx="51.7379" ry="51.7379"/>
<text text-anchor="middle" x="331.5764" y="-346.3435" font-family="Times,serif" font-size="15.00" fill="#000000">Team</text>
<text text-anchor="middle" x="331.5764" y="-329.3435" font-family="Times,serif" font-size="15.00" fill="#000000">Команда</text>
<text text-anchor="middle" x="331.5764" y="-312.3435" font-family="Times,serif" font-size="15.00" fill="#000000">Тим</text>
</a>
</g>
</g>
<!-- Point&#45;&gt;Team -->
<g id="edge7" class="edge">
<title>Point&#45;&gt;Team</title>
<path fill="none" stroke="#000000" stroke-dasharray="5,2" d="M370.5427,-230.1445C365.3111,-243.9329 359.3125,-259.7427 353.6152,-274.7585"/>
<polygon fill="#000000" stroke="#000000" points="349.9258,-284.4821 349.266,-273.5361 351.6995,-279.8073 353.4733,-275.1325 353.4733,-275.1325 353.4733,-275.1325 351.6995,-279.8073 357.6806,-276.7289 349.9258,-284.4821 349.9258,-284.4821"/>
</g>
<!-- Score -->
<g id="node2" class="node has&#45;pronunciation">
<title>Score</title>
<g id="a_node2"><a xlink:href="../score.html" xlink:title="Счёт" target="_top">
<ellipse fill="none" stroke="#c0c0c0" stroke-width=".2" cx="478.7497" cy="-52.3259" rx="52.1524" ry="52.1524"/>
<text text-anchor="middle" x="478.7497" y="-69.3259" font-family="Times,serif" font-size="20.00" fill="#000000">Score</text>
<text text-anchor="middle" x="478.7497" y="-47.3259" font-family="Times,serif" font-size="20.00" fill="#000000">Счёт</text>
<text text-anchor="middle" x="478.7497" y="-25.3259" font-family="Times,serif" font-size="20.00" fill="#000000">Скор</text>
</a>
</g>
</g>
<!-- Score&#45;&gt;Point -->
<g id="edge4" class="edge">
<title>Score&#45;&gt;Point</title>
<path fill="none" stroke="#000000" stroke-dasharray="5,2" d="M449.4663,-95.827C438.3551,-112.3328 425.7094,-131.1182 414.6046,-147.6145"/>
<polygon fill="#000000" stroke="#000000" points="408.9542,-156.0082 410.8056,-145.1997 411.7464,-151.8605 414.5386,-147.7127 414.5386,-147.7127 414.5386,-147.7127 411.7464,-151.8605 418.2716,-150.2256 408.9542,-156.0082 408.9542,-156.0082"/>
</g>
<!-- Score&#45;&gt;Goal -->
<g id="edge1" class="edge">
<title>Score&#45;&gt;Goal</title>
<path fill="none" stroke="#000000" stroke-dasharray="5,2" d="M426.6529,-58.4754C362.6031,-66.0359 253.9999,-78.8555 185.5407,-86.9365"/>
<polygon fill="#000000" stroke="#000000" points="175.3266,-88.1422 184.7301,-82.5009 180.2921,-87.556 185.2576,-86.9698 185.2576,-86.9698 185.2576,-86.9698 180.2921,-87.556 185.7852,-91.4388 175.3266,-88.1422 175.3266,-88.1422"/>
</g>
<!-- Player&#45;&gt;Goal -->
<g id="edge2" class="edge">
<title>Player&#45;&gt;Goal</title>
<path fill="none" stroke="#000000" stroke-dasharray="5,2" d="M68.3639,-198.6364C76.3318,-183.4468 85.486,-165.9955 93.999,-149.7668"/>
<polygon fill="#000000" stroke="#000000" points="98.6508,-140.8988 97.9905,-151.8448 96.3281,-145.3266 94.0054,-149.7544 94.0054,-149.7544 94.0054,-149.7544 96.3281,-145.3266 90.0204,-147.664 98.6508,-140.8988 98.6508,-140.8988"/>
</g>
<!-- Team&#45;&gt;Player -->
<g id="edge3" class="edge">
<title>Team&#45;&gt;Player</title>
<path fill="none" stroke="#000000" stroke-dasharray="5,2" d="M282.2746,-316.7764C231.702,-300.2953 153.2372,-274.7242 100.9286,-257.6773"/>
<polygon fill="#000000" stroke="#000000" points="91.1553,-254.4922 102.0575,-253.3123 95.9092,-256.0415 100.6631,-257.5908 100.6631,-257.5908 100.6631,-257.5908 95.9092,-256.0415 99.2687,-261.8694 91.1553,-254.4922 91.1553,-254.4922"/>
</g>
</g>
</svg>
