<?xml version="1.0" encoding="UTF-8" standalone="no"?>
<?xml-stylesheet href="../static/svg.css" type="text/css"?>
<!DOCTYPE svg PUBLIC "-//W3C//DTD SVG 1.1//EN"
 "http://www.w3.org/Graphics/SVG/1.1/DTD/svg11.dtd">
<!-- Generated by graphviz version 2.40.1 (20161225.0304)
 -->
<!-- Title: term Pages: 1 -->
<svg width="508pt" height="395pt"
 viewBox="0.00 0.00 507.73 394.64" xmlns="http://www.w3.org/2000/svg" xmlns:xlink="http://www.w3.org/1999/xlink">
<g id="graph0" class="graph" transform="scale(1 1) rotate(0) translate(4 390.6413)">
<title>term</title>
<!-- Overtime -->
<g id="node1" class="node root has&#45;pronunciation">
<title>Overtime</title>
<g id="a_node1"><a xlink:href="javascript:history.back()" xlink:title="Овертайм" target="_top">
<ellipse fill="none" stroke="#c0c0c0" stroke-width=".2" cx="68.5894" cy="-174.2372" rx="68.6788" ry="68.6788"/>
<text text-anchor="middle" x="68.5894" y="-187.7372" font-family="Times,serif" font-size="15.00" fill="#000000">Overtime</text>
<text text-anchor="middle" x="68.5894" y="-170.7372" font-family="Times,serif" font-size="15.00" fill="#000000">Овертайм</text>
<text text-anchor="middle" x="68.5894" y="-153.7372" font-family="Times,serif" font-size="15.00" fill="#000000">ˈОувэрˌтайм</text>
</a>
</g>
</g>
<!-- Period -->
<g id="node3" class="node has&#45;pronunciation">
<title>Period</title>
<g id="a_node3"><a xlink:href="../period.html" xlink:title="Период" target="_top">
<ellipse fill="none" stroke="#c0c0c0" stroke-width=".2" cx="309.9001" cy="-48.7904" rx="48.5816" ry="48.5816"/>
<text text-anchor="middle" x="309.9001" y="-62.2904" font-family="Times,serif" font-size="15.00" fill="#000000">Period</text>
<text text-anchor="middle" x="309.9001" y="-45.2904" font-family="Times,serif" font-size="15.00" fill="#000000">Период</text>
<text text-anchor="middle" x="309.9001" y="-28.2904" font-family="Times,serif" font-size="15.00" fill="#000000">ˈПириэд</text>
</a>
</g>
</g>
<!-- Overtime&#45;&gt;Period -->
<g id="edge4" class="edge">
<title>Overtime&#45;&gt;Period</title>
<path fill="none" stroke="#000000" stroke-dasharray="5,2" d="M129.4823,-142.5817C168.8687,-122.1064 219.622,-95.722 257.2605,-76.1554"/>
<polygon fill="#000000" stroke="#000000" points="266.5322,-71.3354 259.7352,-79.9407 262.0958,-73.6417 257.6595,-75.948 257.6595,-75.948 257.6595,-75.948 262.0958,-73.6417 255.5838,-71.9553 266.5322,-71.3354 266.5322,-71.3354"/>
</g>
<!-- Winner -->
<g id="node4" class="node has&#45;pronunciation">
<title>Winner</title>
<g id="a_node4"><a xlink:href="../winner.html" xlink:title="Победитель" target="_top">
<ellipse fill="none" stroke="#c0c0c0" stroke-width=".2" cx="204.8068" cy="-321.5874" rx="65.1077" ry="65.1077"/>
<text text-anchor="middle" x="204.8068" y="-335.0874" font-family="Times,serif" font-size="15.00" fill="#000000">Winner</text>
<text text-anchor="middle" x="204.8068" y="-318.0874" font-family="Times,serif" font-size="15.00" fill="#000000">Победитель</text>
<text text-anchor="middle" x="204.8068" y="-301.0874" font-family="Times,serif" font-size="15.00" fill="#000000">ˈУинэр</text>
</a>
</g>
</g>
<!-- Overtime&#45;&gt;Winner -->
<g id="edge5" class="edge">
<title>Overtime&#45;&gt;Winner</title>
<path fill="none" stroke="#000000" stroke-dasharray="5,2" d="M115.4677,-224.9468C127.8051,-238.2926 141.1752,-252.7554 153.7218,-266.3274"/>
<polygon fill="#000000" stroke="#000000" points="160.5956,-273.763 150.5029,-269.4746 157.2014,-270.0914 153.8073,-266.4199 153.8073,-266.4199 153.8073,-266.4199 157.2014,-270.0914 157.1117,-263.3652 160.5956,-273.763 160.5956,-273.763"/>
</g>
<!-- Game -->
<g id="node2" class="node has&#45;pronunciation">
<title>Game</title>
<g id="a_node2"><a xlink:href="../game.html" xlink:title="Игра" target="_top">
<ellipse fill="none" stroke="#c0c0c0" stroke-width=".2" cx="447.4058" cy="-196.2077" rx="52.1524" ry="52.1524"/>
<text text-anchor="middle" x="447.4058" y="-213.2077" font-family="Times,serif" font-size="20.00" fill="#000000">Game</text>
<text text-anchor="middle" x="447.4058" y="-191.2077" font-family="Times,serif" font-size="20.00" fill="#000000">Игра</text>
<text text-anchor="middle" x="447.4058" y="-169.2077" font-family="Times,serif" font-size="20.00" fill="#000000">Гейм</text>
</a>
</g>
</g>
<!-- Game&#45;&gt;Overtime -->
<g id="edge3" class="edge">
<title>Game&#45;&gt;Overtime</title>
<path fill="none" stroke="#000000" stroke-dasharray="5,2" d="M395.1307,-193.1759C331.0634,-189.4601 221.8789,-183.1277 147.5587,-178.8173"/>
<polygon fill="#000000" stroke="#000000" points="137.3115,-178.2229 147.5553,-174.3096 142.3031,-178.5125 147.2947,-178.802 147.2947,-178.802 147.2947,-178.802 142.3031,-178.5125 147.0341,-183.2945 137.3115,-178.2229 137.3115,-178.2229"/>
</g>
<!-- Game&#45;&gt;Period -->
<g id="edge1" class="edge">
<title>Game&#45;&gt;Period</title>
<path fill="none" stroke="#000000" stroke-dasharray="5,2" d="M411.6368,-157.8604C392.9267,-137.8017 369.9457,-113.1642 350.5622,-92.3835"/>
<polygon fill="#000000" stroke="#000000" points="343.5983,-84.9176 353.71,-89.1608 347.0088,-88.5739 350.4193,-92.2302 350.4193,-92.2302 350.4193,-92.2302 347.0088,-88.5739 347.1286,-95.2997 343.5983,-84.9176 343.5983,-84.9176"/>
</g>
<!-- Winner&#45;&gt;Game -->
<g id="edge2" class="edge">
<title>Winner&#45;&gt;Game</title>
<path fill="none" stroke="#000000" stroke-dasharray="5,2" d="M262.6071,-291.7152C301.6607,-271.5315 352.9443,-245.0272 391.5771,-225.0611"/>
<polygon fill="#000000" stroke="#000000" points="400.6117,-220.3918 393.7941,-228.9808 396.1699,-222.6874 391.728,-224.9831 391.728,-224.9831 391.728,-224.9831 396.1699,-222.6874 389.6619,-220.9854 400.6117,-220.3918 400.6117,-220.3918"/>
</g>
</g>
</svg>
