<?xml version="1.0" encoding="UTF-8" standalone="no"?>
<?xml-stylesheet href="../static/svg.css" type="text/css"?>
<!DOCTYPE svg PUBLIC "-//W3C//DTD SVG 1.1//EN"
 "http://www.w3.org/Graphics/SVG/1.1/DTD/svg11.dtd">
<!-- Generated by graphviz version 2.40.1 (20161225.0304)
 -->
<!-- Title: term Pages: 1 -->
<svg width="346pt" height="234pt"
 viewBox="0.00 0.00 346.04 234.14" xmlns="http://www.w3.org/2000/svg" xmlns:xlink="http://www.w3.org/1999/xlink">
<g id="graph0" class="graph" transform="scale(1 1) rotate(0) translate(4 230.139)">
<title>term</title>
<!-- Score -->
<g id="node1" class="node root has&#45;pronunciation">
<title>Score</title>
<g id="a_node1"><a xlink:href="javascript:history.back()" xlink:title="Счёт" target="_top">
<ellipse fill="none" stroke="#c0c0c0" stroke-width=".2" cx="65.0538" cy="-160.1789" rx="65.1077" ry="65.1077"/>
<text text-anchor="middle" x="65.0538" y="-182.1789" font-family="Times,serif" font-size="25.00" fill="#000000">Score</text>
<text text-anchor="middle" x="65.0538" y="-154.1789" font-family="Times,serif" font-size="25.00" fill="#000000">Счёт</text>
<text text-anchor="middle" x="65.0538" y="-126.1789" font-family="Times,serif" font-size="25.00" fill="#000000">Скор</text>
</a>
</g>
</g>
<!-- Goal -->
<g id="node2" class="node has&#45;pronunciation">
<title>Goal</title>
<g id="a_node2"><a xlink:href="../goal.html" xlink:title="Гол" target="_top">
<ellipse fill="none" stroke="#c0c0c0" stroke-width=".2" cx="272.9859" cy="-161.0851" rx="65.1077" ry="65.1077"/>
<text text-anchor="middle" x="272.9859" y="-183.0851" font-family="Times,serif" font-size="25.00" fill="#000000">Goal</text>
<text text-anchor="middle" x="272.9859" y="-155.0851" font-family="Times,serif" font-size="25.00" fill="#000000">Гол</text>
<text text-anchor="middle" x="272.9859" y="-127.0851" font-family="Times,serif" font-size="25.00" fill="#000000">Гoул</text>
</a>
</g>
</g>
<!-- Score&#45;&gt;Goal -->
<g id="edge2" class="edge">
<title>Score&#45;&gt;Goal</title>
<path fill="none" stroke="#000000" stroke-dasharray="5,2" d="M130.2743,-160.4632C151.5576,-160.5559 175.3688,-160.6597 197.3507,-160.7555"/>
<polygon fill="#000000" stroke="#000000" points="207.6396,-160.8003 197.6201,-165.2566 202.6397,-160.7785 197.6397,-160.7567 197.6397,-160.7567 197.6397,-160.7567 202.6397,-160.7785 197.6594,-156.2567 207.6396,-160.8003 207.6396,-160.8003"/>
</g>
<!-- Point -->
<g id="node3" class="node has&#45;pronunciation">
<title>Point</title>
<g id="a_node3"><a xlink:href="../point.html" xlink:title="Очко" target="_top">
<ellipse fill="none" stroke="#c0c0c0" stroke-width=".2" cx="170.4278" cy="-41.7193" rx="41.9398" ry="41.9398"/>
<text text-anchor="middle" x="170.4278" y="-55.2193" font-family="Times,serif" font-size="15.00" fill="#000000">Point</text>
<text text-anchor="middle" x="170.4278" y="-38.2193" font-family="Times,serif" font-size="15.00" fill="#000000">Очко</text>
<text text-anchor="middle" x="170.4278" y="-21.2193" font-family="Times,serif" font-size="15.00" fill="#000000">Пойнт</text>
</a>
</g>
</g>
<!-- Score&#45;&gt;Point -->
<g id="edge3" class="edge">
<title>Score&#45;&gt;Point</title>
<path fill="none" stroke="#000000" stroke-dasharray="5,2" d="M108.5218,-111.3129C117.5581,-101.1546 126.9677,-90.5764 135.6425,-80.8243"/>
<polygon fill="#000000" stroke="#000000" points="142.4209,-73.2043 139.1368,-83.6668 139.0977,-76.9401 135.7745,-80.676 135.7745,-80.676 135.7745,-80.676 139.0977,-76.9401 132.4122,-77.6851 142.4209,-73.2043 142.4209,-73.2043"/>
</g>
<!-- Point&#45;&gt;Goal -->
<g id="edge1" class="edge">
<title>Point&#45;&gt;Goal</title>
<path fill="none" stroke="#000000" stroke-dasharray="5,2" d="M197.6423,-73.3938C205.7601,-82.842 214.9186,-93.5014 223.9821,-104.0503"/>
<polygon fill="#000000" stroke="#000000" points="230.5487,-111.6931 220.6186,-107.0408 227.2902,-107.9006 224.0318,-104.1082 224.0318,-104.1082 224.0318,-104.1082 227.2902,-107.9006 227.445,-101.1756 230.5487,-111.6931 230.5487,-111.6931"/>
</g>
</g>
</svg>
