<?xml version="1.0" encoding="UTF-8" standalone="no"?>
<?xml-stylesheet href="../static/svg.css" type="text/css"?>
<!DOCTYPE svg PUBLIC "-//W3C//DTD SVG 1.1//EN"
 "http://www.w3.org/Graphics/SVG/1.1/DTD/svg11.dtd">
<!-- Generated by graphviz version 2.40.1 (20161225.0304)
 -->
<!-- Title: term Pages: 1 -->
<svg width="671pt" height="452pt"
 viewBox="0.00 0.00 670.52 452.28" xmlns="http://www.w3.org/2000/svg" xmlns:xlink="http://www.w3.org/1999/xlink">
<g id="graph0" class="graph" transform="scale(1 1) rotate(0) translate(4 448.2829)">
<title>term</title>
<!-- Player -->
<g id="node1" class="node root has&#45;pronunciation">
<title>Player</title>
<g id="a_node1"><a xlink:href="javascript:history.back()" xlink:title="Игрок" target="_top">
<ellipse fill="none" stroke="#c0c0c0" stroke-width=".2" cx="302.2848" cy="-221.5307" rx="46.8387" ry="46.8387"/>
<text text-anchor="middle" x="302.2848" y="-235.0307" font-family="Times,serif" font-size="15.00" fill="#000000">Player</text>
<text text-anchor="middle" x="302.2848" y="-218.0307" font-family="Times,serif" font-size="15.00" fill="#000000">Игрок</text>
<text text-anchor="middle" x="302.2848" y="-201.0307" font-family="Times,serif" font-size="15.00" fill="#000000">&#39;Плейэр</text>
</a>
</g>
</g>
<!-- Goal -->
<g id="node6" class="node has&#45;pronunciation">
<title>Goal</title>
<g id="a_node6"><a xlink:href="../goal.html" xlink:title="Гол" target="_top">
<ellipse fill="none" stroke="#c0c0c0" stroke-width=".2" cx="391.3438" cy="-379.2291" rx="65.1077" ry="65.1077"/>
<text text-anchor="middle" x="391.3438" y="-401.2291" font-family="Times,serif" font-size="25.00" fill="#000000">Goal</text>
<text text-anchor="middle" x="391.3438" y="-373.2291" font-family="Times,serif" font-size="25.00" fill="#000000">Гол</text>
<text text-anchor="middle" x="391.3438" y="-345.2291" font-family="Times,serif" font-size="25.00" fill="#000000">Гoул</text>
</a>
</g>
</g>
<!-- Player&#45;&gt;Goal -->
<g id="edge12" class="edge">
<title>Player&#45;&gt;Goal</title>
<path fill="none" stroke="#000000" stroke-dasharray="5,2" d="M325.4515,-262.5525C334.2292,-278.0952 344.4582,-296.208 354.2018,-313.4611"/>
<polygon fill="#000000" stroke="#000000" points="359.2425,-322.3869 350.4067,-315.8924 356.7838,-318.0332 354.3251,-313.6795 354.3251,-313.6795 354.3251,-313.6795 356.7838,-318.0332 358.2434,-311.4666 359.2425,-322.3869 359.2425,-322.3869"/>
</g>
<!-- Sport -->
<g id="node7" class="node">
<title>Sport</title>
<g id="a_node7"><a xlink:href="../sport.html" xlink:title="Спорт" target="_top">
<ellipse fill="none" stroke="#c0c0c0" stroke-width=".2" cx="39.598" cy="-125.5932" rx="39.6962" ry="39.6962"/>
<text text-anchor="middle" x="39.598" y="-130.5932" font-family="Times,serif" font-size="15.00" fill="#000000">Sport</text>
<text text-anchor="middle" x="39.598" y="-113.5932" font-family="Times,serif" font-size="15.00" fill="#000000">Спорт</text>
</a>
</g>
</g>
<!-- Player&#45;&gt;Sport -->
<g id="edge13" class="edge">
<title>Player&#45;&gt;Sport</title>
<path fill="none" stroke="#000000" stroke-dasharray="5,2" d="M258.3169,-205.473C210.7655,-188.1064 135.2506,-160.5271 86.5621,-142.7453"/>
<polygon fill="#000000" stroke="#000000" points="76.899,-139.2162 87.836,-138.4199 81.5956,-140.9315 86.2922,-142.6468 86.2922,-142.6468 86.2922,-142.6468 81.5956,-140.9315 84.7484,-146.8737 76.899,-139.2162 76.899,-139.2162"/>
</g>
<!-- Team -->
<g id="node2" class="node has&#45;pronunciation">
<title>Team</title>
<g id="a_node2"><a xlink:href="../team.html" xlink:title="Команда" target="_top">
<ellipse fill="none" stroke="#c0c0c0" stroke-width=".2" cx="293.0275" cy="-108.8447" rx="51.7379" ry="51.7379"/>
<text text-anchor="middle" x="293.0275" y="-122.3447" font-family="Times,serif" font-size="15.00" fill="#000000">Team</text>
<text text-anchor="middle" x="293.0275" y="-105.3447" font-family="Times,serif" font-size="15.00" fill="#000000">Команда</text>
<text text-anchor="middle" x="293.0275" y="-88.3447" font-family="Times,serif" font-size="15.00" fill="#000000">Тим</text>
</a>
</g>
</g>
<!-- Team&#45;&gt;Player -->
<g id="edge8" class="edge">
<title>Team&#45;&gt;Player</title>
<path fill="none" stroke="#000000" stroke-dasharray="5,2" d="M297.2768,-160.5704C297.3865,-161.9048 297.4964,-163.2426 297.6063,-164.5809"/>
<polygon fill="#000000" stroke="#000000" points="298.4458,-174.7996 293.142,-165.2016 298.0364,-169.8164 297.6269,-164.8332 297.6269,-164.8332 297.6269,-164.8332 298.0364,-169.8164 302.1118,-164.4647 298.4458,-174.7996 298.4458,-174.7996"/>
</g>
<!-- Team&#45;&gt;Sport -->
<g id="edge1" class="edge">
<title>Team&#45;&gt;Sport</title>
<path fill="none" stroke="#000000" stroke-dasharray="5,2" d="M241.4368,-112.2542C197.0883,-115.1851 133.5254,-119.3858 89.6337,-122.2865"/>
<polygon fill="#000000" stroke="#000000" points="79.4768,-122.9577 89.1582,-117.808 84.4659,-122.628 89.455,-122.2982 89.455,-122.2982 89.455,-122.2982 84.4659,-122.628 89.7518,-126.7884 79.4768,-122.9577 79.4768,-122.9577"/>
</g>
<!-- Opponent -->
<g id="node3" class="node has&#45;pronunciation">
<title>Opponent</title>
<g id="a_node3"><a xlink:href="../opponent.html" xlink:title="Противник" target="_top">
<ellipse fill="none" stroke="#c0c0c0" stroke-width=".2" cx="601.7132" cy="-60.8112" rx="60.623" ry="60.623"/>
<text text-anchor="middle" x="601.7132" y="-74.3112" font-family="Times,serif" font-size="15.00" fill="#000000">Opponent</text>
<text text-anchor="middle" x="601.7132" y="-57.3112" font-family="Times,serif" font-size="15.00" fill="#000000">Противник</text>
<text text-anchor="middle" x="601.7132" y="-40.3112" font-family="Times,serif" font-size="15.00" fill="#000000">Эˈпoунэнт</text>
</a>
</g>
</g>
<!-- Opponent&#45;&gt;Player -->
<g id="edge9" class="edge">
<title>Opponent&#45;&gt;Player</title>
<path fill="none" stroke="#000000" stroke-dasharray="5,2" d="M547.8356,-89.7302C492.4459,-119.4609 406.8635,-165.3976 352.7536,-194.4414"/>
<polygon fill="#000000" stroke="#000000" points="343.6905,-199.306 350.3733,-190.6117 348.096,-196.9413 352.5015,-194.5766 352.5015,-194.5766 352.5015,-194.5766 348.096,-196.9413 354.6297,-198.5416 343.6905,-199.306 343.6905,-199.306"/>
</g>
<!-- Opponent&#45;&gt;Team -->
<g id="edge2" class="edge">
<title>Opponent&#45;&gt;Team</title>
<path fill="none" stroke="#000000" stroke-dasharray="5,2" d="M541.4627,-70.1866C487.5626,-78.5738 408.9055,-90.8133 354.6041,-99.263"/>
<polygon fill="#000000" stroke="#000000" points="344.4218,-100.8474 353.6109,-94.8633 349.3623,-100.0786 354.3028,-99.3098 354.3028,-99.3098 354.3028,-99.3098 349.3623,-100.0786 354.9948,-103.7563 344.4218,-100.8474 344.4218,-100.8474"/>
</g>
<!-- Point -->
<g id="node4" class="node has&#45;pronunciation">
<title>Point</title>
<g id="a_node4"><a xlink:href="../point.html" xlink:title="Очко" target="_top">
<ellipse fill="none" stroke="#c0c0c0" stroke-width=".2" cx="54.4752" cy="-303.587" rx="41.9398" ry="41.9398"/>
<text text-anchor="middle" x="54.4752" y="-317.087" font-family="Times,serif" font-size="15.00" fill="#000000">Point</text>
<text text-anchor="middle" x="54.4752" y="-300.087" font-family="Times,serif" font-size="15.00" fill="#000000">Очко</text>
<text text-anchor="middle" x="54.4752" y="-283.087" font-family="Times,serif" font-size="15.00" fill="#000000">Пойнт</text>
</a>
</g>
</g>
<!-- Point&#45;&gt;Player -->
<g id="edge10" class="edge">
<title>Point&#45;&gt;Player</title>
<path fill="none" stroke="#000000" stroke-dasharray="5,2" d="M94.2901,-290.4033C136.0581,-276.5728 201.9644,-254.7494 248.3741,-239.382"/>
<polygon fill="#000000" stroke="#000000" points="257.9657,-236.2059 249.8872,-243.6213 253.2192,-237.7777 248.4726,-239.3494 248.4726,-239.3494 248.4726,-239.3494 253.2192,-237.7777 247.0581,-235.0775 257.9657,-236.2059 257.9657,-236.2059"/>
</g>
<!-- Point&#45;&gt;Team -->
<g id="edge4" class="edge">
<title>Point&#45;&gt;Team</title>
<path fill="none" stroke="#000000" stroke-dasharray="5,2" d="M87.1447,-276.9173C127.9163,-243.6333 197.9802,-186.4366 244.8983,-148.135"/>
<polygon fill="#000000" stroke="#000000" points="252.7985,-141.6856 247.8978,-151.4955 248.9253,-144.8476 245.052,-148.0095 245.052,-148.0095 245.052,-148.0095 248.9253,-144.8476 242.2062,-144.5236 252.7985,-141.6856 252.7985,-141.6856"/>
</g>
<!-- Point&#45;&gt;Goal -->
<g id="edge3" class="edge">
<title>Point&#45;&gt;Goal</title>
<path fill="none" stroke="#000000" stroke-dasharray="5,2" d="M95.4451,-312.7866C150.5962,-325.1705 249.6551,-347.4136 317.8616,-362.7291"/>
<polygon fill="#000000" stroke="#000000" points="327.6921,-364.9365 316.9492,-367.1362 322.8136,-363.841 317.9351,-362.7455 317.9351,-362.7455 317.9351,-362.7455 322.8136,-363.841 318.921,-358.3548 327.6921,-364.9365 327.6921,-364.9365"/>
</g>
<!-- Hockey -->
<g id="node5" class="node has&#45;pronunciation">
<title>Hockey</title>
<g id="a_node5"><a xlink:href="../hockey.html" xlink:title="Хоккей" target="_top">
<ellipse fill="none" stroke="#c0c0c0" stroke-width=".2" cx="532.4143" cy="-229.2147" rx="45.011" ry="45.011"/>
<text text-anchor="middle" x="532.4143" y="-242.7147" font-family="Times,serif" font-size="15.00" fill="#000000">Hockey</text>
<text text-anchor="middle" x="532.4143" y="-225.7147" font-family="Times,serif" font-size="15.00" fill="#000000">Хоккей</text>
<text text-anchor="middle" x="532.4143" y="-208.7147" font-family="Times,serif" font-size="15.00" fill="#000000">ˈХаки</text>
</a>
</g>
</g>
<!-- Hockey&#45;&gt;Player -->
<g id="edge11" class="edge">
<title>Hockey&#45;&gt;Player</title>
<path fill="none" stroke="#000000" stroke-dasharray="5,2" d="M486.9481,-227.6966C450.3938,-226.476 398.8284,-224.7543 359.4746,-223.4403"/>
<polygon fill="#000000" stroke="#000000" points="349.2365,-223.0984 359.3811,-218.9347 354.2337,-223.2653 359.2309,-223.4322 359.2309,-223.4322 359.2309,-223.4322 354.2337,-223.2653 359.0807,-227.9297 349.2365,-223.0984 349.2365,-223.0984"/>
</g>
<!-- Hockey&#45;&gt;Team -->
<g id="edge5" class="edge">
<title>Hockey&#45;&gt;Team</title>
<path fill="none" stroke="#000000" stroke-dasharray="5,2" d="M491.8056,-208.7955C452.3275,-188.9449 392.0736,-158.6477 348.252,-136.613"/>
<polygon fill="#000000" stroke="#000000" points="339.1638,-132.0432 350.1195,-132.5152 343.6308,-134.2894 348.0979,-136.5356 348.0979,-136.5356 348.0979,-136.5356 343.6308,-134.2894 346.0764,-140.556 339.1638,-132.0432 339.1638,-132.0432"/>
</g>
<!-- Hockey&#45;&gt;Goal -->
<g id="edge7" class="edge">
<title>Hockey&#45;&gt;Goal</title>
<path fill="none" stroke="#000000" stroke-dasharray="5,2" d="M501.1062,-262.5077C484.0446,-280.651 462.4933,-303.5687 443.0138,-324.2832"/>
<polygon fill="#000000" stroke="#000000" points="435.943,-331.8022 439.5154,-321.4345 439.3683,-328.1597 442.7936,-324.5173 442.7936,-324.5173 442.7936,-324.5173 439.3683,-328.1597 446.0718,-327.6001 435.943,-331.8022 435.943,-331.8022"/>
</g>
<!-- Hockey&#45;&gt;Sport -->
<g id="edge6" class="edge">
<title>Hockey&#45;&gt;Sport</title>
<path fill="none" stroke="#000000" stroke-dasharray="5,2" d="M488.5634,-217.7053C442.4765,-205.8037 367.7798,-187.0637 302.7437,-173.2639 228.6565,-157.5435 142.1413,-142.5016 89.1183,-133.6564"/>
<polygon fill="#000000" stroke="#000000" points="78.9739,-131.9716 89.5761,-129.1709 83.9063,-132.7909 88.8388,-133.6101 88.8388,-133.6101 88.8388,-133.6101 83.9063,-132.7909 88.1015,-138.0493 78.9739,-131.9716 78.9739,-131.9716"/>
</g>
</g>
</svg>
