<?xml version="1.0" encoding="UTF-8" standalone="no"?>
<?xml-stylesheet href="../static/svg.css" type="text/css"?>
<!DOCTYPE svg PUBLIC "-//W3C//DTD SVG 1.1//EN"
 "http://www.w3.org/Graphics/SVG/1.1/DTD/svg11.dtd">
<!-- Generated by graphviz version 2.40.1 (20161225.0304)
 -->
<!-- Title: term Pages: 1 -->
<svg width="499pt" height="328pt"
 viewBox="0.00 0.00 498.86 327.66" xmlns="http://www.w3.org/2000/svg" xmlns:xlink="http://www.w3.org/1999/xlink">
<g id="graph0" class="graph" transform="scale(1 1) rotate(0) translate(4 323.6639)">
<title>term</title>
<!-- Stick -->
<g id="node1" class="node root has&#45;pronunciation">
<title>Stick</title>
<g id="a_node1"><a xlink:href="javascript:history.back()" xlink:title="Клюшка" target="_top">
<ellipse fill="none" stroke="#c0c0c0" stroke-width=".2" cx="48.7904" cy="-139.8367" rx="48.5816" ry="48.5816"/>
<text text-anchor="middle" x="48.7904" y="-153.3367" font-family="Times,serif" font-size="15.00" fill="#000000">Stick</text>
<text text-anchor="middle" x="48.7904" y="-136.3367" font-family="Times,serif" font-size="15.00" fill="#000000">Клюшка</text>
<text text-anchor="middle" x="48.7904" y="-119.3367" font-family="Times,serif" font-size="15.00" fill="#000000">Стик</text>
</a>
</g>
</g>
<!-- Puck -->
<g id="node4" class="node has&#45;pronunciation">
<title>Puck</title>
<g id="a_node4"><a xlink:href="../puck.html" xlink:title="Шайба" target="_top">
<ellipse fill="none" stroke="#c0c0c0" stroke-width=".2" cx="208.261" cy="-267.338" rx="52.1524" ry="52.1524"/>
<text text-anchor="middle" x="208.261" y="-284.338" font-family="Times,serif" font-size="20.00" fill="#000000">Puck</text>
<text text-anchor="middle" x="208.261" y="-262.338" font-family="Times,serif" font-size="20.00" fill="#000000">Шайба</text>
<text text-anchor="middle" x="208.261" y="-240.338" font-family="Times,serif" font-size="20.00" fill="#000000">Пак</text>
</a>
</g>
</g>
<!-- Stick&#45;&gt;Puck -->
<g id="edge6" class="edge">
<title>Stick&#45;&gt;Puck</title>
<path fill="none" stroke="#000000" stroke-dasharray="5,2" d="M86.9875,-170.3764C108.6656,-187.7087 136.0269,-209.5848 159.2716,-228.1696"/>
<polygon fill="#000000" stroke="#000000" points="167.3058,-234.5932 156.6852,-231.8632 163.4005,-231.4708 159.4953,-228.3484 159.4953,-228.3484 159.4953,-228.3484 163.4005,-231.4708 162.3054,-224.8337 167.3058,-234.5932 167.3058,-234.5932"/>
</g>
<!-- Shot -->
<g id="node2" class="node has&#45;pronunciation">
<title>Shot</title>
<g id="a_node2"><a xlink:href="../shot.html" xlink:title="Бросок" target="_top">
<ellipse fill="none" stroke="#c0c0c0" stroke-width=".2" cx="423.685" cy="-172.6819" rx="67.3507" ry="67.3507"/>
<text text-anchor="middle" x="423.685" y="-194.6819" font-family="Times,serif" font-size="25.00" fill="#000000">Shot</text>
<text text-anchor="middle" x="423.685" y="-166.6819" font-family="Times,serif" font-size="25.00" fill="#000000">Бросок</text>
<text text-anchor="middle" x="423.685" y="-138.6819" font-family="Times,serif" font-size="25.00" fill="#000000">Шат</text>
</a>
</g>
</g>
<!-- Shot&#45;&gt;Stick -->
<g id="edge4" class="edge">
<title>Shot&#45;&gt;Stick</title>
<path fill="none" stroke="#000000" stroke-dasharray="5,2" d="M356.6614,-166.8098C285.8456,-160.6055 175.2638,-150.9172 107.6874,-144.9967"/>
<polygon fill="#000000" stroke="#000000" points="97.6315,-144.1157 107.9861,-140.5058 102.6124,-144.5522 107.5933,-144.9886 107.5933,-144.9886 107.5933,-144.9886 102.6124,-144.5522 107.2006,-149.4714 97.6315,-144.1157 97.6315,-144.1157"/>
</g>
<!-- Shot&#45;&gt;Puck -->
<g id="edge1" class="edge">
<title>Shot&#45;&gt;Puck</title>
<path fill="none" stroke="#000000" stroke-dasharray="5,2" d="M361.9531,-199.8065C331.6621,-213.1163 295.3984,-229.0503 265.7049,-242.0975"/>
<polygon fill="#000000" stroke="#000000" points="256.311,-246.2251 263.6559,-238.0825 260.8886,-244.2137 265.4662,-242.2023 265.4662,-242.2023 265.4662,-242.2023 260.8886,-244.2137 267.2764,-246.3221 256.311,-246.2251 256.311,-246.2251"/>
</g>
<!-- Hockey -->
<g id="node3" class="node has&#45;pronunciation">
<title>Hockey</title>
<g id="a_node3"><a xlink:href="../hockey.html" xlink:title="Хоккей" target="_top">
<ellipse fill="none" stroke="#c0c0c0" stroke-width=".2" cx="263.8228" cy="-45.2548" rx="45.011" ry="45.011"/>
<text text-anchor="middle" x="263.8228" y="-58.7548" font-family="Times,serif" font-size="15.00" fill="#000000">Hockey</text>
<text text-anchor="middle" x="263.8228" y="-41.7548" font-family="Times,serif" font-size="15.00" fill="#000000">Хоккей</text>
<text text-anchor="middle" x="263.8228" y="-24.7548" font-family="Times,serif" font-size="15.00" fill="#000000">ˈХаки</text>
</a>
</g>
</g>
<!-- Hockey&#45;&gt;Stick -->
<g id="edge5" class="edge">
<title>Hockey&#45;&gt;Stick</title>
<path fill="none" stroke="#000000" stroke-dasharray="5,2" d="M222.3624,-63.4912C188.2724,-78.4856 139.7171,-99.8426 102.6265,-116.1569"/>
<polygon fill="#000000" stroke="#000000" points="93.4595,-120.189 100.8013,-112.0436 98.0363,-118.1759 102.6131,-116.1627 102.6131,-116.1627 102.6131,-116.1627 98.0363,-118.1759 104.425,-120.2819 93.4595,-120.189 93.4595,-120.189"/>
</g>
<!-- Hockey&#45;&gt;Shot -->
<g id="edge2" class="edge">
<title>Hockey&#45;&gt;Shot</title>
<path fill="none" stroke="#000000" stroke-dasharray="5,2" d="M299.3014,-73.535C318.0622,-88.4893 341.6135,-107.2623 363.1619,-124.4386"/>
<polygon fill="#000000" stroke="#000000" points="370.9976,-130.6844 360.3729,-127.9701 367.0877,-127.5678 363.1778,-124.4512 363.1778,-124.4512 363.1778,-124.4512 367.0877,-127.5678 365.9827,-120.9324 370.9976,-130.6844 370.9976,-130.6844"/>
</g>
<!-- Hockey&#45;&gt;Puck -->
<g id="edge3" class="edge">
<title>Hockey&#45;&gt;Puck</title>
<path fill="none" stroke="#000000" stroke-dasharray="5,2" d="M252.7791,-89.3969C244.419,-122.8127 232.8349,-169.1149 223.5791,-206.1109"/>
<polygon fill="#000000" stroke="#000000" points="221.0348,-216.2804 219.0965,-205.4872 222.2483,-211.4299 223.4619,-206.5794 223.4619,-206.5794 223.4619,-206.5794 222.2483,-211.4299 227.8274,-207.6716 221.0348,-216.2804 221.0348,-216.2804"/>
</g>
</g>
</svg>
