<?xml version="1.0" encoding="UTF-8" standalone="no"?>
<?xml-stylesheet href="../static/svg.css" type="text/css"?>
<!DOCTYPE svg PUBLIC "-//W3C//DTD SVG 1.1//EN"
 "http://www.w3.org/Graphics/SVG/1.1/DTD/svg11.dtd">
<!-- Generated by graphviz version 2.40.1 (20161225.0304)
 -->
<!-- Title: term Pages: 1 -->
<svg width="937pt" height="556pt"
 viewBox="0.00 0.00 936.85 556.20" xmlns="http://www.w3.org/2000/svg" xmlns:xlink="http://www.w3.org/1999/xlink">
<g id="graph0" class="graph" transform="scale(1 1) rotate(0) translate(4 552.1964)">
<title>term</title>
<!-- Hockey -->
<g id="node1" class="node root has&#45;pronunciation">
<title>Hockey</title>
<g id="a_node1"><a xlink:href="../" xlink:title="Хоккей" target="_top">
<ellipse fill="none" stroke="#c0c0c0" stroke-width=".2" cx="461.8869" cy="-317.6918" rx="45.011" ry="45.011"/>
<text text-anchor="middle" x="461.8869" y="-331.1918" font-family="Times,serif" font-size="15.00" fill="#000000">Hockey</text>
<text text-anchor="middle" x="461.8869" y="-314.1918" font-family="Times,serif" font-size="15.00" fill="#000000">Хоккей</text>
<text text-anchor="middle" x="461.8869" y="-297.1918" font-family="Times,serif" font-size="15.00" fill="#000000">ˈХаки</text>
</a>
</g>
</g>
<!-- Team -->
<g id="node2" class="node has&#45;pronunciation">
<title>Team</title>
<g id="a_node2"><a xlink:href="../team.html" xlink:title="Команда" target="_top">
<ellipse fill="none" stroke="#c0c0c0" stroke-width=".2" cx="741.6371" cy="-460.248" rx="51.7379" ry="51.7379"/>
<text text-anchor="middle" x="741.6371" y="-473.748" font-family="Times,serif" font-size="15.00" fill="#000000">Team</text>
<text text-anchor="middle" x="741.6371" y="-456.748" font-family="Times,serif" font-size="15.00" fill="#000000">Команда</text>
<text text-anchor="middle" x="741.6371" y="-439.748" font-family="Times,serif" font-size="15.00" fill="#000000">Тим</text>
</a>
</g>
</g>
<!-- Hockey&#45;&gt;Team -->
<g id="edge14" class="edge">
<title>Hockey&#45;&gt;Team</title>
<path fill="none" stroke="#000000" stroke-dasharray="5,2" d="M502.2662,-338.2685C550.6125,-362.905 631.8388,-404.2966 686.0792,-431.9366"/>
<polygon fill="#000000" stroke="#000000" points="695.2102,-436.5897 684.2572,-436.0587 690.7553,-434.3195 686.3004,-432.0493 686.3004,-432.0493 686.3004,-432.0493 690.7553,-434.3195 688.3435,-428.0399 695.2102,-436.5897 695.2102,-436.5897"/>
</g>
<!-- Sport -->
<g id="node3" class="node">
<title>Sport</title>
<g id="a_node3"><a xlink:href="../sport.html" xlink:title="Спорт" target="_top">
<ellipse fill="none" stroke="#c0c0c0" stroke-width=".2" cx="889.2505" cy="-300.8129" rx="39.6962" ry="39.6962"/>
<text text-anchor="middle" x="889.2505" y="-305.8129" font-family="Times,serif" font-size="15.00" fill="#000000">Sport</text>
<text text-anchor="middle" x="889.2505" y="-288.8129" font-family="Times,serif" font-size="15.00" fill="#000000">Спорт</text>
</a>
</g>
</g>
<!-- Hockey&#45;&gt;Sport -->
<g id="edge15" class="edge">
<title>Hockey&#45;&gt;Sport</title>
<path fill="none" stroke="#000000" stroke-dasharray="5,2" d="M507.2177,-315.9015C587.8488,-312.7169 755.5747,-306.0925 839.3644,-302.7832"/>
<polygon fill="#000000" stroke="#000000" points="849.3983,-302.3869 839.5837,-307.2781 844.4021,-302.5842 839.406,-302.7816 839.406,-302.7816 839.406,-302.7816 844.4021,-302.5842 839.2284,-298.2851 849.3983,-302.3869 849.3983,-302.3869"/>
</g>
<!-- Shot -->
<g id="node4" class="node has&#45;pronunciation">
<title>Shot</title>
<g id="a_node4"><a xlink:href="../shot.html" xlink:title="Бросок" target="_top">
<ellipse fill="none" stroke="#c0c0c0" stroke-width=".2" cx="283.8338" cy="-247.3196" rx="67.3507" ry="67.3507"/>
<text text-anchor="middle" x="283.8338" y="-269.3196" font-family="Times,serif" font-size="25.00" fill="#000000">Shot</text>
<text text-anchor="middle" x="283.8338" y="-241.3196" font-family="Times,serif" font-size="25.00" fill="#000000">Бросок</text>
<text text-anchor="middle" x="283.8338" y="-213.3196" font-family="Times,serif" font-size="25.00" fill="#000000">Шат</text>
</a>
</g>
</g>
<!-- Hockey&#45;&gt;Shot -->
<g id="edge16" class="edge">
<title>Hockey&#45;&gt;Shot</title>
<path fill="none" stroke="#000000" stroke-dasharray="5,2" d="M419.6908,-301.0146C400.6996,-293.5087 377.7338,-284.4319 356.1313,-275.8939"/>
<polygon fill="#000000" stroke="#000000" points="346.6478,-272.1457 357.6018,-271.6364 351.2978,-273.9836 355.9478,-275.8214 355.9478,-275.8214 355.9478,-275.8214 351.2978,-273.9836 354.2937,-280.0064 346.6478,-272.1457 346.6478,-272.1457"/>
</g>
<!-- Player -->
<g id="node5" class="node has&#45;pronunciation">
<title>Player</title>
<g id="a_node5"><a xlink:href="../player.html" xlink:title="Игрок" target="_top">
<ellipse fill="none" stroke="#c0c0c0" stroke-width=".2" cx="681.8383" cy="-179.0163" rx="46.8387" ry="46.8387"/>
<text text-anchor="middle" x="681.8383" y="-192.5163" font-family="Times,serif" font-size="15.00" fill="#000000">Player</text>
<text text-anchor="middle" x="681.8383" y="-175.5163" font-family="Times,serif" font-size="15.00" fill="#000000">Игрок</text>
<text text-anchor="middle" x="681.8383" y="-158.5163" font-family="Times,serif" font-size="15.00" fill="#000000">&#39;Плейэр</text>
</a>
</g>
</g>
<!-- Hockey&#45;&gt;Player -->
<g id="edge17" class="edge">
<title>Hockey&#45;&gt;Player</title>
<path fill="none" stroke="#000000" stroke-dasharray="5,2" d="M500.1995,-293.5364C537.2371,-270.1849 593.4819,-234.7235 633.5626,-209.4533"/>
<polygon fill="#000000" stroke="#000000" points="642.1103,-204.0642 636.0512,-213.2041 637.8808,-206.7308 633.6512,-209.3975 633.6512,-209.3975 633.6512,-209.3975 637.8808,-206.7308 631.2512,-205.5909 642.1103,-204.0642 642.1103,-204.0642"/>
</g>
<!-- Stick -->
<g id="node6" class="node has&#45;pronunciation">
<title>Stick</title>
<g id="a_node6"><a xlink:href="../stick.html" xlink:title="Клюшка" target="_top">
<ellipse fill="none" stroke="#c0c0c0" stroke-width=".2" cx="192.2301" cy="-499.406" rx="48.5816" ry="48.5816"/>
<text text-anchor="middle" x="192.2301" y="-512.906" font-family="Times,serif" font-size="15.00" fill="#000000">Stick</text>
<text text-anchor="middle" x="192.2301" y="-495.906" font-family="Times,serif" font-size="15.00" fill="#000000">Клюшка</text>
<text text-anchor="middle" x="192.2301" y="-478.906" font-family="Times,serif" font-size="15.00" fill="#000000">Стик</text>
</a>
</g>
</g>
<!-- Hockey&#45;&gt;Stick -->
<g id="edge18" class="edge">
<title>Hockey&#45;&gt;Stick</title>
<path fill="none" stroke="#000000" stroke-dasharray="5,2" d="M424.1083,-343.1497C376.3265,-375.3486 293.951,-430.8592 241.335,-466.3156"/>
<polygon fill="#000000" stroke="#000000" points="232.8353,-472.0433 238.6134,-462.7232 236.9818,-469.2491 241.1282,-466.4549 241.1282,-466.4549 241.1282,-466.4549 236.9818,-469.2491 243.6429,-470.1867 232.8353,-472.0433 232.8353,-472.0433"/>
</g>
<!-- Puck -->
<g id="node7" class="node has&#45;pronunciation">
<title>Puck</title>
<g id="a_node7"><a xlink:href="../puck.html" xlink:title="Шайба" target="_top">
<ellipse fill="none" stroke="#c0c0c0" stroke-width=".2" cx="65.0538" cy="-287.3302" rx="65.1077" ry="65.1077"/>
<text text-anchor="middle" x="65.0538" y="-309.3302" font-family="Times,serif" font-size="25.00" fill="#000000">Puck</text>
<text text-anchor="middle" x="65.0538" y="-281.3302" font-family="Times,serif" font-size="25.00" fill="#000000">Шайба</text>
<text text-anchor="middle" x="65.0538" y="-253.3302" font-family="Times,serif" font-size="25.00" fill="#000000">Пак</text>
</a>
</g>
</g>
<!-- Hockey&#45;&gt;Puck -->
<g id="edge19" class="edge">
<title>Hockey&#45;&gt;Puck</title>
<path fill="none" stroke="#000000" stroke-dasharray="5,2" d="M416.4166,-318.8077C380.3721,-319.3248 328.7486,-319.2489 283.6887,-316.0946 235.427,-312.7162 181.5373,-305.6642 139.3359,-299.3885"/>
<polygon fill="#000000" stroke="#000000" points="129.4204,-297.8964 139.9787,-294.9346 134.3648,-298.6405 139.3091,-299.3845 139.3091,-299.3845 139.3091,-299.3845 134.3648,-298.6405 138.6394,-303.8344 129.4204,-297.8964 129.4204,-297.8964"/>
</g>
<!-- Goal net -->
<g id="node8" class="node has&#45;pronunciation">
<title>Goal net</title>
<g id="a_node8"><a xlink:href="../goal-net.html" xlink:title="Ворота" target="_top">
<ellipse fill="none" stroke="#c0c0c0" stroke-width=".2" cx="122.385" cy="-85.4353" rx="77.5641" ry="77.5641"/>
<text text-anchor="middle" x="122.385" y="-107.4353" font-family="Times,serif" font-size="25.00" fill="#000000">Goal net</text>
<text text-anchor="middle" x="122.385" y="-79.4353" font-family="Times,serif" font-size="25.00" fill="#000000">Ворота</text>
<text text-anchor="middle" x="122.385" y="-51.4353" font-family="Times,serif" font-size="25.00" fill="#000000">Гoул нет</text>
</a>
</g>
</g>
<!-- Hockey&#45;&gt;Goal net -->
<g id="edge20" class="edge">
<title>Hockey&#45;&gt;Goal net</title>
<path fill="none" stroke="#000000" stroke-dasharray="5,2" d="M430.6058,-284.7494C405.5421,-259.4282 368.709,-224.5397 332.5676,-198.7909 291.7586,-169.7169 242.6355,-142.8297 202.1443,-122.5446"/>
<polygon fill="#000000" stroke="#000000" points="193.1127,-118.0574 204.0705,-118.4769 197.5904,-120.2821 202.0682,-122.5069 202.0682,-122.5069 202.0682,-122.5069 197.5904,-120.2821 200.0659,-126.5369 193.1127,-118.0574 193.1127,-118.0574"/>
</g>
<!-- Goal -->
<g id="node9" class="node has&#45;pronunciation">
<title>Goal</title>
<g id="a_node9"><a xlink:href="../goal.html" xlink:title="Гол" target="_top">
<ellipse fill="none" stroke="#c0c0c0" stroke-width=".2" cx="390.3834" cy="-65.0538" rx="65.1077" ry="65.1077"/>
<text text-anchor="middle" x="390.3834" y="-87.0538" font-family="Times,serif" font-size="25.00" fill="#000000">Goal</text>
<text text-anchor="middle" x="390.3834" y="-59.0538" font-family="Times,serif" font-size="25.00" fill="#000000">Гол</text>
<text text-anchor="middle" x="390.3834" y="-31.0538" font-family="Times,serif" font-size="25.00" fill="#000000">Гoул</text>
</a>
</g>
</g>
<!-- Hockey&#45;&gt;Goal -->
<g id="edge21" class="edge">
<title>Hockey&#45;&gt;Goal</title>
<path fill="none" stroke="#000000" stroke-dasharray="5,2" d="M449.5136,-273.9741C438.9228,-236.5544 423.4579,-181.9137 411,-137.8971"/>
<polygon fill="#000000" stroke="#000000" points="408.2284,-128.1044 415.2817,-136.501 409.5901,-132.9155 410.9518,-137.7265 410.9518,-137.7265 410.9518,-137.7265 409.5901,-132.9155 406.6219,-138.952 408.2284,-128.1044 408.2284,-128.1044"/>
</g>
<!-- Team&#45;&gt;Sport -->
<g id="edge2" class="edge">
<title>Team&#45;&gt;Sport</title>
<path fill="none" stroke="#000000" stroke-dasharray="5,2" d="M776.9942,-422.0593C800.7243,-396.4287 831.8117,-362.8517 855.2535,-337.5325"/>
<polygon fill="#000000" stroke="#000000" points="862.2665,-329.9579 858.7747,-340.3531 858.8696,-333.6269 855.4727,-337.2958 855.4727,-337.2958 855.4727,-337.2958 858.8696,-333.6269 852.1706,-334.2386 862.2665,-329.9579 862.2665,-329.9579"/>
</g>
<!-- Team&#45;&gt;Player -->
<g id="edge1" class="edge">
<title>Team&#45;&gt;Player</title>
<path fill="none" stroke="#000000" stroke-dasharray="5,2" d="M730.8772,-409.6446C720.4111,-360.4231 704.5474,-285.8164 693.7163,-234.8783"/>
<polygon fill="#000000" stroke="#000000" points="691.6203,-225.0208 698.1018,-233.8661 692.6603,-229.9114 693.7002,-234.8021 693.7002,-234.8021 693.7002,-234.8021 692.6603,-229.9114 689.2986,-235.738 691.6203,-225.0208 691.6203,-225.0208"/>
</g>
<!-- Shot&#45;&gt;Stick -->
<g id="edge5" class="edge">
<title>Shot&#45;&gt;Stick</title>
<path fill="none" stroke="#000000" stroke-dasharray="5,2" d="M260.8365,-310.6063C245.984,-351.4795 226.836,-404.1733 212.5448,-443.5016"/>
<polygon fill="#000000" stroke="#000000" points="209.0216,-453.197 208.2076,-442.2614 210.7293,-448.4976 212.437,-443.7983 212.437,-443.7983 212.437,-443.7983 210.7293,-448.4976 216.6664,-445.3352 209.0216,-453.197 209.0216,-453.197"/>
</g>
<!-- Shot&#45;&gt;Puck -->
<g id="edge4" class="edge">
<title>Shot&#45;&gt;Puck</title>
<path fill="none" stroke="#000000" stroke-dasharray="5,2" d="M217.5989,-259.4327C192.8395,-263.9607 164.5674,-269.1311 139.1444,-273.7805"/>
<polygon fill="#000000" stroke="#000000" points="129.1857,-275.6017 138.213,-269.3761 134.1041,-274.7022 139.0225,-273.8027 139.0225,-273.8027 139.0225,-273.8027 134.1041,-274.7022 139.8321,-278.2293 129.1857,-275.6017 129.1857,-275.6017"/>
</g>
<!-- Shot&#45;&gt;Goal net -->
<g id="edge6" class="edge">
<title>Shot&#45;&gt;Goal net</title>
<path fill="none" stroke="#000000" stroke-dasharray="5,2" d="M236.267,-199.6246C220.1523,-183.4664 201.9038,-165.1686 184.8107,-148.0295"/>
<polygon fill="#000000" stroke="#000000" points="177.5654,-140.7646 187.8133,-144.6675 181.0962,-144.3049 184.627,-147.8452 184.627,-147.8452 184.627,-147.8452 181.0962,-144.3049 181.4407,-151.023 177.5654,-140.7646 177.5654,-140.7646"/>
</g>
<!-- Shot&#45;&gt;Goal -->
<g id="edge3" class="edge">
<title>Shot&#45;&gt;Goal</title>
<path fill="none" stroke="#000000" stroke-dasharray="5,2" d="M317.8397,-189.1485C328.8251,-170.3566 341.0738,-149.4037 352.3323,-130.1447"/>
<polygon fill="#000000" stroke="#000000" points="357.4274,-121.429 356.2655,-132.3331 354.904,-125.7455 352.3806,-130.0621 352.3806,-130.0621 352.3806,-130.0621 354.904,-125.7455 348.4957,-127.791 357.4274,-121.429 357.4274,-121.429"/>
</g>
<!-- Player&#45;&gt;Sport -->
<g id="edge8" class="edge">
<title>Player&#45;&gt;Sport</title>
<path fill="none" stroke="#000000" stroke-dasharray="5,2" d="M722.3219,-202.7891C757.9695,-223.722 809.7332,-254.1188 846.1443,-275.5001"/>
<polygon fill="#000000" stroke="#000000" points="855.0514,-280.7305 844.1496,-279.5472 850.7399,-278.1986 846.4283,-275.6668 846.4283,-275.6668 846.4283,-275.6668 850.7399,-278.1986 848.707,-271.7863 855.0514,-280.7305 855.0514,-280.7305"/>
</g>
<!-- Player&#45;&gt;Shot -->
<g id="edge9" class="edge">
<title>Player&#45;&gt;Shot</title>
<path fill="none" stroke="#000000" stroke-dasharray="5,2" d="M635.7933,-186.9183C568.3882,-198.486 442.0275,-220.1713 360.4748,-234.1669"/>
<polygon fill="#000000" stroke="#000000" points="350.2648,-235.9191 359.3595,-229.7925 355.1927,-235.0734 360.1207,-234.2276 360.1207,-234.2276 360.1207,-234.2276 355.1927,-235.0734 360.8819,-238.6628 350.2648,-235.9191 350.2648,-235.9191"/>
</g>
<!-- Player&#45;&gt;Goal -->
<g id="edge7" class="edge">
<title>Player&#45;&gt;Goal</title>
<path fill="none" stroke="#000000" stroke-dasharray="5,2" d="M638.2046,-161.955C591.2181,-143.5827 515.7749,-114.0834 460.4568,-92.4534"/>
<polygon fill="#000000" stroke="#000000" points="451.0676,-88.7821 462.0197,-88.2328 455.7243,-90.603 460.3809,-92.4238 460.3809,-92.4238 460.3809,-92.4238 455.7243,-90.603 458.7422,-96.6148 451.0676,-88.7821 451.0676,-88.7821"/>
</g>
<!-- Stick&#45;&gt;Puck -->
<g id="edge10" class="edge">
<title>Stick&#45;&gt;Puck</title>
<path fill="none" stroke="#000000" stroke-dasharray="5,2" d="M167.1042,-457.5066C149.096,-427.4768 124.4956,-386.4538 103.9604,-352.2097"/>
<polygon fill="#000000" stroke="#000000" points="98.5601,-343.2044 107.5624,-349.4663 101.1316,-347.4925 103.7031,-351.7806 103.7031,-351.7806 103.7031,-351.7806 101.1316,-347.4925 99.8438,-354.0949 98.5601,-343.2044 98.5601,-343.2044"/>
</g>
<!-- Puck&#45;&gt;Goal net -->
<g id="edge11" class="edge">
<title>Puck&#45;&gt;Goal net</title>
<path fill="none" stroke="#000000" stroke-dasharray="5,2" d="M82.8795,-224.5561C87.7555,-207.385 93.1222,-188.4857 98.286,-170.3011"/>
<polygon fill="#000000" stroke="#000000" points="101.0465,-160.5799 102.6437,-171.4288 99.6807,-165.3897 98.3148,-170.1996 98.3148,-170.1996 98.3148,-170.1996 99.6807,-165.3897 93.9859,-168.9703 101.0465,-160.5799 101.0465,-160.5799"/>
</g>
<!-- Goal&#45;&gt;Puck -->
<g id="edge12" class="edge">
<title>Goal&#45;&gt;Puck</title>
<path fill="none" stroke="#000000" stroke-dasharray="5,2" d="M336.6618,-101.7582C279.0913,-141.0924 187.8259,-203.448 127.1998,-244.8699"/>
<polygon fill="#000000" stroke="#000000" points="118.8552,-250.5712 124.5734,-241.2143 122.9836,-247.7505 127.112,-244.9298 127.112,-244.9298 127.112,-244.9298 122.9836,-247.7505 129.6507,-248.6454 118.8552,-250.5712 118.8552,-250.5712"/>
</g>
<!-- Goal&#45;&gt;Goal net -->
<g id="edge13" class="edge">
<title>Goal&#45;&gt;Goal net</title>
<path fill="none" stroke="#000000" stroke-dasharray="5,2" d="M325.5084,-69.9876C290.9583,-72.6152 247.9652,-75.8848 210.4409,-78.7386"/>
<polygon fill="#000000" stroke="#000000" points="200.0137,-79.5316 209.6436,-74.2861 204.9993,-79.1524 209.9849,-78.7732 209.9849,-78.7732 209.9849,-78.7732 204.9993,-79.1524 210.3262,-83.2602 200.0137,-79.5316 200.0137,-79.5316"/>
</g>
</g>
</svg>
