<?xml version="1.0" encoding="UTF-8" standalone="no"?>
<?xml-stylesheet href="../static/svg.css" type="text/css"?>
<!DOCTYPE svg PUBLIC "-//W3C//DTD SVG 1.1//EN"
 "http://www.w3.org/Graphics/SVG/1.1/DTD/svg11.dtd">
<!-- Generated by graphviz version 2.40.1 (20161225.0304)
 -->
<!-- Title: term Pages: 1 -->
<svg width="918pt" height="543pt"
 viewBox="0.00 0.00 917.87 543.47" xmlns="http://www.w3.org/2000/svg" xmlns:xlink="http://www.w3.org/1999/xlink">
<g id="graph0" class="graph" transform="scale(1 1) rotate(0) translate(4 539.4684)">
<title>term</title>
<!-- Hockey -->
<g id="node1" class="node root has&#45;pronunciation">
<title>Hockey</title>
<g id="a_node1"><a xlink:href="../" xlink:title="Хоккей" target="_top">
<ellipse fill="none" stroke="#c0c0c0" stroke-width=".2" cx="440.3598" cy="-304.9639" rx="45.011" ry="45.011"/>
<text text-anchor="middle" x="440.3598" y="-318.4639" font-family="Times,serif" font-size="15.00" fill="#000000">Hockey</text>
<text text-anchor="middle" x="440.3598" y="-301.4639" font-family="Times,serif" font-size="15.00" fill="#000000">Хоккей</text>
<text text-anchor="middle" x="440.3598" y="-284.4639" font-family="Times,serif" font-size="15.00" fill="#000000">ˈХаки</text>
</a>
</g>
</g>
<!-- Game -->
<g id="node2" class="node has&#45;pronunciation">
<title>Game</title>
<g id="a_node2"><a xlink:href="../game.html" xlink:title="Игра" target="_top">
<ellipse fill="none" stroke="#c0c0c0" stroke-width=".2" cx="713.9069" cy="-447.5201" rx="52.1524" ry="52.1524"/>
<text text-anchor="middle" x="713.9069" y="-464.5201" font-family="Times,serif" font-size="20.00" fill="#000000">Game</text>
<text text-anchor="middle" x="713.9069" y="-442.5201" font-family="Times,serif" font-size="20.00" fill="#000000">Игра</text>
<text text-anchor="middle" x="713.9069" y="-420.5201" font-family="Times,serif" font-size="20.00" fill="#000000">Гейм</text>
</a>
</g>
</g>
<!-- Hockey&#45;&gt;Game -->
<g id="edge14" class="edge">
<title>Hockey&#45;&gt;Game</title>
<path fill="none" stroke="#000000" stroke-dasharray="5,2" d="M480.7226,-325.9986C527.7865,-350.5254 605.8381,-391.2012 658.5399,-418.6662"/>
<polygon fill="#000000" stroke="#000000" points="667.4211,-423.2945 656.4733,-422.6636 662.987,-420.9837 658.553,-418.673 658.553,-418.673 658.553,-418.673 662.987,-420.9837 660.6327,-414.6824 667.4211,-423.2945 667.4211,-423.2945"/>
</g>
<!-- Team -->
<g id="node3" class="node has&#45;pronunciation">
<title>Team</title>
<g id="a_node3"><a xlink:href="../team.html" xlink:title="Команда" target="_top">
<ellipse fill="none" stroke="#c0c0c0" stroke-width=".2" cx="858.2472" cy="-288.085" rx="51.7379" ry="51.7379"/>
<text text-anchor="middle" x="858.2472" y="-301.585" font-family="Times,serif" font-size="15.00" fill="#000000">Team</text>
<text text-anchor="middle" x="858.2472" y="-284.585" font-family="Times,serif" font-size="15.00" fill="#000000">Команда</text>
<text text-anchor="middle" x="858.2472" y="-267.585" font-family="Times,serif" font-size="15.00" fill="#000000">Тим</text>
</a>
</g>
</g>
<!-- Hockey&#45;&gt;Team -->
<g id="edge15" class="edge">
<title>Hockey&#45;&gt;Team</title>
<path fill="none" stroke="#000000" stroke-dasharray="5,2" d="M485.8766,-303.1254C561.1897,-300.0834 711.8162,-293.9995 796.599,-290.575"/>
<polygon fill="#000000" stroke="#000000" points="806.6025,-290.1709 796.7923,-295.071 801.6065,-290.3728 796.6106,-290.5746 796.6106,-290.5746 796.6106,-290.5746 801.6065,-290.3728 796.4289,-286.0783 806.6025,-290.1709 806.6025,-290.1709"/>
</g>
<!-- Shot -->
<g id="node4" class="node has&#45;pronunciation">
<title>Shot</title>
<g id="a_node4"><a xlink:href="../shot.html" xlink:title="Бросок" target="_top">
<ellipse fill="none" stroke="#c0c0c0" stroke-width=".2" cx="266.2547" cy="-234.5917" rx="67.3507" ry="67.3507"/>
<text text-anchor="middle" x="266.2547" y="-256.5917" font-family="Times,serif" font-size="25.00" fill="#000000">Shot</text>
<text text-anchor="middle" x="266.2547" y="-228.5917" font-family="Times,serif" font-size="25.00" fill="#000000">Бросок</text>
<text text-anchor="middle" x="266.2547" y="-200.5917" font-family="Times,serif" font-size="25.00" fill="#000000">Шат</text>
</a>
</g>
</g>
<!-- Hockey&#45;&gt;Shot -->
<g id="edge16" class="edge">
<title>Hockey&#45;&gt;Shot</title>
<path fill="none" stroke="#000000" stroke-dasharray="5,2" d="M398.2138,-287.9288C380.1484,-280.6268 358.53,-271.8888 338.0705,-263.6192"/>
<polygon fill="#000000" stroke="#000000" points="328.7686,-259.8595 339.7263,-259.4348 333.4043,-261.7332 338.0399,-263.6069 338.0399,-263.6069 338.0399,-263.6069 333.4043,-261.7332 336.3536,-267.779 328.7686,-259.8595 328.7686,-259.8595"/>
</g>
<!-- Player -->
<g id="node5" class="node has&#45;pronunciation">
<title>Player</title>
<g id="a_node5"><a xlink:href="../player.html" xlink:title="Игрок" target="_top">
<ellipse fill="none" stroke="#c0c0c0" stroke-width=".2" cx="655.4341" cy="-166.2884" rx="46.8387" ry="46.8387"/>
<text text-anchor="middle" x="655.4341" y="-179.7884" font-family="Times,serif" font-size="15.00" fill="#000000">Player</text>
<text text-anchor="middle" x="655.4341" y="-162.7884" font-family="Times,serif" font-size="15.00" fill="#000000">Игрок</text>
<text text-anchor="middle" x="655.4341" y="-145.7884" font-family="Times,serif" font-size="15.00" fill="#000000">&#39;Плейэр</text>
</a>
</g>
</g>
<!-- Hockey&#45;&gt;Player -->
<g id="edge17" class="edge">
<title>Hockey&#45;&gt;Player</title>
<path fill="none" stroke="#000000" stroke-dasharray="5,2" d="M478.8108,-280.1715C514.7565,-256.9944 568.5618,-222.3019 607.3356,-197.3013"/>
<polygon fill="#000000" stroke="#000000" points="615.8609,-191.8044 609.895,-201.0054 611.6587,-194.5139 607.4565,-197.2234 607.4565,-197.2234 607.4565,-197.2234 611.6587,-194.5139 605.0179,-193.4414 615.8609,-191.8044 615.8609,-191.8044"/>
</g>
<!-- Stick -->
<g id="node6" class="node has&#45;pronunciation">
<title>Stick</title>
<g id="a_node6"><a xlink:href="../stick.html" xlink:title="Клюшка" target="_top">
<ellipse fill="none" stroke="#c0c0c0" stroke-width=".2" cx="176.6822" cy="-486.6781" rx="48.5816" ry="48.5816"/>
<text text-anchor="middle" x="176.6822" y="-500.1781" font-family="Times,serif" font-size="15.00" fill="#000000">Stick</text>
<text text-anchor="middle" x="176.6822" y="-483.1781" font-family="Times,serif" font-size="15.00" fill="#000000">Клюшка</text>
<text text-anchor="middle" x="176.6822" y="-466.1781" font-family="Times,serif" font-size="15.00" fill="#000000">Стик</text>
</a>
</g>
</g>
<!-- Hockey&#45;&gt;Stick -->
<g id="edge18" class="edge">
<title>Hockey&#45;&gt;Stick</title>
<path fill="none" stroke="#000000" stroke-dasharray="5,2" d="M402.8612,-330.8061C356.2609,-362.9209 276.6377,-417.7935 225.3666,-453.1271"/>
<polygon fill="#000000" stroke="#000000" points="217.078,-458.8392 222.7585,-449.4593 221.195,-456.002 225.3121,-453.1647 225.3121,-453.1647 225.3121,-453.1647 221.195,-456.002 227.8656,-456.87 217.078,-458.8392 217.078,-458.8392"/>
</g>
<!-- Puck -->
<g id="node7" class="node has&#45;pronunciation">
<title>Puck</title>
<g id="a_node7"><a xlink:href="../puck.html" xlink:title="Шайба" target="_top">
<ellipse fill="none" stroke="#c0c0c0" stroke-width=".2" cx="52.3259" cy="-274.6023" rx="52.1524" ry="52.1524"/>
<text text-anchor="middle" x="52.3259" y="-291.6023" font-family="Times,serif" font-size="20.00" fill="#000000">Puck</text>
<text text-anchor="middle" x="52.3259" y="-269.6023" font-family="Times,serif" font-size="20.00" fill="#000000">Шайба</text>
<text text-anchor="middle" x="52.3259" y="-247.6023" font-family="Times,serif" font-size="20.00" fill="#000000">Пак</text>
</a>
</g>
</g>
<!-- Hockey&#45;&gt;Puck -->
<g id="edge19" class="edge">
<title>Hockey&#45;&gt;Puck</title>
<path fill="none" stroke="#000000" stroke-dasharray="5,2" d="M394.8031,-306.0951C359.6103,-306.5943 309.7137,-306.4878 266.1097,-303.3667 214.5829,-299.6785 156.5145,-291.6135 113.9145,-284.9592"/>
<polygon fill="#000000" stroke="#000000" points="103.9786,-283.389 114.5585,-280.5052 108.9173,-284.1695 113.856,-284.95 113.856,-284.95 113.856,-284.95 108.9173,-284.1695 113.1535,-289.3948 103.9786,-283.389 103.9786,-283.389"/>
</g>
<!-- Goal net -->
<g id="node8" class="node has&#45;pronunciation">
<title>Goal net</title>
<g id="a_node8"><a xlink:href="../goal-net.html" xlink:title="Ворота" target="_top">
<ellipse fill="none" stroke="#c0c0c0" stroke-width=".2" cx="108.3858" cy="-72.7074" rx="62.8651" ry="62.8651"/>
<text text-anchor="middle" x="108.3858" y="-89.7074" font-family="Times,serif" font-size="20.00" fill="#000000">Goal net</text>
<text text-anchor="middle" x="108.3858" y="-67.7074" font-family="Times,serif" font-size="20.00" fill="#000000">Ворота</text>
<text text-anchor="middle" x="108.3858" y="-45.7074" font-family="Times,serif" font-size="20.00" fill="#000000">Гoул нет</text>
</a>
</g>
</g>
<!-- Hockey&#45;&gt;Goal net -->
<g id="edge20" class="edge">
<title>Hockey&#45;&gt;Goal net</title>
<path fill="none" stroke="#000000" stroke-dasharray="5,2" d="M409.6556,-271.4859C385.435,-246.2025 350.0045,-211.6134 314.9886,-186.063 270.8042,-153.8228 216.4234,-124.3414 174.5458,-103.5301"/>
<polygon fill="#000000" stroke="#000000" points="165.5384,-99.0914 176.4976,-99.4752 170.0234,-101.3015 174.5084,-103.5117 174.5084,-103.5117 174.5084,-103.5117 170.0234,-101.3015 172.5192,-107.5482 165.5384,-99.0914 165.5384,-99.0914"/>
</g>
<!-- Goal -->
<g id="node9" class="node has&#45;pronunciation">
<title>Goal</title>
<g id="a_node9"><a xlink:href="../goal.html" xlink:title="Гол" target="_top">
<ellipse fill="none" stroke="#c0c0c0" stroke-width=".2" cx="370.4417" cy="-52.3259" rx="52.1524" ry="52.1524"/>
<text text-anchor="middle" x="370.4417" y="-69.3259" font-family="Times,serif" font-size="20.00" fill="#000000">Goal</text>
<text text-anchor="middle" x="370.4417" y="-47.3259" font-family="Times,serif" font-size="20.00" fill="#000000">Гол</text>
<text text-anchor="middle" x="370.4417" y="-25.3259" font-family="Times,serif" font-size="20.00" fill="#000000">Гoул</text>
</a>
</g>
</g>
<!-- Hockey&#45;&gt;Goal -->
<g id="edge21" class="edge">
<title>Hockey&#45;&gt;Goal</title>
<path fill="none" stroke="#000000" stroke-dasharray="5,2" d="M428.2608,-261.2461C416.8999,-220.1954 399.8033,-158.4193 387.1451,-112.681"/>
<polygon fill="#000000" stroke="#000000" points="384.4344,-102.8864 391.4388,-111.3238 385.7681,-107.7053 387.1018,-112.5241 387.1018,-112.5241 387.1018,-112.5241 385.7681,-107.7053 382.7648,-113.7244 384.4344,-102.8864 384.4344,-102.8864"/>
</g>
<!-- Game&#45;&gt;Team -->
<g id="edge1" class="edge">
<title>Game&#45;&gt;Team</title>
<path fill="none" stroke="#000000" stroke-dasharray="5,2" d="M749.2165,-408.5179C769.6255,-385.9745 795.4104,-357.4931 816.7806,-333.8881"/>
<polygon fill="#000000" stroke="#000000" points="823.5514,-326.4091 820.176,-336.8426 820.1957,-330.1158 816.84,-333.8225 816.84,-333.8225 816.84,-333.8225 820.1957,-330.1158 813.504,-330.8023 823.5514,-326.4091 823.5514,-326.4091"/>
</g>
<!-- Team&#45;&gt;Player -->
<g id="edge2" class="edge">
<title>Team&#45;&gt;Player</title>
<path fill="none" stroke="#000000" stroke-dasharray="5,2" d="M813.9896,-261.5067C781.5708,-242.038 737.5819,-215.6211 704.1614,-195.5509"/>
<polygon fill="#000000" stroke="#000000" points="695.4708,-190.3319 706.3605,-191.6225 699.7573,-192.9061 704.0437,-195.4803 704.0437,-195.4803 704.0437,-195.4803 699.7573,-192.9061 701.727,-199.3381 695.4708,-190.3319 695.4708,-190.3319"/>
</g>
<!-- Shot&#45;&gt;Stick -->
<g id="edge5" class="edge">
<title>Shot&#45;&gt;Stick</title>
<path fill="none" stroke="#000000" stroke-dasharray="5,2" d="M243.6518,-298.2038C229.1275,-339.08 210.4388,-391.6761 196.4962,-430.9152"/>
<polygon fill="#000000" stroke="#000000" points="193.0591,-440.5882 192.1671,-429.6587 194.7332,-435.8768 196.4073,-431.1654 196.4073,-431.1654 196.4073,-431.1654 194.7332,-435.8768 200.6476,-432.6721 193.0591,-440.5882 193.0591,-440.5882"/>
</g>
<!-- Shot&#45;&gt;Puck -->
<g id="edge4" class="edge">
<title>Shot&#45;&gt;Puck</title>
<path fill="none" stroke="#000000" stroke-dasharray="5,2" d="M200.0314,-246.9773C172.6109,-252.1057 140.9909,-258.0195 114.0598,-263.0563"/>
<polygon fill="#000000" stroke="#000000" points="103.9864,-264.9403 112.9886,-258.6786 108.9011,-264.0211 113.8159,-263.1019 113.8159,-263.1019 113.8159,-263.1019 108.9011,-264.0211 114.6432,-267.5252 103.9864,-264.9403 103.9864,-264.9403"/>
</g>
<!-- Shot&#45;&gt;Goal net -->
<g id="edge6" class="edge">
<title>Shot&#45;&gt;Goal net</title>
<path fill="none" stroke="#000000" stroke-dasharray="5,2" d="M219.3163,-186.4594C200.538,-167.2035 178.8516,-144.9655 159.6618,-125.2876"/>
<polygon fill="#000000" stroke="#000000" points="152.4406,-117.8827 162.6441,-121.9003 155.9315,-121.4624 159.4224,-125.0421 159.4224,-125.0421 159.4224,-125.0421 155.9315,-121.4624 156.2007,-128.1838 152.4406,-117.8827 152.4406,-117.8827"/>
</g>
<!-- Shot&#45;&gt;Goal -->
<g id="edge3" class="edge">
<title>Shot&#45;&gt;Goal</title>
<path fill="none" stroke="#000000" stroke-dasharray="5,2" d="M299.6501,-176.1696C312.362,-153.9312 326.7867,-128.6965 339.2833,-106.8348"/>
<polygon fill="#000000" stroke="#000000" points="344.3293,-98.0073 343.2733,-108.9223 341.8479,-102.3482 339.3666,-106.6891 339.3666,-106.6891 339.3666,-106.6891 341.8479,-102.3482 335.4598,-104.4559 344.3293,-98.0073 344.3293,-98.0073"/>
</g>
<!-- Player&#45;&gt;Game -->
<g id="edge9" class="edge">
<title>Player&#45;&gt;Game</title>
<path fill="none" stroke="#000000" stroke-dasharray="5,2" d="M664.9589,-212.099C674.8091,-259.4748 690.247,-333.7253 701.1476,-386.1526"/>
<polygon fill="#000000" stroke="#000000" points="703.1959,-396.0044 696.7544,-387.1298 702.178,-391.1091 701.1602,-386.2137 701.1602,-386.2137 701.1602,-386.2137 702.178,-391.1091 705.566,-385.2977 703.1959,-396.0044 703.1959,-396.0044"/>
</g>
<!-- Player&#45;&gt;Shot -->
<g id="edge8" class="edge">
<title>Player&#45;&gt;Shot</title>
<path fill="none" stroke="#000000" stroke-dasharray="5,2" d="M609.2619,-174.3919C543.4187,-185.9478 421.7585,-207.2999 342.4416,-221.2205"/>
<polygon fill="#000000" stroke="#000000" points="332.5045,-222.9645 341.576,-216.8035 337.4292,-222.1001 342.3539,-221.2358 342.3539,-221.2358 342.3539,-221.2358 337.4292,-222.1001 343.1319,-225.668 332.5045,-222.9645 332.5045,-222.9645"/>
</g>
<!-- Player&#45;&gt;Goal -->
<g id="edge7" class="edge">
<title>Player&#45;&gt;Goal</title>
<path fill="none" stroke="#000000" stroke-dasharray="5,2" d="M611.8397,-148.8559C562.8568,-129.2687 483.1077,-97.3787 428.7851,-75.6562"/>
<polygon fill="#000000" stroke="#000000" points="419.2875,-71.8583 430.2435,-71.393 423.9301,-73.7148 428.5726,-75.5713 428.5726,-75.5713 428.5726,-75.5713 423.9301,-73.7148 426.9018,-79.7496 419.2875,-71.8583 419.2875,-71.8583"/>
</g>
<!-- Stick&#45;&gt;Puck -->
<g id="edge10" class="edge">
<title>Stick&#45;&gt;Puck</title>
<path fill="none" stroke="#000000" stroke-dasharray="5,2" d="M151.9648,-444.5252C132.5058,-411.3401 105.243,-364.8464 84.1529,-328.8796"/>
<polygon fill="#000000" stroke="#000000" points="78.9325,-319.9769 87.8727,-326.327 81.4617,-324.29 83.9909,-328.6032 83.9909,-328.6032 83.9909,-328.6032 81.4617,-324.29 80.109,-330.8795 78.9325,-319.9769 78.9325,-319.9769"/>
</g>
<!-- Puck&#45;&gt;Goal net -->
<g id="edge11" class="edge">
<title>Puck&#45;&gt;Goal net</title>
<path fill="none" stroke="#000000" stroke-dasharray="5,2" d="M66.3276,-224.1765C73.1152,-199.7313 81.3816,-169.9607 88.7835,-143.3033"/>
<polygon fill="#000000" stroke="#000000" points="91.4671,-133.6387 93.1275,-144.4782 90.1293,-138.4564 88.7916,-143.2742 88.7916,-143.2742 88.7916,-143.2742 90.1293,-138.4564 84.4556,-142.0702 91.4671,-133.6387 91.4671,-133.6387"/>
</g>
<!-- Goal&#45;&gt;Puck -->
<g id="edge12" class="edge">
<title>Goal&#45;&gt;Puck</title>
<path fill="none" stroke="#000000" stroke-dasharray="5,2" d="M327.5392,-82.3031C269.4711,-122.8769 165.9886,-195.183 103.8016,-238.6348"/>
<polygon fill="#000000" stroke="#000000" points="95.3098,-244.5682 100.9296,-235.1518 99.4084,-241.7044 103.507,-238.8406 103.507,-238.8406 103.507,-238.8406 99.4084,-241.7044 106.0845,-242.5293 95.3098,-244.5682 95.3098,-244.5682"/>
</g>
<!-- Goal&#45;&gt;Goal net -->
<g id="edge13" class="edge">
<title>Goal&#45;&gt;Goal net</title>
<path fill="none" stroke="#000000" stroke-dasharray="5,2" d="M318.0406,-56.4014C278.9078,-59.445 224.9266,-63.6434 181.5401,-67.0178"/>
<polygon fill="#000000" stroke="#000000" points="171.3227,-67.8125 180.9436,-62.5505 176.3077,-67.4247 181.2926,-67.0369 181.2926,-67.0369 181.2926,-67.0369 176.3077,-67.4247 181.6416,-71.5234 171.3227,-67.8125 171.3227,-67.8125"/>
</g>
</g>
</svg>
