<?xml version="1.0" encoding="UTF-8" standalone="no"?>
<?xml-stylesheet href="../static/svg.css" type="text/css"?>
<!DOCTYPE svg PUBLIC "-//W3C//DTD SVG 1.1//EN"
 "http://www.w3.org/Graphics/SVG/1.1/DTD/svg11.dtd">
<!-- Generated by graphviz version 2.40.1 (20161225.0304)
 -->
<!-- Title: term Pages: 1 -->
<svg width="857pt" height="564pt"
 viewBox="0.00 0.00 856.77 564.16" xmlns="http://www.w3.org/2000/svg" xmlns:xlink="http://www.w3.org/1999/xlink">
<g id="graph0" class="graph" transform="scale(1 1) rotate(0) translate(4 560.1614)">
<title>term</title>
<!-- Goal net -->
<g id="node1" class="node root has&#45;pronunciation">
<title>Goal net</title>
<g id="a_node1"><a xlink:href="javascript:history.back()" xlink:title="Ворота" target="_top">
<ellipse fill="none" stroke="#c0c0c0" stroke-width=".2" cx="477.5164" cy="-303.6326" rx="62.8651" ry="62.8651"/>
<text text-anchor="middle" x="477.5164" y="-320.6326" font-family="Times,serif" font-size="20.00" fill="#000000">Goal net</text>
<text text-anchor="middle" x="477.5164" y="-298.6326" font-family="Times,serif" font-size="20.00" fill="#000000">Ворота</text>
<text text-anchor="middle" x="477.5164" y="-276.6326" font-family="Times,serif" font-size="20.00" fill="#000000">Гoул нет</text>
</a>
</g>
</g>
<!-- Rink -->
<g id="node2" class="node has&#45;pronunciation">
<title>Rink</title>
<g id="a_node2"><a xlink:href="../rink.html" xlink:title="Площадка" target="_top">
<ellipse fill="none" stroke="#c0c0c0" stroke-width=".2" cx="748.3565" cy="-498.8857" rx="57.0522" ry="57.0522"/>
<text text-anchor="middle" x="748.3565" y="-512.3857" font-family="Times,serif" font-size="15.00" fill="#000000">Rink</text>
<text text-anchor="middle" x="748.3565" y="-495.3857" font-family="Times,serif" font-size="15.00" fill="#000000">Площадка</text>
<text text-anchor="middle" x="748.3565" y="-478.3857" font-family="Times,serif" font-size="15.00" fill="#000000">Ринк</text>
</a>
</g>
</g>
<!-- Rink&#45;&gt;Goal net -->
<g id="edge7" class="edge">
<title>Rink&#45;&gt;Goal net</title>
<path fill="none" stroke="#000000" stroke-dasharray="5,2" d="M701.7975,-465.3205C656.3319,-432.5436 586.9406,-382.5183 537.3913,-346.7974"/>
<polygon fill="#000000" stroke="#000000" points="528.9996,-340.7476 539.743,-342.9453 533.0555,-343.6716 537.1114,-346.5956 537.1114,-346.5956 537.1114,-346.5956 533.0555,-343.6716 534.4798,-350.2459 528.9996,-340.7476 528.9996,-340.7476"/>
</g>
<!-- Puck -->
<g id="node3" class="node has&#45;pronunciation">
<title>Puck</title>
<g id="a_node3"><a xlink:href="../puck.html" xlink:title="Шайба" target="_top">
<ellipse fill="none" stroke="#c0c0c0" stroke-width=".2" cx="457.0427" cy="-52.3259" rx="52.1524" ry="52.1524"/>
<text text-anchor="middle" x="457.0427" y="-69.3259" font-family="Times,serif" font-size="20.00" fill="#000000">Puck</text>
<text text-anchor="middle" x="457.0427" y="-47.3259" font-family="Times,serif" font-size="20.00" fill="#000000">Шайба</text>
<text text-anchor="middle" x="457.0427" y="-25.3259" font-family="Times,serif" font-size="20.00" fill="#000000">Пак</text>
</a>
</g>
</g>
<!-- Puck&#45;&gt;Goal net -->
<g id="edge8" class="edge">
<title>Puck&#45;&gt;Goal net</title>
<path fill="none" stroke="#000000" stroke-dasharray="5,2" d="M461.3098,-104.7021C464.2808,-141.1701 468.283,-190.296 471.5668,-230.6039"/>
<polygon fill="#000000" stroke="#000000" points="472.3852,-240.6486 467.0879,-231.0471 471.9791,-235.6651 471.5731,-230.6816 471.5731,-230.6816 471.5731,-230.6816 471.9791,-235.6651 476.0582,-230.3162 472.3852,-240.6486 472.3852,-240.6486"/>
</g>
<!-- Opponent -->
<g id="node4" class="node has&#45;pronunciation">
<title>Opponent</title>
<g id="a_node4"><a xlink:href="../opponent.html" xlink:title="Противник" target="_top">
<ellipse fill="none" stroke="#c0c0c0" stroke-width=".2" cx="60.8112" cy="-426.3543" rx="60.623" ry="60.623"/>
<text text-anchor="middle" x="60.8112" y="-439.8543" font-family="Times,serif" font-size="15.00" fill="#000000">Opponent</text>
<text text-anchor="middle" x="60.8112" y="-422.8543" font-family="Times,serif" font-size="15.00" fill="#000000">Противник</text>
<text text-anchor="middle" x="60.8112" y="-405.8543" font-family="Times,serif" font-size="15.00" fill="#000000">Эˈпoунэнт</text>
</a>
</g>
</g>
<!-- Opponent&#45;&gt;Goal net -->
<g id="edge9" class="edge">
<title>Opponent&#45;&gt;Goal net</title>
<path fill="none" stroke="#000000" stroke-dasharray="5,2" d="M119.191,-409.1612C194.7406,-386.9114 326.2551,-348.1798 407.2122,-324.3375"/>
<polygon fill="#000000" stroke="#000000" points="416.8272,-321.5058 408.5059,-328.6477 412.0309,-322.9184 407.2346,-324.331 407.2346,-324.331 407.2346,-324.331 412.0309,-322.9184 405.9633,-320.0143 416.8272,-321.5058 416.8272,-321.5058"/>
</g>
<!-- Goal -->
<g id="node5" class="node has&#45;pronunciation">
<title>Goal</title>
<g id="a_node5"><a xlink:href="../goal.html" xlink:title="Гол" target="_top">
<ellipse fill="none" stroke="#c0c0c0" stroke-width=".2" cx="748.3634" cy="-86.2749" rx="52.1524" ry="52.1524"/>
<text text-anchor="middle" x="748.3634" y="-103.2749" font-family="Times,serif" font-size="20.00" fill="#000000">Goal</text>
<text text-anchor="middle" x="748.3634" y="-81.2749" font-family="Times,serif" font-size="20.00" fill="#000000">Гол</text>
<text text-anchor="middle" x="748.3634" y="-59.2749" font-family="Times,serif" font-size="20.00" fill="#000000">Гoул</text>
</a>
</g>
</g>
<!-- Goal&#45;&gt;Goal net -->
<g id="edge10" class="edge">
<title>Goal&#45;&gt;Goal net</title>
<path fill="none" stroke="#000000" stroke-dasharray="5,2" d="M707.5216,-119.0509C661.6514,-155.8622 586.8649,-215.8792 535.081,-257.4363"/>
<polygon fill="#000000" stroke="#000000" points="526.9755,-263.9411 531.9581,-254.1726 530.875,-260.8117 534.7746,-257.6822 534.7746,-257.6822 534.7746,-257.6822 530.875,-260.8117 537.5911,-261.1918 526.9755,-263.9411 526.9755,-263.9411"/>
</g>
<!-- Goal&#45;&gt;Puck -->
<g id="edge1" class="edge">
<title>Goal&#45;&gt;Puck</title>
<path fill="none" stroke="#000000" stroke-dasharray="5,2" d="M696.2811,-80.2055C646.7227,-74.4302 572.1017,-65.7343 519.3988,-59.5926"/>
<polygon fill="#000000" stroke="#000000" points="509.1644,-58.3999 519.6181,-55.0877 514.1308,-58.9787 519.0972,-59.5575 519.0972,-59.5575 519.0972,-59.5575 514.1308,-58.9787 518.5763,-64.0272 509.1644,-58.3999 509.1644,-58.3999"/>
</g>
<!-- Shot -->
<g id="node6" class="node has&#45;pronunciation">
<title>Shot</title>
<g id="a_node6"><a xlink:href="../shot.html" xlink:title="Бросок" target="_top">
<ellipse fill="none" stroke="#c0c0c0" stroke-width=".2" cx="781.5932" cy="-216.0191" rx="67.3507" ry="67.3507"/>
<text text-anchor="middle" x="781.5932" y="-238.0191" font-family="Times,serif" font-size="25.00" fill="#000000">Shot</text>
<text text-anchor="middle" x="781.5932" y="-210.0191" font-family="Times,serif" font-size="25.00" fill="#000000">Бросок</text>
<text text-anchor="middle" x="781.5932" y="-182.0191" font-family="Times,serif" font-size="25.00" fill="#000000">Шат</text>
</a>
</g>
</g>
<!-- Shot&#45;&gt;Goal net -->
<g id="edge11" class="edge">
<title>Shot&#45;&gt;Goal net</title>
<path fill="none" stroke="#000000" stroke-dasharray="5,2" d="M716.7341,-234.7069C667.0841,-249.0125 598.6999,-268.716 547.7593,-283.3935"/>
<polygon fill="#000000" stroke="#000000" points="538.1371,-286.166 546.5003,-279.0731 542.9416,-284.7816 547.7462,-283.3972 547.7462,-283.3972 547.7462,-283.3972 542.9416,-284.7816 548.9921,-287.7213 538.1371,-286.166 538.1371,-286.166"/>
</g>
<!-- Shot&#45;&gt;Puck -->
<g id="edge3" class="edge">
<title>Shot&#45;&gt;Puck</title>
<path fill="none" stroke="#000000" stroke-dasharray="5,2" d="M721.3084,-185.6133C661.6241,-155.5104 570.985,-109.7949 512.8942,-80.4956"/>
<polygon fill="#000000" stroke="#000000" points="503.8601,-75.9392 514.8153,-76.4247 508.3245,-78.1908 512.7888,-80.4425 512.7888,-80.4425 512.7888,-80.4425 508.3245,-78.1908 510.7623,-84.4604 503.8601,-75.9392 503.8601,-75.9392"/>
</g>
<!-- Shot&#45;&gt;Goal -->
<g id="edge2" class="edge">
<title>Shot&#45;&gt;Goal</title>
<path fill="none" stroke="#000000" stroke-dasharray="5,2" d="M764.8809,-150.7669C764.5537,-149.4891 764.2264,-148.2114 763.8998,-146.936"/>
<polygon fill="#000000" stroke="#000000" points="761.4147,-137.2332 768.2552,-145.804 762.6553,-142.0769 763.8959,-146.9205 763.8959,-146.9205 763.8959,-146.9205 762.6553,-142.0769 759.5366,-148.0371 761.4147,-137.2332 761.4147,-137.2332"/>
</g>
<!-- Hockey -->
<g id="node7" class="node has&#45;pronunciation">
<title>Hockey</title>
<g id="a_node7"><a xlink:href="../hockey.html" xlink:title="Хоккей" target="_top">
<ellipse fill="none" stroke="#c0c0c0" stroke-width=".2" cx="290.321" cy="-157.9066" rx="45.011" ry="45.011"/>
<text text-anchor="middle" x="290.321" y="-171.4066" font-family="Times,serif" font-size="15.00" fill="#000000">Hockey</text>
<text text-anchor="middle" x="290.321" y="-154.4066" font-family="Times,serif" font-size="15.00" fill="#000000">Хоккей</text>
<text text-anchor="middle" x="290.321" y="-137.4066" font-family="Times,serif" font-size="15.00" fill="#000000">ˈХаки</text>
</a>
</g>
</g>
<!-- Hockey&#45;&gt;Goal net -->
<g id="edge12" class="edge">
<title>Hockey&#45;&gt;Goal net</title>
<path fill="none" stroke="#000000" stroke-dasharray="5,2" d="M326.4142,-186.0041C352.8444,-206.5792 389.2627,-234.9297 419.7236,-258.6426"/>
<polygon fill="#000000" stroke="#000000" points="427.7356,-264.8797 417.0804,-262.2877 423.7901,-261.8083 419.8447,-258.7368 419.8447,-258.7368 419.8447,-258.7368 423.7901,-261.8083 422.6089,-255.1859 427.7356,-264.8797 427.7356,-264.8797"/>
</g>
<!-- Hockey&#45;&gt;Puck -->
<g id="edge5" class="edge">
<title>Hockey&#45;&gt;Puck</title>
<path fill="none" stroke="#000000" stroke-dasharray="5,2" d="M328.5703,-133.6843C351.0156,-119.4702 379.7049,-101.302 404.2765,-85.7415"/>
<polygon fill="#000000" stroke="#000000" points="412.779,-80.357 406.7382,-89.509 408.5548,-83.0321 404.3306,-85.7072 404.3306,-85.7072 404.3306,-85.7072 408.5548,-83.0321 401.923,-81.9054 412.779,-80.357 412.779,-80.357"/>
</g>
<!-- Hockey&#45;&gt;Goal -->
<g id="edge6" class="edge">
<title>Hockey&#45;&gt;Goal</title>
<path fill="none" stroke="#000000" stroke-dasharray="5,2" d="M335.074,-150.9079C417.3906,-138.0346 592.942,-110.5807 686.5602,-95.9401"/>
<polygon fill="#000000" stroke="#000000" points="696.4589,-94.3921 687.2744,-100.3832 691.519,-95.1647 686.579,-95.9372 686.579,-95.9372 686.579,-95.9372 691.519,-95.1647 685.8837,-91.4913 696.4589,-94.3921 696.4589,-94.3921"/>
</g>
<!-- Hockey&#45;&gt;Shot -->
<g id="edge4" class="edge">
<title>Hockey&#45;&gt;Shot</title>
<path fill="none" stroke="#000000" stroke-dasharray="5,2" d="M335.6582,-163.2696C419.7948,-173.2221 600.9418,-194.6499 704.6069,-206.9124"/>
<polygon fill="#000000" stroke="#000000" points="714.6987,-208.1062 704.2393,-211.4002 709.7333,-207.5188 704.768,-206.9314 704.768,-206.9314 704.768,-206.9314 709.7333,-207.5188 705.2966,-202.4626 714.6987,-208.1062 714.6987,-208.1062"/>
</g>
</g>
</svg>
