<?xml version="1.0" encoding="UTF-8" standalone="no"?>
<?xml-stylesheet href="../static/svg.css" type="text/css"?>
<!DOCTYPE svg PUBLIC "-//W3C//DTD SVG 1.1//EN"
 "http://www.w3.org/Graphics/SVG/1.1/DTD/svg11.dtd">
<!-- Generated by graphviz version 2.40.1 (20161225.0304)
 -->
<!-- Title: term Pages: 1 -->
<svg width="1120pt" height="675pt"
 viewBox="0.00 0.00 1119.61 674.74" xmlns="http://www.w3.org/2000/svg" xmlns:xlink="http://www.w3.org/1999/xlink">
<g id="graph0" class="graph" transform="scale(1 1) rotate(0) translate(4 670.7361)">
<title>term</title>
<!-- Game -->
<g id="node1" class="node root has&#45;pronunciation">
<title>Game</title>
<g id="a_node1"><a xlink:href="javascript:history.back()" xlink:title="Игра" target="_top">
<ellipse fill="none" stroke="#c0c0c0" stroke-width=".2" cx="500.9129" cy="-299.843" rx="52.1524" ry="52.1524"/>
<text text-anchor="middle" x="500.9129" y="-316.843" font-family="Times,serif" font-size="20.00" fill="#000000">Game</text>
<text text-anchor="middle" x="500.9129" y="-294.843" font-family="Times,serif" font-size="20.00" fill="#000000">Игра</text>
<text text-anchor="middle" x="500.9129" y="-272.843" font-family="Times,serif" font-size="20.00" fill="#000000">Гейм</text>
</a>
</g>
</g>
<!-- Team -->
<g id="node6" class="node has&#45;pronunciation">
<title>Team</title>
<g id="a_node6"><a xlink:href="../team.html" xlink:title="Команда" target="_top">
<ellipse fill="none" stroke="#c0c0c0" stroke-width=".2" cx="514.8874" cy="-499.9866" rx="51.7379" ry="51.7379"/>
<text text-anchor="middle" x="514.8874" y="-513.4866" font-family="Times,serif" font-size="15.00" fill="#000000">Team</text>
<text text-anchor="middle" x="514.8874" y="-496.4866" font-family="Times,serif" font-size="15.00" fill="#000000">Команда</text>
<text text-anchor="middle" x="514.8874" y="-479.4866" font-family="Times,serif" font-size="15.00" fill="#000000">Тим</text>
</a>
</g>
</g>
<!-- Game&#45;&gt;Team -->
<g id="edge14" class="edge">
<title>Game&#45;&gt;Team</title>
<path fill="none" stroke="#000000" stroke-dasharray="5,2" d="M504.5663,-352.167C506.402,-378.4585 508.6388,-410.4934 510.5601,-438.0108"/>
<polygon fill="#000000" stroke="#000000" points="511.2796,-448.3145 506.0939,-438.6523 510.9312,-443.3267 510.5829,-438.3388 510.5829,-438.3388 510.5829,-438.3388 510.9312,-443.3267 515.072,-438.0253 511.2796,-448.3145 511.2796,-448.3145"/>
</g>
<!-- Rink -->
<g id="node7" class="node has&#45;pronunciation">
<title>Rink</title>
<g id="a_node7"><a xlink:href="../rink.html" xlink:title="Площадка" target="_top">
<ellipse fill="none" stroke="#c0c0c0" stroke-width=".2" cx="57.2756" cy="-100.7726" rx="57.0522" ry="57.0522"/>
<text text-anchor="middle" x="57.2756" y="-114.2726" font-family="Times,serif" font-size="15.00" fill="#000000">Rink</text>
<text text-anchor="middle" x="57.2756" y="-97.2726" font-family="Times,serif" font-size="15.00" fill="#000000">Площадка</text>
<text text-anchor="middle" x="57.2756" y="-80.2726" font-family="Times,serif" font-size="15.00" fill="#000000">Ринк</text>
</a>
</g>
</g>
<!-- Game&#45;&gt;Rink -->
<g id="edge15" class="edge">
<title>Game&#45;&gt;Rink</title>
<path fill="none" stroke="#000000" stroke-dasharray="5,2" d="M453.0145,-278.3499C372.083,-242.034 208.374,-168.574 118.9691,-128.4559"/>
<polygon fill="#000000" stroke="#000000" points="109.7633,-124.325 120.7292,-124.3134 114.3251,-126.372 118.8869,-128.419 118.8869,-128.419 118.8869,-128.419 114.3251,-126.372 117.0446,-132.5246 109.7633,-124.325 109.7633,-124.325"/>
</g>
<!-- Period -->
<g id="node8" class="node has&#45;pronunciation">
<title>Period</title>
<g id="a_node8"><a xlink:href="../period.html" xlink:title="Период" target="_top">
<ellipse fill="none" stroke="#c0c0c0" stroke-width=".2" cx="1063.5296" cy="-194.2232" rx="48.1667" ry="48.1667"/>
<text text-anchor="middle" x="1063.5296" y="-207.7232" font-family="Times,serif" font-size="15.00" fill="#000000">Period</text>
<text text-anchor="middle" x="1063.5296" y="-190.7232" font-family="Times,serif" font-size="15.00" fill="#000000">Период</text>
<text text-anchor="middle" x="1063.5296" y="-173.7232" font-family="Times,serif" font-size="15.00" fill="#000000">ˈПириэд</text>
</a>
</g>
</g>
<!-- Game&#45;&gt;Period -->
<g id="edge16" class="edge">
<title>Game&#45;&gt;Period</title>
<path fill="none" stroke="#000000" stroke-dasharray="5,2" d="M552.8341,-290.0959C658.221,-270.3117 896.51,-225.5778 1006.2435,-204.9776"/>
<polygon fill="#000000" stroke="#000000" points="1016.1368,-203.1203 1007.1388,-209.3882 1011.2226,-204.0429 1006.3085,-204.9654 1006.3085,-204.9654 1006.3085,-204.9654 1011.2226,-204.0429 1005.4782,-200.5427 1016.1368,-203.1203 1016.1368,-203.1203"/>
</g>
<!-- Overtime -->
<g id="node9" class="node has&#45;pronunciation">
<title>Overtime</title>
<g id="a_node9"><a xlink:href="../overtime.html" xlink:title="Овертайм" target="_top">
<ellipse fill="none" stroke="#c0c0c0" stroke-width=".2" cx="620.025" cy="-67.1751" rx="67.3507" ry="67.3507"/>
<text text-anchor="middle" x="620.025" y="-80.6751" font-family="Times,serif" font-size="15.00" fill="#000000">Overtime</text>
<text text-anchor="middle" x="620.025" y="-63.6751" font-family="Times,serif" font-size="15.00" fill="#000000">Овертайм</text>
<text text-anchor="middle" x="620.025" y="-46.6751" font-family="Times,serif" font-size="15.00" fill="#000000">ˈОувэрˌтайм</text>
</a>
</g>
</g>
<!-- Game&#45;&gt;Overtime -->
<g id="edge17" class="edge">
<title>Game&#45;&gt;Overtime</title>
<path fill="none" stroke="#000000" stroke-dasharray="5,2" d="M524.8737,-253.0391C542.0435,-219.5005 565.4478,-173.7837 584.7477,-136.0841"/>
<polygon fill="#000000" stroke="#000000" points="589.305,-127.1821 588.7536,-138.1341 587.0265,-131.6328 584.748,-136.0835 584.748,-136.0835 584.748,-136.0835 587.0265,-131.6328 580.7424,-134.0328 589.305,-127.1821 589.305,-127.1821"/>
</g>
<!-- Shootout -->
<g id="node10" class="node has&#45;pronunciation">
<title>Shootout</title>
<g id="a_node10"><a xlink:href="../shootout.html" xlink:title="Буллиты" target="_top">
<ellipse fill="none" stroke="#c0c0c0" stroke-width=".2" cx="858.4659" cy="-52.4128" rx="50.8235" ry="50.8235"/>
<text text-anchor="middle" x="858.4659" y="-65.9128" font-family="Times,serif" font-size="15.00" fill="#000000">Shootout</text>
<text text-anchor="middle" x="858.4659" y="-48.9128" font-family="Times,serif" font-size="15.00" fill="#000000">Буллиты</text>
<text text-anchor="middle" x="858.4659" y="-31.9128" font-family="Times,serif" font-size="15.00" fill="#000000">ˈШутaут</text>
</a>
</g>
</g>
<!-- Game&#45;&gt;Shootout -->
<g id="edge18" class="edge">
<title>Game&#45;&gt;Shootout</title>
<path fill="none" stroke="#000000" stroke-dasharray="5,2" d="M544.0422,-269.9972C610.5272,-223.9889 737.7306,-135.9629 808.2578,-87.1573"/>
<polygon fill="#000000" stroke="#000000" points="816.5698,-81.4053 810.9075,-90.7962 812.4583,-84.2506 808.3467,-87.0958 808.3467,-87.0958 808.3467,-87.0958 812.4583,-84.2506 805.786,-83.3954 816.5698,-81.4053 816.5698,-81.4053"/>
</g>
<!-- Sport -->
<g id="node2" class="node">
<title>Sport</title>
<g id="a_node2"><a xlink:href="../sport.html" xlink:title="Спорт" target="_top">
<ellipse fill="none" stroke="#c0c0c0" stroke-width=".2" cx="739.7734" cy="-627.1381" rx="39.6962" ry="39.6962"/>
<text text-anchor="middle" x="739.7734" y="-632.1381" font-family="Times,serif" font-size="15.00" fill="#000000">Sport</text>
<text text-anchor="middle" x="739.7734" y="-615.1381" font-family="Times,serif" font-size="15.00" fill="#000000">Спорт</text>
</a>
</g>
</g>
<!-- Sport&#45;&gt;Game -->
<g id="edge10" class="edge">
<title>Sport&#45;&gt;Game</title>
<path fill="none" stroke="#000000" stroke-dasharray="5,2" d="M716.2169,-594.8601C674.6244,-537.8686 587.8792,-419.0072 538.1246,-350.8318"/>
<polygon fill="#000000" stroke="#000000" points="531.9501,-342.3712 541.4801,-347.7961 534.8976,-346.41 537.8452,-350.4489 537.8452,-350.4489 537.8452,-350.4489 534.8976,-346.41 534.2102,-353.1017 531.9501,-342.3712 531.9501,-342.3712"/>
</g>
<!-- Player -->
<g id="node3" class="node has&#45;pronunciation">
<title>Player</title>
<g id="a_node3"><a xlink:href="../player.html" xlink:title="Игрок" target="_top">
<ellipse fill="none" stroke="#c0c0c0" stroke-width=".2" cx="266.3476" cy="-598.4391" rx="46.8387" ry="46.8387"/>
<text text-anchor="middle" x="266.3476" y="-611.9391" font-family="Times,serif" font-size="15.00" fill="#000000">Player</text>
<text text-anchor="middle" x="266.3476" y="-594.9391" font-family="Times,serif" font-size="15.00" fill="#000000">Игрок</text>
<text text-anchor="middle" x="266.3476" y="-577.9391" font-family="Times,serif" font-size="15.00" fill="#000000">&#39;Плейэр</text>
</a>
</g>
</g>
<!-- Player&#45;&gt;Game -->
<g id="edge11" class="edge">
<title>Player&#45;&gt;Game</title>
<path fill="none" stroke="#000000" stroke-dasharray="5,2" d="M295.3452,-561.5259C337.2556,-508.1749 414.8664,-409.3782 461.8049,-349.6267"/>
<polygon fill="#000000" stroke="#000000" points="468.2176,-341.4634 465.5788,-352.1071 465.1289,-345.3953 462.0401,-349.3272 462.0401,-349.3272 462.0401,-349.3272 465.1289,-345.3953 458.5014,-346.5473 468.2176,-341.4634 468.2176,-341.4634"/>
</g>
<!-- Player&#45;&gt;Sport -->
<g id="edge1" class="edge">
<title>Player&#45;&gt;Sport</title>
<path fill="none" stroke="#000000" stroke-dasharray="5,2" d="M313.0372,-601.2694C402.6609,-606.7024 598.0623,-618.5476 690.0308,-624.1227"/>
<polygon fill="#000000" stroke="#000000" points="700.1912,-624.7386 689.9372,-628.6252 695.2004,-624.436 690.2096,-624.1335 690.2096,-624.1335 690.2096,-624.1335 695.2004,-624.436 690.4819,-619.6417 700.1912,-624.7386 700.1912,-624.7386"/>
</g>
<!-- Hockey -->
<g id="node4" class="node has&#45;pronunciation">
<title>Hockey</title>
<g id="a_node4"><a xlink:href="../hockey.html" xlink:title="Хоккей" target="_top">
<ellipse fill="none" stroke="#c0c0c0" stroke-width=".2" cx="50.6535" cy="-414.2532" rx="45.011" ry="45.011"/>
<text text-anchor="middle" x="50.6535" y="-427.7532" font-family="Times,serif" font-size="15.00" fill="#000000">Hockey</text>
<text text-anchor="middle" x="50.6535" y="-410.7532" font-family="Times,serif" font-size="15.00" fill="#000000">Хоккей</text>
<text text-anchor="middle" x="50.6535" y="-393.7532" font-family="Times,serif" font-size="15.00" fill="#000000">ˈХаки</text>
</a>
</g>
</g>
<!-- Hockey&#45;&gt;Game -->
<g id="edge12" class="edge">
<title>Hockey&#45;&gt;Game</title>
<path fill="none" stroke="#000000" stroke-dasharray="5,2" d="M94.6461,-403.0748C175.564,-382.5137 348.1324,-338.6643 440.1599,-315.2803"/>
<polygon fill="#000000" stroke="#000000" points="449.8904,-312.8078 441.3067,-319.632 445.0444,-314.0392 440.1984,-315.2706 440.1984,-315.2706 440.1984,-315.2706 445.0444,-314.0392 439.0902,-310.9092 449.8904,-312.8078 449.8904,-312.8078"/>
</g>
<!-- Hockey&#45;&gt;Player -->
<g id="edge3" class="edge">
<title>Hockey&#45;&gt;Player</title>
<path fill="none" stroke="#000000" stroke-dasharray="5,2" d="M85.3085,-443.8459C122.7088,-475.7828 182.3446,-526.7071 222.8649,-561.3082"/>
<polygon fill="#000000" stroke="#000000" points="230.7018,-568.0004 220.1749,-564.9287 226.8995,-564.7535 223.0971,-561.5066 223.0971,-561.5066 223.0971,-561.5066 226.8995,-564.7535 226.0193,-558.0844 230.7018,-568.0004 230.7018,-568.0004"/>
</g>
<!-- Hockey&#45;&gt;Team -->
<g id="edge2" class="edge">
<title>Hockey&#45;&gt;Team</title>
<path fill="none" stroke="#000000" stroke-dasharray="5,2" d="M95.1662,-422.4737C178.7006,-437.9006 359.0578,-471.2084 453.8472,-488.7138"/>
<polygon fill="#000000" stroke="#000000" points="463.8592,-490.5628 453.2082,-493.1718 458.9423,-489.6547 454.0255,-488.7467 454.0255,-488.7467 454.0255,-488.7467 458.9423,-489.6547 454.8427,-484.3215 463.8592,-490.5628 463.8592,-490.5628"/>
</g>
<!-- Winner -->
<g id="node5" class="node has&#45;pronunciation">
<title>Winner</title>
<g id="a_node5"><a xlink:href="../winner.html" xlink:title="Победитель" target="_top">
<ellipse fill="none" stroke="#c0c0c0" stroke-width=".2" cx="883.7433" cy="-315.3603" rx="65.1077" ry="65.1077"/>
<text text-anchor="middle" x="883.7433" y="-328.8603" font-family="Times,serif" font-size="15.00" fill="#000000">Winner</text>
<text text-anchor="middle" x="883.7433" y="-311.8603" font-family="Times,serif" font-size="15.00" fill="#000000">Победитель</text>
<text text-anchor="middle" x="883.7433" y="-294.8603" font-family="Times,serif" font-size="15.00" fill="#000000">ˈУинэр</text>
</a>
</g>
</g>
<!-- Winner&#45;&gt;Game -->
<g id="edge13" class="edge">
<title>Winner&#45;&gt;Game</title>
<path fill="none" stroke="#000000" stroke-dasharray="5,2" d="M818.3674,-312.7104C747.0245,-309.8187 633.631,-305.2225 563.4343,-302.3772"/>
<polygon fill="#000000" stroke="#000000" points="553.401,-301.9705 563.575,-297.8793 558.3969,-302.1731 563.3927,-302.3756 563.3927,-302.3756 563.3927,-302.3756 558.3969,-302.1731 563.2105,-306.8719 553.401,-301.9705 553.401,-301.9705"/>
</g>
<!-- Winner&#45;&gt;Team -->
<g id="edge4" class="edge">
<title>Winner&#45;&gt;Team</title>
<path fill="none" stroke="#000000" stroke-dasharray="5,2" d="M825.2969,-344.6149C755.3549,-379.6235 639.108,-437.8095 570.4628,-472.169"/>
<polygon fill="#000000" stroke="#000000" points="561.1024,-476.8542 568.0305,-468.3541 565.5736,-474.6162 570.0447,-472.3782 570.0447,-472.3782 570.0447,-472.3782 565.5736,-474.6162 572.059,-476.4022 561.1024,-476.8542 561.1024,-476.8542"/>
</g>
<!-- Team&#45;&gt;Sport -->
<g id="edge6" class="edge">
<title>Team&#45;&gt;Sport</title>
<path fill="none" stroke="#000000" stroke-dasharray="5,2" d="M559.856,-525.412C599.4902,-547.8213 656.8731,-580.2659 696.111,-602.4512"/>
<polygon fill="#000000" stroke="#000000" points="705.1797,-607.5786 694.2599,-606.574 700.8272,-605.1177 696.4747,-602.6568 696.4747,-602.6568 696.4747,-602.6568 700.8272,-605.1177 698.6896,-598.7395 705.1797,-607.5786 705.1797,-607.5786"/>
</g>
<!-- Team&#45;&gt;Player -->
<g id="edge5" class="edge">
<title>Team&#45;&gt;Player</title>
<path fill="none" stroke="#000000" stroke-dasharray="5,2" d="M466.6717,-519.0859C424.3238,-535.861 362.8299,-560.2202 319.1638,-577.5174"/>
<polygon fill="#000000" stroke="#000000" points="309.8543,-581.2051 317.4942,-573.3385 314.5029,-579.3636 319.1515,-577.5222 319.1515,-577.5222 319.1515,-577.5222 314.5029,-579.3636 320.8088,-581.7059 309.8543,-581.2051 309.8543,-581.2051"/>
</g>
<!-- Overtime&#45;&gt;Winner -->
<g id="edge8" class="edge">
<title>Overtime&#45;&gt;Winner</title>
<path fill="none" stroke="#000000" stroke-dasharray="5,2" d="M669.0103,-113.2752C714.397,-155.9886 781.8134,-219.4342 828.9648,-263.8084"/>
<polygon fill="#000000" stroke="#000000" points="836.3519,-270.7603 825.9855,-267.184 832.7107,-267.3336 829.0696,-263.9069 829.0696,-263.9069 829.0696,-263.9069 832.7107,-267.3336 832.1536,-260.6299 836.3519,-270.7603 836.3519,-270.7603"/>
</g>
<!-- Overtime&#45;&gt;Period -->
<g id="edge7" class="edge">
<title>Overtime&#45;&gt;Period</title>
<path fill="none" stroke="#000000" stroke-dasharray="5,2" d="M684.9893,-85.7851C772.0371,-110.7211 925.0776,-154.5617 1007.3815,-178.1388"/>
<polygon fill="#000000" stroke="#000000" points="1017.0587,-180.911 1006.2061,-182.4831 1012.2521,-179.534 1007.4454,-178.1571 1007.4454,-178.1571 1007.4454,-178.1571 1012.2521,-179.534 1008.6847,-173.8311 1017.0587,-180.911 1017.0587,-180.911"/>
</g>
<!-- Shootout&#45;&gt;Winner -->
<g id="edge9" class="edge">
<title>Shootout&#45;&gt;Winner</title>
<path fill="none" stroke="#000000" stroke-dasharray="5,2" d="M863.3397,-103.1117C867.0796,-142.0169 872.3007,-196.3292 876.5251,-240.2729"/>
<polygon fill="#000000" stroke="#000000" points="877.4929,-250.3409 872.0566,-240.8175 877.0144,-245.3639 876.5359,-240.3868 876.5359,-240.3868 876.5359,-240.3868 877.0144,-245.3639 881.0153,-239.9562 877.4929,-250.3409 877.4929,-250.3409"/>
</g>
</g>
</svg>
