<?xml version="1.0" encoding="UTF-8" standalone="no"?>
<?xml-stylesheet href="../static/svg.css" type="text/css"?>
<!DOCTYPE svg PUBLIC "-//W3C//DTD SVG 1.1//EN"
 "http://www.w3.org/Graphics/SVG/1.1/DTD/svg11.dtd">
<!-- Generated by graphviz version 2.40.1 (20161225.0304)
 -->
<!-- Title: term Pages: 1 -->
<svg width="1376pt" height="841pt"
 viewBox="0.00 0.00 1376.11 840.99" xmlns="http://www.w3.org/2000/svg" xmlns:xlink="http://www.w3.org/1999/xlink">
<g id="graph0" class="graph" transform="scale(1 1) rotate(0) translate(4 836.9939)">
<title>term</title>
<!-- Shot -->
<g id="node1" class="node root has&#45;pronunciation">
<title>Shot</title>
<g id="a_node1"><a xlink:href="javascript:history.back()" xlink:title="Бросок" target="_top">
<ellipse fill="none" stroke="#c0c0c0" stroke-width=".2" cx="660.0389" cy="-416.0063" rx="67.3507" ry="67.3507"/>
<text text-anchor="middle" x="660.0389" y="-438.0063" font-family="Times,serif" font-size="25.00" fill="#000000">Shot</text>
<text text-anchor="middle" x="660.0389" y="-410.0063" font-family="Times,serif" font-size="25.00" fill="#000000">Бросок</text>
<text text-anchor="middle" x="660.0389" y="-382.0063" font-family="Times,serif" font-size="25.00" fill="#000000">Шат</text>
</a>
</g>
</g>
<!-- Goal -->
<g id="node4" class="node has&#45;pronunciation">
<title>Goal</title>
<g id="a_node4"><a xlink:href="../goal.html" xlink:title="Гол" target="_top">
<ellipse fill="none" stroke="#c0c0c0" stroke-width=".2" cx="249.864" cy="-685.2583" rx="52.1524" ry="52.1524"/>
<text text-anchor="middle" x="249.864" y="-702.2583" font-family="Times,serif" font-size="20.00" fill="#000000">Goal</text>
<text text-anchor="middle" x="249.864" y="-680.2583" font-family="Times,serif" font-size="20.00" fill="#000000">Гол</text>
<text text-anchor="middle" x="249.864" y="-658.2583" font-family="Times,serif" font-size="20.00" fill="#000000">Гoул</text>
</a>
</g>
</g>
<!-- Shot&#45;&gt;Goal -->
<g id="edge16" class="edge">
<title>Shot&#45;&gt;Goal</title>
<path fill="none" stroke="#000000" stroke-dasharray="5,2" d="M603.8659,-452.88C524.3245,-505.0936 379.9437,-599.8698 302.4226,-650.7571"/>
<polygon fill="#000000" stroke="#000000" points="293.7652,-656.4401 299.6556,-647.1905 297.9451,-653.6962 302.125,-650.9524 302.125,-650.9524 302.125,-650.9524 297.9451,-653.6962 304.5945,-654.7143 293.7652,-656.4401 293.7652,-656.4401"/>
</g>
<!-- Puck -->
<g id="node5" class="node has&#45;pronunciation">
<title>Puck</title>
<g id="a_node5"><a xlink:href="../puck.html" xlink:title="Шайба" target="_top">
<ellipse fill="none" stroke="#c0c0c0" stroke-width=".2" cx="494.1004" cy="-780.668" rx="52.1524" ry="52.1524"/>
<text text-anchor="middle" x="494.1004" y="-797.668" font-family="Times,serif" font-size="20.00" fill="#000000">Puck</text>
<text text-anchor="middle" x="494.1004" y="-775.668" font-family="Times,serif" font-size="20.00" fill="#000000">Шайба</text>
<text text-anchor="middle" x="494.1004" y="-753.668" font-family="Times,serif" font-size="20.00" fill="#000000">Пак</text>
</a>
</g>
</g>
<!-- Shot&#45;&gt;Puck -->
<g id="edge17" class="edge">
<title>Shot&#45;&gt;Puck</title>
<path fill="none" stroke="#000000" stroke-dasharray="5,2" d="M632.0774,-477.4538C600.7606,-546.2747 550.4141,-656.9146 519.9746,-723.8076"/>
<polygon fill="#000000" stroke="#000000" points="515.8156,-732.9473 515.8616,-721.9815 517.8866,-728.3963 519.9575,-723.8453 519.9575,-723.8453 519.9575,-723.8453 517.8866,-728.3963 524.0534,-725.7092 515.8156,-732.9473 515.8156,-732.9473"/>
</g>
<!-- Stick -->
<g id="node6" class="node has&#45;pronunciation">
<title>Stick</title>
<g id="a_node6"><a xlink:href="../stick.html" xlink:title="Клюшка" target="_top">
<ellipse fill="none" stroke="#c0c0c0" stroke-width=".2" cx="927.1134" cy="-761.6284" rx="48.5816" ry="48.5816"/>
<text text-anchor="middle" x="927.1134" y="-775.1284" font-family="Times,serif" font-size="15.00" fill="#000000">Stick</text>
<text text-anchor="middle" x="927.1134" y="-758.1284" font-family="Times,serif" font-size="15.00" fill="#000000">Клюшка</text>
<text text-anchor="middle" x="927.1134" y="-741.1284" font-family="Times,serif" font-size="15.00" fill="#000000">Стик</text>
</a>
</g>
</g>
<!-- Shot&#45;&gt;Stick -->
<g id="edge18" class="edge">
<title>Shot&#45;&gt;Stick</title>
<path fill="none" stroke="#000000" stroke-dasharray="5,2" d="M693.1027,-474.7006C724.7999,-528.6832 775.6743,-609.6644 829.5624,-672.6682 845.0658,-690.7942 864.0842,-708.8836 881.1982,-723.971"/>
<polygon fill="#000000" stroke="#000000" points="888.9079,-730.6811 878.4104,-727.5103 885.1364,-727.3985 881.3648,-724.1159 881.3648,-724.1159 881.3648,-724.1159 885.1364,-727.3985 884.3191,-720.7215 888.9079,-730.6811 888.9079,-730.6811"/>
</g>
<!-- Goal net -->
<g id="node7" class="node has&#45;pronunciation">
<title>Goal net</title>
<g id="a_node7"><a xlink:href="../goal-net.html" xlink:title="Ворота" target="_top">
<ellipse fill="none" stroke="#c0c0c0" stroke-width=".2" cx="110.3966" cy="-531.2919" rx="62.8651" ry="62.8651"/>
<text text-anchor="middle" x="110.3966" y="-548.2919" font-family="Times,serif" font-size="20.00" fill="#000000">Goal net</text>
<text text-anchor="middle" x="110.3966" y="-526.2919" font-family="Times,serif" font-size="20.00" fill="#000000">Ворота</text>
<text text-anchor="middle" x="110.3966" y="-504.2919" font-family="Times,serif" font-size="20.00" fill="#000000">Гoул нет</text>
</a>
</g>
</g>
<!-- Shot&#45;&gt;Goal net -->
<g id="edge19" class="edge">
<title>Shot&#45;&gt;Goal net</title>
<path fill="none" stroke="#000000" stroke-dasharray="5,2" d="M594.2852,-429.7979C490.4933,-451.5679 289.473,-493.7312 182.0977,-516.2528"/>
<polygon fill="#000000" stroke="#000000" points="172.0053,-518.3697 180.8685,-511.9126 176.8988,-517.3433 181.7923,-516.3168 181.7923,-516.3168 181.7923,-516.3168 176.8988,-517.3433 182.7161,-520.721 172.0053,-518.3697 172.0053,-518.3697"/>
</g>
<!-- Flip shot -->
<g id="node8" class="node has&#45;pronunciation">
<title>Flip shot</title>
<g id="a_node8"><a xlink:href="../flip-shot.html" xlink:title="Подкидка" target="_top">
<ellipse fill="none" stroke="#c0c0c0" stroke-width=".2" cx="1223.0552" cy="-300.7143" rx="55.7232" ry="55.7232"/>
<text text-anchor="middle" x="1223.0552" y="-314.2143" font-family="Times,serif" font-size="15.00" fill="#000000">Flip shot</text>
<text text-anchor="middle" x="1223.0552" y="-297.2143" font-family="Times,serif" font-size="15.00" fill="#000000">Подкидка</text>
<text text-anchor="middle" x="1223.0552" y="-280.2143" font-family="Times,serif" font-size="15.00" fill="#000000">Флип шат</text>
</a>
</g>
</g>
<!-- Shot&#45;&gt;Flip shot -->
<g id="edge20" class="edge">
<title>Shot&#45;&gt;Flip shot</title>
<path fill="none" stroke="#000000" stroke-dasharray="5,2" d="M726.0026,-402.4985C834.5858,-380.2633 1049.6932,-336.2146 1157.8067,-314.0756"/>
<polygon fill="#000000" stroke="#000000" points="1167.9281,-312.003 1159.0342,-318.4177 1163.0298,-313.0061 1158.1314,-314.0092 1158.1314,-314.0092 1158.1314,-314.0092 1163.0298,-313.0061 1157.2286,-309.6007 1167.9281,-312.003 1167.9281,-312.003"/>
</g>
<!-- Wrist shot -->
<g id="node9" class="node has&#45;pronunciation">
<title>Wrist shot</title>
<g id="a_node9"><a xlink:href="../wrist-shot.html" xlink:title="Кистевой" target="_top">
<ellipse fill="none" stroke="#c0c0c0" stroke-width=".2" cx="324.9727" cy="-142.6237" rx="56.6372" ry="56.6372"/>
<text text-anchor="middle" x="324.9727" y="-156.1237" font-family="Times,serif" font-size="15.00" fill="#000000">Wrist shot</text>
<text text-anchor="middle" x="324.9727" y="-139.1237" font-family="Times,serif" font-size="15.00" fill="#000000">Кистевой</text>
<text text-anchor="middle" x="324.9727" y="-122.1237" font-family="Times,serif" font-size="15.00" fill="#000000">Рист шат</text>
</a>
</g>
</g>
<!-- Shot&#45;&gt;Wrist shot -->
<g id="edge21" class="edge">
<title>Shot&#45;&gt;Wrist shot</title>
<path fill="none" stroke="#000000" stroke-dasharray="5,2" d="M607.6848,-373.2902C544.6714,-321.8772 439.523,-236.086 376.7624,-184.8793"/>
<polygon fill="#000000" stroke="#000000" points="368.9489,-178.5042 379.5419,-181.3393 372.823,-181.6651 376.6971,-184.826 376.6971,-184.826 376.6971,-184.826 372.823,-181.6651 373.8523,-188.3127 368.9489,-178.5042 368.9489,-178.5042"/>
</g>
<!-- Slapshot -->
<g id="node10" class="node has&#45;pronunciation">
<title>Slapshot</title>
<g id="a_node10"><a xlink:href="../slapshot.html" xlink:title="Щелчок" target="_top">
<ellipse fill="none" stroke="#c0c0c0" stroke-width=".2" cx="989.759" cy="-148.1971" rx="50.8235" ry="50.8235"/>
<text text-anchor="middle" x="989.759" y="-161.6971" font-family="Times,serif" font-size="15.00" fill="#000000">Slapshot</text>
<text text-anchor="middle" x="989.759" y="-144.6971" font-family="Times,serif" font-size="15.00" fill="#000000">Щелчок</text>
<text text-anchor="middle" x="989.759" y="-127.6971" font-family="Times,serif" font-size="15.00" fill="#000000">Слэпшат</text>
</a>
</g>
</g>
<!-- Shot&#45;&gt;Slapshot -->
<g id="edge22" class="edge">
<title>Shot&#45;&gt;Slapshot</title>
<path fill="none" stroke="#000000" stroke-dasharray="5,2" d="M712.2841,-373.5711C775.5413,-322.1916 881.1709,-236.3959 942.2297,-186.8019"/>
<polygon fill="#000000" stroke="#000000" points="950.1766,-180.3473 945.2515,-190.145 946.2955,-183.4996 942.4144,-186.652 942.4144,-186.652 942.4144,-186.652 946.2955,-183.4996 939.5773,-183.159 950.1766,-180.3473 950.1766,-180.3473"/>
</g>
<!-- Snap shot -->
<g id="node11" class="node has&#45;pronunciation">
<title>Snap shot</title>
<g id="a_node11"><a xlink:href="../snap-shot.html" xlink:title="Короткий щелчок" target="_top">
<ellipse fill="none" stroke="#c0c0c0" stroke-width=".2" cx="659.7746" cy="-91.9239" rx="91.8478" ry="91.8478"/>
<text text-anchor="middle" x="659.7746" y="-105.4239" font-family="Times,serif" font-size="15.00" fill="#000000">Snap shot</text>
<text text-anchor="middle" x="659.7746" y="-88.4239" font-family="Times,serif" font-size="15.00" fill="#000000">Короткий щелчок</text>
<text text-anchor="middle" x="659.7746" y="-71.4239" font-family="Times,serif" font-size="15.00" fill="#000000">Снэп шат</text>
</a>
</g>
</g>
<!-- Shot&#45;&gt;Snap shot -->
<g id="edge23" class="edge">
<title>Shot&#45;&gt;Snap shot</title>
<path fill="none" stroke="#000000" stroke-dasharray="5,2" d="M659.9838,-348.4625C659.9475,-303.8602 659.8991,-244.5753 659.8581,-194.2336"/>
<polygon fill="#000000" stroke="#000000" points="659.8497,-183.9641 664.358,-193.9603 659.8538,-188.9641 659.858,-193.9641 659.858,-193.9641 659.858,-193.9641 659.8538,-188.9641 655.358,-193.9678 659.8497,-183.9641 659.8497,-183.9641"/>
</g>
<!-- Backhand shot -->
<g id="node12" class="node has&#45;pronunciation">
<title>Backhand shot</title>
<g id="a_node12"><a xlink:href="../backhand-shot.html" xlink:title="С неудобной" target="_top">
<ellipse fill="none" stroke="#c0c0c0" stroke-width=".2" cx="76.3675" cy="-279.4937" rx="76.2353" ry="76.2353"/>
<text text-anchor="middle" x="76.3675" y="-292.9937" font-family="Times,serif" font-size="15.00" fill="#000000">Backhand shot</text>
<text text-anchor="middle" x="76.3675" y="-275.9937" font-family="Times,serif" font-size="15.00" fill="#000000">С неудобной</text>
<text text-anchor="middle" x="76.3675" y="-258.9937" font-family="Times,serif" font-size="15.00" fill="#000000">ˈБэкˌхэнд шат</text>
</a>
</g>
</g>
<!-- Shot&#45;&gt;Backhand shot -->
<g id="edge24" class="edge">
<title>Shot&#45;&gt;Backhand shot</title>
<path fill="none" stroke="#000000" stroke-dasharray="5,2" d="M594.5014,-400.678C488.1574,-375.8056 278.1155,-326.6797 160.7521,-299.2301"/>
<polygon fill="#000000" stroke="#000000" points="150.7312,-296.8863 161.4933,-294.7821 155.5998,-298.0251 160.4684,-299.1638 160.4684,-299.1638 160.4684,-299.1638 155.5998,-298.0251 159.4436,-303.5456 150.7312,-296.8863 150.7312,-296.8863"/>
</g>
<!-- One&#45;timer -->
<g id="node13" class="node has&#45;pronunciation">
<title>One&#45;timer</title>
<g id="a_node13"><a xlink:href="../one-timer.html" xlink:title="В одно касание" target="_top">
<ellipse fill="none" stroke="#c0c0c0" stroke-width=".2" cx="1288.2021" cy="-503.0891" rx="79.8063" ry="79.8063"/>
<text text-anchor="middle" x="1288.2021" y="-516.5891" font-family="Times,serif" font-size="15.00" fill="#000000">One&#45;timer</text>
<text text-anchor="middle" x="1288.2021" y="-499.5891" font-family="Times,serif" font-size="15.00" fill="#000000">В одно касание</text>
<text text-anchor="middle" x="1288.2021" y="-482.5891" font-family="Times,serif" font-size="15.00" fill="#000000">Уан&#45;ˈтаймэр</text>
</a>
</g>
</g>
<!-- Shot&#45;&gt;One&#45;timer -->
<g id="edge25" class="edge">
<title>Shot&#45;&gt;One&#45;timer</title>
<path fill="none" stroke="#000000" stroke-dasharray="5,2" d="M726.6687,-425.2432C840.263,-440.9909 1071.4624,-473.0423 1198.9126,-490.7108"/>
<polygon fill="#000000" stroke="#000000" points="1209.0345,-492.114 1198.5112,-495.1981 1204.0818,-491.4274 1199.1292,-490.7408 1199.1292,-490.7408 1199.1292,-490.7408 1204.0818,-491.4274 1199.7472,-486.2834 1209.0345,-492.114 1209.0345,-492.114"/>
</g>
<!-- Player -->
<g id="node2" class="node has&#45;pronunciation">
<title>Player</title>
<g id="a_node2"><a xlink:href="../player.html" xlink:title="Игрок" target="_top">
<ellipse fill="none" stroke="#c0c0c0" stroke-width=".2" cx="863.8958" cy="-638.7401" rx="46.8387" ry="46.8387"/>
<text text-anchor="middle" x="863.8958" y="-652.2401" font-family="Times,serif" font-size="15.00" fill="#000000">Player</text>
<text text-anchor="middle" x="863.8958" y="-635.2401" font-family="Times,serif" font-size="15.00" fill="#000000">Игрок</text>
<text text-anchor="middle" x="863.8958" y="-618.2401" font-family="Times,serif" font-size="15.00" fill="#000000">&#39;Плейэр</text>
</a>
</g>
</g>
<!-- Player&#45;&gt;Shot -->
<g id="edge14" class="edge">
<title>Player&#45;&gt;Shot</title>
<path fill="none" stroke="#000000" stroke-dasharray="5,2" d="M832.0432,-603.938C800.1008,-569.0377 750.3626,-514.6938 712.5718,-473.4036"/>
<polygon fill="#000000" stroke="#000000" points="705.6615,-465.8534 715.7326,-470.192 709.0373,-469.5418 712.4131,-473.2302 712.4131,-473.2302 712.4131,-473.2302 709.0373,-469.5418 709.0935,-476.2684 705.6615,-465.8534 705.6615,-465.8534"/>
</g>
<!-- Player&#45;&gt;Goal -->
<g id="edge1" class="edge">
<title>Player&#45;&gt;Goal</title>
<path fill="none" stroke="#000000" stroke-dasharray="5,2" d="M817.2397,-642.2747C708.0805,-650.5445 435.974,-671.1588 312.5299,-680.5108"/>
<polygon fill="#000000" stroke="#000000" points="302.4783,-681.2723 312.1098,-676.0296 307.4641,-680.8945 312.4498,-680.5168 312.4498,-680.5168 312.4498,-680.5168 307.4641,-680.8945 312.7897,-685.0039 302.4783,-681.2723 302.4783,-681.2723"/>
</g>
<!-- Hockey -->
<g id="node3" class="node has&#45;pronunciation">
<title>Hockey</title>
<g id="a_node3"><a xlink:href="../hockey.html" xlink:title="Хоккей" target="_top">
<ellipse fill="none" stroke="#c0c0c0" stroke-width=".2" cx="520.1895" cy="-601.6045" rx="45.011" ry="45.011"/>
<text text-anchor="middle" x="520.1895" y="-615.1045" font-family="Times,serif" font-size="15.00" fill="#000000">Hockey</text>
<text text-anchor="middle" x="520.1895" y="-598.1045" font-family="Times,serif" font-size="15.00" fill="#000000">Хоккей</text>
<text text-anchor="middle" x="520.1895" y="-581.1045" font-family="Times,serif" font-size="15.00" fill="#000000">ˈХаки</text>
</a>
</g>
</g>
<!-- Hockey&#45;&gt;Shot -->
<g id="edge15" class="edge">
<title>Hockey&#45;&gt;Shot</title>
<path fill="none" stroke="#000000" stroke-dasharray="5,2" d="M547.4859,-565.3787C566.2318,-540.5004 591.5875,-506.8502 613.487,-477.7867"/>
<polygon fill="#000000" stroke="#000000" points="619.5637,-469.722 617.1397,-480.4167 616.5548,-473.7153 613.5458,-477.7086 613.5458,-477.7086 613.5458,-477.7086 616.5548,-473.7153 609.9518,-475.0005 619.5637,-469.722 619.5637,-469.722"/>
</g>
<!-- Hockey&#45;&gt;Player -->
<g id="edge2" class="edge">
<title>Hockey&#45;&gt;Player</title>
<path fill="none" stroke="#000000" stroke-dasharray="5,2" d="M565.4765,-606.4975C627.7223,-613.2228 739.6779,-625.319 807.3498,-632.6306"/>
<polygon fill="#000000" stroke="#000000" points="817.4087,-633.7174 806.9832,-637.1171 812.4377,-633.1803 807.4666,-632.6432 807.4666,-632.6432 807.4666,-632.6432 812.4377,-633.1803 807.95,-628.1692 817.4087,-633.7174 817.4087,-633.7174"/>
</g>
<!-- Hockey&#45;&gt;Goal -->
<g id="edge6" class="edge">
<title>Hockey&#45;&gt;Goal</title>
<path fill="none" stroke="#000000" stroke-dasharray="5,2" d="M476.757,-615.0449C431.563,-629.0304 360.4623,-651.033 309.9073,-666.6775"/>
<polygon fill="#000000" stroke="#000000" points="300.084,-669.7174 308.3067,-662.4622 304.8606,-668.2392 309.6371,-666.7611 309.6371,-666.7611 309.6371,-666.7611 304.8606,-668.2392 310.9674,-671.0599 300.084,-669.7174 300.084,-669.7174"/>
</g>
<!-- Hockey&#45;&gt;Puck -->
<g id="edge4" class="edge">
<title>Hockey&#45;&gt;Puck</title>
<path fill="none" stroke="#000000" stroke-dasharray="5,2" d="M513.6061,-646.7897C510.423,-668.6376 506.5531,-695.1989 503.1021,-718.8849"/>
<polygon fill="#000000" stroke="#000000" points="501.652,-728.8378 498.6408,-718.2935 502.3729,-723.8901 503.0938,-718.9423 503.0938,-718.9423 503.0938,-718.9423 502.3729,-723.8901 507.5468,-719.5911 501.652,-728.8378 501.652,-728.8378"/>
</g>
<!-- Hockey&#45;&gt;Stick -->
<g id="edge3" class="edge">
<title>Hockey&#45;&gt;Stick</title>
<path fill="none" stroke="#000000" stroke-dasharray="5,2" d="M562.5859,-618.277C636.6241,-647.3927 789.4271,-707.4829 871.7262,-739.8473"/>
<polygon fill="#000000" stroke="#000000" points="881.4031,-743.6528 870.4499,-744.1808 876.75,-741.8229 872.0968,-739.993 872.0968,-739.993 872.0968,-739.993 876.75,-741.8229 873.7437,-735.8052 881.4031,-743.6528 881.4031,-743.6528"/>
</g>
<!-- Hockey&#45;&gt;Goal net -->
<g id="edge5" class="edge">
<title>Hockey&#45;&gt;Goal net</title>
<path fill="none" stroke="#000000" stroke-dasharray="5,2" d="M475.5544,-593.9459C405.0888,-581.8554 267.3906,-558.229 182.6896,-543.696"/>
<polygon fill="#000000" stroke="#000000" points="172.631,-541.9701 183.248,-539.2261 177.559,-542.8157 182.487,-543.6613 182.487,-543.6613 182.487,-543.6613 177.559,-542.8157 181.7259,-548.0965 172.631,-541.9701 172.631,-541.9701"/>
</g>
<!-- Goal&#45;&gt;Puck -->
<g id="edge7" class="edge">
<title>Goal&#45;&gt;Puck</title>
<path fill="none" stroke="#000000" stroke-dasharray="5,2" d="M298.7019,-704.3365C338.2211,-719.7745 393.9881,-741.5596 435.8357,-757.9072"/>
<polygon fill="#000000" stroke="#000000" points="445.3472,-761.6228 434.3953,-762.1756 440.6899,-759.8034 436.0327,-757.9841 436.0327,-757.9841 436.0327,-757.9841 440.6899,-759.8034 437.6701,-753.7925 445.3472,-761.6228 445.3472,-761.6228"/>
</g>
<!-- Goal&#45;&gt;Goal net -->
<g id="edge8" class="edge">
<title>Goal&#45;&gt;Goal net</title>
<path fill="none" stroke="#000000" stroke-dasharray="5,2" d="M214.6705,-646.406C197.9984,-628.0007 177.8023,-605.705 159.641,-585.6557"/>
<polygon fill="#000000" stroke="#000000" points="152.7917,-578.0943 162.8404,-582.4847 156.1485,-581.8001 159.5052,-585.5058 159.5052,-585.5058 159.5052,-585.5058 156.1485,-581.8001 156.1701,-588.5269 152.7917,-578.0943 152.7917,-578.0943"/>
</g>
<!-- Puck&#45;&gt;Goal net -->
<g id="edge9" class="edge">
<title>Puck&#45;&gt;Goal net</title>
<path fill="none" stroke="#000000" stroke-dasharray="5,2" d="M450.0847,-752.0614C381.7542,-707.6521 249.9395,-621.9833 172.1296,-571.4133"/>
<polygon fill="#000000" stroke="#000000" points="163.3807,-565.7272 174.2177,-567.4035 167.5731,-568.4519 171.7655,-571.1767 171.7655,-571.1767 171.7655,-571.1767 167.5731,-568.4519 169.3132,-574.9498 163.3807,-565.7272 163.3807,-565.7272"/>
</g>
<!-- Stick&#45;&gt;Puck -->
<g id="edge10" class="edge">
<title>Stick&#45;&gt;Puck</title>
<path fill="none" stroke="#000000" stroke-dasharray="5,2" d="M878.283,-763.7755C799.2443,-767.2508 643.3867,-774.1039 556.4446,-777.9267"/>
<polygon fill="#000000" stroke="#000000" points="546.4506,-778.3662 556.2432,-773.4311 551.4458,-778.1465 556.441,-777.9268 556.441,-777.9268 556.441,-777.9268 551.4458,-778.1465 556.6387,-782.4224 546.4506,-778.3662 546.4506,-778.3662"/>
</g>
<!-- Snap shot&#45;&gt;Wrist shot -->
<g id="edge11" class="edge">
<title>Snap shot&#45;&gt;Wrist shot</title>
<path fill="none" stroke="#000000" stroke-dasharray="5,2" d="M568.7308,-105.7109C512.7538,-114.1876 442.2797,-124.8596 391.5241,-132.5457"/>
<polygon fill="#000000" stroke="#000000" points="381.3259,-134.09 390.5394,-128.1434 386.2695,-133.3413 391.2132,-132.5927 391.2132,-132.5927 391.2132,-132.5927 386.2695,-133.3413 391.887,-137.042 381.3259,-134.09 381.3259,-134.09"/>
</g>
<!-- Snap shot&#45;&gt;Slapshot -->
<g id="edge12" class="edge">
<title>Snap shot&#45;&gt;Slapshot</title>
<path fill="none" stroke="#000000" stroke-dasharray="5,2" d="M750.8178,-107.4498C807.7507,-117.1587 879.4951,-129.3935 929.4406,-137.9108"/>
<polygon fill="#000000" stroke="#000000" points="939.441,-139.6162 928.8268,-142.371 934.5121,-138.7757 929.5833,-137.9351 929.5833,-137.9351 929.5833,-137.9351 934.5121,-138.7757 930.3398,-133.4991 939.441,-139.6162 939.441,-139.6162"/>
</g>
<!-- Backhand shot&#45;&gt;Wrist shot -->
<g id="edge13" class="edge">
<title>Backhand shot&#45;&gt;Wrist shot</title>
<path fill="none" stroke="#000000" stroke-dasharray="5,2" d="M143.3162,-242.635C181.6315,-221.5404 229.2588,-195.3192 266.1322,-175.0184"/>
<polygon fill="#000000" stroke="#000000" points="275.2629,-169.9915 268.6731,-178.7565 270.8829,-172.403 266.5028,-174.8144 266.5028,-174.8144 266.5028,-174.8144 270.8829,-172.403 264.3325,-170.8724 275.2629,-169.9915 275.2629,-169.9915"/>
</g>
</g>
</svg>
