<?xml version="1.0" encoding="UTF-8" standalone="no"?>
<?xml-stylesheet href="../static/svg.css" type="text/css"?>
<!DOCTYPE svg PUBLIC "-//W3C//DTD SVG 1.1//EN"
 "http://www.w3.org/Graphics/SVG/1.1/DTD/svg11.dtd">
<!-- Generated by graphviz version 2.40.1 (20161225.0304)
 -->
<!-- Title: term Pages: 1 -->
<svg width="604pt" height="394pt"
 viewBox="0.00 0.00 603.50 394.12" xmlns="http://www.w3.org/2000/svg" xmlns:xlink="http://www.w3.org/1999/xlink">
<g id="graph0" class="graph" transform="scale(1 1) rotate(0) translate(4 390.1238)">
<title>term</title>
<!-- Rink -->
<g id="node1" class="node root has&#45;pronunciation">
<title>Rink</title>
<g id="a_node1"><a xlink:href="javascript:history.back()" xlink:title="Площадка" target="_top">
<ellipse fill="none" stroke="#c0c0c0" stroke-width=".2" cx="248.7302" cy="-194.9832" rx="57.0522" ry="57.0522"/>
<text text-anchor="middle" x="248.7302" y="-208.4832" font-family="Times,serif" font-size="15.00" fill="#000000">Rink</text>
<text text-anchor="middle" x="248.7302" y="-191.4832" font-family="Times,serif" font-size="15.00" fill="#000000">Площадка</text>
<text text-anchor="middle" x="248.7302" y="-174.4832" font-family="Times,serif" font-size="15.00" fill="#000000">Ринк</text>
</a>
</g>
</g>
<!-- Ice -->
<g id="node3" class="node has&#45;pronunciation">
<title>Ice</title>
<g id="a_node3"><a xlink:href="../ice.html" xlink:title="Лёд" target="_top">
<ellipse fill="none" stroke="#c0c0c0" stroke-width=".2" cx="142.4997" cy="-41.7193" rx="41.9398" ry="41.9398"/>
<text text-anchor="middle" x="142.4997" y="-55.2193" font-family="Times,serif" font-size="15.00" fill="#000000">Ice</text>
<text text-anchor="middle" x="142.4997" y="-38.2193" font-family="Times,serif" font-size="15.00" fill="#000000">Лёд</text>
<text text-anchor="middle" x="142.4997" y="-21.2193" font-family="Times,serif" font-size="15.00" fill="#000000">Айс</text>
</a>
</g>
</g>
<!-- Rink&#45;&gt;Ice -->
<g id="edge2" class="edge">
<title>Rink&#45;&gt;Ice</title>
<path fill="none" stroke="#000000" stroke-dasharray="5,2" d="M215.9907,-147.7484C202.0774,-127.6749 185.9654,-104.4294 172.3795,-84.8283"/>
<polygon fill="#000000" stroke="#000000" points="166.5293,-76.388 175.9244,-82.0433 169.3776,-80.4974 172.226,-84.6068 172.226,-84.6068 172.226,-84.6068 169.3776,-80.4974 168.5275,-87.1703 166.5293,-76.388 166.5293,-76.388"/>
</g>
<!-- Goal net -->
<g id="node4" class="node has&#45;pronunciation">
<title>Goal net</title>
<g id="a_node4"><a xlink:href="../goal-net.html" xlink:title="Ворота" target="_top">
<ellipse fill="none" stroke="#c0c0c0" stroke-width=".2" cx="62.9325" cy="-323.1913" rx="62.8651" ry="62.8651"/>
<text text-anchor="middle" x="62.9325" y="-340.1913" font-family="Times,serif" font-size="20.00" fill="#000000">Goal net</text>
<text text-anchor="middle" x="62.9325" y="-318.1913" font-family="Times,serif" font-size="20.00" fill="#000000">Ворота</text>
<text text-anchor="middle" x="62.9325" y="-296.1913" font-family="Times,serif" font-size="20.00" fill="#000000">Гoул нет</text>
</a>
</g>
</g>
<!-- Rink&#45;&gt;Goal net -->
<g id="edge3" class="edge">
<title>Rink&#45;&gt;Goal net</title>
<path fill="none" stroke="#000000" stroke-dasharray="5,2" d="M201.3649,-227.6672C177.6026,-244.0642 148.5598,-264.1049 123.2232,-281.5882"/>
<polygon fill="#000000" stroke="#000000" points="114.7859,-287.4103 120.4608,-278.027 118.9013,-284.5705 123.0166,-281.7308 123.0166,-281.7308 123.0166,-281.7308 118.9013,-284.5705 125.5724,-285.4346 114.7859,-287.4103 114.7859,-287.4103"/>
</g>
<!-- Game -->
<g id="node2" class="node has&#45;pronunciation">
<title>Game</title>
<g id="a_node2"><a xlink:href="../game.html" xlink:title="Игра" target="_top">
<ellipse fill="none" stroke="#c0c0c0" stroke-width=".2" cx="543.1752" cy="-220.1541" rx="52.1524" ry="52.1524"/>
<text text-anchor="middle" x="543.1752" y="-237.1541" font-family="Times,serif" font-size="20.00" fill="#000000">Game</text>
<text text-anchor="middle" x="543.1752" y="-215.1541" font-family="Times,serif" font-size="20.00" fill="#000000">Игра</text>
<text text-anchor="middle" x="543.1752" y="-193.1541" font-family="Times,serif" font-size="20.00" fill="#000000">Гейм</text>
</a>
</g>
</g>
<!-- Game&#45;&gt;Rink -->
<g id="edge1" class="edge">
<title>Game&#45;&gt;Rink</title>
<path fill="none" stroke="#000000" stroke-dasharray="5,2" d="M490.8736,-215.683C442.047,-211.509 368.9377,-205.2592 315.8306,-200.7193"/>
<polygon fill="#000000" stroke="#000000" points="305.8237,-199.8638 316.1706,-196.232 310.8055,-200.2898 315.7873,-200.7157 315.7873,-200.7157 315.7873,-200.7157 310.8055,-200.2898 315.404,-205.1993 305.8237,-199.8638 305.8237,-199.8638"/>
</g>
</g>
</svg>
