<?xml version="1.0" encoding="UTF-8" standalone="no"?>
<?xml-stylesheet href="../static/svg.css" type="text/css"?>
<!DOCTYPE svg PUBLIC "-//W3C//DTD SVG 1.1//EN"
 "http://www.w3.org/Graphics/SVG/1.1/DTD/svg11.dtd">
<!-- Generated by graphviz version 2.40.1 (20161225.0304)
 -->
<!-- Title: term Pages: 1 -->
<svg width="595pt" height="456pt"
 viewBox="0.00 0.00 595.24 455.79" xmlns="http://www.w3.org/2000/svg" xmlns:xlink="http://www.w3.org/1999/xlink">
<g id="graph0" class="graph" transform="scale(1 1) rotate(0) translate(4 451.7891)">
<title>term</title>
<!-- Snap shot -->
<g id="node1" class="node root has&#45;pronunciation">
<title>Snap shot</title>
<g id="a_node1"><a xlink:href="javascript:history.back()" xlink:title="Короткий щелчок" target="_top">
<ellipse fill="none" stroke="#c0c0c0" stroke-width=".2" cx="91.9239" cy="-213.061" rx="91.8478" ry="91.8478"/>
<text text-anchor="middle" x="91.9239" y="-226.561" font-family="Times,serif" font-size="15.00" fill="#000000">Snap shot</text>
<text text-anchor="middle" x="91.9239" y="-209.561" font-family="Times,serif" font-size="15.00" fill="#000000">Короткий щелчок</text>
<text text-anchor="middle" x="91.9239" y="-192.561" font-family="Times,serif" font-size="15.00" fill="#000000">Снэп шат</text>
</a>
</g>
</g>
<!-- Wrist shot -->
<g id="node3" class="node has&#45;pronunciation">
<title>Wrist shot</title>
<g id="a_node3"><a xlink:href="../wrist-shot.html" xlink:title="Кистевой" target="_top">
<ellipse fill="none" stroke="#c0c0c0" stroke-width=".2" cx="364.6579" cy="-56.5685" rx="56.6372" ry="56.6372"/>
<text text-anchor="middle" x="364.6579" y="-70.0685" font-family="Times,serif" font-size="15.00" fill="#000000">Wrist shot</text>
<text text-anchor="middle" x="364.6579" y="-53.0685" font-family="Times,serif" font-size="15.00" fill="#000000">Кистевой</text>
<text text-anchor="middle" x="364.6579" y="-36.0685" font-family="Times,serif" font-size="15.00" fill="#000000">Рист шат</text>
</a>
</g>
</g>
<!-- Snap shot&#45;&gt;Wrist shot -->
<g id="edge4" class="edge">
<title>Snap shot&#45;&gt;Wrist shot</title>
<path fill="none" stroke="#000000" stroke-dasharray="5,2" d="M171.9103,-167.1655C214.9824,-142.4511 267.1627,-112.5105 306.363,-90.0176"/>
<polygon fill="#000000" stroke="#000000" points="315.5293,-84.7581 309.0953,-93.6381 311.1925,-87.2465 306.8557,-89.735 306.8557,-89.735 306.8557,-89.735 311.1925,-87.2465 304.6161,-85.8319 315.5293,-84.7581 315.5293,-84.7581"/>
</g>
<!-- Slapshot -->
<g id="node4" class="node has&#45;pronunciation">
<title>Slapshot</title>
<g id="a_node4"><a xlink:href="../slapshot.html" xlink:title="Щелчок" target="_top">
<ellipse fill="none" stroke="#c0c0c0" stroke-width=".2" cx="245.8794" cy="-396.8775" rx="50.8235" ry="50.8235"/>
<text text-anchor="middle" x="245.8794" y="-410.3775" font-family="Times,serif" font-size="15.00" fill="#000000">Slapshot</text>
<text text-anchor="middle" x="245.8794" y="-393.3775" font-family="Times,serif" font-size="15.00" fill="#000000">Щелчок</text>
<text text-anchor="middle" x="245.8794" y="-376.3775" font-family="Times,serif" font-size="15.00" fill="#000000">Слэпшат</text>
</a>
</g>
</g>
<!-- Snap shot&#45;&gt;Slapshot -->
<g id="edge5" class="edge">
<title>Snap shot&#45;&gt;Slapshot</title>
<path fill="none" stroke="#000000" stroke-dasharray="5,2" d="M151.0068,-283.6035C169.5721,-305.7698 189.6076,-329.6913 206.4612,-349.8138"/>
<polygon fill="#000000" stroke="#000000" points="212.9937,-357.6133 203.123,-352.8365 209.7833,-353.7802 206.5728,-349.947 206.5728,-349.947 206.5728,-349.947 209.7833,-353.7802 210.0226,-347.0576 212.9937,-357.6133 212.9937,-357.6133"/>
</g>
<!-- Shot -->
<g id="node2" class="node has&#45;pronunciation">
<title>Shot</title>
<g id="a_node2"><a xlink:href="../shot.html" xlink:title="Бросок" target="_top">
<ellipse fill="none" stroke="#c0c0c0" stroke-width=".2" cx="520.0695" cy="-240.4688" rx="67.3507" ry="67.3507"/>
<text text-anchor="middle" x="520.0695" y="-262.4688" font-family="Times,serif" font-size="25.00" fill="#000000">Shot</text>
<text text-anchor="middle" x="520.0695" y="-234.4688" font-family="Times,serif" font-size="25.00" fill="#000000">Бросок</text>
<text text-anchor="middle" x="520.0695" y="-206.4688" font-family="Times,serif" font-size="25.00" fill="#000000">Шат</text>
</a>
</g>
</g>
<!-- Shot&#45;&gt;Snap shot -->
<g id="edge3" class="edge">
<title>Shot&#45;&gt;Snap shot</title>
<path fill="none" stroke="#000000" stroke-dasharray="5,2" d="M452.7007,-236.1561C383.2571,-231.7107 274.1286,-224.7248 194.0643,-219.5995"/>
<polygon fill="#000000" stroke="#000000" points="183.9562,-218.9524 194.2233,-215.1006 188.946,-219.2719 193.9358,-219.5914 193.9358,-219.5914 193.9358,-219.5914 188.946,-219.2719 193.6482,-224.0822 183.9562,-218.9524 183.9562,-218.9524"/>
</g>
<!-- Shot&#45;&gt;Wrist shot -->
<g id="edge1" class="edge">
<title>Shot&#45;&gt;Wrist shot</title>
<path fill="none" stroke="#000000" stroke-dasharray="5,2" d="M476.3651,-188.7529C454.8855,-163.3358 429.0882,-132.8096 407.6986,-107.4991"/>
<polygon fill="#000000" stroke="#000000" points="401.2116,-99.823 411.1034,-104.5562 404.439,-103.6419 407.6663,-107.4609 407.6663,-107.4609 407.6663,-107.4609 404.439,-103.6419 404.2293,-110.3655 401.2116,-99.823 401.2116,-99.823"/>
</g>
<!-- Shot&#45;&gt;Slapshot -->
<g id="edge2" class="edge">
<title>Shot&#45;&gt;Slapshot</title>
<path fill="none" stroke="#000000" stroke-dasharray="5,2" d="M461.5851,-273.8305C413.4167,-301.3076 345.6934,-339.9396 299.0443,-366.5501"/>
<polygon fill="#000000" stroke="#000000" points="290.2983,-371.5392 296.7547,-362.6755 294.6414,-369.0617 298.9845,-366.5842 298.9845,-366.5842 298.9845,-366.5842 294.6414,-369.0617 301.2142,-370.493 290.2983,-371.5392 290.2983,-371.5392"/>
</g>
</g>
</svg>
