<?xml version="1.0" encoding="UTF-8" standalone="no"?>
<?xml-stylesheet href="../static/svg.css" type="text/css"?>
<!DOCTYPE svg PUBLIC "-//W3C//DTD SVG 1.1//EN"
 "http://www.w3.org/Graphics/SVG/1.1/DTD/svg11.dtd">
<!-- Generated by graphviz version 2.40.1 (20161225.0304)
 -->
<!-- Title: term Pages: 1 -->
<svg width="457pt" height="302pt"
 viewBox="0.00 0.00 456.77 301.98" xmlns="http://www.w3.org/2000/svg" xmlns:xlink="http://www.w3.org/1999/xlink">
<g id="graph0" class="graph" transform="scale(1 1) rotate(0) translate(4 297.9819)">
<title>term</title>
<!-- Sport -->
<g id="node1" class="node root ">
<title>Sport</title>
<g id="a_node1"><a xlink:href="javascript:history.back()" xlink:title="Спорт" target="_top">
<ellipse fill="none" stroke="#c0c0c0" stroke-width=".2" cx="39.598" cy="-129.711" rx="39.6962" ry="39.6962"/>
<text text-anchor="middle" x="39.598" y="-134.711" font-family="Times,serif" font-size="15.00" fill="#000000">Sport</text>
<text text-anchor="middle" x="39.598" y="-117.711" font-family="Times,serif" font-size="15.00" fill="#000000">Спорт</text>
</a>
</g>
</g>
<!-- Game -->
<g id="node4" class="node has&#45;pronunciation">
<title>Game</title>
<g id="a_node4"><a xlink:href="../game.html" xlink:title="Игра" target="_top">
<ellipse fill="none" stroke="#c0c0c0" stroke-width=".2" cx="191.6915" cy="-241.656" rx="52.1524" ry="52.1524"/>
<text text-anchor="middle" x="191.6915" y="-258.656" font-family="Times,serif" font-size="20.00" fill="#000000">Game</text>
<text text-anchor="middle" x="191.6915" y="-236.656" font-family="Times,serif" font-size="20.00" fill="#000000">Игра</text>
<text text-anchor="middle" x="191.6915" y="-214.656" font-family="Times,serif" font-size="20.00" fill="#000000">Гейм</text>
</a>
</g>
</g>
<!-- Sport&#45;&gt;Game -->
<g id="edge6" class="edge">
<title>Sport&#45;&gt;Game</title>
<path fill="none" stroke="#000000" stroke-dasharray="5,2" d="M71.8531,-153.4516C91.9674,-168.2563 118.282,-187.6246 141.1274,-204.4394"/>
<polygon fill="#000000" stroke="#000000" points="149.3692,-210.5056 138.648,-208.202 145.3423,-207.5417 141.3155,-204.5778 141.3155,-204.5778 141.3155,-204.5778 145.3423,-207.5417 143.983,-200.9536 149.3692,-210.5056 149.3692,-210.5056"/>
</g>
<!-- Team -->
<g id="node2" class="node has&#45;pronunciation">
<title>Team</title>
<g id="a_node2"><a xlink:href="../team.html" xlink:title="Команда" target="_top">
<ellipse fill="none" stroke="#c0c0c0" stroke-width=".2" cx="397.1501" cy="-158.5488" rx="51.7379" ry="51.7379"/>
<text text-anchor="middle" x="397.1501" y="-172.0488" font-family="Times,serif" font-size="15.00" fill="#000000">Team</text>
<text text-anchor="middle" x="397.1501" y="-155.0488" font-family="Times,serif" font-size="15.00" fill="#000000">Команда</text>
<text text-anchor="middle" x="397.1501" y="-138.0488" font-family="Times,serif" font-size="15.00" fill="#000000">Тим</text>
</a>
</g>
</g>
<!-- Team&#45;&gt;Sport -->
<g id="edge4" class="edge">
<title>Team&#45;&gt;Sport</title>
<path fill="none" stroke="#000000" stroke-dasharray="5,2" d="M345.5408,-154.3863C277.0195,-148.8598 156.8225,-139.1655 89.2842,-133.7183"/>
<polygon fill="#000000" stroke="#000000" points="79.3135,-132.9142 89.6429,-129.2327 84.2973,-133.3162 89.2811,-133.7182 89.2811,-133.7182 89.2811,-133.7182 84.2973,-133.3162 88.9193,-138.2036 79.3135,-132.9142 79.3135,-132.9142"/>
</g>
<!-- Player -->
<g id="node3" class="node has&#45;pronunciation">
<title>Player</title>
<g id="a_node3"><a xlink:href="../player.html" xlink:title="Игрок" target="_top">
<ellipse fill="none" stroke="#c0c0c0" stroke-width=".2" cx="244.6831" cy="-46.669" rx="46.8387" ry="46.8387"/>
<text text-anchor="middle" x="244.6831" y="-60.169" font-family="Times,serif" font-size="15.00" fill="#000000">Player</text>
<text text-anchor="middle" x="244.6831" y="-43.169" font-family="Times,serif" font-size="15.00" fill="#000000">Игрок</text>
<text text-anchor="middle" x="244.6831" y="-26.169" font-family="Times,serif" font-size="15.00" fill="#000000">&#39;Плейэр</text>
</a>
</g>
</g>
<!-- Team&#45;&gt;Player -->
<g id="edge1" class="edge">
<title>Team&#45;&gt;Player</title>
<path fill="none" stroke="#000000" stroke-dasharray="5,2" d="M355.4878,-127.9771C335.4173,-113.2494 311.2906,-95.5454 290.6819,-80.4228"/>
<polygon fill="#000000" stroke="#000000" points="282.3838,-74.3337 293.1083,-76.6218 286.4149,-77.2917 290.4461,-80.2498 290.4461,-80.2498 290.4461,-80.2498 286.4149,-77.2917 287.7838,-83.8778 282.3838,-74.3337 282.3838,-74.3337"/>
</g>
<!-- Player&#45;&gt;Sport -->
<g id="edge5" class="edge">
<title>Player&#45;&gt;Sport</title>
<path fill="none" stroke="#000000" stroke-dasharray="5,2" d="M201.1898,-64.2801C167.3351,-77.9884 120.4539,-96.9712 85.9041,-110.961"/>
<polygon fill="#000000" stroke="#000000" points="76.5074,-114.7658 84.0874,-106.8416 81.1418,-112.8892 85.7763,-111.0126 85.7763,-111.0126 85.7763,-111.0126 81.1418,-112.8892 87.4653,-115.1837 76.5074,-114.7658 76.5074,-114.7658"/>
</g>
<!-- Player&#45;&gt;Game -->
<g id="edge2" class="edge">
<title>Player&#45;&gt;Game</title>
<path fill="none" stroke="#000000" stroke-dasharray="5,2" d="M232.3925,-91.8931C225.1995,-118.3605 216.0233,-152.125 208.2052,-180.8923"/>
<polygon fill="#000000" stroke="#000000" points="205.502,-190.8391 203.7821,-180.009 206.8133,-186.0141 208.1246,-181.1891 208.1246,-181.1891 208.1246,-181.1891 206.8133,-186.0141 212.4671,-182.3693 205.502,-190.8391 205.502,-190.8391"/>
</g>
<!-- Game&#45;&gt;Team -->
<g id="edge3" class="edge">
<title>Game&#45;&gt;Team</title>
<path fill="none" stroke="#000000" stroke-dasharray="5,2" d="M240.3823,-221.9607C270.1712,-209.9113 308.4347,-194.4338 339.7018,-181.7864"/>
<polygon fill="#000000" stroke="#000000" points="349.1636,-177.9591 341.5807,-185.8806 344.5284,-179.8341 339.8933,-181.709 339.8933,-181.709 339.8933,-181.709 344.5284,-179.8341 338.2058,-177.5373 349.1636,-177.9591 349.1636,-177.9591"/>
</g>
</g>
</svg>
