<?xml version="1.0" encoding="UTF-8" standalone="no"?>
<?xml-stylesheet href="../static/svg.css" type="text/css"?>
<!DOCTYPE svg PUBLIC "-//W3C//DTD SVG 1.1//EN"
 "http://www.w3.org/Graphics/SVG/1.1/DTD/svg11.dtd">
<!-- Generated by graphviz version 2.40.1 (20161225.0304)
 -->
<!-- Title: term Pages: 1 -->
<svg width="605pt" height="440pt"
 viewBox="0.00 0.00 604.82 440.18" xmlns="http://www.w3.org/2000/svg" xmlns:xlink="http://www.w3.org/1999/xlink">
<g id="graph0" class="graph" transform="scale(1 1) rotate(0) translate(4 436.1787)">
<title>term</title>
<!-- Point -->
<g id="node1" class="node root has&#45;pronunciation">
<title>Point</title>
<g id="a_node1"><a xlink:href="javascript:history.back()" xlink:title="Очко" target="_top">
<ellipse fill="none" stroke="#c0c0c0" stroke-width=".2" cx="426.9477" cy="-221.0395" rx="41.9398" ry="41.9398"/>
<text text-anchor="middle" x="426.9477" y="-234.5395" font-family="Times,serif" font-size="15.00" fill="#000000">Point</text>
<text text-anchor="middle" x="426.9477" y="-217.5395" font-family="Times,serif" font-size="15.00" fill="#000000">Очко</text>
<text text-anchor="middle" x="426.9477" y="-200.5395" font-family="Times,serif" font-size="15.00" fill="#000000">Пойнт</text>
</a>
</g>
</g>
<!-- Goal -->
<g id="node3" class="node has&#45;pronunciation">
<title>Goal</title>
<g id="a_node3"><a xlink:href="../goal.html" xlink:title="Гол" target="_top">
<ellipse fill="none" stroke="#c0c0c0" stroke-width=".2" cx="132.4665" cy="-112.2725" rx="65.1077" ry="65.1077"/>
<text text-anchor="middle" x="132.4665" y="-134.2725" font-family="Times,serif" font-size="25.00" fill="#000000">Goal</text>
<text text-anchor="middle" x="132.4665" y="-106.2725" font-family="Times,serif" font-size="25.00" fill="#000000">Гол</text>
<text text-anchor="middle" x="132.4665" y="-78.2725" font-family="Times,serif" font-size="25.00" fill="#000000">Гoул</text>
</a>
</g>
</g>
<!-- Point&#45;&gt;Goal -->
<g id="edge5" class="edge">
<title>Point&#45;&gt;Goal</title>
<path fill="none" stroke="#000000" stroke-dasharray="5,2" d="M387.5382,-206.4836C340.4762,-189.1011 260.8797,-159.7021 203.0991,-138.3607"/>
<polygon fill="#000000" stroke="#000000" points="193.6613,-134.8748 204.6011,-134.1184 198.3516,-136.6073 203.0419,-138.3397 203.0419,-138.3397 203.0419,-138.3397 198.3516,-136.6073 201.4828,-142.5609 193.6613,-134.8748 193.6613,-134.8748"/>
</g>
<!-- Player -->
<g id="node4" class="node has&#45;pronunciation">
<title>Player</title>
<g id="a_node4"><a xlink:href="../player.html" xlink:title="Игрок" target="_top">
<ellipse fill="none" stroke="#c0c0c0" stroke-width=".2" cx="46.669" cy="-276.1301" rx="46.8387" ry="46.8387"/>
<text text-anchor="middle" x="46.669" y="-289.6301" font-family="Times,serif" font-size="15.00" fill="#000000">Player</text>
<text text-anchor="middle" x="46.669" y="-272.6301" font-family="Times,serif" font-size="15.00" fill="#000000">Игрок</text>
<text text-anchor="middle" x="46.669" y="-255.6301" font-family="Times,serif" font-size="15.00" fill="#000000">&#39;Плейэр</text>
</a>
</g>
</g>
<!-- Point&#45;&gt;Player -->
<g id="edge6" class="edge">
<title>Point&#45;&gt;Player</title>
<path fill="none" stroke="#000000" stroke-dasharray="5,2" d="M385.5273,-227.04C317.0865,-236.955 180.299,-256.7712 103.0881,-267.9567"/>
<polygon fill="#000000" stroke="#000000" points="93.0602,-269.4094 102.3117,-263.5221 98.0085,-268.6925 102.9569,-267.9756 102.9569,-267.9756 102.9569,-267.9756 98.0085,-268.6925 103.6021,-272.4291 93.0602,-269.4094 93.0602,-269.4094"/>
</g>
<!-- Team -->
<g id="node5" class="node has&#45;pronunciation">
<title>Team</title>
<g id="a_node5"><a xlink:href="../team.html" xlink:title="Команда" target="_top">
<ellipse fill="none" stroke="#c0c0c0" stroke-width=".2" cx="366.5317" cy="-380.5599" rx="51.7379" ry="51.7379"/>
<text text-anchor="middle" x="366.5317" y="-394.0599" font-family="Times,serif" font-size="15.00" fill="#000000">Team</text>
<text text-anchor="middle" x="366.5317" y="-377.0599" font-family="Times,serif" font-size="15.00" fill="#000000">Команда</text>
<text text-anchor="middle" x="366.5317" y="-360.0599" font-family="Times,serif" font-size="15.00" fill="#000000">Тим</text>
</a>
</g>
</g>
<!-- Point&#45;&gt;Team -->
<g id="edge7" class="edge">
<title>Point&#45;&gt;Team</title>
<path fill="none" stroke="#000000" stroke-dasharray="5,2" d="M412.1683,-260.0626C405.0189,-278.9396 396.2934,-301.9782 388.3941,-322.8352"/>
<polygon fill="#000000" stroke="#000000" points="384.8314,-332.2419 384.1651,-321.2963 386.6024,-327.566 388.3733,-322.8902 388.3733,-322.8902 388.3733,-322.8902 386.6024,-327.566 392.5816,-324.484 384.8314,-332.2419 384.8314,-332.2419"/>
</g>
<!-- Score -->
<g id="node2" class="node has&#45;pronunciation">
<title>Score</title>
<g id="a_node2"><a xlink:href="../score.html" xlink:title="Счёт" target="_top">
<ellipse fill="none" stroke="#c0c0c0" stroke-width=".2" cx="531.7618" cy="-65.0538" rx="65.1077" ry="65.1077"/>
<text text-anchor="middle" x="531.7618" y="-87.0538" font-family="Times,serif" font-size="25.00" fill="#000000">Score</text>
<text text-anchor="middle" x="531.7618" y="-59.0538" font-family="Times,serif" font-size="25.00" fill="#000000">Счёт</text>
<text text-anchor="middle" x="531.7618" y="-31.0538" font-family="Times,serif" font-size="25.00" fill="#000000">Скор</text>
</a>
</g>
</g>
<!-- Score&#45;&gt;Point -->
<g id="edge4" class="edge">
<title>Score&#45;&gt;Point</title>
<path fill="none" stroke="#000000" stroke-dasharray="5,2" d="M495.3971,-119.1723C482.5925,-138.2282 468.3738,-159.3886 456.2282,-177.4639"/>
<polygon fill="#000000" stroke="#000000" points="450.4476,-186.0667 452.2898,-175.2566 453.2363,-181.9165 456.025,-177.7664 456.025,-177.7664 456.025,-177.7664 453.2363,-181.9165 459.7601,-180.2762 450.4476,-186.0667 450.4476,-186.0667"/>
</g>
<!-- Score&#45;&gt;Goal -->
<g id="edge1" class="edge">
<title>Score&#45;&gt;Goal</title>
<path fill="none" stroke="#000000" stroke-dasharray="5,2" d="M466.7194,-72.7454C395.698,-81.144 282.138,-94.5731 207.4259,-103.4082"/>
<polygon fill="#000000" stroke="#000000" points="197.1499,-104.6233 206.5522,-98.98 202.1153,-104.0361 207.0808,-103.4489 207.0808,-103.4489 207.0808,-103.4489 202.1153,-104.0361 207.6093,-107.9177 197.1499,-104.6233 197.1499,-104.6233"/>
</g>
<!-- Player&#45;&gt;Goal -->
<g id="edge2" class="edge">
<title>Player&#45;&gt;Goal</title>
<path fill="none" stroke="#000000" stroke-dasharray="5,2" d="M68.3194,-234.7819C77.1904,-217.8398 87.6832,-197.8004 97.5851,-178.8896"/>
<polygon fill="#000000" stroke="#000000" points="102.2364,-170.0065 101.5843,-180.953 99.917,-174.436 97.5977,-178.8656 97.5977,-178.8656 97.5977,-178.8656 99.917,-174.436 93.6111,-176.7781 102.2364,-170.0065 102.2364,-170.0065"/>
</g>
<!-- Team&#45;&gt;Player -->
<g id="edge3" class="edge">
<title>Team&#45;&gt;Player</title>
<path fill="none" stroke="#000000" stroke-dasharray="5,2" d="M317.2542,-364.4716C258.7388,-345.3673 161.4605,-313.6076 100.8675,-293.8249"/>
<polygon fill="#000000" stroke="#000000" points="91.1019,-290.6366 102.0047,-289.4625 95.855,-292.1885 100.6081,-293.7403 100.6081,-293.7403 100.6081,-293.7403 95.855,-292.1885 99.2114,-298.0181 91.1019,-290.6366 91.1019,-290.6366"/>
</g>
</g>
</svg>
