<?xml version="1.0" encoding="UTF-8" standalone="no"?>
<?xml-stylesheet href="../static/svg.css" type="text/css"?>
<!DOCTYPE svg PUBLIC "-//W3C//DTD SVG 1.1//EN"
 "http://www.w3.org/Graphics/SVG/1.1/DTD/svg11.dtd">
<!-- Generated by graphviz version 2.40.1 (20161225.0304)
 -->
<!-- Title: term Pages: 1 -->
<svg width="723pt" height="464pt"
 viewBox="0.00 0.00 723.41 464.05" xmlns="http://www.w3.org/2000/svg" xmlns:xlink="http://www.w3.org/1999/xlink">
<g id="graph0" class="graph" transform="scale(1 1) rotate(0) translate(4 460.0496)">
<title>term</title>
<!-- Team -->
<g id="node1" class="node root has&#45;pronunciation">
<title>Team</title>
<g id="a_node1"><a xlink:href="javascript:history.back()" xlink:title="Команда" target="_top">
<ellipse fill="none" stroke="#c0c0c0" stroke-width=".2" cx="210.3176" cy="-206.831" rx="51.7379" ry="51.7379"/>
<text text-anchor="middle" x="210.3176" y="-220.331" font-family="Times,serif" font-size="15.00" fill="#000000">Team</text>
<text text-anchor="middle" x="210.3176" y="-203.331" font-family="Times,serif" font-size="15.00" fill="#000000">Команда</text>
<text text-anchor="middle" x="210.3176" y="-186.331" font-family="Times,serif" font-size="15.00" fill="#000000">Тим</text>
</a>
</g>
</g>
<!-- Player -->
<g id="node5" class="node has&#45;pronunciation">
<title>Player</title>
<g id="a_node5"><a xlink:href="../player.html" xlink:title="Игрок" target="_top">
<ellipse fill="none" stroke="#c0c0c0" stroke-width=".2" cx="415.7735" cy="-248.4103" rx="46.8387" ry="46.8387"/>
<text text-anchor="middle" x="415.7735" y="-261.9103" font-family="Times,serif" font-size="15.00" fill="#000000">Player</text>
<text text-anchor="middle" x="415.7735" y="-244.9103" font-family="Times,serif" font-size="15.00" fill="#000000">Игрок</text>
<text text-anchor="middle" x="415.7735" y="-227.9103" font-family="Times,serif" font-size="15.00" fill="#000000">&#39;Плейэр</text>
</a>
</g>
</g>
<!-- Team&#45;&gt;Player -->
<g id="edge9" class="edge">
<title>Team&#45;&gt;Player</title>
<path fill="none" stroke="#000000" stroke-dasharray="5,2" d="M261.1045,-217.109C290.9978,-223.1587 328.8544,-230.82 359.6325,-237.0487"/>
<polygon fill="#000000" stroke="#000000" points="369.7772,-239.1017 359.0832,-241.5287 364.8765,-238.1099 359.9758,-237.1181 359.9758,-237.1181 359.9758,-237.1181 364.8765,-238.1099 360.8685,-232.7075 369.7772,-239.1017 369.7772,-239.1017"/>
</g>
<!-- Sport -->
<g id="node6" class="node">
<title>Sport</title>
<g id="a_node6"><a xlink:href="../sport.html" xlink:title="Спорт" target="_top">
<ellipse fill="none" stroke="#c0c0c0" stroke-width=".2" cx="342.6139" cy="-416.4516" rx="39.6962" ry="39.6962"/>
<text text-anchor="middle" x="342.6139" y="-421.4516" font-family="Times,serif" font-size="15.00" fill="#000000">Sport</text>
<text text-anchor="middle" x="342.6139" y="-404.4516" font-family="Times,serif" font-size="15.00" fill="#000000">Спорт</text>
</a>
</g>
</g>
<!-- Team&#45;&gt;Sport -->
<g id="edge10" class="edge">
<title>Team&#45;&gt;Sport</title>
<path fill="none" stroke="#000000" stroke-dasharray="5,2" d="M237.8902,-250.5192C260.7882,-286.8005 293.1657,-338.102 315.8397,-374.0283"/>
<polygon fill="#000000" stroke="#000000" points="321.3835,-382.8124 312.2408,-376.7575 318.7149,-378.5841 316.0463,-374.3557 316.0463,-374.3557 316.0463,-374.3557 318.7149,-378.5841 319.8517,-371.954 321.3835,-382.8124 321.3835,-382.8124"/>
</g>
<!-- Opponent -->
<g id="node2" class="node has&#45;pronunciation">
<title>Opponent</title>
<g id="a_node2"><a xlink:href="../opponent.html" xlink:title="Противник" target="_top">
<ellipse fill="none" stroke="#c0c0c0" stroke-width=".2" cx="654.6019" cy="-141.2933" rx="60.623" ry="60.623"/>
<text text-anchor="middle" x="654.6019" y="-154.7933" font-family="Times,serif" font-size="15.00" fill="#000000">Opponent</text>
<text text-anchor="middle" x="654.6019" y="-137.7933" font-family="Times,serif" font-size="15.00" fill="#000000">Противник</text>
<text text-anchor="middle" x="654.6019" y="-120.7933" font-family="Times,serif" font-size="15.00" fill="#000000">Эˈпoунэнт</text>
</a>
</g>
</g>
<!-- Opponent&#45;&gt;Team -->
<g id="edge6" class="edge">
<title>Opponent&#45;&gt;Team</title>
<path fill="none" stroke="#000000" stroke-dasharray="5,2" d="M594.2213,-150.2002C509.6374,-162.6775 356.714,-185.2356 271.6309,-197.7865"/>
<polygon fill="#000000" stroke="#000000" points="261.6004,-199.2661 270.8366,-193.3549 266.5469,-198.5364 271.4933,-197.8067 271.4933,-197.8067 271.4933,-197.8067 266.5469,-198.5364 272.1501,-202.2585 261.6004,-199.2661 261.6004,-199.2661"/>
</g>
<!-- Opponent&#45;&gt;Player -->
<g id="edge1" class="edge">
<title>Opponent&#45;&gt;Player</title>
<path fill="none" stroke="#000000" stroke-dasharray="5,2" d="M598.9087,-166.2723C559.3907,-183.9965 506.7059,-207.6262 467.9915,-224.99"/>
<polygon fill="#000000" stroke="#000000" points="458.4664,-229.2621 465.7491,-221.0637 463.0286,-227.2159 467.5907,-225.1697 467.5907,-225.1697 467.5907,-225.1697 463.0286,-227.2159 469.4323,-229.2756 458.4664,-229.2621 458.4664,-229.2621"/>
</g>
<!-- Point -->
<g id="node3" class="node has&#45;pronunciation">
<title>Point</title>
<g id="a_node3"><a xlink:href="../point.html" xlink:title="Очко" target="_top">
<ellipse fill="none" stroke="#c0c0c0" stroke-width=".2" cx="194.8279" cy="-41.7193" rx="41.9398" ry="41.9398"/>
<text text-anchor="middle" x="194.8279" y="-55.2193" font-family="Times,serif" font-size="15.00" fill="#000000">Point</text>
<text text-anchor="middle" x="194.8279" y="-38.2193" font-family="Times,serif" font-size="15.00" fill="#000000">Очко</text>
<text text-anchor="middle" x="194.8279" y="-21.2193" font-family="Times,serif" font-size="15.00" fill="#000000">Пойнт</text>
</a>
</g>
</g>
<!-- Point&#45;&gt;Team -->
<g id="edge7" class="edge">
<title>Point&#45;&gt;Team</title>
<path fill="none" stroke="#000000" stroke-dasharray="5,2" d="M198.7366,-83.384C200.5004,-102.1846 202.6192,-124.7705 204.5596,-145.4541"/>
<polygon fill="#000000" stroke="#000000" points="205.4955,-155.4302 200.0811,-145.8943 205.0284,-150.452 204.5614,-145.4739 204.5614,-145.4739 204.5614,-145.4739 205.0284,-150.452 209.0417,-145.0536 205.4955,-155.4302 205.4955,-155.4302"/>
</g>
<!-- Point&#45;&gt;Player -->
<g id="edge2" class="edge">
<title>Point&#45;&gt;Player</title>
<path fill="none" stroke="#000000" stroke-dasharray="5,2" d="M225.5495,-70.4588C264.2522,-106.6646 330.918,-169.0293 374.1644,-209.4856"/>
<polygon fill="#000000" stroke="#000000" points="381.6897,-216.5254 371.3127,-212.98 378.0383,-213.1096 374.387,-209.6938 374.387,-209.6938 374.387,-209.6938 378.0383,-213.1096 377.4612,-206.4076 381.6897,-216.5254 381.6897,-216.5254"/>
</g>
<!-- Hockey -->
<g id="node4" class="node has&#45;pronunciation">
<title>Hockey</title>
<g id="a_node4"><a xlink:href="../hockey.html" xlink:title="Хоккей" target="_top">
<ellipse fill="none" stroke="#c0c0c0" stroke-width=".2" cx="45.2548" cy="-356.556" rx="45.011" ry="45.011"/>
<text text-anchor="middle" x="45.2548" y="-370.056" font-family="Times,serif" font-size="15.00" fill="#000000">Hockey</text>
<text text-anchor="middle" x="45.2548" y="-353.056" font-family="Times,serif" font-size="15.00" fill="#000000">Хоккей</text>
<text text-anchor="middle" x="45.2548" y="-336.056" font-family="Times,serif" font-size="15.00" fill="#000000">ˈХаки</text>
</a>
</g>
</g>
<!-- Hockey&#45;&gt;Team -->
<g id="edge8" class="edge">
<title>Hockey&#45;&gt;Team</title>
<path fill="none" stroke="#000000" stroke-dasharray="5,2" d="M79.0561,-325.8956C103.7131,-303.5297 137.411,-272.9631 164.4893,-248.4009"/>
<polygon fill="#000000" stroke="#000000" points="171.9382,-241.6442 167.5547,-251.6958 168.2348,-245.0035 164.5313,-248.3628 164.5313,-248.3628 164.5313,-248.3628 168.2348,-245.0035 161.508,-245.0297 171.9382,-241.6442 171.9382,-241.6442"/>
</g>
<!-- Hockey&#45;&gt;Player -->
<g id="edge4" class="edge">
<title>Hockey&#45;&gt;Player</title>
<path fill="none" stroke="#000000" stroke-dasharray="5,2" d="M88.8476,-343.8323C156.6774,-324.0344 287.3547,-285.8927 361.299,-264.3101"/>
<polygon fill="#000000" stroke="#000000" points="370.9049,-261.5064 362.5663,-268.6281 366.1051,-262.9073 361.3054,-264.3083 361.3054,-264.3083 361.3054,-264.3083 366.1051,-262.9073 360.0445,-259.9886 370.9049,-261.5064 370.9049,-261.5064"/>
</g>
<!-- Hockey&#45;&gt;Sport -->
<g id="edge3" class="edge">
<title>Hockey&#45;&gt;Sport</title>
<path fill="none" stroke="#000000" stroke-dasharray="5,2" d="M89.7725,-365.523C144.3764,-376.5216 236.6484,-395.1075 293.3392,-406.5264"/>
<polygon fill="#000000" stroke="#000000" points="303.4934,-408.5717 292.8017,-411.0085 298.5919,-407.5844 293.6903,-406.5971 293.6903,-406.5971 293.6903,-406.5971 298.5919,-407.5844 294.5789,-402.1857 303.4934,-408.5717 303.4934,-408.5717"/>
</g>
<!-- Player&#45;&gt;Sport -->
<g id="edge5" class="edge">
<title>Player&#45;&gt;Sport</title>
<path fill="none" stroke="#000000" stroke-dasharray="5,2" d="M397.123,-291.249C386.537,-315.5641 373.2895,-345.9925 362.5052,-370.7631"/>
<polygon fill="#000000" stroke="#000000" points="358.5033,-379.9551 358.3692,-368.9901 360.4992,-375.3708 362.4951,-370.7864 362.4951,-370.7864 362.4951,-370.7864 360.4992,-375.3708 366.621,-372.5827 358.5033,-379.9551 358.5033,-379.9551"/>
</g>
</g>
</svg>
