<?xml version="1.0" encoding="UTF-8" standalone="no"?>
<?xml-stylesheet href="../static/svg.css" type="text/css"?>
<!DOCTYPE svg PUBLIC "-//W3C//DTD SVG 1.1//EN"
 "http://www.w3.org/Graphics/SVG/1.1/DTD/svg11.dtd">
<!-- Generated by graphviz version 2.40.1 (20161225.0304)
 -->
<!-- Title: term Pages: 1 -->
<svg width="2497pt" height="1418pt"
 viewBox="0.00 0.00 2496.62 1418.31" xmlns="http://www.w3.org/2000/svg" xmlns:xlink="http://www.w3.org/1999/xlink">
<g id="graph0" class="graph" transform="scale(1 1) rotate(0) translate(4 1414.3062)">
<title>term</title>
<!-- Team -->
<g id="node1" class="node has&#45;pronunciation">
<title>Team</title>
<g id="a_node1"><a xlink:href="../team.html" xlink:title="Команда" target="_top">
<ellipse fill="none" stroke="#c0c0c0" stroke-width=".2" cx="847.8876" cy="-565.3635" rx="51.7379" ry="51.7379"/>
<text text-anchor="middle" x="847.8876" y="-578.8635" font-family="Times,serif" font-size="15.00" fill="#000000">Team</text>
<text text-anchor="middle" x="847.8876" y="-561.8635" font-family="Times,serif" font-size="15.00" fill="#000000">Команда</text>
<text text-anchor="middle" x="847.8876" y="-544.8635" font-family="Times,serif" font-size="15.00" fill="#000000">Тим</text>
</a>
</g>
</g>
<!-- Player -->
<g id="node2" class="node has&#45;pronunciation">
<title>Player</title>
<g id="a_node2"><a xlink:href="../player.html" xlink:title="Игрок" target="_top">
<ellipse fill="none" stroke="#c0c0c0" stroke-width=".2" cx="1167.2978" cy="-529.8319" rx="46.8387" ry="46.8387"/>
<text text-anchor="middle" x="1167.2978" y="-543.3319" font-family="Times,serif" font-size="15.00" fill="#000000">Player</text>
<text text-anchor="middle" x="1167.2978" y="-526.3319" font-family="Times,serif" font-size="15.00" fill="#000000">Игрок</text>
<text text-anchor="middle" x="1167.2978" y="-509.3319" font-family="Times,serif" font-size="15.00" fill="#000000">&#39;Плейэр</text>
</a>
</g>
</g>
<!-- Team&#45;&gt;Player -->
<g id="edge1" class="edge">
<title>Team&#45;&gt;Player</title>
<path fill="none" stroke="#000000" stroke-dasharray="5,2" d="M899.2064,-559.6548C957.0524,-553.2199 1050.8185,-542.7892 1110.7353,-536.124"/>
<polygon fill="#000000" stroke="#000000" points="1120.7808,-535.0065 1111.3396,-540.5846 1115.8114,-535.5594 1110.8421,-536.1122 1110.8421,-536.1122 1110.8421,-536.1122 1115.8114,-535.5594 1110.3445,-531.6398 1120.7808,-535.0065 1120.7808,-535.0065"/>
</g>
<!-- Sport -->
<g id="node9" class="node">
<title>Sport</title>
<g id="a_node9"><a xlink:href="../sport.html" xlink:title="Спорт" target="_top">
<ellipse fill="none" stroke="#c0c0c0" stroke-width=".2" cx="614.2846" cy="-366.4539" rx="39.6962" ry="39.6962"/>
<text text-anchor="middle" x="614.2846" y="-371.4539" font-family="Times,serif" font-size="15.00" fill="#000000">Sport</text>
<text text-anchor="middle" x="614.2846" y="-354.4539" font-family="Times,serif" font-size="15.00" fill="#000000">Спорт</text>
</a>
</g>
</g>
<!-- Team&#45;&gt;Sport -->
<g id="edge10" class="edge">
<title>Team&#45;&gt;Sport</title>
<path fill="none" stroke="#000000" stroke-dasharray="5,2" d="M808.5242,-531.8462C764.946,-494.74 695.1932,-435.3465 652.2038,-398.7416"/>
<polygon fill="#000000" stroke="#000000" points="644.5006,-392.1824 655.0318,-395.2393 648.3075,-395.4239 652.1144,-398.6655 652.1144,-398.6655 652.1144,-398.6655 648.3075,-395.4239 649.197,-402.0917 644.5006,-392.1824 644.5006,-392.1824"/>
</g>
<!-- Player&#45;&gt;Sport -->
<g id="edge15" class="edge">
<title>Player&#45;&gt;Sport</title>
<path fill="none" stroke="#000000" stroke-dasharray="5,2" d="M1122.5109,-516.6004C1019.7571,-486.2436 767.8081,-411.8097 662.1473,-380.5941"/>
<polygon fill="#000000" stroke="#000000" points="652.3887,-377.7111 663.2539,-376.2288 657.1838,-379.1278 661.9789,-380.5444 661.9789,-380.5444 661.9789,-380.5444 657.1838,-379.1278 660.7039,-384.86 652.3887,-377.7111 652.3887,-377.7111"/>
</g>
<!-- Goal -->
<g id="node11" class="node has&#45;pronunciation">
<title>Goal</title>
<g id="a_node11"><a xlink:href="../goal.html" xlink:title="Гол" target="_top">
<ellipse fill="none" stroke="#c0c0c0" stroke-width=".2" cx="1446.9103" cy="-436.3484" rx="52.1524" ry="52.1524"/>
<text text-anchor="middle" x="1446.9103" y="-453.3484" font-family="Times,serif" font-size="20.00" fill="#000000">Goal</text>
<text text-anchor="middle" x="1446.9103" y="-431.3484" font-family="Times,serif" font-size="20.00" fill="#000000">Гол</text>
<text text-anchor="middle" x="1446.9103" y="-409.3484" font-family="Times,serif" font-size="20.00" fill="#000000">Гoул</text>
</a>
</g>
</g>
<!-- Player&#45;&gt;Goal -->
<g id="edge14" class="edge">
<title>Player&#45;&gt;Goal</title>
<path fill="none" stroke="#000000" stroke-dasharray="5,2" d="M1211.6033,-515.0192C1259.1527,-499.1219 1334.9339,-473.7857 1387.6,-456.1777"/>
<polygon fill="#000000" stroke="#000000" points="1397.1529,-452.9839 1389.0958,-460.4226 1392.4109,-454.5693 1387.6689,-456.1548 1387.6689,-456.1548 1387.6689,-456.1548 1392.4109,-454.5693 1386.242,-451.887 1397.1529,-452.9839 1397.1529,-452.9839"/>
</g>
<!-- Shot -->
<g id="node13" class="node has&#45;pronunciation">
<title>Shot</title>
<g id="a_node13"><a xlink:href="../shot.html" xlink:title="Бросок" target="_top">
<ellipse fill="none" stroke="#c0c0c0" stroke-width=".2" cx="1884.6972" cy="-595.153" rx="67.3507" ry="67.3507"/>
<text text-anchor="middle" x="1884.6972" y="-617.153" font-family="Times,serif" font-size="25.00" fill="#000000">Shot</text>
<text text-anchor="middle" x="1884.6972" y="-589.153" font-family="Times,serif" font-size="25.00" fill="#000000">Бросок</text>
<text text-anchor="middle" x="1884.6972" y="-561.153" font-family="Times,serif" font-size="25.00" fill="#000000">Шат</text>
</a>
</g>
</g>
<!-- Player&#45;&gt;Shot -->
<g id="edge20" class="edge">
<title>Player&#45;&gt;Shot</title>
<path fill="none" stroke="#000000" stroke-dasharray="5,2" d="M1213.8157,-534.0675C1334.4641,-545.0528 1658.3953,-574.5476 1807.5645,-588.1299"/>
<polygon fill="#000000" stroke="#000000" points="1817.5655,-589.0405 1807.1986,-592.6151 1812.5861,-588.5871 1807.6067,-588.1336 1807.6067,-588.1336 1807.6067,-588.1336 1812.5861,-588.5871 1808.0148,-583.6522 1817.5655,-589.0405 1817.5655,-589.0405"/>
</g>
<!-- Game -->
<g id="node20" class="node has&#45;pronunciation">
<title>Game</title>
<g id="a_node20"><a xlink:href="../game.html" xlink:title="Игра" target="_top">
<ellipse fill="none" stroke="#c0c0c0" stroke-width=".2" cx="717.5847" cy="-837.6006" rx="52.1524" ry="52.1524"/>
<text text-anchor="middle" x="717.5847" y="-854.6006" font-family="Times,serif" font-size="20.00" fill="#000000">Game</text>
<text text-anchor="middle" x="717.5847" y="-832.6006" font-family="Times,serif" font-size="20.00" fill="#000000">Игра</text>
<text text-anchor="middle" x="717.5847" y="-810.6006" font-family="Times,serif" font-size="20.00" fill="#000000">Гейм</text>
</a>
</g>
</g>
<!-- Player&#45;&gt;Game -->
<g id="edge35" class="edge">
<title>Player&#45;&gt;Game</title>
<path fill="none" stroke="#000000" stroke-dasharray="5,2" d="M1128.5663,-556.3385C1047.6588,-611.7089 860.6811,-739.6702 769.4862,-802.081"/>
<polygon fill="#000000" stroke="#000000" points="760.9667,-807.9115 766.6777,-798.5501 765.0929,-805.0876 769.2192,-802.2637 769.2192,-802.2637 769.2192,-802.2637 765.0929,-805.0876 771.7607,-805.9773 760.9667,-807.9115 760.9667,-807.9115"/>
</g>
<!-- Rink -->
<g id="node3" class="node has&#45;pronunciation">
<title>Rink</title>
<g id="a_node3"><a xlink:href="../rink.html" xlink:title="Площадка" target="_top">
<ellipse fill="none" stroke="#c0c0c0" stroke-width=".2" cx="1079.4472" cy="-1260.5848" rx="57.0522" ry="57.0522"/>
<text text-anchor="middle" x="1079.4472" y="-1274.0848" font-family="Times,serif" font-size="15.00" fill="#000000">Rink</text>
<text text-anchor="middle" x="1079.4472" y="-1257.0848" font-family="Times,serif" font-size="15.00" fill="#000000">Площадка</text>
<text text-anchor="middle" x="1079.4472" y="-1240.0848" font-family="Times,serif" font-size="15.00" fill="#000000">Ринк</text>
</a>
</g>
</g>
<!-- Ice -->
<g id="node4" class="node has&#45;pronunciation">
<title>Ice</title>
<g id="a_node4"><a xlink:href="../ice.html" xlink:title="Лёд" target="_top">
<ellipse fill="none" stroke="#c0c0c0" stroke-width=".2" cx="1588.8285" cy="-1368.5869" rx="41.9398" ry="41.9398"/>
<text text-anchor="middle" x="1588.8285" y="-1382.0869" font-family="Times,serif" font-size="15.00" fill="#000000">Ice</text>
<text text-anchor="middle" x="1588.8285" y="-1365.0869" font-family="Times,serif" font-size="15.00" fill="#000000">Лёд</text>
<text text-anchor="middle" x="1588.8285" y="-1348.0869" font-family="Times,serif" font-size="15.00" fill="#000000">Айс</text>
</a>
</g>
</g>
<!-- Rink&#45;&gt;Ice -->
<g id="edge2" class="edge">
<title>Rink&#45;&gt;Ice</title>
<path fill="none" stroke="#000000" stroke-dasharray="5,2" d="M1135.9062,-1272.5556C1235.7508,-1293.7253 1441.9642,-1337.4479 1537.7996,-1357.7675"/>
<polygon fill="#000000" stroke="#000000" points="1547.8254,-1359.8932 1537.1095,-1362.2211 1542.9341,-1358.8561 1538.0429,-1357.819 1538.0429,-1357.819 1538.0429,-1357.819 1542.9341,-1358.8561 1538.9763,-1353.4169 1547.8254,-1359.8932 1547.8254,-1359.8932"/>
</g>
<!-- Goal net -->
<g id="node5" class="node has&#45;pronunciation">
<title>Goal net</title>
<g id="a_node5"><a xlink:href="../goal-net.html" xlink:title="Ворота" target="_top">
<ellipse fill="none" stroke="#c0c0c0" stroke-width=".2" cx="1527.444" cy="-956.1167" rx="62.8651" ry="62.8651"/>
<text text-anchor="middle" x="1527.444" y="-973.1167" font-family="Times,serif" font-size="20.00" fill="#000000">Goal net</text>
<text text-anchor="middle" x="1527.444" y="-951.1167" font-family="Times,serif" font-size="20.00" fill="#000000">Ворота</text>
<text text-anchor="middle" x="1527.444" y="-929.1167" font-family="Times,serif" font-size="20.00" fill="#000000">Гoул нет</text>
</a>
</g>
</g>
<!-- Rink&#45;&gt;Goal net -->
<g id="edge3" class="edge">
<title>Rink&#45;&gt;Goal net</title>
<path fill="none" stroke="#000000" stroke-dasharray="5,2" d="M1126.9666,-1228.2897C1208.8831,-1172.6175 1376.5531,-1058.6653 1466.7745,-997.349"/>
<polygon fill="#000000" stroke="#000000" points="1475.2583,-991.5832 1469.517,-1000.926 1471.1229,-994.3937 1466.9876,-997.2042 1466.9876,-997.2042 1466.9876,-997.2042 1471.1229,-994.3937 1464.4581,-993.4823 1475.2583,-991.5832 1475.2583,-991.5832"/>
</g>
<!-- Opponent -->
<g id="node6" class="node has&#45;pronunciation">
<title>Opponent</title>
<g id="a_node6"><a xlink:href="../opponent.html" xlink:title="Противник" target="_top">
<ellipse fill="none" stroke="#c0c0c0" stroke-width=".2" cx="1050.435" cy="-986.4427" rx="60.623" ry="60.623"/>
<text text-anchor="middle" x="1050.435" y="-999.9427" font-family="Times,serif" font-size="15.00" fill="#000000">Opponent</text>
<text text-anchor="middle" x="1050.435" y="-982.9427" font-family="Times,serif" font-size="15.00" fill="#000000">Противник</text>
<text text-anchor="middle" x="1050.435" y="-965.9427" font-family="Times,serif" font-size="15.00" fill="#000000">Эˈпoунэнт</text>
</a>
</g>
</g>
<!-- Opponent&#45;&gt;Team -->
<g id="edge4" class="edge">
<title>Opponent&#45;&gt;Team</title>
<path fill="none" stroke="#000000" stroke-dasharray="5,2" d="M1023.9555,-931.394C985.2356,-850.8987 913.5592,-701.8895 874.669,-621.0398"/>
<polygon fill="#000000" stroke="#000000" points="870.3224,-612.0036 878.7124,-619.0646 872.4898,-616.5094 874.6572,-621.0152 874.6572,-621.0152 874.6572,-621.0152 872.4898,-616.5094 870.602,-622.9659 870.3224,-612.0036 870.3224,-612.0036"/>
</g>
<!-- Opponent&#45;&gt;Player -->
<g id="edge5" class="edge">
<title>Opponent&#45;&gt;Player</title>
<path fill="none" stroke="#000000" stroke-dasharray="5,2" d="M1065.593,-927.2169C1088.3455,-838.3174 1131.0135,-671.6035 1153.1559,-585.0878"/>
<polygon fill="#000000" stroke="#000000" points="1155.687,-575.1983 1157.567,-586.0018 1154.4472,-580.0422 1153.2075,-584.886 1153.2075,-584.886 1153.2075,-584.886 1154.4472,-580.0422 1148.848,-583.7703 1155.687,-575.1983 1155.687,-575.1983"/>
</g>
<!-- Opponent&#45;&gt;Goal net -->
<g id="edge9" class="edge">
<title>Opponent&#45;&gt;Goal net</title>
<path fill="none" stroke="#000000" stroke-dasharray="5,2" d="M1111.3331,-982.5711C1199.0578,-976.994 1360.7377,-966.7151 1454.6483,-960.7447"/>
<polygon fill="#000000" stroke="#000000" points="1464.637,-960.1096 1454.9427,-965.2351 1459.6471,-960.4269 1454.6572,-960.7442 1454.6572,-960.7442 1454.6572,-960.7442 1459.6471,-960.4269 1454.3716,-956.2533 1464.637,-960.1096 1464.637,-960.1096"/>
</g>
<!-- Stick -->
<g id="node7" class="node has&#45;pronunciation">
<title>Stick</title>
<g id="a_node7"><a xlink:href="../stick.html" xlink:title="Клюшка" target="_top">
<ellipse fill="none" stroke="#c0c0c0" stroke-width=".2" cx="1727.3853" cy="-381.038" rx="48.5816" ry="48.5816"/>
<text text-anchor="middle" x="1727.3853" y="-394.538" font-family="Times,serif" font-size="15.00" fill="#000000">Stick</text>
<text text-anchor="middle" x="1727.3853" y="-377.538" font-family="Times,serif" font-size="15.00" fill="#000000">Клюшка</text>
<text text-anchor="middle" x="1727.3853" y="-360.538" font-family="Times,serif" font-size="15.00" fill="#000000">Стик</text>
</a>
</g>
</g>
<!-- Puck -->
<g id="node8" class="node has&#45;pronunciation">
<title>Puck</title>
<g id="a_node8"><a xlink:href="../puck.html" xlink:title="Шайба" target="_top">
<ellipse fill="none" stroke="#c0c0c0" stroke-width=".2" cx="1739.7234" cy="-842.4465" rx="52.1524" ry="52.1524"/>
<text text-anchor="middle" x="1739.7234" y="-859.4465" font-family="Times,serif" font-size="20.00" fill="#000000">Puck</text>
<text text-anchor="middle" x="1739.7234" y="-837.4465" font-family="Times,serif" font-size="20.00" fill="#000000">Шайба</text>
<text text-anchor="middle" x="1739.7234" y="-815.4465" font-family="Times,serif" font-size="20.00" fill="#000000">Пак</text>
</a>
</g>
</g>
<!-- Stick&#45;&gt;Puck -->
<g id="edge6" class="edge">
<title>Stick&#45;&gt;Puck</title>
<path fill="none" stroke="#000000" stroke-dasharray="5,2" d="M1728.6941,-429.98C1730.9507,-514.3706 1735.5702,-687.1279 1738.0544,-780.0329"/>
<polygon fill="#000000" stroke="#000000" points="1738.3246,-790.1357 1733.5588,-780.2596 1738.1909,-785.1375 1738.0572,-780.1392 1738.0572,-780.1392 1738.0572,-780.1392 1738.1909,-785.1375 1742.5556,-780.0189 1738.3246,-790.1357 1738.3246,-790.1357"/>
</g>
<!-- Puck&#45;&gt;Ice -->
<g id="edge7" class="edge">
<title>Puck&#45;&gt;Ice</title>
<path fill="none" stroke="#000000" stroke-dasharray="5,2" d="M1725.2549,-892.895C1696.4076,-993.4798 1632.0365,-1217.9293 1603.2378,-1318.3445"/>
<polygon fill="#000000" stroke="#000000" points="1600.3994,-1328.2414 1598.8307,-1317.3883 1601.7778,-1323.4352 1603.1563,-1318.6289 1603.1563,-1318.6289 1603.1563,-1318.6289 1601.7778,-1323.4352 1607.4819,-1319.8696 1600.3994,-1328.2414 1600.3994,-1328.2414"/>
</g>
<!-- Puck&#45;&gt;Goal net -->
<g id="edge8" class="edge">
<title>Puck&#45;&gt;Goal net</title>
<path fill="none" stroke="#000000" stroke-dasharray="5,2" d="M1693.4001,-867.2514C1663.7384,-883.1345 1624.8229,-903.9728 1592.1316,-921.4781"/>
<polygon fill="#000000" stroke="#000000" points="1583.089,-926.3202 1589.7804,-917.6325 1587.4968,-923.9599 1591.9047,-921.5996 1591.9047,-921.5996 1591.9047,-921.5996 1587.4968,-923.9599 1594.0289,-925.5666 1583.089,-926.3202 1583.089,-926.3202"/>
</g>
<!-- Sport&#45;&gt;Game -->
<g id="edge34" class="edge">
<title>Sport&#45;&gt;Game</title>
<path fill="none" stroke="#000000" stroke-dasharray="5,2" d="M622.8259,-405.4107C640.795,-487.3668 682.6223,-678.139 704.1915,-776.5151"/>
<polygon fill="#000000" stroke="#000000" points="706.3404,-786.3157 699.803,-777.5115 705.2695,-781.4318 704.1986,-776.5478 704.1986,-776.5478 704.1986,-776.5478 705.2695,-781.4318 708.5942,-775.584 706.3404,-786.3157 706.3404,-786.3157"/>
</g>
<!-- Score -->
<g id="node10" class="node has&#45;pronunciation">
<title>Score</title>
<g id="a_node10"><a xlink:href="../score.html" xlink:title="Счёт" target="_top">
<ellipse fill="none" stroke="#c0c0c0" stroke-width=".2" cx="787.5234" cy="-199.1141" rx="52.1524" ry="52.1524"/>
<text text-anchor="middle" x="787.5234" y="-216.1141" font-family="Times,serif" font-size="20.00" fill="#000000">Score</text>
<text text-anchor="middle" x="787.5234" y="-194.1141" font-family="Times,serif" font-size="20.00" fill="#000000">Счёт</text>
<text text-anchor="middle" x="787.5234" y="-172.1141" font-family="Times,serif" font-size="20.00" fill="#000000">Скор</text>
</a>
</g>
</g>
<!-- Score&#45;&gt;Goal -->
<g id="edge11" class="edge">
<title>Score&#45;&gt;Goal</title>
<path fill="none" stroke="#000000" stroke-dasharray="5,2" d="M836.8149,-216.8482C955.996,-259.7272 1259.4002,-368.886 1387.9359,-415.1305"/>
<polygon fill="#000000" stroke="#000000" points="1397.6193,-418.6144 1386.6864,-419.4633 1392.9146,-416.9217 1388.2098,-415.229 1388.2098,-415.229 1388.2098,-415.229 1392.9146,-416.9217 1389.7332,-410.9947 1397.6193,-418.6144 1397.6193,-418.6144"/>
</g>
<!-- Point -->
<g id="node12" class="node has&#45;pronunciation">
<title>Point</title>
<g id="a_node12"><a xlink:href="../point.html" xlink:title="Очко" target="_top">
<ellipse fill="none" stroke="#c0c0c0" stroke-width=".2" cx="1125.8982" cy="-114.634" rx="41.9398" ry="41.9398"/>
<text text-anchor="middle" x="1125.8982" y="-128.134" font-family="Times,serif" font-size="15.00" fill="#000000">Point</text>
<text text-anchor="middle" x="1125.8982" y="-111.134" font-family="Times,serif" font-size="15.00" fill="#000000">Очко</text>
<text text-anchor="middle" x="1125.8982" y="-94.134" font-family="Times,serif" font-size="15.00" fill="#000000">Пойнт</text>
</a>
</g>
</g>
<!-- Score&#45;&gt;Point -->
<g id="edge12" class="edge">
<title>Score&#45;&gt;Point</title>
<path fill="none" stroke="#000000" stroke-dasharray="5,2" d="M838.5479,-186.3751C902.6017,-170.3832 1011.7885,-143.1232 1075.5315,-127.2088"/>
<polygon fill="#000000" stroke="#000000" points="1085.3578,-124.7555 1076.7457,-131.5439 1080.5067,-125.9667 1075.6556,-127.1779 1075.6556,-127.1779 1075.6556,-127.1779 1080.5067,-125.9667 1074.5655,-122.8119 1085.3578,-124.7555 1085.3578,-124.7555"/>
</g>
<!-- Goal&#45;&gt;Goal net -->
<g id="edge19" class="edge">
<title>Goal&#45;&gt;Goal net</title>
<path fill="none" stroke="#000000" stroke-dasharray="5,2" d="M1454.9266,-488.086C1469.3606,-581.2435 1499.7498,-777.377 1516.2356,-883.7774"/>
<polygon fill="#000000" stroke="#000000" points="1517.7866,-893.7877 1511.8085,-884.5946 1517.021,-888.8466 1516.2554,-883.9056 1516.2554,-883.9056 1516.2554,-883.9056 1517.021,-888.8466 1520.7024,-883.2165 1517.7866,-893.7877 1517.7866,-893.7877"/>
</g>
<!-- Goal&#45;&gt;Puck -->
<g id="edge18" class="edge">
<title>Goal&#45;&gt;Puck</title>
<path fill="none" stroke="#000000" stroke-dasharray="5,2" d="M1477.693,-479.0404C1531.9531,-554.2929 1644.386,-710.2244 1702.7542,-791.1745"/>
<polygon fill="#000000" stroke="#000000" points="1708.9138,-799.7171 1699.415,-794.2376 1705.9894,-795.6614 1703.0651,-791.6057 1703.0651,-791.6057 1703.0651,-791.6057 1705.9894,-795.6614 1706.7152,-788.9738 1708.9138,-799.7171 1708.9138,-799.7171"/>
</g>
<!-- Point&#45;&gt;Team -->
<g id="edge17" class="edge">
<title>Point&#45;&gt;Team</title>
<path fill="none" stroke="#000000" stroke-dasharray="5,2" d="M1103.8508,-150.3788C1055.0801,-229.4492 937.8459,-419.5172 880.5364,-512.431"/>
<polygon fill="#000000" stroke="#000000" points="875.1817,-521.1124 876.6014,-510.2388 877.8066,-516.8568 880.4315,-512.6012 880.4315,-512.6012 880.4315,-512.6012 877.8066,-516.8568 884.2615,-514.9636 875.1817,-521.1124 875.1817,-521.1124"/>
</g>
<!-- Point&#45;&gt;Player -->
<g id="edge16" class="edge">
<title>Point&#45;&gt;Player</title>
<path fill="none" stroke="#000000" stroke-dasharray="5,2" d="M1130.0573,-156.3458C1137.5174,-231.1634 1153.1798,-388.2414 1161.6204,-472.8931"/>
<polygon fill="#000000" stroke="#000000" points="1162.6378,-483.0961 1157.1677,-473.592 1162.1417,-478.1208 1161.6455,-473.1455 1161.6455,-473.1455 1161.6455,-473.1455 1162.1417,-478.1208 1166.1233,-472.6989 1162.6378,-483.0961 1162.6378,-483.0961"/>
</g>
<!-- Point&#45;&gt;Goal -->
<g id="edge13" class="edge">
<title>Point&#45;&gt;Goal</title>
<path fill="none" stroke="#000000" stroke-dasharray="5,2" d="M1155.5229,-144.3235C1212.0911,-201.0154 1335.7703,-324.9652 1402.3552,-391.6958"/>
<polygon fill="#000000" stroke="#000000" points="1409.7922,-399.149 1399.5434,-395.2487 1406.2605,-395.6096 1402.7288,-392.0702 1402.7288,-392.0702 1402.7288,-392.0702 1406.2605,-395.6096 1405.9143,-388.8917 1409.7922,-399.149 1409.7922,-399.149"/>
</g>
<!-- Shot&#45;&gt;Goal net -->
<g id="edge24" class="edge">
<title>Shot&#45;&gt;Goal net</title>
<path fill="none" stroke="#000000" stroke-dasharray="5,2" d="M1837.2567,-643.0862C1770.3221,-710.716 1648.6161,-833.6861 1579.3426,-903.6791"/>
<polygon fill="#000000" stroke="#000000" points="1571.9842,-911.1139 1575.8203,-900.8408 1575.5014,-907.5601 1579.0187,-904.0063 1579.0187,-904.0063 1579.0187,-904.0063 1575.5014,-907.5601 1582.217,-907.1718 1571.9842,-911.1139 1571.9842,-911.1139"/>
</g>
<!-- Shot&#45;&gt;Stick -->
<g id="edge23" class="edge">
<title>Shot&#45;&gt;Stick</title>
<path fill="none" stroke="#000000" stroke-dasharray="5,2" d="M1844.7974,-540.846C1819.3713,-506.2389 1786.7419,-461.8274 1762.3367,-428.6098"/>
<polygon fill="#000000" stroke="#000000" points="1756.3186,-420.4186 1765.8659,-425.813 1759.279,-424.448 1762.2394,-428.4774 1762.2394,-428.4774 1762.2394,-428.4774 1759.279,-424.448 1758.613,-431.1418 1756.3186,-420.4186 1756.3186,-420.4186"/>
</g>
<!-- Shot&#45;&gt;Puck -->
<g id="edge22" class="edge">
<title>Shot&#45;&gt;Puck</title>
<path fill="none" stroke="#000000" stroke-dasharray="5,2" d="M1850.7073,-653.1323C1826.7428,-694.0104 1794.8701,-748.3783 1771.4302,-788.3616"/>
<polygon fill="#000000" stroke="#000000" points="1766.2637,-797.1745 1767.4391,-786.2718 1768.7925,-792.8611 1771.3212,-788.5476 1771.3212,-788.5476 1771.3212,-788.5476 1768.7925,-792.8611 1775.2033,-790.8235 1766.2637,-797.1745 1766.2637,-797.1745"/>
</g>
<!-- Shot&#45;&gt;Goal -->
<g id="edge21" class="edge">
<title>Shot&#45;&gt;Goal</title>
<path fill="none" stroke="#000000" stroke-dasharray="5,2" d="M1821.5068,-572.2311C1736.9754,-541.5678 1588.2127,-487.605 1505.883,-457.7404"/>
<polygon fill="#000000" stroke="#000000" points="1496.1809,-454.221 1507.1161,-453.4008 1500.8813,-455.926 1505.5816,-457.6311 1505.5816,-457.6311 1505.5816,-457.6311 1500.8813,-455.926 1504.047,-461.8614 1496.1809,-454.221 1496.1809,-454.221"/>
</g>
<!-- Flip shot -->
<g id="node14" class="node has&#45;pronunciation">
<title>Flip shot</title>
<g id="a_node14"><a xlink:href="../flip-shot.html" xlink:title="Подкидка" target="_top">
<ellipse fill="none" stroke="#c0c0c0" stroke-width=".2" cx="2415.6957" cy="-387.0778" rx="55.7232" ry="55.7232"/>
<text text-anchor="middle" x="2415.6957" y="-400.5778" font-family="Times,serif" font-size="15.00" fill="#000000">Flip shot</text>
<text text-anchor="middle" x="2415.6957" y="-383.5778" font-family="Times,serif" font-size="15.00" fill="#000000">Подкидка</text>
<text text-anchor="middle" x="2415.6957" y="-366.5778" font-family="Times,serif" font-size="15.00" fill="#000000">Флип шат</text>
</a>
</g>
</g>
<!-- Shot&#45;&gt;Flip shot -->
<g id="edge25" class="edge">
<title>Shot&#45;&gt;Flip shot</title>
<path fill="none" stroke="#000000" stroke-dasharray="5,2" d="M1947.4327,-570.5697C2049.9214,-530.4088 2252.0272,-451.2123 2353.902,-411.292"/>
<polygon fill="#000000" stroke="#000000" points="2363.4412,-407.554 2355.7724,-415.3924 2358.7859,-409.3783 2354.1305,-411.2025 2354.1305,-411.2025 2354.1305,-411.2025 2358.7859,-409.3783 2352.4887,-407.0127 2363.4412,-407.554 2363.4412,-407.554"/>
</g>
<!-- Wrist shot -->
<g id="node15" class="node has&#45;pronunciation">
<title>Wrist shot</title>
<g id="a_node15"><a xlink:href="../wrist-shot.html" xlink:title="Кистевой" target="_top">
<ellipse fill="none" stroke="#c0c0c0" stroke-width=".2" cx="2432.0472" cy="-585.7231" rx="56.6372" ry="56.6372"/>
<text text-anchor="middle" x="2432.0472" y="-599.2231" font-family="Times,serif" font-size="15.00" fill="#000000">Wrist shot</text>
<text text-anchor="middle" x="2432.0472" y="-582.2231" font-family="Times,serif" font-size="15.00" fill="#000000">Кистевой</text>
<text text-anchor="middle" x="2432.0472" y="-565.2231" font-family="Times,serif" font-size="15.00" fill="#000000">Рист шат</text>
</a>
</g>
</g>
<!-- Shot&#45;&gt;Wrist shot -->
<g id="edge26" class="edge">
<title>Shot&#45;&gt;Wrist shot</title>
<path fill="none" stroke="#000000" stroke-dasharray="5,2" d="M1952.0873,-593.992C2057.4477,-592.1768 2259.977,-588.6876 2365.0779,-586.8769"/>
<polygon fill="#000000" stroke="#000000" points="2375.2461,-586.7017 2365.3251,-591.3734 2370.2468,-586.7879 2365.2476,-586.8741 2365.2476,-586.8741 2365.2476,-586.8741 2370.2468,-586.7879 2365.17,-582.3747 2375.2461,-586.7017 2375.2461,-586.7017"/>
</g>
<!-- Slapshot -->
<g id="node16" class="node has&#45;pronunciation">
<title>Slapshot</title>
<g id="a_node16"><a xlink:href="../slapshot.html" xlink:title="Щелчок" target="_top">
<ellipse fill="none" stroke="#c0c0c0" stroke-width=".2" cx="1980.4776" cy="-50.9117" rx="50.8235" ry="50.8235"/>
<text text-anchor="middle" x="1980.4776" y="-64.4117" font-family="Times,serif" font-size="15.00" fill="#000000">Slapshot</text>
<text text-anchor="middle" x="1980.4776" y="-47.4117" font-family="Times,serif" font-size="15.00" fill="#000000">Щелчок</text>
<text text-anchor="middle" x="1980.4776" y="-30.4117" font-family="Times,serif" font-size="15.00" fill="#000000">Слэпшат</text>
</a>
</g>
</g>
<!-- Shot&#45;&gt;Slapshot -->
<g id="edge27" class="edge">
<title>Shot&#45;&gt;Slapshot</title>
<path fill="none" stroke="#000000" stroke-dasharray="5,2" d="M1896.346,-528.9625C1915.1145,-422.3164 1951.7675,-214.0475 1969.8578,-111.2554"/>
<polygon fill="#000000" stroke="#000000" points="1971.6019,-101.3451 1974.3005,-111.9737 1970.7352,-106.2694 1969.8686,-111.1937 1969.8686,-111.1937 1969.8686,-111.1937 1970.7352,-106.2694 1965.4367,-110.4137 1971.6019,-101.3451 1971.6019,-101.3451"/>
</g>
<!-- Snap shot -->
<g id="node17" class="node has&#45;pronunciation">
<title>Snap shot</title>
<g id="a_node17"><a xlink:href="../snap-shot.html" xlink:title="Короткий щелчок" target="_top">
<ellipse fill="none" stroke="#c0c0c0" stroke-width=".2" cx="2251.9855" cy="-231.2925" rx="91.8478" ry="91.8478"/>
<text text-anchor="middle" x="2251.9855" y="-244.7925" font-family="Times,serif" font-size="15.00" fill="#000000">Snap shot</text>
<text text-anchor="middle" x="2251.9855" y="-227.7925" font-family="Times,serif" font-size="15.00" fill="#000000">Короткий щелчок</text>
<text text-anchor="middle" x="2251.9855" y="-210.7925" font-family="Times,serif" font-size="15.00" fill="#000000">Снэп шат</text>
</a>
</g>
</g>
<!-- Shot&#45;&gt;Snap shot -->
<g id="edge28" class="edge">
<title>Shot&#45;&gt;Snap shot</title>
<path fill="none" stroke="#000000" stroke-dasharray="5,2" d="M1932.7137,-547.5846C1995.5032,-485.381 2106.0863,-375.83 2179.2024,-303.3963"/>
<polygon fill="#000000" stroke="#000000" points="2186.5995,-296.0682 2182.6624,-306.3029 2183.0475,-299.5871 2179.4954,-303.106 2179.4954,-303.106 2179.4954,-303.106 2183.0475,-299.5871 2176.3283,-299.9092 2186.5995,-296.0682 2186.5995,-296.0682"/>
</g>
<!-- Backhand shot -->
<g id="node18" class="node has&#45;pronunciation">
<title>Backhand shot</title>
<g id="a_node18"><a xlink:href="../backhand-shot.html" xlink:title="С неудобной" target="_top">
<ellipse fill="none" stroke="#c0c0c0" stroke-width=".2" cx="2396.7164" cy="-859.6285" rx="75.8212" ry="75.8212"/>
<text text-anchor="middle" x="2396.7164" y="-873.1285" font-family="Times,serif" font-size="15.00" fill="#000000">Backhand shot</text>
<text text-anchor="middle" x="2396.7164" y="-856.1285" font-family="Times,serif" font-size="15.00" fill="#000000">С неудобной</text>
<text text-anchor="middle" x="2396.7164" y="-839.1285" font-family="Times,serif" font-size="15.00" fill="#000000">ˈБэкˌхэнд шат</text>
</a>
</g>
</g>
<!-- Shot&#45;&gt;Backhand shot -->
<g id="edge31" class="edge">
<title>Shot&#45;&gt;Backhand shot</title>
<path fill="none" stroke="#000000" stroke-dasharray="5,2" d="M1944.4344,-626.0093C2037.644,-674.1553 2217.6037,-767.1106 2320.1882,-820.099"/>
<polygon fill="#000000" stroke="#000000" points="2329.2606,-824.7852 2318.3106,-824.194 2324.8182,-822.4906 2320.3758,-820.1959 2320.3758,-820.1959 2320.3758,-820.1959 2324.8182,-822.4906 2322.441,-816.1978 2329.2606,-824.7852 2329.2606,-824.7852"/>
</g>
<!-- One&#45;timer -->
<g id="node19" class="node has&#45;pronunciation">
<title>One&#45;timer</title>
<g id="a_node19"><a xlink:href="../one-timer.html" xlink:title="В одно касание" target="_top">
<ellipse fill="none" stroke="#c0c0c0" stroke-width=".2" cx="2215.2123" cy="-1051.8525" rx="79.8063" ry="79.8063"/>
<text text-anchor="middle" x="2215.2123" y="-1065.3525" font-family="Times,serif" font-size="15.00" fill="#000000">One&#45;timer</text>
<text text-anchor="middle" x="2215.2123" y="-1048.3525" font-family="Times,serif" font-size="15.00" fill="#000000">В одно касание</text>
<text text-anchor="middle" x="2215.2123" y="-1031.3525" font-family="Times,serif" font-size="15.00" fill="#000000">Уан&#45;ˈтаймэр</text>
</a>
</g>
</g>
<!-- Shot&#45;&gt;One&#45;timer -->
<g id="edge33" class="edge">
<title>Shot&#45;&gt;One&#45;timer</title>
<path fill="none" stroke="#000000" stroke-dasharray="5,2" d="M1924.2367,-649.788C1983.6153,-731.8362 2095.9132,-887.0073 2162.2929,-978.7296"/>
<polygon fill="#000000" stroke="#000000" points="2168.175,-986.8573 2158.6666,-981.3944 2165.2435,-982.8067 2162.3121,-978.7562 2162.3121,-978.7562 2162.3121,-978.7562 2165.2435,-982.8067 2165.9576,-976.1179 2168.175,-986.8573 2168.175,-986.8573"/>
</g>
<!-- Snap shot&#45;&gt;Wrist shot -->
<g id="edge29" class="edge">
<title>Snap shot&#45;&gt;Wrist shot</title>
<path fill="none" stroke="#000000" stroke-dasharray="5,2" d="M2293.7478,-313.4968C2326.7839,-378.5245 2372.1305,-467.7841 2401.7533,-526.0932"/>
<polygon fill="#000000" stroke="#000000" points="2406.3683,-535.1772 2397.827,-528.3 2404.1036,-530.7195 2401.8389,-526.2618 2401.8389,-526.2618 2401.8389,-526.2618 2404.1036,-530.7195 2405.8509,-524.2235 2406.3683,-535.1772 2406.3683,-535.1772"/>
</g>
<!-- Snap shot&#45;&gt;Slapshot -->
<g id="edge30" class="edge">
<title>Snap shot&#45;&gt;Slapshot</title>
<path fill="none" stroke="#000000" stroke-dasharray="5,2" d="M2175.2709,-180.3259C2129.3016,-149.7854 2072.1151,-111.7926 2031.6261,-84.893"/>
<polygon fill="#000000" stroke="#000000" points="2023.2496,-79.328 2034.0692,-81.1136 2027.4143,-82.0949 2031.579,-84.8618 2031.579,-84.8618 2031.579,-84.8618 2027.4143,-82.0949 2029.0888,-88.61 2023.2496,-79.328 2023.2496,-79.328"/>
</g>
<!-- Backhand shot&#45;&gt;Wrist shot -->
<g id="edge32" class="edge">
<title>Backhand shot&#45;&gt;Wrist shot</title>
<path fill="none" stroke="#000000" stroke-dasharray="5,2" d="M2406.4174,-784.4204C2411.7545,-743.0442 2418.3182,-692.1583 2423.4671,-652.241"/>
<polygon fill="#000000" stroke="#000000" points="2424.7778,-642.0796 2427.9615,-652.5731 2424.1381,-647.0385 2423.4984,-651.9974 2423.4984,-651.9974 2423.4984,-651.9974 2424.1381,-647.0385 2419.0354,-651.4217 2424.7778,-642.0796 2424.7778,-642.0796"/>
</g>
<!-- Game&#45;&gt;Team -->
<g id="edge37" class="edge">
<title>Game&#45;&gt;Team</title>
<path fill="none" stroke="#000000" stroke-dasharray="5,2" d="M740.2817,-790.1805C762.7966,-743.141 797.2925,-671.07 821.1291,-621.2689"/>
<polygon fill="#000000" stroke="#000000" points="825.4506,-612.2402 825.1923,-623.2031 823.292,-616.7502 821.1333,-621.2602 821.1333,-621.2602 821.1333,-621.2602 823.292,-616.7502 817.0742,-619.3174 825.4506,-612.2402 825.4506,-612.2402"/>
</g>
<!-- Game&#45;&gt;Rink -->
<g id="edge38" class="edge">
<title>Game&#45;&gt;Rink</title>
<path fill="none" stroke="#000000" stroke-dasharray="5,2" d="M751.6279,-877.394C817.4843,-954.3741 962.2613,-1123.6052 1035.3649,-1209.0566"/>
<polygon fill="#000000" stroke="#000000" points="1041.9973,-1216.8093 1032.0771,-1212.1358 1038.7469,-1213.0099 1035.4965,-1209.2105 1035.4965,-1209.2105 1035.4965,-1209.2105 1038.7469,-1213.0099 1038.916,-1206.2852 1041.9973,-1216.8093 1041.9973,-1216.8093"/>
</g>
<!-- Period -->
<g id="node22" class="node has&#45;pronunciation">
<title>Period</title>
<g id="a_node22"><a xlink:href="../period.html" xlink:title="Период" target="_top">
<ellipse fill="none" stroke="#c0c0c0" stroke-width=".2" cx="48.0833" cy="-716.2042" rx="48.1667" ry="48.1667"/>
<text text-anchor="middle" x="48.0833" y="-729.7042" font-family="Times,serif" font-size="15.00" fill="#000000">Period</text>
<text text-anchor="middle" x="48.0833" y="-712.7042" font-family="Times,serif" font-size="15.00" fill="#000000">Период</text>
<text text-anchor="middle" x="48.0833" y="-695.7042" font-family="Times,serif" font-size="15.00" fill="#000000">ˈПириэд</text>
</a>
</g>
</g>
<!-- Game&#45;&gt;Period -->
<g id="edge39" class="edge">
<title>Game&#45;&gt;Period</title>
<path fill="none" stroke="#000000" stroke-dasharray="5,2" d="M665.8848,-828.2262C542.9997,-805.9442 234.1321,-749.9392 105.5988,-726.6331"/>
<polygon fill="#000000" stroke="#000000" points="95.5604,-724.8129 106.2028,-722.1693 100.4801,-725.705 105.3999,-726.5971 105.3999,-726.5971 105.3999,-726.5971 100.4801,-725.705 104.597,-731.0249 95.5604,-724.8129 95.5604,-724.8129"/>
</g>
<!-- Overtime -->
<g id="node23" class="node has&#45;pronunciation">
<title>Overtime</title>
<g id="a_node23"><a xlink:href="../overtime.html" xlink:title="Овертайм" target="_top">
<ellipse fill="none" stroke="#c0c0c0" stroke-width=".2" cx="182.9265" cy="-968.5361" rx="67.3507" ry="67.3507"/>
<text text-anchor="middle" x="182.9265" y="-982.0361" font-family="Times,serif" font-size="15.00" fill="#000000">Overtime</text>
<text text-anchor="middle" x="182.9265" y="-965.0361" font-family="Times,serif" font-size="15.00" fill="#000000">Овертайм</text>
<text text-anchor="middle" x="182.9265" y="-948.0361" font-family="Times,serif" font-size="15.00" fill="#000000">ˈОувэрˌтайм</text>
</a>
</g>
</g>
<!-- Game&#45;&gt;Overtime -->
<g id="edge40" class="edge">
<title>Game&#45;&gt;Overtime</title>
<path fill="none" stroke="#000000" stroke-dasharray="5,2" d="M666.3194,-850.1553C571.5583,-873.3619 368.6119,-923.0626 258.2131,-950.0988"/>
<polygon fill="#000000" stroke="#000000" points="248.4756,-952.4834 257.1182,-945.7338 253.3321,-951.294 258.1886,-950.1047 258.1886,-950.1047 258.1886,-950.1047 253.3321,-951.294 259.259,-954.4755 248.4756,-952.4834 248.4756,-952.4834"/>
</g>
<!-- Shootout -->
<g id="node24" class="node has&#45;pronunciation">
<title>Shootout</title>
<g id="a_node24"><a xlink:href="../shootout.html" xlink:title="Буллиты" target="_top">
<ellipse fill="none" stroke="#c0c0c0" stroke-width=".2" cx="375.5476" cy="-1139.1943" rx="50.8235" ry="50.8235"/>
<text text-anchor="middle" x="375.5476" y="-1152.6943" font-family="Times,serif" font-size="15.00" fill="#000000">Shootout</text>
<text text-anchor="middle" x="375.5476" y="-1135.6943" font-family="Times,serif" font-size="15.00" fill="#000000">Буллиты</text>
<text text-anchor="middle" x="375.5476" y="-1118.6943" font-family="Times,serif" font-size="15.00" fill="#000000">ˈШутaут</text>
</a>
</g>
</g>
<!-- Game&#45;&gt;Shootout -->
<g id="edge42" class="edge">
<title>Game&#45;&gt;Shootout</title>
<path fill="none" stroke="#000000" stroke-dasharray="5,2" d="M678.0146,-872.4919C614.2643,-928.7042 489.1496,-1039.0249 421.5317,-1098.6475"/>
<polygon fill="#000000" stroke="#000000" points="413.9768,-1105.3091 418.5012,-1095.3201 417.7271,-1102.0022 421.4774,-1098.6953 421.4774,-1098.6953 421.4774,-1098.6953 417.7271,-1102.0022 424.4536,-1102.0706 413.9768,-1105.3091 413.9768,-1105.3091"/>
</g>
<!-- Hockey -->
<g id="node21" class="node root has&#45;pronunciation">
<title>Hockey</title>
<g id="a_node21"><a xlink:href="../hockey.html" xlink:title="Хоккей" target="_top">
<ellipse fill="none" stroke="#c0c0c0" stroke-width=".2" cx="1345.5169" cy="-712.0677" rx="45.011" ry="45.011"/>
<text text-anchor="middle" x="1345.5169" y="-725.5677" font-family="Times,serif" font-size="15.00" fill="#000000">Hockey</text>
<text text-anchor="middle" x="1345.5169" y="-708.5677" font-family="Times,serif" font-size="15.00" fill="#000000">Хоккей</text>
<text text-anchor="middle" x="1345.5169" y="-691.5677" font-family="Times,serif" font-size="15.00" fill="#000000">ˈХаки</text>
</a>
</g>
</g>
<!-- Hockey&#45;&gt;Team -->
<g id="edge48" class="edge">
<title>Hockey&#45;&gt;Team</title>
<path fill="none" stroke="#000000" stroke-dasharray="5,2" d="M1301.7917,-699.1773C1212.3913,-672.8215 1008.5996,-612.7424 907.3099,-582.8816"/>
<polygon fill="#000000" stroke="#000000" points="897.5401,-580.0014 908.4045,-578.5129 902.3361,-581.4153 907.132,-582.8292 907.132,-582.8292 907.132,-582.8292 902.3361,-581.4153 905.8595,-587.1456 897.5401,-580.0014 897.5401,-580.0014"/>
</g>
<!-- Hockey&#45;&gt;Player -->
<g id="edge50" class="edge">
<title>Hockey&#45;&gt;Player</title>
<path fill="none" stroke="#000000" stroke-dasharray="5,2" d="M1313.6549,-679.4876C1283.8688,-649.0302 1239.2837,-603.4402 1207.1541,-570.5865"/>
<polygon fill="#000000" stroke="#000000" points="1200.0898,-563.3629 1210.2989,-567.366 1203.5857,-566.9376 1207.0816,-570.5124 1207.0816,-570.5124 1207.0816,-570.5124 1203.5857,-566.9376 1203.8644,-573.6587 1200.0898,-563.3629 1200.0898,-563.3629"/>
</g>
<!-- Hockey&#45;&gt;Goal net -->
<g id="edge53" class="edge">
<title>Hockey&#45;&gt;Goal net</title>
<path fill="none" stroke="#000000" stroke-dasharray="5,2" d="M1372.7532,-748.6043C1402.0218,-787.8671 1448.9797,-850.8595 1483.4898,-897.1536"/>
<polygon fill="#000000" stroke="#000000" points="1489.5647,-905.3029 1479.9802,-899.9749 1486.5764,-901.2942 1483.588,-897.2854 1483.588,-897.2854 1483.588,-897.2854 1486.5764,-901.2942 1487.1959,-894.5959 1489.5647,-905.3029 1489.5647,-905.3029"/>
</g>
<!-- Hockey&#45;&gt;Stick -->
<g id="edge51" class="edge">
<title>Hockey&#45;&gt;Stick</title>
<path fill="none" stroke="#000000" stroke-dasharray="5,2" d="M1379.7412,-682.3997C1448.9436,-622.4104 1605.4638,-486.728 1682.6428,-419.824"/>
<polygon fill="#000000" stroke="#000000" points="1690.307,-413.1801 1685.6985,-423.1305 1686.529,-416.4552 1682.7509,-419.7303 1682.7509,-419.7303 1682.7509,-419.7303 1686.529,-416.4552 1679.8033,-416.33 1690.307,-413.1801 1690.307,-413.1801"/>
</g>
<!-- Hockey&#45;&gt;Puck -->
<g id="edge52" class="edge">
<title>Hockey&#45;&gt;Puck</title>
<path fill="none" stroke="#000000" stroke-dasharray="5,2" d="M1388.8315,-726.3935C1459.5115,-749.77 1599.7836,-796.1632 1679.911,-822.6643"/>
<polygon fill="#000000" stroke="#000000" points="1689.8519,-825.9521 1678.9446,-827.0844 1685.1048,-824.3821 1680.3577,-822.812 1680.3577,-822.812 1680.3577,-822.812 1685.1048,-824.3821 1681.7708,-818.5396 1689.8519,-825.9521 1689.8519,-825.9521"/>
</g>
<!-- Hockey&#45;&gt;Goal -->
<g id="edge54" class="edge">
<title>Hockey&#45;&gt;Goal</title>
<path fill="none" stroke="#000000" stroke-dasharray="5,2" d="M1361.1374,-669.5908C1378.2903,-622.9471 1405.9507,-547.73 1425.2059,-495.3692"/>
<polygon fill="#000000" stroke="#000000" points="1428.6991,-485.8703 1429.4711,-496.8089 1426.9733,-490.563 1425.2476,-495.2558 1425.2476,-495.2558 1425.2476,-495.2558 1426.9733,-490.563 1421.0241,-493.7026 1428.6991,-485.8703 1428.6991,-485.8703"/>
</g>
<!-- Hockey&#45;&gt;Shot -->
<g id="edge49" class="edge">
<title>Hockey&#45;&gt;Shot</title>
<path fill="none" stroke="#000000" stroke-dasharray="5,2" d="M1390.099,-702.4007C1482.1868,-682.4325 1694.3229,-636.4334 1808.5558,-611.6634"/>
<polygon fill="#000000" stroke="#000000" points="1818.6253,-609.4799 1809.806,-615.9969 1813.7388,-610.5395 1808.8524,-611.5991 1808.8524,-611.5991 1808.8524,-611.5991 1813.7388,-610.5395 1807.8987,-607.2013 1818.6253,-609.4799 1818.6253,-609.4799"/>
</g>
<!-- Hockey&#45;&gt;Game -->
<g id="edge36" class="edge">
<title>Hockey&#45;&gt;Game</title>
<path fill="none" stroke="#000000" stroke-dasharray="5,2" d="M1301.1117,-720.945C1190.9656,-742.9648 905.0083,-800.1319 778.8818,-825.3464"/>
<polygon fill="#000000" stroke="#000000" points="768.9932,-827.3233 777.9169,-820.9502 773.8961,-826.3431 778.7991,-825.3629 778.7991,-825.3629 778.7991,-825.3629 773.8961,-826.3431 779.6813,-829.7756 768.9932,-827.3233 768.9932,-827.3233"/>
</g>
<!-- Overtime&#45;&gt;Period -->
<g id="edge41" class="edge">
<title>Overtime&#45;&gt;Period</title>
<path fill="none" stroke="#000000" stroke-dasharray="5,2" d="M151.1413,-909.0565C128.1944,-866.116 97.5187,-808.7127 75.6146,-767.7236"/>
<polygon fill="#000000" stroke="#000000" points="70.8024,-758.7185 79.4844,-765.4173 73.159,-763.1284 75.5156,-767.5382 75.5156,-767.5382 75.5156,-767.5382 73.159,-763.1284 71.5467,-769.6591 70.8024,-758.7185 70.8024,-758.7185"/>
</g>
<!-- Winner -->
<g id="node25" class="node has&#45;pronunciation">
<title>Winner</title>
<g id="a_node25"><a xlink:href="../winner.html" xlink:title="Победитель" target="_top">
<ellipse fill="none" stroke="#c0c0c0" stroke-width=".2" cx="355.5969" cy="-620.3754" rx="65.1077" ry="65.1077"/>
<text text-anchor="middle" x="355.5969" y="-633.8754" font-family="Times,serif" font-size="15.00" fill="#000000">Winner</text>
<text text-anchor="middle" x="355.5969" y="-616.8754" font-family="Times,serif" font-size="15.00" fill="#000000">Победитель</text>
<text text-anchor="middle" x="355.5969" y="-599.8754" font-family="Times,serif" font-size="15.00" fill="#000000">ˈУинэр</text>
</a>
</g>
</g>
<!-- Overtime&#45;&gt;Winner -->
<g id="edge46" class="edge">
<title>Overtime&#45;&gt;Winner</title>
<path fill="none" stroke="#000000" stroke-dasharray="5,2" d="M212.8063,-908.2886C243.2582,-846.8874 290.3969,-751.8402 322.0963,-687.9238"/>
<polygon fill="#000000" stroke="#000000" points="326.6574,-678.7271 326.2457,-689.6853 324.4358,-683.2065 322.2142,-687.6858 322.2142,-687.6858 322.2142,-687.6858 324.4358,-683.2065 318.1828,-685.6864 326.6574,-678.7271 326.6574,-678.7271"/>
</g>
<!-- Shootout&#45;&gt;Winner -->
<g id="edge47" class="edge">
<title>Shootout&#45;&gt;Winner</title>
<path fill="none" stroke="#000000" stroke-dasharray="5,2" d="M373.58,-1088.0281C370.0469,-996.1477 362.6128,-802.8227 358.4953,-695.7488"/>
<polygon fill="#000000" stroke="#000000" points="358.1075,-685.6624 362.9885,-695.482 358.2996,-690.6587 358.4918,-695.655 358.4918,-695.655 358.4918,-695.655 358.2996,-690.6587 353.9951,-695.8279 358.1075,-685.6624 358.1075,-685.6624"/>
</g>
<!-- Winner&#45;&gt;Team -->
<g id="edge45" class="edge">
<title>Winner&#45;&gt;Team</title>
<path fill="none" stroke="#000000" stroke-dasharray="5,2" d="M420.4616,-613.127C515.8393,-602.4689 692.7028,-582.7049 786.2205,-572.2546"/>
<polygon fill="#000000" stroke="#000000" points="796.3776,-571.1196 786.9393,-576.7024 791.4085,-571.6749 786.4395,-572.2302 786.4395,-572.2302 786.4395,-572.2302 791.4085,-571.6749 785.9397,-567.7581 796.3776,-571.1196 796.3776,-571.1196"/>
</g>
<!-- Winner&#45;&gt;Score -->
<g id="edge44" class="edge">
<title>Winner&#45;&gt;Score</title>
<path fill="none" stroke="#000000" stroke-dasharray="5,2" d="M410.075,-584.6121C470.7499,-543.3077 569.9149,-471.302 643.141,-395.8576 686.2546,-351.438 727.186,-293.6355 754.3825,-252.1952"/>
<polygon fill="#000000" stroke="#000000" points="759.9733,-243.6114 758.2863,-254.4468 757.2444,-247.8011 754.5156,-251.9908 754.5156,-251.9908 754.5156,-251.9908 757.2444,-247.8011 750.7449,-249.5349 759.9733,-243.6114 759.9733,-243.6114"/>
</g>
<!-- Winner&#45;&gt;Game -->
<g id="edge43" class="edge">
<title>Winner&#45;&gt;Game</title>
<path fill="none" stroke="#000000" stroke-dasharray="5,2" d="M411.7603,-654.0785C480.4642,-695.307 595.9566,-764.6128 663.6363,-805.2267"/>
<polygon fill="#000000" stroke="#000000" points="672.4546,-810.5185 661.5645,-809.2315 668.1673,-807.9457 663.88,-805.3729 663.88,-805.3729 663.88,-805.3729 668.1673,-807.9457 666.1955,-801.5144 672.4546,-810.5185 672.4546,-810.5185"/>
</g>
</g>
</svg>
