<?xml version="1.0" encoding="UTF-8" standalone="no"?>
<?xml-stylesheet href="../static/svg.css" type="text/css"?>
<!DOCTYPE svg PUBLIC "-//W3C//DTD SVG 1.1//EN"
 "http://www.w3.org/Graphics/SVG/1.1/DTD/svg11.dtd">
<!-- Generated by graphviz version 2.40.1 (20161225.0304)
 -->
<!-- Title: term Pages: 1 -->
<svg width="1127pt" height="679pt"
 viewBox="0.00 0.00 1127.25 679.42" xmlns="http://www.w3.org/2000/svg" xmlns:xlink="http://www.w3.org/1999/xlink">
<g id="graph0" class="graph" transform="scale(1 1) rotate(0) translate(4 675.4189)">
<title>term</title>
<!-- Game -->
<g id="node1" class="node root has&#45;pronunciation">
<title>Game</title>
<g id="a_node1"><a xlink:href="javascript:history.back()" xlink:title="Игра" target="_top">
<ellipse fill="none" stroke="#c0c0c0" stroke-width=".2" cx="503.9687" cy="-302.6154" rx="52.1524" ry="52.1524"/>
<text text-anchor="middle" x="503.9687" y="-319.6154" font-family="Times,serif" font-size="20.00" fill="#000000">Game</text>
<text text-anchor="middle" x="503.9687" y="-297.6154" font-family="Times,serif" font-size="20.00" fill="#000000">Игра</text>
<text text-anchor="middle" x="503.9687" y="-275.6154" font-family="Times,serif" font-size="20.00" fill="#000000">Гейм</text>
</a>
</g>
</g>
<!-- Team -->
<g id="node6" class="node has&#45;pronunciation">
<title>Team</title>
<g id="a_node6"><a xlink:href="../team.html" xlink:title="Команда" target="_top">
<ellipse fill="none" stroke="#c0c0c0" stroke-width=".2" cx="518.0395" cy="-503.9272" rx="51.7379" ry="51.7379"/>
<text text-anchor="middle" x="518.0395" y="-517.4272" font-family="Times,serif" font-size="15.00" fill="#000000">Team</text>
<text text-anchor="middle" x="518.0395" y="-500.4272" font-family="Times,serif" font-size="15.00" fill="#000000">Команда</text>
<text text-anchor="middle" x="518.0395" y="-483.4272" font-family="Times,serif" font-size="15.00" fill="#000000">Тим</text>
</a>
</g>
</g>
<!-- Game&#45;&gt;Team -->
<g id="edge14" class="edge">
<title>Game&#45;&gt;Team</title>
<path fill="none" stroke="#000000" stroke-dasharray="5,2" d="M507.6289,-354.9822C509.4927,-381.6478 511.7707,-414.2391 513.72,-442.1286"/>
<polygon fill="#000000" stroke="#000000" points="514.422,-452.1712 509.2356,-442.5094 514.0733,-447.1834 513.7246,-442.1956 513.7246,-442.1956 513.7246,-442.1956 514.0733,-447.1834 518.2137,-441.8818 514.422,-452.1712 514.422,-452.1712"/>
</g>
<!-- Rink -->
<g id="node7" class="node has&#45;pronunciation">
<title>Rink</title>
<g id="a_node7"><a xlink:href="../rink.html" xlink:title="Площадка" target="_top">
<ellipse fill="none" stroke="#c0c0c0" stroke-width=".2" cx="57.2756" cy="-102.3829" rx="57.0522" ry="57.0522"/>
<text text-anchor="middle" x="57.2756" y="-115.8829" font-family="Times,serif" font-size="15.00" fill="#000000">Rink</text>
<text text-anchor="middle" x="57.2756" y="-98.8829" font-family="Times,serif" font-size="15.00" fill="#000000">Площадка</text>
<text text-anchor="middle" x="57.2756" y="-81.8829" font-family="Times,serif" font-size="15.00" fill="#000000">Ринк</text>
</a>
</g>
</g>
<!-- Game&#45;&gt;Rink -->
<g id="edge15" class="edge">
<title>Game&#45;&gt;Rink</title>
<path fill="none" stroke="#000000" stroke-dasharray="5,2" d="M456.1647,-281.187C374.6492,-244.6472 208.8567,-170.3299 118.8104,-129.9662"/>
<polygon fill="#000000" stroke="#000000" points="109.5421,-125.8116 120.508,-125.7957 114.1047,-127.8568 118.6673,-129.9021 118.6673,-129.9021 118.6673,-129.9021 114.1047,-127.8568 116.8266,-134.0084 109.5421,-125.8116 109.5421,-125.8116"/>
</g>
<!-- Period -->
<g id="node8" class="node has&#45;pronunciation">
<title>Period</title>
<g id="a_node8"><a xlink:href="../period.html" xlink:title="Период" target="_top">
<ellipse fill="none" stroke="#c0c0c0" stroke-width=".2" cx="1070.4608" cy="-196.3791" rx="48.5816" ry="48.5816"/>
<text text-anchor="middle" x="1070.4608" y="-209.8791" font-family="Times,serif" font-size="15.00" fill="#000000">Period</text>
<text text-anchor="middle" x="1070.4608" y="-192.8791" font-family="Times,serif" font-size="15.00" fill="#000000">Период</text>
<text text-anchor="middle" x="1070.4608" y="-175.8791" font-family="Times,serif" font-size="15.00" fill="#000000">ˈПириэд</text>
</a>
</g>
</g>
<!-- Game&#45;&gt;Period -->
<g id="edge16" class="edge">
<title>Game&#45;&gt;Period</title>
<path fill="none" stroke="#000000" stroke-dasharray="5,2" d="M555.4913,-292.9532C661.0229,-273.1625 901.1468,-228.1311 1012.1709,-207.3104"/>
<polygon fill="#000000" stroke="#000000" points="1022.1835,-205.4327 1013.1843,-211.6989 1017.2691,-206.3543 1012.3548,-207.276 1012.3548,-207.276 1012.3548,-207.276 1017.2691,-206.3543 1011.5253,-202.8531 1022.1835,-205.4327 1022.1835,-205.4327"/>
</g>
<!-- Overtime -->
<g id="node9" class="node has&#45;pronunciation">
<title>Overtime</title>
<g id="a_node9"><a xlink:href="../overtime.html" xlink:title="Овертайм" target="_top">
<ellipse fill="none" stroke="#c0c0c0" stroke-width=".2" cx="623.9012" cy="-68.5894" rx="68.6788" ry="68.6788"/>
<text text-anchor="middle" x="623.9012" y="-82.0894" font-family="Times,serif" font-size="15.00" fill="#000000">Overtime</text>
<text text-anchor="middle" x="623.9012" y="-65.0894" font-family="Times,serif" font-size="15.00" fill="#000000">Овертайм</text>
<text text-anchor="middle" x="623.9012" y="-48.0894" font-family="Times,serif" font-size="15.00" fill="#000000">ˈОувэрˌтайм</text>
</a>
</g>
</g>
<!-- Game&#45;&gt;Overtime -->
<g id="edge17" class="edge">
<title>Game&#45;&gt;Overtime</title>
<path fill="none" stroke="#000000" stroke-dasharray="5,2" d="M527.9506,-255.8192C545.1008,-222.3539 568.4823,-176.7292 587.8703,-138.897"/>
<polygon fill="#000000" stroke="#000000" points="592.451,-129.9587 591.8949,-140.9105 590.1706,-134.4084 587.8902,-138.8581 587.8902,-138.8581 587.8902,-138.8581 590.1706,-134.4084 583.8854,-136.8058 592.451,-129.9587 592.451,-129.9587"/>
</g>
<!-- Shootout -->
<g id="node10" class="node has&#45;pronunciation">
<title>Shootout</title>
<g id="a_node10"><a xlink:href="../shootout.html" xlink:title="Буллиты" target="_top">
<ellipse fill="none" stroke="#c0c0c0" stroke-width=".2" cx="863.9846" cy="-53.7408" rx="50.8235" ry="50.8235"/>
<text text-anchor="middle" x="863.9846" y="-67.2408" font-family="Times,serif" font-size="15.00" fill="#000000">Shootout</text>
<text text-anchor="middle" x="863.9846" y="-50.2408" font-family="Times,serif" font-size="15.00" fill="#000000">Буллиты</text>
<text text-anchor="middle" x="863.9846" y="-33.2408" font-family="Times,serif" font-size="15.00" fill="#000000">ˈШутaут</text>
</a>
</g>
</g>
<!-- Game&#45;&gt;Shootout -->
<g id="edge18" class="edge">
<title>Game&#45;&gt;Shootout</title>
<path fill="none" stroke="#000000" stroke-dasharray="5,2" d="M547.0375,-272.8425C613.9348,-226.5972 742.498,-137.7231 813.6025,-88.5694"/>
<polygon fill="#000000" stroke="#000000" points="821.9809,-82.7775 816.314,-92.1656 817.868,-85.6207 813.7551,-88.4639 813.7551,-88.4639 813.7551,-88.4639 817.868,-85.6207 811.1961,-84.7623 821.9809,-82.7775 821.9809,-82.7775"/>
</g>
<!-- Sport -->
<g id="node2" class="node">
<title>Sport</title>
<g id="a_node2"><a xlink:href="../sport.html" xlink:title="Спорт" target="_top">
<ellipse fill="none" stroke="#c0c0c0" stroke-width=".2" cx="744.4745" cy="-631.821" rx="39.6962" ry="39.6962"/>
<text text-anchor="middle" x="744.4745" y="-636.821" font-family="Times,serif" font-size="15.00" fill="#000000">Sport</text>
<text text-anchor="middle" x="744.4745" y="-619.821" font-family="Times,serif" font-size="15.00" fill="#000000">Спорт</text>
</a>
</g>
</g>
<!-- Sport&#45;&gt;Game -->
<g id="edge10" class="edge">
<title>Sport&#45;&gt;Game</title>
<path fill="none" stroke="#000000" stroke-dasharray="5,2" d="M720.9759,-599.6559C679.0077,-542.2096 590.8838,-421.5852 540.8049,-353.0369"/>
<polygon fill="#000000" stroke="#000000" points="534.8919,-344.9432 544.4247,-350.3633 537.8415,-348.9806 540.7911,-353.018 540.7911,-353.018 540.7911,-353.018 537.8415,-348.9806 537.1574,-355.6726 534.8919,-344.9432 534.8919,-344.9432"/>
</g>
<!-- Player -->
<g id="node3" class="node has&#45;pronunciation">
<title>Player</title>
<g id="a_node3"><a xlink:href="../player.html" xlink:title="Игрок" target="_top">
<ellipse fill="none" stroke="#c0c0c0" stroke-width=".2" cx="267.7877" cy="-602.9545" rx="46.8387" ry="46.8387"/>
<text text-anchor="middle" x="267.7877" y="-616.4545" font-family="Times,serif" font-size="15.00" fill="#000000">Player</text>
<text text-anchor="middle" x="267.7877" y="-599.4545" font-family="Times,serif" font-size="15.00" fill="#000000">Игрок</text>
<text text-anchor="middle" x="267.7877" y="-582.4545" font-family="Times,serif" font-size="15.00" fill="#000000">&#39;Плейэр</text>
</a>
</g>
</g>
<!-- Player&#45;&gt;Game -->
<g id="edge11" class="edge">
<title>Player&#45;&gt;Game</title>
<path fill="none" stroke="#000000" stroke-dasharray="5,2" d="M296.7482,-566.127C338.9826,-512.4197 417.5812,-412.4699 464.8991,-352.2982"/>
<polygon fill="#000000" stroke="#000000" points="471.3613,-344.0806 468.7171,-354.7229 468.2705,-348.0109 465.1798,-351.9413 465.1798,-351.9413 465.1798,-351.9413 468.2705,-348.0109 461.6425,-349.1596 471.3613,-344.0806 471.3613,-344.0806"/>
</g>
<!-- Player&#45;&gt;Sport -->
<g id="edge1" class="edge">
<title>Player&#45;&gt;Sport</title>
<path fill="none" stroke="#000000" stroke-dasharray="5,2" d="M314.7989,-605.8013C405.153,-611.2728 602.2805,-623.2102 694.7369,-628.809"/>
<polygon fill="#000000" stroke="#000000" points="704.9481,-629.4274 694.6943,-633.3146 699.9572,-629.1251 694.9664,-628.8228 694.9664,-628.8228 694.9664,-628.8228 699.9572,-629.1251 695.2384,-624.331 704.9481,-629.4274 704.9481,-629.4274"/>
</g>
<!-- Hockey -->
<g id="node4" class="node has&#45;pronunciation">
<title>Hockey</title>
<g id="a_node4"><a xlink:href="../hockey.html" xlink:title="Хоккей" target="_top">
<ellipse fill="none" stroke="#c0c0c0" stroke-width=".2" cx="50.6079" cy="-417.6934" rx="45.011" ry="45.011"/>
<text text-anchor="middle" x="50.6079" y="-431.1934" font-family="Times,serif" font-size="15.00" fill="#000000">Hockey</text>
<text text-anchor="middle" x="50.6079" y="-414.1934" font-family="Times,serif" font-size="15.00" fill="#000000">Хоккей</text>
<text text-anchor="middle" x="50.6079" y="-397.1934" font-family="Times,serif" font-size="15.00" fill="#000000">ˈХаки</text>
</a>
</g>
</g>
<!-- Hockey&#45;&gt;Game -->
<g id="edge12" class="edge">
<title>Hockey&#45;&gt;Game</title>
<path fill="none" stroke="#000000" stroke-dasharray="5,2" d="M94.49,-406.5547C175.9646,-385.8737 350.7295,-341.5126 443.3958,-317.9908"/>
<polygon fill="#000000" stroke="#000000" points="453.1898,-315.5048 444.6043,-322.3268 448.3435,-316.735 443.4972,-317.9652 443.4972,-317.9652 443.4972,-317.9652 448.3435,-316.735 442.39,-313.6035 453.1898,-315.5048 453.1898,-315.5048"/>
</g>
<!-- Hockey&#45;&gt;Player -->
<g id="edge3" class="edge">
<title>Hockey&#45;&gt;Player</title>
<path fill="none" stroke="#000000" stroke-dasharray="5,2" d="M85.5016,-447.4588C123.3506,-479.7451 183.8161,-531.3241 224.6251,-566.1354"/>
<polygon fill="#000000" stroke="#000000" points="232.2591,-572.6475 221.7307,-569.5812 228.4551,-569.4025 224.6511,-566.1576 224.6511,-566.1576 224.6511,-566.1576 228.4551,-569.4025 227.5716,-562.734 232.2591,-572.6475 232.2591,-572.6475"/>
</g>
<!-- Hockey&#45;&gt;Team -->
<g id="edge2" class="edge">
<title>Hockey&#45;&gt;Team</title>
<path fill="none" stroke="#000000" stroke-dasharray="5,2" d="M95.4272,-425.9619C179.6472,-441.4991 361.6127,-475.0689 456.9537,-492.6578"/>
<polygon fill="#000000" stroke="#000000" points="467.0216,-494.5152 456.3711,-497.1262 462.1046,-493.608 457.1875,-492.7009 457.1875,-492.7009 457.1875,-492.7009 462.1046,-493.608 458.004,-488.2756 467.0216,-494.5152 467.0216,-494.5152"/>
</g>
<!-- Winner -->
<g id="node5" class="node has&#45;pronunciation">
<title>Winner</title>
<g id="a_node5"><a xlink:href="../winner.html" xlink:title="Победитель" target="_top">
<ellipse fill="none" stroke="#c0c0c0" stroke-width=".2" cx="889.436" cy="-318.2233" rx="65.1077" ry="65.1077"/>
<text text-anchor="middle" x="889.436" y="-331.7233" font-family="Times,serif" font-size="15.00" fill="#000000">Winner</text>
<text text-anchor="middle" x="889.436" y="-314.7233" font-family="Times,serif" font-size="15.00" fill="#000000">Победитель</text>
<text text-anchor="middle" x="889.436" y="-297.7233" font-family="Times,serif" font-size="15.00" fill="#000000">ˈУинэр</text>
</a>
</g>
</g>
<!-- Winner&#45;&gt;Game -->
<g id="edge13" class="edge">
<title>Winner&#45;&gt;Game</title>
<path fill="none" stroke="#000000" stroke-dasharray="5,2" d="M824.0467,-315.5756C752.0851,-312.6618 637.2526,-308.0122 566.4651,-305.1459"/>
<polygon fill="#000000" stroke="#000000" points="556.351,-304.7364 566.5249,-300.6448 561.3469,-304.9387 566.3428,-305.1411 566.3428,-305.1411 566.3428,-305.1411 561.3469,-304.9387 566.1607,-309.6374 556.351,-304.7364 556.351,-304.7364"/>
</g>
<!-- Winner&#45;&gt;Team -->
<g id="edge4" class="edge">
<title>Winner&#45;&gt;Team</title>
<path fill="none" stroke="#000000" stroke-dasharray="5,2" d="M830.9967,-347.4438C760.421,-382.7327 642.5928,-441.6487 573.4175,-476.2373"/>
<polygon fill="#000000" stroke="#000000" points="564.4029,-480.7447 571.3346,-472.2475 568.8751,-478.5086 573.3472,-476.2724 573.3472,-476.2724 573.3472,-476.2724 568.8751,-478.5086 575.3597,-480.2974 564.4029,-480.7447 564.4029,-480.7447"/>
</g>
<!-- Team&#45;&gt;Sport -->
<g id="edge6" class="edge">
<title>Team&#45;&gt;Sport</title>
<path fill="none" stroke="#000000" stroke-dasharray="5,2" d="M563.0465,-529.3478C603.1308,-551.988 661.4017,-584.9002 701.0104,-607.2718"/>
<polygon fill="#000000" stroke="#000000" points="709.9092,-612.298 698.989,-611.2982 705.5557,-609.839 701.2021,-607.38 701.2021,-607.38 701.2021,-607.38 705.5557,-609.839 703.4152,-603.4618 709.9092,-612.298 709.9092,-612.298"/>
</g>
<!-- Team&#45;&gt;Player -->
<g id="edge5" class="edge">
<title>Team&#45;&gt;Player</title>
<path fill="none" stroke="#000000" stroke-dasharray="5,2" d="M469.7884,-523.0206C427.0482,-539.9334 364.7704,-564.5774 320.6846,-582.0226"/>
<polygon fill="#000000" stroke="#000000" points="311.2889,-585.7406 318.9316,-577.8767 315.9381,-583.9008 320.5874,-582.061 320.5874,-582.061 320.5874,-582.061 315.9381,-583.9008 322.2432,-586.2453 311.2889,-585.7406 311.2889,-585.7406"/>
</g>
<!-- Overtime&#45;&gt;Winner -->
<g id="edge8" class="edge">
<title>Overtime&#45;&gt;Winner</title>
<path fill="none" stroke="#000000" stroke-dasharray="5,2" d="M674.1585,-115.8371C719.8285,-158.7723 787.079,-221.9956 834.2301,-266.3233"/>
<polygon fill="#000000" stroke="#000000" points="841.6186,-273.2693 831.2505,-269.6984 837.9757,-269.8445 834.3328,-266.4197 834.3328,-266.4197 834.3328,-266.4197 837.9757,-269.8445 837.4151,-263.1411 841.6186,-273.2693 841.6186,-273.2693"/>
</g>
<!-- Overtime&#45;&gt;Period -->
<g id="edge7" class="edge">
<title>Overtime&#45;&gt;Period</title>
<path fill="none" stroke="#000000" stroke-dasharray="5,2" d="M690.2735,-87.5828C777.9428,-112.6707 930.8708,-156.4333 1013.5324,-180.0882"/>
<polygon fill="#000000" stroke="#000000" points="1023.2557,-182.8706 1012.4035,-184.4457 1018.4486,-181.495 1013.6416,-180.1193 1013.6416,-180.1193 1013.6416,-180.1193 1018.4486,-181.495 1014.8797,-175.793 1023.2557,-182.8706 1023.2557,-182.8706"/>
</g>
<!-- Shootout&#45;&gt;Winner -->
<g id="edge9" class="edge">
<title>Shootout&#45;&gt;Winner</title>
<path fill="none" stroke="#000000" stroke-dasharray="5,2" d="M868.8618,-104.4228C872.638,-143.6644 877.927,-198.6259 882.1968,-242.9962"/>
<polygon fill="#000000" stroke="#000000" points="883.1749,-253.1597 877.7376,-243.6368 882.6959,-248.1827 882.2169,-243.2057 882.2169,-243.2057 882.2169,-243.2057 882.6959,-248.1827 886.6962,-242.7746 883.1749,-253.1597 883.1749,-253.1597"/>
</g>
</g>
</svg>
