<?xml version="1.0" encoding="UTF-8" standalone="no"?>
<?xml-stylesheet href="../static/svg.css" type="text/css"?>
<!DOCTYPE svg PUBLIC "-//W3C//DTD SVG 1.1//EN"
 "http://www.w3.org/Graphics/SVG/1.1/DTD/svg11.dtd">
<!-- Generated by graphviz version 2.40.1 (20161225.0304)
 -->
<!-- Title: term Pages: 1 -->
<svg width="364pt" height="251pt"
 viewBox="0.00 0.00 364.50 250.76" xmlns="http://www.w3.org/2000/svg" xmlns:xlink="http://www.w3.org/1999/xlink">
<g id="graph0" class="graph" transform="scale(1 1) rotate(0) translate(4 246.7595)">
<title>term</title>
<!-- Shootout -->
<g id="node1" class="node root has&#45;pronunciation">
<title>Shootout</title>
<g id="a_node1"><a xlink:href="javascript:history.back()" xlink:title="Буллиты" target="_top">
<ellipse fill="none" stroke="#c0c0c0" stroke-width=".2" cx="50.9117" cy="-189.4817" rx="50.8235" ry="50.8235"/>
<text text-anchor="middle" x="50.9117" y="-202.9817" font-family="Times,serif" font-size="15.00" fill="#000000">Shootout</text>
<text text-anchor="middle" x="50.9117" y="-185.9817" font-family="Times,serif" font-size="15.00" fill="#000000">Буллиты</text>
<text text-anchor="middle" x="50.9117" y="-168.9817" font-family="Times,serif" font-size="15.00" fill="#000000">ˈШутaут</text>
</a>
</g>
</g>
<!-- Winner -->
<g id="node3" class="node has&#45;pronunciation">
<title>Winner</title>
<g id="a_node3"><a xlink:href="../winner.html" xlink:title="Победитель" target="_top">
<ellipse fill="none" stroke="#c0c0c0" stroke-width=".2" cx="179.2577" cy="-65.0538" rx="65.1077" ry="65.1077"/>
<text text-anchor="middle" x="179.2577" y="-78.5538" font-family="Times,serif" font-size="15.00" fill="#000000">Winner</text>
<text text-anchor="middle" x="179.2577" y="-61.5538" font-family="Times,serif" font-size="15.00" fill="#000000">Победитель</text>
<text text-anchor="middle" x="179.2577" y="-44.5538" font-family="Times,serif" font-size="15.00" fill="#000000">ˈУинэр</text>
</a>
</g>
</g>
<!-- Shootout&#45;&gt;Winner -->
<g id="edge3" class="edge">
<title>Shootout&#45;&gt;Winner</title>
<path fill="none" stroke="#000000" stroke-dasharray="5,2" d="M87.6905,-153.8256C99.3317,-142.5398 112.4536,-129.8185 125.0503,-117.6064"/>
<polygon fill="#000000" stroke="#000000" points="132.3913,-110.4895 128.3437,-120.6811 128.8013,-113.9699 125.2114,-117.4502 125.2114,-117.4502 125.2114,-117.4502 128.8013,-113.9699 122.0791,-114.2193 132.3913,-110.4895 132.3913,-110.4895"/>
</g>
<!-- Game -->
<g id="node2" class="node has&#45;pronunciation">
<title>Game</title>
<g id="a_node2"><a xlink:href="../game.html" xlink:title="Игра" target="_top">
<ellipse fill="none" stroke="#c0c0c0" stroke-width=".2" cx="304.1739" cy="-190.4335" rx="52.1524" ry="52.1524"/>
<text text-anchor="middle" x="304.1739" y="-207.4335" font-family="Times,serif" font-size="20.00" fill="#000000">Game</text>
<text text-anchor="middle" x="304.1739" y="-185.4335" font-family="Times,serif" font-size="20.00" fill="#000000">Игра</text>
<text text-anchor="middle" x="304.1739" y="-163.4335" font-family="Times,serif" font-size="20.00" fill="#000000">Гейм</text>
</a>
</g>
</g>
<!-- Game&#45;&gt;Shootout -->
<g id="edge2" class="edge">
<title>Game&#45;&gt;Shootout</title>
<path fill="none" stroke="#000000" stroke-dasharray="5,2" d="M251.6978,-190.2363C211.1411,-190.0839 154.9154,-189.8726 112.2762,-189.7123"/>
<polygon fill="#000000" stroke="#000000" points="102.0226,-189.6738 112.0395,-185.2115 107.0225,-189.6926 112.0225,-189.7115 112.0225,-189.7115 112.0225,-189.7115 107.0225,-189.6926 112.0056,-194.2114 102.0226,-189.6738 102.0226,-189.6738"/>
</g>
<!-- Winner&#45;&gt;Game -->
<g id="edge1" class="edge">
<title>Winner&#45;&gt;Game</title>
<path fill="none" stroke="#000000" stroke-dasharray="5,2" d="M225.417,-111.3844C236.7053,-122.7146 248.7574,-134.8113 259.9526,-146.0481"/>
<polygon fill="#000000" stroke="#000000" points="267.169,-153.2913 256.9232,-149.3832 263.64,-149.7492 260.111,-146.2071 260.111,-146.2071 260.111,-146.2071 263.64,-149.7492 263.2989,-143.031 267.169,-153.2913 267.169,-153.2913"/>
</g>
</g>
</svg>
