<?xml version="1.0" encoding="UTF-8" standalone="no"?>
<?xml-stylesheet href="../static/svg.css" type="text/css"?>
<!DOCTYPE svg PUBLIC "-//W3C//DTD SVG 1.1//EN"
 "http://www.w3.org/Graphics/SVG/1.1/DTD/svg11.dtd">
<!-- Generated by graphviz version 2.40.1 (20161225.0304)
 -->
<!-- Title: term Pages: 1 -->
<svg width="722pt" height="451pt"
 viewBox="0.00 0.00 722.31 451.14" xmlns="http://www.w3.org/2000/svg" xmlns:xlink="http://www.w3.org/1999/xlink">
<g id="graph0" class="graph" transform="scale(1 1) rotate(0) translate(4 447.1381)">
<title>term</title>
<!-- Puck -->
<g id="node1" class="node root has&#45;pronunciation">
<title>Puck</title>
<g id="a_node1"><a xlink:href="javascript:history.back()" xlink:title="Шайба" target="_top">
<ellipse fill="none" stroke="#c0c0c0" stroke-width=".2" cx="454.3443" cy="-212.703" rx="65.1077" ry="65.1077"/>
<text text-anchor="middle" x="454.3443" y="-234.703" font-family="Times,serif" font-size="25.00" fill="#000000">Puck</text>
<text text-anchor="middle" x="454.3443" y="-206.703" font-family="Times,serif" font-size="25.00" fill="#000000">Шайба</text>
<text text-anchor="middle" x="454.3443" y="-178.703" font-family="Times,serif" font-size="25.00" fill="#000000">Пак</text>
</a>
</g>
</g>
<!-- Ice -->
<g id="node5" class="node has&#45;pronunciation">
<title>Ice</title>
<g id="a_node5"><a xlink:href="../ice.html" xlink:title="Лёд" target="_top">
<ellipse fill="none" stroke="#c0c0c0" stroke-width=".2" cx="672.5919" cy="-41.7193" rx="41.9398" ry="41.9398"/>
<text text-anchor="middle" x="672.5919" y="-55.2193" font-family="Times,serif" font-size="15.00" fill="#000000">Ice</text>
<text text-anchor="middle" x="672.5919" y="-38.2193" font-family="Times,serif" font-size="15.00" fill="#000000">Лёд</text>
<text text-anchor="middle" x="672.5919" y="-21.2193" font-family="Times,serif" font-size="15.00" fill="#000000">Айс</text>
</a>
</g>
</g>
<!-- Puck&#45;&gt;Ice -->
<g id="edge8" class="edge">
<title>Puck&#45;&gt;Ice</title>
<path fill="none" stroke="#000000" stroke-dasharray="5,2" d="M505.7895,-172.3987C544.0571,-142.4185 595.6047,-102.034 631.2199,-74.1317"/>
<polygon fill="#000000" stroke="#000000" points="639.4633,-67.6735 634.3666,-77.383 635.5273,-70.7571 631.5914,-73.8407 631.5914,-73.8407 631.5914,-73.8407 635.5273,-70.7571 628.8162,-70.2983 639.4633,-67.6735 639.4633,-67.6735"/>
</g>
<!-- Goal net -->
<g id="node6" class="node has&#45;pronunciation">
<title>Goal net</title>
<g id="a_node6"><a xlink:href="../goal-net.html" xlink:title="Ворота" target="_top">
<ellipse fill="none" stroke="#c0c0c0" stroke-width=".2" cx="77.7817" cy="-300.521" rx="77.5641" ry="77.5641"/>
<text text-anchor="middle" x="77.7817" y="-322.521" font-family="Times,serif" font-size="25.00" fill="#000000">Goal net</text>
<text text-anchor="middle" x="77.7817" y="-294.521" font-family="Times,serif" font-size="25.00" fill="#000000">Ворота</text>
<text text-anchor="middle" x="77.7817" y="-266.521" font-family="Times,serif" font-size="25.00" fill="#000000">Гoул нет</text>
</a>
</g>
</g>
<!-- Puck&#45;&gt;Goal net -->
<g id="edge9" class="edge">
<title>Puck&#45;&gt;Goal net</title>
<path fill="none" stroke="#000000" stroke-dasharray="5,2" d="M390.8914,-227.5008C328.5603,-242.037 233.0096,-264.3204 163.8548,-280.4479"/>
<polygon fill="#000000" stroke="#000000" points="153.8502,-282.7811 162.5668,-276.1275 158.7196,-281.6455 163.5889,-280.5099 163.5889,-280.5099 163.5889,-280.5099 158.7196,-281.6455 164.611,-284.8923 153.8502,-282.7811 153.8502,-282.7811"/>
</g>
<!-- Stick -->
<g id="node2" class="node has&#45;pronunciation">
<title>Stick</title>
<g id="a_node2"><a xlink:href="../stick.html" xlink:title="Клюшка" target="_top">
<ellipse fill="none" stroke="#c0c0c0" stroke-width=".2" cx="655.5642" cy="-394.3477" rx="48.5816" ry="48.5816"/>
<text text-anchor="middle" x="655.5642" y="-407.8477" font-family="Times,serif" font-size="15.00" fill="#000000">Stick</text>
<text text-anchor="middle" x="655.5642" y="-390.8477" font-family="Times,serif" font-size="15.00" fill="#000000">Клюшка</text>
<text text-anchor="middle" x="655.5642" y="-373.8477" font-family="Times,serif" font-size="15.00" fill="#000000">Стик</text>
</a>
</g>
</g>
<!-- Stick&#45;&gt;Puck -->
<g id="edge5" class="edge">
<title>Stick&#45;&gt;Puck</title>
<path fill="none" stroke="#000000" stroke-dasharray="5,2" d="M619.1248,-361.4532C588.801,-334.0794 545.1294,-294.6562 510.3631,-263.2722"/>
<polygon fill="#000000" stroke="#000000" points="502.6374,-256.298 513.0757,-259.6585 506.3489,-259.6485 510.0604,-262.9989 510.0604,-262.9989 510.0604,-262.9989 506.3489,-259.6485 507.045,-266.3392 502.6374,-256.298 502.6374,-256.298"/>
</g>
<!-- Goal -->
<g id="node3" class="node has&#45;pronunciation">
<title>Goal</title>
<g id="a_node3"><a xlink:href="../goal.html" xlink:title="Гол" target="_top">
<ellipse fill="none" stroke="#c0c0c0" stroke-width=".2" cx="162.6357" cy="-149.6854" rx="65.1077" ry="65.1077"/>
<text text-anchor="middle" x="162.6357" y="-171.6854" font-family="Times,serif" font-size="25.00" fill="#000000">Goal</text>
<text text-anchor="middle" x="162.6357" y="-143.6854" font-family="Times,serif" font-size="25.00" fill="#000000">Гол</text>
<text text-anchor="middle" x="162.6357" y="-115.6854" font-family="Times,serif" font-size="25.00" fill="#000000">Гoул</text>
</a>
</g>
</g>
<!-- Goal&#45;&gt;Puck -->
<g id="edge6" class="edge">
<title>Goal&#45;&gt;Puck</title>
<path fill="none" stroke="#000000" stroke-dasharray="5,2" d="M226.2919,-163.437C271.7576,-173.2589 333.0451,-186.4988 380.6356,-196.7797"/>
<polygon fill="#000000" stroke="#000000" points="390.5723,-198.9264 379.8475,-201.2132 385.6851,-197.8705 380.7978,-196.8147 380.7978,-196.8147 380.7978,-196.8147 385.6851,-197.8705 381.748,-192.4162 390.5723,-198.9264 390.5723,-198.9264"/>
</g>
<!-- Goal&#45;&gt;Goal net -->
<g id="edge1" class="edge">
<title>Goal&#45;&gt;Goal net</title>
<path fill="none" stroke="#000000" stroke-dasharray="5,2" d="M130.556,-206.7099C127.4453,-212.2395 124.2556,-217.9095 121.0594,-223.591"/>
<polygon fill="#000000" stroke="#000000" points="116.042,-232.51 117.023,-221.588 118.4935,-228.1522 120.945,-223.7944 120.945,-223.7944 120.945,-223.7944 118.4935,-228.1522 124.867,-226.0008 116.042,-232.51 116.042,-232.51"/>
</g>
<!-- Hockey -->
<g id="node4" class="node has&#45;pronunciation">
<title>Hockey</title>
<g id="a_node4"><a xlink:href="../hockey.html" xlink:title="Хоккей" target="_top">
<ellipse fill="none" stroke="#c0c0c0" stroke-width=".2" cx="328.5126" cy="-369.9359" rx="45.011" ry="45.011"/>
<text text-anchor="middle" x="328.5126" y="-383.4359" font-family="Times,serif" font-size="15.00" fill="#000000">Hockey</text>
<text text-anchor="middle" x="328.5126" y="-366.4359" font-family="Times,serif" font-size="15.00" fill="#000000">Хоккей</text>
<text text-anchor="middle" x="328.5126" y="-349.4359" font-family="Times,serif" font-size="15.00" fill="#000000">ˈХаки</text>
</a>
</g>
</g>
<!-- Hockey&#45;&gt;Puck -->
<g id="edge7" class="edge">
<title>Hockey&#45;&gt;Puck</title>
<path fill="none" stroke="#000000" stroke-dasharray="5,2" d="M357.0658,-334.2573C371.854,-315.7787 390.296,-292.7345 407.1345,-271.694"/>
<polygon fill="#000000" stroke="#000000" points="413.4985,-263.7418 410.7636,-274.3612 410.3743,-267.6456 407.2501,-271.5494 407.2501,-271.5494 407.2501,-271.5494 410.3743,-267.6456 403.7367,-268.7377 413.4985,-263.7418 413.4985,-263.7418"/>
</g>
<!-- Hockey&#45;&gt;Stick -->
<g id="edge2" class="edge">
<title>Hockey&#45;&gt;Stick</title>
<path fill="none" stroke="#000000" stroke-dasharray="5,2" d="M373.6444,-373.3047C431.6583,-377.6349 532.5219,-385.1636 596.5636,-389.9438"/>
<polygon fill="#000000" stroke="#000000" points="606.9031,-390.7155 596.5958,-394.4586 601.917,-390.3433 596.9308,-389.9711 596.9308,-389.9711 596.9308,-389.9711 601.917,-390.3433 597.2658,-385.4836 606.9031,-390.7155 606.9031,-390.7155"/>
</g>
<!-- Hockey&#45;&gt;Goal -->
<g id="edge4" class="edge">
<title>Hockey&#45;&gt;Goal</title>
<path fill="none" stroke="#000000" stroke-dasharray="5,2" d="M301.1214,-333.566C275.8644,-300.0299 237.8879,-249.605 208.0881,-210.037"/>
<polygon fill="#000000" stroke="#000000" points="201.8608,-201.7684 211.4714,-207.0492 204.8688,-205.7624 207.8768,-209.7564 207.8768,-209.7564 207.8768,-209.7564 204.8688,-205.7624 204.2822,-212.4636 201.8608,-201.7684 201.8608,-201.7684"/>
</g>
<!-- Hockey&#45;&gt;Goal net -->
<g id="edge3" class="edge">
<title>Hockey&#45;&gt;Goal net</title>
<path fill="none" stroke="#000000" stroke-dasharray="5,2" d="M284.8386,-357.8448C251.1967,-348.531 203.6533,-335.3686 162.6073,-324.005"/>
<polygon fill="#000000" stroke="#000000" points="152.8713,-321.3096 163.7094,-319.6409 157.69,-322.6437 162.5087,-323.9778 162.5087,-323.9778 162.5087,-323.9778 157.69,-322.6437 161.308,-328.3146 152.8713,-321.3096 152.8713,-321.3096"/>
</g>
</g>
</svg>
