<?xml version="1.0" encoding="UTF-8" standalone="no"?>
<?xml-stylesheet href="../static/svg.css" type="text/css"?>
<!DOCTYPE svg PUBLIC "-//W3C//DTD SVG 1.1//EN"
 "http://www.w3.org/Graphics/SVG/1.1/DTD/svg11.dtd">
<!-- Generated by graphviz version 2.40.1 (20161225.0304)
 -->
<!-- Title: term Pages: 1 -->
<svg width="413pt" height="282pt"
 viewBox="0.00 0.00 412.57 281.87" xmlns="http://www.w3.org/2000/svg" xmlns:xlink="http://www.w3.org/1999/xlink">
<g id="graph0" class="graph" transform="scale(1 1) rotate(0) translate(4 277.8721)">
<title>term</title>
<!-- Backhand shot -->
<g id="node1" class="node root has&#45;pronunciation">
<title>Backhand shot</title>
<g id="a_node1"><a xlink:href="javascript:history.back()" xlink:title="С неудобной" target="_top">
<ellipse fill="none" stroke="#c0c0c0" stroke-width=".2" cx="76.3675" cy="-197.5046" rx="76.2353" ry="76.2353"/>
<text text-anchor="middle" x="76.3675" y="-211.0046" font-family="Times,serif" font-size="15.00" fill="#000000">Backhand shot</text>
<text text-anchor="middle" x="76.3675" y="-194.0046" font-family="Times,serif" font-size="15.00" fill="#000000">С неудобной</text>
<text text-anchor="middle" x="76.3675" y="-177.0046" font-family="Times,serif" font-size="15.00" fill="#000000">ˈБэкˌхэнд шат</text>
</a>
</g>
</g>
<!-- Wrist shot -->
<g id="node3" class="node has&#45;pronunciation">
<title>Wrist shot</title>
<g id="a_node3"><a xlink:href="../wrist-shot.html" xlink:title="Кистевой" target="_top">
<ellipse fill="none" stroke="#c0c0c0" stroke-width=".2" cx="208.6479" cy="-56.5685" rx="56.6372" ry="56.6372"/>
<text text-anchor="middle" x="208.6479" y="-70.0685" font-family="Times,serif" font-size="15.00" fill="#000000">Wrist shot</text>
<text text-anchor="middle" x="208.6479" y="-53.0685" font-family="Times,serif" font-size="15.00" fill="#000000">Кистевой</text>
<text text-anchor="middle" x="208.6479" y="-36.0685" font-family="Times,serif" font-size="15.00" fill="#000000">Рист шат</text>
</a>
</g>
</g>
<!-- Backhand shot&#45;&gt;Wrist shot -->
<g id="edge3" class="edge">
<title>Backhand shot&#45;&gt;Wrist shot</title>
<path fill="none" stroke="#000000" stroke-dasharray="5,2" d="M128.6482,-141.8029C139.9038,-129.8109 151.72,-117.2215 162.7126,-105.5097"/>
<polygon fill="#000000" stroke="#000000" points="169.8031,-97.9551 166.2406,-108.3262 166.3813,-101.6009 162.9595,-105.2466 162.9595,-105.2466 162.9595,-105.2466 166.3813,-101.6009 159.6783,-102.167 169.8031,-97.9551 169.8031,-97.9551"/>
</g>
<!-- Shot -->
<g id="node2" class="node has&#45;pronunciation">
<title>Shot</title>
<g id="a_node2"><a xlink:href="../shot.html" xlink:title="Бросок" target="_top">
<ellipse fill="none" stroke="#c0c0c0" stroke-width=".2" cx="337.3934" cy="-198.5828" rx="67.3507" ry="67.3507"/>
<text text-anchor="middle" x="337.3934" y="-220.5828" font-family="Times,serif" font-size="25.00" fill="#000000">Shot</text>
<text text-anchor="middle" x="337.3934" y="-192.5828" font-family="Times,serif" font-size="25.00" fill="#000000">Бросок</text>
<text text-anchor="middle" x="337.3934" y="-164.5828" font-family="Times,serif" font-size="25.00" fill="#000000">Шат</text>
</a>
</g>
</g>
<!-- Shot&#45;&gt;Backhand shot -->
<g id="edge2" class="edge">
<title>Shot&#45;&gt;Backhand shot</title>
<path fill="none" stroke="#000000" stroke-dasharray="5,2" d="M270.1727,-198.3051C237.5891,-198.1705 198.061,-198.0073 163.2233,-197.8634"/>
<polygon fill="#000000" stroke="#000000" points="153.0549,-197.8214 163.0734,-193.3628 158.0548,-197.8421 163.0548,-197.8628 163.0548,-197.8628 163.0548,-197.8628 158.0548,-197.8421 163.0361,-202.3627 153.0549,-197.8214 153.0549,-197.8214"/>
</g>
<!-- Shot&#45;&gt;Wrist shot -->
<g id="edge1" class="edge">
<title>Shot&#45;&gt;Wrist shot</title>
<path fill="none" stroke="#000000" stroke-dasharray="5,2" d="M292.0025,-148.5139C279.5414,-134.7685 266.0381,-119.8735 253.6017,-106.1554"/>
<polygon fill="#000000" stroke="#000000" points="246.8157,-98.67 256.8662,-103.0563 250.174,-102.3744 253.5323,-106.0787 253.5323,-106.0787 253.5323,-106.0787 250.174,-102.3744 250.1983,-109.1012 246.8157,-98.67 246.8157,-98.67"/>
</g>
</g>
</svg>
