<?xml version="1.0" encoding="UTF-8" standalone="no"?>
<?xml-stylesheet href="../static/svg.css" type="text/css"?>
<!DOCTYPE svg PUBLIC "-//W3C//DTD SVG 1.1//EN"
 "http://www.w3.org/Graphics/SVG/1.1/DTD/svg11.dtd">
<!-- Generated by graphviz version 2.40.1 (20161225.0304)
 -->
<!-- Title: term Pages: 1 -->
<svg width="431pt" height="285pt"
 viewBox="0.00 0.00 430.75 285.17" xmlns="http://www.w3.org/2000/svg" xmlns:xlink="http://www.w3.org/1999/xlink">
<g id="graph0" class="graph" transform="scale(1 1) rotate(0) translate(4 281.1651)">
<title>term</title>
<!-- Sport -->
<g id="node1" class="node root ">
<title>Sport</title>
<g id="a_node1"><a xlink:href="javascript:history.back()" xlink:title="Спорт" target="_top">
<ellipse fill="none" stroke="#c0c0c0" stroke-width=".2" cx="39.598" cy="-125.5605" rx="39.6962" ry="39.6962"/>
<text text-anchor="middle" x="39.598" y="-130.5605" font-family="Times,serif" font-size="15.00" fill="#000000">Sport</text>
<text text-anchor="middle" x="39.598" y="-113.5605" font-family="Times,serif" font-size="15.00" fill="#000000">Спорт</text>
</a>
</g>
</g>
<!-- Team -->
<g id="node2" class="node has&#45;pronunciation">
<title>Team</title>
<g id="a_node2"><a xlink:href="../team.html" xlink:title="Команда" target="_top">
<ellipse fill="none" stroke="#c0c0c0" stroke-width=".2" cx="371.1345" cy="-152.9569" rx="51.7379" ry="51.7379"/>
<text text-anchor="middle" x="371.1345" y="-166.4569" font-family="Times,serif" font-size="15.00" fill="#000000">Team</text>
<text text-anchor="middle" x="371.1345" y="-149.4569" font-family="Times,serif" font-size="15.00" fill="#000000">Команда</text>
<text text-anchor="middle" x="371.1345" y="-132.4569" font-family="Times,serif" font-size="15.00" fill="#000000">Тим</text>
</a>
</g>
</g>
<!-- Team&#45;&gt;Sport -->
<g id="edge4" class="edge">
<title>Team&#45;&gt;Sport</title>
<path fill="none" stroke="#000000" stroke-dasharray="5,2" d="M319.3319,-148.6762C256.4939,-143.4836 151.3092,-134.7917 89.3907,-129.6751"/>
<polygon fill="#000000" stroke="#000000" points="79.0955,-128.8243 89.4321,-125.1632 84.0785,-129.2361 89.0615,-129.6479 89.0615,-129.6479 89.0615,-129.6479 84.0785,-129.2361 88.6909,-134.1327 79.0955,-128.8243 79.0955,-128.8243"/>
</g>
<!-- Player -->
<g id="node3" class="node has&#45;pronunciation">
<title>Player</title>
<g id="a_node3"><a xlink:href="../player.html" xlink:title="Игрок" target="_top">
<ellipse fill="none" stroke="#c0c0c0" stroke-width=".2" cx="229.761" cy="-46.669" rx="46.8387" ry="46.8387"/>
<text text-anchor="middle" x="229.761" y="-60.169" font-family="Times,serif" font-size="15.00" fill="#000000">Player</text>
<text text-anchor="middle" x="229.761" y="-43.169" font-family="Times,serif" font-size="15.00" fill="#000000">Игрок</text>
<text text-anchor="middle" x="229.761" y="-26.169" font-family="Times,serif" font-size="15.00" fill="#000000">&#39;Плейэр</text>
</a>
</g>
</g>
<!-- Team&#45;&gt;Player -->
<g id="edge1" class="edge">
<title>Team&#45;&gt;Player</title>
<path fill="none" stroke="#000000" stroke-dasharray="5,2" d="M329.8634,-121.9283C312.9138,-109.1852 293.2178,-94.3774 275.8031,-81.2846"/>
<polygon fill="#000000" stroke="#000000" points="267.4593,-75.0115 278.1566,-77.424 271.4558,-78.0162 275.4523,-81.0209 275.4523,-81.0209 275.4523,-81.0209 271.4558,-78.0162 272.7481,-84.6177 267.4593,-75.0115 267.4593,-75.0115"/>
</g>
<!-- Player&#45;&gt;Sport -->
<g id="edge5" class="edge">
<title>Player&#45;&gt;Sport</title>
<path fill="none" stroke="#000000" stroke-dasharray="5,2" d="M186.6101,-64.5707C156.5503,-77.0414 116.5014,-93.6562 85.7955,-106.3948"/>
<polygon fill="#000000" stroke="#000000" points="76.1789,-110.3844 83.6912,-102.3959 80.7972,-108.4684 85.4156,-106.5524 85.4156,-106.5524 85.4156,-106.5524 80.7972,-108.4684 87.14,-110.7089 76.1789,-110.3844 76.1789,-110.3844"/>
</g>
<!-- Hockey -->
<g id="node4" class="node has&#45;pronunciation">
<title>Hockey</title>
<g id="a_node4"><a xlink:href="../hockey.html" xlink:title="Хоккей" target="_top">
<ellipse fill="none" stroke="#c0c0c0" stroke-width=".2" cx="180.6251" cy="-231.9103" rx="45.011" ry="45.011"/>
<text text-anchor="middle" x="180.6251" y="-245.4103" font-family="Times,serif" font-size="15.00" fill="#000000">Hockey</text>
<text text-anchor="middle" x="180.6251" y="-228.4103" font-family="Times,serif" font-size="15.00" fill="#000000">Хоккей</text>
<text text-anchor="middle" x="180.6251" y="-211.4103" font-family="Times,serif" font-size="15.00" fill="#000000">ˈХаки</text>
</a>
</g>
</g>
<!-- Hockey&#45;&gt;Sport -->
<g id="edge6" class="edge">
<title>Hockey&#45;&gt;Sport</title>
<path fill="none" stroke="#000000" stroke-dasharray="5,2" d="M144.3071,-204.5226C124.5098,-189.5933 99.9676,-171.0857 79.6204,-155.7417"/>
<polygon fill="#000000" stroke="#000000" points="71.4726,-149.5974 82.1663,-152.0255 75.4647,-152.6079 79.4568,-155.6184 79.4568,-155.6184 79.4568,-155.6184 75.4647,-152.6079 76.7474,-159.2113 71.4726,-149.5974 71.4726,-149.5974"/>
</g>
<!-- Hockey&#45;&gt;Team -->
<g id="edge2" class="edge">
<title>Hockey&#45;&gt;Team</title>
<path fill="none" stroke="#000000" stroke-dasharray="5,2" d="M222.4332,-214.5836C249.3161,-203.4425 284.5962,-188.8212 314.0452,-176.6166"/>
<polygon fill="#000000" stroke="#000000" points="323.3836,-172.7464 315.8684,-180.7322 318.7646,-174.6608 314.1455,-176.5751 314.1455,-176.5751 314.1455,-176.5751 318.7646,-174.6608 312.4226,-172.4179 323.3836,-172.7464 323.3836,-172.7464"/>
</g>
<!-- Hockey&#45;&gt;Player -->
<g id="edge3" class="edge">
<title>Hockey&#45;&gt;Player</title>
<path fill="none" stroke="#000000" stroke-dasharray="5,2" d="M192.2696,-188.0107C199.1192,-162.1879 207.8424,-129.3018 215.1505,-101.7501"/>
<polygon fill="#000000" stroke="#000000" points="217.7729,-91.8638 219.5586,-102.6833 216.4909,-96.6967 215.209,-101.5296 215.209,-101.5296 215.209,-101.5296 216.4909,-96.6967 210.8594,-100.3758 217.7729,-91.8638 217.7729,-91.8638"/>
</g>
</g>
</svg>
