<?xml version="1.0" encoding="UTF-8" standalone="no"?>
<?xml-stylesheet href="../static/svg.css" type="text/css"?>
<!DOCTYPE svg PUBLIC "-//W3C//DTD SVG 1.1//EN"
 "http://www.w3.org/Graphics/SVG/1.1/DTD/svg11.dtd">
<!-- Generated by graphviz version 2.40.1 (20161225.0304)
 -->
<!-- Title: term Pages: 1 -->
<svg width="454pt" height="364pt"
 viewBox="0.00 0.00 453.82 364.42" xmlns="http://www.w3.org/2000/svg" xmlns:xlink="http://www.w3.org/1999/xlink">
<g id="graph0" class="graph" transform="scale(1 1) rotate(0) translate(4 360.4203)">
<title>term</title>
<!-- Ice -->
<g id="node1" class="node root has&#45;pronunciation">
<title>Ice</title>
<g id="a_node1"><a xlink:href="javascript:history.back()" xlink:title="Лёд" target="_top">
<ellipse fill="none" stroke="#c0c0c0" stroke-width=".2" cx="179.2689" cy="-192.1497" rx="41.9398" ry="41.9398"/>
<text text-anchor="middle" x="179.2689" y="-205.6497" font-family="Times,serif" font-size="15.00" fill="#000000">Ice</text>
<text text-anchor="middle" x="179.2689" y="-188.6497" font-family="Times,serif" font-size="15.00" fill="#000000">Лёд</text>
<text text-anchor="middle" x="179.2689" y="-171.6497" font-family="Times,serif" font-size="15.00" fill="#000000">Айс</text>
</a>
</g>
</g>
<!-- Rink -->
<g id="node2" class="node has&#45;pronunciation">
<title>Rink</title>
<g id="a_node2"><a xlink:href="../rink.html" xlink:title="Площадка" target="_top">
<ellipse fill="none" stroke="#c0c0c0" stroke-width=".2" cx="388.5396" cy="-299.1446" rx="57.0522" ry="57.0522"/>
<text text-anchor="middle" x="388.5396" y="-312.6446" font-family="Times,serif" font-size="15.00" fill="#000000">Rink</text>
<text text-anchor="middle" x="388.5396" y="-295.6446" font-family="Times,serif" font-size="15.00" fill="#000000">Площадка</text>
<text text-anchor="middle" x="388.5396" y="-278.6446" font-family="Times,serif" font-size="15.00" fill="#000000">Ринк</text>
</a>
</g>
</g>
<!-- Rink&#45;&gt;Ice -->
<g id="edge1" class="edge">
<title>Rink&#45;&gt;Ice</title>
<path fill="none" stroke="#000000" stroke-dasharray="5,2" d="M337.3463,-272.9707C303.1691,-255.4968 258.5938,-232.7065 225.4933,-215.7831"/>
<polygon fill="#000000" stroke="#000000" points="216.4798,-211.1747 227.4321,-211.7203 220.9317,-213.4508 225.3836,-215.727 225.3836,-215.727 225.3836,-215.727 220.9317,-213.4508 223.335,-219.7337 216.4798,-211.1747 216.4798,-211.1747"/>
</g>
<!-- Puck -->
<g id="node3" class="node has&#45;pronunciation">
<title>Puck</title>
<g id="a_node3"><a xlink:href="../puck.html" xlink:title="Шайба" target="_top">
<ellipse fill="none" stroke="#c0c0c0" stroke-width=".2" cx="65.0538" cy="-65.0538" rx="65.1077" ry="65.1077"/>
<text text-anchor="middle" x="65.0538" y="-87.0538" font-family="Times,serif" font-size="25.00" fill="#000000">Puck</text>
<text text-anchor="middle" x="65.0538" y="-59.0538" font-family="Times,serif" font-size="25.00" fill="#000000">Шайба</text>
<text text-anchor="middle" x="65.0538" y="-31.0538" font-family="Times,serif" font-size="25.00" fill="#000000">Пак</text>
</a>
</g>
</g>
<!-- Puck&#45;&gt;Ice -->
<g id="edge2" class="edge">
<title>Puck&#45;&gt;Ice</title>
<path fill="none" stroke="#000000" stroke-dasharray="5,2" d="M108.5595,-113.4659C120.3581,-126.5951 132.9791,-140.6394 144.2448,-153.1756"/>
<polygon fill="#000000" stroke="#000000" points="151.0646,-160.7646 141.0334,-156.3345 147.7226,-157.0456 144.3805,-153.3266 144.3805,-153.3266 144.3805,-153.3266 147.7226,-157.0456 147.7276,-150.3188 151.0646,-160.7646 151.0646,-160.7646"/>
</g>
</g>
</svg>
