<?xml version="1.0" encoding="UTF-8" standalone="no"?>
<?xml-stylesheet href="../static/svg.css" type="text/css"?>
<!DOCTYPE svg PUBLIC "-//W3C//DTD SVG 1.1//EN"
 "http://www.w3.org/Graphics/SVG/1.1/DTD/svg11.dtd">
<!-- Generated by graphviz version 2.40.1 (20161225.0304)
 -->
<!-- Title: term Pages: 1 -->
<svg width="553pt" height="363pt"
 viewBox="0.00 0.00 553.16 362.56" xmlns="http://www.w3.org/2000/svg" xmlns:xlink="http://www.w3.org/1999/xlink">
<g id="graph0" class="graph" transform="scale(1 1) rotate(0) translate(4 358.5615)">
<title>term</title>
<!-- Stick -->
<g id="node1" class="node root has&#45;pronunciation">
<title>Stick</title>
<g id="a_node1"><a xlink:href="javascript:history.back()" xlink:title="Клюшка" target="_top">
<ellipse fill="none" stroke="#c0c0c0" stroke-width=".2" cx="48.7904" cy="-149.2784" rx="48.5816" ry="48.5816"/>
<text text-anchor="middle" x="48.7904" y="-162.7784" font-family="Times,serif" font-size="15.00" fill="#000000">Stick</text>
<text text-anchor="middle" x="48.7904" y="-145.7784" font-family="Times,serif" font-size="15.00" fill="#000000">Клюшка</text>
<text text-anchor="middle" x="48.7904" y="-128.7784" font-family="Times,serif" font-size="15.00" fill="#000000">Стик</text>
</a>
</g>
</g>
<!-- Puck -->
<g id="node4" class="node has&#45;pronunciation">
<title>Puck</title>
<g id="a_node4"><a xlink:href="../puck.html" xlink:title="Шайба" target="_top">
<ellipse fill="none" stroke="#c0c0c0" stroke-width=".2" cx="231.3582" cy="-289.5077" rx="65.1077" ry="65.1077"/>
<text text-anchor="middle" x="231.3582" y="-311.5077" font-family="Times,serif" font-size="25.00" fill="#000000">Puck</text>
<text text-anchor="middle" x="231.3582" y="-283.5077" font-family="Times,serif" font-size="25.00" fill="#000000">Шайба</text>
<text text-anchor="middle" x="231.3582" y="-255.5077" font-family="Times,serif" font-size="25.00" fill="#000000">Пак</text>
</a>
</g>
</g>
<!-- Stick&#45;&gt;Puck -->
<g id="edge6" class="edge">
<title>Stick&#45;&gt;Puck</title>
<path fill="none" stroke="#000000" stroke-dasharray="5,2" d="M87.5083,-179.0174C111.8964,-197.7498 143.8783,-222.3149 171.4917,-243.5246"/>
<polygon fill="#000000" stroke="#000000" points="179.5299,-249.6987 168.8581,-247.176 175.5646,-246.653 171.5993,-243.6072 171.5993,-243.6072 171.5993,-243.6072 175.5646,-246.653 174.3404,-240.0384 179.5299,-249.6987 179.5299,-249.6987"/>
</g>
<!-- Shot -->
<g id="node2" class="node has&#45;pronunciation">
<title>Shot</title>
<g id="a_node2"><a xlink:href="../shot.html" xlink:title="Бросок" target="_top">
<ellipse fill="none" stroke="#c0c0c0" stroke-width=".2" cx="477.9835" cy="-185.4024" rx="67.3507" ry="67.3507"/>
<text text-anchor="middle" x="477.9835" y="-207.4024" font-family="Times,serif" font-size="25.00" fill="#000000">Shot</text>
<text text-anchor="middle" x="477.9835" y="-179.4024" font-family="Times,serif" font-size="25.00" fill="#000000">Бросок</text>
<text text-anchor="middle" x="477.9835" y="-151.4024" font-family="Times,serif" font-size="25.00" fill="#000000">Шат</text>
</a>
</g>
</g>
<!-- Shot&#45;&gt;Stick -->
<g id="edge4" class="edge">
<title>Shot&#45;&gt;Stick</title>
<path fill="none" stroke="#000000" stroke-dasharray="5,2" d="M410.9221,-179.758C327.7766,-172.7599 187.3603,-160.9414 108.0177,-154.2634"/>
<polygon fill="#000000" stroke="#000000" points="97.7108,-153.3959 108.053,-149.7505 102.6931,-153.8153 107.6755,-154.2347 107.6755,-154.2347 107.6755,-154.2347 102.6931,-153.8153 107.2981,-158.7188 97.7108,-153.3959 97.7108,-153.3959"/>
</g>
<!-- Shot&#45;&gt;Puck -->
<g id="edge1" class="edge">
<title>Shot&#45;&gt;Puck</title>
<path fill="none" stroke="#000000" stroke-dasharray="5,2" d="M416.0679,-211.5382C381.0959,-226.3005 337.2785,-244.7967 301.0986,-260.0689"/>
<polygon fill="#000000" stroke="#000000" points="291.594,-264.081 299.0568,-256.0463 296.2004,-262.1365 300.8068,-260.192 300.8068,-260.192 300.8068,-260.192 296.2004,-262.1365 302.5569,-264.3378 291.594,-264.081 291.594,-264.081"/>
</g>
<!-- Hockey -->
<g id="node3" class="node has&#45;pronunciation">
<title>Hockey</title>
<g id="a_node3"><a xlink:href="../hockey.html" xlink:title="Хоккей" target="_top">
<ellipse fill="none" stroke="#c0c0c0" stroke-width=".2" cx="294.9674" cy="-45.2548" rx="45.011" ry="45.011"/>
<text text-anchor="middle" x="294.9674" y="-58.7548" font-family="Times,serif" font-size="15.00" fill="#000000">Hockey</text>
<text text-anchor="middle" x="294.9674" y="-41.7548" font-family="Times,serif" font-size="15.00" fill="#000000">Хоккей</text>
<text text-anchor="middle" x="294.9674" y="-24.7548" font-family="Times,serif" font-size="15.00" fill="#000000">ˈХаки</text>
</a>
</g>
</g>
<!-- Hockey&#45;&gt;Stick -->
<g id="edge5" class="edge">
<title>Hockey&#45;&gt;Stick</title>
<path fill="none" stroke="#000000" stroke-dasharray="5,2" d="M253.2068,-62.901C211.9686,-80.3265 148.6859,-107.0669 103.4617,-126.1767"/>
<polygon fill="#000000" stroke="#000000" points="94.0998,-130.1326 101.5597,-122.0951 98.7055,-128.1864 103.3112,-126.2402 103.3112,-126.2402 103.3112,-126.2402 98.7055,-128.1864 105.0628,-130.3853 94.0998,-130.1326 94.0998,-130.1326"/>
</g>
<!-- Hockey&#45;&gt;Shot -->
<g id="edge2" class="edge">
<title>Hockey&#45;&gt;Shot</title>
<path fill="none" stroke="#000000" stroke-dasharray="5,2" d="M331.1255,-72.9435C355.3977,-91.5304 387.9922,-116.4901 416.3076,-138.1731"/>
<polygon fill="#000000" stroke="#000000" points="424.5557,-144.4892 413.8802,-141.9821 420.5859,-141.4493 416.6162,-138.4093 416.6162,-138.4093 416.6162,-138.4093 420.5859,-141.4493 419.3521,-134.8365 424.5557,-144.4892 424.5557,-144.4892"/>
</g>
<!-- Hockey&#45;&gt;Puck -->
<g id="edge3" class="edge">
<title>Hockey&#45;&gt;Puck</title>
<path fill="none" stroke="#000000" stroke-dasharray="5,2" d="M283.5218,-89.2044C274.3162,-124.5532 261.1848,-174.9765 250.4004,-216.3875"/>
<polygon fill="#000000" stroke="#000000" points="247.8551,-226.1609 246.0206,-215.3496 249.1153,-221.3223 250.3754,-216.4837 250.3754,-216.4837 250.3754,-216.4837 249.1153,-221.3223 254.7301,-217.6178 247.8551,-226.1609 247.8551,-226.1609"/>
</g>
</g>
</svg>
