<?xml version="1.0" encoding="UTF-8" standalone="no"?>
<?xml-stylesheet href="../static/svg.css" type="text/css"?>
<!DOCTYPE svg PUBLIC "-//W3C//DTD SVG 1.1//EN"
 "http://www.w3.org/Graphics/SVG/1.1/DTD/svg11.dtd">
<!-- Generated by graphviz version 2.40.1 (20161225.0304)
 -->
<!-- Title: term Pages: 1 -->
<svg width="509pt" height="816pt"
 viewBox="0.00 0.00 509.16 816.49" xmlns="http://www.w3.org/2000/svg" xmlns:xlink="http://www.w3.org/1999/xlink">
<g id="graph0" class="graph" transform="scale(1 1) rotate(0) translate(4 812.4852)">
<title>term</title>
<!-- Player -->
<g id="node1" class="node root has&#45;pronunciation">
<title>Player</title>
<g id="a_node1"><a xlink:href="javascript:history.back()" xlink:title="Игрок" target="_top">
<ellipse fill="none" stroke="#c0c0c0" stroke-width=".2" cx="217.896" cy="-462.1527" rx="46.8387" ry="46.8387"/>
<text text-anchor="middle" x="217.896" y="-475.6527" font-family="Times,serif" font-size="15.00" fill="#000000">Player</text>
<text text-anchor="middle" x="217.896" y="-458.6527" font-family="Times,serif" font-size="15.00" fill="#000000">Игрок</text>
<text text-anchor="middle" x="217.896" y="-441.6527" font-family="Times,serif" font-size="15.00" fill="#000000">&#39;Плейэр</text>
</a>
</g>
</g>
<!-- Goal -->
<g id="node6" class="node has&#45;pronunciation">
<title>Goal</title>
<g id="a_node6"><a xlink:href="../goal.html" xlink:title="Гол" target="_top">
<ellipse fill="none" stroke="#c0c0c0" stroke-width=".2" cx="277.3047" cy="-743.4314" rx="65.1077" ry="65.1077"/>
<text text-anchor="middle" x="277.3047" y="-765.4314" font-family="Times,serif" font-size="25.00" fill="#000000">Goal</text>
<text text-anchor="middle" x="277.3047" y="-737.4314" font-family="Times,serif" font-size="25.00" fill="#000000">Гол</text>
<text text-anchor="middle" x="277.3047" y="-709.4314" font-family="Times,serif" font-size="25.00" fill="#000000">Гoул</text>
</a>
</g>
</g>
<!-- Player&#45;&gt;Goal -->
<g id="edge14" class="edge">
<title>Player&#45;&gt;Goal</title>
<path fill="none" stroke="#000000" stroke-dasharray="5,2" d="M227.5732,-507.971C236.8205,-551.7535 250.9148,-618.4849 261.7407,-669.7415"/>
<polygon fill="#000000" stroke="#000000" points="263.8599,-679.7751 257.3904,-670.9209 262.8266,-674.883 261.7933,-669.991 261.7933,-669.991 261.7933,-669.991 262.8266,-674.883 266.1962,-669.061 263.8599,-679.7751 263.8599,-679.7751"/>
</g>
<!-- Sport -->
<g id="node7" class="node">
<title>Sport</title>
<g id="a_node7"><a xlink:href="../sport.html" xlink:title="Спорт" target="_top">
<ellipse fill="none" stroke="#c0c0c0" stroke-width=".2" cx="39.598" cy="-343.3805" rx="39.6962" ry="39.6962"/>
<text text-anchor="middle" x="39.598" y="-348.3805" font-family="Times,serif" font-size="15.00" fill="#000000">Sport</text>
<text text-anchor="middle" x="39.598" y="-331.3805" font-family="Times,serif" font-size="15.00" fill="#000000">Спорт</text>
</a>
</g>
</g>
<!-- Player&#45;&gt;Sport -->
<g id="edge15" class="edge">
<title>Player&#45;&gt;Sport</title>
<path fill="none" stroke="#000000" stroke-dasharray="5,2" d="M178.7677,-436.0876C149.8448,-416.8208 110.5361,-390.6355 81.0715,-371.0078"/>
<polygon fill="#000000" stroke="#000000" points="72.6531,-365.4 83.4705,-367.1989 76.8144,-368.172 80.9756,-370.944 80.9756,-370.944 80.9756,-370.944 76.8144,-368.172 78.4808,-374.6892 72.6531,-365.4 72.6531,-365.4"/>
</g>
<!-- Shot -->
<g id="node8" class="node has&#45;pronunciation">
<title>Shot</title>
<g id="a_node8"><a xlink:href="../shot.html" xlink:title="Бросок" target="_top">
<ellipse fill="none" stroke="#c0c0c0" stroke-width=".2" cx="433.9874" cy="-599.2893" rx="67.3507" ry="67.3507"/>
<text text-anchor="middle" x="433.9874" y="-621.2893" font-family="Times,serif" font-size="25.00" fill="#000000">Shot</text>
<text text-anchor="middle" x="433.9874" y="-593.2893" font-family="Times,serif" font-size="25.00" fill="#000000">Бросок</text>
<text text-anchor="middle" x="433.9874" y="-565.2893" font-family="Times,serif" font-size="25.00" fill="#000000">Шат</text>
</a>
</g>
</g>
<!-- Player&#45;&gt;Shot -->
<g id="edge16" class="edge">
<title>Player&#45;&gt;Shot</title>
<path fill="none" stroke="#000000" stroke-dasharray="5,2" d="M257.5305,-487.3056C288.5505,-506.9917 332.351,-534.7885 368.552,-557.7625"/>
<polygon fill="#000000" stroke="#000000" points="377.1015,-563.1882 366.247,-561.6293 372.8799,-560.509 368.6583,-557.8299 368.6583,-557.8299 368.6583,-557.8299 372.8799,-560.509 371.0695,-554.0304 377.1015,-563.1882 377.1015,-563.1882"/>
</g>
<!-- Team -->
<g id="node2" class="node has&#45;pronunciation">
<title>Team</title>
<g id="a_node2"><a xlink:href="../team.html" xlink:title="Команда" target="_top">
<ellipse fill="none" stroke="#c0c0c0" stroke-width=".2" cx="148.2264" cy="-229.2456" rx="51.7379" ry="51.7379"/>
<text text-anchor="middle" x="148.2264" y="-242.7456" font-family="Times,serif" font-size="15.00" fill="#000000">Team</text>
<text text-anchor="middle" x="148.2264" y="-225.7456" font-family="Times,serif" font-size="15.00" fill="#000000">Команда</text>
<text text-anchor="middle" x="148.2264" y="-208.7456" font-family="Times,serif" font-size="15.00" fill="#000000">Тим</text>
</a>
</g>
</g>
<!-- Team&#45;&gt;Player -->
<g id="edge10" class="edge">
<title>Team&#45;&gt;Player</title>
<path fill="none" stroke="#000000" stroke-dasharray="5,2" d="M163.0869,-278.9243C174.3971,-316.7347 189.9504,-368.7298 201.6001,-407.6751"/>
<polygon fill="#000000" stroke="#000000" points="204.4728,-417.2787 197.2957,-408.9878 203.0399,-412.4884 201.6069,-407.6981 201.6069,-407.6981 201.6069,-407.6981 203.0399,-412.4884 205.9182,-406.4085 204.4728,-417.2787 204.4728,-417.2787"/>
</g>
<!-- Team&#45;&gt;Sport -->
<g id="edge1" class="edge">
<title>Team&#45;&gt;Sport</title>
<path fill="none" stroke="#000000" stroke-dasharray="5,2" d="M112.3564,-266.9339C100.0613,-279.8523 86.3353,-294.274 74.147,-307.0802"/>
<polygon fill="#000000" stroke="#000000" points="67.1708,-314.41 70.8054,-304.0639 70.6179,-310.7881 74.065,-307.1663 74.065,-307.1663 74.065,-307.1663 70.6179,-310.7881 77.3247,-310.2687 67.1708,-314.41 67.1708,-314.41"/>
</g>
<!-- Opponent -->
<g id="node3" class="node has&#45;pronunciation">
<title>Opponent</title>
<g id="a_node3"><a xlink:href="../opponent.html" xlink:title="Противник" target="_top">
<ellipse fill="none" stroke="#c0c0c0" stroke-width=".2" cx="291.9292" cy="-60.8112" rx="60.623" ry="60.623"/>
<text text-anchor="middle" x="291.9292" y="-74.3112" font-family="Times,serif" font-size="15.00" fill="#000000">Opponent</text>
<text text-anchor="middle" x="291.9292" y="-57.3112" font-family="Times,serif" font-size="15.00" fill="#000000">Противник</text>
<text text-anchor="middle" x="291.9292" y="-40.3112" font-family="Times,serif" font-size="15.00" fill="#000000">Эˈпoунэнт</text>
</a>
</g>
</g>
<!-- Opponent&#45;&gt;Player -->
<g id="edge11" class="edge">
<title>Opponent&#45;&gt;Player</title>
<path fill="none" stroke="#000000" stroke-dasharray="5,2" d="M280.8456,-120.8961C266.6298,-197.9618 242.159,-330.6203 228.2862,-405.8261"/>
<polygon fill="#000000" stroke="#000000" points="226.4012,-416.0449 223.79,-405.3944 227.3083,-411.1278 228.2153,-406.2108 228.2153,-406.2108 228.2153,-406.2108 227.3083,-411.1278 232.6407,-407.0271 226.4012,-416.0449 226.4012,-416.0449"/>
</g>
<!-- Opponent&#45;&gt;Team -->
<g id="edge2" class="edge">
<title>Opponent&#45;&gt;Team</title>
<path fill="none" stroke="#000000" stroke-dasharray="5,2" d="M252.2814,-107.2825C232.4274,-130.5534 208.4372,-158.6724 188.4977,-182.0435"/>
<polygon fill="#000000" stroke="#000000" points="181.9027,-189.7735 184.9699,-179.2452 185.148,-185.9697 188.3932,-182.166 188.3932,-182.166 188.3932,-182.166 185.148,-185.9697 191.8166,-185.0867 181.9027,-189.7735 181.9027,-189.7735"/>
</g>
<!-- Point -->
<g id="node4" class="node has&#45;pronunciation">
<title>Point</title>
<g id="a_node4"><a xlink:href="../point.html" xlink:title="Очко" target="_top">
<ellipse fill="none" stroke="#c0c0c0" stroke-width=".2" cx="81.0646" cy="-649.2812" rx="41.9398" ry="41.9398"/>
<text text-anchor="middle" x="81.0646" y="-662.7812" font-family="Times,serif" font-size="15.00" fill="#000000">Point</text>
<text text-anchor="middle" x="81.0646" y="-645.7812" font-family="Times,serif" font-size="15.00" fill="#000000">Очко</text>
<text text-anchor="middle" x="81.0646" y="-628.7812" font-family="Times,serif" font-size="15.00" fill="#000000">Пойнт</text>
</a>
</g>
</g>
<!-- Point&#45;&gt;Player -->
<g id="edge12" class="edge">
<title>Point&#45;&gt;Player</title>
<path fill="none" stroke="#000000" stroke-dasharray="5,2" d="M105.8437,-615.3936C127.7818,-585.3914 159.9937,-541.339 184.2566,-508.1574"/>
<polygon fill="#000000" stroke="#000000" points="190.2428,-499.9708 187.9727,-510.6991 187.2915,-504.0069 184.3402,-508.043 184.3402,-508.043 184.3402,-508.043 187.2915,-504.0069 180.7077,-505.3868 190.2428,-499.9708 190.2428,-499.9708"/>
</g>
<!-- Point&#45;&gt;Team -->
<g id="edge4" class="edge">
<title>Point&#45;&gt;Team</title>
<path fill="none" stroke="#000000" stroke-dasharray="5,2" d="M87.6881,-607.8571C99.5778,-533.4979 124.5901,-377.0692 138.454,-290.3629"/>
<polygon fill="#000000" stroke="#000000" points="140.0469,-280.4011 142.9115,-290.9862 139.2574,-285.3384 138.4679,-290.2757 138.4679,-290.2757 138.4679,-290.2757 139.2574,-285.3384 134.0244,-289.5651 140.0469,-280.4011 140.0469,-280.4011"/>
</g>
<!-- Point&#45;&gt;Goal -->
<g id="edge3" class="edge">
<title>Point&#45;&gt;Goal</title>
<path fill="none" stroke="#000000" stroke-dasharray="5,2" d="M118.9016,-667.4343C144.4383,-679.6861 178.8695,-696.2051 209.1078,-710.7125"/>
<polygon fill="#000000" stroke="#000000" points="218.3431,-715.1433 207.3804,-714.8749 213.835,-712.9805 209.327,-710.8176 209.327,-710.8176 209.327,-710.8176 213.835,-712.9805 211.2736,-706.7604 218.3431,-715.1433 218.3431,-715.1433"/>
</g>
<!-- Hockey -->
<g id="node5" class="node has&#45;pronunciation">
<title>Hockey</title>
<g id="a_node5"><a xlink:href="../hockey.html" xlink:title="Хоккей" target="_top">
<ellipse fill="none" stroke="#c0c0c0" stroke-width=".2" cx="317.8199" cy="-388.5814" rx="45.011" ry="45.011"/>
<text text-anchor="middle" x="317.8199" y="-402.0814" font-family="Times,serif" font-size="15.00" fill="#000000">Hockey</text>
<text text-anchor="middle" x="317.8199" y="-385.0814" font-family="Times,serif" font-size="15.00" fill="#000000">Хоккей</text>
<text text-anchor="middle" x="317.8199" y="-368.0814" font-family="Times,serif" font-size="15.00" fill="#000000">ˈХаки</text>
</a>
</g>
</g>
<!-- Hockey&#45;&gt;Player -->
<g id="edge13" class="edge">
<title>Hockey&#45;&gt;Player</title>
<path fill="none" stroke="#000000" stroke-dasharray="5,2" d="M281.1793,-415.5589C275.5658,-419.6919 269.7103,-424.0032 263.9255,-428.2623"/>
<polygon fill="#000000" stroke="#000000" points="255.5372,-434.4384 260.9219,-424.8856 259.5636,-431.4739 263.59,-428.5094 263.59,-428.5094 263.59,-428.5094 259.5636,-431.4739 266.2581,-432.1331 255.5372,-434.4384 255.5372,-434.4384"/>
</g>
<!-- Hockey&#45;&gt;Team -->
<g id="edge5" class="edge">
<title>Hockey&#45;&gt;Team</title>
<path fill="none" stroke="#000000" stroke-dasharray="5,2" d="M284.7179,-357.4816C258.7023,-333.0395 222.189,-298.7346 193.4733,-271.7558"/>
<polygon fill="#000000" stroke="#000000" points="185.975,-264.7109 196.3443,-268.2786 189.619,-268.1346 193.263,-271.5582 193.263,-271.5582 193.263,-271.5582 189.619,-268.1346 190.1818,-274.8378 185.975,-264.7109 185.975,-264.7109"/>
</g>
<!-- Hockey&#45;&gt;Goal -->
<g id="edge8" class="edge">
<title>Hockey&#45;&gt;Goal</title>
<path fill="none" stroke="#000000" stroke-dasharray="5,2" d="M312.6474,-433.8838C305.8969,-493.0077 293.9906,-597.2892 285.8799,-668.3258"/>
<polygon fill="#000000" stroke="#000000" points="284.7119,-678.556 281.3754,-668.1101 285.2791,-673.5883 285.8463,-668.6206 285.8463,-668.6206 285.8463,-668.6206 285.2791,-673.5883 290.3173,-669.1311 284.7119,-678.556 284.7119,-678.556"/>
</g>
<!-- Hockey&#45;&gt;Sport -->
<g id="edge6" class="edge">
<title>Hockey&#45;&gt;Sport</title>
<path fill="none" stroke="#000000" stroke-dasharray="5,2" d="M273.1187,-381.3191C222.7164,-373.1306 141.0066,-359.8557 88.8182,-351.377"/>
<polygon fill="#000000" stroke="#000000" points="78.7922,-349.7481 89.3844,-346.9101 83.7275,-350.55 88.6628,-351.3518 88.6628,-351.3518 88.6628,-351.3518 83.7275,-350.55 87.9411,-355.7936 78.7922,-349.7481 78.7922,-349.7481"/>
</g>
<!-- Hockey&#45;&gt;Shot -->
<g id="edge7" class="edge">
<title>Hockey&#45;&gt;Shot</title>
<path fill="none" stroke="#000000" stroke-dasharray="5,2" d="M339.6701,-428.2139C355.6583,-457.2138 377.745,-497.2753 396.526,-531.3408"/>
<polygon fill="#000000" stroke="#000000" points="401.475,-540.3174 392.7061,-533.7328 399.0609,-535.9388 396.6469,-531.5601 396.6469,-531.5601 396.6469,-531.5601 399.0609,-535.9388 400.5876,-529.3875 401.475,-540.3174 401.475,-540.3174"/>
</g>
<!-- Shot&#45;&gt;Goal -->
<g id="edge9" class="edge">
<title>Shot&#45;&gt;Goal</title>
<path fill="none" stroke="#000000" stroke-dasharray="5,2" d="M384.412,-644.8967C368.0073,-659.9884 349.6484,-676.8779 332.8273,-692.3527"/>
<polygon fill="#000000" stroke="#000000" points="325.2194,-699.3517 329.5321,-689.2695 328.8991,-695.9665 332.5788,-692.5812 332.5788,-692.5812 332.5788,-692.5812 328.8991,-695.9665 335.6255,-695.893 325.2194,-699.3517 325.2194,-699.3517"/>
</g>
</g>
</svg>
