<?xml version="1.0" encoding="UTF-8" standalone="no"?>
<?xml-stylesheet href="../static/svg.css" type="text/css"?>
<!DOCTYPE svg PUBLIC "-//W3C//DTD SVG 1.1//EN"
 "http://www.w3.org/Graphics/SVG/1.1/DTD/svg11.dtd">
<!-- Generated by graphviz version 2.40.1 (20161225.0304)
 -->
<!-- Title: term Pages: 1 -->
<svg width="670pt" height="1050pt"
 viewBox="0.00 0.00 670.11 1050.41" xmlns="http://www.w3.org/2000/svg" xmlns:xlink="http://www.w3.org/1999/xlink">
<g id="graph0" class="graph" transform="scale(1 1) rotate(0) translate(4 1046.4091)">
<title>term</title>
<!-- Hockey -->
<g id="node1" class="node root has&#45;pronunciation">
<title>Hockey</title>
<g id="a_node1"><a xlink:href="../" xlink:title="Хоккей" target="_top">
<ellipse fill="none" stroke="#c0c0c0" stroke-width=".2" cx="333.4602" cy="-605.1473" rx="45.011" ry="45.011"/>
<text text-anchor="middle" x="333.4602" y="-618.6473" font-family="Times,serif" font-size="15.00" fill="#000000">Hockey</text>
<text text-anchor="middle" x="333.4602" y="-601.6473" font-family="Times,serif" font-size="15.00" fill="#000000">Хоккей</text>
<text text-anchor="middle" x="333.4602" y="-584.6473" font-family="Times,serif" font-size="15.00" fill="#000000">ˈХаки</text>
</a>
</g>
</g>
<!-- Team -->
<g id="node2" class="node has&#45;pronunciation">
<title>Team</title>
<g id="a_node2"><a xlink:href="../team.html" xlink:title="Команда" target="_top">
<ellipse fill="none" stroke="#c0c0c0" stroke-width=".2" cx="522.6752" cy="-909.9062" rx="51.7379" ry="51.7379"/>
<text text-anchor="middle" x="522.6752" y="-923.4062" font-family="Times,serif" font-size="15.00" fill="#000000">Team</text>
<text text-anchor="middle" x="522.6752" y="-906.4062" font-family="Times,serif" font-size="15.00" fill="#000000">Команда</text>
<text text-anchor="middle" x="522.6752" y="-889.4062" font-family="Times,serif" font-size="15.00" fill="#000000">Тим</text>
</a>
</g>
</g>
<!-- Hockey&#45;&gt;Team -->
<g id="edge14" class="edge">
<title>Hockey&#45;&gt;Team</title>
<path fill="none" stroke="#000000" stroke-dasharray="5,2" d="M357.4244,-643.7453C391.0247,-697.8635 452.2449,-796.4677 489.9976,-857.2742"/>
<polygon fill="#000000" stroke="#000000" points="495.3914,-865.9616 486.2935,-859.8395 492.754,-861.7137 490.1166,-857.4658 490.1166,-857.4658 490.1166,-857.4658 492.754,-861.7137 493.9397,-855.0922 495.3914,-865.9616 495.3914,-865.9616"/>
</g>
<!-- Sport -->
<g id="node3" class="node">
<title>Sport</title>
<g id="a_node3"><a xlink:href="../sport.html" xlink:title="Спорт" target="_top">
<ellipse fill="none" stroke="#c0c0c0" stroke-width=".2" cx="622.5166" cy="-569.0633" rx="39.6962" ry="39.6962"/>
<text text-anchor="middle" x="622.5166" y="-574.0633" font-family="Times,serif" font-size="15.00" fill="#000000">Sport</text>
<text text-anchor="middle" x="622.5166" y="-557.0633" font-family="Times,serif" font-size="15.00" fill="#000000">Спорт</text>
</a>
</g>
</g>
<!-- Hockey&#45;&gt;Sport -->
<g id="edge15" class="edge">
<title>Hockey&#45;&gt;Sport</title>
<path fill="none" stroke="#000000" stroke-dasharray="5,2" d="M378.6253,-599.5092C431.2822,-592.9358 518.0453,-582.1048 572.6419,-575.2893"/>
<polygon fill="#000000" stroke="#000000" points="582.7795,-574.0238 573.414,-579.728 577.818,-574.6432 572.8565,-575.2626 572.8565,-575.2626 572.8565,-575.2626 577.818,-574.6432 572.299,-570.7973 582.7795,-574.0238 582.7795,-574.0238"/>
</g>
<!-- Shot -->
<g id="node4" class="node has&#45;pronunciation">
<title>Shot</title>
<g id="a_node4"><a xlink:href="../shot.html" xlink:title="Бросок" target="_top">
<ellipse fill="none" stroke="#c0c0c0" stroke-width=".2" cx="213.0303" cy="-454.7046" rx="67.3507" ry="67.3507"/>
<text text-anchor="middle" x="213.0303" y="-476.7046" font-family="Times,serif" font-size="25.00" fill="#000000">Shot</text>
<text text-anchor="middle" x="213.0303" y="-448.7046" font-family="Times,serif" font-size="25.00" fill="#000000">Бросок</text>
<text text-anchor="middle" x="213.0303" y="-420.7046" font-family="Times,serif" font-size="25.00" fill="#000000">Шат</text>
</a>
</g>
</g>
<!-- Hockey&#45;&gt;Shot -->
<g id="edge16" class="edge">
<title>Hockey&#45;&gt;Shot</title>
<path fill="none" stroke="#000000" stroke-dasharray="5,2" d="M304.92,-569.4945C291.8956,-553.2242 276.1073,-533.5013 261.3188,-515.0273"/>
<polygon fill="#000000" stroke="#000000" points="255.0531,-507.2 264.8155,-512.1946 258.1778,-511.1034 261.3025,-515.0068 261.3025,-515.0068 261.3025,-515.0068 258.1778,-511.1034 257.7894,-517.819 255.0531,-507.2 255.0531,-507.2"/>
</g>
<!-- Player -->
<g id="node5" class="node has&#45;pronunciation">
<title>Player</title>
<g id="a_node5"><a xlink:href="../player.html" xlink:title="Игрок" target="_top">
<ellipse fill="none" stroke="#c0c0c0" stroke-width=".2" cx="482.229" cy="-308.6847" rx="46.8387" ry="46.8387"/>
<text text-anchor="middle" x="482.229" y="-322.1847" font-family="Times,serif" font-size="15.00" fill="#000000">Player</text>
<text text-anchor="middle" x="482.229" y="-305.1847" font-family="Times,serif" font-size="15.00" fill="#000000">Игрок</text>
<text text-anchor="middle" x="482.229" y="-288.1847" font-family="Times,serif" font-size="15.00" fill="#000000">&#39;Плейэр</text>
</a>
</g>
</g>
<!-- Hockey&#45;&gt;Player -->
<g id="edge17" class="edge">
<title>Hockey&#45;&gt;Player</title>
<path fill="none" stroke="#000000" stroke-dasharray="5,2" d="M353.834,-564.5471C380.5741,-511.26 427.5182,-417.711 456.6291,-359.6995"/>
<polygon fill="#000000" stroke="#000000" points="461.1423,-350.7058 460.6792,-361.6619 458.8997,-355.1747 456.6572,-359.6436 456.6572,-359.6436 456.6572,-359.6436 458.8997,-355.1747 452.6352,-357.6252 461.1423,-350.7058 461.1423,-350.7058"/>
</g>
<!-- Stick -->
<g id="node6" class="node has&#45;pronunciation">
<title>Stick</title>
<g id="a_node6"><a xlink:href="../stick.html" xlink:title="Клюшка" target="_top">
<ellipse fill="none" stroke="#c0c0c0" stroke-width=".2" cx="151.0722" cy="-993.6188" rx="48.5816" ry="48.5816"/>
<text text-anchor="middle" x="151.0722" y="-1007.1188" font-family="Times,serif" font-size="15.00" fill="#000000">Stick</text>
<text text-anchor="middle" x="151.0722" y="-990.1188" font-family="Times,serif" font-size="15.00" fill="#000000">Клюшка</text>
<text text-anchor="middle" x="151.0722" y="-973.1188" font-family="Times,serif" font-size="15.00" fill="#000000">Стик</text>
</a>
</g>
</g>
<!-- Hockey&#45;&gt;Stick -->
<g id="edge18" class="edge">
<title>Hockey&#45;&gt;Stick</title>
<path fill="none" stroke="#000000" stroke-dasharray="5,2" d="M314.1142,-646.3528C280.9012,-717.0936 213.0622,-861.5852 176.2255,-940.0443"/>
<polygon fill="#000000" stroke="#000000" points="171.8913,-949.2757 172.0679,-938.3112 174.0163,-944.7497 176.1413,-940.2237 176.1413,-940.2237 176.1413,-940.2237 174.0163,-944.7497 180.2147,-942.1362 171.8913,-949.2757 171.8913,-949.2757"/>
</g>
<!-- Puck -->
<g id="node7" class="node has&#45;pronunciation">
<title>Puck</title>
<g id="a_node7"><a xlink:href="../puck.html" xlink:title="Шайба" target="_top">
<ellipse fill="none" stroke="#c0c0c0" stroke-width=".2" cx="65.0538" cy="-540.2397" rx="65.1077" ry="65.1077"/>
<text text-anchor="middle" x="65.0538" y="-562.2397" font-family="Times,serif" font-size="25.00" fill="#000000">Puck</text>
<text text-anchor="middle" x="65.0538" y="-534.2397" font-family="Times,serif" font-size="25.00" fill="#000000">Шайба</text>
<text text-anchor="middle" x="65.0538" y="-506.2397" font-family="Times,serif" font-size="25.00" fill="#000000">Пак</text>
</a>
</g>
</g>
<!-- Hockey&#45;&gt;Puck -->
<g id="edge19" class="edge">
<title>Hockey&#45;&gt;Puck</title>
<path fill="none" stroke="#000000" stroke-dasharray="5,2" d="M289.4389,-594.5018C248.463,-584.5928 186.6107,-569.6353 138.2158,-557.9322"/>
<polygon fill="#000000" stroke="#000000" points="128.4164,-555.5624 139.194,-553.5391 133.2763,-556.7377 138.1362,-557.913 138.1362,-557.913 138.1362,-557.913 133.2763,-556.7377 137.0785,-562.287 128.4164,-555.5624 128.4164,-555.5624"/>
</g>
<!-- Goal net -->
<g id="node8" class="node has&#45;pronunciation">
<title>Goal net</title>
<g id="a_node8"><a xlink:href="../goal-net.html" xlink:title="Ворота" target="_top">
<ellipse fill="none" stroke="#c0c0c0" stroke-width=".2" cx="103.831" cy="-108.6257" rx="77.5641" ry="77.5641"/>
<text text-anchor="middle" x="103.831" y="-130.6257" font-family="Times,serif" font-size="25.00" fill="#000000">Goal net</text>
<text text-anchor="middle" x="103.831" y="-102.6257" font-family="Times,serif" font-size="25.00" fill="#000000">Ворота</text>
<text text-anchor="middle" x="103.831" y="-74.6257" font-family="Times,serif" font-size="25.00" fill="#000000">Гoул нет</text>
</a>
</g>
</g>
<!-- Hockey&#45;&gt;Goal net -->
<g id="edge20" class="edge">
<title>Hockey&#45;&gt;Goal net</title>
<path fill="none" stroke="#000000" stroke-dasharray="5,2" d="M319.3299,-561.8208C309.3088,-531.662 295.2962,-490.6031 281.8053,-454.8496 245.2698,-358.024 188.7662,-253.1589 149.2537,-184.5138"/>
<polygon fill="#000000" stroke="#000000" points="144.0377,-175.4908 152.9384,-181.8962 146.5401,-179.8195 149.0425,-184.1483 149.0425,-184.1483 149.0425,-184.1483 146.5401,-179.8195 145.1466,-186.4005 144.0377,-175.4908 144.0377,-175.4908"/>
</g>
<!-- Goal -->
<g id="node9" class="node has&#45;pronunciation">
<title>Goal</title>
<g id="a_node9"><a xlink:href="../goal.html" xlink:title="Гол" target="_top">
<ellipse fill="none" stroke="#c0c0c0" stroke-width=".2" cx="285.0973" cy="-65.0538" rx="65.1077" ry="65.1077"/>
<text text-anchor="middle" x="285.0973" y="-87.0538" font-family="Times,serif" font-size="25.00" fill="#000000">Goal</text>
<text text-anchor="middle" x="285.0973" y="-59.0538" font-family="Times,serif" font-size="25.00" fill="#000000">Гол</text>
<text text-anchor="middle" x="285.0973" y="-31.0538" font-family="Times,serif" font-size="25.00" fill="#000000">Гoул</text>
</a>
</g>
</g>
<!-- Hockey&#45;&gt;Goal -->
<g id="edge21" class="edge">
<title>Hockey&#45;&gt;Goal</title>
<path fill="none" stroke="#000000" stroke-dasharray="5,2" d="M329.42,-560.0282C321.112,-467.2486 302.037,-254.228 291.8309,-140.2512"/>
<polygon fill="#000000" stroke="#000000" points="290.9316,-130.208 296.3056,-139.7668 291.3776,-135.1881 291.8236,-140.1682 291.8236,-140.1682 291.8236,-140.1682 291.3776,-135.1881 287.3415,-140.5696 290.9316,-130.208 290.9316,-130.208"/>
</g>
<!-- Team&#45;&gt;Sport -->
<g id="edge2" class="edge">
<title>Team&#45;&gt;Sport</title>
<path fill="none" stroke="#000000" stroke-dasharray="5,2" d="M537.193,-860.3447C556.2904,-795.1492 589.6295,-681.3349 608.4827,-616.9729"/>
<polygon fill="#000000" stroke="#000000" points="611.3798,-607.0828 612.8871,-617.9446 609.9742,-611.8812 608.5686,-616.6796 608.5686,-616.6796 608.5686,-616.6796 609.9742,-611.8812 604.25,-615.4145 611.3798,-607.0828 611.3798,-607.0828"/>
</g>
<!-- Team&#45;&gt;Player -->
<g id="edge1" class="edge">
<title>Team&#45;&gt;Player</title>
<path fill="none" stroke="#000000" stroke-dasharray="5,2" d="M519.2093,-858.3865C511.6876,-746.5782 493.914,-482.3786 486.0668,-365.7323"/>
<polygon fill="#000000" stroke="#000000" points="485.384,-355.5823 490.5452,-365.2576 485.7197,-360.571 486.0553,-365.5597 486.0553,-365.5597 486.0553,-365.5597 485.7197,-360.571 481.5655,-365.8618 485.384,-355.5823 485.384,-355.5823"/>
</g>
<!-- Shot&#45;&gt;Stick -->
<g id="edge5" class="edge">
<title>Shot&#45;&gt;Stick</title>
<path fill="none" stroke="#000000" stroke-dasharray="5,2" d="M205.3397,-521.5975C193.1045,-628.0197 169.4069,-834.1423 157.8035,-935.0694"/>
<polygon fill="#000000" stroke="#000000" points="156.6518,-945.0874 153.3235,-934.6388 157.2229,-940.1201 157.794,-935.1528 157.794,-935.1528 157.794,-935.1528 157.2229,-940.1201 162.2646,-935.6669 156.6518,-945.0874 156.6518,-945.0874"/>
</g>
<!-- Shot&#45;&gt;Puck -->
<g id="edge4" class="edge">
<title>Shot&#45;&gt;Puck</title>
<path fill="none" stroke="#000000" stroke-dasharray="5,2" d="M154.5461,-488.5103C146.5963,-493.1056 138.3965,-497.8453 130.3365,-502.5043"/>
<polygon fill="#000000" stroke="#000000" points="121.6638,-507.5173 128.0695,-498.6169 125.9926,-505.0151 130.3215,-502.5129 130.3215,-502.5129 130.3215,-502.5129 125.9926,-505.0151 132.5735,-506.4088 121.6638,-507.5173 121.6638,-507.5173"/>
</g>
<!-- Shot&#45;&gt;Goal net -->
<g id="edge6" class="edge">
<title>Shot&#45;&gt;Goal net</title>
<path fill="none" stroke="#000000" stroke-dasharray="5,2" d="M192.7466,-390.4209C175.1533,-334.6634 149.5659,-253.5708 130.3521,-192.6776"/>
<polygon fill="#000000" stroke="#000000" points="127.3253,-183.085 134.6259,-191.2674 128.8299,-187.8533 130.3345,-192.6215 130.3345,-192.6215 130.3345,-192.6215 128.8299,-187.8533 126.043,-193.9756 127.3253,-183.085 127.3253,-183.085"/>
</g>
<!-- Shot&#45;&gt;Goal -->
<g id="edge3" class="edge">
<title>Shot&#45;&gt;Goal</title>
<path fill="none" stroke="#000000" stroke-dasharray="5,2" d="M225.2555,-388.6056C238.0466,-319.4466 258.0826,-211.1162 271.399,-139.1177"/>
<polygon fill="#000000" stroke="#000000" points="273.2319,-129.2074 275.8381,-139.8591 272.3225,-134.124 271.4132,-139.0406 271.4132,-139.0406 271.4132,-139.0406 272.3225,-134.124 266.9882,-138.2222 273.2319,-129.2074 273.2319,-129.2074"/>
</g>
<!-- Player&#45;&gt;Sport -->
<g id="edge8" class="edge">
<title>Player&#45;&gt;Sport</title>
<path fill="none" stroke="#000000" stroke-dasharray="5,2" d="M504.458,-349.9424C530.1522,-397.6317 572.2772,-475.8171 598.6473,-524.761"/>
<polygon fill="#000000" stroke="#000000" points="603.541,-533.8438 594.8361,-527.1747 601.1694,-529.442 598.7977,-525.0403 598.7977,-525.0403 598.7977,-525.0403 601.1694,-529.442 602.7593,-522.9058 603.541,-533.8438 603.541,-533.8438"/>
</g>
<!-- Player&#45;&gt;Shot -->
<g id="edge9" class="edge">
<title>Player&#45;&gt;Shot</title>
<path fill="none" stroke="#000000" stroke-dasharray="5,2" d="M441.0505,-331.0209C398.5337,-354.0831 331.4771,-390.4561 281.0671,-417.7997"/>
<polygon fill="#000000" stroke="#000000" points="272.176,-422.6225 278.8205,-413.8989 276.5711,-420.2385 280.9662,-417.8545 280.9662,-417.8545 280.9662,-417.8545 276.5711,-420.2385 283.1118,-421.81 272.176,-422.6225 272.176,-422.6225"/>
</g>
<!-- Player&#45;&gt;Goal -->
<g id="edge7" class="edge">
<title>Player&#45;&gt;Goal</title>
<path fill="none" stroke="#000000" stroke-dasharray="5,2" d="M452.7164,-272.2107C420.9361,-232.934 369.9085,-169.8701 332.493,-123.6291"/>
<polygon fill="#000000" stroke="#000000" points="326.1424,-115.7805 335.9309,-120.7238 329.2875,-119.6675 332.4326,-123.5544 332.4326,-123.5544 332.4326,-123.5544 329.2875,-119.6675 328.9343,-126.385 326.1424,-115.7805 326.1424,-115.7805"/>
</g>
<!-- Stick&#45;&gt;Puck -->
<g id="edge10" class="edge">
<title>Stick&#45;&gt;Puck</title>
<path fill="none" stroke="#000000" stroke-dasharray="5,2" d="M141.9482,-945.5285C126.9297,-866.3704 96.899,-708.0871 79.1369,-614.4679"/>
<polygon fill="#000000" stroke="#000000" points="77.2455,-604.4987 83.5307,-613.4846 78.1775,-609.4111 79.1096,-614.3234 79.1096,-614.3234 79.1096,-614.3234 78.1775,-609.4111 74.6885,-615.1623 77.2455,-604.4987 77.2455,-604.4987"/>
</g>
<!-- Puck&#45;&gt;Goal net -->
<g id="edge11" class="edge">
<title>Puck&#45;&gt;Goal net</title>
<path fill="none" stroke="#000000" stroke-dasharray="5,2" d="M70.9011,-475.1554C77.5732,-400.8916 88.5183,-279.0654 95.9418,-196.4372"/>
<polygon fill="#000000" stroke="#000000" points="96.8517,-186.3091 100.4388,-196.6717 96.4043,-191.289 95.9568,-196.269 95.9568,-196.269 95.9568,-196.269 96.4043,-191.289 91.4749,-195.8663 96.8517,-186.3091 96.8517,-186.3091"/>
</g>
<!-- Goal&#45;&gt;Puck -->
<g id="edge12" class="edge">
<title>Goal&#45;&gt;Puck</title>
<path fill="none" stroke="#000000" stroke-dasharray="5,2" d="M257.6736,-124.2757C216.7548,-212.6401 139.9149,-378.5766 96.6813,-471.9398"/>
<polygon fill="#000000" stroke="#000000" points="92.4767,-481.0198 92.5953,-470.0545 94.5777,-476.4826 96.6788,-471.9455 96.6788,-471.9455 96.6788,-471.9455 94.5777,-476.4826 100.7622,-473.8364 92.4767,-481.0198 92.4767,-481.0198"/>
</g>
<!-- Goal&#45;&gt;Goal net -->
<g id="edge13" class="edge">
<title>Goal&#45;&gt;Goal net</title>
<path fill="none" stroke="#000000" stroke-dasharray="5,2" d="M221.6992,-80.2931C211.3031,-82.7921 200.3801,-85.4177 189.5509,-88.0208"/>
<polygon fill="#000000" stroke="#000000" points="179.6498,-90.4007 188.3211,-83.6881 184.5114,-89.2321 189.3729,-88.0635 189.3729,-88.0635 189.3729,-88.0635 184.5114,-89.2321 190.4246,-92.4389 179.6498,-90.4007 179.6498,-90.4007"/>
</g>
</g>
</svg>
