<?xml version="1.0" encoding="UTF-8" standalone="no"?>
<?xml-stylesheet href="../static/svg.css" type="text/css"?>
<!DOCTYPE svg PUBLIC "-//W3C//DTD SVG 1.1//EN"
 "http://www.w3.org/Graphics/SVG/1.1/DTD/svg11.dtd">
<!-- Generated by graphviz version 2.40.1 (20161225.0304)
 -->
<!-- Title: term Pages: 1 -->
<svg width="270pt" height="446pt"
 viewBox="0.00 0.00 269.82 446.32" xmlns="http://www.w3.org/2000/svg" xmlns:xlink="http://www.w3.org/1999/xlink">
<g id="graph0" class="graph" transform="scale(1 1) rotate(0) translate(4 442.3202)">
<title>term</title>
<!-- Rink -->
<g id="node1" class="node root has&#45;pronunciation">
<title>Rink</title>
<g id="a_node1"><a xlink:href="javascript:history.back()" xlink:title="Площадка" target="_top">
<ellipse fill="none" stroke="#c0c0c0" stroke-width=".2" cx="128.0297" cy="-250.8795" rx="57.0522" ry="57.0522"/>
<text text-anchor="middle" x="128.0297" y="-264.3795" font-family="Times,serif" font-size="15.00" fill="#000000">Rink</text>
<text text-anchor="middle" x="128.0297" y="-247.3795" font-family="Times,serif" font-size="15.00" fill="#000000">Площадка</text>
<text text-anchor="middle" x="128.0297" y="-230.3795" font-family="Times,serif" font-size="15.00" fill="#000000">Ринк</text>
</a>
</g>
</g>
<!-- Ice -->
<g id="node2" class="node has&#45;pronunciation">
<title>Ice</title>
<g id="a_node2"><a xlink:href="../ice.html" xlink:title="Лёд" target="_top">
<ellipse fill="none" stroke="#c0c0c0" stroke-width=".2" cx="220.0965" cy="-396.6009" rx="41.9398" ry="41.9398"/>
<text text-anchor="middle" x="220.0965" y="-410.1009" font-family="Times,serif" font-size="15.00" fill="#000000">Ice</text>
<text text-anchor="middle" x="220.0965" y="-393.1009" font-family="Times,serif" font-size="15.00" fill="#000000">Лёд</text>
<text text-anchor="middle" x="220.0965" y="-376.1009" font-family="Times,serif" font-size="15.00" fill="#000000">Айс</text>
</a>
</g>
</g>
<!-- Rink&#45;&gt;Ice -->
<g id="edge1" class="edge">
<title>Rink&#45;&gt;Ice</title>
<path fill="none" stroke="#000000" stroke-dasharray="5,2" d="M158.6866,-299.4026C169.5555,-316.6056 181.7164,-335.8537 192.3307,-352.6538"/>
<polygon fill="#000000" stroke="#000000" points="197.7253,-361.1922 188.5796,-355.1417 195.0546,-356.9651 192.384,-352.7381 192.384,-352.7381 192.384,-352.7381 195.0546,-356.9651 196.1883,-350.3345 197.7253,-361.1922 197.7253,-361.1922"/>
</g>
<!-- Goal net -->
<g id="node3" class="node has&#45;pronunciation">
<title>Goal net</title>
<g id="a_node3"><a xlink:href="../goal-net.html" xlink:title="Ворота" target="_top">
<ellipse fill="none" stroke="#c0c0c0" stroke-width=".2" cx="77.7817" cy="-77.7817" rx="77.5641" ry="77.5641"/>
<text text-anchor="middle" x="77.7817" y="-99.7817" font-family="Times,serif" font-size="25.00" fill="#000000">Goal net</text>
<text text-anchor="middle" x="77.7817" y="-71.7817" font-family="Times,serif" font-size="25.00" fill="#000000">Ворота</text>
<text text-anchor="middle" x="77.7817" y="-43.7817" font-family="Times,serif" font-size="25.00" fill="#000000">Гoул нет</text>
</a>
</g>
</g>
<!-- Rink&#45;&gt;Goal net -->
<g id="edge2" class="edge">
<title>Rink&#45;&gt;Goal net</title>
<path fill="none" stroke="#000000" stroke-dasharray="5,2" d="M111.9928,-195.6344C108.9272,-185.0739 105.653,-173.7948 102.3904,-162.5556"/>
<polygon fill="#000000" stroke="#000000" points="99.5318,-152.708 106.6413,-161.0571 100.9258,-157.5098 102.3197,-162.3116 102.3197,-162.3116 102.3197,-162.3116 100.9258,-157.5098 97.9981,-163.5661 99.5318,-152.708 99.5318,-152.708"/>
</g>
</g>
</svg>
