<?xml version="1.0" encoding="UTF-8" standalone="no"?>
<?xml-stylesheet href="../static/svg.css" type="text/css"?>
<!DOCTYPE svg PUBLIC "-//W3C//DTD SVG 1.1//EN"
 "http://www.w3.org/Graphics/SVG/1.1/DTD/svg11.dtd">
<!-- Generated by graphviz version 2.40.1 (20161225.0304)
 -->
<!-- Title: term Pages: 1 -->
<svg width="688pt" height="1137pt"
 viewBox="0.00 0.00 688.46 1136.71" xmlns="http://www.w3.org/2000/svg" xmlns:xlink="http://www.w3.org/1999/xlink">
<g id="graph0" class="graph" transform="scale(1 1) rotate(0) translate(4 1132.7137)">
<title>term</title>
<!-- Game -->
<g id="node1" class="node root has&#45;pronunciation">
<title>Game</title>
<g id="a_node1"><a xlink:href="javascript:history.back()" xlink:title="Игра" target="_top">
<ellipse fill="none" stroke="#c0c0c0" stroke-width=".2" cx="310.8266" cy="-497.8784" rx="52.1524" ry="52.1524"/>
<text text-anchor="middle" x="310.8266" y="-514.8784" font-family="Times,serif" font-size="20.00" fill="#000000">Game</text>
<text text-anchor="middle" x="310.8266" y="-492.8784" font-family="Times,serif" font-size="20.00" fill="#000000">Игра</text>
<text text-anchor="middle" x="310.8266" y="-470.8784" font-family="Times,serif" font-size="20.00" fill="#000000">Гейм</text>
</a>
</g>
</g>
<!-- Team -->
<g id="node6" class="node has&#45;pronunciation">
<title>Team</title>
<g id="a_node6"><a xlink:href="../team.html" xlink:title="Команда" target="_top">
<ellipse fill="none" stroke="#c0c0c0" stroke-width=".2" cx="318.8134" cy="-859.4247" rx="51.7379" ry="51.7379"/>
<text text-anchor="middle" x="318.8134" y="-872.9247" font-family="Times,serif" font-size="15.00" fill="#000000">Team</text>
<text text-anchor="middle" x="318.8134" y="-855.9247" font-family="Times,serif" font-size="15.00" fill="#000000">Команда</text>
<text text-anchor="middle" x="318.8134" y="-838.9247" font-family="Times,serif" font-size="15.00" fill="#000000">Тим</text>
</a>
</g>
</g>
<!-- Game&#45;&gt;Team -->
<g id="edge14" class="edge">
<title>Game&#45;&gt;Team</title>
<path fill="none" stroke="#000000" stroke-dasharray="5,2" d="M311.9879,-550.4503C313.4344,-615.9294 315.9022,-727.6428 317.4407,-797.2872"/>
<polygon fill="#000000" stroke="#000000" points="317.67,-807.6682 312.9502,-797.7701 317.5596,-802.6694 317.4491,-797.6707 317.4491,-797.6707 317.4491,-797.6707 317.5596,-802.6694 321.948,-797.5712 317.67,-807.6682 317.67,-807.6682"/>
</g>
<!-- Rink -->
<g id="node7" class="node has&#45;pronunciation">
<title>Rink</title>
<g id="a_node7"><a xlink:href="../rink.html" xlink:title="Площадка" target="_top">
<ellipse fill="none" stroke="#c0c0c0" stroke-width=".2" cx="57.2756" cy="-138.2705" rx="57.0522" ry="57.0522"/>
<text text-anchor="middle" x="57.2756" y="-151.7705" font-family="Times,serif" font-size="15.00" fill="#000000">Rink</text>
<text text-anchor="middle" x="57.2756" y="-134.7705" font-family="Times,serif" font-size="15.00" fill="#000000">Площадка</text>
<text text-anchor="middle" x="57.2756" y="-117.7705" font-family="Times,serif" font-size="15.00" fill="#000000">Ринк</text>
</a>
</g>
</g>
<!-- Game&#45;&gt;Rink -->
<g id="edge15" class="edge">
<title>Game&#45;&gt;Rink</title>
<path fill="none" stroke="#000000" stroke-dasharray="5,2" d="M280.4943,-454.8585C234.5168,-389.6492 147.18,-265.7807 96.453,-193.8352"/>
<polygon fill="#000000" stroke="#000000" points="90.4535,-185.3262 99.8938,-190.9059 93.3348,-189.4126 96.216,-193.499 96.216,-193.499 96.216,-193.499 93.3348,-189.4126 92.5382,-196.0922 90.4535,-185.3262 90.4535,-185.3262"/>
</g>
<!-- Period -->
<g id="node8" class="node has&#45;pronunciation">
<title>Period</title>
<g id="a_node8"><a xlink:href="../period.html" xlink:title="Период" target="_top">
<ellipse fill="none" stroke="#c0c0c0" stroke-width=".2" cx="632.3775" cy="-307.0831" rx="48.1667" ry="48.1667"/>
<text text-anchor="middle" x="632.3775" y="-320.5831" font-family="Times,serif" font-size="15.00" fill="#000000">Period</text>
<text text-anchor="middle" x="632.3775" y="-303.5831" font-family="Times,serif" font-size="15.00" fill="#000000">Период</text>
<text text-anchor="middle" x="632.3775" y="-286.5831" font-family="Times,serif" font-size="15.00" fill="#000000">ˈПириэд</text>
</a>
</g>
</g>
<!-- Game&#45;&gt;Period -->
<g id="edge16" class="edge">
<title>Game&#45;&gt;Period</title>
<path fill="none" stroke="#000000" stroke-dasharray="5,2" d="M355.8754,-471.1482C415.4291,-435.8115 520.0488,-373.7344 582.1092,-336.9103"/>
<polygon fill="#000000" stroke="#000000" points="590.9464,-331.6666 584.6427,-340.6396 586.6463,-334.2181 582.3463,-336.7696 582.3463,-336.7696 582.3463,-336.7696 586.6463,-334.2181 580.05,-332.8996 590.9464,-331.6666 590.9464,-331.6666"/>
</g>
<!-- Overtime -->
<g id="node9" class="node has&#45;pronunciation">
<title>Overtime</title>
<g id="a_node9"><a xlink:href="../overtime.html" xlink:title="Овертайм" target="_top">
<ellipse fill="none" stroke="#c0c0c0" stroke-width=".2" cx="378.9024" cy="-77.5789" rx="67.3507" ry="67.3507"/>
<text text-anchor="middle" x="378.9024" y="-91.0789" font-family="Times,serif" font-size="15.00" fill="#000000">Overtime</text>
<text text-anchor="middle" x="378.9024" y="-74.0789" font-family="Times,serif" font-size="15.00" fill="#000000">Овертайм</text>
<text text-anchor="middle" x="378.9024" y="-57.0789" font-family="Times,serif" font-size="15.00" fill="#000000">ˈОувэрˌтайм</text>
</a>
</g>
</g>
<!-- Game&#45;&gt;Overtime -->
<g id="edge17" class="edge">
<title>Game&#45;&gt;Overtime</title>
<path fill="none" stroke="#000000" stroke-dasharray="5,2" d="M319.2423,-445.9199C331.1042,-372.6847 352.8199,-238.6117 366.5236,-154.0054"/>
<polygon fill="#000000" stroke="#000000" points="368.1539,-143.9402 370.997,-154.5311 367.3544,-148.8759 366.5549,-153.8115 366.5549,-153.8115 366.5549,-153.8115 367.3544,-148.8759 362.1128,-153.092 368.1539,-143.9402 368.1539,-143.9402"/>
</g>
<!-- Shootout -->
<g id="node10" class="node has&#45;pronunciation">
<title>Shootout</title>
<g id="a_node10"><a xlink:href="../shootout.html" xlink:title="Буллиты" target="_top">
<ellipse fill="none" stroke="#c0c0c0" stroke-width=".2" cx="515.178" cy="-50.9117" rx="50.8235" ry="50.8235"/>
<text text-anchor="middle" x="515.178" y="-64.4117" font-family="Times,serif" font-size="15.00" fill="#000000">Shootout</text>
<text text-anchor="middle" x="515.178" y="-47.4117" font-family="Times,serif" font-size="15.00" fill="#000000">Буллиты</text>
<text text-anchor="middle" x="515.178" y="-30.4117" font-family="Times,serif" font-size="15.00" fill="#000000">ˈШутaут</text>
</a>
</g>
</g>
<!-- Game&#45;&gt;Shootout -->
<g id="edge18" class="edge">
<title>Game&#45;&gt;Shootout</title>
<path fill="none" stroke="#000000" stroke-dasharray="5,2" d="M332.6957,-450.0451C370.7939,-366.7151 449.1328,-195.3687 489.6513,-106.7448"/>
<polygon fill="#000000" stroke="#000000" points="493.926,-97.3949 493.8605,-108.3606 491.847,-101.9422 489.768,-106.4895 489.768,-106.4895 489.768,-106.4895 491.847,-101.9422 485.6754,-104.6184 493.926,-97.3949 493.926,-97.3949"/>
</g>
<!-- Sport -->
<g id="node2" class="node">
<title>Sport</title>
<g id="a_node2"><a xlink:href="../sport.html" xlink:title="Спорт" target="_top">
<ellipse fill="none" stroke="#c0c0c0" stroke-width=".2" cx="447.3419" cy="-1089.1157" rx="39.6962" ry="39.6962"/>
<text text-anchor="middle" x="447.3419" y="-1094.1157" font-family="Times,serif" font-size="15.00" fill="#000000">Sport</text>
<text text-anchor="middle" x="447.3419" y="-1077.1157" font-family="Times,serif" font-size="15.00" fill="#000000">Спорт</text>
</a>
</g>
</g>
<!-- Sport&#45;&gt;Game -->
<g id="edge10" class="edge">
<title>Sport&#45;&gt;Game</title>
<path fill="none" stroke="#000000" stroke-dasharray="5,2" d="M438.3848,-1050.323C415.1908,-949.8718 353.0285,-680.6516 324.9442,-559.0207"/>
<polygon fill="#000000" stroke="#000000" points="322.658,-549.1196 329.2925,-557.8508 323.783,-553.9914 324.9079,-558.8633 324.9079,-558.8633 324.9079,-558.8633 323.783,-553.9914 320.5233,-559.8757 322.658,-549.1196 322.658,-549.1196"/>
</g>
<!-- Player -->
<g id="node3" class="node has&#45;pronunciation">
<title>Player</title>
<g id="a_node3"><a xlink:href="../player.html" xlink:title="Игрок" target="_top">
<ellipse fill="none" stroke="#c0c0c0" stroke-width=".2" cx="176.766" cy="-1037.2729" rx="46.8387" ry="46.8387"/>
<text text-anchor="middle" x="176.766" y="-1050.7729" font-family="Times,serif" font-size="15.00" fill="#000000">Player</text>
<text text-anchor="middle" x="176.766" y="-1033.7729" font-family="Times,serif" font-size="15.00" fill="#000000">Игрок</text>
<text text-anchor="middle" x="176.766" y="-1016.7729" font-family="Times,serif" font-size="15.00" fill="#000000">&#39;Плейэр</text>
</a>
</g>
</g>
<!-- Player&#45;&gt;Game -->
<g id="edge11" class="edge">
<title>Player&#45;&gt;Game</title>
<path fill="none" stroke="#000000" stroke-dasharray="5,2" d="M188.0804,-991.7493C212.1683,-894.8314 268.5312,-668.0544 295.6811,-558.8166"/>
<polygon fill="#000000" stroke="#000000" points="298.1365,-548.937 300.0916,-559.7272 296.9305,-553.7894 295.7244,-558.6418 295.7244,-558.6418 295.7244,-558.6418 296.9305,-553.7894 291.3573,-557.5563 298.1365,-548.937 298.1365,-548.937"/>
</g>
<!-- Player&#45;&gt;Sport -->
<g id="edge1" class="edge">
<title>Player&#45;&gt;Sport</title>
<path fill="none" stroke="#000000" stroke-dasharray="5,2" d="M222.6656,-1046.0673C271.4711,-1055.4186 348.3695,-1070.1524 398.3308,-1079.7251"/>
<polygon fill="#000000" stroke="#000000" points="408.2553,-1081.6266 397.5871,-1084.1644 403.3446,-1080.6857 398.4339,-1079.7448 398.4339,-1079.7448 398.4339,-1079.7448 403.3446,-1080.6857 399.2808,-1075.3252 408.2553,-1081.6266 408.2553,-1081.6266"/>
</g>
<!-- Hockey -->
<g id="node4" class="node has&#45;pronunciation">
<title>Hockey</title>
<g id="a_node4"><a xlink:href="../hockey.html" xlink:title="Хоккей" target="_top">
<ellipse fill="none" stroke="#c0c0c0" stroke-width=".2" cx="53.4909" cy="-704.553" rx="45.011" ry="45.011"/>
<text text-anchor="middle" x="53.4909" y="-718.053" font-family="Times,serif" font-size="15.00" fill="#000000">Hockey</text>
<text text-anchor="middle" x="53.4909" y="-701.053" font-family="Times,serif" font-size="15.00" fill="#000000">Хоккей</text>
<text text-anchor="middle" x="53.4909" y="-684.053" font-family="Times,serif" font-size="15.00" fill="#000000">ˈХаки</text>
</a>
</g>
</g>
<!-- Hockey&#45;&gt;Game -->
<g id="edge12" class="edge">
<title>Hockey&#45;&gt;Game</title>
<path fill="none" stroke="#000000" stroke-dasharray="5,2" d="M89.0022,-676.0328C133.893,-639.9795 211.391,-577.7383 261.8736,-537.1941"/>
<polygon fill="#000000" stroke="#000000" points="269.7347,-530.8806 264.7558,-540.651 265.8363,-534.0116 261.9379,-537.1425 261.9379,-537.1425 261.9379,-537.1425 265.8363,-534.0116 259.1201,-533.6339 269.7347,-530.8806 269.7347,-530.8806"/>
</g>
<!-- Hockey&#45;&gt;Player -->
<g id="edge3" class="edge">
<title>Hockey&#45;&gt;Player</title>
<path fill="none" stroke="#000000" stroke-dasharray="5,2" d="M69.229,-747.0301C91.5788,-807.3522 132.5032,-917.8074 156.911,-983.6842"/>
<polygon fill="#000000" stroke="#000000" points="160.5346,-993.4642 152.8406,-985.6506 158.7975,-988.7757 157.0603,-984.0871 157.0603,-984.0871 157.0603,-984.0871 158.7975,-988.7757 161.28,-982.5237 160.5346,-993.4642 160.5346,-993.4642"/>
</g>
<!-- Hockey&#45;&gt;Team -->
<g id="edge2" class="edge">
<title>Hockey&#45;&gt;Team</title>
<path fill="none" stroke="#000000" stroke-dasharray="5,2" d="M92.6402,-727.4048C138.3307,-754.0749 214.1321,-798.321 265.251,-828.1597"/>
<polygon fill="#000000" stroke="#000000" points="274.18,-833.3717 263.275,-832.2168 269.8618,-830.8511 265.5436,-828.3305 265.5436,-828.3305 265.5436,-828.3305 269.8618,-830.8511 267.8121,-824.4441 274.18,-833.3717 274.18,-833.3717"/>
</g>
<!-- Winner -->
<g id="node5" class="node has&#45;pronunciation">
<title>Winner</title>
<g id="a_node5"><a xlink:href="../winner.html" xlink:title="Победитель" target="_top">
<ellipse fill="none" stroke="#c0c0c0" stroke-width=".2" cx="529.6246" cy="-525.9094" rx="65.1077" ry="65.1077"/>
<text text-anchor="middle" x="529.6246" y="-539.4094" font-family="Times,serif" font-size="15.00" fill="#000000">Winner</text>
<text text-anchor="middle" x="529.6246" y="-522.4094" font-family="Times,serif" font-size="15.00" fill="#000000">Победитель</text>
<text text-anchor="middle" x="529.6246" y="-505.4094" font-family="Times,serif" font-size="15.00" fill="#000000">ˈУинэр</text>
</a>
</g>
</g>
<!-- Winner&#45;&gt;Game -->
<g id="edge13" class="edge">
<title>Winner&#45;&gt;Game</title>
<path fill="none" stroke="#000000" stroke-dasharray="5,2" d="M464.8661,-517.6129C435.7838,-513.8871 401.6214,-509.5105 372.8677,-505.8267"/>
<polygon fill="#000000" stroke="#000000" points="362.9399,-504.5548 373.4307,-501.3622 367.8994,-505.1903 372.8588,-505.8257 372.8588,-505.8257 372.8588,-505.8257 367.8994,-505.1903 372.287,-510.2892 362.9399,-504.5548 362.9399,-504.5548"/>
</g>
<!-- Winner&#45;&gt;Team -->
<g id="edge4" class="edge">
<title>Winner&#45;&gt;Team</title>
<path fill="none" stroke="#000000" stroke-dasharray="5,2" d="M494.8134,-580.9827C455.188,-643.6724 390.9281,-745.3351 351.9939,-806.9312"/>
<polygon fill="#000000" stroke="#000000" points="346.4392,-815.719 347.9785,-804.8617 349.1108,-811.4925 351.7823,-807.266 351.7823,-807.266 351.7823,-807.266 349.1108,-811.4925 355.5861,-809.6704 346.4392,-815.719 346.4392,-815.719"/>
</g>
<!-- Team&#45;&gt;Sport -->
<g id="edge6" class="edge">
<title>Team&#45;&gt;Sport</title>
<path fill="none" stroke="#000000" stroke-dasharray="5,2" d="M344.0531,-904.5302C366.89,-945.3416 400.3083,-1005.0628 422.8958,-1045.4285"/>
<polygon fill="#000000" stroke="#000000" points="427.8256,-1054.2384 419.0153,-1047.7092 425.384,-1049.8751 422.9423,-1045.5117 422.9423,-1045.5117 422.9423,-1045.5117 425.384,-1049.8751 426.8693,-1043.3143 427.8256,-1054.2384 427.8256,-1054.2384"/>
</g>
<!-- Team&#45;&gt;Player -->
<g id="edge5" class="edge">
<title>Team&#45;&gt;Player</title>
<path fill="none" stroke="#000000" stroke-dasharray="5,2" d="M286.5806,-899.7812C264.4337,-927.51 235.0276,-964.3274 212.2191,-992.8845"/>
<polygon fill="#000000" stroke="#000000" points="205.9724,-1000.7056 208.697,-990.0836 209.0928,-996.7987 212.2131,-992.8919 212.2131,-992.8919 212.2131,-992.8919 209.0928,-996.7987 215.7293,-995.7003 205.9724,-1000.7056 205.9724,-1000.7056"/>
</g>
<!-- Overtime&#45;&gt;Winner -->
<g id="edge8" class="edge">
<title>Overtime&#45;&gt;Winner</title>
<path fill="none" stroke="#000000" stroke-dasharray="5,2" d="M400.3371,-141.3376C428.1575,-224.0905 476.5678,-368.0892 505.6011,-454.4502"/>
<polygon fill="#000000" stroke="#000000" points="508.8692,-464.1715 501.4172,-456.1268 507.2759,-459.4322 505.6826,-454.6928 505.6826,-454.6928 505.6826,-454.6928 507.2759,-459.4322 509.948,-453.2588 508.8692,-464.1715 508.8692,-464.1715"/>
</g>
<!-- Overtime&#45;&gt;Period -->
<g id="edge7" class="edge">
<title>Overtime&#45;&gt;Period</title>
<path fill="none" stroke="#000000" stroke-dasharray="5,2" d="M428.9809,-122.9216C475.762,-165.2786 544.8638,-227.8455 589.254,-268.0378"/>
<polygon fill="#000000" stroke="#000000" points="596.7009,-274.7804 586.2676,-271.4043 592.9944,-271.4244 589.2879,-268.0685 589.2879,-268.0685 589.2879,-268.0685 592.9944,-271.4244 592.3083,-264.7327 596.7009,-274.7804 596.7009,-274.7804"/>
</g>
<!-- Shootout&#45;&gt;Winner -->
<g id="edge9" class="edge">
<title>Shootout&#45;&gt;Winner</title>
<path fill="none" stroke="#000000" stroke-dasharray="5,2" d="M516.7377,-102.1961C519.2922,-186.1841 524.3789,-353.4344 527.3404,-450.8039"/>
<polygon fill="#000000" stroke="#000000" points="527.6466,-460.872 522.8446,-451.0135 527.4945,-455.8744 527.3425,-450.8767 527.3425,-450.8767 527.3425,-450.8767 527.4945,-455.8744 531.8404,-450.7398 527.6466,-460.872 527.6466,-460.872"/>
</g>
</g>
</svg>
