<?xml version="1.0" encoding="UTF-8" standalone="no"?>
<?xml-stylesheet href="../static/svg.css" type="text/css"?>
<!DOCTYPE svg PUBLIC "-//W3C//DTD SVG 1.1//EN"
 "http://www.w3.org/Graphics/SVG/1.1/DTD/svg11.dtd">
<!-- Generated by graphviz version 2.40.1 (20161225.0304)
 -->
<!-- Title: term Pages: 1 -->
<svg width="265pt" height="447pt"
 viewBox="0.00 0.00 265.35 447.21" xmlns="http://www.w3.org/2000/svg" xmlns:xlink="http://www.w3.org/1999/xlink">
<g id="graph0" class="graph" transform="scale(1 1) rotate(0) translate(4 443.209)">
<title>term</title>
<!-- Rink -->
<g id="node1" class="node root has&#45;pronunciation">
<title>Rink</title>
<g id="a_node1"><a xlink:href="javascript:history.back()" xlink:title="Площадка" target="_top">
<ellipse fill="none" stroke="#c0c0c0" stroke-width=".2" cx="101.1738" cy="-198.8525" rx="57.0522" ry="57.0522"/>
<text text-anchor="middle" x="101.1738" y="-212.3525" font-family="Times,serif" font-size="15.00" fill="#000000">Rink</text>
<text text-anchor="middle" x="101.1738" y="-195.3525" font-family="Times,serif" font-size="15.00" fill="#000000">Площадка</text>
<text text-anchor="middle" x="101.1738" y="-178.3525" font-family="Times,serif" font-size="15.00" fill="#000000">Ринк</text>
</a>
</g>
</g>
<!-- Ice -->
<g id="node3" class="node has&#45;pronunciation">
<title>Ice</title>
<g id="a_node3"><a xlink:href="../ice.html" xlink:title="Лёд" target="_top">
<ellipse fill="none" stroke="#c0c0c0" stroke-width=".2" cx="53.7272" cy="-41.7193" rx="41.9398" ry="41.9398"/>
<text text-anchor="middle" x="53.7272" y="-55.2193" font-family="Times,serif" font-size="15.00" fill="#000000">Ice</text>
<text text-anchor="middle" x="53.7272" y="-38.2193" font-family="Times,serif" font-size="15.00" fill="#000000">Лёд</text>
<text text-anchor="middle" x="53.7272" y="-21.2193" font-family="Times,serif" font-size="15.00" fill="#000000">Айс</text>
</a>
</g>
</g>
<!-- Rink&#45;&gt;Ice -->
<g id="edge3" class="edge">
<title>Rink&#45;&gt;Ice</title>
<path fill="none" stroke="#000000" stroke-dasharray="5,2" d="M84.5793,-143.8949C79.4894,-127.0382 73.9168,-108.583 68.9251,-92.0515"/>
<polygon fill="#000000" stroke="#000000" points="65.9016,-82.0383 73.1002,-90.3106 67.347,-86.8249 68.7923,-91.6114 68.7923,-91.6114 68.7923,-91.6114 67.347,-86.8249 64.4844,-92.9122 65.9016,-82.0383 65.9016,-82.0383"/>
</g>
<!-- Goal net -->
<g id="node4" class="node has&#45;pronunciation">
<title>Goal net</title>
<g id="a_node4"><a xlink:href="../goal-net.html" xlink:title="Ворота" target="_top">
<ellipse fill="none" stroke="#c0c0c0" stroke-width=".2" cx="77.7817" cy="-361.4273" rx="77.5641" ry="77.5641"/>
<text text-anchor="middle" x="77.7817" y="-383.4273" font-family="Times,serif" font-size="25.00" fill="#000000">Goal net</text>
<text text-anchor="middle" x="77.7817" y="-355.4273" font-family="Times,serif" font-size="25.00" fill="#000000">Ворота</text>
<text text-anchor="middle" x="77.7817" y="-327.4273" font-family="Times,serif" font-size="25.00" fill="#000000">Гoул нет</text>
</a>
</g>
</g>
<!-- Rink&#45;&gt;Goal net -->
<g id="edge4" class="edge">
<title>Rink&#45;&gt;Goal net</title>
<path fill="none" stroke="#000000" stroke-dasharray="5,2" d="M92.9924,-255.7133C92.1191,-261.7824 91.217,-268.0518 90.3083,-274.3679"/>
<polygon fill="#000000" stroke="#000000" points="88.8778,-284.3096 85.8479,-273.7706 89.5899,-279.3605 90.3021,-274.4115 90.3021,-274.4115 90.3021,-274.4115 89.5899,-279.3605 94.7562,-275.0524 88.8778,-284.3096 88.8778,-284.3096"/>
</g>
<!-- Hockey -->
<g id="node2" class="node has&#45;pronunciation">
<title>Hockey</title>
<g id="a_node2"><a xlink:href="../hockey.html" xlink:title="Хоккей" target="_top">
<ellipse fill="none" stroke="#c0c0c0" stroke-width=".2" cx="212.0969" cy="-305.2034" rx="45.011" ry="45.011"/>
<text text-anchor="middle" x="212.0969" y="-318.7034" font-family="Times,serif" font-size="15.00" fill="#000000">Hockey</text>
<text text-anchor="middle" x="212.0969" y="-301.7034" font-family="Times,serif" font-size="15.00" fill="#000000">Хоккей</text>
<text text-anchor="middle" x="212.0969" y="-284.7034" font-family="Times,serif" font-size="15.00" fill="#000000">ˈХаки</text>
</a>
</g>
</g>
<!-- Hockey&#45;&gt;Rink -->
<g id="edge2" class="edge">
<title>Hockey&#45;&gt;Rink</title>
<path fill="none" stroke="#000000" stroke-dasharray="5,2" d="M179.4163,-273.8698C170.2498,-265.0812 160.0785,-255.3292 150.1848,-245.8433"/>
<polygon fill="#000000" stroke="#000000" points="142.6944,-238.6616 153.027,-242.3341 146.3035,-242.122 149.9127,-245.5824 149.9127,-245.5824 149.9127,-245.5824 146.3035,-242.122 146.7983,-248.8306 142.6944,-238.6616 142.6944,-238.6616"/>
</g>
<!-- Hockey&#45;&gt;Goal net -->
<g id="edge1" class="edge">
<title>Hockey&#45;&gt;Goal net</title>
<path fill="none" stroke="#000000" stroke-dasharray="5,2" d="M170.335,-322.6848C166.6097,-324.2442 162.7622,-325.8548 158.8487,-327.4929"/>
<polygon fill="#000000" stroke="#000000" points="149.6242,-331.3543 157.111,-323.3419 154.2364,-329.4236 158.8486,-327.4929 158.8486,-327.4929 158.8486,-327.4929 154.2364,-329.4236 160.5862,-331.6439 149.6242,-331.3543 149.6242,-331.3543"/>
</g>
</g>
</svg>
