<?xml version="1.0" encoding="UTF-8" standalone="no"?>
<?xml-stylesheet href="../static/svg.css" type="text/css"?>
<!DOCTYPE svg PUBLIC "-//W3C//DTD SVG 1.1//EN"
 "http://www.w3.org/Graphics/SVG/1.1/DTD/svg11.dtd">
<!-- Generated by graphviz version 2.40.1 (20161225.0304)
 -->
<!-- Title: term Pages: 1 -->
<svg width="669pt" height="1059pt"
 viewBox="0.00 0.00 669.41 1058.74" xmlns="http://www.w3.org/2000/svg" xmlns:xlink="http://www.w3.org/1999/xlink">
<g id="graph0" class="graph" transform="scale(1 1) rotate(0) translate(4 1054.7377)">
<title>term</title>
<!-- Hockey -->
<g id="node1" class="node root has&#45;pronunciation">
<title>Hockey</title>
<g id="a_node1"><a xlink:href="../" xlink:title="Хоккей" target="_top">
<ellipse fill="none" stroke="#c0c0c0" stroke-width=".2" cx="320.7323" cy="-604.6668" rx="45.011" ry="45.011"/>
<text text-anchor="middle" x="320.7323" y="-618.1668" font-family="Times,serif" font-size="15.00" fill="#000000">Hockey</text>
<text text-anchor="middle" x="320.7323" y="-601.1668" font-family="Times,serif" font-size="15.00" fill="#000000">Хоккей</text>
<text text-anchor="middle" x="320.7323" y="-584.1668" font-family="Times,serif" font-size="15.00" fill="#000000">ˈХаки</text>
</a>
</g>
</g>
<!-- Game -->
<g id="node2" class="node has&#45;pronunciation">
<title>Game</title>
<g id="a_node2"><a xlink:href="../game.html" xlink:title="Игра" target="_top">
<ellipse fill="none" stroke="#c0c0c0" stroke-width=".2" cx="509.9472" cy="-916.3365" rx="52.1524" ry="52.1524"/>
<text text-anchor="middle" x="509.9472" y="-933.3365" font-family="Times,serif" font-size="20.00" fill="#000000">Game</text>
<text text-anchor="middle" x="509.9472" y="-911.3365" font-family="Times,serif" font-size="20.00" fill="#000000">Игра</text>
<text text-anchor="middle" x="509.9472" y="-889.3365" font-family="Times,serif" font-size="20.00" fill="#000000">Гейм</text>
</a>
</g>
</g>
<!-- Hockey&#45;&gt;Game -->
<g id="edge14" class="edge">
<title>Hockey&#45;&gt;Game</title>
<path fill="none" stroke="#000000" stroke-dasharray="5,2" d="M344.3139,-643.5098C377.8342,-698.7235 439.3878,-800.1129 477.2832,-862.5332"/>
<polygon fill="#000000" stroke="#000000" points="482.6965,-871.4498 473.6603,-865.2371 480.1017,-867.1758 477.507,-862.9018 477.507,-862.9018 477.507,-862.9018 480.1017,-867.1758 481.3536,-860.5665 482.6965,-871.4498 482.6965,-871.4498"/>
</g>
<!-- Team -->
<g id="node3" class="node has&#45;pronunciation">
<title>Team</title>
<g id="a_node3"><a xlink:href="../team.html" xlink:title="Команда" target="_top">
<ellipse fill="none" stroke="#c0c0c0" stroke-width=".2" cx="609.7887" cy="-567.7644" rx="51.7379" ry="51.7379"/>
<text text-anchor="middle" x="609.7887" y="-581.2644" font-family="Times,serif" font-size="15.00" fill="#000000">Team</text>
<text text-anchor="middle" x="609.7887" y="-564.2644" font-family="Times,serif" font-size="15.00" fill="#000000">Команда</text>
<text text-anchor="middle" x="609.7887" y="-547.2644" font-family="Times,serif" font-size="15.00" fill="#000000">Тим</text>
</a>
</g>
</g>
<!-- Hockey&#45;&gt;Team -->
<g id="edge15" class="edge">
<title>Hockey&#45;&gt;Team</title>
<path fill="none" stroke="#000000" stroke-dasharray="5,2" d="M365.8974,-598.9008C414.825,-592.6544 493.1991,-582.6488 547.8537,-575.6714"/>
<polygon fill="#000000" stroke="#000000" points="558.1112,-574.3618 548.7616,-580.0921 553.1515,-574.9951 548.1917,-575.6283 548.1917,-575.6283 548.1917,-575.6283 553.1515,-574.9951 547.6218,-571.1645 558.1112,-574.3618 558.1112,-574.3618"/>
</g>
<!-- Shot -->
<g id="node4" class="node has&#45;pronunciation">
<title>Shot</title>
<g id="a_node4"><a xlink:href="../shot.html" xlink:title="Бросок" target="_top">
<ellipse fill="none" stroke="#c0c0c0" stroke-width=".2" cx="200.3023" cy="-450.8125" rx="67.3507" ry="67.3507"/>
<text text-anchor="middle" x="200.3023" y="-472.8125" font-family="Times,serif" font-size="25.00" fill="#000000">Shot</text>
<text text-anchor="middle" x="200.3023" y="-444.8125" font-family="Times,serif" font-size="25.00" fill="#000000">Бросок</text>
<text text-anchor="middle" x="200.3023" y="-416.8125" font-family="Times,serif" font-size="25.00" fill="#000000">Шат</text>
</a>
</g>
</g>
<!-- Hockey&#45;&gt;Shot -->
<g id="edge16" class="edge">
<title>Hockey&#45;&gt;Shot</title>
<path fill="none" stroke="#000000" stroke-dasharray="5,2" d="M292.8006,-568.9828C279.4872,-551.9744 263.1845,-531.147 247.9942,-511.7408"/>
<polygon fill="#000000" stroke="#000000" points="241.7897,-503.8143 251.497,-508.9151 244.8716,-507.7515 247.9535,-511.6888 247.9535,-511.6888 247.9535,-511.6888 244.8716,-507.7515 244.4099,-514.4625 241.7897,-503.8143 241.7897,-503.8143"/>
</g>
<!-- Player -->
<g id="node5" class="node has&#45;pronunciation">
<title>Player</title>
<g id="a_node5"><a xlink:href="../player.html" xlink:title="Игрок" target="_top">
<ellipse fill="none" stroke="#c0c0c0" stroke-width=".2" cx="469.5011" cy="-301.4814" rx="46.8387" ry="46.8387"/>
<text text-anchor="middle" x="469.5011" y="-314.9814" font-family="Times,serif" font-size="15.00" fill="#000000">Player</text>
<text text-anchor="middle" x="469.5011" y="-297.9814" font-family="Times,serif" font-size="15.00" fill="#000000">Игрок</text>
<text text-anchor="middle" x="469.5011" y="-280.9814" font-family="Times,serif" font-size="15.00" fill="#000000">&#39;Плейэр</text>
</a>
</g>
</g>
<!-- Hockey&#45;&gt;Player -->
<g id="edge17" class="edge">
<title>Hockey&#45;&gt;Player</title>
<path fill="none" stroke="#000000" stroke-dasharray="5,2" d="M340.7959,-563.7778C367.5971,-509.1582 415.0851,-412.3793 444.2785,-352.8842"/>
<polygon fill="#000000" stroke="#000000" points="448.8008,-343.6679 448.4355,-354.6277 446.5982,-348.1567 444.3956,-352.6454 444.3956,-352.6454 444.3956,-352.6454 446.5982,-348.1567 440.3558,-350.6631 448.8008,-343.6679 448.8008,-343.6679"/>
</g>
<!-- Stick -->
<g id="node6" class="node has&#45;pronunciation">
<title>Stick</title>
<g id="a_node6"><a xlink:href="../stick.html" xlink:title="Клюшка" target="_top">
<ellipse fill="none" stroke="#c0c0c0" stroke-width=".2" cx="138.3443" cy="-1001.9473" rx="48.5816" ry="48.5816"/>
<text text-anchor="middle" x="138.3443" y="-1015.4473" font-family="Times,serif" font-size="15.00" fill="#000000">Stick</text>
<text text-anchor="middle" x="138.3443" y="-998.4473" font-family="Times,serif" font-size="15.00" fill="#000000">Клюшка</text>
<text text-anchor="middle" x="138.3443" y="-981.4473" font-family="Times,serif" font-size="15.00" fill="#000000">Стик</text>
</a>
</g>
</g>
<!-- Hockey&#45;&gt;Stick -->
<g id="edge18" class="edge">
<title>Hockey&#45;&gt;Stick</title>
<path fill="none" stroke="#000000" stroke-dasharray="5,2" d="M301.7298,-646.0585C268.5449,-718.3421 200.0569,-867.5239 163.1695,-947.8727"/>
<polygon fill="#000000" stroke="#000000" points="158.8321,-957.3203 158.9148,-946.3547 160.9183,-952.7763 163.0044,-948.2323 163.0044,-948.2323 163.0044,-948.2323 160.9183,-952.7763 167.0941,-950.1098 158.8321,-957.3203 158.8321,-957.3203"/>
</g>
<!-- Puck -->
<g id="node7" class="node has&#45;pronunciation">
<title>Puck</title>
<g id="a_node7"><a xlink:href="../puck.html" xlink:title="Шайба" target="_top">
<ellipse fill="none" stroke="#c0c0c0" stroke-width=".2" cx="52.3259" cy="-538.2873" rx="52.1524" ry="52.1524"/>
<text text-anchor="middle" x="52.3259" y="-555.2873" font-family="Times,serif" font-size="20.00" fill="#000000">Puck</text>
<text text-anchor="middle" x="52.3259" y="-533.2873" font-family="Times,serif" font-size="20.00" fill="#000000">Шайба</text>
<text text-anchor="middle" x="52.3259" y="-511.2873" font-family="Times,serif" font-size="20.00" fill="#000000">Пак</text>
</a>
</g>
</g>
<!-- Hockey&#45;&gt;Puck -->
<g id="edge19" class="edge">
<title>Hockey&#45;&gt;Puck</title>
<path fill="none" stroke="#000000" stroke-dasharray="5,2" d="M276.711,-593.7799C232.1871,-582.7687 163.0151,-565.6618 113.2417,-553.3524"/>
<polygon fill="#000000" stroke="#000000" points="103.2451,-550.8801 114.0331,-548.9126 108.0989,-552.0805 112.9527,-553.281 112.9527,-553.281 112.9527,-553.281 108.0989,-552.0805 111.8723,-557.6494 103.2451,-550.8801 103.2451,-550.8801"/>
</g>
<!-- Goal net -->
<g id="node8" class="node has&#45;pronunciation">
<title>Goal net</title>
<g id="a_node8"><a xlink:href="../goal-net.html" xlink:title="Ворота" target="_top">
<ellipse fill="none" stroke="#c0c0c0" stroke-width=".2" cx="91.103" cy="-96.8858" rx="62.8651" ry="62.8651"/>
<text text-anchor="middle" x="91.103" y="-113.8858" font-family="Times,serif" font-size="20.00" fill="#000000">Goal net</text>
<text text-anchor="middle" x="91.103" y="-91.8858" font-family="Times,serif" font-size="20.00" fill="#000000">Ворота</text>
<text text-anchor="middle" x="91.103" y="-69.8858" font-family="Times,serif" font-size="20.00" fill="#000000">Гoул нет</text>
</a>
</g>
</g>
<!-- Hockey&#45;&gt;Goal net -->
<g id="edge20" class="edge">
<title>Hockey&#45;&gt;Goal net</title>
<path fill="none" stroke="#000000" stroke-dasharray="5,2" d="M307.0192,-561.3313C297.0213,-530.3888 282.8654,-487.8802 269.0773,-450.9576 229.6312,-345.326 167.7478,-229.8262 128.3232,-160.3875"/>
<polygon fill="#000000" stroke="#000000" points="123.1529,-151.3182 132.0149,-157.7769 125.6292,-155.6619 128.1055,-160.0056 128.1055,-160.0056 128.1055,-160.0056 125.6292,-155.6619 124.1962,-162.2343 123.1529,-151.3182 123.1529,-151.3182"/>
</g>
<!-- Goal -->
<g id="node9" class="node has&#45;pronunciation">
<title>Goal</title>
<g id="a_node9"><a xlink:href="../goal.html" xlink:title="Гол" target="_top">
<ellipse fill="none" stroke="#c0c0c0" stroke-width=".2" cx="272.3694" cy="-52.3259" rx="52.1524" ry="52.1524"/>
<text text-anchor="middle" x="272.3694" y="-69.3259" font-family="Times,serif" font-size="20.00" fill="#000000">Goal</text>
<text text-anchor="middle" x="272.3694" y="-47.3259" font-family="Times,serif" font-size="20.00" fill="#000000">Гол</text>
<text text-anchor="middle" x="272.3694" y="-25.3259" font-family="Times,serif" font-size="20.00" fill="#000000">Гoул</text>
</a>
</g>
</g>
<!-- Hockey&#45;&gt;Goal -->
<g id="edge21" class="edge">
<title>Hockey&#45;&gt;Goal</title>
<path fill="none" stroke="#000000" stroke-dasharray="5,2" d="M316.7746,-559.4664C308.1552,-461.0267 287.6722,-227.0957 277.8316,-114.7079"/>
<polygon fill="#000000" stroke="#000000" points="276.9417,-104.5453 282.2969,-114.1146 277.3779,-109.5262 277.8141,-114.5072 277.8141,-114.5072 277.8141,-114.5072 277.3779,-109.5262 273.3312,-114.8997 276.9417,-104.5453 276.9417,-104.5453"/>
</g>
<!-- Game&#45;&gt;Team -->
<g id="edge1" class="edge">
<title>Game&#45;&gt;Team</title>
<path fill="none" stroke="#000000" stroke-dasharray="5,2" d="M524.3584,-866.0234C542.4391,-802.8993 573.4049,-694.7897 592.6721,-627.5228"/>
<polygon fill="#000000" stroke="#000000" points="595.5435,-617.498 597.1159,-628.3505 594.1667,-622.3047 592.7899,-627.1114 592.7899,-627.1114 592.7899,-627.1114 594.1667,-622.3047 588.4639,-625.8722 595.5435,-617.498 595.5435,-617.498"/>
</g>
<!-- Team&#45;&gt;Player -->
<g id="edge2" class="edge">
<title>Team&#45;&gt;Player</title>
<path fill="none" stroke="#000000" stroke-dasharray="5,2" d="M585.6724,-521.9888C560.7449,-474.6732 521.932,-401.0017 496.1204,-352.0081"/>
<polygon fill="#000000" stroke="#000000" points="491.4584,-343.159 500.1008,-349.9088 493.789,-347.5826 496.1195,-352.0063 496.1195,-352.0063 496.1195,-352.0063 493.789,-347.5826 492.1382,-354.1038 491.4584,-343.159 491.4584,-343.159"/>
</g>
<!-- Shot&#45;&gt;Stick -->
<g id="edge5" class="edge">
<title>Shot&#45;&gt;Stick</title>
<path fill="none" stroke="#000000" stroke-dasharray="5,2" d="M192.767,-517.8415C180.5325,-626.6712 156.5497,-840.0044 144.9454,-943.2285"/>
<polygon fill="#000000" stroke="#000000" points="143.8282,-953.1663 140.4736,-942.7261 144.3868,-948.1976 144.9454,-943.2289 144.9454,-943.2289 144.9454,-943.2289 144.3868,-948.1976 149.4173,-943.7316 143.8282,-953.1663 143.8282,-953.1663"/>
</g>
<!-- Shot&#45;&gt;Puck -->
<g id="edge4" class="edge">
<title>Shot&#45;&gt;Puck</title>
<path fill="none" stroke="#000000" stroke-dasharray="5,2" d="M142.2428,-485.1338C130.3707,-492.1519 117.9241,-499.5096 106.2057,-506.4368"/>
<polygon fill="#000000" stroke="#000000" points="97.4082,-511.6374 103.7266,-502.6748 101.7124,-509.093 106.0166,-506.5486 106.0166,-506.5486 106.0166,-506.5486 101.7124,-509.093 108.3066,-510.4223 97.4082,-511.6374 97.4082,-511.6374"/>
</g>
<!-- Shot&#45;&gt;Goal net -->
<g id="edge6" class="edge">
<title>Shot&#45;&gt;Goal net</title>
<path fill="none" stroke="#000000" stroke-dasharray="5,2" d="M180.4005,-386.3084C161.2373,-324.1986 132.3373,-230.5305 112.6422,-166.6964"/>
<polygon fill="#000000" stroke="#000000" points="109.6844,-157.1098 116.9326,-165.3386 111.1585,-161.8876 112.6327,-166.6654 112.6327,-166.6654 112.6327,-166.6654 111.1585,-161.8876 108.3327,-167.9921 109.6844,-157.1098 109.6844,-157.1098"/>
</g>
<!-- Shot&#45;&gt;Goal -->
<g id="edge3" class="edge">
<title>Shot&#45;&gt;Goal</title>
<path fill="none" stroke="#000000" stroke-dasharray="5,2" d="M212.2836,-384.5632C225.8923,-309.3157 247.9243,-187.4922 261.1908,-114.1369"/>
<polygon fill="#000000" stroke="#000000" points="263.0028,-104.1177 265.6512,-114.759 262.1129,-109.0379 261.223,-113.9581 261.223,-113.9581 261.223,-113.9581 262.1129,-109.0379 256.7949,-113.1572 263.0028,-104.1177 263.0028,-104.1177"/>
</g>
<!-- Player&#45;&gt;Game -->
<g id="edge9" class="edge">
<title>Player&#45;&gt;Game</title>
<path fill="none" stroke="#000000" stroke-dasharray="5,2" d="M472.5744,-348.2001C479.7736,-457.6419 497.7329,-730.6567 505.8498,-854.0483"/>
<polygon fill="#000000" stroke="#000000" points="506.5106,-864.0931 501.3638,-854.4101 506.1823,-859.1039 505.8541,-854.1146 505.8541,-854.1146 505.8541,-854.1146 506.1823,-859.1039 510.3444,-853.8192 506.5106,-864.0931 506.5106,-864.0931"/>
</g>
<!-- Player&#45;&gt;Shot -->
<g id="edge8" class="edge">
<title>Player&#45;&gt;Shot</title>
<path fill="none" stroke="#000000" stroke-dasharray="5,2" d="M428.6156,-324.1616C386.0181,-347.7914 318.5606,-385.2118 267.9964,-413.261"/>
<polygon fill="#000000" stroke="#000000" points="259.0803,-418.207 265.642,-409.4209 263.4526,-415.7815 267.8249,-413.356 267.8249,-413.356 267.8249,-413.356 263.4526,-415.7815 270.0078,-417.2911 259.0803,-418.207 259.0803,-418.207"/>
</g>
<!-- Player&#45;&gt;Goal -->
<g id="edge7" class="edge">
<title>Player&#45;&gt;Goal</title>
<path fill="none" stroke="#000000" stroke-dasharray="5,2" d="M440.4137,-264.7176C406.1934,-221.4665 349.24,-149.4829 311.2537,-101.4719"/>
<polygon fill="#000000" stroke="#000000" points="304.8596,-93.3903 314.5934,-98.4404 307.962,-97.3115 311.0644,-101.2326 311.0644,-101.2326 311.0644,-101.2326 307.962,-97.3115 307.5354,-104.0248 304.8596,-93.3903 304.8596,-93.3903"/>
</g>
<!-- Stick&#45;&gt;Puck -->
<g id="edge10" class="edge">
<title>Stick&#45;&gt;Puck</title>
<path fill="none" stroke="#000000" stroke-dasharray="5,2" d="M129.3822,-953.6397C113.6471,-868.8237 81.0822,-693.2908 63.754,-599.8873"/>
<polygon fill="#000000" stroke="#000000" points="61.922,-590.0127 68.1707,-599.024 62.8341,-594.9288 63.7462,-599.8449 63.7462,-599.8449 63.7462,-599.8449 62.8341,-594.9288 59.3217,-600.6658 61.922,-590.0127 61.922,-590.0127"/>
</g>
<!-- Puck&#45;&gt;Goal net -->
<g id="edge11" class="edge">
<title>Puck&#45;&gt;Goal net</title>
<path fill="none" stroke="#000000" stroke-dasharray="5,2" d="M56.9264,-485.9194C63.8227,-407.4186 76.8644,-258.9644 84.691,-169.8743"/>
<polygon fill="#000000" stroke="#000000" points="85.572,-159.8457 89.1795,-170.2012 85.1344,-164.8266 84.6968,-169.8074 84.6968,-169.8074 84.6968,-169.8074 85.1344,-164.8266 80.2141,-169.4135 85.572,-159.8457 85.572,-159.8457"/>
</g>
<!-- Goal&#45;&gt;Puck -->
<g id="edge12" class="edge">
<title>Goal&#45;&gt;Puck</title>
<path fill="none" stroke="#000000" stroke-dasharray="5,2" d="M250.6686,-100.2517C209.9029,-190.2818 122.0525,-384.2976 78.2522,-481.0296"/>
<polygon fill="#000000" stroke="#000000" points="74.0265,-490.3619 74.0521,-479.3961 76.089,-485.8071 78.1514,-481.2523 78.1514,-481.2523 78.1514,-481.2523 76.089,-485.8071 82.2508,-483.1085 74.0265,-490.3619 74.0265,-490.3619"/>
</g>
<!-- Goal&#45;&gt;Goal net -->
<g id="edge13" class="edge">
<title>Goal&#45;&gt;Goal net</title>
<path fill="none" stroke="#000000" stroke-dasharray="5,2" d="M221.3942,-64.8569C203.0303,-69.3712 181.9605,-74.5507 162.193,-79.4101"/>
<polygon fill="#000000" stroke="#000000" points="152.3047,-81.8409 160.9413,-75.0837 157.1602,-80.6472 162.0156,-79.4536 162.0156,-79.4536 162.0156,-79.4536 157.1602,-80.6472 163.0899,-83.8235 152.3047,-81.8409 152.3047,-81.8409"/>
</g>
</g>
</svg>
