<?xml version="1.0" encoding="UTF-8" standalone="no"?>
<?xml-stylesheet href="../static/svg.css" type="text/css"?>
<!DOCTYPE svg PUBLIC "-//W3C//DTD SVG 1.1//EN"
 "http://www.w3.org/Graphics/SVG/1.1/DTD/svg11.dtd">
<!-- Generated by graphviz version 2.40.1 (20161225.0304)
 -->
<!-- Title: term Pages: 1 -->
<svg width="276pt" height="456pt"
 viewBox="0.00 0.00 275.91 456.42" xmlns="http://www.w3.org/2000/svg" xmlns:xlink="http://www.w3.org/1999/xlink">
<g id="graph0" class="graph" transform="scale(1 1) rotate(0) translate(4 452.4154)">
<title>term</title>
<!-- Overtime -->
<g id="node1" class="node root has&#45;pronunciation">
<title>Overtime</title>
<g id="a_node1"><a xlink:href="javascript:history.back()" xlink:title="Овертайм" target="_top">
<ellipse fill="none" stroke="#c0c0c0" stroke-width=".2" cx="68.5894" cy="-202.6443" rx="68.6788" ry="68.6788"/>
<text text-anchor="middle" x="68.5894" y="-216.1443" font-family="Times,serif" font-size="15.00" fill="#000000">Overtime</text>
<text text-anchor="middle" x="68.5894" y="-199.1443" font-family="Times,serif" font-size="15.00" fill="#000000">Овертайм</text>
<text text-anchor="middle" x="68.5894" y="-182.1443" font-family="Times,serif" font-size="15.00" fill="#000000">ˈОувэрˌтайм</text>
</a>
</g>
</g>
<!-- Period -->
<g id="node3" class="node has&#45;pronunciation">
<title>Period</title>
<g id="a_node3"><a xlink:href="../period.html" xlink:title="Период" target="_top">
<ellipse fill="none" stroke="#c0c0c0" stroke-width=".2" cx="162.2248" cy="-48.7904" rx="48.5816" ry="48.5816"/>
<text text-anchor="middle" x="162.2248" y="-62.2904" font-family="Times,serif" font-size="15.00" fill="#000000">Period</text>
<text text-anchor="middle" x="162.2248" y="-45.2904" font-family="Times,serif" font-size="15.00" fill="#000000">Период</text>
<text text-anchor="middle" x="162.2248" y="-28.2904" font-family="Times,serif" font-size="15.00" fill="#000000">ˈПириэд</text>
</a>
</g>
</g>
<!-- Overtime&#45;&gt;Period -->
<g id="edge4" class="edge">
<title>Overtime&#45;&gt;Period</title>
<path fill="none" stroke="#000000" stroke-dasharray="5,2" d="M104.256,-144.0398C113.2439,-129.2717 122.8139,-113.547 131.5337,-99.2194"/>
<polygon fill="#000000" stroke="#000000" points="136.8404,-90.4999 135.4855,-101.3818 134.2409,-94.7711 131.6415,-99.0423 131.6415,-99.0423 131.6415,-99.0423 134.2409,-94.7711 127.7974,-96.7028 136.8404,-90.4999 136.8404,-90.4999"/>
</g>
<!-- Winner -->
<g id="node4" class="node has&#45;pronunciation">
<title>Winner</title>
<g id="a_node4"><a xlink:href="../winner.html" xlink:title="Победитель" target="_top">
<ellipse fill="none" stroke="#c0c0c0" stroke-width=".2" cx="121.4456" cy="-383.3616" rx="65.1077" ry="65.1077"/>
<text text-anchor="middle" x="121.4456" y="-396.8616" font-family="Times,serif" font-size="15.00" fill="#000000">Winner</text>
<text text-anchor="middle" x="121.4456" y="-379.8616" font-family="Times,serif" font-size="15.00" fill="#000000">Победитель</text>
<text text-anchor="middle" x="121.4456" y="-362.8616" font-family="Times,serif" font-size="15.00" fill="#000000">ˈУинэр</text>
</a>
</g>
</g>
<!-- Overtime&#45;&gt;Winner -->
<g id="edge5" class="edge">
<title>Overtime&#45;&gt;Winner</title>
<path fill="none" stroke="#000000" stroke-dasharray="5,2" d="M87.896,-268.6545C91.9454,-282.4995 96.2359,-297.1687 100.3468,-311.2242"/>
<polygon fill="#000000" stroke="#000000" points="103.159,-320.8392 96.0327,-312.5046 101.7554,-316.0403 100.3518,-311.2413 100.3518,-311.2413 100.3518,-311.2413 101.7554,-316.0403 104.6708,-309.978 103.159,-320.8392 103.159,-320.8392"/>
</g>
<!-- Game -->
<g id="node2" class="node has&#45;pronunciation">
<title>Game</title>
<g id="a_node2"><a xlink:href="../game.html" xlink:title="Игра" target="_top">
<ellipse fill="none" stroke="#c0c0c0" stroke-width=".2" cx="215.5809" cy="-229.59" rx="52.1524" ry="52.1524"/>
<text text-anchor="middle" x="215.5809" y="-246.59" font-family="Times,serif" font-size="20.00" fill="#000000">Game</text>
<text text-anchor="middle" x="215.5809" y="-224.59" font-family="Times,serif" font-size="20.00" fill="#000000">Игра</text>
<text text-anchor="middle" x="215.5809" y="-202.59" font-family="Times,serif" font-size="20.00" fill="#000000">Гейм</text>
</a>
</g>
</g>
<!-- Game&#45;&gt;Overtime -->
<g id="edge3" class="edge">
<title>Game&#45;&gt;Overtime</title>
<path fill="none" stroke="#000000" stroke-dasharray="5,2" d="M163.7572,-220.0899C158.0384,-219.0416 152.1274,-217.958 146.1806,-216.8679"/>
<polygon fill="#000000" stroke="#000000" points="136.1662,-215.0321 146.8137,-212.409 141.0842,-215.9337 146.0023,-216.8353 146.0023,-216.8353 146.0023,-216.8353 141.0842,-215.9337 145.1909,-221.2615 136.1662,-215.0321 136.1662,-215.0321"/>
</g>
<!-- Game&#45;&gt;Period -->
<g id="edge1" class="edge">
<title>Game&#45;&gt;Period</title>
<path fill="none" stroke="#000000" stroke-dasharray="5,2" d="M200.7183,-179.2272C193.9731,-156.3708 185.965,-129.2351 179.0045,-105.649"/>
<polygon fill="#000000" stroke="#000000" points="176.0923,-95.7809 183.2387,-104.0982 177.5075,-100.5764 178.9228,-105.3719 178.9228,-105.3719 178.9228,-105.3719 177.5075,-100.5764 174.6068,-106.6457 176.0923,-95.7809 176.0923,-95.7809"/>
</g>
<!-- Winner&#45;&gt;Game -->
<g id="edge2" class="edge">
<title>Winner&#45;&gt;Game</title>
<path fill="none" stroke="#000000" stroke-dasharray="5,2" d="M155.4306,-327.8465C164.3275,-313.3132 173.9019,-297.6734 182.738,-283.2394"/>
<polygon fill="#000000" stroke="#000000" points="188.1317,-274.4287 186.7485,-285.307 185.5211,-278.6931 182.9105,-282.9575 182.9105,-282.9575 182.9105,-282.9575 185.5211,-278.6931 179.0726,-280.608 188.1317,-274.4287 188.1317,-274.4287"/>
</g>
</g>
</svg>
