<?xml version="1.0" encoding="UTF-8" standalone="no"?>
<?xml-stylesheet href="../static/svg.css" type="text/css"?>
<!DOCTYPE svg PUBLIC "-//W3C//DTD SVG 1.1//EN"
 "http://www.w3.org/Graphics/SVG/1.1/DTD/svg11.dtd">
<!-- Generated by graphviz version 2.40.1 (20161225.0304)
 -->
<!-- Title: term Pages: 1 -->
<svg width="257pt" height="420pt"
 viewBox="0.00 0.00 256.77 419.52" xmlns="http://www.w3.org/2000/svg" xmlns:xlink="http://www.w3.org/1999/xlink">
<g id="graph0" class="graph" transform="scale(1 1) rotate(0) translate(4 415.521)">
<title>term</title>
<!-- Ice -->
<g id="node1" class="node root has&#45;pronunciation">
<title>Ice</title>
<g id="a_node1"><a xlink:href="javascript:history.back()" xlink:title="Лёд" target="_top">
<ellipse fill="none" stroke="#c0c0c0" stroke-width=".2" cx="109.6954" cy="-222.0657" rx="41.9398" ry="41.9398"/>
<text text-anchor="middle" x="109.6954" y="-235.5657" font-family="Times,serif" font-size="15.00" fill="#000000">Ice</text>
<text text-anchor="middle" x="109.6954" y="-218.5657" font-family="Times,serif" font-size="15.00" fill="#000000">Лёд</text>
<text text-anchor="middle" x="109.6954" y="-201.5657" font-family="Times,serif" font-size="15.00" fill="#000000">Айс</text>
</a>
</g>
</g>
<!-- Rink -->
<g id="node2" class="node has&#45;pronunciation">
<title>Rink</title>
<g id="a_node2"><a xlink:href="../rink.html" xlink:title="Площадка" target="_top">
<ellipse fill="none" stroke="#c0c0c0" stroke-width=".2" cx="191.4899" cy="-354.2453" rx="57.0522" ry="57.0522"/>
<text text-anchor="middle" x="191.4899" y="-367.7453" font-family="Times,serif" font-size="15.00" fill="#000000">Rink</text>
<text text-anchor="middle" x="191.4899" y="-350.7453" font-family="Times,serif" font-size="15.00" fill="#000000">Площадка</text>
<text text-anchor="middle" x="191.4899" y="-333.7453" font-family="Times,serif" font-size="15.00" fill="#000000">Ринк</text>
</a>
</g>
</g>
<!-- Rink&#45;&gt;Ice -->
<g id="edge1" class="edge">
<title>Rink&#45;&gt;Ice</title>
<path fill="none" stroke="#000000" stroke-dasharray="5,2" d="M161.2651,-305.4021C153.4284,-292.7381 145.0296,-279.1657 137.3333,-266.7285"/>
<polygon fill="#000000" stroke="#000000" points="131.8715,-257.9021 140.9602,-264.0377 134.5025,-262.1539 137.1336,-266.4057 137.1336,-266.4057 137.1336,-266.4057 134.5025,-262.1539 133.307,-268.7737 131.8715,-257.9021 131.8715,-257.9021"/>
</g>
<!-- Puck -->
<g id="node3" class="node has&#45;pronunciation">
<title>Puck</title>
<g id="a_node3"><a xlink:href="../puck.html" xlink:title="Шайба" target="_top">
<ellipse fill="none" stroke="#c0c0c0" stroke-width=".2" cx="65.0538" cy="-65.0538" rx="65.1077" ry="65.1077"/>
<text text-anchor="middle" x="65.0538" y="-87.0538" font-family="Times,serif" font-size="25.00" fill="#000000">Puck</text>
<text text-anchor="middle" x="65.0538" y="-59.0538" font-family="Times,serif" font-size="25.00" fill="#000000">Шайба</text>
<text text-anchor="middle" x="65.0538" y="-31.0538" font-family="Times,serif" font-size="25.00" fill="#000000">Пак</text>
</a>
</g>
</g>
<!-- Puck&#45;&gt;Ice -->
<g id="edge2" class="edge">
<title>Puck&#45;&gt;Ice</title>
<path fill="none" stroke="#000000" stroke-dasharray="5,2" d="M82.954,-128.0119C87.0921,-142.5663 91.4414,-157.8634 95.4017,-171.7925"/>
<polygon fill="#000000" stroke="#000000" points="98.2082,-181.6631 91.1448,-173.2751 96.8407,-176.8537 95.4733,-172.0444 95.4733,-172.0444 95.4733,-172.0444 96.8407,-176.8537 99.8017,-170.8137 98.2082,-181.6631 98.2082,-181.6631"/>
</g>
</g>
</svg>
