<?xml version="1.0" encoding="UTF-8" standalone="no"?>
<?xml-stylesheet href="../static/svg.css" type="text/css"?>
<!DOCTYPE svg PUBLIC "-//W3C//DTD SVG 1.1//EN"
 "http://www.w3.org/Graphics/SVG/1.1/DTD/svg11.dtd">
<!-- Generated by graphviz version 2.40.1 (20161225.0304)
 -->
<!-- Title: term Pages: 1 -->
<svg width="489pt" height="776pt"
 viewBox="0.00 0.00 489.22 776.30" xmlns="http://www.w3.org/2000/svg" xmlns:xlink="http://www.w3.org/1999/xlink">
<g id="graph0" class="graph" transform="scale(1 1) rotate(0) translate(4 772.2984)">
<title>term</title>
<!-- Puck -->
<g id="node1" class="node root has&#45;pronunciation">
<title>Puck</title>
<g id="a_node1"><a xlink:href="javascript:history.back()" xlink:title="Шайба" target="_top">
<ellipse fill="none" stroke="#c0c0c0" stroke-width=".2" cx="306.7783" cy="-370.3678" rx="65.1077" ry="65.1077"/>
<text text-anchor="middle" x="306.7783" y="-392.3678" font-family="Times,serif" font-size="25.00" fill="#000000">Puck</text>
<text text-anchor="middle" x="306.7783" y="-364.3678" font-family="Times,serif" font-size="25.00" fill="#000000">Шайба</text>
<text text-anchor="middle" x="306.7783" y="-336.3678" font-family="Times,serif" font-size="25.00" fill="#000000">Пак</text>
</a>
</g>
</g>
<!-- Ice -->
<g id="node5" class="node has&#45;pronunciation">
<title>Ice</title>
<g id="a_node5"><a xlink:href="../ice.html" xlink:title="Лёд" target="_top">
<ellipse fill="none" stroke="#c0c0c0" stroke-width=".2" cx="439.4998" cy="-41.7193" rx="41.9398" ry="41.9398"/>
<text text-anchor="middle" x="439.4998" y="-55.2193" font-family="Times,serif" font-size="15.00" fill="#000000">Ice</text>
<text text-anchor="middle" x="439.4998" y="-38.2193" font-family="Times,serif" font-size="15.00" fill="#000000">Лёд</text>
<text text-anchor="middle" x="439.4998" y="-21.2193" font-family="Times,serif" font-size="15.00" fill="#000000">Айс</text>
</a>
</g>
</g>
<!-- Puck&#45;&gt;Ice -->
<g id="edge8" class="edge">
<title>Puck&#45;&gt;Ice</title>
<path fill="none" stroke="#000000" stroke-dasharray="5,2" d="M331.2761,-309.7056C356.8893,-246.2815 396.5656,-148.034 420.0939,-89.7726"/>
<polygon fill="#000000" stroke="#000000" points="423.868,-80.427 424.296,-91.3845 421.9957,-85.0632 420.1234,-89.6994 420.1234,-89.6994 420.1234,-89.6994 421.9957,-85.0632 415.9508,-88.0144 423.868,-80.427 423.868,-80.427"/>
</g>
<!-- Goal net -->
<g id="node6" class="node has&#45;pronunciation">
<title>Goal net</title>
<g id="a_node6"><a xlink:href="../goal-net.html" xlink:title="Ворота" target="_top">
<ellipse fill="none" stroke="#c0c0c0" stroke-width=".2" cx="77.7817" cy="-539.1633" rx="77.5641" ry="77.5641"/>
<text text-anchor="middle" x="77.7817" y="-561.1633" font-family="Times,serif" font-size="25.00" fill="#000000">Goal net</text>
<text text-anchor="middle" x="77.7817" y="-533.1633" font-family="Times,serif" font-size="25.00" fill="#000000">Ворота</text>
<text text-anchor="middle" x="77.7817" y="-505.1633" font-family="Times,serif" font-size="25.00" fill="#000000">Гoул нет</text>
</a>
</g>
</g>
<!-- Puck&#45;&gt;Goal net -->
<g id="edge9" class="edge">
<title>Puck&#45;&gt;Goal net</title>
<path fill="none" stroke="#000000" stroke-dasharray="5,2" d="M254.2419,-409.0929C222.9469,-432.1607 182.8145,-461.7426 148.7318,-486.8654"/>
<polygon fill="#000000" stroke="#000000" points="140.6589,-492.8159 146.0385,-483.2602 144.6837,-489.8492 148.7085,-486.8825 148.7085,-486.8825 148.7085,-486.8825 144.6837,-489.8492 151.3785,-490.5048 140.6589,-492.8159 140.6589,-492.8159"/>
</g>
<!-- Stick -->
<g id="node2" class="node has&#45;pronunciation">
<title>Stick</title>
<g id="a_node2"><a xlink:href="../stick.html" xlink:title="Клюшка" target="_top">
<ellipse fill="none" stroke="#c0c0c0" stroke-width=".2" cx="429.1449" cy="-719.508" rx="48.5816" ry="48.5816"/>
<text text-anchor="middle" x="429.1449" y="-733.008" font-family="Times,serif" font-size="15.00" fill="#000000">Stick</text>
<text text-anchor="middle" x="429.1449" y="-716.008" font-family="Times,serif" font-size="15.00" fill="#000000">Клюшка</text>
<text text-anchor="middle" x="429.1449" y="-699.008" font-family="Times,serif" font-size="15.00" fill="#000000">Стик</text>
</a>
</g>
</g>
<!-- Stick&#45;&gt;Puck -->
<g id="edge5" class="edge">
<title>Stick&#45;&gt;Puck</title>
<path fill="none" stroke="#000000" stroke-dasharray="5,2" d="M412.8955,-673.1449C392.1259,-613.8844 355.9598,-510.6942 331.6977,-441.4686"/>
<polygon fill="#000000" stroke="#000000" points="328.356,-431.9341 335.9103,-439.8828 330.0098,-436.6526 331.6636,-441.3712 331.6636,-441.3712 331.6636,-441.3712 330.0098,-436.6526 327.4169,-442.8597 328.356,-431.9341 328.356,-431.9341"/>
</g>
<!-- Goal -->
<g id="node3" class="node has&#45;pronunciation">
<title>Goal</title>
<g id="a_node3"><a xlink:href="../goal.html" xlink:title="Гол" target="_top">
<ellipse fill="none" stroke="#c0c0c0" stroke-width=".2" cx="129.3834" cy="-249.2415" rx="65.1077" ry="65.1077"/>
<text text-anchor="middle" x="129.3834" y="-271.2415" font-family="Times,serif" font-size="25.00" fill="#000000">Goal</text>
<text text-anchor="middle" x="129.3834" y="-243.2415" font-family="Times,serif" font-size="25.00" fill="#000000">Гол</text>
<text text-anchor="middle" x="129.3834" y="-215.2415" font-family="Times,serif" font-size="25.00" fill="#000000">Гoул</text>
</a>
</g>
</g>
<!-- Goal&#45;&gt;Puck -->
<g id="edge6" class="edge">
<title>Goal&#45;&gt;Puck</title>
<path fill="none" stroke="#000000" stroke-dasharray="5,2" d="M183.5716,-286.2416C202.8292,-299.3907 224.658,-314.2956 244.5356,-327.8681"/>
<polygon fill="#000000" stroke="#000000" points="252.9219,-333.5944 242.1259,-331.6717 248.7927,-330.7749 244.6634,-327.9554 244.6634,-327.9554 244.6634,-327.9554 248.7927,-330.7749 247.201,-324.2391 252.9219,-333.5944 252.9219,-333.5944"/>
</g>
<!-- Goal&#45;&gt;Goal net -->
<g id="edge1" class="edge">
<title>Goal&#45;&gt;Goal net</title>
<path fill="none" stroke="#000000" stroke-dasharray="5,2" d="M117.9313,-313.5845C110.6576,-354.4516 101.153,-407.8528 93.2174,-452.4384"/>
<polygon fill="#000000" stroke="#000000" points="91.4455,-462.394 88.7675,-451.7601 92.3217,-457.4713 93.1979,-452.5487 93.1979,-452.5487 93.1979,-452.5487 92.3217,-457.4713 97.6283,-453.3373 91.4455,-462.394 91.4455,-462.394"/>
</g>
<!-- Hockey -->
<g id="node4" class="node has&#45;pronunciation">
<title>Hockey</title>
<g id="a_node4"><a xlink:href="../hockey.html" xlink:title="Хоккей" target="_top">
<ellipse fill="none" stroke="#c0c0c0" stroke-width=".2" cx="230.2571" cy="-672.586" rx="45.011" ry="45.011"/>
<text text-anchor="middle" x="230.2571" y="-686.086" font-family="Times,serif" font-size="15.00" fill="#000000">Hockey</text>
<text text-anchor="middle" x="230.2571" y="-669.086" font-family="Times,serif" font-size="15.00" fill="#000000">Хоккей</text>
<text text-anchor="middle" x="230.2571" y="-652.086" font-family="Times,serif" font-size="15.00" fill="#000000">ˈХаки</text>
</a>
</g>
</g>
<!-- Hockey&#45;&gt;Puck -->
<g id="edge7" class="edge">
<title>Hockey&#45;&gt;Puck</title>
<path fill="none" stroke="#000000" stroke-dasharray="5,2" d="M241.3839,-628.6409C253.6682,-580.1246 273.6409,-501.2429 288.286,-443.4025"/>
<polygon fill="#000000" stroke="#000000" points="290.7717,-433.5853 292.6794,-444.384 289.5444,-438.4324 288.3171,-443.2794 288.3171,-443.2794 288.3171,-443.2794 289.5444,-438.4324 283.9548,-442.1749 290.7717,-433.5853 290.7717,-433.5853"/>
</g>
<!-- Hockey&#45;&gt;Stick -->
<g id="edge2" class="edge">
<title>Hockey&#45;&gt;Stick</title>
<path fill="none" stroke="#000000" stroke-dasharray="5,2" d="M274.3967,-682.9996C303.1045,-689.7723 340.8285,-698.6722 371.8426,-705.9891"/>
<polygon fill="#000000" stroke="#000000" points="381.6564,-708.3044 370.8902,-710.3879 376.79,-707.1563 371.9235,-706.0082 371.9235,-706.0082 371.9235,-706.0082 376.79,-707.1563 372.9569,-701.6284 381.6564,-708.3044 381.6564,-708.3044"/>
</g>
<!-- Hockey&#45;&gt;Goal -->
<g id="edge4" class="edge">
<title>Hockey&#45;&gt;Goal</title>
<path fill="none" stroke="#000000" stroke-dasharray="5,2" d="M219.7473,-628.4788C202.474,-555.9864 167.9062,-410.913 146.8899,-322.7124"/>
<polygon fill="#000000" stroke="#000000" points="144.5222,-312.7757 151.2176,-321.4602 145.6812,-317.6395 146.8402,-322.5033 146.8402,-322.5033 146.8402,-322.5033 145.6812,-317.6395 142.4627,-323.5464 144.5222,-312.7757 144.5222,-312.7757"/>
</g>
<!-- Hockey&#45;&gt;Goal net -->
<g id="edge3" class="edge">
<title>Hockey&#45;&gt;Goal net</title>
<path fill="none" stroke="#000000" stroke-dasharray="5,2" d="M196.0386,-642.6434C180.6732,-629.1979 161.9961,-612.8547 144.0663,-597.1652"/>
<polygon fill="#000000" stroke="#000000" points="136.4396,-590.4916 146.9286,-593.6903 140.2025,-593.7842 143.9653,-597.0768 143.9653,-597.0768 143.9653,-597.0768 140.2025,-593.7842 141.0019,-600.4634 136.4396,-590.4916 136.4396,-590.4916"/>
</g>
</g>
</svg>
