<?xml version="1.0" encoding="UTF-8" standalone="no"?>
<?xml-stylesheet href="../static/svg.css" type="text/css"?>
<!DOCTYPE svg PUBLIC "-//W3C//DTD SVG 1.1//EN"
 "http://www.w3.org/Graphics/SVG/1.1/DTD/svg11.dtd">
<!-- Generated by graphviz version 2.40.1 (20161225.0304)
 -->
<!-- Title: term Pages: 1 -->
<svg width="309pt" height="513pt"
 viewBox="0.00 0.00 308.79 513.34" xmlns="http://www.w3.org/2000/svg" xmlns:xlink="http://www.w3.org/1999/xlink">
<g id="graph0" class="graph" transform="scale(1 1) rotate(0) translate(4 509.3378)">
<title>term</title>
<!-- Point -->
<g id="node1" class="node root has&#45;pronunciation">
<title>Point</title>
<g id="a_node1"><a xlink:href="javascript:history.back()" xlink:title="Очко" target="_top">
<ellipse fill="none" stroke="#c0c0c0" stroke-width=".2" cx="194.8815" cy="-257.2092" rx="41.9398" ry="41.9398"/>
<text text-anchor="middle" x="194.8815" y="-270.7092" font-family="Times,serif" font-size="15.00" fill="#000000">Point</text>
<text text-anchor="middle" x="194.8815" y="-253.7092" font-family="Times,serif" font-size="15.00" fill="#000000">Очко</text>
<text text-anchor="middle" x="194.8815" y="-236.7092" font-family="Times,serif" font-size="15.00" fill="#000000">Пойнт</text>
</a>
</g>
</g>
<!-- Goal -->
<g id="node3" class="node has&#45;pronunciation">
<title>Goal</title>
<g id="a_node3"><a xlink:href="../goal.html" xlink:title="Гол" target="_top">
<ellipse fill="none" stroke="#c0c0c0" stroke-width=".2" cx="80.1084" cy="-123.2215" rx="65.1077" ry="65.1077"/>
<text text-anchor="middle" x="80.1084" y="-145.2215" font-family="Times,serif" font-size="25.00" fill="#000000">Goal</text>
<text text-anchor="middle" x="80.1084" y="-117.2215" font-family="Times,serif" font-size="25.00" fill="#000000">Гол</text>
<text text-anchor="middle" x="80.1084" y="-89.2215" font-family="Times,serif" font-size="25.00" fill="#000000">Гoул</text>
</a>
</g>
</g>
<!-- Point&#45;&gt;Goal -->
<g id="edge5" class="edge">
<title>Point&#45;&gt;Goal</title>
<path fill="none" stroke="#000000" stroke-dasharray="5,2" d="M167.6819,-225.456C156.2227,-212.0784 142.5185,-196.08 129.3916,-180.7554"/>
<polygon fill="#000000" stroke="#000000" points="122.5947,-172.8206 132.5178,-177.4877 125.8474,-176.6179 129.1002,-180.4152 129.1002,-180.4152 129.1002,-180.4152 125.8474,-176.6179 125.6826,-183.3427 122.5947,-172.8206 122.5947,-172.8206"/>
</g>
<!-- Player -->
<g id="node4" class="node has&#45;pronunciation">
<title>Player</title>
<g id="a_node4"><a xlink:href="../player.html" xlink:title="Игрок" target="_top">
<ellipse fill="none" stroke="#c0c0c0" stroke-width=".2" cx="46.669" cy="-325.0741" rx="46.8387" ry="46.8387"/>
<text text-anchor="middle" x="46.669" y="-338.5741" font-family="Times,serif" font-size="15.00" fill="#000000">Player</text>
<text text-anchor="middle" x="46.669" y="-321.5741" font-family="Times,serif" font-size="15.00" fill="#000000">Игрок</text>
<text text-anchor="middle" x="46.669" y="-304.5741" font-family="Times,serif" font-size="15.00" fill="#000000">&#39;Плейэр</text>
</a>
</g>
</g>
<!-- Point&#45;&gt;Player -->
<g id="edge6" class="edge">
<title>Point&#45;&gt;Player</title>
<path fill="none" stroke="#000000" stroke-dasharray="5,2" d="M156.7131,-274.6861C138.9493,-282.82 117.5504,-292.6183 98.364,-301.4036"/>
<polygon fill="#000000" stroke="#000000" points="89.1485,-305.6232 96.3673,-297.3685 93.6946,-303.5416 98.2407,-301.4599 98.2407,-301.4599 98.2407,-301.4599 93.6946,-303.5416 100.1142,-305.5514 89.1485,-305.6232 89.1485,-305.6232"/>
</g>
<!-- Team -->
<g id="node5" class="node has&#45;pronunciation">
<title>Team</title>
<g id="a_node5"><a xlink:href="../team.html" xlink:title="Команда" target="_top">
<ellipse fill="none" stroke="#c0c0c0" stroke-width=".2" cx="171.3345" cy="-453.719" rx="51.7379" ry="51.7379"/>
<text text-anchor="middle" x="171.3345" y="-467.219" font-family="Times,serif" font-size="15.00" fill="#000000">Team</text>
<text text-anchor="middle" x="171.3345" y="-450.219" font-family="Times,serif" font-size="15.00" fill="#000000">Команда</text>
<text text-anchor="middle" x="171.3345" y="-433.219" font-family="Times,serif" font-size="15.00" fill="#000000">Тим</text>
</a>
</g>
</g>
<!-- Point&#45;&gt;Team -->
<g id="edge7" class="edge">
<title>Point&#45;&gt;Team</title>
<path fill="none" stroke="#000000" stroke-dasharray="5,2" d="M189.8878,-298.8839C186.6372,-326.0111 182.3408,-361.867 178.701,-392.2424"/>
<polygon fill="#000000" stroke="#000000" points="177.4943,-402.313 174.2161,-391.8486 178.0892,-397.3485 178.6841,-392.384 178.6841,-392.384 178.6841,-392.384 178.0892,-397.3485 183.1522,-392.9194 177.4943,-402.313 177.4943,-402.313"/>
</g>
<!-- Score -->
<g id="node2" class="node has&#45;pronunciation">
<title>Score</title>
<g id="a_node2"><a xlink:href="../score.html" xlink:title="Счёт" target="_top">
<ellipse fill="none" stroke="#c0c0c0" stroke-width=".2" cx="235.7324" cy="-65.0538" rx="65.1077" ry="65.1077"/>
<text text-anchor="middle" x="235.7324" y="-87.0538" font-family="Times,serif" font-size="25.00" fill="#000000">Score</text>
<text text-anchor="middle" x="235.7324" y="-59.0538" font-family="Times,serif" font-size="25.00" fill="#000000">Счёт</text>
<text text-anchor="middle" x="235.7324" y="-31.0538" font-family="Times,serif" font-size="25.00" fill="#000000">Скор</text>
</a>
</g>
</g>
<!-- Score&#45;&gt;Point -->
<g id="edge4" class="edge">
<title>Score&#45;&gt;Point</title>
<path fill="none" stroke="#000000" stroke-dasharray="5,2" d="M222.1864,-128.7719C216.8214,-154.008 210.7394,-182.6167 205.6794,-206.4178"/>
<polygon fill="#000000" stroke="#000000" points="203.5785,-216.3 201.2564,-205.5828 204.6183,-211.4093 205.658,-206.5186 205.658,-206.5186 205.658,-206.5186 204.6183,-211.4093 210.0597,-207.4544 203.5785,-216.3 203.5785,-216.3"/>
</g>
<!-- Score&#45;&gt;Goal -->
<g id="edge1" class="edge">
<title>Score&#45;&gt;Goal</title>
<path fill="none" stroke="#000000" stroke-dasharray="5,2" d="M174.6723,-87.8763C166.8628,-90.7953 158.8168,-93.8026 150.8698,-96.7729"/>
<polygon fill="#000000" stroke="#000000" points="141.2478,-100.3694 149.0393,-92.653 145.9313,-98.6188 150.6149,-96.8682 150.6149,-96.8682 150.6149,-96.8682 145.9313,-98.6188 152.1904,-101.0834 141.2478,-100.3694 141.2478,-100.3694"/>
</g>
<!-- Player&#45;&gt;Goal -->
<g id="edge2" class="edge">
<title>Player&#45;&gt;Goal</title>
<path fill="none" stroke="#000000" stroke-dasharray="5,2" d="M54.2988,-279.0181C58.2988,-254.8721 63.2962,-224.7062 67.8253,-197.3666"/>
<polygon fill="#000000" stroke="#000000" points="69.4701,-187.4383 72.2751,-198.0394 68.6528,-192.3711 67.8356,-197.3039 67.8356,-197.3039 67.8356,-197.3039 68.6528,-192.3711 63.3961,-196.5684 69.4701,-187.4383 69.4701,-187.4383"/>
</g>
<!-- Team&#45;&gt;Player -->
<g id="edge3" class="edge">
<title>Team&#45;&gt;Player</title>
<path fill="none" stroke="#000000" stroke-dasharray="5,2" d="M135.2761,-416.5096C119.9355,-400.6792 101.996,-382.1671 86.2864,-365.9561"/>
<polygon fill="#000000" stroke="#000000" points="79.2428,-358.6876 89.4335,-362.7373 82.7224,-362.2783 86.202,-365.8689 86.202,-365.8689 86.202,-365.8689 82.7224,-362.2783 82.9704,-369.0006 79.2428,-358.6876 79.2428,-358.6876"/>
</g>
</g>
</svg>
