<?xml version="1.0" encoding="UTF-8" standalone="no"?>
<?xml-stylesheet href="../static/svg.css" type="text/css"?>
<!DOCTYPE svg PUBLIC "-//W3C//DTD SVG 1.1//EN"
 "http://www.w3.org/Graphics/SVG/1.1/DTD/svg11.dtd">
<!-- Generated by graphviz version 2.40.1 (20161225.0304)
 -->
<!-- Title: term Pages: 1 -->
<svg width="439pt" height="681pt"
 viewBox="0.00 0.00 438.87 681.43" xmlns="http://www.w3.org/2000/svg" xmlns:xlink="http://www.w3.org/1999/xlink">
<g id="graph0" class="graph" transform="scale(1 1) rotate(0) translate(4 677.433)">
<title>term</title>
<!-- Goal net -->
<g id="node1" class="node root has&#45;pronunciation">
<title>Goal net</title>
<g id="a_node1"><a xlink:href="javascript:history.back()" xlink:title="Ворота" target="_top">
<ellipse fill="none" stroke="#c0c0c0" stroke-width=".2" cx="223.7497" cy="-401.2793" rx="77.5641" ry="77.5641"/>
<text text-anchor="middle" x="223.7497" y="-423.2793" font-family="Times,serif" font-size="25.00" fill="#000000">Goal net</text>
<text text-anchor="middle" x="223.7497" y="-395.2793" font-family="Times,serif" font-size="25.00" fill="#000000">Ворота</text>
<text text-anchor="middle" x="223.7497" y="-367.2793" font-family="Times,serif" font-size="25.00" fill="#000000">Гoул нет</text>
</a>
</g>
</g>
<!-- Rink -->
<g id="node2" class="node has&#45;pronunciation">
<title>Rink</title>
<g id="a_node2"><a xlink:href="../rink.html" xlink:title="Площадка" target="_top">
<ellipse fill="none" stroke="#c0c0c0" stroke-width=".2" cx="373.5898" cy="-616.1573" rx="57.0522" ry="57.0522"/>
<text text-anchor="middle" x="373.5898" y="-629.6573" font-family="Times,serif" font-size="15.00" fill="#000000">Rink</text>
<text text-anchor="middle" x="373.5898" y="-612.6573" font-family="Times,serif" font-size="15.00" fill="#000000">Площадка</text>
<text text-anchor="middle" x="373.5898" y="-595.6573" font-family="Times,serif" font-size="15.00" fill="#000000">Ринк</text>
</a>
</g>
</g>
<!-- Rink&#45;&gt;Goal net -->
<g id="edge5" class="edge">
<title>Rink&#45;&gt;Goal net</title>
<path fill="none" stroke="#000000" stroke-dasharray="5,2" d="M340.7067,-569.0014C321.2527,-541.1034 296.2077,-505.1876 274.2879,-473.7535"/>
<polygon fill="#000000" stroke="#000000" points="268.4926,-465.4428 277.9037,-471.0715 271.3526,-469.5441 274.2125,-473.6454 274.2125,-473.6454 274.2125,-473.6454 271.3526,-469.5441 270.5213,-476.2194 268.4926,-465.4428 268.4926,-465.4428"/>
</g>
<!-- Puck -->
<g id="node3" class="node has&#45;pronunciation">
<title>Puck</title>
<g id="a_node3"><a xlink:href="../puck.html" xlink:title="Шайба" target="_top">
<ellipse fill="none" stroke="#c0c0c0" stroke-width=".2" cx="184.1185" cy="-120.0386" rx="65.1077" ry="65.1077"/>
<text text-anchor="middle" x="184.1185" y="-142.0386" font-family="Times,serif" font-size="25.00" fill="#000000">Puck</text>
<text text-anchor="middle" x="184.1185" y="-114.0386" font-family="Times,serif" font-size="25.00" fill="#000000">Шайба</text>
<text text-anchor="middle" x="184.1185" y="-86.0386" font-family="Times,serif" font-size="25.00" fill="#000000">Пак</text>
</a>
</g>
</g>
<!-- Puck&#45;&gt;Goal net -->
<g id="edge6" class="edge">
<title>Puck&#45;&gt;Goal net</title>
<path fill="none" stroke="#000000" stroke-dasharray="5,2" d="M193.2107,-184.5609C198.6267,-222.9956 205.5722,-272.2839 211.4707,-314.1425"/>
<polygon fill="#000000" stroke="#000000" points="212.8679,-324.057 207.0164,-314.7828 212.1701,-319.1059 211.4724,-314.1549 211.4724,-314.1549 211.4724,-314.1549 212.1701,-319.1059 215.9284,-313.5269 212.8679,-324.057 212.8679,-324.057"/>
</g>
<!-- Opponent -->
<g id="node4" class="node has&#45;pronunciation">
<title>Opponent</title>
<g id="a_node4"><a xlink:href="../opponent.html" xlink:title="Противник" target="_top">
<ellipse fill="none" stroke="#c0c0c0" stroke-width=".2" cx="60.8112" cy="-577.4452" rx="60.623" ry="60.623"/>
<text text-anchor="middle" x="60.8112" y="-590.9452" font-family="Times,serif" font-size="15.00" fill="#000000">Opponent</text>
<text text-anchor="middle" x="60.8112" y="-573.9452" font-family="Times,serif" font-size="15.00" fill="#000000">Противник</text>
<text text-anchor="middle" x="60.8112" y="-556.9452" font-family="Times,serif" font-size="15.00" fill="#000000">Эˈпoунэнт</text>
</a>
</g>
</g>
<!-- Opponent&#45;&gt;Goal net -->
<g id="edge7" class="edge">
<title>Opponent&#45;&gt;Goal net</title>
<path fill="none" stroke="#000000" stroke-dasharray="5,2" d="M102.349,-532.5353C121.07,-512.2945 143.5284,-488.0129 164.0101,-465.8686"/>
<polygon fill="#000000" stroke="#000000" points="170.872,-458.4496 167.3854,-468.8465 167.4769,-462.1203 164.0818,-465.7909 164.0818,-465.7909 164.0818,-465.7909 167.4769,-462.1203 160.7782,-462.7354 170.872,-458.4496 170.872,-458.4496"/>
</g>
<!-- Goal -->
<g id="node5" class="node has&#45;pronunciation">
<title>Goal</title>
<g id="a_node5"><a xlink:href="../goal.html" xlink:title="Гол" target="_top">
<ellipse fill="none" stroke="#c0c0c0" stroke-width=".2" cx="322.2261" cy="-65.0538" rx="65.1077" ry="65.1077"/>
<text text-anchor="middle" x="322.2261" y="-87.0538" font-family="Times,serif" font-size="25.00" fill="#000000">Goal</text>
<text text-anchor="middle" x="322.2261" y="-59.0538" font-family="Times,serif" font-size="25.00" fill="#000000">Гол</text>
<text text-anchor="middle" x="322.2261" y="-31.0538" font-family="Times,serif" font-size="25.00" fill="#000000">Гoул</text>
</a>
</g>
</g>
<!-- Goal&#45;&gt;Goal net -->
<g id="edge8" class="edge">
<title>Goal&#45;&gt;Goal net</title>
<path fill="none" stroke="#000000" stroke-dasharray="5,2" d="M303.9342,-127.5073C288.3119,-180.8462 265.7,-258.0494 248.468,-316.884"/>
<polygon fill="#000000" stroke="#000000" points="245.6423,-326.5319 244.1346,-315.6702 247.0477,-321.7335 248.4532,-316.9351 248.4532,-316.9351 248.4532,-316.9351 247.0477,-321.7335 252.7717,-318.2 245.6423,-326.5319 245.6423,-326.5319"/>
</g>
<!-- Goal&#45;&gt;Puck -->
<g id="edge1" class="edge">
<title>Goal&#45;&gt;Puck</title>
<path fill="none" stroke="#000000" stroke-dasharray="5,2" d="M261.6501,-89.1709C259.0885,-90.1908 256.5111,-91.2169 253.9323,-92.2436"/>
<polygon fill="#000000" stroke="#000000" points="244.6144,-95.9533 252.2407,-88.0735 249.2598,-94.1038 253.9052,-92.2544 253.9052,-92.2544 253.9052,-92.2544 249.2598,-94.1038 255.5697,-96.4352 244.6144,-95.9533 244.6144,-95.9533"/>
</g>
<!-- Hockey -->
<g id="node6" class="node has&#45;pronunciation">
<title>Hockey</title>
<g id="a_node6"><a xlink:href="../hockey.html" xlink:title="Хоккей" target="_top">
<ellipse fill="none" stroke="#c0c0c0" stroke-width=".2" cx="369.3749" cy="-308.8023" rx="45.011" ry="45.011"/>
<text text-anchor="middle" x="369.3749" y="-322.3023" font-family="Times,serif" font-size="15.00" fill="#000000">Hockey</text>
<text text-anchor="middle" x="369.3749" y="-305.3023" font-family="Times,serif" font-size="15.00" fill="#000000">Хоккей</text>
<text text-anchor="middle" x="369.3749" y="-288.3023" font-family="Times,serif" font-size="15.00" fill="#000000">ˈХаки</text>
</a>
</g>
</g>
<!-- Hockey&#45;&gt;Goal net -->
<g id="edge9" class="edge">
<title>Hockey&#45;&gt;Goal net</title>
<path fill="none" stroke="#000000" stroke-dasharray="5,2" d="M331.1136,-333.0996C320.9736,-339.5388 309.6697,-346.7172 298.3091,-353.9316"/>
<polygon fill="#000000" stroke="#000000" points="289.6288,-359.4438 295.6582,-350.2842 293.8497,-356.7634 298.0705,-354.083 298.0705,-354.083 298.0705,-354.083 293.8497,-356.7634 300.4829,-357.8818 289.6288,-359.4438 289.6288,-359.4438"/>
</g>
<!-- Hockey&#45;&gt;Rink -->
<g id="edge2" class="edge">
<title>Hockey&#45;&gt;Rink</title>
<path fill="none" stroke="#000000" stroke-dasharray="5,2" d="M369.9969,-354.1536C370.7,-405.4284 371.8521,-489.4383 372.6617,-548.4761"/>
<polygon fill="#000000" stroke="#000000" points="372.8036,-558.8277 368.1668,-548.8904 372.735,-553.8282 372.6664,-548.8286 372.6664,-548.8286 372.6664,-548.8286 372.735,-553.8282 377.166,-548.7669 372.8036,-558.8277 372.8036,-558.8277"/>
</g>
<!-- Hockey&#45;&gt;Puck -->
<g id="edge3" class="edge">
<title>Hockey&#45;&gt;Puck</title>
<path fill="none" stroke="#000000" stroke-dasharray="5,2" d="M337.5282,-276.3527C309.9251,-248.2269 269.4287,-206.9639 236.9738,-173.8946"/>
<polygon fill="#000000" stroke="#000000" points="229.7572,-166.5413 239.9733,-170.5264 233.2594,-170.1098 236.7616,-173.6784 236.7616,-173.6784 236.7616,-173.6784 233.2594,-170.1098 233.5499,-176.8304 229.7572,-166.5413 229.7572,-166.5413"/>
</g>
<!-- Hockey&#45;&gt;Goal -->
<g id="edge4" class="edge">
<title>Hockey&#45;&gt;Goal</title>
<path fill="none" stroke="#000000" stroke-dasharray="5,2" d="M360.7271,-264.0951C353.9732,-229.1787 344.4424,-179.9069 336.5534,-139.1227"/>
<polygon fill="#000000" stroke="#000000" points="334.638,-129.2204 340.9553,-138.1837 335.5876,-134.1294 336.5372,-139.0384 336.5372,-139.0384 336.5372,-139.0384 335.5876,-134.1294 332.1191,-139.893 334.638,-129.2204 334.638,-129.2204"/>
</g>
</g>
</svg>
