<?xml version="1.0" encoding="UTF-8" standalone="no"?>
<?xml-stylesheet href="../static/svg.css" type="text/css"?>
<!DOCTYPE svg PUBLIC "-//W3C//DTD SVG 1.1//EN"
 "http://www.w3.org/Graphics/SVG/1.1/DTD/svg11.dtd">
<!-- Generated by graphviz version 2.40.1 (20161225.0304)
 -->
<!-- Title: term Pages: 1 -->
<svg width="388pt" height="503pt"
 viewBox="0.00 0.00 388.15 502.87" xmlns="http://www.w3.org/2000/svg" xmlns:xlink="http://www.w3.org/1999/xlink">
<g id="graph0" class="graph" transform="scale(1 1) rotate(0) translate(4 498.8695)">
<title>term</title>
<!-- Score -->
<g id="node1" class="node root has&#45;pronunciation">
<title>Score</title>
<g id="a_node1"><a xlink:href="javascript:history.back()" xlink:title="Счёт" target="_top">
<ellipse fill="none" stroke="#c0c0c0" stroke-width=".2" cx="173.2376" cy="-301.2535" rx="52.1524" ry="52.1524"/>
<text text-anchor="middle" x="173.2376" y="-318.2535" font-family="Times,serif" font-size="20.00" fill="#000000">Score</text>
<text text-anchor="middle" x="173.2376" y="-296.2535" font-family="Times,serif" font-size="20.00" fill="#000000">Счёт</text>
<text text-anchor="middle" x="173.2376" y="-274.2535" font-family="Times,serif" font-size="20.00" fill="#000000">Скор</text>
</a>
</g>
</g>
<!-- Goal -->
<g id="node3" class="node has&#45;pronunciation">
<title>Goal</title>
<g id="a_node3"><a xlink:href="../goal.html" xlink:title="Гол" target="_top">
<ellipse fill="none" stroke="#c0c0c0" stroke-width=".2" cx="60.5858" cy="-52.3259" rx="52.1524" ry="52.1524"/>
<text text-anchor="middle" x="60.5858" y="-69.3259" font-family="Times,serif" font-size="20.00" fill="#000000">Goal</text>
<text text-anchor="middle" x="60.5858" y="-47.3259" font-family="Times,serif" font-size="20.00" fill="#000000">Гол</text>
<text text-anchor="middle" x="60.5858" y="-25.3259" font-family="Times,serif" font-size="20.00" fill="#000000">Гoул</text>
</a>
</g>
</g>
<!-- Score&#45;&gt;Goal -->
<g id="edge3" class="edge">
<title>Score&#45;&gt;Goal</title>
<path fill="none" stroke="#000000" stroke-dasharray="5,2" d="M151.6505,-253.5523C133.0802,-212.5174 106.2448,-153.2189 86.514,-109.6197"/>
<polygon fill="#000000" stroke="#000000" points="82.2916,-100.2894 90.5143,-107.5446 84.3531,-104.8447 86.4146,-109.3999 86.4146,-109.3999 86.4146,-109.3999 84.3531,-104.8447 82.3149,-111.2553 82.2916,-100.2894 82.2916,-100.2894"/>
</g>
<!-- Point -->
<g id="node4" class="node has&#45;pronunciation">
<title>Point</title>
<g id="a_node4"><a xlink:href="../point.html" xlink:title="Очко" target="_top">
<ellipse fill="none" stroke="#c0c0c0" stroke-width=".2" cx="41.7193" cy="-453.1502" rx="41.9398" ry="41.9398"/>
<text text-anchor="middle" x="41.7193" y="-466.6502" font-family="Times,serif" font-size="15.00" fill="#000000">Point</text>
<text text-anchor="middle" x="41.7193" y="-449.6502" font-family="Times,serif" font-size="15.00" fill="#000000">Очко</text>
<text text-anchor="middle" x="41.7193" y="-432.6502" font-family="Times,serif" font-size="15.00" fill="#000000">Пойнт</text>
</a>
</g>
</g>
<!-- Score&#45;&gt;Point -->
<g id="edge4" class="edge">
<title>Score&#45;&gt;Point</title>
<path fill="none" stroke="#000000" stroke-dasharray="5,2" d="M138.6827,-341.1625C119.348,-363.4931 95.3282,-391.2348 76.0327,-413.52"/>
<polygon fill="#000000" stroke="#000000" points="69.4201,-421.1572 72.5639,-410.6516 72.693,-417.3772 75.9659,-413.5972 75.9659,-413.5972 75.9659,-413.5972 72.693,-417.3772 79.3679,-416.5428 69.4201,-421.1572 69.4201,-421.1572"/>
</g>
<!-- Winner -->
<g id="node2" class="node has&#45;pronunciation">
<title>Winner</title>
<g id="a_node2"><a xlink:href="../winner.html" xlink:title="Победитель" target="_top">
<ellipse fill="none" stroke="#c0c0c0" stroke-width=".2" cx="315.0926" cy="-348.6977" rx="65.1077" ry="65.1077"/>
<text text-anchor="middle" x="315.0926" y="-362.1977" font-family="Times,serif" font-size="15.00" fill="#000000">Winner</text>
<text text-anchor="middle" x="315.0926" y="-345.1977" font-family="Times,serif" font-size="15.00" fill="#000000">Победитель</text>
<text text-anchor="middle" x="315.0926" y="-328.1977" font-family="Times,serif" font-size="15.00" fill="#000000">ˈУинэр</text>
</a>
</g>
</g>
<!-- Winner&#45;&gt;Score -->
<g id="edge2" class="edge">
<title>Winner&#45;&gt;Score</title>
<path fill="none" stroke="#000000" stroke-dasharray="5,2" d="M253.2856,-328.026C246.4633,-325.7443 239.5266,-323.4242 232.7336,-321.1523"/>
<polygon fill="#000000" stroke="#000000" points="222.9138,-317.868 233.8248,-316.7723 227.6557,-319.454 232.3975,-321.0399 232.3975,-321.0399 232.3975,-321.0399 227.6557,-319.454 230.9701,-325.3076 222.9138,-317.868 222.9138,-317.868"/>
</g>
<!-- Point&#45;&gt;Goal -->
<g id="edge1" class="edge">
<title>Point&#45;&gt;Goal</title>
<path fill="none" stroke="#000000" stroke-dasharray="5,2" d="M43.685,-411.3893C47.01,-340.7485 53.7613,-197.3147 57.6493,-114.712"/>
<polygon fill="#000000" stroke="#000000" points="58.1204,-104.7034 62.1452,-114.9039 57.8853,-109.6978 57.6501,-114.6923 57.6501,-114.6923 57.6501,-114.6923 57.8853,-109.6978 53.1551,-114.4807 58.1204,-104.7034 58.1204,-104.7034"/>
</g>
</g>
</svg>
