<?xml version="1.0" encoding="UTF-8" standalone="no"?>
<?xml-stylesheet href="../static/svg.css" type="text/css"?>
<!DOCTYPE svg PUBLIC "-//W3C//DTD SVG 1.1//EN"
 "http://www.w3.org/Graphics/SVG/1.1/DTD/svg11.dtd">
<!-- Generated by graphviz version 2.40.1 (20161225.0304)
 -->
<!-- Title: term Pages: 1 -->
<svg width="809pt" height="1309pt"
 viewBox="0.00 0.00 809.23 1308.75" xmlns="http://www.w3.org/2000/svg" xmlns:xlink="http://www.w3.org/1999/xlink">
<g id="graph0" class="graph" transform="scale(1 1) rotate(0) translate(4 1304.7458)">
<title>term</title>
<!-- Team -->
<g id="node1" class="node has&#45;pronunciation">
<title>Team</title>
<g id="a_node1"><a xlink:href="../team.html" xlink:title="Команда" target="_top">
<ellipse fill="none" stroke="#c0c0c0" stroke-width=".2" cx="104.9927" cy="-909.8219" rx="51.7379" ry="51.7379"/>
<text text-anchor="middle" x="104.9927" y="-923.3219" font-family="Times,serif" font-size="15.00" fill="#000000">Team</text>
<text text-anchor="middle" x="104.9927" y="-906.3219" font-family="Times,serif" font-size="15.00" fill="#000000">Команда</text>
<text text-anchor="middle" x="104.9927" y="-889.3219" font-family="Times,serif" font-size="15.00" fill="#000000">Тим</text>
</a>
</g>
</g>
<!-- Player -->
<g id="node2" class="node has&#45;pronunciation">
<title>Player</title>
<g id="a_node2"><a xlink:href="../player.html" xlink:title="Игрок" target="_top">
<ellipse fill="none" stroke="#c0c0c0" stroke-width=".2" cx="211.2805" cy="-813.2889" rx="46.8387" ry="46.8387"/>
<text text-anchor="middle" x="211.2805" y="-826.7889" font-family="Times,serif" font-size="15.00" fill="#000000">Player</text>
<text text-anchor="middle" x="211.2805" y="-809.7889" font-family="Times,serif" font-size="15.00" fill="#000000">Игрок</text>
<text text-anchor="middle" x="211.2805" y="-792.7889" font-family="Times,serif" font-size="15.00" fill="#000000">&#39;Плейэр</text>
</a>
</g>
</g>
<!-- Team&#45;&gt;Player -->
<g id="edge1" class="edge">
<title>Team&#45;&gt;Player</title>
<path fill="none" stroke="#000000" stroke-dasharray="5,2" d="M143.365,-874.9713C151.6508,-867.446 160.4569,-859.4481 168.8864,-851.7922"/>
<polygon fill="#000000" stroke="#000000" points="176.4963,-844.8807 172.1191,-854.9352 172.795,-848.2424 169.0936,-851.604 169.0936,-851.604 169.0936,-851.604 172.795,-848.2424 166.0682,-848.2728 176.4963,-844.8807 176.4963,-844.8807"/>
</g>
<!-- Sport -->
<g id="node9" class="node">
<title>Sport</title>
<g id="a_node9"><a xlink:href="../sport.html" xlink:title="Спорт" target="_top">
<ellipse fill="none" stroke="#c0c0c0" stroke-width=".2" cx="146.1" cy="-555.0487" rx="39.6962" ry="39.6962"/>
<text text-anchor="middle" x="146.1" y="-560.0487" font-family="Times,serif" font-size="15.00" fill="#000000">Sport</text>
<text text-anchor="middle" x="146.1" y="-543.0487" font-family="Times,serif" font-size="15.00" fill="#000000">Спорт</text>
</a>
</g>
</g>
<!-- Team&#45;&gt;Sport -->
<g id="edge10" class="edge">
<title>Team&#45;&gt;Sport</title>
<path fill="none" stroke="#000000" stroke-dasharray="5,2" d="M110.97,-858.2349C118.8329,-790.3748 132.5595,-671.9089 140.3218,-604.9164"/>
<polygon fill="#000000" stroke="#000000" points="141.5146,-594.6221 144.8336,-605.0736 140.9391,-599.5889 140.3635,-604.5557 140.3635,-604.5557 140.3635,-604.5557 140.9391,-599.5889 135.8935,-604.0377 141.5146,-594.6221 141.5146,-594.6221"/>
</g>
<!-- Player&#45;&gt;Sport -->
<g id="edge15" class="edge">
<title>Player&#45;&gt;Sport</title>
<path fill="none" stroke="#000000" stroke-dasharray="5,2" d="M199.8523,-768.0114C188.2192,-721.922 170.2484,-650.7229 158.333,-603.5149"/>
<polygon fill="#000000" stroke="#000000" points="155.8128,-593.5301 162.6233,-602.1247 157.0364,-598.378 158.2601,-603.226 158.2601,-603.226 158.2601,-603.226 157.0364,-598.378 153.8969,-604.3273 155.8128,-593.5301 155.8128,-593.5301"/>
</g>
<!-- Goal -->
<g id="node11" class="node has&#45;pronunciation">
<title>Goal</title>
<g id="a_node11"><a xlink:href="../goal.html" xlink:title="Гол" target="_top">
<ellipse fill="none" stroke="#c0c0c0" stroke-width=".2" cx="299.6056" cy="-404.5398" rx="65.1077" ry="65.1077"/>
<text text-anchor="middle" x="299.6056" y="-426.5398" font-family="Times,serif" font-size="25.00" fill="#000000">Goal</text>
<text text-anchor="middle" x="299.6056" y="-398.5398" font-family="Times,serif" font-size="25.00" fill="#000000">Гол</text>
<text text-anchor="middle" x="299.6056" y="-370.5398" font-family="Times,serif" font-size="25.00" fill="#000000">Гoул</text>
</a>
</g>
</g>
<!-- Player&#45;&gt;Goal -->
<g id="edge14" class="edge">
<title>Player&#45;&gt;Goal</title>
<path fill="none" stroke="#000000" stroke-dasharray="5,2" d="M221.1554,-767.59C236.3171,-697.4248 265.4797,-562.4669 283.6617,-478.3247"/>
<polygon fill="#000000" stroke="#000000" points="285.8229,-468.3231 288.1092,-479.048 284.7668,-473.2103 283.7107,-478.0975 283.7107,-478.0975 283.7107,-478.0975 284.7668,-473.2103 279.3122,-477.147 285.8229,-468.3231 285.8229,-468.3231"/>
</g>
<!-- Rink -->
<g id="node3" class="node has&#45;pronunciation">
<title>Rink</title>
<g id="a_node3"><a xlink:href="../rink.html" xlink:title="Площадка" target="_top">
<ellipse fill="none" stroke="#c0c0c0" stroke-width=".2" cx="598.956" cy="-963.3453" rx="57.0522" ry="57.0522"/>
<text text-anchor="middle" x="598.956" y="-976.8453" font-family="Times,serif" font-size="15.00" fill="#000000">Rink</text>
<text text-anchor="middle" x="598.956" y="-959.8453" font-family="Times,serif" font-size="15.00" fill="#000000">Площадка</text>
<text text-anchor="middle" x="598.956" y="-942.8453" font-family="Times,serif" font-size="15.00" fill="#000000">Ринк</text>
</a>
</g>
</g>
<!-- Ice -->
<g id="node4" class="node has&#45;pronunciation">
<title>Ice</title>
<g id="a_node4"><a xlink:href="../ice.html" xlink:title="Лёд" target="_top">
<ellipse fill="none" stroke="#c0c0c0" stroke-width=".2" cx="759.5145" cy="-659.5721" rx="41.9398" ry="41.9398"/>
<text text-anchor="middle" x="759.5145" y="-673.0721" font-family="Times,serif" font-size="15.00" fill="#000000">Ice</text>
<text text-anchor="middle" x="759.5145" y="-656.0721" font-family="Times,serif" font-size="15.00" fill="#000000">Лёд</text>
<text text-anchor="middle" x="759.5145" y="-639.0721" font-family="Times,serif" font-size="15.00" fill="#000000">Айс</text>
</a>
</g>
</g>
<!-- Rink&#45;&gt;Ice -->
<g id="edge2" class="edge">
<title>Rink&#45;&gt;Ice</title>
<path fill="none" stroke="#000000" stroke-dasharray="5,2" d="M625.8299,-912.5005C656.3575,-854.743 705.7413,-761.3099 735.1755,-705.6212"/>
<polygon fill="#000000" stroke="#000000" points="739.8991,-696.6842 739.2046,-707.628 737.5626,-701.1047 735.2261,-705.5252 735.2261,-705.5252 735.2261,-705.5252 737.5626,-701.1047 731.2477,-703.4224 739.8991,-696.6842 739.8991,-696.6842"/>
</g>
<!-- Goal net -->
<g id="node5" class="node has&#45;pronunciation">
<title>Goal net</title>
<g id="a_node5"><a xlink:href="../goal-net.html" xlink:title="Ворота" target="_top">
<ellipse fill="none" stroke="#c0c0c0" stroke-width=".2" cx="423.3911" cy="-922.7665" rx="77.5641" ry="77.5641"/>
<text text-anchor="middle" x="423.3911" y="-944.7665" font-family="Times,serif" font-size="25.00" fill="#000000">Goal net</text>
<text text-anchor="middle" x="423.3911" y="-916.7665" font-family="Times,serif" font-size="25.00" fill="#000000">Ворота</text>
<text text-anchor="middle" x="423.3911" y="-888.7665" font-family="Times,serif" font-size="25.00" fill="#000000">Гoул нет</text>
</a>
</g>
</g>
<!-- Rink&#45;&gt;Goal net -->
<g id="edge3" class="edge">
<title>Rink&#45;&gt;Goal net</title>
<path fill="none" stroke="#000000" stroke-dasharray="5,2" d="M542.9234,-950.3944C532.2124,-947.9187 520.7725,-945.2746 509.3732,-942.6398"/>
<polygon fill="#000000" stroke="#000000" points="499.3853,-940.3313 510.1418,-938.1989 504.2568,-941.4573 509.1284,-942.5833 509.1284,-942.5833 509.1284,-942.5833 504.2568,-941.4573 508.115,-946.9677 499.3853,-940.3313 499.3853,-940.3313"/>
</g>
<!-- Opponent -->
<g id="node6" class="node has&#45;pronunciation">
<title>Opponent</title>
<g id="a_node6"><a xlink:href="../opponent.html" xlink:title="Противник" target="_top">
<ellipse fill="none" stroke="#c0c0c0" stroke-width=".2" cx="244.1506" cy="-1239.9347" rx="60.623" ry="60.623"/>
<text text-anchor="middle" x="244.1506" y="-1253.4347" font-family="Times,serif" font-size="15.00" fill="#000000">Opponent</text>
<text text-anchor="middle" x="244.1506" y="-1236.4347" font-family="Times,serif" font-size="15.00" fill="#000000">Противник</text>
<text text-anchor="middle" x="244.1506" y="-1219.4347" font-family="Times,serif" font-size="15.00" fill="#000000">Эˈпoунэнт</text>
</a>
</g>
</g>
<!-- Opponent&#45;&gt;Team -->
<g id="edge4" class="edge">
<title>Opponent&#45;&gt;Team</title>
<path fill="none" stroke="#000000" stroke-dasharray="5,2" d="M220.3866,-1183.5613C194.8915,-1123.0815 154.6229,-1027.5556 129.0248,-966.8314"/>
<polygon fill="#000000" stroke="#000000" points="125.0469,-957.395 133.078,-964.8617 126.9892,-962.0024 128.9314,-966.6097 128.9314,-966.6097 128.9314,-966.6097 126.9892,-962.0024 124.7848,-968.3578 125.0469,-957.395 125.0469,-957.395"/>
</g>
<!-- Opponent&#45;&gt;Player -->
<g id="edge5" class="edge">
<title>Opponent&#45;&gt;Player</title>
<path fill="none" stroke="#000000" stroke-dasharray="5,2" d="M239.476,-1179.2598C233.132,-1096.9155 221.8784,-950.8465 215.68,-870.3932"/>
<polygon fill="#000000" stroke="#000000" points="214.8766,-859.9652 220.1315,-869.5899 215.2607,-864.9504 215.6448,-869.9356 215.6448,-869.9356 215.6448,-869.9356 215.2607,-864.9504 211.1581,-870.2814 214.8766,-859.9652 214.8766,-859.9652"/>
</g>
<!-- Opponent&#45;&gt;Goal net -->
<g id="edge9" class="edge">
<title>Opponent&#45;&gt;Goal net</title>
<path fill="none" stroke="#000000" stroke-dasharray="5,2" d="M274.1514,-1186.8478C303.1106,-1135.6042 347.2697,-1057.4642 380.0475,-999.4635"/>
<polygon fill="#000000" stroke="#000000" points="385.0018,-990.6968 383.9995,-1001.6168 382.5418,-995.0498 380.0818,-999.4028 380.0818,-999.4028 380.0818,-999.4028 382.5418,-995.0498 376.1641,-997.1888 385.0018,-990.6968 385.0018,-990.6968"/>
</g>
<!-- Stick -->
<g id="node7" class="node has&#45;pronunciation">
<title>Stick</title>
<g id="a_node7"><a xlink:href="../stick.html" xlink:title="Клюшка" target="_top">
<ellipse fill="none" stroke="#c0c0c0" stroke-width=".2" cx="525.1155" cy="-176.3939" rx="48.5816" ry="48.5816"/>
<text text-anchor="middle" x="525.1155" y="-189.8939" font-family="Times,serif" font-size="15.00" fill="#000000">Stick</text>
<text text-anchor="middle" x="525.1155" y="-172.8939" font-family="Times,serif" font-size="15.00" fill="#000000">Клюшка</text>
<text text-anchor="middle" x="525.1155" y="-155.8939" font-family="Times,serif" font-size="15.00" fill="#000000">Стик</text>
</a>
</g>
</g>
<!-- Puck -->
<g id="node8" class="node has&#45;pronunciation">
<title>Puck</title>
<g id="a_node8"><a xlink:href="../puck.html" xlink:title="Шайба" target="_top">
<ellipse fill="none" stroke="#c0c0c0" stroke-width=".2" cx="533.8729" cy="-514.0676" rx="65.1077" ry="65.1077"/>
<text text-anchor="middle" x="533.8729" y="-536.0676" font-family="Times,serif" font-size="25.00" fill="#000000">Puck</text>
<text text-anchor="middle" x="533.8729" y="-508.0676" font-family="Times,serif" font-size="25.00" fill="#000000">Шайба</text>
<text text-anchor="middle" x="533.8729" y="-480.0676" font-family="Times,serif" font-size="25.00" fill="#000000">Пак</text>
</a>
</g>
</g>
<!-- Stick&#45;&gt;Puck -->
<g id="edge6" class="edge">
<title>Stick&#45;&gt;Puck</title>
<path fill="none" stroke="#000000" stroke-dasharray="5,2" d="M526.3889,-225.4946C527.8411,-281.4894 530.2321,-373.6852 531.9202,-438.776"/>
<polygon fill="#000000" stroke="#000000" points="532.1848,-448.9802 527.427,-439.1003 532.0552,-443.9819 531.9255,-438.9836 531.9255,-438.9836 531.9255,-438.9836 532.0552,-443.9819 536.424,-438.8669 532.1848,-448.9802 532.1848,-448.9802"/>
</g>
<!-- Puck&#45;&gt;Ice -->
<g id="edge7" class="edge">
<title>Puck&#45;&gt;Ice</title>
<path fill="none" stroke="#000000" stroke-dasharray="5,2" d="M588.7825,-549.4759C627.7907,-574.6303 679.4711,-607.9563 715.7159,-631.3287"/>
<polygon fill="#000000" stroke="#000000" points="724.1209,-636.7486 713.278,-635.1111 719.9188,-634.0389 715.7167,-631.3292 715.7167,-631.3292 715.7167,-631.3292 719.9188,-634.0389 718.1555,-627.5473 724.1209,-636.7486 724.1209,-636.7486"/>
</g>
<!-- Puck&#45;&gt;Goal net -->
<g id="edge8" class="edge">
<title>Puck&#45;&gt;Goal net</title>
<path fill="none" stroke="#000000" stroke-dasharray="5,2" d="M516.8522,-577.0311C497.958,-646.9254 467.3632,-760.1028 446.3577,-837.8076"/>
<polygon fill="#000000" stroke="#000000" points="443.7167,-847.5771 441.9823,-836.7492 445.0216,-842.7503 446.3264,-837.9236 446.3264,-837.9236 446.3264,-837.9236 445.0216,-842.7503 450.6705,-839.0979 443.7167,-847.5771 443.7167,-847.5771"/>
</g>
<!-- Score -->
<g id="node10" class="node has&#45;pronunciation">
<title>Score</title>
<g id="a_node10"><a xlink:href="../score.html" xlink:title="Счёт" target="_top">
<ellipse fill="none" stroke="#c0c0c0" stroke-width=".2" cx="135.3215" cy="-65.0538" rx="65.1077" ry="65.1077"/>
<text text-anchor="middle" x="135.3215" y="-87.0538" font-family="Times,serif" font-size="25.00" fill="#000000">Score</text>
<text text-anchor="middle" x="135.3215" y="-59.0538" font-family="Times,serif" font-size="25.00" fill="#000000">Счёт</text>
<text text-anchor="middle" x="135.3215" y="-31.0538" font-family="Times,serif" font-size="25.00" fill="#000000">Скор</text>
</a>
</g>
</g>
<!-- Score&#45;&gt;Goal -->
<g id="edge11" class="edge">
<title>Score&#45;&gt;Goal</title>
<path fill="none" stroke="#000000" stroke-dasharray="5,2" d="M163.75,-123.8002C192.4016,-183.0073 236.5791,-274.2982 266.7229,-336.589"/>
<polygon fill="#000000" stroke="#000000" points="271.2502,-345.9446 262.8435,-338.9033 269.0722,-341.4438 266.8942,-336.9431 266.8942,-336.9431 266.8942,-336.9431 269.0722,-341.4438 270.9448,-334.9829 271.2502,-345.9446 271.2502,-345.9446"/>
</g>
<!-- Point -->
<g id="node12" class="node has&#45;pronunciation">
<title>Point</title>
<g id="a_node12"><a xlink:href="../point.html" xlink:title="Очко" target="_top">
<ellipse fill="none" stroke="#c0c0c0" stroke-width=".2" cx="41.7193" cy="-471.9284" rx="41.9398" ry="41.9398"/>
<text text-anchor="middle" x="41.7193" y="-485.4284" font-family="Times,serif" font-size="15.00" fill="#000000">Point</text>
<text text-anchor="middle" x="41.7193" y="-468.4284" font-family="Times,serif" font-size="15.00" fill="#000000">Очко</text>
<text text-anchor="middle" x="41.7193" y="-451.4284" font-family="Times,serif" font-size="15.00" fill="#000000">Пойнт</text>
</a>
</g>
</g>
<!-- Score&#45;&gt;Point -->
<g id="edge12" class="edge">
<title>Score&#45;&gt;Point</title>
<path fill="none" stroke="#000000" stroke-dasharray="5,2" d="M120.6961,-128.628C102.1335,-209.3169 70.4821,-346.9008 53.4293,-421.0269"/>
<polygon fill="#000000" stroke="#000000" points="51.1228,-431.0528 48.9794,-420.2984 52.2438,-426.18 53.3648,-421.3073 53.3648,-421.3073 53.3648,-421.3073 52.2438,-426.18 57.7503,-422.3162 51.1228,-431.0528 51.1228,-431.0528"/>
</g>
<!-- Goal&#45;&gt;Goal net -->
<g id="edge19" class="edge">
<title>Goal&#45;&gt;Goal net</title>
<path fill="none" stroke="#000000" stroke-dasharray="5,2" d="M304.8672,-469.4357C309.6975,-519.0161 318.2508,-588.8121 332.1159,-648.847 347.3057,-714.6179 371.7717,-786.99 391.5515,-840.8189"/>
<polygon fill="#000000" stroke="#000000" points="395.0606,-850.3088 387.3716,-842.4902 393.3265,-845.6191 391.5923,-840.9294 391.5923,-840.9294 391.5923,-840.9294 393.3265,-845.6191 395.813,-839.3687 395.0606,-850.3088 395.0606,-850.3088"/>
</g>
<!-- Goal&#45;&gt;Puck -->
<g id="edge18" class="edge">
<title>Goal&#45;&gt;Puck</title>
<path fill="none" stroke="#000000" stroke-dasharray="5,2" d="M358.7211,-432.1783C391.1824,-447.355 431.5969,-466.2501 465.4225,-482.0647"/>
<polygon fill="#000000" stroke="#000000" points="474.7762,-486.4379 463.8115,-486.2791 470.2468,-484.3203 465.7174,-482.2026 465.7174,-482.2026 465.7174,-482.2026 470.2468,-484.3203 467.6233,-478.1261 474.7762,-486.4379 474.7762,-486.4379"/>
</g>
<!-- Point&#45;&gt;Team -->
<g id="edge17" class="edge">
<title>Point&#45;&gt;Team</title>
<path fill="none" stroke="#000000" stroke-dasharray="5,2" d="M47.7289,-513.5191C58.927,-591.0171 83.0318,-757.8383 96.1124,-848.3646"/>
<polygon fill="#000000" stroke="#000000" points="97.5742,-858.4817 91.6903,-849.228 96.8592,-853.5331 96.1441,-848.5844 96.1441,-848.5844 96.1441,-848.5844 96.8592,-853.5331 100.5978,-847.9409 97.5742,-858.4817 97.5742,-858.4817"/>
</g>
<!-- Point&#45;&gt;Player -->
<g id="edge16" class="edge">
<title>Point&#45;&gt;Player</title>
<path fill="none" stroke="#000000" stroke-dasharray="5,2" d="M60.3504,-509.4364C90.8961,-570.931 151.6597,-693.2603 186.0409,-762.4766"/>
<polygon fill="#000000" stroke="#000000" points="190.5072,-771.4681 182.0283,-764.514 188.2829,-766.9901 186.0585,-762.5121 186.0585,-762.5121 186.0585,-762.5121 188.2829,-766.9901 190.0887,-760.5102 190.5072,-771.4681 190.5072,-771.4681"/>
</g>
<!-- Point&#45;&gt;Goal -->
<g id="edge13" class="edge">
<title>Point&#45;&gt;Goal</title>
<path fill="none" stroke="#000000" stroke-dasharray="5,2" d="M82.2977,-461.3248C120.9658,-451.2203 180.0622,-435.7778 226.8711,-423.5461"/>
<polygon fill="#000000" stroke="#000000" points="236.6613,-420.9878 228.1239,-427.8699 231.8237,-422.252 226.9862,-423.5161 226.9862,-423.5161 226.9862,-423.5161 231.8237,-422.252 225.8484,-419.1623 236.6613,-420.9878 236.6613,-420.9878"/>
</g>
<!-- Hockey -->
<g id="node13" class="node root has&#45;pronunciation">
<title>Hockey</title>
<g id="a_node13"><a xlink:href="../hockey.html" xlink:title="Хоккей" target="_top">
<ellipse fill="none" stroke="#c0c0c0" stroke-width=".2" cx="378.9705" cy="-648.9862" rx="45.011" ry="45.011"/>
<text text-anchor="middle" x="378.9705" y="-662.4862" font-family="Times,serif" font-size="15.00" fill="#000000">Hockey</text>
<text text-anchor="middle" x="378.9705" y="-645.4862" font-family="Times,serif" font-size="15.00" fill="#000000">Хоккей</text>
<text text-anchor="middle" x="378.9705" y="-628.4862" font-family="Times,serif" font-size="15.00" fill="#000000">ˈХаки</text>
</a>
</g>
</g>
<!-- Hockey&#45;&gt;Team -->
<g id="edge20" class="edge">
<title>Hockey&#45;&gt;Team</title>
<path fill="none" stroke="#000000" stroke-dasharray="5,2" d="M337.6386,-667.9457C293.6172,-689.7527 223.9898,-729.0587 177.3524,-778.9554 157.3886,-800.3145 140.9866,-828.2057 128.8759,-852.7491"/>
<polygon fill="#000000" stroke="#000000" points="124.446,-861.9711 124.7197,-851.0086 126.611,-857.4641 128.776,-852.9571 128.776,-852.9571 128.776,-852.9571 126.611,-857.4641 132.8323,-854.9056 124.446,-861.9711 124.446,-861.9711"/>
</g>
<!-- Hockey&#45;&gt;Player -->
<g id="edge23" class="edge">
<title>Hockey&#45;&gt;Player</title>
<path fill="none" stroke="#000000" stroke-dasharray="5,2" d="M346.6382,-680.6654C319.6149,-707.1428 280.9357,-745.0407 251.8393,-773.5494"/>
<polygon fill="#000000" stroke="#000000" points="244.6613,-780.5824 248.6548,-770.3695 248.2328,-777.0831 251.8042,-773.5838 251.8042,-773.5838 251.8042,-773.5838 248.2328,-777.0831 254.9536,-776.7981 244.6613,-780.5824 244.6613,-780.5824"/>
</g>
<!-- Hockey&#45;&gt;Rink -->
<g id="edge22" class="edge">
<title>Hockey&#45;&gt;Rink</title>
<path fill="none" stroke="#000000" stroke-dasharray="5,2" d="M405.0696,-686.2818C443.519,-741.226 515.6414,-844.2888 560.2601,-908.0489"/>
<polygon fill="#000000" stroke="#000000" points="566.0981,-916.3914 556.6777,-910.7784 563.2313,-912.2949 560.3646,-908.1983 560.3646,-908.1983 560.3646,-908.1983 563.2313,-912.2949 564.0515,-905.6182 566.0981,-916.3914 566.0981,-916.3914"/>
</g>
<!-- Hockey&#45;&gt;Goal net -->
<g id="edge26" class="edge">
<title>Hockey&#45;&gt;Goal net</title>
<path fill="none" stroke="#000000" stroke-dasharray="5,2" d="M386.256,-693.8888C392.4947,-732.3405 401.6576,-788.8148 409.3203,-836.0432"/>
<polygon fill="#000000" stroke="#000000" points="410.9311,-845.9711 404.8876,-836.8209 410.1303,-841.0356 409.3295,-836.1001 409.3295,-836.1001 409.3295,-836.1001 410.1303,-841.0356 413.7714,-835.3794 410.9311,-845.9711 410.9311,-845.9711"/>
</g>
<!-- Hockey&#45;&gt;Stick -->
<g id="edge24" class="edge">
<title>Hockey&#45;&gt;Stick</title>
<path fill="none" stroke="#000000" stroke-dasharray="5,2" d="M392.4576,-605.3729C419.04,-519.4125 478.1746,-328.1878 507.6762,-232.7878"/>
<polygon fill="#000000" stroke="#000000" points="510.6942,-223.0284 512.0389,-233.9115 509.217,-227.8052 507.7398,-232.582 507.7398,-232.582 507.7398,-232.582 509.217,-227.8052 503.4406,-231.2525 510.6942,-223.0284 510.6942,-223.0284"/>
</g>
<!-- Hockey&#45;&gt;Puck -->
<g id="edge25" class="edge">
<title>Hockey&#45;&gt;Puck</title>
<path fill="none" stroke="#000000" stroke-dasharray="5,2" d="M413.3484,-619.0434C432.0034,-602.795 455.5468,-582.2889 476.8646,-563.7213"/>
<polygon fill="#000000" stroke="#000000" points="484.6047,-556.9797 480.0195,-566.941 480.8343,-560.2637 477.0639,-563.5477 477.0639,-563.5477 477.0639,-563.5477 480.8343,-560.2637 474.1084,-560.1543 484.6047,-556.9797 484.6047,-556.9797"/>
</g>
<!-- Hockey&#45;&gt;Sport -->
<g id="edge21" class="edge">
<title>Hockey&#45;&gt;Sport</title>
<path fill="none" stroke="#000000" stroke-dasharray="5,2" d="M336.7994,-631.9748C296.0646,-615.5428 234.5168,-590.7151 192.4329,-573.7389"/>
<polygon fill="#000000" stroke="#000000" points="182.9719,-569.9224 193.9292,-569.4902 187.6088,-571.793 192.2458,-573.6635 192.2458,-573.6635 192.2458,-573.6635 187.6088,-571.793 190.5623,-577.8367 182.9719,-569.9224 182.9719,-569.9224"/>
</g>
<!-- Hockey&#45;&gt;Goal -->
<g id="edge27" class="edge">
<title>Hockey&#45;&gt;Goal</title>
<path fill="none" stroke="#000000" stroke-dasharray="5,2" d="M364.9644,-605.8467C353.3222,-569.9885 336.5127,-518.2147 322.8564,-476.153"/>
<polygon fill="#000000" stroke="#000000" points="319.7265,-466.5128 327.0947,-474.6344 321.2706,-471.2684 322.8146,-476.024 322.8146,-476.024 322.8146,-476.024 321.2706,-471.2684 318.5345,-477.4137 319.7265,-466.5128 319.7265,-466.5128"/>
</g>
</g>
</svg>
