<?xml version="1.0" encoding="UTF-8" standalone="no"?>
<?xml-stylesheet href="../static/svg.css" type="text/css"?>
<!DOCTYPE svg PUBLIC "-//W3C//DTD SVG 1.1//EN"
 "http://www.w3.org/Graphics/SVG/1.1/DTD/svg11.dtd">
<!-- Generated by graphviz version 2.40.1 (20161225.0304)
 -->
<!-- Title: term Pages: 1 -->
<svg width="276pt" height="365pt"
 viewBox="0.00 0.00 276.22 365.36" xmlns="http://www.w3.org/2000/svg" xmlns:xlink="http://www.w3.org/1999/xlink">
<g id="graph0" class="graph" transform="scale(1 1) rotate(0) translate(4 361.3618)">
<title>term</title>
<!-- Score -->
<g id="node1" class="node root has&#45;pronunciation">
<title>Score</title>
<g id="a_node1"><a xlink:href="javascript:history.back()" xlink:title="Счёт" target="_top">
<ellipse fill="none" stroke="#c0c0c0" stroke-width=".2" cx="65.0538" cy="-290.4055" rx="65.1077" ry="65.1077"/>
<text text-anchor="middle" x="65.0538" y="-312.4055" font-family="Times,serif" font-size="25.00" fill="#000000">Score</text>
<text text-anchor="middle" x="65.0538" y="-284.4055" font-family="Times,serif" font-size="25.00" fill="#000000">Счёт</text>
<text text-anchor="middle" x="65.0538" y="-256.4055" font-family="Times,serif" font-size="25.00" fill="#000000">Скор</text>
</a>
</g>
</g>
<!-- Goal -->
<g id="node2" class="node has&#45;pronunciation">
<title>Goal</title>
<g id="a_node2"><a xlink:href="../goal.html" xlink:title="Гол" target="_top">
<ellipse fill="none" stroke="#c0c0c0" stroke-width=".2" cx="203.1615" cy="-292.308" rx="65.1077" ry="65.1077"/>
<text text-anchor="middle" x="203.1615" y="-314.308" font-family="Times,serif" font-size="25.00" fill="#000000">Goal</text>
<text text-anchor="middle" x="203.1615" y="-286.308" font-family="Times,serif" font-size="25.00" fill="#000000">Гол</text>
<text text-anchor="middle" x="203.1615" y="-258.308" font-family="Times,serif" font-size="25.00" fill="#000000">Гoул</text>
</a>
</g>
</g>
<!-- Score&#45;&gt;Goal -->
<g id="edge2" class="edge">
<title>Score&#45;&gt;Goal</title>
<path fill="none" stroke="#000000" stroke-dasharray="5,2" d="M130.4676,-291.3066C130.6245,-291.3088 130.7814,-291.3109 130.9383,-291.3131"/>
<polygon fill="#000000" stroke="#000000" points="138.0034,-291.4104 127.9423,-295.7721 133.0038,-291.3415 128.0043,-291.2726 128.0043,-291.2726 128.0043,-291.2726 133.0038,-291.3415 128.0664,-286.773 138.0034,-291.4104 138.0034,-291.4104"/>
</g>
<!-- Point -->
<g id="node3" class="node has&#45;pronunciation">
<title>Point</title>
<g id="a_node3"><a xlink:href="../point.html" xlink:title="Очко" target="_top">
<ellipse fill="none" stroke="#c0c0c0" stroke-width=".2" cx="135.0428" cy="-41.7193" rx="41.9398" ry="41.9398"/>
<text text-anchor="middle" x="135.0428" y="-55.2193" font-family="Times,serif" font-size="15.00" fill="#000000">Point</text>
<text text-anchor="middle" x="135.0428" y="-38.2193" font-family="Times,serif" font-size="15.00" fill="#000000">Очко</text>
<text text-anchor="middle" x="135.0428" y="-21.2193" font-family="Times,serif" font-size="15.00" fill="#000000">Пойнт</text>
</a>
</g>
</g>
<!-- Score&#45;&gt;Point -->
<g id="edge3" class="edge">
<title>Score&#45;&gt;Point</title>
<path fill="none" stroke="#000000" stroke-dasharray="5,2" d="M82.715,-227.6515C94.5241,-185.6912 109.8563,-131.2125 120.8675,-92.0872"/>
<polygon fill="#000000" stroke="#000000" points="123.6397,-82.2372 125.2622,-93.0824 122.2851,-87.0502 120.9305,-91.8632 120.9305,-91.8632 120.9305,-91.8632 122.2851,-87.0502 116.5988,-90.6441 123.6397,-82.2372 123.6397,-82.2372"/>
</g>
<!-- Point&#45;&gt;Goal -->
<g id="edge1" class="edge">
<title>Point&#45;&gt;Goal</title>
<path fill="none" stroke="#000000" stroke-dasharray="5,2" d="M145.9873,-81.9807C156.0431,-118.9731 171.1887,-174.6895 183.3656,-219.4848"/>
<polygon fill="#000000" stroke="#000000" points="185.9949,-229.1573 179.0293,-220.688 184.6833,-224.3324 183.3717,-219.5075 183.3717,-219.5075 183.3717,-219.5075 184.6833,-224.3324 187.7141,-218.327 185.9949,-229.1573 185.9949,-229.1573"/>
</g>
</g>
</svg>
