<?xml version="1.0" encoding="UTF-8" standalone="no"?>
<?xml-stylesheet href="../static/svg.css" type="text/css"?>
<!DOCTYPE svg PUBLIC "-//W3C//DTD SVG 1.1//EN"
 "http://www.w3.org/Graphics/SVG/1.1/DTD/svg11.dtd">
<!-- Generated by graphviz version 2.40.1 (20161225.0304)
 -->
<!-- Title: term Pages: 1 -->
<svg width="372pt" height="586pt"
 viewBox="0.00 0.00 371.81 586.16" xmlns="http://www.w3.org/2000/svg" xmlns:xlink="http://www.w3.org/1999/xlink">
<g id="graph0" class="graph" transform="scale(1 1) rotate(0) translate(4 582.1627)">
<title>term</title>
<!-- Opponent -->
<g id="node1" class="node root has&#45;pronunciation">
<title>Opponent</title>
<g id="a_node1"><a xlink:href="javascript:history.back()" xlink:title="Противник" target="_top">
<ellipse fill="none" stroke="#c0c0c0" stroke-width=".2" cx="161.165" cy="-304.4073" rx="60.623" ry="60.623"/>
<text text-anchor="middle" x="161.165" y="-317.9073" font-family="Times,serif" font-size="15.00" fill="#000000">Opponent</text>
<text text-anchor="middle" x="161.165" y="-300.9073" font-family="Times,serif" font-size="15.00" fill="#000000">Противник</text>
<text text-anchor="middle" x="161.165" y="-283.9073" font-family="Times,serif" font-size="15.00" fill="#000000">Эˈпoунэнт</text>
</a>
</g>
</g>
<!-- Team -->
<g id="node2" class="node has&#45;pronunciation">
<title>Team</title>
<g id="a_node2"><a xlink:href="../team.html" xlink:title="Команда" target="_top">
<ellipse fill="none" stroke="#c0c0c0" stroke-width=".2" cx="312.1953" cy="-205.6108" rx="51.7379" ry="51.7379"/>
<text text-anchor="middle" x="312.1953" y="-219.1108" font-family="Times,serif" font-size="15.00" fill="#000000">Team</text>
<text text-anchor="middle" x="312.1953" y="-202.1108" font-family="Times,serif" font-size="15.00" fill="#000000">Команда</text>
<text text-anchor="middle" x="312.1953" y="-185.1108" font-family="Times,serif" font-size="15.00" fill="#000000">Тим</text>
</a>
</g>
</g>
<!-- Opponent&#45;&gt;Team -->
<g id="edge2" class="edge">
<title>Opponent&#45;&gt;Team</title>
<path fill="none" stroke="#000000" stroke-dasharray="5,2" d="M212.297,-270.9593C227.7488,-260.8515 244.7265,-249.7455 260.232,-239.6026"/>
<polygon fill="#000000" stroke="#000000" points="268.6757,-234.0791 262.7706,-243.3193 264.4915,-236.8163 260.3072,-239.5535 260.3072,-239.5535 260.3072,-239.5535 264.4915,-236.8163 257.8437,-235.7876 268.6757,-234.0791 268.6757,-234.0791"/>
</g>
<!-- Player -->
<g id="node3" class="node has&#45;pronunciation">
<title>Player</title>
<g id="a_node3"><a xlink:href="../player.html" xlink:title="Игрок" target="_top">
<ellipse fill="none" stroke="#c0c0c0" stroke-width=".2" cx="185.6177" cy="-46.669" rx="46.8387" ry="46.8387"/>
<text text-anchor="middle" x="185.6177" y="-60.169" font-family="Times,serif" font-size="15.00" fill="#000000">Player</text>
<text text-anchor="middle" x="185.6177" y="-43.169" font-family="Times,serif" font-size="15.00" fill="#000000">Игрок</text>
<text text-anchor="middle" x="185.6177" y="-26.169" font-family="Times,serif" font-size="15.00" fill="#000000">&#39;Плейэр</text>
</a>
</g>
</g>
<!-- Opponent&#45;&gt;Player -->
<g id="edge3" class="edge">
<title>Opponent&#45;&gt;Player</title>
<path fill="none" stroke="#000000" stroke-dasharray="5,2" d="M166.929,-243.6533C170.9596,-201.1692 176.3052,-144.8249 180.2465,-103.2822"/>
<polygon fill="#000000" stroke="#000000" points="181.1913,-93.3243 184.7266,-103.7046 180.719,-98.3019 180.2467,-103.2796 180.2467,-103.2796 180.2467,-103.2796 180.719,-98.3019 175.7668,-102.8545 181.1913,-93.3243 181.1913,-93.3243"/>
</g>
<!-- Goal net -->
<g id="node4" class="node has&#45;pronunciation">
<title>Goal net</title>
<g id="a_node4"><a xlink:href="../goal-net.html" xlink:title="Ворота" target="_top">
<ellipse fill="none" stroke="#c0c0c0" stroke-width=".2" cx="62.9325" cy="-515.2302" rx="62.8651" ry="62.8651"/>
<text text-anchor="middle" x="62.9325" y="-532.2302" font-family="Times,serif" font-size="20.00" fill="#000000">Goal net</text>
<text text-anchor="middle" x="62.9325" y="-510.2302" font-family="Times,serif" font-size="20.00" fill="#000000">Ворота</text>
<text text-anchor="middle" x="62.9325" y="-488.2302" font-family="Times,serif" font-size="20.00" fill="#000000">Гoул нет</text>
</a>
</g>
</g>
<!-- Opponent&#45;&gt;Goal net -->
<g id="edge4" class="edge">
<title>Opponent&#45;&gt;Goal net</title>
<path fill="none" stroke="#000000" stroke-dasharray="5,2" d="M135.3555,-359.7986C122.6347,-387.0995 107.1986,-420.228 93.8508,-448.8745"/>
<polygon fill="#000000" stroke="#000000" points="89.5966,-458.0047 89.7412,-447.0398 91.7084,-453.4725 93.8201,-448.9404 93.8201,-448.9404 93.8201,-448.9404 91.7084,-453.4725 97.8991,-450.841 89.5966,-458.0047 89.5966,-458.0047"/>
</g>
<!-- Team&#45;&gt;Player -->
<g id="edge1" class="edge">
<title>Team&#45;&gt;Player</title>
<path fill="none" stroke="#000000" stroke-dasharray="5,2" d="M279.9269,-165.0918C261.9743,-142.549 239.5974,-114.4507 221.1464,-91.2819"/>
<polygon fill="#000000" stroke="#000000" points="214.7974,-83.3097 224.5473,-88.3288 217.9123,-87.2209 221.0271,-91.1322 221.0271,-91.1322 221.0271,-91.1322 217.9123,-87.2209 217.507,-93.9355 214.7974,-83.3097 214.7974,-83.3097"/>
</g>
</g>
</svg>
