<?xml version="1.0" encoding="UTF-8" standalone="no"?>
<?xml-stylesheet href="../static/svg.css" type="text/css"?>
<!DOCTYPE svg PUBLIC "-//W3C//DTD SVG 1.1//EN"
 "http://www.w3.org/Graphics/SVG/1.1/DTD/svg11.dtd">
<!-- Generated by graphviz version 2.40.1 (20161225.0304)
 -->
<!-- Title: term Pages: 1 -->
<svg width="672pt" height="1078pt"
 viewBox="0.00 0.00 672.37 1078.45" xmlns="http://www.w3.org/2000/svg" xmlns:xlink="http://www.w3.org/1999/xlink">
<g id="graph0" class="graph" transform="scale(1 1) rotate(0) translate(4 1074.4468)">
<title>term</title>
<!-- Player -->
<g id="node1" class="node root has&#45;pronunciation">
<title>Player</title>
<g id="a_node1"><a xlink:href="javascript:history.back()" xlink:title="Игрок" target="_top">
<ellipse fill="none" stroke="#c0c0c0" stroke-width=".2" cx="326.3518" cy="-591.5723" rx="46.8387" ry="46.8387"/>
<text text-anchor="middle" x="326.3518" y="-605.0723" font-family="Times,serif" font-size="15.00" fill="#000000">Player</text>
<text text-anchor="middle" x="326.3518" y="-588.0723" font-family="Times,serif" font-size="15.00" fill="#000000">Игрок</text>
<text text-anchor="middle" x="326.3518" y="-571.0723" font-family="Times,serif" font-size="15.00" fill="#000000">&#39;Плейэр</text>
</a>
</g>
</g>
<!-- Goal -->
<g id="node6" class="node has&#45;pronunciation">
<title>Goal</title>
<g id="a_node6"><a xlink:href="../goal.html" xlink:title="Гол" target="_top">
<ellipse fill="none" stroke="#c0c0c0" stroke-width=".2" cx="406.8155" cy="-1018.1209" rx="52.1524" ry="52.1524"/>
<text text-anchor="middle" x="406.8155" y="-1035.1209" font-family="Times,serif" font-size="20.00" fill="#000000">Goal</text>
<text text-anchor="middle" x="406.8155" y="-1013.1209" font-family="Times,serif" font-size="20.00" fill="#000000">Гол</text>
<text text-anchor="middle" x="406.8155" y="-991.1209" font-family="Times,serif" font-size="20.00" fill="#000000">Гoул</text>
</a>
</g>
</g>
<!-- Player&#45;&gt;Goal -->
<g id="edge16" class="edge">
<title>Player&#45;&gt;Goal</title>
<path fill="none" stroke="#000000" stroke-dasharray="5,2" d="M335.0393,-637.6257C349.6001,-714.8143 378.934,-870.3172 395.2323,-956.717"/>
<polygon fill="#000000" stroke="#000000" points="397.1053,-966.6455 390.8295,-957.6531 396.1784,-961.7322 395.2515,-956.8189 395.2515,-956.8189 395.2515,-956.8189 396.1784,-961.7322 399.6735,-955.9847 397.1053,-966.6455 397.1053,-966.6455"/>
</g>
<!-- Sport -->
<g id="node7" class="node">
<title>Sport</title>
<g id="a_node7"><a xlink:href="../sport.html" xlink:title="Спорт" target="_top">
<ellipse fill="none" stroke="#c0c0c0" stroke-width=".2" cx="39.598" cy="-337.1658" rx="39.6962" ry="39.6962"/>
<text text-anchor="middle" x="39.598" y="-342.1658" font-family="Times,serif" font-size="15.00" fill="#000000">Sport</text>
<text text-anchor="middle" x="39.598" y="-325.1658" font-family="Times,serif" font-size="15.00" fill="#000000">Спорт</text>
</a>
</g>
</g>
<!-- Player&#45;&gt;Sport -->
<g id="edge17" class="edge">
<title>Player&#45;&gt;Sport</title>
<path fill="none" stroke="#000000" stroke-dasharray="5,2" d="M291.1902,-560.3771C236.7698,-512.0956 132.6216,-419.6959 76.9184,-370.2763"/>
<polygon fill="#000000" stroke="#000000" points="69.3901,-363.5972 79.857,-366.8677 73.1303,-366.9155 76.8705,-370.2338 76.8705,-370.2338 76.8705,-370.2338 73.1303,-366.9155 73.8841,-373.6 69.3901,-363.5972 69.3901,-363.5972"/>
</g>
<!-- Shot -->
<g id="node8" class="node has&#45;pronunciation">
<title>Shot</title>
<g id="a_node8"><a xlink:href="../shot.html" xlink:title="Бросок" target="_top">
<ellipse fill="none" stroke="#c0c0c0" stroke-width=".2" cx="597.1988" cy="-826.5269" rx="67.3507" ry="67.3507"/>
<text text-anchor="middle" x="597.1988" y="-848.5269" font-family="Times,serif" font-size="25.00" fill="#000000">Shot</text>
<text text-anchor="middle" x="597.1988" y="-820.5269" font-family="Times,serif" font-size="25.00" fill="#000000">Бросок</text>
<text text-anchor="middle" x="597.1988" y="-792.5269" font-family="Times,serif" font-size="25.00" fill="#000000">Шат</text>
</a>
</g>
</g>
<!-- Player&#45;&gt;Shot -->
<g id="edge18" class="edge">
<title>Player&#45;&gt;Shot</title>
<path fill="none" stroke="#000000" stroke-dasharray="5,2" d="M361.7603,-622.2885C406.588,-661.1757 484.4504,-728.7198 538.2928,-775.427"/>
<polygon fill="#000000" stroke="#000000" points="546.0557,-782.1612 535.553,-779.0075 542.2787,-778.8847 538.5018,-775.6083 538.5018,-775.6083 538.5018,-775.6083 542.2787,-778.8847 541.4506,-772.2091 546.0557,-782.1612 546.0557,-782.1612"/>
</g>
<!-- Game -->
<g id="node9" class="node has&#45;pronunciation">
<title>Game</title>
<g id="a_node9"><a xlink:href="../game.html" xlink:title="Игра" target="_top">
<ellipse fill="none" stroke="#c0c0c0" stroke-width=".2" cx="253.6193" cy="-81.1607" rx="52.1524" ry="52.1524"/>
<text text-anchor="middle" x="253.6193" y="-98.1607" font-family="Times,serif" font-size="20.00" fill="#000000">Game</text>
<text text-anchor="middle" x="253.6193" y="-76.1607" font-family="Times,serif" font-size="20.00" fill="#000000">Игра</text>
<text text-anchor="middle" x="253.6193" y="-54.1607" font-family="Times,serif" font-size="20.00" fill="#000000">Гейм</text>
</a>
</g>
</g>
<!-- Player&#45;&gt;Game -->
<g id="edge19" class="edge">
<title>Player&#45;&gt;Game</title>
<path fill="none" stroke="#000000" stroke-dasharray="5,2" d="M319.7045,-544.9236C306.5535,-452.6347 277.2142,-246.741 262.4558,-143.172"/>
<polygon fill="#000000" stroke="#000000" points="261.0311,-133.174 266.8969,-142.4391 261.7365,-138.1239 262.4419,-143.0739 262.4419,-143.0739 262.4419,-143.0739 261.7365,-138.1239 257.9869,-143.7088 261.0311,-133.174 261.0311,-133.174"/>
</g>
<!-- Team -->
<g id="node2" class="node has&#45;pronunciation">
<title>Team</title>
<g id="a_node2"><a xlink:href="../team.html" xlink:title="Команда" target="_top">
<ellipse fill="none" stroke="#c0c0c0" stroke-width=".2" cx="220.064" cy="-402.3141" rx="51.7379" ry="51.7379"/>
<text text-anchor="middle" x="220.064" y="-415.8141" font-family="Times,serif" font-size="15.00" fill="#000000">Team</text>
<text text-anchor="middle" x="220.064" y="-398.8141" font-family="Times,serif" font-size="15.00" fill="#000000">Команда</text>
<text text-anchor="middle" x="220.064" y="-381.8141" font-family="Times,serif" font-size="15.00" fill="#000000">Тим</text>
</a>
</g>
</g>
<!-- Team&#45;&gt;Player -->
<g id="edge12" class="edge">
<title>Team&#45;&gt;Player</title>
<path fill="none" stroke="#000000" stroke-dasharray="5,2" d="M245.5226,-447.6462C261.4961,-476.089 282.0995,-512.7757 298.5066,-541.9906"/>
<polygon fill="#000000" stroke="#000000" points="303.454,-550.8 294.6337,-544.2844 301.0056,-546.4405 298.5573,-542.0809 298.5573,-542.0809 298.5573,-542.0809 301.0056,-546.4405 302.4809,-539.8774 303.454,-550.8 303.454,-550.8"/>
</g>
<!-- Team&#45;&gt;Sport -->
<g id="edge1" class="edge">
<title>Team&#45;&gt;Sport</title>
<path fill="none" stroke="#000000" stroke-dasharray="5,2" d="M171.2273,-384.6841C144.9399,-375.1943 112.668,-363.5441 86.6579,-354.1545"/>
<polygon fill="#000000" stroke="#000000" points="77.0215,-350.6757 87.9553,-349.8386 81.7244,-352.3735 86.4273,-354.0713 86.4273,-354.0713 86.4273,-354.0713 81.7244,-352.3735 84.8993,-358.3039 77.0215,-350.6757 77.0215,-350.6757"/>
</g>
<!-- Opponent -->
<g id="node3" class="node has&#45;pronunciation">
<title>Opponent</title>
<g id="a_node3"><a xlink:href="../opponent.html" xlink:title="Противник" target="_top">
<ellipse fill="none" stroke="#c0c0c0" stroke-width=".2" cx="454.9688" cy="-60.8112" rx="60.623" ry="60.623"/>
<text text-anchor="middle" x="454.9688" y="-74.3112" font-family="Times,serif" font-size="15.00" fill="#000000">Opponent</text>
<text text-anchor="middle" x="454.9688" y="-57.3112" font-family="Times,serif" font-size="15.00" fill="#000000">Противник</text>
<text text-anchor="middle" x="454.9688" y="-40.3112" font-family="Times,serif" font-size="15.00" fill="#000000">Эˈпoунэнт</text>
</a>
</g>
</g>
<!-- Opponent&#45;&gt;Player -->
<g id="edge13" class="edge">
<title>Opponent&#45;&gt;Player</title>
<path fill="none" stroke="#000000" stroke-dasharray="5,2" d="M440.5891,-120.1513C415.5245,-223.585 364.1835,-435.4528 339.7925,-536.1068"/>
<polygon fill="#000000" stroke="#000000" points="337.377,-546.0747 335.3588,-535.2962 338.5546,-541.2154 339.7322,-536.356 339.7322,-536.356 339.7322,-536.356 338.5546,-541.2154 344.1056,-537.4159 337.377,-546.0747 337.377,-546.0747"/>
</g>
<!-- Opponent&#45;&gt;Team -->
<g id="edge2" class="edge">
<title>Opponent&#45;&gt;Team</title>
<path fill="none" stroke="#000000" stroke-dasharray="5,2" d="M420.3078,-111.2011C376.0325,-175.5682 299.8214,-286.3633 255.2808,-351.1162"/>
<polygon fill="#000000" stroke="#000000" points="249.4787,-359.5512 251.4385,-348.7618 252.3124,-355.4317 255.146,-351.3121 255.146,-351.3121 255.146,-351.3121 252.3124,-355.4317 258.8536,-353.8624 249.4787,-359.5512 249.4787,-359.5512"/>
</g>
<!-- Point -->
<g id="node4" class="node has&#45;pronunciation">
<title>Point</title>
<g id="a_node4"><a xlink:href="../point.html" xlink:title="Очко" target="_top">
<ellipse fill="none" stroke="#c0c0c0" stroke-width=".2" cx="162.4299" cy="-953.6255" rx="41.9398" ry="41.9398"/>
<text text-anchor="middle" x="162.4299" y="-967.1255" font-family="Times,serif" font-size="15.00" fill="#000000">Point</text>
<text text-anchor="middle" x="162.4299" y="-950.1255" font-family="Times,serif" font-size="15.00" fill="#000000">Очко</text>
<text text-anchor="middle" x="162.4299" y="-933.1255" font-family="Times,serif" font-size="15.00" fill="#000000">Пойнт</text>
</a>
</g>
</g>
<!-- Point&#45;&gt;Player -->
<g id="edge14" class="edge">
<title>Point&#45;&gt;Player</title>
<path fill="none" stroke="#000000" stroke-dasharray="5,2" d="M179.6626,-915.5638C209.1631,-850.4064 269.3799,-717.4059 302.7572,-643.6855"/>
<polygon fill="#000000" stroke="#000000" points="307.0854,-634.1259 307.0603,-645.0917 305.0231,-638.6808 302.9608,-643.2357 302.9608,-643.2357 302.9608,-643.2357 305.0231,-638.6808 298.8614,-641.3796 307.0854,-634.1259 307.0854,-634.1259"/>
</g>
<!-- Point&#45;&gt;Team -->
<g id="edge4" class="edge">
<title>Point&#45;&gt;Team</title>
<path fill="none" stroke="#000000" stroke-dasharray="5,2" d="M166.8092,-911.7351C176.8841,-815.3615 201.7473,-577.5266 213.5905,-464.2375"/>
<polygon fill="#000000" stroke="#000000" points="214.6608,-453.9996 218.0966,-464.4133 214.1409,-458.9725 213.621,-463.9454 213.621,-463.9454 213.621,-463.9454 214.1409,-458.9725 209.1454,-463.4775 214.6608,-453.9996 214.6608,-453.9996"/>
</g>
<!-- Point&#45;&gt;Goal -->
<g id="edge3" class="edge">
<title>Point&#45;&gt;Goal</title>
<path fill="none" stroke="#000000" stroke-dasharray="5,2" d="M202.7853,-964.2756C241.7312,-974.5538 301.2046,-990.2493 345.9097,-1002.0474"/>
<polygon fill="#000000" stroke="#000000" points="355.7842,-1004.6533 344.967,-1006.4526 350.9497,-1003.3774 346.1153,-1002.1015 346.1153,-1002.1015 346.1153,-1002.1015 350.9497,-1003.3774 347.2636,-997.7505 355.7842,-1004.6533 355.7842,-1004.6533"/>
</g>
<!-- Hockey -->
<g id="node5" class="node has&#45;pronunciation">
<title>Hockey</title>
<g id="a_node5"><a xlink:href="../hockey.html" xlink:title="Хоккей" target="_top">
<ellipse fill="none" stroke="#c0c0c0" stroke-width=".2" cx="488.9685" cy="-475.4272" rx="45.011" ry="45.011"/>
<text text-anchor="middle" x="488.9685" y="-488.9272" font-family="Times,serif" font-size="15.00" fill="#000000">Hockey</text>
<text text-anchor="middle" x="488.9685" y="-471.9272" font-family="Times,serif" font-size="15.00" fill="#000000">Хоккей</text>
<text text-anchor="middle" x="488.9685" y="-454.9272" font-family="Times,serif" font-size="15.00" fill="#000000">ˈХаки</text>
</a>
</g>
</g>
<!-- Hockey&#45;&gt;Player -->
<g id="edge15" class="edge">
<title>Hockey&#45;&gt;Player</title>
<path fill="none" stroke="#000000" stroke-dasharray="5,2" d="M452.0683,-501.7823C428.5789,-518.559 397.9567,-540.4302 372.816,-558.3864"/>
<polygon fill="#000000" stroke="#000000" points="364.5183,-564.3128 370.0405,-554.8387 368.5871,-561.4067 372.6559,-558.5007 372.6559,-558.5007 372.6559,-558.5007 368.5871,-561.4067 375.2714,-562.1626 364.5183,-564.3128 364.5183,-564.3128"/>
</g>
<!-- Hockey&#45;&gt;Team -->
<g id="edge6" class="edge">
<title>Hockey&#45;&gt;Team</title>
<path fill="none" stroke="#000000" stroke-dasharray="5,2" d="M445.1659,-463.5176C400.24,-451.3026 330.039,-432.2155 279.9848,-418.6061"/>
<polygon fill="#000000" stroke="#000000" points="270.256,-415.961 281.0864,-414.2424 275.0809,-417.2728 279.9057,-418.5847 279.9057,-418.5847 279.9057,-418.5847 275.0809,-417.2728 278.725,-422.9271 270.256,-415.961 270.256,-415.961"/>
</g>
<!-- Hockey&#45;&gt;Goal -->
<g id="edge8" class="edge">
<title>Hockey&#45;&gt;Goal</title>
<path fill="none" stroke="#000000" stroke-dasharray="5,2" d="M482.1757,-520.2998C467.525,-617.0809 432.9317,-845.6002 416.2011,-956.1205"/>
<polygon fill="#000000" stroke="#000000" points="414.6876,-966.1188 411.7351,-955.5579 415.436,-961.1751 416.1844,-956.2314 416.1844,-956.2314 416.1844,-956.2314 415.436,-961.1751 420.6337,-956.905 414.6876,-966.1188 414.6876,-966.1188"/>
</g>
<!-- Hockey&#45;&gt;Shot -->
<g id="edge7" class="edge">
<title>Hockey&#45;&gt;Shot</title>
<path fill="none" stroke="#000000" stroke-dasharray="5,2" d="M502.3482,-518.831C520.3086,-577.0946 552.4784,-681.4536 574.3217,-752.3135"/>
<polygon fill="#000000" stroke="#000000" points="577.3328,-762.0815 570.0866,-753.8509 575.8599,-757.3033 574.3869,-752.5252 574.3869,-752.5252 574.3869,-752.5252 575.8599,-757.3033 578.6873,-751.1996 577.3328,-762.0815 577.3328,-762.0815"/>
</g>
<!-- Hockey&#45;&gt;Game -->
<g id="edge5" class="edge">
<title>Hockey&#45;&gt;Game</title>
<path fill="none" stroke="#000000" stroke-dasharray="5,2" d="M465.7582,-436.5443C423.5495,-365.8345 334.1461,-216.0623 285.9783,-135.3698"/>
<polygon fill="#000000" stroke="#000000" points="280.5981,-126.3565 289.5876,-132.6365 283.1609,-130.6498 285.7237,-134.9431 285.7237,-134.9431 285.7237,-134.9431 283.1609,-130.6498 281.8597,-137.2496 280.5981,-126.3565 280.5981,-126.3565"/>
</g>
<!-- Sport&#45;&gt;Game -->
<g id="edge9" class="edge">
<title>Sport&#45;&gt;Game</title>
<path fill="none" stroke="#000000" stroke-dasharray="5,2" d="M65.2014,-306.5399C101.9278,-262.6089 169.9185,-181.2808 213.3985,-129.2714"/>
<polygon fill="#000000" stroke="#000000" points="219.8933,-121.5026 216.9318,-132.061 216.6863,-125.3387 213.4794,-129.1747 213.4794,-129.1747 213.4794,-129.1747 216.6863,-125.3387 210.0269,-126.2884 219.8933,-121.5026 219.8933,-121.5026"/>
</g>
<!-- Shot&#45;&gt;Goal -->
<g id="edge10" class="edge">
<title>Shot&#45;&gt;Goal</title>
<path fill="none" stroke="#000000" stroke-dasharray="5,2" d="M549.6482,-874.3799C519.493,-904.7269 480.7438,-943.7225 451.2155,-973.4386"/>
<polygon fill="#000000" stroke="#000000" points="443.9178,-980.7827 447.7744,-970.5173 447.4421,-977.2359 450.9665,-973.6892 450.9665,-973.6892 450.9665,-973.6892 447.4421,-977.2359 454.1585,-976.8611 443.9178,-980.7827 443.9178,-980.7827"/>
</g>
<!-- Game&#45;&gt;Team -->
<g id="edge11" class="edge">
<title>Game&#45;&gt;Team</title>
<path fill="none" stroke="#000000" stroke-dasharray="5,2" d="M248.1534,-133.4743C242.2285,-190.1808 232.7807,-280.6045 226.501,-340.7063"/>
<polygon fill="#000000" stroke="#000000" points="225.4442,-350.8204 222.0079,-340.4068 225.9639,-345.8474 226.4835,-340.8745 226.4835,-340.8745 226.4835,-340.8745 225.9639,-345.8474 230.9592,-341.3422 225.4442,-350.8204 225.4442,-350.8204"/>
</g>
</g>
</svg>
