<?xml version="1.0" encoding="UTF-8" standalone="no"?>
<?xml-stylesheet href="../static/svg.css" type="text/css"?>
<!DOCTYPE svg PUBLIC "-//W3C//DTD SVG 1.1//EN"
 "http://www.w3.org/Graphics/SVG/1.1/DTD/svg11.dtd">
<!-- Generated by graphviz version 2.40.1 (20161225.0304)
 -->
<!-- Title: term Pages: 1 -->
<svg width="700pt" height="1100pt"
 viewBox="0.00 0.00 700.41 1100.32" xmlns="http://www.w3.org/2000/svg" xmlns:xlink="http://www.w3.org/1999/xlink">
<g id="graph0" class="graph" transform="scale(1 1) rotate(0) translate(4 1096.3167)">
<title>term</title>
<!-- Goal -->
<g id="node1" class="node root has&#45;pronunciation">
<title>Goal</title>
<g id="a_node1"><a xlink:href="javascript:history.back()" xlink:title="Гол" target="_top">
<ellipse fill="none" stroke="#c0c0c0" stroke-width=".2" cx="360.5853" cy="-506.995" rx="65.1077" ry="65.1077"/>
<text text-anchor="middle" x="360.5853" y="-528.995" font-family="Times,serif" font-size="25.00" fill="#000000">Goal</text>
<text text-anchor="middle" x="360.5853" y="-500.995" font-family="Times,serif" font-size="25.00" fill="#000000">Гол</text>
<text text-anchor="middle" x="360.5853" y="-472.995" font-family="Times,serif" font-size="25.00" fill="#000000">Гoул</text>
</a>
</g>
</g>
<!-- Puck -->
<g id="node7" class="node has&#45;pronunciation">
<title>Puck</title>
<g id="a_node7"><a xlink:href="../puck.html" xlink:title="Шайба" target="_top">
<ellipse fill="none" stroke="#c0c0c0" stroke-width=".2" cx="65.0538" cy="-211.3379" rx="65.1077" ry="65.1077"/>
<text text-anchor="middle" x="65.0538" y="-233.3379" font-family="Times,serif" font-size="25.00" fill="#000000">Puck</text>
<text text-anchor="middle" x="65.0538" y="-205.3379" font-family="Times,serif" font-size="25.00" fill="#000000">Шайба</text>
<text text-anchor="middle" x="65.0538" y="-177.3379" font-family="Times,serif" font-size="25.00" fill="#000000">Пак</text>
</a>
</g>
</g>
<!-- Goal&#45;&gt;Puck -->
<g id="edge16" class="edge">
<title>Goal&#45;&gt;Puck</title>
<path fill="none" stroke="#000000" stroke-dasharray="5,2" d="M314.4085,-460.7986C261.4291,-407.7967 174.6808,-321.0115 118.7363,-265.0432"/>
<polygon fill="#000000" stroke="#000000" points="111.3931,-257.6968 121.6453,-261.5881 114.9279,-261.2331 118.4626,-264.7694 118.4626,-264.7694 118.4626,-264.7694 114.9279,-261.2331 115.28,-267.9507 111.3931,-257.6968 111.3931,-257.6968"/>
</g>
<!-- Goal net -->
<g id="node8" class="node has&#45;pronunciation">
<title>Goal net</title>
<g id="a_node8"><a xlink:href="../goal-net.html" xlink:title="Ворота" target="_top">
<ellipse fill="none" stroke="#c0c0c0" stroke-width=".2" cx="237.7172" cy="-77.7817" rx="77.5641" ry="77.5641"/>
<text text-anchor="middle" x="237.7172" y="-99.7817" font-family="Times,serif" font-size="25.00" fill="#000000">Goal net</text>
<text text-anchor="middle" x="237.7172" y="-71.7817" font-family="Times,serif" font-size="25.00" fill="#000000">Ворота</text>
<text text-anchor="middle" x="237.7172" y="-43.7817" font-family="Times,serif" font-size="25.00" fill="#000000">Гoул нет</text>
</a>
</g>
</g>
<!-- Goal&#45;&gt;Goal net -->
<g id="edge17" class="edge">
<title>Goal&#45;&gt;Goal net</title>
<path fill="none" stroke="#000000" stroke-dasharray="5,2" d="M342.5876,-444.124C321.2686,-369.6508 285.6617,-245.2653 261.9367,-162.3874"/>
<polygon fill="#000000" stroke="#000000" points="259.1762,-152.7439 266.2546,-161.1193 260.5522,-157.5508 261.9283,-162.3577 261.9283,-162.3577 261.9283,-162.3577 260.5522,-157.5508 257.6021,-163.5962 259.1762,-152.7439 259.1762,-152.7439"/>
</g>
<!-- Score -->
<g id="node2" class="node has&#45;pronunciation">
<title>Score</title>
<g id="a_node2"><a xlink:href="../score.html" xlink:title="Счёт" target="_top">
<ellipse fill="none" stroke="#c0c0c0" stroke-width=".2" cx="627.3578" cy="-412.6303" rx="65.1077" ry="65.1077"/>
<text text-anchor="middle" x="627.3578" y="-434.6303" font-family="Times,serif" font-size="25.00" fill="#000000">Score</text>
<text text-anchor="middle" x="627.3578" y="-406.6303" font-family="Times,serif" font-size="25.00" fill="#000000">Счёт</text>
<text text-anchor="middle" x="627.3578" y="-378.6303" font-family="Times,serif" font-size="25.00" fill="#000000">Скор</text>
</a>
</g>
</g>
<!-- Score&#45;&gt;Goal -->
<g id="edge11" class="edge">
<title>Score&#45;&gt;Goal</title>
<path fill="none" stroke="#000000" stroke-dasharray="5,2" d="M565.8198,-434.398C525.8482,-448.537 473.607,-467.0161 431.8353,-481.7919"/>
<polygon fill="#000000" stroke="#000000" points="422.2752,-485.1736 430.2021,-477.5963 426.989,-483.5062 431.7028,-481.8387 431.7028,-481.8387 431.7028,-481.8387 426.989,-483.5062 433.2035,-486.0811 422.2752,-485.1736 422.2752,-485.1736"/>
</g>
<!-- Point -->
<g id="node3" class="node has&#45;pronunciation">
<title>Point</title>
<g id="a_node3"><a xlink:href="../point.html" xlink:title="Очко" target="_top">
<ellipse fill="none" stroke="#c0c0c0" stroke-width=".2" cx="542.4192" cy="-907.504" rx="41.9398" ry="41.9398"/>
<text text-anchor="middle" x="542.4192" y="-921.004" font-family="Times,serif" font-size="15.00" fill="#000000">Point</text>
<text text-anchor="middle" x="542.4192" y="-904.004" font-family="Times,serif" font-size="15.00" fill="#000000">Очко</text>
<text text-anchor="middle" x="542.4192" y="-887.004" font-family="Times,serif" font-size="15.00" fill="#000000">Пойнт</text>
</a>
</g>
</g>
<!-- Score&#45;&gt;Point -->
<g id="edge1" class="edge">
<title>Score&#45;&gt;Point</title>
<path fill="none" stroke="#000000" stroke-dasharray="5,2" d="M616.3406,-476.8191C599.2897,-576.162 566.8503,-765.1621 551.2418,-856.1013"/>
<polygon fill="#000000" stroke="#000000" points="549.514,-866.1679 546.7705,-855.5507 550.3598,-861.24 551.2057,-856.312 551.2057,-856.312 551.2057,-856.312 550.3598,-861.24 555.6408,-857.0733 549.514,-866.1679 549.514,-866.1679"/>
</g>
<!-- Point&#45;&gt;Goal -->
<g id="edge12" class="edge">
<title>Point&#45;&gt;Goal</title>
<path fill="none" stroke="#000000" stroke-dasharray="5,2" d="M525.1487,-869.464C494.516,-801.9922 430.2751,-660.4945 391.7427,-575.6226"/>
<polygon fill="#000000" stroke="#000000" points="387.5208,-566.3234 395.7523,-573.5686 389.5878,-570.8761 391.6548,-575.4289 391.6548,-575.4289 391.6548,-575.4289 389.5878,-570.8761 387.5573,-577.2892 387.5208,-566.3234 387.5208,-566.3234"/>
</g>
<!-- Player -->
<g id="node4" class="node has&#45;pronunciation">
<title>Player</title>
<g id="a_node4"><a xlink:href="../player.html" xlink:title="Игрок" target="_top">
<ellipse fill="none" stroke="#c0c0c0" stroke-width=".2" cx="284.6118" cy="-1045.6476" rx="46.8387" ry="46.8387"/>
<text text-anchor="middle" x="284.6118" y="-1059.1476" font-family="Times,serif" font-size="15.00" fill="#000000">Player</text>
<text text-anchor="middle" x="284.6118" y="-1042.1476" font-family="Times,serif" font-size="15.00" fill="#000000">Игрок</text>
<text text-anchor="middle" x="284.6118" y="-1025.1476" font-family="Times,serif" font-size="15.00" fill="#000000">&#39;Плейэр</text>
</a>
</g>
</g>
<!-- Point&#45;&gt;Player -->
<g id="edge2" class="edge">
<title>Point&#45;&gt;Player</title>
<path fill="none" stroke="#000000" stroke-dasharray="5,2" d="M505.4817,-927.2966C460.7859,-951.2464 385.3099,-991.6895 335.2223,-1018.5285"/>
<polygon fill="#000000" stroke="#000000" points="326.1784,-1023.3746 332.8674,-1014.685 330.5856,-1021.013 334.9928,-1018.6514 334.9928,-1018.6514 334.9928,-1018.6514 330.5856,-1021.013 337.1182,-1022.6179 326.1784,-1023.3746 326.1784,-1023.3746"/>
</g>
<!-- Player&#45;&gt;Goal -->
<g id="edge13" class="edge">
<title>Player&#45;&gt;Goal</title>
<path fill="none" stroke="#000000" stroke-dasharray="5,2" d="M291.155,-999.2562C304.3268,-905.8679 334.1396,-694.4948 350.0758,-581.5074"/>
<polygon fill="#000000" stroke="#000000" points="351.4799,-571.552 354.5391,-582.0825 350.7816,-576.503 350.0832,-581.454 350.0832,-581.454 350.0832,-581.454 350.7816,-576.503 345.6273,-580.8255 351.4799,-571.552 351.4799,-571.552"/>
</g>
<!-- Shot -->
<g id="node5" class="node has&#45;pronunciation">
<title>Shot</title>
<g id="a_node5"><a xlink:href="../shot.html" xlink:title="Бросок" target="_top">
<ellipse fill="none" stroke="#c0c0c0" stroke-width=".2" cx="193.7275" cy="-559.9631" rx="67.3507" ry="67.3507"/>
<text text-anchor="middle" x="193.7275" y="-581.9631" font-family="Times,serif" font-size="25.00" fill="#000000">Shot</text>
<text text-anchor="middle" x="193.7275" y="-553.9631" font-family="Times,serif" font-size="25.00" fill="#000000">Бросок</text>
<text text-anchor="middle" x="193.7275" y="-525.9631" font-family="Times,serif" font-size="25.00" fill="#000000">Шат</text>
</a>
</g>
</g>
<!-- Player&#45;&gt;Shot -->
<g id="edge3" class="edge">
<title>Player&#45;&gt;Shot</title>
<path fill="none" stroke="#000000" stroke-dasharray="5,2" d="M275.9797,-999.5178C260.3066,-915.7611 227.0313,-737.938 207.9557,-635.9985"/>
<polygon fill="#000000" stroke="#000000" points="206.0985,-626.0735 212.3611,-635.0752 207.0182,-630.9882 207.9379,-635.9029 207.9379,-635.9029 207.9379,-635.9029 207.0182,-630.9882 203.5147,-636.7306 206.0985,-626.0735 206.0985,-626.0735"/>
</g>
<!-- Shot&#45;&gt;Goal -->
<g id="edge14" class="edge">
<title>Shot&#45;&gt;Goal</title>
<path fill="none" stroke="#000000" stroke-dasharray="5,2" d="M257.7618,-539.6357C267.8605,-536.43 278.3605,-533.0968 288.6245,-529.8386"/>
<polygon fill="#000000" stroke="#000000" points="298.372,-526.7442 290.2023,-534.0591 293.6064,-528.2571 288.8407,-529.77 288.8407,-529.77 288.8407,-529.77 293.6064,-528.2571 287.4792,-525.4809 298.372,-526.7442 298.372,-526.7442"/>
</g>
<!-- Shot&#45;&gt;Puck -->
<g id="edge4" class="edge">
<title>Shot&#45;&gt;Puck</title>
<path fill="none" stroke="#000000" stroke-dasharray="5,2" d="M170.4256,-496.8297C148.0721,-436.2656 114.3758,-344.9696 91.1362,-282.0048"/>
<polygon fill="#000000" stroke="#000000" points="87.6428,-272.5399 95.3271,-280.3632 89.3741,-277.2306 91.1054,-281.9213 91.1054,-281.9213 91.1054,-281.9213 89.3741,-277.2306 86.8838,-283.4795 87.6428,-272.5399 87.6428,-272.5399"/>
</g>
<!-- Shot&#45;&gt;Goal net -->
<g id="edge5" class="edge">
<title>Shot&#45;&gt;Goal net</title>
<path fill="none" stroke="#000000" stroke-dasharray="5,2" d="M199.8441,-492.9179C207.6341,-407.5298 221.1141,-259.7729 229.7141,-165.5057"/>
<polygon fill="#000000" stroke="#000000" points="230.6343,-155.4198 234.207,-165.7874 230.18,-160.3992 229.7256,-165.3785 229.7256,-165.3785 229.7256,-165.3785 230.18,-160.3992 225.2443,-164.9696 230.6343,-155.4198 230.6343,-155.4198"/>
</g>
<!-- Hockey -->
<g id="node6" class="node has&#45;pronunciation">
<title>Hockey</title>
<g id="a_node6"><a xlink:href="../hockey.html" xlink:title="Хоккей" target="_top">
<ellipse fill="none" stroke="#c0c0c0" stroke-width=".2" cx="73.2975" cy="-685.0783" rx="45.011" ry="45.011"/>
<text text-anchor="middle" x="73.2975" y="-698.5783" font-family="Times,serif" font-size="15.00" fill="#000000">Hockey</text>
<text text-anchor="middle" x="73.2975" y="-681.5783" font-family="Times,serif" font-size="15.00" fill="#000000">Хоккей</text>
<text text-anchor="middle" x="73.2975" y="-664.5783" font-family="Times,serif" font-size="15.00" fill="#000000">ˈХаки</text>
</a>
</g>
</g>
<!-- Hockey&#45;&gt;Goal -->
<g id="edge15" class="edge">
<title>Hockey&#45;&gt;Goal</title>
<path fill="none" stroke="#000000" stroke-dasharray="5,2" d="M115.9245,-669.7611C151.1154,-656.2108 201.6559,-634.6243 242.0554,-608.8961 264.4855,-594.6115 287.1112,-576.3319 306.4962,-559.2088"/>
<polygon fill="#000000" stroke="#000000" points="314.0365,-552.463 309.5841,-562.4843 310.3101,-555.7968 306.5837,-559.1305 306.5837,-559.1305 306.5837,-559.1305 310.3101,-555.7968 303.5833,-555.7768 314.0365,-552.463 314.0365,-552.463"/>
</g>
<!-- Hockey&#45;&gt;Player -->
<g id="edge7" class="edge">
<title>Hockey&#45;&gt;Player</title>
<path fill="none" stroke="#000000" stroke-dasharray="5,2" d="M96.3141,-724.3519C135.0899,-790.5157 213.3461,-924.0456 255.7415,-996.3857"/>
<polygon fill="#000000" stroke="#000000" points="260.9785,-1005.3217 252.0398,-998.9695 258.4504,-1001.0079 255.9222,-996.6942 255.9222,-996.6942 255.9222,-996.6942 258.4504,-1001.0079 259.8046,-994.4188 260.9785,-1005.3217 260.9785,-1005.3217"/>
</g>
<!-- Hockey&#45;&gt;Shot -->
<g id="edge6" class="edge">
<title>Hockey&#45;&gt;Shot</title>
<path fill="none" stroke="#000000" stroke-dasharray="5,2" d="M104.939,-652.2058C115.6583,-641.0695 127.9501,-628.2995 139.9023,-615.8823"/>
<polygon fill="#000000" stroke="#000000" points="146.8859,-608.627 143.1931,-618.9524 143.4185,-612.2293 139.951,-615.8317 139.951,-615.8317 139.951,-615.8317 143.4185,-612.2293 136.7089,-612.711 146.8859,-608.627 146.8859,-608.627"/>
</g>
<!-- Hockey&#45;&gt;Puck -->
<g id="edge8" class="edge">
<title>Hockey&#45;&gt;Puck</title>
<path fill="none" stroke="#000000" stroke-dasharray="5,2" d="M72.507,-639.6541C71.0883,-558.1253 68.0969,-386.2177 66.3663,-286.761"/>
<polygon fill="#000000" stroke="#000000" points="66.1874,-276.4813 70.8608,-286.4015 66.2744,-281.4806 66.3615,-286.4798 66.3615,-286.4798 66.3615,-286.4798 66.2744,-281.4806 61.8622,-286.5582 66.1874,-276.4813 66.1874,-276.4813"/>
</g>
<!-- Hockey&#45;&gt;Goal net -->
<g id="edge9" class="edge">
<title>Hockey&#45;&gt;Goal net</title>
<path fill="none" stroke="#000000" stroke-dasharray="5,2" d="M85.2546,-640.9139C112.4248,-540.5587 179.1946,-293.9397 214.6792,-162.8744"/>
<polygon fill="#000000" stroke="#000000" points="217.3876,-152.8707 219.1179,-163.6992 216.0809,-157.697 214.7742,-162.5232 214.7742,-162.5232 214.7742,-162.5232 216.0809,-157.697 210.4306,-161.3472 217.3876,-152.8707 217.3876,-152.8707"/>
</g>
<!-- Puck&#45;&gt;Goal net -->
<g id="edge10" class="edge">
<title>Puck&#45;&gt;Goal net</title>
<path fill="none" stroke="#000000" stroke-dasharray="5,2" d="M116.8585,-171.2666C132.8219,-158.9189 150.6708,-145.1126 167.6491,-131.9799"/>
<polygon fill="#000000" stroke="#000000" points="175.9018,-125.5963 170.7452,-135.2741 171.9469,-128.6555 167.992,-131.7147 167.992,-131.7147 167.992,-131.7147 171.9469,-128.6555 165.2387,-128.1552 175.9018,-125.5963 175.9018,-125.5963"/>
</g>
</g>
</svg>
