<?xml version="1.0" encoding="UTF-8" standalone="no"?>
<?xml-stylesheet href="../static/svg.css" type="text/css"?>
<!DOCTYPE svg PUBLIC "-//W3C//DTD SVG 1.1//EN"
 "http://www.w3.org/Graphics/SVG/1.1/DTD/svg11.dtd">
<!-- Generated by graphviz version 2.40.1 (20161225.0304)
 -->
<!-- Title: term Pages: 1 -->
<svg width="475pt" height="781pt"
 viewBox="0.00 0.00 474.69 780.86" xmlns="http://www.w3.org/2000/svg" xmlns:xlink="http://www.w3.org/1999/xlink">
<g id="graph0" class="graph" transform="scale(1 1) rotate(0) translate(4 776.8556)">
<title>term</title>
<!-- Goal net -->
<g id="node1" class="node root has&#45;pronunciation">
<title>Goal net</title>
<g id="a_node1"><a xlink:href="javascript:history.back()" xlink:title="Ворота" target="_top">
<ellipse fill="none" stroke="#c0c0c0" stroke-width=".2" cx="256.6253" cy="-425.5797" rx="62.8651" ry="62.8651"/>
<text text-anchor="middle" x="256.6253" y="-442.5797" font-family="Times,serif" font-size="20.00" fill="#000000">Goal net</text>
<text text-anchor="middle" x="256.6253" y="-420.5797" font-family="Times,serif" font-size="20.00" fill="#000000">Ворота</text>
<text text-anchor="middle" x="256.6253" y="-398.5797" font-family="Times,serif" font-size="20.00" fill="#000000">Гoул нет</text>
</a>
</g>
</g>
<!-- Rink -->
<g id="node2" class="node has&#45;pronunciation">
<title>Rink</title>
<g id="a_node2"><a xlink:href="../rink.html" xlink:title="Площадка" target="_top">
<ellipse fill="none" stroke="#c0c0c0" stroke-width=".2" cx="383.8959" cy="-715.58" rx="57.0522" ry="57.0522"/>
<text text-anchor="middle" x="383.8959" y="-729.08" font-family="Times,serif" font-size="15.00" fill="#000000">Rink</text>
<text text-anchor="middle" x="383.8959" y="-712.08" font-family="Times,serif" font-size="15.00" fill="#000000">Площадка</text>
<text text-anchor="middle" x="383.8959" y="-695.08" font-family="Times,serif" font-size="15.00" fill="#000000">Ринк</text>
</a>
</g>
</g>
<!-- Rink&#45;&gt;Goal net -->
<g id="edge7" class="edge">
<title>Rink&#45;&gt;Goal net</title>
<path fill="none" stroke="#000000" stroke-dasharray="5,2" d="M360.8482,-663.0631C339.9095,-615.352 308.9087,-544.7132 286.1597,-492.8771"/>
<polygon fill="#000000" stroke="#000000" points="282.0122,-483.4267 290.1516,-490.7753 284.0216,-488.0052 286.031,-492.5837 286.031,-492.5837 286.031,-492.5837 284.0216,-488.0052 281.9103,-494.3921 282.0122,-483.4267 282.0122,-483.4267"/>
</g>
<!-- Puck -->
<g id="node3" class="node has&#45;pronunciation">
<title>Puck</title>
<g id="a_node3"><a xlink:href="../puck.html" xlink:title="Шайба" target="_top">
<ellipse fill="none" stroke="#c0c0c0" stroke-width=".2" cx="247.0045" cy="-52.3259" rx="52.1524" ry="52.1524"/>
<text text-anchor="middle" x="247.0045" y="-69.3259" font-family="Times,serif" font-size="20.00" fill="#000000">Puck</text>
<text text-anchor="middle" x="247.0045" y="-47.3259" font-family="Times,serif" font-size="20.00" fill="#000000">Шайба</text>
<text text-anchor="middle" x="247.0045" y="-25.3259" font-family="Times,serif" font-size="20.00" fill="#000000">Пак</text>
</a>
</g>
</g>
<!-- Puck&#45;&gt;Goal net -->
<g id="edge8" class="edge">
<title>Puck&#45;&gt;Goal net</title>
<path fill="none" stroke="#000000" stroke-dasharray="5,2" d="M248.3625,-105.0124C250.0297,-169.6912 252.8661,-279.7339 254.7428,-352.5458"/>
<polygon fill="#000000" stroke="#000000" points="255.001,-362.5641 250.2448,-352.6835 254.8722,-357.5658 254.7433,-352.5675 254.7433,-352.5675 254.7433,-352.5675 254.8722,-357.5658 259.2418,-352.4515 255.001,-362.5641 255.001,-362.5641"/>
</g>
<!-- Opponent -->
<g id="node4" class="node has&#45;pronunciation">
<title>Opponent</title>
<g id="a_node4"><a xlink:href="../opponent.html" xlink:title="Противник" target="_top">
<ellipse fill="none" stroke="#c0c0c0" stroke-width=".2" cx="60.8112" cy="-607.8526" rx="60.623" ry="60.623"/>
<text text-anchor="middle" x="60.8112" y="-621.3526" font-family="Times,serif" font-size="15.00" fill="#000000">Opponent</text>
<text text-anchor="middle" x="60.8112" y="-604.3526" font-family="Times,serif" font-size="15.00" fill="#000000">Противник</text>
<text text-anchor="middle" x="60.8112" y="-587.3526" font-family="Times,serif" font-size="15.00" fill="#000000">Эˈпoунэнт</text>
</a>
</g>
</g>
<!-- Opponent&#45;&gt;Goal net -->
<g id="edge9" class="edge">
<title>Opponent&#45;&gt;Goal net</title>
<path fill="none" stroke="#000000" stroke-dasharray="5,2" d="M105.7349,-566.0355C134.6722,-539.0993 172.4459,-503.9378 202.9597,-475.5341"/>
<polygon fill="#000000" stroke="#000000" points="210.5513,-468.4676 206.2977,-478.5749 206.8914,-471.8743 203.2316,-475.2811 203.2316,-475.2811 203.2316,-475.2811 206.8914,-471.8743 200.1655,-471.9872 210.5513,-468.4676 210.5513,-468.4676"/>
</g>
<!-- Goal -->
<g id="node5" class="node has&#45;pronunciation">
<title>Goal</title>
<g id="a_node5"><a xlink:href="../goal.html" xlink:title="Гол" target="_top">
<ellipse fill="none" stroke="#c0c0c0" stroke-width=".2" cx="383.8991" cy="-102.7487" rx="52.1524" ry="52.1524"/>
<text text-anchor="middle" x="383.8991" y="-119.7487" font-family="Times,serif" font-size="20.00" fill="#000000">Goal</text>
<text text-anchor="middle" x="383.8991" y="-97.7487" font-family="Times,serif" font-size="20.00" fill="#000000">Гол</text>
<text text-anchor="middle" x="383.8991" y="-75.7487" font-family="Times,serif" font-size="20.00" fill="#000000">Гoул</text>
</a>
</g>
</g>
<!-- Goal&#45;&gt;Goal net -->
<g id="edge10" class="edge">
<title>Goal&#45;&gt;Goal net</title>
<path fill="none" stroke="#000000" stroke-dasharray="5,2" d="M364.7071,-151.4293C343.1193,-206.1871 307.9018,-295.5165 283.564,-357.2496"/>
<polygon fill="#000000" stroke="#000000" points="279.7551,-366.9109 279.2364,-355.9573 281.5889,-362.2594 283.4228,-357.6078 283.4228,-357.6078 283.4228,-357.6078 281.5889,-362.2594 287.6092,-359.2583 279.7551,-366.9109 279.7551,-366.9109"/>
</g>
<!-- Goal&#45;&gt;Puck -->
<g id="edge1" class="edge">
<title>Goal&#45;&gt;Puck</title>
<path fill="none" stroke="#000000" stroke-dasharray="5,2" d="M334.477,-84.5449C325.1719,-81.1175 315.3572,-77.5025 305.7987,-73.9818"/>
<polygon fill="#000000" stroke="#000000" points="296.3541,-70.503 307.2931,-69.7367 301.0459,-72.2312 305.7378,-73.9594 305.7378,-73.9594 305.7378,-73.9594 301.0459,-72.2312 304.1824,-78.182 296.3541,-70.503 296.3541,-70.503"/>
</g>
<!-- Shot -->
<g id="node6" class="node has&#45;pronunciation">
<title>Shot</title>
<g id="a_node6"><a xlink:href="../shot.html" xlink:title="Бросок" target="_top">
<ellipse fill="none" stroke="#c0c0c0" stroke-width=".2" cx="399.5142" cy="-295.4517" rx="67.3507" ry="67.3507"/>
<text text-anchor="middle" x="399.5142" y="-317.4517" font-family="Times,serif" font-size="25.00" fill="#000000">Shot</text>
<text text-anchor="middle" x="399.5142" y="-289.4517" font-family="Times,serif" font-size="25.00" fill="#000000">Бросок</text>
<text text-anchor="middle" x="399.5142" y="-261.4517" font-family="Times,serif" font-size="25.00" fill="#000000">Шат</text>
</a>
</g>
</g>
<!-- Shot&#45;&gt;Goal net -->
<g id="edge11" class="edge">
<title>Shot&#45;&gt;Goal net</title>
<path fill="none" stroke="#000000" stroke-dasharray="5,2" d="M349.5386,-340.9642C337.1424,-352.2533 323.7955,-364.4082 311.192,-375.8862"/>
<polygon fill="#000000" stroke="#000000" points="303.4557,-382.9315 307.8193,-372.8712 307.1525,-379.5649 310.8493,-376.1983 310.8493,-376.1983 310.8493,-376.1983 307.1525,-379.5649 313.8792,-379.5254 303.4557,-382.9315 303.4557,-382.9315"/>
</g>
<!-- Shot&#45;&gt;Puck -->
<g id="edge3" class="edge">
<title>Shot&#45;&gt;Puck</title>
<path fill="none" stroke="#000000" stroke-dasharray="5,2" d="M363.7574,-238.4495C338.5473,-198.2603 305.0178,-144.8087 280.3595,-105.4993"/>
<polygon fill="#000000" stroke="#000000" points="274.9244,-96.8349 284.0505,-102.9149 277.5814,-101.0706 280.2384,-105.3062 280.2384,-105.3062 280.2384,-105.3062 277.5814,-101.0706 276.4263,-107.6975 274.9244,-96.8349 274.9244,-96.8349"/>
</g>
<!-- Shot&#45;&gt;Goal -->
<g id="edge2" class="edge">
<title>Shot&#45;&gt;Goal</title>
<path fill="none" stroke="#000000" stroke-dasharray="5,2" d="M394.0747,-228.3241C392.4107,-207.7884 390.5881,-185.2964 388.951,-165.0929"/>
<polygon fill="#000000" stroke="#000000" points="388.1387,-155.0692 393.4318,-164.673 388.5426,-160.0528 388.9465,-165.0365 388.9465,-165.0365 388.9465,-165.0365 388.5426,-160.0528 384.4612,-165.4 388.1387,-155.0692 388.1387,-155.0692"/>
</g>
<!-- Hockey -->
<g id="node7" class="node has&#45;pronunciation">
<title>Hockey</title>
<g id="a_node7"><a xlink:href="../hockey.html" xlink:title="Хоккей" target="_top">
<ellipse fill="none" stroke="#c0c0c0" stroke-width=".2" cx="168.6602" cy="-209.14" rx="45.011" ry="45.011"/>
<text text-anchor="middle" x="168.6602" y="-222.64" font-family="Times,serif" font-size="15.00" fill="#000000">Hockey</text>
<text text-anchor="middle" x="168.6602" y="-205.64" font-family="Times,serif" font-size="15.00" fill="#000000">Хоккей</text>
<text text-anchor="middle" x="168.6602" y="-188.64" font-family="Times,serif" font-size="15.00" fill="#000000">ˈХаки</text>
</a>
</g>
</g>
<!-- Hockey&#45;&gt;Goal net -->
<g id="edge12" class="edge">
<title>Hockey&#45;&gt;Goal net</title>
<path fill="none" stroke="#000000" stroke-dasharray="5,2" d="M185.7251,-251.1284C197.9643,-281.2432 214.7221,-322.4761 228.8728,-357.2942"/>
<polygon fill="#000000" stroke="#000000" points="232.789,-366.93 224.855,-359.3602 230.9064,-362.2979 229.0238,-357.6659 229.0238,-357.6659 229.0238,-357.6659 230.9064,-362.2979 233.1927,-355.9715 232.789,-366.93 232.789,-366.93"/>
</g>
<!-- Hockey&#45;&gt;Puck -->
<g id="edge5" class="edge">
<title>Hockey&#45;&gt;Puck</title>
<path fill="none" stroke="#000000" stroke-dasharray="5,2" d="M189.0398,-168.3483C198.1592,-150.0947 209.0596,-128.2765 218.9341,-108.5118"/>
<polygon fill="#000000" stroke="#000000" points="223.5372,-99.2981 223.0935,-110.255 221.3025,-103.771 219.0679,-108.2438 219.0679,-108.2438 219.0679,-108.2438 221.3025,-103.771 215.0423,-106.2326 223.5372,-99.2981 223.5372,-99.2981"/>
</g>
<!-- Hockey&#45;&gt;Goal -->
<g id="edge6" class="edge">
<title>Hockey&#45;&gt;Goal</title>
<path fill="none" stroke="#000000" stroke-dasharray="5,2" d="M209.3981,-189.0035C242.8794,-172.4539 290.6695,-148.8315 327.7742,-130.4909"/>
<polygon fill="#000000" stroke="#000000" points="336.9622,-125.9494 329.9916,-134.4147 332.4799,-128.165 327.9975,-130.3806 327.9975,-130.3806 327.9975,-130.3806 332.4799,-128.165 326.0035,-126.3465 336.9622,-125.9494 336.9622,-125.9494"/>
</g>
<!-- Hockey&#45;&gt;Shot -->
<g id="edge4" class="edge">
<title>Hockey&#45;&gt;Shot</title>
<path fill="none" stroke="#000000" stroke-dasharray="5,2" d="M211.2714,-225.0714C243.5791,-237.1506 288.7505,-254.0393 326.7456,-268.2449"/>
<polygon fill="#000000" stroke="#000000" points="336.2385,-271.7942 325.2959,-272.5071 331.5552,-270.0431 326.8718,-268.2921 326.8718,-268.2921 326.8718,-268.2921 331.5552,-270.0431 328.4477,-264.077 336.2385,-271.7942 336.2385,-271.7942"/>
</g>
</g>
</svg>
