<?xml version="1.0" encoding="UTF-8" standalone="no"?>
<?xml-stylesheet href="../static/svg.css" type="text/css"?>
<!DOCTYPE svg PUBLIC "-//W3C//DTD SVG 1.1//EN"
 "http://www.w3.org/Graphics/SVG/1.1/DTD/svg11.dtd">
<!-- Generated by graphviz version 2.40.1 (20161225.0304)
 -->
<!-- Title: term Pages: 1 -->
<svg width="675pt" height="1074pt"
 viewBox="0.00 0.00 674.96 1073.88" xmlns="http://www.w3.org/2000/svg" xmlns:xlink="http://www.w3.org/1999/xlink">
<g id="graph0" class="graph" transform="scale(1 1) rotate(0) translate(4 1069.877)">
<title>term</title>
<!-- Goal -->
<g id="node1" class="node root has&#45;pronunciation">
<title>Goal</title>
<g id="a_node1"><a xlink:href="javascript:history.back()" xlink:title="Гол" target="_top">
<ellipse fill="none" stroke="#c0c0c0" stroke-width=".2" cx="347.8573" cy="-487.0058" rx="52.1524" ry="52.1524"/>
<text text-anchor="middle" x="347.8573" y="-504.0058" font-family="Times,serif" font-size="20.00" fill="#000000">Goal</text>
<text text-anchor="middle" x="347.8573" y="-482.0058" font-family="Times,serif" font-size="20.00" fill="#000000">Гол</text>
<text text-anchor="middle" x="347.8573" y="-460.0058" font-family="Times,serif" font-size="20.00" fill="#000000">Гoул</text>
</a>
</g>
</g>
<!-- Puck -->
<g id="node7" class="node has&#45;pronunciation">
<title>Puck</title>
<g id="a_node7"><a xlink:href="../puck.html" xlink:title="Шайба" target="_top">
<ellipse fill="none" stroke="#c0c0c0" stroke-width=".2" cx="52.3259" cy="-194.8893" rx="52.1524" ry="52.1524"/>
<text text-anchor="middle" x="52.3259" y="-211.8893" font-family="Times,serif" font-size="20.00" fill="#000000">Puck</text>
<text text-anchor="middle" x="52.3259" y="-189.8893" font-family="Times,serif" font-size="20.00" fill="#000000">Шайба</text>
<text text-anchor="middle" x="52.3259" y="-167.8893" font-family="Times,serif" font-size="20.00" fill="#000000">Пак</text>
</a>
</g>
</g>
<!-- Goal&#45;&gt;Puck -->
<g id="edge16" class="edge">
<title>Goal&#45;&gt;Puck</title>
<path fill="none" stroke="#000000" stroke-dasharray="5,2" d="M310.4281,-450.0091C256.0618,-396.271 155.3992,-296.7716 97.151,-239.1964"/>
<polygon fill="#000000" stroke="#000000" points="89.9169,-232.0459 100.1924,-235.8753 93.4729,-235.5608 97.0289,-239.0757 97.0289,-239.0757 97.0289,-239.0757 93.4729,-235.5608 93.8655,-242.2762 89.9169,-232.0459 89.9169,-232.0459"/>
</g>
<!-- Goal net -->
<g id="node8" class="node has&#45;pronunciation">
<title>Goal net</title>
<g id="a_node8"><a xlink:href="../goal-net.html" xlink:title="Ворота" target="_top">
<ellipse fill="none" stroke="#c0c0c0" stroke-width=".2" cx="224.9893" cy="-62.9325" rx="62.8651" ry="62.8651"/>
<text text-anchor="middle" x="224.9893" y="-79.9325" font-family="Times,serif" font-size="20.00" fill="#000000">Goal net</text>
<text text-anchor="middle" x="224.9893" y="-57.9325" font-family="Times,serif" font-size="20.00" fill="#000000">Ворота</text>
<text text-anchor="middle" x="224.9893" y="-35.9325" font-family="Times,serif" font-size="20.00" fill="#000000">Гoул нет</text>
</a>
</g>
</g>
<!-- Goal&#45;&gt;Goal net -->
<g id="edge17" class="edge">
<title>Goal&#45;&gt;Goal net</title>
<path fill="none" stroke="#000000" stroke-dasharray="5,2" d="M333.2803,-436.6937C311.4289,-361.2747 270.1053,-218.6483 245.3063,-133.0557"/>
<polygon fill="#000000" stroke="#000000" points="242.5148,-123.4208 249.62,-131.7734 243.9063,-128.2233 245.2977,-133.0258 245.2977,-133.0258 245.2977,-133.0258 243.9063,-128.2233 240.9755,-134.2781 242.5148,-123.4208 242.5148,-123.4208"/>
</g>
<!-- Score -->
<g id="node2" class="node has&#45;pronunciation">
<title>Score</title>
<g id="a_node2"><a xlink:href="../score.html" xlink:title="Счёт" target="_top">
<ellipse fill="none" stroke="#c0c0c0" stroke-width=".2" cx="614.6299" cy="-393.7712" rx="52.1524" ry="52.1524"/>
<text text-anchor="middle" x="614.6299" y="-410.7712" font-family="Times,serif" font-size="20.00" fill="#000000">Score</text>
<text text-anchor="middle" x="614.6299" y="-388.7712" font-family="Times,serif" font-size="20.00" fill="#000000">Счёт</text>
<text text-anchor="middle" x="614.6299" y="-366.7712" font-family="Times,serif" font-size="20.00" fill="#000000">Скор</text>
</a>
</g>
</g>
<!-- Score&#45;&gt;Goal -->
<g id="edge11" class="edge">
<title>Score&#45;&gt;Goal</title>
<path fill="none" stroke="#000000" stroke-dasharray="5,2" d="M565.0772,-411.0894C520.39,-426.7072 454.5915,-449.7032 407.1316,-466.29"/>
<polygon fill="#000000" stroke="#000000" points="397.5965,-469.6224 405.5519,-462.0751 402.3166,-467.9728 407.0366,-466.3231 407.0366,-466.3231 407.0366,-466.3231 402.3166,-467.9728 408.5213,-470.5712 397.5965,-469.6224 397.5965,-469.6224"/>
</g>
<!-- Point -->
<g id="node3" class="node has&#45;pronunciation">
<title>Point</title>
<g id="a_node3"><a xlink:href="../point.html" xlink:title="Очко" target="_top">
<ellipse fill="none" stroke="#c0c0c0" stroke-width=".2" cx="529.6912" cy="-882.7186" rx="41.9398" ry="41.9398"/>
<text text-anchor="middle" x="529.6912" y="-896.2186" font-family="Times,serif" font-size="15.00" fill="#000000">Point</text>
<text text-anchor="middle" x="529.6912" y="-879.2186" font-family="Times,serif" font-size="15.00" fill="#000000">Очко</text>
<text text-anchor="middle" x="529.6912" y="-862.2186" font-family="Times,serif" font-size="15.00" fill="#000000">Пойнт</text>
</a>
</g>
</g>
<!-- Score&#45;&gt;Point -->
<g id="edge1" class="edge">
<title>Score&#45;&gt;Point</title>
<path fill="none" stroke="#000000" stroke-dasharray="5,2" d="M605.6204,-445.6342C589.2622,-539.7996 554.8677,-737.7907 538.5908,-831.4886"/>
<polygon fill="#000000" stroke="#000000" points="536.8385,-841.5753 534.1166,-830.9527 537.6943,-836.6491 538.5502,-831.7229 538.5502,-831.7229 538.5502,-831.7229 537.6943,-836.6491 542.9838,-832.4931 536.8385,-841.5753 536.8385,-841.5753"/>
</g>
<!-- Point&#45;&gt;Goal -->
<g id="edge12" class="edge">
<title>Point&#45;&gt;Goal</title>
<path fill="none" stroke="#000000" stroke-dasharray="5,2" d="M512.2562,-844.776C480.1596,-774.9262 411.5682,-625.6555 373.9212,-543.7269"/>
<polygon fill="#000000" stroke="#000000" points="369.7102,-534.5628 377.9747,-541.7705 371.798,-539.1061 373.8857,-543.6494 373.8857,-543.6494 373.8857,-543.6494 371.798,-539.1061 369.7967,-545.5284 369.7102,-534.5628 369.7102,-534.5628"/>
</g>
<!-- Player -->
<g id="node4" class="node has&#45;pronunciation">
<title>Player</title>
<g id="a_node4"><a xlink:href="../player.html" xlink:title="Игрок" target="_top">
<ellipse fill="none" stroke="#c0c0c0" stroke-width=".2" cx="271.8839" cy="-1019.208" rx="46.8387" ry="46.8387"/>
<text text-anchor="middle" x="271.8839" y="-1032.708" font-family="Times,serif" font-size="15.00" fill="#000000">Player</text>
<text text-anchor="middle" x="271.8839" y="-1015.708" font-family="Times,serif" font-size="15.00" fill="#000000">Игрок</text>
<text text-anchor="middle" x="271.8839" y="-998.708" font-family="Times,serif" font-size="15.00" fill="#000000">&#39;Плейэр</text>
</a>
</g>
</g>
<!-- Point&#45;&gt;Player -->
<g id="edge2" class="edge">
<title>Point&#45;&gt;Player</title>
<path fill="none" stroke="#000000" stroke-dasharray="5,2" d="M492.7537,-902.2742C448.058,-925.9372 372.582,-965.896 322.4944,-992.4136"/>
<polygon fill="#000000" stroke="#000000" points="313.4505,-997.2016 320.1828,-988.5456 317.8694,-994.8621 322.2884,-992.5226 322.2884,-992.5226 322.2884,-992.5226 317.8694,-994.8621 324.3939,-996.4997 313.4505,-997.2016 313.4505,-997.2016"/>
</g>
<!-- Player&#45;&gt;Goal -->
<g id="edge13" class="edge">
<title>Player&#45;&gt;Goal</title>
<path fill="none" stroke="#000000" stroke-dasharray="5,2" d="M278.4931,-972.9095C292.1676,-877.1182 323.5732,-657.1189 338.9904,-549.1195"/>
<polygon fill="#000000" stroke="#000000" points="340.4314,-539.0255 343.4729,-549.5611 339.7247,-543.9753 339.0181,-548.9252 339.0181,-548.9252 339.0181,-548.9252 339.7247,-543.9753 334.5632,-548.2892 340.4314,-539.0255 340.4314,-539.0255"/>
</g>
<!-- Shot -->
<g id="node5" class="node has&#45;pronunciation">
<title>Shot</title>
<g id="a_node5"><a xlink:href="../shot.html" xlink:title="Бросок" target="_top">
<ellipse fill="none" stroke="#c0c0c0" stroke-width=".2" cx="180.9995" cy="-539.3397" rx="67.3507" ry="67.3507"/>
<text text-anchor="middle" x="180.9995" y="-561.3397" font-family="Times,serif" font-size="25.00" fill="#000000">Shot</text>
<text text-anchor="middle" x="180.9995" y="-533.3397" font-family="Times,serif" font-size="25.00" fill="#000000">Бросок</text>
<text text-anchor="middle" x="180.9995" y="-505.3397" font-family="Times,serif" font-size="25.00" fill="#000000">Шат</text>
</a>
</g>
</g>
<!-- Player&#45;&gt;Shot -->
<g id="edge3" class="edge">
<title>Player&#45;&gt;Shot</title>
<path fill="none" stroke="#000000" stroke-dasharray="5,2" d="M263.1695,-973.1962C247.5344,-890.6427 214.5731,-716.6076 195.4898,-615.8479"/>
<polygon fill="#000000" stroke="#000000" points="193.574,-605.7325 199.8563,-614.7204 194.5044,-610.6452 195.4349,-615.5578 195.4349,-615.5578 195.4349,-615.5578 194.5044,-610.6452 191.0135,-616.3953 193.574,-605.7325 193.574,-605.7325"/>
</g>
<!-- Shot&#45;&gt;Goal -->
<g id="edge14" class="edge">
<title>Shot&#45;&gt;Goal</title>
<path fill="none" stroke="#000000" stroke-dasharray="5,2" d="M245.5111,-519.106C259.4584,-514.7316 274.1503,-510.1235 287.9137,-505.8067"/>
<polygon fill="#000000" stroke="#000000" points="297.7477,-502.7224 289.5527,-510.0089 292.9768,-504.2188 288.206,-505.7151 288.206,-505.7151 288.206,-505.7151 292.9768,-504.2188 286.8592,-501.4214 297.7477,-502.7224 297.7477,-502.7224"/>
</g>
<!-- Shot&#45;&gt;Puck -->
<g id="edge4" class="edge">
<title>Shot&#45;&gt;Puck</title>
<path fill="none" stroke="#000000" stroke-dasharray="5,2" d="M157.3988,-476.1621C133.6737,-412.6515 97.3933,-315.5314 74.2731,-253.6405"/>
<polygon fill="#000000" stroke="#000000" points="70.6794,-244.0204 78.3944,-251.8134 72.4292,-248.7043 74.1789,-253.3881 74.1789,-253.3881 74.1789,-253.3881 72.4292,-248.7043 69.9635,-254.9629 70.6794,-244.0204 70.6794,-244.0204"/>
</g>
<!-- Shot&#45;&gt;Goal net -->
<g id="edge5" class="edge">
<title>Shot&#45;&gt;Goal net</title>
<path fill="none" stroke="#000000" stroke-dasharray="5,2" d="M187.1857,-472.3443C195.3857,-383.5387 209.8017,-227.4143 218.2641,-135.7662"/>
<polygon fill="#000000" stroke="#000000" points="219.1901,-125.7381 222.7515,-136.1095 218.7303,-130.7169 218.2705,-135.6957 218.2705,-135.6957 218.2705,-135.6957 218.7303,-130.7169 213.7896,-135.2819 219.1901,-125.7381 219.1901,-125.7381"/>
</g>
<!-- Hockey -->
<g id="node6" class="node has&#45;pronunciation">
<title>Hockey</title>
<g id="a_node6"><a xlink:href="../hockey.html" xlink:title="Хоккей" target="_top">
<ellipse fill="none" stroke="#c0c0c0" stroke-width=".2" cx="60.5696" cy="-662.9566" rx="45.011" ry="45.011"/>
<text text-anchor="middle" x="60.5696" y="-676.4566" font-family="Times,serif" font-size="15.00" fill="#000000">Hockey</text>
<text text-anchor="middle" x="60.5696" y="-659.4566" font-family="Times,serif" font-size="15.00" fill="#000000">Хоккей</text>
<text text-anchor="middle" x="60.5696" y="-642.4566" font-family="Times,serif" font-size="15.00" fill="#000000">ˈХаки</text>
</a>
</g>
</g>
<!-- Hockey&#45;&gt;Goal -->
<g id="edge15" class="edge">
<title>Hockey&#45;&gt;Goal</title>
<path fill="none" stroke="#000000" stroke-dasharray="5,2" d="M103.5511,-647.9171C138.7262,-634.6902 189.063,-613.6191 229.3275,-588.2726 255.4394,-571.8351 281.8002,-549.9557 303.0102,-530.7407"/>
<polygon fill="#000000" stroke="#000000" points="310.5814,-523.7971 306.253,-533.8726 306.8964,-527.1766 303.2115,-530.5562 303.2115,-530.5562 303.2115,-530.5562 306.8964,-527.1766 300.1699,-527.2397 310.5814,-523.7971 310.5814,-523.7971"/>
</g>
<!-- Hockey&#45;&gt;Player -->
<g id="edge7" class="edge">
<title>Hockey&#45;&gt;Player</title>
<path fill="none" stroke="#000000" stroke-dasharray="5,2" d="M83.7884,-702.1008C122.5503,-767.4489 200.3579,-898.6235 242.7414,-970.0772"/>
<polygon fill="#000000" stroke="#000000" points="247.9794,-978.9078 239.0074,-972.6028 245.4286,-974.6074 242.8777,-970.307 242.8777,-970.307 242.8777,-970.307 245.4286,-974.6074 246.7481,-968.0113 247.9794,-978.9078 247.9794,-978.9078"/>
</g>
<!-- Hockey&#45;&gt;Shot -->
<g id="edge6" class="edge">
<title>Hockey&#45;&gt;Shot</title>
<path fill="none" stroke="#000000" stroke-dasharray="5,2" d="M92.2111,-630.4777C102.7147,-619.6961 114.7284,-607.3646 126.4528,-595.3298"/>
<polygon fill="#000000" stroke="#000000" points="133.6995,-587.8914 129.9446,-598.1944 130.2104,-591.4728 126.7213,-595.0542 126.7213,-595.0542 126.7213,-595.0542 130.2104,-591.4728 123.4981,-591.9141 133.6995,-587.8914 133.6995,-587.8914"/>
</g>
<!-- Hockey&#45;&gt;Puck -->
<g id="edge8" class="edge">
<title>Hockey&#45;&gt;Puck</title>
<path fill="none" stroke="#000000" stroke-dasharray="5,2" d="M59.7716,-617.651C58.2901,-533.5335 55.1123,-353.0994 53.4273,-257.4271"/>
<polygon fill="#000000" stroke="#000000" points="53.2492,-247.3154 57.9247,-257.2346 53.3373,-252.3146 53.4254,-257.3139 53.4254,-257.3139 53.4254,-257.3139 53.3373,-252.3146 48.9261,-257.3931 53.2492,-247.3154 53.2492,-247.3154"/>
</g>
<!-- Hockey&#45;&gt;Goal net -->
<g id="edge9" class="edge">
<title>Hockey&#45;&gt;Goal net</title>
<path fill="none" stroke="#000000" stroke-dasharray="5,2" d="M72.6597,-618.8354C100.8923,-515.8049 171.3558,-258.6596 205.6415,-133.5393"/>
<polygon fill="#000000" stroke="#000000" points="208.3459,-123.6702 210.043,-134.504 207.0244,-128.4924 205.703,-133.3147 205.703,-133.3147 205.703,-133.3147 207.0244,-128.4924 201.363,-132.1254 208.3459,-123.6702 208.3459,-123.6702"/>
</g>
<!-- Puck&#45;&gt;Goal net -->
<g id="edge10" class="edge">
<title>Puck&#45;&gt;Goal net</title>
<path fill="none" stroke="#000000" stroke-dasharray="5,2" d="M94.1229,-162.9462C116.0021,-146.2252 143.1363,-125.4881 167.0147,-107.2392"/>
<polygon fill="#000000" stroke="#000000" points="174.9755,-101.1552 169.7626,-110.8029 171.0028,-104.1913 167.0301,-107.2275 167.0301,-107.2275 167.0301,-107.2275 171.0028,-104.1913 164.2976,-103.652 174.9755,-101.1552 174.9755,-101.1552"/>
</g>
</g>
</svg>
