<?xml version="1.0" encoding="UTF-8" standalone="no"?>
<?xml-stylesheet href="../static/svg.css" type="text/css"?>
<!DOCTYPE svg PUBLIC "-//W3C//DTD SVG 1.1//EN"
 "http://www.w3.org/Graphics/SVG/1.1/DTD/svg11.dtd">
<!-- Generated by graphviz version 2.40.1 (20161225.0304)
 -->
<!-- Title: term Pages: 1 -->
<svg width="388pt" height="603pt"
 viewBox="0.00 0.00 387.77 602.65" xmlns="http://www.w3.org/2000/svg" xmlns:xlink="http://www.w3.org/1999/xlink">
<g id="graph0" class="graph" transform="scale(1 1) rotate(0) translate(4 598.6544)">
<title>term</title>
<!-- Rink -->
<g id="node1" class="node root has&#45;pronunciation">
<title>Rink</title>
<g id="a_node1"><a xlink:href="javascript:history.back()" xlink:title="Площадка" target="_top">
<ellipse fill="none" stroke="#c0c0c0" stroke-width=".2" cx="165.2661" cy="-308.5298" rx="57.0522" ry="57.0522"/>
<text text-anchor="middle" x="165.2661" y="-322.0298" font-family="Times,serif" font-size="15.00" fill="#000000">Rink</text>
<text text-anchor="middle" x="165.2661" y="-305.0298" font-family="Times,serif" font-size="15.00" fill="#000000">Площадка</text>
<text text-anchor="middle" x="165.2661" y="-288.0298" font-family="Times,serif" font-size="15.00" fill="#000000">Ринк</text>
</a>
</g>
</g>
<!-- Ice -->
<g id="node3" class="node has&#45;pronunciation">
<title>Ice</title>
<g id="a_node3"><a xlink:href="../ice.html" xlink:title="Лёд" target="_top">
<ellipse fill="none" stroke="#c0c0c0" stroke-width=".2" cx="106.7565" cy="-41.7193" rx="41.9398" ry="41.9398"/>
<text text-anchor="middle" x="106.7565" y="-55.2193" font-family="Times,serif" font-size="15.00" fill="#000000">Ice</text>
<text text-anchor="middle" x="106.7565" y="-38.2193" font-family="Times,serif" font-size="15.00" fill="#000000">Лёд</text>
<text text-anchor="middle" x="106.7565" y="-21.2193" font-family="Times,serif" font-size="15.00" fill="#000000">Айс</text>
</a>
</g>
</g>
<!-- Rink&#45;&gt;Ice -->
<g id="edge2" class="edge">
<title>Rink&#45;&gt;Ice</title>
<path fill="none" stroke="#000000" stroke-dasharray="5,2" d="M152.9292,-252.2722C142.5807,-205.082 127.9292,-138.2691 117.9235,-92.6423"/>
<polygon fill="#000000" stroke="#000000" points="115.7369,-82.6712 122.2746,-91.4751 116.808,-87.5551 117.879,-92.4391 117.879,-92.4391 117.879,-92.4391 116.808,-87.5551 113.4835,-93.403 115.7369,-82.6712 115.7369,-82.6712"/>
</g>
<!-- Goal net -->
<g id="node4" class="node has&#45;pronunciation">
<title>Goal net</title>
<g id="a_node4"><a xlink:href="../goal-net.html" xlink:title="Ворота" target="_top">
<ellipse fill="none" stroke="#c0c0c0" stroke-width=".2" cx="62.9325" cy="-531.7219" rx="62.8651" ry="62.8651"/>
<text text-anchor="middle" x="62.9325" y="-548.7219" font-family="Times,serif" font-size="20.00" fill="#000000">Goal net</text>
<text text-anchor="middle" x="62.9325" y="-526.7219" font-family="Times,serif" font-size="20.00" fill="#000000">Ворота</text>
<text text-anchor="middle" x="62.9325" y="-504.7219" font-family="Times,serif" font-size="20.00" fill="#000000">Гoул нет</text>
</a>
</g>
</g>
<!-- Rink&#45;&gt;Goal net -->
<g id="edge3" class="edge">
<title>Rink&#45;&gt;Goal net</title>
<path fill="none" stroke="#000000" stroke-dasharray="5,2" d="M141.2734,-360.8584C127.0177,-391.9504 108.7975,-431.6893 93.5165,-465.0175"/>
<polygon fill="#000000" stroke="#000000" points="89.2901,-474.2353 89.3674,-463.2697 91.374,-469.6902 93.458,-465.1452 93.458,-465.1452 93.458,-465.1452 91.374,-469.6902 97.5485,-467.0207 89.2901,-474.2353 89.2901,-474.2353"/>
</g>
<!-- Game -->
<g id="node2" class="node has&#45;pronunciation">
<title>Game</title>
<g id="a_node2"><a xlink:href="../game.html" xlink:title="Игра" target="_top">
<ellipse fill="none" stroke="#c0c0c0" stroke-width=".2" cx="327.4404" cy="-352.3487" rx="52.1524" ry="52.1524"/>
<text text-anchor="middle" x="327.4404" y="-369.3487" font-family="Times,serif" font-size="20.00" fill="#000000">Game</text>
<text text-anchor="middle" x="327.4404" y="-347.3487" font-family="Times,serif" font-size="20.00" fill="#000000">Игра</text>
<text text-anchor="middle" x="327.4404" y="-325.3487" font-family="Times,serif" font-size="20.00" fill="#000000">Гейм</text>
</a>
</g>
</g>
<!-- Game&#45;&gt;Rink -->
<g id="edge1" class="edge">
<title>Game&#45;&gt;Rink</title>
<path fill="none" stroke="#000000" stroke-dasharray="5,2" d="M276.5724,-338.6044C262.0182,-334.6719 245.9483,-330.3298 230.6533,-326.1972"/>
<polygon fill="#000000" stroke="#000000" points="220.7379,-323.5181 231.5656,-321.7824 225.5648,-324.8223 230.3917,-326.1266 230.3917,-326.1266 230.3917,-326.1266 225.5648,-324.8223 229.2179,-330.4708 220.7379,-323.5181 220.7379,-323.5181"/>
</g>
</g>
</svg>
