<?xml version="1.0" encoding="UTF-8" standalone="no"?>
<?xml-stylesheet href="../static/svg.css" type="text/css"?>
<!DOCTYPE svg PUBLIC "-//W3C//DTD SVG 1.1//EN"
 "http://www.w3.org/Graphics/SVG/1.1/DTD/svg11.dtd">
<!-- Generated by graphviz version 2.40.1 (20161225.0304)
 -->
<!-- Title: term Pages: 1 -->
<svg width="503pt" height="832pt"
 viewBox="0.00 0.00 503.33 831.79" xmlns="http://www.w3.org/2000/svg" xmlns:xlink="http://www.w3.org/1999/xlink">
<g id="graph0" class="graph" transform="scale(1 1) rotate(0) translate(4 827.7872)">
<title>term</title>
<!-- Winner -->
<g id="node1" class="node root has&#45;pronunciation">
<title>Winner</title>
<g id="a_node1"><a xlink:href="javascript:history.back()" xlink:title="Победитель" target="_top">
<ellipse fill="none" stroke="#c0c0c0" stroke-width=".2" cx="280.0179" cy="-354.5052" rx="65.1077" ry="65.1077"/>
<text text-anchor="middle" x="280.0179" y="-368.0052" font-family="Times,serif" font-size="15.00" fill="#000000">Winner</text>
<text text-anchor="middle" x="280.0179" y="-351.0052" font-family="Times,serif" font-size="15.00" fill="#000000">Победитель</text>
<text text-anchor="middle" x="280.0179" y="-334.0052" font-family="Times,serif" font-size="15.00" fill="#000000">ˈУинэр</text>
</a>
</g>
</g>
<!-- Game -->
<g id="node4" class="node has&#45;pronunciation">
<title>Game</title>
<g id="a_node4"><a xlink:href="../game.html" xlink:title="Игра" target="_top">
<ellipse fill="none" stroke="#c0c0c0" stroke-width=".2" cx="154.6382" cy="-543.6548" rx="52.1524" ry="52.1524"/>
<text text-anchor="middle" x="154.6382" y="-560.6548" font-family="Times,serif" font-size="20.00" fill="#000000">Game</text>
<text text-anchor="middle" x="154.6382" y="-538.6548" font-family="Times,serif" font-size="20.00" fill="#000000">Игра</text>
<text text-anchor="middle" x="154.6382" y="-516.6548" font-family="Times,serif" font-size="20.00" fill="#000000">Гейм</text>
</a>
</g>
</g>
<!-- Winner&#45;&gt;Game -->
<g id="edge6" class="edge">
<title>Winner&#45;&gt;Game</title>
<path fill="none" stroke="#000000" stroke-dasharray="5,2" d="M243.9211,-408.9613C226.7622,-434.8475 206.3406,-465.6559 189.3615,-491.2707"/>
<polygon fill="#000000" stroke="#000000" points="183.7451,-499.7437 185.5193,-488.9223 186.5076,-495.5762 189.2701,-491.4086 189.2701,-491.4086 189.2701,-491.4086 186.5076,-495.5762 193.021,-493.8949 183.7451,-499.7437 183.7451,-499.7437"/>
</g>
<!-- Score -->
<g id="node5" class="node has&#45;pronunciation">
<title>Score</title>
<g id="a_node5"><a xlink:href="../score.html" xlink:title="Счёт" target="_top">
<ellipse fill="none" stroke="#c0c0c0" stroke-width=".2" cx="407.1095" cy="-52.3259" rx="52.1524" ry="52.1524"/>
<text text-anchor="middle" x="407.1095" y="-69.3259" font-family="Times,serif" font-size="20.00" fill="#000000">Score</text>
<text text-anchor="middle" x="407.1095" y="-47.3259" font-family="Times,serif" font-size="20.00" fill="#000000">Счёт</text>
<text text-anchor="middle" x="407.1095" y="-25.3259" font-family="Times,serif" font-size="20.00" fill="#000000">Скор</text>
</a>
</g>
</g>
<!-- Winner&#45;&gt;Score -->
<g id="edge7" class="edge">
<title>Winner&#45;&gt;Score</title>
<path fill="none" stroke="#000000" stroke-dasharray="5,2" d="M305.2791,-294.443C327.8147,-240.8611 360.592,-162.9282 382.8253,-110.0652"/>
<polygon fill="#000000" stroke="#000000" points="386.7115,-100.8251 386.9826,-111.7877 384.7731,-105.4341 382.8346,-110.0431 382.8346,-110.0431 382.8346,-110.0431 384.7731,-105.4341 378.6865,-108.2984 386.7115,-100.8251 386.7115,-100.8251"/>
</g>
<!-- Team -->
<g id="node6" class="node has&#45;pronunciation">
<title>Team</title>
<g id="a_node6"><a xlink:href="../team.html" xlink:title="Команда" target="_top">
<ellipse fill="none" stroke="#c0c0c0" stroke-width=".2" cx="242.2299" cy="-772.1684" rx="51.7379" ry="51.7379"/>
<text text-anchor="middle" x="242.2299" y="-785.6684" font-family="Times,serif" font-size="15.00" fill="#000000">Team</text>
<text text-anchor="middle" x="242.2299" y="-768.6684" font-family="Times,serif" font-size="15.00" fill="#000000">Команда</text>
<text text-anchor="middle" x="242.2299" y="-751.6684" font-family="Times,serif" font-size="15.00" fill="#000000">Тим</text>
</a>
</g>
</g>
<!-- Winner&#45;&gt;Team -->
<g id="edge8" class="edge">
<title>Winner&#45;&gt;Team</title>
<path fill="none" stroke="#000000" stroke-dasharray="5,2" d="M274.155,-419.3068C266.9631,-498.797 254.8599,-632.571 247.8031,-710.5692"/>
<polygon fill="#000000" stroke="#000000" points="246.884,-720.7278 243.3034,-710.363 247.3345,-715.7482 247.7851,-710.7685 247.7851,-710.7685 247.7851,-710.7685 247.3345,-715.7482 252.2668,-711.174 246.884,-720.7278 246.884,-720.7278"/>
</g>
<!-- Overtime -->
<g id="node2" class="node has&#45;pronunciation">
<title>Overtime</title>
<g id="a_node2"><a xlink:href="../overtime.html" xlink:title="Овертайм" target="_top">
<ellipse fill="none" stroke="#c0c0c0" stroke-width=".2" cx="426.738" cy="-567.7972" rx="68.6788" ry="68.6788"/>
<text text-anchor="middle" x="426.738" y="-581.2972" font-family="Times,serif" font-size="15.00" fill="#000000">Overtime</text>
<text text-anchor="middle" x="426.738" y="-564.2972" font-family="Times,serif" font-size="15.00" fill="#000000">Овертайм</text>
<text text-anchor="middle" x="426.738" y="-547.2972" font-family="Times,serif" font-size="15.00" fill="#000000">ˈОувэрˌтайм</text>
</a>
</g>
</g>
<!-- Overtime&#45;&gt;Winner -->
<g id="edge4" class="edge">
<title>Overtime&#45;&gt;Winner</title>
<path fill="none" stroke="#000000" stroke-dasharray="5,2" d="M387.8049,-511.1989C367.7841,-482.094 343.3391,-446.5574 322.793,-416.6888"/>
<polygon fill="#000000" stroke="#000000" points="317.1082,-408.4247 326.4832,-414.1133 319.942,-412.5441 322.7757,-416.6636 322.7757,-416.6636 322.7757,-416.6636 319.942,-412.5441 319.0682,-419.214 317.1082,-408.4247 317.1082,-408.4247"/>
</g>
<!-- Shootout -->
<g id="node3" class="node has&#45;pronunciation">
<title>Shootout</title>
<g id="a_node3"><a xlink:href="../shootout.html" xlink:title="Буллиты" target="_top">
<ellipse fill="none" stroke="#c0c0c0" stroke-width=".2" cx="50.9117" cy="-254.719" rx="50.8235" ry="50.8235"/>
<text text-anchor="middle" x="50.9117" y="-268.219" font-family="Times,serif" font-size="15.00" fill="#000000">Shootout</text>
<text text-anchor="middle" x="50.9117" y="-251.219" font-family="Times,serif" font-size="15.00" fill="#000000">Буллиты</text>
<text text-anchor="middle" x="50.9117" y="-234.219" font-family="Times,serif" font-size="15.00" fill="#000000">ˈШутaут</text>
</a>
</g>
</g>
<!-- Shootout&#45;&gt;Winner -->
<g id="edge5" class="edge">
<title>Shootout&#45;&gt;Winner</title>
<path fill="none" stroke="#000000" stroke-dasharray="5,2" d="M97.8276,-275.153C130.2749,-289.2853 174.0018,-308.3303 210.4842,-324.2201"/>
<polygon fill="#000000" stroke="#000000" points="220.0778,-328.3985 209.1127,-328.531 215.4937,-326.4019 210.9097,-324.4053 210.9097,-324.4053 210.9097,-324.4053 215.4937,-326.4019 212.7066,-320.2797 220.0778,-328.3985 220.0778,-328.3985"/>
</g>
<!-- Game&#45;&gt;Overtime -->
<g id="edge2" class="edge">
<title>Game&#45;&gt;Overtime</title>
<path fill="none" stroke="#000000" stroke-dasharray="5,2" d="M206.7798,-548.2812C246.8062,-551.8326 302.7297,-556.7944 348.1704,-560.8262"/>
<polygon fill="#000000" stroke="#000000" points="358.2891,-561.724 347.9305,-565.3225 353.3087,-561.2821 348.3283,-560.8401 348.3283,-560.8401 348.3283,-560.8401 353.3087,-561.2821 348.726,-556.3577 358.2891,-561.724 358.2891,-561.724"/>
</g>
<!-- Game&#45;&gt;Shootout -->
<g id="edge3" class="edge">
<title>Game&#45;&gt;Shootout</title>
<path fill="none" stroke="#000000" stroke-dasharray="5,2" d="M136.9248,-494.3133C118.8401,-443.9374 90.7828,-365.7821 71.6674,-312.535"/>
<polygon fill="#000000" stroke="#000000" points="68.2066,-302.8948 75.8208,-310.7862 69.896,-307.6007 71.5855,-312.3067 71.5855,-312.3067 71.5855,-312.3067 69.896,-307.6007 67.3501,-313.8272 68.2066,-302.8948 68.2066,-302.8948"/>
</g>
<!-- Game&#45;&gt;Team -->
<g id="edge1" class="edge">
<title>Game&#45;&gt;Team</title>
<path fill="none" stroke="#000000" stroke-dasharray="5,2" d="M173.4288,-592.6767C187.0415,-628.1901 205.5011,-676.3485 219.8724,-713.8412"/>
<polygon fill="#000000" stroke="#000000" points="223.6209,-723.6203 215.8397,-715.8934 221.8312,-718.9515 220.0416,-714.2827 220.0416,-714.2827 220.0416,-714.2827 221.8312,-718.9515 224.2435,-712.6721 223.6209,-723.6203 223.6209,-723.6203"/>
</g>
</g>
</svg>
