<?xml version="1.0" encoding="UTF-8" standalone="no"?>
<?xml-stylesheet href="../static/svg.css" type="text/css"?>
<!DOCTYPE svg PUBLIC "-//W3C//DTD SVG 1.1//EN"
 "http://www.w3.org/Graphics/SVG/1.1/DTD/svg11.dtd">
<!-- Generated by graphviz version 2.40.1 (20161225.0304)
 -->
<!-- Title: term Pages: 1 -->
<svg width="314pt" height="419pt"
 viewBox="0.00 0.00 314.32 419.29" xmlns="http://www.w3.org/2000/svg" xmlns:xlink="http://www.w3.org/1999/xlink">
<g id="graph0" class="graph" transform="scale(1 1) rotate(0) translate(4 415.2851)">
<title>term</title>
<!-- Backhand shot -->
<g id="node1" class="node root has&#45;pronunciation">
<title>Backhand shot</title>
<g id="a_node1"><a xlink:href="javascript:history.back()" xlink:title="С неудобной" target="_top">
<ellipse fill="none" stroke="#c0c0c0" stroke-width=".2" cx="75.6604" cy="-335.6247" rx="75.8212" ry="75.8212"/>
<text text-anchor="middle" x="75.6604" y="-349.1247" font-family="Times,serif" font-size="15.00" fill="#000000">Backhand shot</text>
<text text-anchor="middle" x="75.6604" y="-332.1247" font-family="Times,serif" font-size="15.00" fill="#000000">С неудобной</text>
<text text-anchor="middle" x="75.6604" y="-315.1247" font-family="Times,serif" font-size="15.00" fill="#000000">ˈБэкˌхэнд шат</text>
</a>
</g>
</g>
<!-- Wrist shot -->
<g id="node3" class="node has&#45;pronunciation">
<title>Wrist shot</title>
<g id="a_node3"><a xlink:href="../wrist-shot.html" xlink:title="Кистевой" target="_top">
<ellipse fill="none" stroke="#c0c0c0" stroke-width=".2" cx="158.5113" cy="-56.5685" rx="56.6372" ry="56.6372"/>
<text text-anchor="middle" x="158.5113" y="-70.0685" font-family="Times,serif" font-size="15.00" fill="#000000">Wrist shot</text>
<text text-anchor="middle" x="158.5113" y="-53.0685" font-family="Times,serif" font-size="15.00" fill="#000000">Кистевой</text>
<text text-anchor="middle" x="158.5113" y="-36.0685" font-family="Times,serif" font-size="15.00" fill="#000000">Рист шат</text>
</a>
</g>
</g>
<!-- Backhand shot&#45;&gt;Wrist shot -->
<g id="edge3" class="edge">
<title>Backhand shot&#45;&gt;Wrist shot</title>
<path fill="none" stroke="#000000" stroke-dasharray="5,2" d="M97.2122,-263.0344C110.2897,-218.9873 126.8301,-163.2763 139.4326,-120.829"/>
<polygon fill="#000000" stroke="#000000" points="142.3024,-111.1629 143.77,-122.0302 140.8793,-115.9561 139.4562,-120.7494 139.4562,-120.7494 139.4562,-120.7494 140.8793,-115.9561 135.1423,-119.4685 142.3024,-111.1629 142.3024,-111.1629"/>
</g>
<!-- Shot -->
<g id="node2" class="node has&#45;pronunciation">
<title>Shot</title>
<g id="a_node2"><a xlink:href="../shot.html" xlink:title="Бросок" target="_top">
<ellipse fill="none" stroke="#c0c0c0" stroke-width=".2" cx="239.1481" cy="-337.7594" rx="67.3507" ry="67.3507"/>
<text text-anchor="middle" x="239.1481" y="-359.7594" font-family="Times,serif" font-size="25.00" fill="#000000">Shot</text>
<text text-anchor="middle" x="239.1481" y="-331.7594" font-family="Times,serif" font-size="25.00" fill="#000000">Бросок</text>
<text text-anchor="middle" x="239.1481" y="-303.7594" font-family="Times,serif" font-size="25.00" fill="#000000">Шат</text>
</a>
</g>
</g>
<!-- Shot&#45;&gt;Backhand shot -->
<g id="edge2" class="edge">
<title>Shot&#45;&gt;Backhand shot</title>
<path fill="none" stroke="#000000" stroke-dasharray="5,2" d="M171.7075,-336.8788C168.3651,-336.8352 164.9898,-336.7911 161.6048,-336.7469"/>
<polygon fill="#000000" stroke="#000000" points="151.4443,-336.6142 161.5023,-332.2453 156.4439,-336.6796 161.4435,-336.7449 161.4435,-336.7449 161.4435,-336.7449 156.4439,-336.6796 161.3847,-341.2445 151.4443,-336.6142 151.4443,-336.6142"/>
</g>
<!-- Shot&#45;&gt;Wrist shot -->
<g id="edge1" class="edge">
<title>Shot&#45;&gt;Wrist shot</title>
<path fill="none" stroke="#000000" stroke-dasharray="5,2" d="M220.5472,-272.8955C207.4608,-227.2618 190.0237,-166.4563 176.9692,-120.9337"/>
<polygon fill="#000000" stroke="#000000" points="174.1698,-111.1719 181.2521,-119.5439 175.5482,-115.9781 176.9265,-120.7844 176.9265,-120.7844 176.9265,-120.7844 175.5482,-115.9781 172.6008,-122.0249 174.1698,-111.1719 174.1698,-111.1719"/>
</g>
</g>
</svg>
