<?xml version="1.0" encoding="UTF-8" standalone="no"?>
<?xml-stylesheet href="../static/svg.css" type="text/css"?>
<!DOCTYPE svg PUBLIC "-//W3C//DTD SVG 1.1//EN"
 "http://www.w3.org/Graphics/SVG/1.1/DTD/svg11.dtd">
<!-- Generated by graphviz version 2.40.1 (20161225.0304)
 -->
<!-- Title: term Pages: 1 -->
<svg width="591pt" height="887pt"
 viewBox="0.00 0.00 590.67 887.21" xmlns="http://www.w3.org/2000/svg" xmlns:xlink="http://www.w3.org/1999/xlink">
<g id="graph0" class="graph" transform="scale(1 1) rotate(0) translate(4 883.2077)">
<title>term</title>
<!-- Goal -->
<g id="node1" class="node root has&#45;pronunciation">
<title>Goal</title>
<g id="a_node1"><a xlink:href="javascript:history.back()" xlink:title="Гол" target="_top">
<ellipse fill="none" stroke="#c0c0c0" stroke-width=".2" cx="277.9148" cy="-379.8813" rx="65.1077" ry="65.1077"/>
<text text-anchor="middle" x="277.9148" y="-401.8813" font-family="Times,serif" font-size="25.00" fill="#000000">Goal</text>
<text text-anchor="middle" x="277.9148" y="-373.8813" font-family="Times,serif" font-size="25.00" fill="#000000">Гол</text>
<text text-anchor="middle" x="277.9148" y="-345.8813" font-family="Times,serif" font-size="25.00" fill="#000000">Гoул</text>
</a>
</g>
</g>
<!-- Puck -->
<g id="node6" class="node has&#45;pronunciation">
<title>Puck</title>
<g id="a_node6"><a xlink:href="../puck.html" xlink:title="Шайба" target="_top">
<ellipse fill="none" stroke="#c0c0c0" stroke-width=".2" cx="65.0538" cy="-650.3991" rx="65.1077" ry="65.1077"/>
<text text-anchor="middle" x="65.0538" y="-672.3991" font-family="Times,serif" font-size="25.00" fill="#000000">Puck</text>
<text text-anchor="middle" x="65.0538" y="-644.3991" font-family="Times,serif" font-size="25.00" fill="#000000">Шайба</text>
<text text-anchor="middle" x="65.0538" y="-616.3991" font-family="Times,serif" font-size="25.00" fill="#000000">Пак</text>
</a>
</g>
</g>
<!-- Goal&#45;&gt;Puck -->
<g id="edge11" class="edge">
<title>Goal&#45;&gt;Puck</title>
<path fill="none" stroke="#000000" stroke-dasharray="5,2" d="M237.627,-431.0816C201.8508,-476.5485 149.5545,-543.0101 111.9173,-590.8418"/>
<polygon fill="#000000" stroke="#000000" points="105.5385,-598.9485 108.1858,-588.307 108.6304,-595.0191 111.7223,-591.0897 111.7223,-591.0897 111.7223,-591.0897 108.6304,-595.0191 115.2588,-593.8724 105.5385,-598.9485 105.5385,-598.9485"/>
</g>
<!-- Goal net -->
<g id="node7" class="node has&#45;pronunciation">
<title>Goal net</title>
<g id="a_node7"><a xlink:href="../goal-net.html" xlink:title="Ворота" target="_top">
<ellipse fill="none" stroke="#c0c0c0" stroke-width=".2" cx="98.8631" cy="-235.7433" rx="77.5641" ry="77.5641"/>
<text text-anchor="middle" x="98.8631" y="-257.7433" font-family="Times,serif" font-size="25.00" fill="#000000">Goal net</text>
<text text-anchor="middle" x="98.8631" y="-229.7433" font-family="Times,serif" font-size="25.00" fill="#000000">Ворота</text>
<text text-anchor="middle" x="98.8631" y="-201.7433" font-family="Times,serif" font-size="25.00" fill="#000000">Гoул нет</text>
</a>
</g>
</g>
<!-- Goal&#45;&gt;Goal net -->
<g id="edge12" class="edge">
<title>Goal&#45;&gt;Goal net</title>
<path fill="none" stroke="#000000" stroke-dasharray="5,2" d="M227.0847,-338.9627C208.5561,-324.047 187.2893,-306.9271 167.4711,-290.9733"/>
<polygon fill="#000000" stroke="#000000" points="159.6653,-284.6895 170.2768,-287.4549 163.5601,-287.8249 167.4549,-290.9603 167.4549,-290.9603 167.4549,-290.9603 163.5601,-287.8249 164.6331,-294.4656 159.6653,-284.6895 159.6653,-284.6895"/>
</g>
<!-- Score -->
<g id="node2" class="node has&#45;pronunciation">
<title>Score</title>
<g id="a_node2"><a xlink:href="../score.html" xlink:title="Счёт" target="_top">
<ellipse fill="none" stroke="#c0c0c0" stroke-width=".2" cx="517.6188" cy="-288.6451" rx="65.1077" ry="65.1077"/>
<text text-anchor="middle" x="517.6188" y="-310.6451" font-family="Times,serif" font-size="25.00" fill="#000000">Score</text>
<text text-anchor="middle" x="517.6188" y="-282.6451" font-family="Times,serif" font-size="25.00" fill="#000000">Счёт</text>
<text text-anchor="middle" x="517.6188" y="-254.6451" font-family="Times,serif" font-size="25.00" fill="#000000">Скор</text>
</a>
</g>
</g>
<!-- Score&#45;&gt;Goal -->
<g id="edge7" class="edge">
<title>Score&#45;&gt;Goal</title>
<path fill="none" stroke="#000000" stroke-dasharray="5,2" d="M456.5111,-311.9039C423.5464,-324.4509 382.7047,-339.9961 348.4009,-353.0528"/>
<polygon fill="#000000" stroke="#000000" points="338.9109,-356.6649 346.656,-348.9019 343.5838,-354.8863 348.2568,-353.1076 348.2568,-353.1076 348.2568,-353.1076 343.5838,-354.8863 349.8576,-357.3133 338.9109,-356.6649 338.9109,-356.6649"/>
</g>
<!-- Point -->
<g id="node3" class="node has&#45;pronunciation">
<title>Point</title>
<g id="a_node3"><a xlink:href="../point.html" xlink:title="Очко" target="_top">
<ellipse fill="none" stroke="#c0c0c0" stroke-width=".2" cx="402.1281" cy="-41.7193" rx="41.9398" ry="41.9398"/>
<text text-anchor="middle" x="402.1281" y="-55.2193" font-family="Times,serif" font-size="15.00" fill="#000000">Point</text>
<text text-anchor="middle" x="402.1281" y="-38.2193" font-family="Times,serif" font-size="15.00" fill="#000000">Очко</text>
<text text-anchor="middle" x="402.1281" y="-21.2193" font-family="Times,serif" font-size="15.00" fill="#000000">Пойнт</text>
</a>
</g>
</g>
<!-- Score&#45;&gt;Point -->
<g id="edge1" class="edge">
<title>Score&#45;&gt;Point</title>
<path fill="none" stroke="#000000" stroke-dasharray="5,2" d="M489.9559,-229.5002C469.8158,-186.4395 442.9022,-128.8967 424.1986,-88.9072"/>
<polygon fill="#000000" stroke="#000000" points="419.8662,-79.6444 428.1791,-86.7961 421.9846,-84.1735 424.1029,-88.7026 424.1029,-88.7026 424.1029,-88.7026 421.9846,-84.1735 420.0267,-90.6091 419.8662,-79.6444 419.8662,-79.6444"/>
</g>
<!-- Point&#45;&gt;Goal -->
<g id="edge8" class="edge">
<title>Point&#45;&gt;Goal</title>
<path fill="none" stroke="#000000" stroke-dasharray="5,2" d="M387.6362,-81.1726C367.1299,-136.9994 329.316,-239.9451 303.8897,-309.1664"/>
<polygon fill="#000000" stroke="#000000" points="300.3873,-318.7016 299.6112,-307.7632 302.1113,-314.0082 303.8353,-309.3148 303.8353,-309.3148 303.8353,-309.3148 302.1113,-314.0082 308.0593,-310.8664 300.3873,-318.7016 300.3873,-318.7016"/>
</g>
<!-- Player -->
<g id="node4" class="node has&#45;pronunciation">
<title>Player</title>
<g id="a_node4"><a xlink:href="../player.html" xlink:title="Игрок" target="_top">
<ellipse fill="none" stroke="#c0c0c0" stroke-width=".2" cx="403.3534" cy="-736.6642" rx="46.8387" ry="46.8387"/>
<text text-anchor="middle" x="403.3534" y="-750.1642" font-family="Times,serif" font-size="15.00" fill="#000000">Player</text>
<text text-anchor="middle" x="403.3534" y="-733.1642" font-family="Times,serif" font-size="15.00" fill="#000000">Игрок</text>
<text text-anchor="middle" x="403.3534" y="-716.1642" font-family="Times,serif" font-size="15.00" fill="#000000">&#39;Плейэр</text>
</a>
</g>
</g>
<!-- Point&#45;&gt;Player -->
<g id="edge2" class="edge">
<title>Point&#45;&gt;Player</title>
<path fill="none" stroke="#000000" stroke-dasharray="5,2" d="M402.202,-83.6262C402.412,-202.746 403.0127,-543.462 403.2526,-679.5269"/>
<polygon fill="#000000" stroke="#000000" points="403.2706,-689.737 398.7529,-679.745 403.2618,-684.737 403.2529,-679.737 403.2529,-679.737 403.2529,-679.737 403.2618,-684.737 407.7529,-679.7291 403.2706,-689.737 403.2706,-689.737"/>
</g>
<!-- Player&#45;&gt;Goal -->
<g id="edge9" class="edge">
<title>Player&#45;&gt;Goal</title>
<path fill="none" stroke="#000000" stroke-dasharray="5,2" d="M387.8463,-692.5578C366.6113,-632.1594 328.2381,-523.015 302.9154,-450.9901"/>
<polygon fill="#000000" stroke="#000000" points="299.5863,-441.5211 307.1484,-449.4624 301.2447,-446.238 302.9031,-450.955 302.9031,-450.955 302.9031,-450.955 301.2447,-446.238 298.6579,-452.4476 299.5863,-441.5211 299.5863,-441.5211"/>
</g>
<!-- Hockey -->
<g id="node5" class="node has&#45;pronunciation">
<title>Hockey</title>
<g id="a_node5"><a xlink:href="../hockey.html" xlink:title="Хоккей" target="_top">
<ellipse fill="none" stroke="#c0c0c0" stroke-width=".2" cx="207.3638" cy="-833.9529" rx="45.011" ry="45.011"/>
<text text-anchor="middle" x="207.3638" y="-847.4529" font-family="Times,serif" font-size="15.00" fill="#000000">Hockey</text>
<text text-anchor="middle" x="207.3638" y="-830.4529" font-family="Times,serif" font-size="15.00" fill="#000000">Хоккей</text>
<text text-anchor="middle" x="207.3638" y="-813.4529" font-family="Times,serif" font-size="15.00" fill="#000000">ˈХаки</text>
</a>
</g>
</g>
<!-- Hockey&#45;&gt;Goal -->
<g id="edge10" class="edge">
<title>Hockey&#45;&gt;Goal</title>
<path fill="none" stroke="#000000" stroke-dasharray="5,2" d="M214.3216,-789.1721C226.4468,-711.1332 251.564,-549.4768 266.3451,-454.345"/>
<polygon fill="#000000" stroke="#000000" points="267.9185,-444.2182 270.8298,-454.7905 267.1508,-449.1589 266.3831,-454.0996 266.3831,-454.0996 266.3831,-454.0996 267.1508,-449.1589 261.9365,-453.4087 267.9185,-444.2182 267.9185,-444.2182"/>
</g>
<!-- Hockey&#45;&gt;Player -->
<g id="edge3" class="edge">
<title>Hockey&#45;&gt;Player</title>
<path fill="none" stroke="#000000" stroke-dasharray="5,2" d="M247.973,-813.7946C278.1794,-798.8002 319.6176,-778.2304 352.1045,-762.104"/>
<polygon fill="#000000" stroke="#000000" points="361.444,-757.4679 354.4877,-765.945 356.9654,-759.6911 352.4868,-761.9143 352.4868,-761.9143 352.4868,-761.9143 356.9654,-759.6911 350.4859,-757.8835 361.444,-757.4679 361.444,-757.4679"/>
</g>
<!-- Hockey&#45;&gt;Puck -->
<g id="edge4" class="edge">
<title>Hockey&#45;&gt;Puck</title>
<path fill="none" stroke="#000000" stroke-dasharray="5,2" d="M179.5872,-798.1261C160.2157,-773.1405 133.908,-739.2083 111.3909,-710.1654"/>
<polygon fill="#000000" stroke="#000000" points="105.1494,-702.115 114.833,-707.2607 108.213,-706.0665 111.2766,-710.018 111.2766,-710.018 111.2766,-710.018 108.213,-706.0665 107.7203,-712.7752 105.1494,-702.115 105.1494,-702.115"/>
</g>
<!-- Hockey&#45;&gt;Goal net -->
<g id="edge5" class="edge">
<title>Hockey&#45;&gt;Goal net</title>
<path fill="none" stroke="#000000" stroke-dasharray="5,2" d="M199.2086,-788.9899C181.2446,-689.947 138.0002,-451.5224 114.5754,-322.3719"/>
<polygon fill="#000000" stroke="#000000" points="112.7858,-312.5048 118.9982,-321.5412 113.6781,-317.4246 114.5705,-322.3443 114.5705,-322.3443 114.5705,-322.3443 113.6781,-317.4246 110.1427,-323.1474 112.7858,-312.5048 112.7858,-312.5048"/>
</g>
<!-- Puck&#45;&gt;Goal net -->
<g id="edge6" class="edge">
<title>Puck&#45;&gt;Goal net</title>
<path fill="none" stroke="#000000" stroke-dasharray="5,2" d="M70.3737,-585.153C76.1221,-514.6511 85.3142,-401.9149 91.6962,-323.6416"/>
<polygon fill="#000000" stroke="#000000" points="92.5383,-313.3141 96.2107,-323.6467 92.1319,-318.2975 91.7255,-323.281 91.7255,-323.281 91.7255,-323.281 92.1319,-318.2975 87.2404,-322.9152 92.5383,-313.3141 92.5383,-313.3141"/>
</g>
</g>
</svg>
