<?xml version="1.0" encoding="UTF-8" standalone="no"?>
<?xml-stylesheet href="../static/svg.css" type="text/css"?>
<!DOCTYPE svg PUBLIC "-//W3C//DTD SVG 1.1//EN"
 "http://www.w3.org/Graphics/SVG/1.1/DTD/svg11.dtd">
<!-- Generated by graphviz version 2.40.1 (20161225.0304)
 -->
<!-- Title: term Pages: 1 -->
<svg width="319pt" height="449pt"
 viewBox="0.00 0.00 319.42 449.47" xmlns="http://www.w3.org/2000/svg" xmlns:xlink="http://www.w3.org/1999/xlink">
<g id="graph0" class="graph" transform="scale(1 1) rotate(0) translate(4 445.4671)">
<title>term</title>
<!-- Slapshot -->
<g id="node1" class="node root has&#45;pronunciation">
<title>Slapshot</title>
<g id="a_node1"><a xlink:href="javascript:history.back()" xlink:title="Щелчок" target="_top">
<ellipse fill="none" stroke="#c0c0c0" stroke-width=".2" cx="50.9117" cy="-372.1482" rx="50.8235" ry="50.8235"/>
<text text-anchor="middle" x="50.9117" y="-385.6482" font-family="Times,serif" font-size="15.00" fill="#000000">Slapshot</text>
<text text-anchor="middle" x="50.9117" y="-368.6482" font-family="Times,serif" font-size="15.00" fill="#000000">Щелчок</text>
<text text-anchor="middle" x="50.9117" y="-351.6482" font-family="Times,serif" font-size="15.00" fill="#000000">Слэпшат</text>
</a>
</g>
</g>
<!-- Shot -->
<g id="node2" class="node has&#45;pronunciation">
<title>Shot</title>
<g id="a_node2"><a xlink:href="../shot.html" xlink:title="Бросок" target="_top">
<ellipse fill="none" stroke="#c0c0c0" stroke-width=".2" cx="244.2472" cy="-374.2919" rx="67.3507" ry="67.3507"/>
<text text-anchor="middle" x="244.2472" y="-396.2919" font-family="Times,serif" font-size="25.00" fill="#000000">Shot</text>
<text text-anchor="middle" x="244.2472" y="-368.2919" font-family="Times,serif" font-size="25.00" fill="#000000">Бросок</text>
<text text-anchor="middle" x="244.2472" y="-340.2919" font-family="Times,serif" font-size="25.00" fill="#000000">Шат</text>
</a>
</g>
</g>
<!-- Shot&#45;&gt;Slapshot -->
<g id="edge2" class="edge">
<title>Shot&#45;&gt;Slapshot</title>
<path fill="none" stroke="#000000" stroke-dasharray="5,2" d="M176.8992,-373.5452C155.83,-373.3116 132.7082,-373.0552 112.0883,-372.8265"/>
<polygon fill="#000000" stroke="#000000" points="101.8732,-372.7133 111.9226,-368.3245 106.8729,-372.7688 111.8726,-372.8242 111.8726,-372.8242 111.8726,-372.8242 106.8729,-372.7688 111.8227,-377.324 101.8732,-372.7133 101.8732,-372.7133"/>
</g>
<!-- Snap shot -->
<g id="node3" class="node has&#45;pronunciation">
<title>Snap shot</title>
<g id="a_node3"><a xlink:href="../snap-shot.html" xlink:title="Короткий щелчок" target="_top">
<ellipse fill="none" stroke="#c0c0c0" stroke-width=".2" cx="148.8886" cy="-91.9239" rx="91.8478" ry="91.8478"/>
<text text-anchor="middle" x="148.8886" y="-105.4239" font-family="Times,serif" font-size="15.00" fill="#000000">Snap shot</text>
<text text-anchor="middle" x="148.8886" y="-88.4239" font-family="Times,serif" font-size="15.00" fill="#000000">Короткий щелчок</text>
<text text-anchor="middle" x="148.8886" y="-71.4239" font-family="Times,serif" font-size="15.00" fill="#000000">Снэп шат</text>
</a>
</g>
</g>
<!-- Shot&#45;&gt;Snap shot -->
<g id="edge1" class="edge">
<title>Shot&#45;&gt;Snap shot</title>
<path fill="none" stroke="#000000" stroke-dasharray="5,2" d="M222.7279,-310.571C210.5991,-274.656 195.1991,-229.0547 181.6049,-188.8008"/>
<polygon fill="#000000" stroke="#000000" points="178.3728,-179.2303 185.8359,-187.2648 179.9727,-183.9675 181.5725,-188.7047 181.5725,-188.7047 181.5725,-188.7047 179.9727,-183.9675 177.309,-190.1445 178.3728,-179.2303 178.3728,-179.2303"/>
</g>
<!-- Snap shot&#45;&gt;Slapshot -->
<g id="edge3" class="edge">
<title>Snap shot&#45;&gt;Slapshot</title>
<path fill="none" stroke="#000000" stroke-dasharray="5,2" d="M118.4251,-179.0525C103.0447,-223.0421 84.8073,-275.2031 71.1668,-314.2165"/>
<polygon fill="#000000" stroke="#000000" points="67.8024,-323.8389 66.8551,-312.914 69.4527,-319.1191 71.1029,-314.3992 71.1029,-314.3992 71.1029,-314.3992 69.4527,-319.1191 75.3508,-315.8845 67.8024,-323.8389 67.8024,-323.8389"/>
</g>
</g>
</svg>
