<?xml version="1.0" encoding="UTF-8" standalone="no"?>
<?xml-stylesheet href="../static/svg.css" type="text/css"?>
<!DOCTYPE svg PUBLIC "-//W3C//DTD SVG 1.1//EN"
 "http://www.w3.org/Graphics/SVG/1.1/DTD/svg11.dtd">
<!-- Generated by graphviz version 2.40.1 (20161225.0304)
 -->
<!-- Title: term Pages: 1 -->
<svg width="346pt" height="521pt"
 viewBox="0.00 0.00 345.85 521.03" xmlns="http://www.w3.org/2000/svg" xmlns:xlink="http://www.w3.org/1999/xlink">
<g id="graph0" class="graph" transform="scale(1 1) rotate(0) translate(4 517.0324)">
<title>term</title>
<!-- Stick -->
<g id="node1" class="node root has&#45;pronunciation">
<title>Stick</title>
<g id="a_node1"><a xlink:href="javascript:history.back()" xlink:title="Клюшка" target="_top">
<ellipse fill="none" stroke="#c0c0c0" stroke-width=".2" cx="48.7904" cy="-222.1893" rx="48.5816" ry="48.5816"/>
<text text-anchor="middle" x="48.7904" y="-235.6893" font-family="Times,serif" font-size="15.00" fill="#000000">Stick</text>
<text text-anchor="middle" x="48.7904" y="-218.6893" font-family="Times,serif" font-size="15.00" fill="#000000">Клюшка</text>
<text text-anchor="middle" x="48.7904" y="-201.6893" font-family="Times,serif" font-size="15.00" fill="#000000">Стик</text>
</a>
</g>
</g>
<!-- Puck -->
<g id="node4" class="node has&#45;pronunciation">
<title>Puck</title>
<g id="a_node4"><a xlink:href="../puck.html" xlink:title="Шайба" target="_top">
<ellipse fill="none" stroke="#c0c0c0" stroke-width=".2" cx="143.1747" cy="-460.7065" rx="52.1524" ry="52.1524"/>
<text text-anchor="middle" x="143.1747" y="-477.7065" font-family="Times,serif" font-size="20.00" fill="#000000">Puck</text>
<text text-anchor="middle" x="143.1747" y="-455.7065" font-family="Times,serif" font-size="20.00" fill="#000000">Шайба</text>
<text text-anchor="middle" x="143.1747" y="-433.7065" font-family="Times,serif" font-size="20.00" fill="#000000">Пак</text>
</a>
</g>
</g>
<!-- Stick&#45;&gt;Puck -->
<g id="edge6" class="edge">
<title>Stick&#45;&gt;Puck</title>
<path fill="none" stroke="#000000" stroke-dasharray="5,2" d="M66.7655,-267.614C81.8998,-305.8596 103.6435,-360.8076 120.0687,-402.3155"/>
<polygon fill="#000000" stroke="#000000" points="123.8045,-411.7563 115.9407,-404.1137 121.9648,-407.1071 120.125,-402.4579 120.125,-402.4579 120.125,-402.4579 121.9648,-407.1071 124.3093,-400.8021 123.8045,-411.7563 123.8045,-411.7563"/>
</g>
<!-- Shot -->
<g id="node2" class="node has&#45;pronunciation">
<title>Shot</title>
<g id="a_node2"><a xlink:href="../shot.html" xlink:title="Бросок" target="_top">
<ellipse fill="none" stroke="#c0c0c0" stroke-width=".2" cx="270.6758" cy="-283.6329" rx="67.3507" ry="67.3507"/>
<text text-anchor="middle" x="270.6758" y="-305.6329" font-family="Times,serif" font-size="25.00" fill="#000000">Shot</text>
<text text-anchor="middle" x="270.6758" y="-277.6329" font-family="Times,serif" font-size="25.00" fill="#000000">Бросок</text>
<text text-anchor="middle" x="270.6758" y="-249.6329" font-family="Times,serif" font-size="25.00" fill="#000000">Шат</text>
</a>
</g>
</g>
<!-- Shot&#45;&gt;Stick -->
<g id="edge4" class="edge">
<title>Shot&#45;&gt;Stick</title>
<path fill="none" stroke="#000000" stroke-dasharray="5,2" d="M205.9009,-265.6957C174.1594,-256.906 136.2813,-246.417 105.6707,-237.9404"/>
<polygon fill="#000000" stroke="#000000" points="96.0046,-235.2637 106.8429,-233.5957 100.8233,-236.5981 105.6419,-237.9325 105.6419,-237.9325 105.6419,-237.9325 100.8233,-236.5981 104.441,-242.2693 96.0046,-235.2637 96.0046,-235.2637"/>
</g>
<!-- Shot&#45;&gt;Puck -->
<g id="edge1" class="edge">
<title>Shot&#45;&gt;Puck</title>
<path fill="none" stroke="#000000" stroke-dasharray="5,2" d="M231.3809,-338.2057C214.966,-361.0027 196.0015,-387.3406 179.8731,-409.7398"/>
<polygon fill="#000000" stroke="#000000" points="173.8418,-418.116 176.0333,-407.3714 176.7635,-414.0584 179.6851,-410.0009 179.6851,-410.0009 179.6851,-410.0009 176.7635,-414.0584 183.337,-412.6304 173.8418,-418.116 173.8418,-418.116"/>
</g>
<!-- Hockey -->
<g id="node3" class="node has&#45;pronunciation">
<title>Hockey</title>
<g id="a_node3"><a xlink:href="../hockey.html" xlink:title="Хоккей" target="_top">
<ellipse fill="none" stroke="#c0c0c0" stroke-width=".2" cx="176.0596" cy="-45.2548" rx="45.011" ry="45.011"/>
<text text-anchor="middle" x="176.0596" y="-58.7548" font-family="Times,serif" font-size="15.00" fill="#000000">Hockey</text>
<text text-anchor="middle" x="176.0596" y="-41.7548" font-family="Times,serif" font-size="15.00" fill="#000000">Хоккей</text>
<text text-anchor="middle" x="176.0596" y="-24.7548" font-family="Times,serif" font-size="15.00" fill="#000000">ˈХаки</text>
</a>
</g>
</g>
<!-- Hockey&#45;&gt;Stick -->
<g id="edge5" class="edge">
<title>Hockey&#45;&gt;Stick</title>
<path fill="none" stroke="#000000" stroke-dasharray="5,2" d="M149.3798,-82.3461C130.2073,-109.0004 104.1857,-145.1767 83.4125,-174.0564"/>
<polygon fill="#000000" stroke="#000000" points="77.4258,-182.3792 79.612,-171.6335 80.3455,-178.3202 83.2652,-174.2612 83.2652,-174.2612 83.2652,-174.2612 80.3455,-178.3202 86.9183,-176.8889 77.4258,-182.3792 77.4258,-182.3792"/>
</g>
<!-- Hockey&#45;&gt;Shot -->
<g id="edge2" class="edge">
<title>Hockey&#45;&gt;Shot</title>
<path fill="none" stroke="#000000" stroke-dasharray="5,2" d="M192.7573,-87.3233C206.3906,-121.6715 225.9677,-170.9944 242.0875,-211.6069"/>
<polygon fill="#000000" stroke="#000000" points="245.787,-220.9276 237.9152,-213.2932 243.9424,-216.2803 242.0978,-211.633 242.0978,-211.633 242.0978,-211.633 243.9424,-216.2803 246.2804,-209.9729 245.787,-220.9276 245.787,-220.9276"/>
</g>
<!-- Hockey&#45;&gt;Puck -->
<g id="edge3" class="edge">
<title>Hockey&#45;&gt;Puck</title>
<path fill="none" stroke="#000000" stroke-dasharray="5,2" d="M172.4778,-90.5063C166.5751,-165.0773 154.7937,-313.9177 148.1073,-398.3906"/>
<polygon fill="#000000" stroke="#000000" points="147.3179,-408.3638 143.6211,-398.0398 147.7125,-403.3794 148.1071,-398.395 148.1071,-398.395 148.1071,-398.395 147.7125,-403.3794 152.593,-398.7501 147.3179,-408.3638 147.3179,-408.3638"/>
</g>
</g>
</svg>
