<?xml version="1.0" encoding="UTF-8" standalone="no"?>
<?xml-stylesheet href="../static/svg.css" type="text/css"?>
<!DOCTYPE svg PUBLIC "-//W3C//DTD SVG 1.1//EN"
 "http://www.w3.org/Graphics/SVG/1.1/DTD/svg11.dtd">
<!-- Generated by graphviz version 2.40.1 (20161225.0304)
 -->
<!-- Title: term Pages: 1 -->
<svg width="606pt" height="957pt"
 viewBox="0.00 0.00 605.50 956.91" xmlns="http://www.w3.org/2000/svg" xmlns:xlink="http://www.w3.org/1999/xlink">
<g id="graph0" class="graph" transform="scale(1 1) rotate(0) translate(4 952.9062)">
<title>term</title>
<!-- Hockey -->
<g id="node1" class="node root has&#45;pronunciation">
<title>Hockey</title>
<g id="a_node1"><a xlink:href="../" xlink:title="Хоккей" target="_top">
<ellipse fill="none" stroke="#c0c0c0" stroke-width=".2" cx="315.7558" cy="-423.2785" rx="45.011" ry="45.011"/>
<text text-anchor="middle" x="315.7558" y="-436.7785" font-family="Times,serif" font-size="15.00" fill="#000000">Hockey</text>
<text text-anchor="middle" x="315.7558" y="-419.7785" font-family="Times,serif" font-size="15.00" fill="#000000">Хоккей</text>
<text text-anchor="middle" x="315.7558" y="-402.7785" font-family="Times,serif" font-size="15.00" fill="#000000">ˈХаки</text>
</a>
</g>
</g>
<!-- Team -->
<g id="node2" class="node has&#45;pronunciation">
<title>Team</title>
<g id="a_node2"><a xlink:href="../team.html" xlink:title="Команда" target="_top">
<ellipse fill="none" stroke="#c0c0c0" stroke-width=".2" cx="528.3272" cy="-517.0311" rx="51.7379" ry="51.7379"/>
<text text-anchor="middle" x="528.3272" y="-530.5311" font-family="Times,serif" font-size="15.00" fill="#000000">Team</text>
<text text-anchor="middle" x="528.3272" y="-513.5311" font-family="Times,serif" font-size="15.00" fill="#000000">Команда</text>
<text text-anchor="middle" x="528.3272" y="-496.5311" font-family="Times,serif" font-size="15.00" fill="#000000">Тим</text>
</a>
</g>
</g>
<!-- Hockey&#45;&gt;Team -->
<g id="edge10" class="edge">
<title>Hockey&#45;&gt;Team</title>
<path fill="none" stroke="#000000" stroke-dasharray="5,2" d="M357.2463,-441.5775C389.8548,-455.9591 435.6213,-476.144 471.614,-492.0182"/>
<polygon fill="#000000" stroke="#000000" points="481.0125,-496.1634 470.047,-496.2453 476.4377,-494.1457 471.8629,-492.128 471.8629,-492.128 471.8629,-492.128 476.4377,-494.1457 473.6788,-488.0106 481.0125,-496.1634 481.0125,-496.1634"/>
</g>
<!-- Sport -->
<g id="node3" class="node">
<title>Sport</title>
<g id="a_node3"><a xlink:href="../sport.html" xlink:title="Спорт" target="_top">
<ellipse fill="none" stroke="#c0c0c0" stroke-width=".2" cx="557.9021" cy="-232.8371" rx="39.6962" ry="39.6962"/>
<text text-anchor="middle" x="557.9021" y="-237.8371" font-family="Times,serif" font-size="15.00" fill="#000000">Sport</text>
<text text-anchor="middle" x="557.9021" y="-220.8371" font-family="Times,serif" font-size="15.00" fill="#000000">Спорт</text>
</a>
</g>
</g>
<!-- Hockey&#45;&gt;Sport -->
<g id="edge11" class="edge">
<title>Hockey&#45;&gt;Sport</title>
<path fill="none" stroke="#000000" stroke-dasharray="5,2" d="M351.4853,-395.1782C396.1632,-360.0402 472.3879,-300.0916 518.6526,-263.7057"/>
<polygon fill="#000000" stroke="#000000" points="526.6487,-257.417 521.5703,-267.1361 522.7186,-260.508 518.7884,-263.5989 518.7884,-263.5989 518.7884,-263.5989 522.7186,-260.508 516.0065,-260.0618 526.6487,-257.417 526.6487,-257.417"/>
</g>
<!-- Rink -->
<g id="node4" class="node has&#45;pronunciation">
<title>Rink</title>
<g id="a_node4"><a xlink:href="../rink.html" xlink:title="Площадка" target="_top">
<ellipse fill="none" stroke="#c0c0c0" stroke-width=".2" cx="317.5618" cy="-891.6305" rx="57.0522" ry="57.0522"/>
<text text-anchor="middle" x="317.5618" y="-905.1305" font-family="Times,serif" font-size="15.00" fill="#000000">Rink</text>
<text text-anchor="middle" x="317.5618" y="-888.1305" font-family="Times,serif" font-size="15.00" fill="#000000">Площадка</text>
<text text-anchor="middle" x="317.5618" y="-871.1305" font-family="Times,serif" font-size="15.00" fill="#000000">Ринк</text>
</a>
</g>
</g>
<!-- Hockey&#45;&gt;Rink -->
<g id="edge12" class="edge">
<title>Hockey&#45;&gt;Rink</title>
<path fill="none" stroke="#000000" stroke-dasharray="5,2" d="M315.9306,-468.6116C316.2496,-551.3405 316.9277,-727.1758 317.3013,-824.0686"/>
<polygon fill="#000000" stroke="#000000" points="317.3409,-834.3373 312.8023,-824.3548 317.3215,-829.3374 317.3022,-824.3374 317.3022,-824.3374 317.3022,-824.3374 317.3215,-829.3374 321.8022,-824.32 317.3409,-834.3373 317.3409,-834.3373"/>
</g>
<!-- Player -->
<g id="node5" class="node has&#45;pronunciation">
<title>Player</title>
<g id="a_node5"><a xlink:href="../player.html" xlink:title="Игрок" target="_top">
<ellipse fill="none" stroke="#c0c0c0" stroke-width=".2" cx="423.7129" cy="-73.9693" rx="46.8387" ry="46.8387"/>
<text text-anchor="middle" x="423.7129" y="-87.4693" font-family="Times,serif" font-size="15.00" fill="#000000">Player</text>
<text text-anchor="middle" x="423.7129" y="-70.4693" font-family="Times,serif" font-size="15.00" fill="#000000">Игрок</text>
<text text-anchor="middle" x="423.7129" y="-53.4693" font-family="Times,serif" font-size="15.00" fill="#000000">&#39;Плейэр</text>
</a>
</g>
</g>
<!-- Hockey&#45;&gt;Player -->
<g id="edge13" class="edge">
<title>Hockey&#45;&gt;Player</title>
<path fill="none" stroke="#000000" stroke-dasharray="5,2" d="M329.2104,-379.7445C348.8742,-316.1196 385.4463,-197.7859 406.8707,-128.4644"/>
<polygon fill="#000000" stroke="#000000" points="409.9179,-118.6046 411.2644,-129.4875 408.4415,-123.3817 406.9651,-128.1587 406.9651,-128.1587 406.9651,-128.1587 408.4415,-123.3817 402.6657,-126.8299 409.9179,-118.6046 409.9179,-118.6046"/>
</g>
<!-- Stick -->
<g id="node6" class="node has&#45;pronunciation">
<title>Stick</title>
<g id="a_node6"><a xlink:href="../stick.html" xlink:title="Клюшка" target="_top">
<ellipse fill="none" stroke="#c0c0c0" stroke-width=".2" cx="48.7904" cy="-613.5551" rx="48.5816" ry="48.5816"/>
<text text-anchor="middle" x="48.7904" y="-627.0551" font-family="Times,serif" font-size="15.00" fill="#000000">Stick</text>
<text text-anchor="middle" x="48.7904" y="-610.0551" font-family="Times,serif" font-size="15.00" fill="#000000">Клюшка</text>
<text text-anchor="middle" x="48.7904" y="-593.0551" font-family="Times,serif" font-size="15.00" fill="#000000">Стик</text>
</a>
</g>
</g>
<!-- Hockey&#45;&gt;Stick -->
<g id="edge14" class="edge">
<title>Hockey&#45;&gt;Stick</title>
<path fill="none" stroke="#000000" stroke-dasharray="5,2" d="M272.4474,-436.5487C231.9877,-450.4292 171.3939,-475.1446 127.4225,-510.4398 109.1524,-525.1049 92.7428,-544.886 79.6999,-563.2005"/>
<polygon fill="#000000" stroke="#000000" points="73.9495,-571.4885 75.9528,-560.7072 76.7998,-567.3805 79.6501,-563.2724 79.6501,-563.2724 79.6501,-563.2724 76.7998,-567.3805 83.3473,-565.8376 73.9495,-571.4885 73.9495,-571.4885"/>
</g>
<!-- Puck -->
<g id="node7" class="node has&#45;pronunciation">
<title>Puck</title>
<g id="a_node7"><a xlink:href="../puck.html" xlink:title="Шайба" target="_top">
<ellipse fill="none" stroke="#c0c0c0" stroke-width=".2" cx="77.1896" cy="-257.3842" rx="65.1077" ry="65.1077"/>
<text text-anchor="middle" x="77.1896" y="-279.3842" font-family="Times,serif" font-size="25.00" fill="#000000">Puck</text>
<text text-anchor="middle" x="77.1896" y="-251.3842" font-family="Times,serif" font-size="25.00" fill="#000000">Шайба</text>
<text text-anchor="middle" x="77.1896" y="-223.3842" font-family="Times,serif" font-size="25.00" fill="#000000">Пак</text>
</a>
</g>
</g>
<!-- Hockey&#45;&gt;Puck -->
<g id="edge15" class="edge">
<title>Hockey&#45;&gt;Puck</title>
<path fill="none" stroke="#000000" stroke-dasharray="5,2" d="M278.4798,-397.3575C241.2995,-371.503 183.5164,-331.3217 139.3804,-300.6304"/>
<polygon fill="#000000" stroke="#000000" points="131.026,-294.821 141.8053,-296.8356 135.1311,-297.6756 139.2361,-300.5302 139.2361,-300.5302 139.2361,-300.5302 135.1311,-297.6756 136.667,-304.2247 131.026,-294.821 131.026,-294.821"/>
</g>
<!-- Goal net -->
<g id="node8" class="node has&#45;pronunciation">
<title>Goal net</title>
<g id="a_node8"><a xlink:href="../goal-net.html" xlink:title="Ворота" target="_top">
<ellipse fill="none" stroke="#c0c0c0" stroke-width=".2" cx="183.3625" cy="-566.7619" rx="77.5641" ry="77.5641"/>
<text text-anchor="middle" x="183.3625" y="-588.7619" font-family="Times,serif" font-size="25.00" fill="#000000">Goal net</text>
<text text-anchor="middle" x="183.3625" y="-560.7619" font-family="Times,serif" font-size="25.00" fill="#000000">Ворота</text>
<text text-anchor="middle" x="183.3625" y="-532.7619" font-family="Times,serif" font-size="25.00" fill="#000000">Гoул нет</text>
</a>
</g>
</g>
<!-- Hockey&#45;&gt;Goal net -->
<g id="edge16" class="edge">
<title>Hockey&#45;&gt;Goal net</title>
<path fill="none" stroke="#000000" stroke-dasharray="5,2" d="M285.0493,-456.5571C272.5767,-470.0745 257.7175,-486.1784 243.2624,-501.8443"/>
<polygon fill="#000000" stroke="#000000" points="236.211,-509.4865 239.6851,-499.0854 239.6017,-505.8117 242.9924,-502.137 242.9924,-502.137 242.9924,-502.137 239.6017,-505.8117 246.2996,-505.1887 236.211,-509.4865 236.211,-509.4865"/>
</g>
<!-- Goal -->
<g id="node9" class="node has&#45;pronunciation">
<title>Goal</title>
<g id="a_node9"><a xlink:href="../goal.html" xlink:title="Гол" target="_top">
<ellipse fill="none" stroke="#c0c0c0" stroke-width=".2" cx="219.2341" cy="-65.0538" rx="65.1077" ry="65.1077"/>
<text text-anchor="middle" x="219.2341" y="-87.0538" font-family="Times,serif" font-size="25.00" fill="#000000">Goal</text>
<text text-anchor="middle" x="219.2341" y="-59.0538" font-family="Times,serif" font-size="25.00" fill="#000000">Гол</text>
<text text-anchor="middle" x="219.2341" y="-31.0538" font-family="Times,serif" font-size="25.00" fill="#000000">Гoул</text>
</a>
</g>
</g>
<!-- Hockey&#45;&gt;Goal -->
<g id="edge17" class="edge">
<title>Hockey&#45;&gt;Goal</title>
<path fill="none" stroke="#000000" stroke-dasharray="5,2" d="M303.9203,-379.3531C287.7179,-319.2202 258.4198,-210.485 238.8937,-138.0173"/>
<polygon fill="#000000" stroke="#000000" points="236.2058,-128.0414 243.1525,-136.5262 237.5066,-132.8692 238.8075,-137.697 238.8075,-137.697 238.8075,-137.697 237.5066,-132.8692 234.4625,-138.8678 236.2058,-128.0414 236.2058,-128.0414"/>
</g>
<!-- Team&#45;&gt;Sport -->
<g id="edge2" class="edge">
<title>Team&#45;&gt;Sport</title>
<path fill="none" stroke="#000000" stroke-dasharray="5,2" d="M533.683,-465.5657C539.0868,-413.6388 547.3746,-333.9985 552.7168,-282.6641"/>
<polygon fill="#000000" stroke="#000000" points="553.7771,-272.4757 557.2178,-282.8878 553.2595,-277.4488 552.7419,-282.4219 552.7419,-282.4219 552.7419,-282.4219 553.2595,-277.4488 548.2661,-281.9561 553.7771,-272.4757 553.7771,-272.4757"/>
</g>
<!-- Team&#45;&gt;Player -->
<g id="edge1" class="edge">
<title>Team&#45;&gt;Player</title>
<path fill="none" stroke="#000000" stroke-dasharray="5,2" d="M516.4285,-466.6376C496.6987,-383.0783 457.3577,-216.4616 436.8436,-129.5804"/>
<polygon fill="#000000" stroke="#000000" points="434.4978,-119.6456 441.1754,-128.3438 435.6468,-124.5117 436.7959,-129.3779 436.7959,-129.3779 436.7959,-129.3779 435.6468,-124.5117 432.4163,-130.4121 434.4978,-119.6456 434.4978,-119.6456"/>
</g>
<!-- Rink&#45;&gt;Goal net -->
<g id="edge3" class="edge">
<title>Rink&#45;&gt;Goal net</title>
<path fill="none" stroke="#000000" stroke-dasharray="5,2" d="M295.5518,-838.3489C274.2356,-786.7469 241.6201,-707.7914 217.0401,-648.2885"/>
<polygon fill="#000000" stroke="#000000" points="213.1671,-638.9128 221.1443,-646.4371 215.0761,-643.534 216.9852,-648.1553 216.9852,-648.1553 216.9852,-648.1553 215.0761,-643.534 212.826,-649.8734 213.1671,-638.9128 213.1671,-638.9128"/>
</g>
<!-- Player&#45;&gt;Sport -->
<g id="edge5" class="edge">
<title>Player&#45;&gt;Sport</title>
<path fill="none" stroke="#000000" stroke-dasharray="5,2" d="M453.8276,-109.6223C475.1861,-134.9089 503.8155,-168.8035 525.6405,-194.6423"/>
<polygon fill="#000000" stroke="#000000" points="532.1798,-202.3842 522.2892,-197.6484 528.9534,-198.5644 525.727,-194.7447 525.727,-194.7447 525.727,-194.7447 528.9534,-198.5644 529.1648,-191.8409 532.1798,-202.3842 532.1798,-202.3842"/>
</g>
<!-- Player&#45;&gt;Goal -->
<g id="edge4" class="edge">
<title>Player&#45;&gt;Goal</title>
<path fill="none" stroke="#000000" stroke-dasharray="5,2" d="M377.0576,-71.9351C352.5976,-70.8686 322.0392,-69.5362 294.3439,-68.3287"/>
<polygon fill="#000000" stroke="#000000" points="284.2865,-67.8902 294.473,-63.8301 289.2817,-68.108 294.277,-68.3259 294.277,-68.3259 294.277,-68.3259 289.2817,-68.108 294.0809,-72.8216 284.2865,-67.8902 284.2865,-67.8902"/>
</g>
<!-- Stick&#45;&gt;Puck -->
<g id="edge6" class="edge">
<title>Stick&#45;&gt;Puck</title>
<path fill="none" stroke="#000000" stroke-dasharray="5,2" d="M52.6796,-564.7779C57.4577,-504.8534 65.615,-402.5478 71.1966,-332.5469"/>
<polygon fill="#000000" stroke="#000000" points="72.0007,-322.4622 75.6915,-332.7883 71.6032,-327.4464 71.2057,-332.4306 71.2057,-332.4306 71.2057,-332.4306 71.6032,-327.4464 66.72,-332.0728 72.0007,-322.4622 72.0007,-322.4622"/>
</g>
<!-- Puck&#45;&gt;Goal net -->
<g id="edge7" class="edge">
<title>Puck&#45;&gt;Goal net</title>
<path fill="none" stroke="#000000" stroke-dasharray="5,2" d="M98.4201,-319.2478C114.5995,-366.3931 137.0435,-431.7929 154.7978,-483.5272"/>
<polygon fill="#000000" stroke="#000000" points="158.0558,-493.0206 150.5534,-485.0228 156.4328,-488.2914 154.8097,-483.5621 154.8097,-483.5621 154.8097,-483.5621 156.4328,-488.2914 159.0661,-482.1014 158.0558,-493.0206 158.0558,-493.0206"/>
</g>
<!-- Goal&#45;&gt;Puck -->
<g id="edge8" class="edge">
<title>Goal&#45;&gt;Puck</title>
<path fill="none" stroke="#000000" stroke-dasharray="5,2" d="M180.4198,-117.6089C162.3345,-142.0968 140.714,-171.3712 121.9432,-196.7872"/>
<polygon fill="#000000" stroke="#000000" points="115.957,-204.8926 118.2781,-194.1752 118.9274,-200.8706 121.8979,-196.8486 121.8979,-196.8486 121.8979,-196.8486 118.9274,-200.8706 125.5177,-199.522 115.957,-204.8926 115.957,-204.8926"/>
</g>
<!-- Goal&#45;&gt;Goal net -->
<g id="edge9" class="edge">
<title>Goal&#45;&gt;Goal net</title>
<path fill="none" stroke="#000000" stroke-dasharray="5,2" d="M214.5813,-130.1291C208.2125,-219.2048 196.76,-379.3814 189.6376,-478.9964"/>
<polygon fill="#000000" stroke="#000000" points="188.9195,-489.0402 185.1442,-478.7447 189.2761,-484.0529 189.6328,-479.0656 189.6328,-479.0656 189.6328,-479.0656 189.2761,-484.0529 194.1213,-479.3866 188.9195,-489.0402 188.9195,-489.0402"/>
</g>
</g>
</svg>
