<?xml version="1.0" encoding="UTF-8" standalone="no"?>
<?xml-stylesheet href="../static/svg.css" type="text/css"?>
<!DOCTYPE svg PUBLIC "-//W3C//DTD SVG 1.1//EN"
 "http://www.w3.org/Graphics/SVG/1.1/DTD/svg11.dtd">
<!-- Generated by graphviz version 2.40.1 (20161225.0304)
 -->
<!-- Title: term Pages: 1 -->
<svg width="847pt" height="1379pt"
 viewBox="0.00 0.00 847.11 1379.21" xmlns="http://www.w3.org/2000/svg" xmlns:xlink="http://www.w3.org/1999/xlink">
<g id="graph0" class="graph" transform="scale(1 1) rotate(0) translate(4 1375.213)">
<title>term</title>
<!-- Shot -->
<g id="node1" class="node root has&#45;pronunciation">
<title>Shot</title>
<g id="a_node1"><a xlink:href="javascript:history.back()" xlink:title="Бросок" target="_top">
<ellipse fill="none" stroke="#c0c0c0" stroke-width=".2" cx="404.8879" cy="-669.2605" rx="67.3507" ry="67.3507"/>
<text text-anchor="middle" x="404.8879" y="-691.2605" font-family="Times,serif" font-size="25.00" fill="#000000">Shot</text>
<text text-anchor="middle" x="404.8879" y="-663.2605" font-family="Times,serif" font-size="25.00" fill="#000000">Бросок</text>
<text text-anchor="middle" x="404.8879" y="-635.2605" font-family="Times,serif" font-size="25.00" fill="#000000">Шат</text>
</a>
</g>
</g>
<!-- Goal -->
<g id="node4" class="node has&#45;pronunciation">
<title>Goal</title>
<g id="a_node4"><a xlink:href="../goal.html" xlink:title="Гол" target="_top">
<ellipse fill="none" stroke="#c0c0c0" stroke-width=".2" cx="173.5234" cy="-1148.9195" rx="52.1524" ry="52.1524"/>
<text text-anchor="middle" x="173.5234" y="-1165.9195" font-family="Times,serif" font-size="20.00" fill="#000000">Goal</text>
<text text-anchor="middle" x="173.5234" y="-1143.9195" font-family="Times,serif" font-size="20.00" fill="#000000">Гол</text>
<text text-anchor="middle" x="173.5234" y="-1121.9195" font-family="Times,serif" font-size="20.00" fill="#000000">Гoул</text>
</a>
</g>
</g>
<!-- Shot&#45;&gt;Goal -->
<g id="edge16" class="edge">
<title>Shot&#45;&gt;Goal</title>
<path fill="none" stroke="#000000" stroke-dasharray="5,2" d="M375.5854,-730.0096C330.4431,-823.5976 244.5285,-1001.7136 200.7037,-1092.57"/>
<polygon fill="#000000" stroke="#000000" points="196.3407,-1101.6152 196.6321,-1090.6532 198.513,-1097.1117 200.6853,-1092.6082 200.6853,-1092.6082 200.6853,-1092.6082 198.513,-1097.1117 204.7384,-1094.5633 196.3407,-1101.6152 196.3407,-1101.6152"/>
</g>
<!-- Puck -->
<g id="node5" class="node has&#45;pronunciation">
<title>Puck</title>
<g id="a_node5"><a xlink:href="../puck.html" xlink:title="Шайба" target="_top">
<ellipse fill="none" stroke="#c0c0c0" stroke-width=".2" cx="311.2881" cy="-1318.8871" rx="52.1524" ry="52.1524"/>
<text text-anchor="middle" x="311.2881" y="-1335.8871" font-family="Times,serif" font-size="20.00" fill="#000000">Puck</text>
<text text-anchor="middle" x="311.2881" y="-1313.8871" font-family="Times,serif" font-size="20.00" fill="#000000">Шайба</text>
<text text-anchor="middle" x="311.2881" y="-1291.8871" font-family="Times,serif" font-size="20.00" fill="#000000">Пак</text>
</a>
</g>
</g>
<!-- Shot&#45;&gt;Puck -->
<g id="edge17" class="edge">
<title>Shot&#45;&gt;Puck</title>
<path fill="none" stroke="#000000" stroke-dasharray="5,2" d="M400.2581,-736.3294C395.196,-803.3202 386.013,-909.1341 372.8585,-1000.0785 359.7981,-1090.3714 338.6433,-1193.9172 324.8484,-1257.8717"/>
<polygon fill="#000000" stroke="#000000" points="322.7,-1267.788 320.4196,-1257.0618 323.7588,-1262.9013 324.8175,-1258.0147 324.8175,-1258.0147 324.8175,-1258.0147 323.7588,-1262.9013 329.2155,-1258.9676 322.7,-1267.788 322.7,-1267.788"/>
</g>
<!-- Stick -->
<g id="node6" class="node has&#45;pronunciation">
<title>Stick</title>
<g id="a_node6"><a xlink:href="../stick.html" xlink:title="Клюшка" target="_top">
<ellipse fill="none" stroke="#c0c0c0" stroke-width=".2" cx="555.5347" cy="-1284.9691" rx="48.5816" ry="48.5816"/>
<text text-anchor="middle" x="555.5347" y="-1298.4691" font-family="Times,serif" font-size="15.00" fill="#000000">Stick</text>
<text text-anchor="middle" x="555.5347" y="-1281.4691" font-family="Times,serif" font-size="15.00" fill="#000000">Клюшка</text>
<text text-anchor="middle" x="555.5347" y="-1264.4691" font-family="Times,serif" font-size="15.00" fill="#000000">Стик</text>
</a>
</g>
</g>
<!-- Shot&#45;&gt;Stick -->
<g id="edge18" class="edge">
<title>Shot&#45;&gt;Stick</title>
<path fill="none" stroke="#000000" stroke-dasharray="5,2" d="M412.0157,-736.0808C421.4389,-815.6055 440.576,-951.9472 471.6079,-1065.7631 487.3367,-1123.452 512.6074,-1187.0252 531.3142,-1230.7846"/>
<polygon fill="#000000" stroke="#000000" points="535.3196,-1240.0869 527.2316,-1232.6819 533.3422,-1235.4946 531.3648,-1230.9022 531.3648,-1230.9022 531.3648,-1230.9022 533.3422,-1235.4946 535.4979,-1229.1225 535.3196,-1240.0869 535.3196,-1240.0869"/>
</g>
<!-- Goal net -->
<g id="node7" class="node has&#45;pronunciation">
<title>Goal net</title>
<g id="a_node7"><a xlink:href="../goal-net.html" xlink:title="Ворота" target="_top">
<ellipse fill="none" stroke="#c0c0c0" stroke-width=".2" cx="94.855" cy="-874.6361" rx="62.8651" ry="62.8651"/>
<text text-anchor="middle" x="94.855" y="-891.6361" font-family="Times,serif" font-size="20.00" fill="#000000">Goal net</text>
<text text-anchor="middle" x="94.855" y="-869.6361" font-family="Times,serif" font-size="20.00" fill="#000000">Ворота</text>
<text text-anchor="middle" x="94.855" y="-847.6361" font-family="Times,serif" font-size="20.00" fill="#000000">Гoул нет</text>
</a>
</g>
</g>
<!-- Shot&#45;&gt;Goal net -->
<g id="edge19" class="edge">
<title>Shot&#45;&gt;Goal net</title>
<path fill="none" stroke="#000000" stroke-dasharray="5,2" d="M348.7433,-706.4524C294.3026,-742.5157 211.9393,-797.0757 155.8962,-834.2004"/>
<polygon fill="#000000" stroke="#000000" points="147.4808,-839.7751 153.3324,-830.501 151.6491,-837.0138 155.8175,-834.2525 155.8175,-834.2525 155.8175,-834.2525 151.6491,-837.0138 158.3027,-838.0041 147.4808,-839.7751 147.4808,-839.7751"/>
</g>
<!-- Flip shot -->
<g id="node8" class="node has&#45;pronunciation">
<title>Flip shot</title>
<g id="a_node8"><a xlink:href="../flip-shot.html" xlink:title="Подкидка" target="_top">
<ellipse fill="none" stroke="#c0c0c0" stroke-width=".2" cx="722.4646" cy="-463.8736" rx="55.7232" ry="55.7232"/>
<text text-anchor="middle" x="722.4646" y="-477.3736" font-family="Times,serif" font-size="15.00" fill="#000000">Flip shot</text>
<text text-anchor="middle" x="722.4646" y="-460.3736" font-family="Times,serif" font-size="15.00" fill="#000000">Подкидка</text>
<text text-anchor="middle" x="722.4646" y="-443.3736" font-family="Times,serif" font-size="15.00" fill="#000000">Флип шат</text>
</a>
</g>
</g>
<!-- Shot&#45;&gt;Flip shot -->
<g id="edge20" class="edge">
<title>Shot&#45;&gt;Flip shot</title>
<path fill="none" stroke="#000000" stroke-dasharray="5,2" d="M461.2983,-632.7781C519.2799,-595.2796 609.0099,-537.2484 666.7397,-499.9127"/>
<polygon fill="#000000" stroke="#000000" points="675.3687,-494.332 669.4155,-503.5413 671.1702,-497.0473 666.9718,-499.7626 666.9718,-499.7626 666.9718,-499.7626 671.1702,-497.0473 664.528,-495.984 675.3687,-494.332 675.3687,-494.332"/>
</g>
<!-- Wrist shot -->
<g id="node9" class="node has&#45;pronunciation">
<title>Wrist shot</title>
<g id="a_node9"><a xlink:href="../wrist-shot.html" xlink:title="Кистевой" target="_top">
<ellipse fill="none" stroke="#c0c0c0" stroke-width=".2" cx="215.8894" cy="-182.2431" rx="56.6372" ry="56.6372"/>
<text text-anchor="middle" x="215.8894" y="-195.7431" font-family="Times,serif" font-size="15.00" fill="#000000">Wrist shot</text>
<text text-anchor="middle" x="215.8894" y="-178.7431" font-family="Times,serif" font-size="15.00" fill="#000000">Кистевой</text>
<text text-anchor="middle" x="215.8894" y="-161.7431" font-family="Times,serif" font-size="15.00" fill="#000000">Рист шат</text>
</a>
</g>
</g>
<!-- Shot&#45;&gt;Wrist shot -->
<g id="edge21" class="edge">
<title>Shot&#45;&gt;Wrist shot</title>
<path fill="none" stroke="#000000" stroke-dasharray="5,2" d="M380.5666,-606.5885C344.265,-513.0455 276.3105,-337.9383 240.0833,-244.5866"/>
<polygon fill="#000000" stroke="#000000" points="236.3591,-234.9901 244.1722,-242.6847 238.1681,-239.6514 239.977,-244.3127 239.977,-244.3127 239.977,-244.3127 238.1681,-239.6514 235.7818,-245.9408 236.3591,-234.9901 236.3591,-234.9901"/>
</g>
<!-- Slapshot -->
<g id="node10" class="node has&#45;pronunciation">
<title>Slapshot</title>
<g id="a_node10"><a xlink:href="../slapshot.html" xlink:title="Щелчок" target="_top">
<ellipse fill="none" stroke="#c0c0c0" stroke-width=".2" cx="590.8708" cy="-192.1718" rx="50.8235" ry="50.8235"/>
<text text-anchor="middle" x="590.8708" y="-205.6718" font-family="Times,serif" font-size="15.00" fill="#000000">Slapshot</text>
<text text-anchor="middle" x="590.8708" y="-188.6718" font-family="Times,serif" font-size="15.00" fill="#000000">Щелчок</text>
<text text-anchor="middle" x="590.8708" y="-171.6718" font-family="Times,serif" font-size="15.00" fill="#000000">Слэпшат</text>
</a>
</g>
</g>
<!-- Shot&#45;&gt;Slapshot -->
<g id="edge22" class="edge">
<title>Shot&#45;&gt;Slapshot</title>
<path fill="none" stroke="#000000" stroke-dasharray="5,2" d="M429.3932,-606.3989C465.7956,-513.0183 533.6174,-339.0399 568.6508,-249.1714"/>
<polygon fill="#000000" stroke="#000000" points="572.3466,-239.6907 572.9072,-250.6423 570.5305,-244.3493 568.7145,-249.0078 568.7145,-249.0078 568.7145,-249.0078 570.5305,-244.3493 564.5218,-247.3734 572.3466,-239.6907 572.3466,-239.6907"/>
</g>
<!-- Snap shot -->
<g id="node11" class="node has&#45;pronunciation">
<title>Snap shot</title>
<g id="a_node11"><a xlink:href="../snap-shot.html" xlink:title="Короткий щелчок" target="_top">
<ellipse fill="none" stroke="#c0c0c0" stroke-width=".2" cx="404.7388" cy="-91.9239" rx="91.8478" ry="91.8478"/>
<text text-anchor="middle" x="404.7388" y="-105.4239" font-family="Times,serif" font-size="15.00" fill="#000000">Snap shot</text>
<text text-anchor="middle" x="404.7388" y="-88.4239" font-family="Times,serif" font-size="15.00" fill="#000000">Короткий щелчок</text>
<text text-anchor="middle" x="404.7388" y="-71.4239" font-family="Times,serif" font-size="15.00" fill="#000000">Снэп шат</text>
</a>
</g>
</g>
<!-- Shot&#45;&gt;Snap shot -->
<g id="edge23" class="edge">
<title>Shot&#45;&gt;Snap shot</title>
<path fill="none" stroke="#000000" stroke-dasharray="5,2" d="M404.8705,-601.9027C404.8446,-501.4657 404.7956,-311.6997 404.7652,-194.1105"/>
<polygon fill="#000000" stroke="#000000" points="404.7626,-184.0168 409.2653,-194.0155 404.764,-189.0168 404.7653,-194.0168 404.7653,-194.0168 404.7653,-194.0168 404.764,-189.0168 400.2653,-194.018 404.7626,-184.0168 404.7626,-184.0168"/>
</g>
<!-- Backhand shot -->
<g id="node12" class="node has&#45;pronunciation">
<title>Backhand shot</title>
<g id="a_node12"><a xlink:href="../backhand-shot.html" xlink:title="С неудобной" target="_top">
<ellipse fill="none" stroke="#c0c0c0" stroke-width=".2" cx="75.6604" cy="-426.0702" rx="75.8212" ry="75.8212"/>
<text text-anchor="middle" x="75.6604" y="-439.5702" font-family="Times,serif" font-size="15.00" fill="#000000">Backhand shot</text>
<text text-anchor="middle" x="75.6604" y="-422.5702" font-family="Times,serif" font-size="15.00" fill="#000000">С неудобной</text>
<text text-anchor="middle" x="75.6604" y="-405.5702" font-family="Times,serif" font-size="15.00" fill="#000000">ˈБэкˌхэнд шат</text>
</a>
</g>
</g>
<!-- Shot&#45;&gt;Backhand shot -->
<g id="edge24" class="edge">
<title>Shot&#45;&gt;Backhand shot</title>
<path fill="none" stroke="#000000" stroke-dasharray="5,2" d="M350.5227,-629.1025C294.1533,-587.4642 205.8629,-522.2468 144.6206,-477.009"/>
<polygon fill="#000000" stroke="#000000" points="136.5406,-471.0405 147.2578,-473.3624 140.5623,-474.0113 144.5841,-476.982 144.5841,-476.982 144.5841,-476.982 140.5623,-474.0113 141.9104,-480.6016 136.5406,-471.0405 136.5406,-471.0405"/>
</g>
<!-- One&#45;timer -->
<g id="node13" class="node has&#45;pronunciation">
<title>One&#45;timer</title>
<g id="a_node13"><a xlink:href="../one-timer.html" xlink:title="В одно касание" target="_top">
<ellipse fill="none" stroke="#c0c0c0" stroke-width=".2" cx="759.2115" cy="-824.3942" rx="79.8062" ry="79.8062"/>
<text text-anchor="middle" x="759.2115" y="-837.8942" font-family="Times,serif" font-size="15.00" fill="#000000">One&#45;timer</text>
<text text-anchor="middle" x="759.2115" y="-820.8942" font-family="Times,serif" font-size="15.00" fill="#000000">В одно касание</text>
<text text-anchor="middle" x="759.2115" y="-803.8942" font-family="Times,serif" font-size="15.00" fill="#000000">Уан&#45;ˈтаймэр</text>
</a>
</g>
</g>
<!-- Shot&#45;&gt;One&#45;timer -->
<g id="edge25" class="edge">
<title>Shot&#45;&gt;One&#45;timer</title>
<path fill="none" stroke="#000000" stroke-dasharray="5,2" d="M466.6064,-696.2827C524.8121,-721.7669 612.4646,-760.1439 676.6615,-788.2513"/>
<polygon fill="#000000" stroke="#000000" points="685.9567,-792.321 674.9913,-792.4324 681.3764,-790.3156 676.7962,-788.3102 676.7962,-788.3102 676.7962,-788.3102 681.3764,-790.3156 678.601,-784.188 685.9567,-792.321 685.9567,-792.321"/>
</g>
<!-- Player -->
<g id="node2" class="node has&#45;pronunciation">
<title>Player</title>
<g id="a_node2"><a xlink:href="../player.html" xlink:title="Игрок" target="_top">
<ellipse fill="none" stroke="#c0c0c0" stroke-width=".2" cx="519.876" cy="-1066.0497" rx="46.8387" ry="46.8387"/>
<text text-anchor="middle" x="519.876" y="-1079.5497" font-family="Times,serif" font-size="15.00" fill="#000000">Player</text>
<text text-anchor="middle" x="519.876" y="-1062.5497" font-family="Times,serif" font-size="15.00" fill="#000000">Игрок</text>
<text text-anchor="middle" x="519.876" y="-1045.5497" font-family="Times,serif" font-size="15.00" fill="#000000">&#39;Плейэр</text>
</a>
</g>
</g>
<!-- Player&#45;&gt;Shot -->
<g id="edge14" class="edge">
<title>Player&#45;&gt;Shot</title>
<path fill="none" stroke="#000000" stroke-dasharray="5,2" d="M506.7974,-1020.9193C487.2261,-953.3846 450.0982,-825.2676 426.4689,-743.7299"/>
<polygon fill="#000000" stroke="#000000" points="423.6563,-734.0244 430.7619,-742.3766 425.048,-738.8268 426.4398,-743.6292 426.4398,-743.6292 426.4398,-743.6292 425.048,-738.8268 422.1176,-744.8818 423.6563,-734.0244 423.6563,-734.0244"/>
</g>
<!-- Player&#45;&gt;Goal -->
<g id="edge1" class="edge">
<title>Player&#45;&gt;Goal</title>
<path fill="none" stroke="#000000" stroke-dasharray="5,2" d="M474.2403,-1076.9687C412.6996,-1091.6932 302.94,-1117.9547 234.4145,-1134.3504"/>
<polygon fill="#000000" stroke="#000000" points="224.614,-1136.6953 233.2923,-1129.9918 229.4767,-1135.5318 234.3395,-1134.3683 234.3395,-1134.3683 234.3395,-1134.3683 229.4767,-1135.5318 235.3867,-1138.7448 224.614,-1136.6953 224.614,-1136.6953"/>
</g>
<!-- Hockey -->
<g id="node3" class="node has&#45;pronunciation">
<title>Hockey</title>
<g id="a_node3"><a xlink:href="../hockey.html" xlink:title="Хоккей" target="_top">
<ellipse fill="none" stroke="#c0c0c0" stroke-width=".2" cx="326.004" cy="-999.8944" rx="45.011" ry="45.011"/>
<text text-anchor="middle" x="326.004" y="-1013.3944" font-family="Times,serif" font-size="15.00" fill="#000000">Hockey</text>
<text text-anchor="middle" x="326.004" y="-996.3944" font-family="Times,serif" font-size="15.00" fill="#000000">Хоккей</text>
<text text-anchor="middle" x="326.004" y="-979.3944" font-family="Times,serif" font-size="15.00" fill="#000000">ˈХаки</text>
</a>
</g>
</g>
<!-- Hockey&#45;&gt;Shot -->
<g id="edge15" class="edge">
<title>Hockey&#45;&gt;Shot</title>
<path fill="none" stroke="#000000" stroke-dasharray="5,2" d="M336.5608,-955.6467C349.4191,-901.7522 371.344,-809.8562 386.8871,-744.7092"/>
<polygon fill="#000000" stroke="#000000" points="389.2282,-734.8965 391.2846,-745.6678 388.0678,-739.76 386.9074,-744.6235 386.9074,-744.6235 386.9074,-744.6235 388.0678,-739.76 382.5303,-743.5791 389.2282,-734.8965 389.2282,-734.8965"/>
</g>
<!-- Hockey&#45;&gt;Player -->
<g id="edge2" class="edge">
<title>Hockey&#45;&gt;Player</title>
<path fill="none" stroke="#000000" stroke-dasharray="5,2" d="M369.0305,-1014.5764C397.6183,-1024.3315 435.3783,-1037.2164 465.967,-1047.6542"/>
<polygon fill="#000000" stroke="#000000" points="475.6257,-1050.9501 464.7083,-1051.9794 470.8936,-1049.3353 466.1615,-1047.7206 466.1615,-1047.7206 466.1615,-1047.7206 470.8936,-1049.3353 467.6148,-1043.4617 475.6257,-1050.9501 475.6257,-1050.9501"/>
</g>
<!-- Hockey&#45;&gt;Goal -->
<g id="edge6" class="edge">
<title>Hockey&#45;&gt;Goal</title>
<path fill="none" stroke="#000000" stroke-dasharray="5,2" d="M293.2931,-1031.864C271.4053,-1053.2558 242.3191,-1081.6828 218.2914,-1105.166"/>
<polygon fill="#000000" stroke="#000000" points="211.0105,-1112.2819 215.0168,-1102.0741 214.5863,-1108.7871 218.1621,-1105.2923 218.1621,-1105.2923 218.1621,-1105.2923 214.5863,-1108.7871 221.3075,-1108.5106 211.0105,-1112.2819 211.0105,-1112.2819"/>
</g>
<!-- Hockey&#45;&gt;Puck -->
<g id="edge4" class="edge">
<title>Hockey&#45;&gt;Puck</title>
<path fill="none" stroke="#000000" stroke-dasharray="5,2" d="M323.9112,-1045.2595C321.3593,-1100.5768 317.033,-1194.3575 314.1681,-1256.4581"/>
<polygon fill="#000000" stroke="#000000" points="313.7038,-1266.5228 309.6695,-1256.326 313.9343,-1261.5281 314.1647,-1256.5335 314.1647,-1256.5335 314.1647,-1256.5335 313.9343,-1261.5281 318.66,-1256.7409 313.7038,-1266.5228 313.7038,-1266.5228"/>
</g>
<!-- Hockey&#45;&gt;Stick -->
<g id="edge3" class="edge">
<title>Hockey&#45;&gt;Stick</title>
<path fill="none" stroke="#000000" stroke-dasharray="5,2" d="M354.6101,-1035.4229C395.9598,-1086.7788 472.475,-1181.8099 518.217,-1238.6209"/>
<polygon fill="#000000" stroke="#000000" points="524.7346,-1246.7158 514.9581,-1241.7488 521.5989,-1242.8212 518.4632,-1238.9267 518.4632,-1238.9267 518.4632,-1238.9267 521.5989,-1242.8212 521.9683,-1236.1045 524.7346,-1246.7158 524.7346,-1246.7158"/>
</g>
<!-- Hockey&#45;&gt;Goal net -->
<g id="edge5" class="edge">
<title>Hockey&#45;&gt;Goal net</title>
<path fill="none" stroke="#000000" stroke-dasharray="5,2" d="M286.0048,-978.2191C251.1674,-959.3408 200.0159,-931.6222 159.3918,-909.6082"/>
<polygon fill="#000000" stroke="#000000" points="150.3668,-904.7176 161.3029,-905.5256 154.7628,-907.0998 159.1589,-909.482 159.1589,-909.482 159.1589,-909.482 154.7628,-907.0998 157.0149,-913.4385 150.3668,-904.7176 150.3668,-904.7176"/>
</g>
<!-- Goal&#45;&gt;Puck -->
<g id="edge7" class="edge">
<title>Goal&#45;&gt;Puck</title>
<path fill="none" stroke="#000000" stroke-dasharray="5,2" d="M206.5215,-1189.631C226.1307,-1213.824 251.123,-1244.6582 271.779,-1270.1426"/>
<polygon fill="#000000" stroke="#000000" points="278.3208,-1278.2136 268.5282,-1273.2785 275.1724,-1274.3293 272.0241,-1270.445 272.0241,-1270.445 272.0241,-1270.445 275.1724,-1274.3293 275.52,-1267.6115 278.3208,-1278.2136 278.3208,-1278.2136"/>
</g>
<!-- Goal&#45;&gt;Goal net -->
<g id="edge8" class="edge">
<title>Goal&#45;&gt;Goal net</title>
<path fill="none" stroke="#000000" stroke-dasharray="5,2" d="M159.0944,-1098.6117C146.7279,-1055.495 128.782,-992.9253 114.9995,-944.8716"/>
<polygon fill="#000000" stroke="#000000" points="112.2134,-935.1577 119.2961,-943.5294 113.592,-939.9639 114.9705,-944.7701 114.9705,-944.7701 114.9705,-944.7701 113.592,-939.9639 110.6449,-946.0108 112.2134,-935.1577 112.2134,-935.1577"/>
</g>
<!-- Puck&#45;&gt;Goal net -->
<g id="edge9" class="edge">
<title>Puck&#45;&gt;Goal net</title>
<path fill="none" stroke="#000000" stroke-dasharray="5,2" d="M288.8021,-1271.3509C268.7998,-1229.1825 238.6704,-1165.9509 211.9961,-1111.1326 183.8978,-1053.3877 151.4544,-987.9842 127.8459,-940.6166"/>
<polygon fill="#000000" stroke="#000000" points="123.2459,-931.3912 131.7353,-938.3323 125.477,-935.8658 127.7082,-940.3404 127.7082,-940.3404 127.7082,-940.3404 125.477,-935.8658 123.681,-942.3484 123.2459,-931.3912 123.2459,-931.3912"/>
</g>
<!-- Stick&#45;&gt;Puck -->
<g id="edge10" class="edge">
<title>Stick&#45;&gt;Puck</title>
<path fill="none" stroke="#000000" stroke-dasharray="5,2" d="M506.9874,-1291.7108C468.5589,-1297.0473 414.6343,-1304.5357 373.119,-1310.3008"/>
<polygon fill="#000000" stroke="#000000" points="363.1186,-1311.6896 372.4046,-1305.8568 368.0711,-1311.0018 373.0236,-1310.314 373.0236,-1310.314 373.0236,-1310.314 368.0711,-1311.0018 373.6426,-1314.7712 363.1186,-1311.6896 363.1186,-1311.6896"/>
</g>
<!-- Snap shot&#45;&gt;Wrist shot -->
<g id="edge11" class="edge">
<title>Snap shot&#45;&gt;Wrist shot</title>
<path fill="none" stroke="#000000" stroke-dasharray="5,2" d="M321.6319,-131.6706C306.3709,-138.9694 290.7097,-146.4595 276.274,-153.3635"/>
<polygon fill="#000000" stroke="#000000" points="266.9812,-157.8079 274.0609,-149.4337 271.4918,-155.6506 276.0025,-153.4933 276.0025,-153.4933 276.0025,-153.4933 271.4918,-155.6506 277.9441,-157.5529 266.9812,-157.8079 266.9812,-157.8079"/>
</g>
<!-- Snap shot&#45;&gt;Slapshot -->
<g id="edge12" class="edge">
<title>Snap shot&#45;&gt;Slapshot</title>
<path fill="none" stroke="#000000" stroke-dasharray="5,2" d="M485.8376,-135.6025C503.0353,-144.8649 520.7873,-154.4259 536.6919,-162.9918"/>
<polygon fill="#000000" stroke="#000000" points="545.8246,-167.9106 534.8865,-167.1306 541.4225,-165.5396 537.0203,-163.1687 537.0203,-163.1687 537.0203,-163.1687 541.4225,-165.5396 539.1542,-159.2068 545.8246,-167.9106 545.8246,-167.9106"/>
</g>
<!-- Backhand shot&#45;&gt;Wrist shot -->
<g id="edge13" class="edge">
<title>Backhand shot&#45;&gt;Wrist shot</title>
<path fill="none" stroke="#000000" stroke-dasharray="5,2" d="M113.4237,-360.4083C134.9612,-322.9593 161.7149,-276.4406 182.4836,-240.3284"/>
<polygon fill="#000000" stroke="#000000" points="187.628,-231.3834 186.5433,-242.2956 185.1352,-235.7178 182.6425,-240.0521 182.6425,-240.0521 182.6425,-240.0521 185.1352,-235.7178 178.7416,-237.8086 187.628,-231.3834 187.628,-231.3834"/>
</g>
</g>
</svg>
