<?xml version="1.0" encoding="UTF-8" standalone="no"?>
<?xml-stylesheet href="../static/svg.css" type="text/css"?>
<!DOCTYPE svg PUBLIC "-//W3C//DTD SVG 1.1//EN"
 "http://www.w3.org/Graphics/SVG/1.1/DTD/svg11.dtd">
<!-- Generated by graphviz version 2.40.1 (20161225.0304)
 -->
<!-- Title: term Pages: 1 -->
<svg width="591pt" height="995pt"
 viewBox="0.00 0.00 590.86 995.06" xmlns="http://www.w3.org/2000/svg" xmlns:xlink="http://www.w3.org/1999/xlink">
<g id="graph0" class="graph" transform="scale(1 1) rotate(0) translate(4 991.0598)">
<title>term</title>
<!-- Puck -->
<g id="node1" class="node root has&#45;pronunciation">
<title>Puck</title>
<g id="a_node1"><a xlink:href="javascript:history.back()" xlink:title="Шайба" target="_top">
<ellipse fill="none" stroke="#c0c0c0" stroke-width=".2" cx="207.6949" cy="-580.9786" rx="65.1077" ry="65.1077"/>
<text text-anchor="middle" x="207.6949" y="-602.9786" font-family="Times,serif" font-size="25.00" fill="#000000">Puck</text>
<text text-anchor="middle" x="207.6949" y="-574.9786" font-family="Times,serif" font-size="25.00" fill="#000000">Шайба</text>
<text text-anchor="middle" x="207.6949" y="-546.9786" font-family="Times,serif" font-size="25.00" fill="#000000">Пак</text>
</a>
</g>
</g>
<!-- Ice -->
<g id="node6" class="node has&#45;pronunciation">
<title>Ice</title>
<g id="a_node6"><a xlink:href="../ice.html" xlink:title="Лёд" target="_top">
<ellipse fill="none" stroke="#c0c0c0" stroke-width=".2" cx="42.555" cy="-945.3405" rx="41.9398" ry="41.9398"/>
<text text-anchor="middle" x="42.555" y="-958.8405" font-family="Times,serif" font-size="15.00" fill="#000000">Ice</text>
<text text-anchor="middle" x="42.555" y="-941.8405" font-family="Times,serif" font-size="15.00" fill="#000000">Лёд</text>
<text text-anchor="middle" x="42.555" y="-924.8405" font-family="Times,serif" font-size="15.00" fill="#000000">Айс</text>
</a>
</g>
</g>
<!-- Puck&#45;&gt;Ice -->
<g id="edge13" class="edge">
<title>Puck&#45;&gt;Ice</title>
<path fill="none" stroke="#000000" stroke-dasharray="5,2" d="M180.7948,-640.3306C148.2152,-712.2135 93.9918,-831.8511 64.0551,-897.9031"/>
<polygon fill="#000000" stroke="#000000" points="59.8199,-907.2476 59.8493,-896.2817 61.8839,-902.6935 63.948,-898.1394 63.948,-898.1394 63.948,-898.1394 61.8839,-902.6935 68.0467,-899.9971 59.8199,-907.2476 59.8199,-907.2476"/>
</g>
<!-- Goal net -->
<g id="node7" class="node has&#45;pronunciation">
<title>Goal net</title>
<g id="a_node7"><a xlink:href="../goal-net.html" xlink:title="Ворота" target="_top">
<ellipse fill="none" stroke="#c0c0c0" stroke-width=".2" cx="77.7817" cy="-263.6627" rx="77.5641" ry="77.5641"/>
<text text-anchor="middle" x="77.7817" y="-285.6627" font-family="Times,serif" font-size="25.00" fill="#000000">Goal net</text>
<text text-anchor="middle" x="77.7817" y="-257.6627" font-family="Times,serif" font-size="25.00" fill="#000000">Ворота</text>
<text text-anchor="middle" x="77.7817" y="-229.6627" font-family="Times,serif" font-size="25.00" fill="#000000">Гoул нет</text>
</a>
</g>
</g>
<!-- Puck&#45;&gt;Goal net -->
<g id="edge14" class="edge">
<title>Puck&#45;&gt;Goal net</title>
<path fill="none" stroke="#000000" stroke-dasharray="5,2" d="M182.9534,-520.547C162.5974,-470.8269 133.5544,-399.8888 111.144,-345.1509"/>
<polygon fill="#000000" stroke="#000000" points="107.3242,-335.8209 115.2776,-343.3703 109.2187,-340.4481 111.1131,-345.0753 111.1131,-345.0753 111.1131,-345.0753 109.2187,-340.4481 106.9486,-346.7803 107.3242,-335.8209 107.3242,-335.8209"/>
</g>
<!-- Stick -->
<g id="node2" class="node has&#45;pronunciation">
<title>Stick</title>
<g id="a_node2"><a xlink:href="../stick.html" xlink:title="Клюшка" target="_top">
<ellipse fill="none" stroke="#c0c0c0" stroke-width=".2" cx="534.0711" cy="-661.9986" rx="48.5816" ry="48.5816"/>
<text text-anchor="middle" x="534.0711" y="-675.4986" font-family="Times,serif" font-size="15.00" fill="#000000">Stick</text>
<text text-anchor="middle" x="534.0711" y="-658.4986" font-family="Times,serif" font-size="15.00" fill="#000000">Клюшка</text>
<text text-anchor="middle" x="534.0711" y="-641.4986" font-family="Times,serif" font-size="15.00" fill="#000000">Стик</text>
</a>
</g>
</g>
<!-- Stick&#45;&gt;Puck -->
<g id="edge9" class="edge">
<title>Stick&#45;&gt;Puck</title>
<path fill="none" stroke="#000000" stroke-dasharray="5,2" d="M486.6132,-650.2176C432.5757,-636.8033 343.6568,-614.7299 280.7603,-599.1164"/>
<polygon fill="#000000" stroke="#000000" points="270.8986,-596.6684 281.6882,-594.7103 275.7513,-597.873 280.604,-599.0777 280.604,-599.0777 280.604,-599.0777 275.7513,-597.873 279.5198,-603.4452 270.8986,-596.6684 270.8986,-596.6684"/>
</g>
<!-- Goal -->
<g id="node3" class="node has&#45;pronunciation">
<title>Goal</title>
<g id="a_node3"><a xlink:href="../goal.html" xlink:title="Гол" target="_top">
<ellipse fill="none" stroke="#c0c0c0" stroke-width=".2" cx="228.6466" cy="-65.0538" rx="65.1077" ry="65.1077"/>
<text text-anchor="middle" x="228.6466" y="-87.0538" font-family="Times,serif" font-size="25.00" fill="#000000">Goal</text>
<text text-anchor="middle" x="228.6466" y="-59.0538" font-family="Times,serif" font-size="25.00" fill="#000000">Гол</text>
<text text-anchor="middle" x="228.6466" y="-31.0538" font-family="Times,serif" font-size="25.00" fill="#000000">Гoул</text>
</a>
</g>
</g>
<!-- Goal&#45;&gt;Puck -->
<g id="edge10" class="edge">
<title>Goal&#45;&gt;Puck</title>
<path fill="none" stroke="#000000" stroke-dasharray="5,2" d="M226.0037,-130.1346C222.1163,-225.8589 214.8738,-404.2014 210.7591,-505.5257"/>
<polygon fill="#000000" stroke="#000000" points="210.3464,-515.6862 206.256,-505.5118 210.5494,-510.6903 210.7523,-505.6944 210.7523,-505.6944 210.7523,-505.6944 210.5494,-510.6903 215.2486,-505.8771 210.3464,-515.6862 210.3464,-515.6862"/>
</g>
<!-- Goal&#45;&gt;Goal net -->
<g id="edge1" class="edge">
<title>Goal&#45;&gt;Goal net</title>
<path fill="none" stroke="#000000" stroke-dasharray="5,2" d="M189.2057,-116.9766C171.4805,-140.3112 150.2922,-168.205 131.1744,-193.373"/>
<polygon fill="#000000" stroke="#000000" points="125.0471,-201.4394 127.5126,-190.7542 128.0715,-197.4578 131.096,-193.4762 131.096,-193.4762 131.096,-193.4762 128.0715,-197.4578 134.6794,-196.1982 125.0471,-201.4394 125.0471,-201.4394"/>
</g>
<!-- Shot -->
<g id="node4" class="node has&#45;pronunciation">
<title>Shot</title>
<g id="a_node4"><a xlink:href="../shot.html" xlink:title="Бросок" target="_top">
<ellipse fill="none" stroke="#c0c0c0" stroke-width=".2" cx="347.9239" cy="-423.0833" rx="67.3507" ry="67.3507"/>
<text text-anchor="middle" x="347.9239" y="-445.0833" font-family="Times,serif" font-size="25.00" fill="#000000">Shot</text>
<text text-anchor="middle" x="347.9239" y="-417.0833" font-family="Times,serif" font-size="25.00" fill="#000000">Бросок</text>
<text text-anchor="middle" x="347.9239" y="-389.0833" font-family="Times,serif" font-size="25.00" fill="#000000">Шат</text>
</a>
</g>
</g>
<!-- Shot&#45;&gt;Puck -->
<g id="edge11" class="edge">
<title>Shot&#45;&gt;Puck</title>
<path fill="none" stroke="#000000" stroke-dasharray="5,2" d="M303.169,-473.4765C288.7112,-489.7557 272.5907,-507.9071 257.7735,-524.591"/>
<polygon fill="#000000" stroke="#000000" points="251.068,-532.1413 254.3438,-521.6761 254.3882,-528.4028 257.7084,-524.6643 257.7084,-524.6643 257.7084,-524.6643 254.3882,-528.4028 261.0731,-527.6525 251.068,-532.1413 251.068,-532.1413"/>
</g>
<!-- Shot&#45;&gt;Stick -->
<g id="edge3" class="edge">
<title>Shot&#45;&gt;Stick</title>
<path fill="none" stroke="#000000" stroke-dasharray="5,2" d="M389.236,-476.1063C421.7029,-517.7769 466.4913,-575.2616 497.6323,-615.2303"/>
<polygon fill="#000000" stroke="#000000" points="503.8657,-623.2308 494.1699,-618.1082 500.7927,-619.2866 497.7196,-615.3425 497.7196,-615.3425 497.7196,-615.3425 500.7927,-619.2866 501.2694,-612.5767 503.8657,-623.2308 503.8657,-623.2308"/>
</g>
<!-- Shot&#45;&gt;Goal -->
<g id="edge2" class="edge">
<title>Shot&#45;&gt;Goal</title>
<path fill="none" stroke="#000000" stroke-dasharray="5,2" d="M326.5995,-359.0748C305.7895,-296.6103 274.1863,-201.7485 252.5396,-136.7725"/>
<polygon fill="#000000" stroke="#000000" points="249.2875,-127.0107 256.7176,-135.0757 250.8679,-131.7543 252.4483,-136.498 252.4483,-136.498 252.4483,-136.498 250.8679,-131.7543 248.1789,-137.9204 249.2875,-127.0107 249.2875,-127.0107"/>
</g>
<!-- Shot&#45;&gt;Goal net -->
<g id="edge4" class="edge">
<title>Shot&#45;&gt;Goal net</title>
<path fill="none" stroke="#000000" stroke-dasharray="5,2" d="M289.9716,-388.8836C250.2306,-365.431 197.095,-334.0737 153.9387,-308.6057"/>
<polygon fill="#000000" stroke="#000000" points="145.1689,-303.4303 156.0682,-304.6373 149.475,-305.9715 153.7811,-308.5127 153.7811,-308.5127 153.7811,-308.5127 149.475,-305.9715 151.494,-312.3882 145.1689,-303.4303 145.1689,-303.4303"/>
</g>
<!-- Hockey -->
<g id="node5" class="node has&#45;pronunciation">
<title>Hockey</title>
<g id="a_node5"><a xlink:href="../hockey.html" xlink:title="Хоккей" target="_top">
<ellipse fill="none" stroke="#c0c0c0" stroke-width=".2" cx="438.902" cy="-234.4084" rx="45.011" ry="45.011"/>
<text text-anchor="middle" x="438.902" y="-247.9084" font-family="Times,serif" font-size="15.00" fill="#000000">Hockey</text>
<text text-anchor="middle" x="438.902" y="-230.9084" font-family="Times,serif" font-size="15.00" fill="#000000">Хоккей</text>
<text text-anchor="middle" x="438.902" y="-213.9084" font-family="Times,serif" font-size="15.00" fill="#000000">ˈХаки</text>
</a>
</g>
</g>
<!-- Hockey&#45;&gt;Puck -->
<g id="edge12" class="edge">
<title>Hockey&#45;&gt;Puck</title>
<path fill="none" stroke="#000000" stroke-dasharray="5,2" d="M403.7338,-263.113C373.1022,-289.5218 329.0671,-331.0505 299.398,-374.3467 270.7884,-416.0966 247.7327,-468.2169 231.8951,-509.6659"/>
<polygon fill="#000000" stroke="#000000" points="228.3263,-519.1477 227.6374,-508.2035 230.0876,-514.4682 231.8489,-509.7887 231.8489,-509.7887 231.8489,-509.7887 230.0876,-514.4682 236.0605,-511.3739 228.3263,-519.1477 228.3263,-519.1477"/>
</g>
<!-- Hockey&#45;&gt;Stick -->
<g id="edge6" class="edge">
<title>Hockey&#45;&gt;Stick</title>
<path fill="none" stroke="#000000" stroke-dasharray="5,2" d="M448.8174,-278.958C466.1735,-356.9383 502.037,-518.0711 521.2522,-604.404"/>
<polygon fill="#000000" stroke="#000000" points="523.4541,-614.2972 516.889,-605.5137 522.3678,-609.4166 521.2815,-604.536 521.2815,-604.536 521.2815,-604.536 522.3678,-609.4166 525.674,-603.5583 523.4541,-614.2972 523.4541,-614.2972"/>
</g>
<!-- Hockey&#45;&gt;Goal -->
<g id="edge8" class="edge">
<title>Hockey&#45;&gt;Goal</title>
<path fill="none" stroke="#000000" stroke-dasharray="5,2" d="M403.235,-205.6797C371.5144,-180.1297 324.5223,-142.2789 287.2793,-112.2808"/>
<polygon fill="#000000" stroke="#000000" points="279.4891,-106.006 290.0998,-108.7744 283.383,-109.1424 287.277,-112.2789 287.277,-112.2789 287.277,-112.2789 283.383,-109.1424 284.4542,-115.7834 279.4891,-106.006 279.4891,-106.006"/>
</g>
<!-- Hockey&#45;&gt;Shot -->
<g id="edge5" class="edge">
<title>Hockey&#45;&gt;Shot</title>
<path fill="none" stroke="#000000" stroke-dasharray="5,2" d="M419.1611,-275.348C408.1751,-298.1312 394.2017,-327.1101 381.5458,-353.3564"/>
<polygon fill="#000000" stroke="#000000" points="377.1313,-362.5114 377.4214,-351.5493 379.303,-358.0076 381.4748,-353.5039 381.4748,-353.5039 381.4748,-353.5039 379.303,-358.0076 385.5281,-355.4584 377.1313,-362.5114 377.1313,-362.5114"/>
</g>
<!-- Hockey&#45;&gt;Goal net -->
<g id="edge7" class="edge">
<title>Hockey&#45;&gt;Goal net</title>
<path fill="none" stroke="#000000" stroke-dasharray="5,2" d="M393.5315,-238.0839C336.5408,-242.7007 237.5063,-250.7235 165.5147,-256.5555"/>
<polygon fill="#000000" stroke="#000000" points="155.5431,-257.3633 165.147,-252.0704 160.5268,-256.9595 165.5104,-256.5558 165.5104,-256.5558 165.5104,-256.5558 160.5268,-256.9595 165.8738,-261.0411 155.5431,-257.3633 155.5431,-257.3633"/>
</g>
</g>
</svg>
