<?xml version="1.0" encoding="UTF-8" standalone="no"?>
<?xml-stylesheet href="../static/svg.css" type="text/css"?>
<!DOCTYPE svg PUBLIC "-//W3C//DTD SVG 1.1//EN"
 "http://www.w3.org/Graphics/SVG/1.1/DTD/svg11.dtd">
<!-- Generated by graphviz version 2.40.1 (20161225.0304)
 -->
<!-- Title: term Pages: 1 -->
<svg width="315pt" height="540pt"
 viewBox="0.00 0.00 315.11 539.81" xmlns="http://www.w3.org/2000/svg" xmlns:xlink="http://www.w3.org/1999/xlink">
<g id="graph0" class="graph" transform="scale(1 1) rotate(0) translate(4 535.8112)">
<title>term</title>
<!-- Wrist shot -->
<g id="node1" class="node root has&#45;pronunciation">
<title>Wrist shot</title>
<g id="a_node1"><a xlink:href="javascript:history.back()" xlink:title="Кистевой" target="_top">
<ellipse fill="none" stroke="#c0c0c0" stroke-width=".2" cx="56.5685" cy="-259.4151" rx="56.6372" ry="56.6372"/>
<text text-anchor="middle" x="56.5685" y="-272.9151" font-family="Times,serif" font-size="15.00" fill="#000000">Wrist shot</text>
<text text-anchor="middle" x="56.5685" y="-255.9151" font-family="Times,serif" font-size="15.00" fill="#000000">Кистевой</text>
<text text-anchor="middle" x="56.5685" y="-238.9151" font-family="Times,serif" font-size="15.00" fill="#000000">Рист шат</text>
</a>
</g>
</g>
<!-- Shot -->
<g id="node2" class="node has&#45;pronunciation">
<title>Shot</title>
<g id="a_node2"><a xlink:href="../shot.html" xlink:title="Бросок" target="_top">
<ellipse fill="none" stroke="#c0c0c0" stroke-width=".2" cx="239.9376" cy="-288.7492" rx="67.3507" ry="67.3507"/>
<text text-anchor="middle" x="239.9376" y="-310.7492" font-family="Times,serif" font-size="25.00" fill="#000000">Shot</text>
<text text-anchor="middle" x="239.9376" y="-282.7492" font-family="Times,serif" font-size="25.00" fill="#000000">Бросок</text>
<text text-anchor="middle" x="239.9376" y="-254.7492" font-family="Times,serif" font-size="25.00" fill="#000000">Шат</text>
</a>
</g>
</g>
<!-- Shot&#45;&gt;Wrist shot -->
<g id="edge3" class="edge">
<title>Shot&#45;&gt;Wrist shot</title>
<path fill="none" stroke="#000000" stroke-dasharray="5,2" d="M173.4779,-278.1174C156.9267,-275.4697 139.1862,-272.6317 122.6531,-269.9868"/>
<polygon fill="#000000" stroke="#000000" points="112.5363,-268.3684 123.1217,-265.5046 117.4736,-269.1583 122.4108,-269.9481 122.4108,-269.9481 122.4108,-269.9481 117.4736,-269.1583 121.6999,-274.3916 112.5363,-268.3684 112.5363,-268.3684"/>
</g>
<!-- Snap shot -->
<g id="node3" class="node has&#45;pronunciation">
<title>Snap shot</title>
<g id="a_node3"><a xlink:href="../snap-shot.html" xlink:title="Короткий щелчок" target="_top">
<ellipse fill="none" stroke="#c0c0c0" stroke-width=".2" cx="173.3769" cy="-91.9239" rx="91.8478" ry="91.8478"/>
<text text-anchor="middle" x="173.3769" y="-105.4239" font-family="Times,serif" font-size="15.00" fill="#000000">Snap shot</text>
<text text-anchor="middle" x="173.3769" y="-88.4239" font-family="Times,serif" font-size="15.00" fill="#000000">Короткий щелчок</text>
<text text-anchor="middle" x="173.3769" y="-71.4239" font-family="Times,serif" font-size="15.00" fill="#000000">Снэп шат</text>
</a>
</g>
</g>
<!-- Shot&#45;&gt;Snap shot -->
<g id="edge1" class="edge">
<title>Shot&#45;&gt;Snap shot</title>
<path fill="none" stroke="#000000" stroke-dasharray="5,2" d="M218.3272,-224.8456C214.4334,-213.3313 210.2956,-201.0953 206.1677,-188.889"/>
<polygon fill="#000000" stroke="#000000" points="202.8643,-179.1206 210.3307,-187.152 204.4661,-183.8571 206.0679,-188.5936 206.0679,-188.5936 206.0679,-188.5936 204.4661,-183.8571 201.805,-190.0352 202.8643,-179.1206 202.8643,-179.1206"/>
</g>
<!-- Backhand shot -->
<g id="node4" class="node has&#45;pronunciation">
<title>Backhand shot</title>
<g id="a_node4"><a xlink:href="../backhand-shot.html" xlink:title="С неудобной" target="_top">
<ellipse fill="none" stroke="#c0c0c0" stroke-width=".2" cx="122.5056" cy="-456.1508" rx="75.8212" ry="75.8212"/>
<text text-anchor="middle" x="122.5056" y="-469.6508" font-family="Times,serif" font-size="15.00" fill="#000000">Backhand shot</text>
<text text-anchor="middle" x="122.5056" y="-452.6508" font-family="Times,serif" font-size="15.00" fill="#000000">С неудобной</text>
<text text-anchor="middle" x="122.5056" y="-435.6508" font-family="Times,serif" font-size="15.00" fill="#000000">ˈБэкˌхэнд шат</text>
</a>
</g>
</g>
<!-- Shot&#45;&gt;Backhand shot -->
<g id="edge2" class="edge">
<title>Shot&#45;&gt;Backhand shot</title>
<path fill="none" stroke="#000000" stroke-dasharray="5,2" d="M201.1605,-344.0266C191.866,-357.2762 181.815,-371.6041 172.105,-385.4459"/>
<polygon fill="#000000" stroke="#000000" points="166.113,-393.9876 168.1719,-383.2167 168.9844,-389.8943 171.8559,-385.801 171.8559,-385.801 171.8559,-385.801 168.9844,-389.8943 175.5399,-388.3853 166.113,-393.9876 166.113,-393.9876"/>
</g>
<!-- Snap shot&#45;&gt;Wrist shot -->
<g id="edge4" class="edge">
<title>Snap shot&#45;&gt;Wrist shot</title>
<path fill="none" stroke="#000000" stroke-dasharray="5,2" d="M120.7818,-167.3399C112.1083,-179.7768 103.2622,-192.4612 95.0189,-204.2813"/>
<polygon fill="#000000" stroke="#000000" points="89.1341,-212.7194 91.1634,-201.9429 91.9942,-208.6183 94.8544,-204.5171 94.8544,-204.5171 94.8544,-204.5171 91.9942,-208.6183 98.5455,-207.0913 89.1341,-212.7194 89.1341,-212.7194"/>
</g>
<!-- Backhand shot&#45;&gt;Wrist shot -->
<g id="edge5" class="edge">
<title>Backhand shot&#45;&gt;Wrist shot</title>
<path fill="none" stroke="#000000" stroke-dasharray="5,2" d="M98.4209,-384.2896C91.686,-364.1946 84.4166,-342.505 77.8559,-322.93"/>
<polygon fill="#000000" stroke="#000000" points="74.5974,-313.2075 82.042,-321.2591 76.1863,-317.9483 77.7753,-322.6891 77.7753,-322.6891 77.7753,-322.6891 76.1863,-317.9483 73.5085,-324.1192 74.5974,-313.2075 74.5974,-313.2075"/>
</g>
</g>
</svg>
