<?xml version="1.0" encoding="UTF-8" standalone="no"?>
<?xml-stylesheet href="../static/svg.css" type="text/css"?>
<!DOCTYPE svg PUBLIC "-//W3C//DTD SVG 1.1//EN"
 "http://www.w3.org/Graphics/SVG/1.1/DTD/svg11.dtd">
<!-- Generated by graphviz version 2.40.1 (20161225.0304)
 -->
<!-- Title: term Pages: 1 -->
<svg width="851pt" height="1386pt"
 viewBox="0.00 0.00 851.27 1386.36" xmlns="http://www.w3.org/2000/svg" xmlns:xlink="http://www.w3.org/1999/xlink">
<g id="graph0" class="graph" transform="scale(1 1) rotate(0) translate(4 1382.3637)">
<title>term</title>
<!-- Shot -->
<g id="node1" class="node root has&#45;pronunciation">
<title>Shot</title>
<g id="a_node1"><a xlink:href="javascript:history.back()" xlink:title="Бросок" target="_top">
<ellipse fill="none" stroke="#c0c0c0" stroke-width=".2" cx="407.2551" cy="-672.6251" rx="67.3507" ry="67.3507"/>
<text text-anchor="middle" x="407.2551" y="-694.6251" font-family="Times,serif" font-size="25.00" fill="#000000">Shot</text>
<text text-anchor="middle" x="407.2551" y="-666.6251" font-family="Times,serif" font-size="25.00" fill="#000000">Бросок</text>
<text text-anchor="middle" x="407.2551" y="-638.6251" font-family="Times,serif" font-size="25.00" fill="#000000">Шат</text>
</a>
</g>
</g>
<!-- Goal -->
<g id="node4" class="node has&#45;pronunciation">
<title>Goal</title>
<g id="a_node4"><a xlink:href="../goal.html" xlink:title="Гол" target="_top">
<ellipse fill="none" stroke="#c0c0c0" stroke-width=".2" cx="174.724" cy="-1155.0795" rx="52.1524" ry="52.1524"/>
<text text-anchor="middle" x="174.724" y="-1172.0795" font-family="Times,serif" font-size="20.00" fill="#000000">Goal</text>
<text text-anchor="middle" x="174.724" y="-1150.0795" font-family="Times,serif" font-size="20.00" fill="#000000">Гол</text>
<text text-anchor="middle" x="174.724" y="-1128.0795" font-family="Times,serif" font-size="20.00" fill="#000000">Гoул</text>
</a>
</g>
</g>
<!-- Shot&#45;&gt;Goal -->
<g id="edge16" class="edge">
<title>Shot&#45;&gt;Goal</title>
<path fill="none" stroke="#000000" stroke-dasharray="5,2" d="M378.0404,-733.2398C332.6968,-827.3183 246.0204,-1007.1542 201.9321,-1098.6283"/>
<polygon fill="#000000" stroke="#000000" points="197.5437,-1107.7332 197.8318,-1096.7711 199.7146,-1103.229 201.8856,-1098.7249 201.8856,-1098.7249 201.8856,-1098.7249 199.7146,-1103.229 205.9393,-1100.6787 197.5437,-1107.7332 197.5437,-1107.7332"/>
</g>
<!-- Puck -->
<g id="node5" class="node has&#45;pronunciation">
<title>Puck</title>
<g id="a_node5"><a xlink:href="../puck.html" xlink:title="Шайба" target="_top">
<ellipse fill="none" stroke="#c0c0c0" stroke-width=".2" cx="313.1834" cy="-1326.0378" rx="52.1524" ry="52.1524"/>
<text text-anchor="middle" x="313.1834" y="-1343.0378" font-family="Times,serif" font-size="20.00" fill="#000000">Puck</text>
<text text-anchor="middle" x="313.1834" y="-1321.0378" font-family="Times,serif" font-size="20.00" fill="#000000">Шайба</text>
<text text-anchor="middle" x="313.1834" y="-1299.0378" font-family="Times,serif" font-size="20.00" fill="#000000">Пак</text>
</a>
</g>
</g>
<!-- Shot&#45;&gt;Puck -->
<g id="edge17" class="edge">
<title>Shot&#45;&gt;Puck</title>
<path fill="none" stroke="#000000" stroke-dasharray="5,2" d="M402.5508,-739.7647C397.3993,-807.1261 388.0703,-913.7452 374.828,-1005.37 361.6847,-1096.3092 340.4742,-1200.6346 326.68,-1264.9438"/>
<polygon fill="#000000" stroke="#000000" points="324.5321,-1274.9132 322.2392,-1264.1897 325.5852,-1270.0254 326.6383,-1265.1375 326.6383,-1265.1375 326.6383,-1265.1375 325.5852,-1270.0254 331.0374,-1266.0853 324.5321,-1274.9132 324.5321,-1274.9132"/>
</g>
<!-- Stick -->
<g id="node6" class="node has&#45;pronunciation">
<title>Stick</title>
<g id="a_node6"><a xlink:href="../stick.html" xlink:title="Клюшка" target="_top">
<ellipse fill="none" stroke="#c0c0c0" stroke-width=".2" cx="558.6616" cy="-1291.9221" rx="48.5816" ry="48.5816"/>
<text text-anchor="middle" x="558.6616" y="-1305.4221" font-family="Times,serif" font-size="15.00" fill="#000000">Stick</text>
<text text-anchor="middle" x="558.6616" y="-1288.4221" font-family="Times,serif" font-size="15.00" fill="#000000">Клюшка</text>
<text text-anchor="middle" x="558.6616" y="-1271.4221" font-family="Times,serif" font-size="15.00" fill="#000000">Стик</text>
</a>
</g>
</g>
<!-- Shot&#45;&gt;Stick -->
<g id="edge18" class="edge">
<title>Shot&#45;&gt;Stick</title>
<path fill="none" stroke="#000000" stroke-dasharray="5,2" d="M414.4474,-739.4734C423.9808,-819.4038 443.3368,-956.7703 474.5549,-1071.4402 490.3961,-1129.6279 515.8275,-1193.7961 534.583,-1237.8292"/>
<polygon fill="#000000" stroke="#000000" points="538.5973,-1247.1865 530.5192,-1239.7707 536.626,-1242.5915 534.6547,-1237.9965 534.6547,-1237.9965 534.6547,-1237.9965 536.626,-1242.5915 538.7902,-1236.2223 538.5973,-1247.1865 538.5973,-1247.1865"/>
</g>
<!-- Goal net -->
<g id="node7" class="node has&#45;pronunciation">
<title>Goal net</title>
<g id="a_node7"><a xlink:href="../goal-net.html" xlink:title="Ворота" target="_top">
<ellipse fill="none" stroke="#c0c0c0" stroke-width=".2" cx="95.6589" cy="-879.1976" rx="62.8651" ry="62.8651"/>
<text text-anchor="middle" x="95.6589" y="-896.1976" font-family="Times,serif" font-size="20.00" fill="#000000">Goal net</text>
<text text-anchor="middle" x="95.6589" y="-874.1976" font-family="Times,serif" font-size="20.00" fill="#000000">Ворота</text>
<text text-anchor="middle" x="95.6589" y="-852.1976" font-family="Times,serif" font-size="20.00" fill="#000000">Гoул нет</text>
</a>
</g>
</g>
<!-- Shot&#45;&gt;Goal net -->
<g id="edge19" class="edge">
<title>Shot&#45;&gt;Goal net</title>
<path fill="none" stroke="#000000" stroke-dasharray="5,2" d="M351.1881,-709.7947C296.3568,-746.1451 213.094,-801.3441 156.6376,-838.7718"/>
<polygon fill="#000000" stroke="#000000" points="148.1625,-844.3904 154.0108,-835.1142 152.3299,-841.6276 156.4973,-838.8648 156.4973,-838.8648 156.4973,-838.8648 152.3299,-841.6276 158.9838,-842.6155 148.1625,-844.3904 148.1625,-844.3904"/>
</g>
<!-- Flip shot -->
<g id="node8" class="node has&#45;pronunciation">
<title>Flip shot</title>
<g id="a_node8"><a xlink:href="../flip-shot.html" xlink:title="Подкидка" target="_top">
<ellipse fill="none" stroke="#c0c0c0" stroke-width=".2" cx="726.4332" cy="-466.0413" rx="55.7232" ry="55.7232"/>
<text text-anchor="middle" x="726.4332" y="-479.5413" font-family="Times,serif" font-size="15.00" fill="#000000">Flip shot</text>
<text text-anchor="middle" x="726.4332" y="-462.5413" font-family="Times,serif" font-size="15.00" fill="#000000">Подкидка</text>
<text text-anchor="middle" x="726.4332" y="-445.5413" font-family="Times,serif" font-size="15.00" fill="#000000">Флип шат</text>
</a>
</g>
</g>
<!-- Shot&#45;&gt;Flip shot -->
<g id="edge20" class="edge">
<title>Shot&#45;&gt;Flip shot</title>
<path fill="none" stroke="#000000" stroke-dasharray="5,2" d="M463.95,-635.9301C522.3092,-598.1579 612.6702,-539.673 670.6816,-502.1258"/>
<polygon fill="#000000" stroke="#000000" points="679.3512,-496.5146 673.4013,-505.726 675.1536,-499.2314 670.9561,-501.9482 670.9561,-501.9482 670.9561,-501.9482 675.1536,-499.2314 668.511,-498.1704 679.3512,-496.5146 679.3512,-496.5146"/>
</g>
<!-- Wrist shot -->
<g id="node9" class="node has&#45;pronunciation">
<title>Wrist shot</title>
<g id="a_node9"><a xlink:href="../wrist-shot.html" xlink:title="Кистевой" target="_top">
<ellipse fill="none" stroke="#c0c0c0" stroke-width=".2" cx="217.3036" cy="-182.7695" rx="56.6372" ry="56.6372"/>
<text text-anchor="middle" x="217.3036" y="-196.2695" font-family="Times,serif" font-size="15.00" fill="#000000">Wrist shot</text>
<text text-anchor="middle" x="217.3036" y="-179.2695" font-family="Times,serif" font-size="15.00" fill="#000000">Кистевой</text>
<text text-anchor="middle" x="217.3036" y="-162.2695" font-family="Times,serif" font-size="15.00" fill="#000000">Рист шат</text>
</a>
</g>
</g>
<!-- Shot&#45;&gt;Wrist shot -->
<g id="edge21" class="edge">
<title>Shot&#45;&gt;Wrist shot</title>
<path fill="none" stroke="#000000" stroke-dasharray="5,2" d="M382.8112,-609.5879C346.2897,-515.4046 277.8913,-339.0157 241.5091,-245.1918"/>
<polygon fill="#000000" stroke="#000000" points="237.8765,-235.8239 245.6876,-243.5205 239.6843,-240.4857 241.492,-245.1475 241.492,-245.1475 241.492,-245.1475 239.6843,-240.4857 237.2964,-246.7744 237.8765,-235.8239 237.8765,-235.8239"/>
</g>
<!-- Slapshot -->
<g id="node10" class="node has&#45;pronunciation">
<title>Slapshot</title>
<g id="a_node10"><a xlink:href="../slapshot.html" xlink:title="Щелчок" target="_top">
<ellipse fill="none" stroke="#c0c0c0" stroke-width=".2" cx="594.1759" cy="-192.7561" rx="50.8235" ry="50.8235"/>
<text text-anchor="middle" x="594.1759" y="-206.2561" font-family="Times,serif" font-size="15.00" fill="#000000">Slapshot</text>
<text text-anchor="middle" x="594.1759" y="-189.2561" font-family="Times,serif" font-size="15.00" fill="#000000">Щелчок</text>
<text text-anchor="middle" x="594.1759" y="-172.2561" font-family="Times,serif" font-size="15.00" fill="#000000">Слэпшат</text>
</a>
</g>
</g>
<!-- Shot&#45;&gt;Slapshot -->
<g id="edge22" class="edge">
<title>Shot&#45;&gt;Slapshot</title>
<path fill="none" stroke="#000000" stroke-dasharray="5,2" d="M431.6918,-609.8906C468.2607,-516.0098 536.6838,-340.3516 571.9302,-249.8659"/>
<polygon fill="#000000" stroke="#000000" points="575.6478,-240.3221 576.2112,-251.2735 573.833,-244.9811 572.0181,-249.6401 572.0181,-249.6401 572.0181,-249.6401 573.833,-244.9811 567.825,-248.0068 575.6478,-240.3221 575.6478,-240.3221"/>
</g>
<!-- Snap shot -->
<g id="node11" class="node has&#45;pronunciation">
<title>Snap shot</title>
<g id="a_node11"><a xlink:href="../snap-shot.html" xlink:title="Короткий щелчок" target="_top">
<ellipse fill="none" stroke="#c0c0c0" stroke-width=".2" cx="407.1053" cy="-91.9239" rx="91.8478" ry="91.8478"/>
<text text-anchor="middle" x="407.1053" y="-105.4239" font-family="Times,serif" font-size="15.00" fill="#000000">Snap shot</text>
<text text-anchor="middle" x="407.1053" y="-88.4239" font-family="Times,serif" font-size="15.00" fill="#000000">Короткий щелчок</text>
<text text-anchor="middle" x="407.1053" y="-71.4239" font-family="Times,serif" font-size="15.00" fill="#000000">Снэп шат</text>
</a>
</g>
</g>
<!-- Shot&#45;&gt;Snap shot -->
<g id="edge23" class="edge">
<title>Shot&#45;&gt;Snap shot</title>
<path fill="none" stroke="#000000" stroke-dasharray="5,2" d="M407.2378,-605.444C407.2117,-504.4178 407.1623,-312.622 407.1317,-194.1671"/>
<polygon fill="#000000" stroke="#000000" points="407.1291,-184.0007 411.6318,-193.9995 407.1304,-189.0007 407.1318,-194.0007 407.1318,-194.0007 407.1318,-194.0007 407.1304,-189.0007 402.6318,-194.0019 407.1291,-184.0007 407.1291,-184.0007"/>
</g>
<!-- Backhand shot -->
<g id="node12" class="node has&#45;pronunciation">
<title>Backhand shot</title>
<g id="a_node12"><a xlink:href="../backhand-shot.html" xlink:title="С неудобной" target="_top">
<ellipse fill="none" stroke="#c0c0c0" stroke-width=".2" cx="76.3675" cy="-428.0176" rx="76.2353" ry="76.2353"/>
<text text-anchor="middle" x="76.3675" y="-441.5176" font-family="Times,serif" font-size="15.00" fill="#000000">Backhand shot</text>
<text text-anchor="middle" x="76.3675" y="-424.5176" font-family="Times,serif" font-size="15.00" fill="#000000">С неудобной</text>
<text text-anchor="middle" x="76.3675" y="-407.5176" font-family="Times,serif" font-size="15.00" fill="#000000">ˈБэкˌхэнд шат</text>
</a>
</g>
</g>
<!-- Shot&#45;&gt;Backhand shot -->
<g id="edge24" class="edge">
<title>Shot&#45;&gt;Backhand shot</title>
<path fill="none" stroke="#000000" stroke-dasharray="5,2" d="M352.9863,-632.5071C296.4864,-590.7397 207.7904,-525.1715 146.1227,-479.5838"/>
<polygon fill="#000000" stroke="#000000" points="137.9852,-473.5682 148.7016,-475.8942 142.0059,-476.5405 146.0266,-479.5128 146.0266,-479.5128 146.0266,-479.5128 142.0059,-476.5405 143.3515,-483.1314 137.9852,-473.5682 137.9852,-473.5682"/>
</g>
<!-- One&#45;timer -->
<g id="node13" class="node has&#45;pronunciation">
<title>One&#45;timer</title>
<g id="a_node13"><a xlink:href="../one-timer.html" xlink:title="В одно касание" target="_top">
<ellipse fill="none" stroke="#c0c0c0" stroke-width=".2" cx="763.3655" cy="-828.663" rx="79.8062" ry="79.8062"/>
<text text-anchor="middle" x="763.3655" y="-842.163" font-family="Times,serif" font-size="15.00" fill="#000000">One&#45;timer</text>
<text text-anchor="middle" x="763.3655" y="-825.163" font-family="Times,serif" font-size="15.00" fill="#000000">В одно касание</text>
<text text-anchor="middle" x="763.3655" y="-808.163" font-family="Times,serif" font-size="15.00" fill="#000000">Уан&#45;ˈтаймэр</text>
</a>
</g>
</g>
<!-- Shot&#45;&gt;One&#45;timer -->
<g id="edge25" class="edge">
<title>Shot&#45;&gt;One&#45;timer</title>
<path fill="none" stroke="#000000" stroke-dasharray="5,2" d="M468.8783,-699.6267C527.4124,-725.2748 615.841,-764.0218 680.5222,-792.3633"/>
<polygon fill="#000000" stroke="#000000" points="689.8867,-796.4666 678.9213,-796.5748 685.307,-794.4598 680.7273,-792.4531 680.7273,-792.4531 680.7273,-792.4531 685.307,-794.4598 682.5334,-788.3314 689.8867,-796.4666 689.8867,-796.4666"/>
</g>
<!-- Player -->
<g id="node2" class="node has&#45;pronunciation">
<title>Player</title>
<g id="a_node2"><a xlink:href="../player.html" xlink:title="Игрок" target="_top">
<ellipse fill="none" stroke="#c0c0c0" stroke-width=".2" cx="522.8231" cy="-1071.7268" rx="46.8387" ry="46.8387"/>
<text text-anchor="middle" x="522.8231" y="-1085.2268" font-family="Times,serif" font-size="15.00" fill="#000000">Player</text>
<text text-anchor="middle" x="522.8231" y="-1068.2268" font-family="Times,serif" font-size="15.00" fill="#000000">Игрок</text>
<text text-anchor="middle" x="522.8231" y="-1051.2268" font-family="Times,serif" font-size="15.00" fill="#000000">&#39;Плейэр</text>
</a>
</g>
</g>
<!-- Player&#45;&gt;Shot -->
<g id="edge14" class="edge">
<title>Player&#45;&gt;Shot</title>
<path fill="none" stroke="#000000" stroke-dasharray="5,2" d="M509.7907,-1026.7206C490.107,-958.7451 452.5723,-829.1231 428.7865,-746.9815"/>
<polygon fill="#000000" stroke="#000000" points="425.9561,-737.2069 433.06,-745.5606 427.3469,-742.0096 428.7376,-746.8123 428.7376,-746.8123 428.7376,-746.8123 427.3469,-742.0096 424.4152,-748.064 425.9561,-737.2069 425.9561,-737.2069"/>
</g>
<!-- Player&#45;&gt;Goal -->
<g id="edge1" class="edge">
<title>Player&#45;&gt;Goal</title>
<path fill="none" stroke="#000000" stroke-dasharray="5,2" d="M477.3152,-1082.6238C415.486,-1097.4288 304.7592,-1123.9425 235.7659,-1140.463"/>
<polygon fill="#000000" stroke="#000000" points="225.9001,-1142.8253 234.5773,-1136.1203 230.7627,-1141.661 235.6252,-1140.4966 235.6252,-1140.4966 235.6252,-1140.4966 230.7627,-1141.661 236.6732,-1144.8729 225.9001,-1142.8253 225.9001,-1142.8253"/>
</g>
<!-- Hockey -->
<g id="node3" class="node has&#45;pronunciation">
<title>Hockey</title>
<g id="a_node3"><a xlink:href="../hockey.html" xlink:title="Хоккей" target="_top">
<ellipse fill="none" stroke="#c0c0c0" stroke-width=".2" cx="327.9735" cy="-1005.1859" rx="45.011" ry="45.011"/>
<text text-anchor="middle" x="327.9735" y="-1018.6859" font-family="Times,serif" font-size="15.00" fill="#000000">Hockey</text>
<text text-anchor="middle" x="327.9735" y="-1001.6859" font-family="Times,serif" font-size="15.00" fill="#000000">Хоккей</text>
<text text-anchor="middle" x="327.9735" y="-984.6859" font-family="Times,serif" font-size="15.00" fill="#000000">ˈХаки</text>
</a>
</g>
</g>
<!-- Hockey&#45;&gt;Shot -->
<g id="edge15" class="edge">
<title>Hockey&#45;&gt;Shot</title>
<path fill="none" stroke="#000000" stroke-dasharray="5,2" d="M338.5015,-961.0244C351.4424,-906.7416 373.6087,-813.7612 389.2693,-748.07"/>
<polygon fill="#000000" stroke="#000000" points="391.6275,-738.178 393.6858,-748.949 390.468,-743.0417 389.3084,-747.9054 389.3084,-747.9054 389.3084,-747.9054 390.468,-743.0417 384.9311,-746.8618 391.6275,-738.178 391.6275,-738.178"/>
</g>
<!-- Hockey&#45;&gt;Player -->
<g id="edge2" class="edge">
<title>Hockey&#45;&gt;Player</title>
<path fill="none" stroke="#000000" stroke-dasharray="5,2" d="M371.2169,-1019.9535C399.9489,-1029.7654 437.8993,-1042.7255 468.6423,-1053.2241"/>
<polygon fill="#000000" stroke="#000000" points="478.3497,-1056.5392 467.4319,-1057.5659 473.618,-1054.9233 468.8863,-1053.3074 468.8863,-1053.3074 468.8863,-1053.3074 473.618,-1054.9233 470.3406,-1049.0489 478.3497,-1056.5392 478.3497,-1056.5392"/>
</g>
<!-- Hockey&#45;&gt;Goal -->
<g id="edge6" class="edge">
<title>Hockey&#45;&gt;Goal</title>
<path fill="none" stroke="#000000" stroke-dasharray="5,2" d="M295.4732,-1036.9745C273.4173,-1058.5475 243.9623,-1087.3574 219.6658,-1111.1219"/>
<polygon fill="#000000" stroke="#000000" points="212.305,-1118.3215 216.3073,-1108.1121 215.8794,-1114.8253 219.4539,-1111.3291 219.4539,-1111.3291 219.4539,-1111.3291 215.8794,-1114.8253 222.6005,-1114.5461 212.305,-1118.3215 212.305,-1118.3215"/>
</g>
<!-- Hockey&#45;&gt;Puck -->
<g id="edge4" class="edge">
<title>Hockey&#45;&gt;Puck</title>
<path fill="none" stroke="#000000" stroke-dasharray="5,2" d="M325.8858,-1050.4757C323.3212,-1106.1102 318.9568,-1200.7904 316.0717,-1263.3791"/>
<polygon fill="#000000" stroke="#000000" points="315.6042,-1273.5214 311.5695,-1263.3247 315.8345,-1268.5267 316.0648,-1263.532 316.0648,-1263.532 316.0648,-1263.532 315.8345,-1268.5267 320.56,-1263.7392 315.6042,-1273.5214 315.6042,-1273.5214"/>
</g>
<!-- Hockey&#45;&gt;Stick -->
<g id="edge3" class="edge">
<title>Hockey&#45;&gt;Stick</title>
<path fill="none" stroke="#000000" stroke-dasharray="5,2" d="M356.4917,-1040.633C398.1699,-1092.4374 475.7474,-1188.8631 521.736,-1246.025"/>
<polygon fill="#000000" stroke="#000000" points="528.0085,-1253.8214 518.2338,-1248.8508 524.8742,-1249.9257 521.74,-1246.03 521.74,-1246.03 521.74,-1246.03 524.8742,-1249.9257 525.2461,-1243.2092 528.0085,-1253.8214 528.0085,-1253.8214"/>
</g>
<!-- Hockey&#45;&gt;Goal net -->
<g id="edge5" class="edge">
<title>Hockey&#45;&gt;Goal net</title>
<path fill="none" stroke="#000000" stroke-dasharray="5,2" d="M288.0372,-983.5278C252.8662,-964.4539 201.0032,-936.3277 159.9865,-914.0836"/>
<polygon fill="#000000" stroke="#000000" points="151.1437,-909.288 162.0795,-910.0996 155.539,-911.6717 159.9342,-914.0553 159.9342,-914.0553 159.9342,-914.0553 155.539,-911.6717 157.7889,-918.0111 151.1437,-909.288 151.1437,-909.288"/>
</g>
<!-- Goal&#45;&gt;Puck -->
<g id="edge7" class="edge">
<title>Goal&#45;&gt;Puck</title>
<path fill="none" stroke="#000000" stroke-dasharray="5,2" d="M207.8884,-1196.0283C227.6819,-1220.4676 252.9324,-1251.6449 273.7444,-1277.3418"/>
<polygon fill="#000000" stroke="#000000" points="280.0499,-1285.1272 270.2591,-1280.1884 276.903,-1281.2417 273.7561,-1277.3562 273.7561,-1277.3562 273.7561,-1277.3562 276.903,-1281.2417 277.253,-1274.524 280.0499,-1285.1272 280.0499,-1285.1272"/>
</g>
<!-- Goal&#45;&gt;Goal net -->
<g id="edge8" class="edge">
<title>Goal&#45;&gt;Goal net</title>
<path fill="none" stroke="#000000" stroke-dasharray="5,2" d="M160.2222,-1104.4785C147.7934,-1061.1106 129.757,-998.1762 115.905,-949.8425"/>
<polygon fill="#000000" stroke="#000000" points="113.1049,-940.0719 120.1858,-948.4452 114.4824,-944.8785 115.8599,-949.685 115.8599,-949.685 115.8599,-949.685 114.4824,-944.8785 111.5341,-950.9247 113.1049,-940.0719 113.1049,-940.0719"/>
</g>
<!-- Puck&#45;&gt;Goal net -->
<g id="edge9" class="edge">
<title>Puck&#45;&gt;Goal net</title>
<path fill="none" stroke="#000000" stroke-dasharray="5,2" d="M290.7079,-1278.7051C270.5472,-1236.3456 240.0841,-1172.582 213.1967,-1117.2926 184.7872,-1058.8733 152.0395,-992.6246 128.338,-944.8675"/>
<polygon fill="#000000" stroke="#000000" points="123.8716,-935.8713 132.3491,-942.8271 126.0951,-940.3498 128.3185,-944.8282 128.3185,-944.8282 128.3185,-944.8282 126.0951,-940.3498 124.2879,-946.8293 123.8716,-935.8713 123.8716,-935.8713"/>
</g>
<!-- Stick&#45;&gt;Puck -->
<g id="edge10" class="edge">
<title>Stick&#45;&gt;Puck</title>
<path fill="none" stroke="#000000" stroke-dasharray="5,2" d="M510.163,-1298.6623C471.5672,-1304.0262 417.2831,-1311.5704 375.4723,-1317.3811"/>
<polygon fill="#000000" stroke="#000000" points="365.4002,-1318.7809 374.6856,-1312.9471 370.3527,-1318.0925 375.3051,-1317.4042 375.3051,-1317.4042 375.3051,-1317.4042 370.3527,-1318.0925 375.9245,-1321.8614 365.4002,-1318.7809 365.4002,-1318.7809"/>
</g>
<!-- Snap shot&#45;&gt;Wrist shot -->
<g id="edge11" class="edge">
<title>Snap shot&#45;&gt;Wrist shot</title>
<path fill="none" stroke="#000000" stroke-dasharray="5,2" d="M324.1316,-131.6379C308.4364,-139.1502 292.2989,-146.8742 277.4732,-153.9702"/>
<polygon fill="#000000" stroke="#000000" points="268.4274,-158.2999 275.5046,-149.9235 272.9374,-156.1412 277.4474,-153.9825 277.4474,-153.9825 277.4474,-153.9825 272.9374,-156.1412 279.3902,-158.0415 268.4274,-158.2999 268.4274,-158.2999"/>
</g>
<!-- Snap shot&#45;&gt;Slapshot -->
<g id="edge12" class="edge">
<title>Snap shot&#45;&gt;Slapshot</title>
<path fill="none" stroke="#000000" stroke-dasharray="5,2" d="M488.0692,-135.5639C505.7324,-145.0845 524.0048,-154.9334 540.3047,-163.7192"/>
<polygon fill="#000000" stroke="#000000" points="549.141,-168.482 538.2031,-167.6984 544.7396,-166.1096 540.3382,-163.7372 540.3382,-163.7372 540.3382,-163.7372 544.7396,-166.1096 542.4734,-159.776 549.141,-168.482 549.141,-168.482"/>
</g>
<!-- Backhand shot&#45;&gt;Wrist shot -->
<g id="edge13" class="edge">
<title>Backhand shot&#45;&gt;Wrist shot</title>
<path fill="none" stroke="#000000" stroke-dasharray="5,2" d="M114.5069,-361.6499C136.1507,-323.9866 162.9895,-277.2835 183.8154,-241.0435"/>
<polygon fill="#000000" stroke="#000000" points="188.9738,-232.0672 187.8928,-242.9797 186.4825,-236.4024 183.9912,-240.7376 183.9912,-240.7376 183.9912,-240.7376 186.4825,-236.4024 180.0896,-238.4954 188.9738,-232.0672 188.9738,-232.0672"/>
</g>
</g>
</svg>
