<?xml version="1.0" encoding="UTF-8" standalone="no"?>
<?xml-stylesheet href="../static/svg.css" type="text/css"?>
<!DOCTYPE svg PUBLIC "-//W3C//DTD SVG 1.1//EN"
 "http://www.w3.org/Graphics/SVG/1.1/DTD/svg11.dtd">
<!-- Generated by graphviz version 2.40.1 (20161225.0304)
 -->
<!-- Title: term Pages: 1 -->
<svg width="1968pt" height="3343pt"
 viewBox="0.00 0.00 1968.39 3342.62" xmlns="http://www.w3.org/2000/svg" xmlns:xlink="http://www.w3.org/1999/xlink">
<g id="graph0" class="graph" transform="scale(1 1) rotate(0) translate(4 3338.62)">
<title>term</title>
<!-- Team -->
<g id="node1" class="node has&#45;pronunciation">
<title>Team</title>
<g id="a_node1"><a xlink:href="../team.html" xlink:title="Команда" target="_top">
<ellipse fill="none" stroke="#c0c0c0" stroke-width=".2" cx="670.6725" cy="-1316.6615" rx="51.7379" ry="51.7379"/>
<text text-anchor="middle" x="670.6725" y="-1330.1615" font-family="Times,serif" font-size="15.00" fill="#000000">Team</text>
<text text-anchor="middle" x="670.6725" y="-1313.1615" font-family="Times,serif" font-size="15.00" fill="#000000">Команда</text>
<text text-anchor="middle" x="670.6725" y="-1296.1615" font-family="Times,serif" font-size="15.00" fill="#000000">Тим</text>
</a>
</g>
</g>
<!-- Player -->
<g id="node2" class="node has&#45;pronunciation">
<title>Player</title>
<g id="a_node2"><a xlink:href="../player.html" xlink:title="Игрок" target="_top">
<ellipse fill="none" stroke="#c0c0c0" stroke-width=".2" cx="919.3101" cy="-1229.24" rx="46.8387" ry="46.8387"/>
<text text-anchor="middle" x="919.3101" y="-1242.74" font-family="Times,serif" font-size="15.00" fill="#000000">Player</text>
<text text-anchor="middle" x="919.3101" y="-1225.74" font-family="Times,serif" font-size="15.00" fill="#000000">Игрок</text>
<text text-anchor="middle" x="919.3101" y="-1208.74" font-family="Times,serif" font-size="15.00" fill="#000000">&#39;Плейэр</text>
</a>
</g>
</g>
<!-- Team&#45;&gt;Player -->
<g id="edge1" class="edge">
<title>Team&#45;&gt;Player</title>
<path fill="none" stroke="#000000" stroke-dasharray="5,2" d="M719.4987,-1299.4941C761.5728,-1284.7008 822.2134,-1263.3794 865.639,-1248.1109"/>
<polygon fill="#000000" stroke="#000000" points="875.181,-1244.7559 867.2398,-1252.3182 870.4641,-1246.4144 865.7471,-1248.073 865.7471,-1248.073 865.7471,-1248.073 870.4641,-1246.4144 864.2545,-1243.8277 875.181,-1244.7559 875.181,-1244.7559"/>
</g>
<!-- Sport -->
<g id="node9" class="node">
<title>Sport</title>
<g id="a_node9"><a xlink:href="../sport.html" xlink:title="Спорт" target="_top">
<ellipse fill="none" stroke="#c0c0c0" stroke-width=".2" cx="488.8296" cy="-827.2671" rx="39.6962" ry="39.6962"/>
<text text-anchor="middle" x="488.8296" y="-832.2671" font-family="Times,serif" font-size="15.00" fill="#000000">Sport</text>
<text text-anchor="middle" x="488.8296" y="-815.2671" font-family="Times,serif" font-size="15.00" fill="#000000">Спорт</text>
</a>
</g>
</g>
<!-- Team&#45;&gt;Sport -->
<g id="edge10" class="edge">
<title>Team&#45;&gt;Sport</title>
<path fill="none" stroke="#000000" stroke-dasharray="5,2" d="M652.5719,-1267.9473C617.4761,-1173.4937 540.6044,-966.6087 506.1434,-873.8637"/>
<polygon fill="#000000" stroke="#000000" points="502.6478,-864.4561 510.3491,-872.2625 504.3894,-869.143 506.1309,-873.8299 506.1309,-873.8299 506.1309,-873.8299 504.3894,-869.143 501.9127,-875.3973 502.6478,-864.4561 502.6478,-864.4561"/>
</g>
<!-- Player&#45;&gt;Sport -->
<g id="edge15" class="edge">
<title>Player&#45;&gt;Sport</title>
<path fill="none" stroke="#000000" stroke-dasharray="5,2" d="M885.1712,-1197.3619C805.4148,-1122.8871 607.4143,-937.9988 525.3552,-861.3739"/>
<polygon fill="#000000" stroke="#000000" points="517.7838,-854.3039 528.164,-857.8398 521.4383,-857.7164 525.0928,-861.1288 525.0928,-861.1288 525.0928,-861.1288 521.4383,-857.7164 522.0215,-864.4179 517.7838,-854.3039 517.7838,-854.3039"/>
</g>
<!-- Goal -->
<g id="node11" class="node has&#45;pronunciation">
<title>Goal</title>
<g id="a_node11"><a xlink:href="../goal.html" xlink:title="Гол" target="_top">
<ellipse fill="none" stroke="#c0c0c0" stroke-width=".2" cx="1136.9681" cy="-999.2344" rx="52.1524" ry="52.1524"/>
<text text-anchor="middle" x="1136.9681" y="-1016.2344" font-family="Times,serif" font-size="20.00" fill="#000000">Goal</text>
<text text-anchor="middle" x="1136.9681" y="-994.2344" font-family="Times,serif" font-size="20.00" fill="#000000">Гол</text>
<text text-anchor="middle" x="1136.9681" y="-972.2344" font-family="Times,serif" font-size="20.00" fill="#000000">Гoул</text>
</a>
</g>
</g>
<!-- Player&#45;&gt;Goal -->
<g id="edge14" class="edge">
<title>Player&#45;&gt;Goal</title>
<path fill="none" stroke="#000000" stroke-dasharray="5,2" d="M951.4263,-1195.3019C989.098,-1155.4931 1051.7215,-1089.317 1093.6621,-1044.9971"/>
<polygon fill="#000000" stroke="#000000" points="1100.7246,-1037.534 1097.1197,-1047.8904 1097.2879,-1041.1657 1093.8511,-1044.7974 1093.8511,-1044.7974 1093.8511,-1044.7974 1097.2879,-1041.1657 1090.5826,-1041.7043 1100.7246,-1037.534 1100.7246,-1037.534"/>
</g>
<!-- Shot -->
<g id="node13" class="node has&#45;pronunciation">
<title>Shot</title>
<g id="a_node13"><a xlink:href="../shot.html" xlink:title="Бросок" target="_top">
<ellipse fill="none" stroke="#c0c0c0" stroke-width=".2" cx="1477.7532" cy="-1389.9551" rx="67.3507" ry="67.3507"/>
<text text-anchor="middle" x="1477.7532" y="-1411.9551" font-family="Times,serif" font-size="25.00" fill="#000000">Shot</text>
<text text-anchor="middle" x="1477.7532" y="-1383.9551" font-family="Times,serif" font-size="25.00" fill="#000000">Бросок</text>
<text text-anchor="middle" x="1477.7532" y="-1355.9551" font-family="Times,serif" font-size="25.00" fill="#000000">Шат</text>
</a>
</g>
</g>
<!-- Player&#45;&gt;Shot -->
<g id="edge20" class="edge">
<title>Player&#45;&gt;Shot</title>
<path fill="none" stroke="#000000" stroke-dasharray="5,2" d="M964.5368,-1242.2559C1060.636,-1269.9124 1285.9626,-1334.7594 1403.4823,-1368.5806"/>
<polygon fill="#000000" stroke="#000000" points="1413.1327,-1371.3579 1402.2782,-1372.9166 1408.3277,-1369.975 1403.5227,-1368.5922 1403.5227,-1368.5922 1403.5227,-1368.5922 1408.3277,-1369.975 1404.7673,-1364.2677 1413.1327,-1371.3579 1413.1327,-1371.3579"/>
</g>
<!-- Game -->
<g id="node20" class="node has&#45;pronunciation">
<title>Game</title>
<g id="a_node20"><a xlink:href="../game.html" xlink:title="Игра" target="_top">
<ellipse fill="none" stroke="#c0c0c0" stroke-width=".2" cx="569.2413" cy="-1986.4697" rx="52.1524" ry="52.1524"/>
<text text-anchor="middle" x="569.2413" y="-2003.4697" font-family="Times,serif" font-size="20.00" fill="#000000">Game</text>
<text text-anchor="middle" x="569.2413" y="-1981.4697" font-family="Times,serif" font-size="20.00" fill="#000000">Игра</text>
<text text-anchor="middle" x="569.2413" y="-1959.4697" font-family="Times,serif" font-size="20.00" fill="#000000">Гейм</text>
</a>
</g>
</g>
<!-- Player&#45;&gt;Game -->
<g id="edge35" class="edge">
<title>Player&#45;&gt;Game</title>
<path fill="none" stroke="#000000" stroke-dasharray="5,2" d="M899.6125,-1271.8477C840.2321,-1400.2928 662.9249,-1783.8239 595.5837,-1929.4887"/>
<polygon fill="#000000" stroke="#000000" points="591.3095,-1938.7342 591.4212,-1927.7689 593.4077,-1934.1957 595.5058,-1929.6572 595.5058,-1929.6572 595.5058,-1929.6572 593.4077,-1934.1957 599.5905,-1931.5456 591.3095,-1938.7342 591.3095,-1938.7342"/>
</g>
<!-- Rink -->
<g id="node3" class="node has&#45;pronunciation">
<title>Rink</title>
<g id="a_node3"><a xlink:href="../rink.html" xlink:title="Площадка" target="_top">
<ellipse fill="none" stroke="#c0c0c0" stroke-width=".2" cx="850.9248" cy="-3027.1738" rx="57.0522" ry="57.0522"/>
<text text-anchor="middle" x="850.9248" y="-3040.6738" font-family="Times,serif" font-size="15.00" fill="#000000">Rink</text>
<text text-anchor="middle" x="850.9248" y="-3023.6738" font-family="Times,serif" font-size="15.00" fill="#000000">Площадка</text>
<text text-anchor="middle" x="850.9248" y="-3006.6738" font-family="Times,serif" font-size="15.00" fill="#000000">Ринк</text>
</a>
</g>
</g>
<!-- Ice -->
<g id="node4" class="node has&#45;pronunciation">
<title>Ice</title>
<g id="a_node4"><a xlink:href="../ice.html" xlink:title="Лёд" target="_top">
<ellipse fill="none" stroke="#c0c0c0" stroke-width=".2" cx="1247.441" cy="-3292.9007" rx="41.9398" ry="41.9398"/>
<text text-anchor="middle" x="1247.441" y="-3306.4007" font-family="Times,serif" font-size="15.00" fill="#000000">Ice</text>
<text text-anchor="middle" x="1247.441" y="-3289.4007" font-family="Times,serif" font-size="15.00" fill="#000000">Лёд</text>
<text text-anchor="middle" x="1247.441" y="-3272.4007" font-family="Times,serif" font-size="15.00" fill="#000000">Айс</text>
</a>
</g>
</g>
<!-- Rink&#45;&gt;Ice -->
<g id="edge2" class="edge">
<title>Rink&#45;&gt;Ice</title>
<path fill="none" stroke="#000000" stroke-dasharray="5,2" d="M898.7539,-3059.2267C976.4426,-3111.29 1128.8909,-3213.4539 1203.7958,-3263.6517"/>
<polygon fill="#000000" stroke="#000000" points="1212.5359,-3269.5089 1201.7236,-3267.6801 1208.3824,-3266.7254 1204.2288,-3263.9419 1204.2288,-3263.9419 1204.2288,-3263.9419 1208.3824,-3266.7254 1206.734,-3260.2036 1212.5359,-3269.5089 1212.5359,-3269.5089"/>
</g>
<!-- Goal net -->
<g id="node5" class="node has&#45;pronunciation">
<title>Goal net</title>
<g id="a_node5"><a xlink:href="../goal-net.html" xlink:title="Ворота" target="_top">
<ellipse fill="none" stroke="#c0c0c0" stroke-width=".2" cx="1199.6576" cy="-2278.0648" rx="62.8651" ry="62.8651"/>
<text text-anchor="middle" x="1199.6576" y="-2295.0648" font-family="Times,serif" font-size="20.00" fill="#000000">Goal net</text>
<text text-anchor="middle" x="1199.6576" y="-2273.0648" font-family="Times,serif" font-size="20.00" fill="#000000">Ворота</text>
<text text-anchor="middle" x="1199.6576" y="-2251.0648" font-family="Times,serif" font-size="20.00" fill="#000000">Гoул нет</text>
</a>
</g>
</g>
<!-- Rink&#45;&gt;Goal net -->
<g id="edge3" class="edge">
<title>Rink&#45;&gt;Goal net</title>
<path fill="none" stroke="#000000" stroke-dasharray="5,2" d="M875.1702,-2975.0927C936.9503,-2842.3835 1100.2266,-2491.6514 1168.7223,-2344.5166"/>
<polygon fill="#000000" stroke="#000000" points="1173.0949,-2335.124 1172.954,-2346.089 1170.9846,-2339.6569 1168.8744,-2344.1898 1168.8744,-2344.1898 1168.8744,-2344.1898 1170.9846,-2339.6569 1164.7948,-2342.2906 1173.0949,-2335.124 1173.0949,-2335.124"/>
</g>
<!-- Opponent -->
<g id="node6" class="node has&#45;pronunciation">
<title>Opponent</title>
<g id="a_node6"><a xlink:href="../opponent.html" xlink:title="Противник" target="_top">
<ellipse fill="none" stroke="#c0c0c0" stroke-width=".2" cx="828.341" cy="-2352.6786" rx="60.623" ry="60.623"/>
<text text-anchor="middle" x="828.341" y="-2366.1786" font-family="Times,serif" font-size="15.00" fill="#000000">Opponent</text>
<text text-anchor="middle" x="828.341" y="-2349.1786" font-family="Times,serif" font-size="15.00" fill="#000000">Противник</text>
<text text-anchor="middle" x="828.341" y="-2332.1786" font-family="Times,serif" font-size="15.00" fill="#000000">Эˈпoунэнт</text>
</a>
</g>
</g>
<!-- Opponent&#45;&gt;Team -->
<g id="edge4" class="edge">
<title>Opponent&#45;&gt;Team</title>
<path fill="none" stroke="#000000" stroke-dasharray="5,2" d="M819.1825,-2292.4999C791.3653,-2109.7166 708.0527,-1562.2811 680.0052,-1377.9848"/>
<polygon fill="#000000" stroke="#000000" points="678.4744,-1367.9265 684.4278,-1377.1356 679.2267,-1372.8696 679.979,-1377.8127 679.979,-1377.8127 679.979,-1377.8127 679.2267,-1372.8696 675.5303,-1378.4898 678.4744,-1367.9265 678.4744,-1367.9265"/>
</g>
<!-- Opponent&#45;&gt;Player -->
<g id="edge5" class="edge">
<title>Opponent&#45;&gt;Player</title>
<path fill="none" stroke="#000000" stroke-dasharray="5,2" d="M833.2641,-2291.8793C849.2006,-2095.0688 899.2417,-1477.079 914.7089,-1286.0641"/>
<polygon fill="#000000" stroke="#000000" points="915.5271,-1275.9596 919.2052,-1286.2902 915.1235,-1280.9433 914.7199,-1285.927 914.7199,-1285.927 914.7199,-1285.927 915.1235,-1280.9433 910.2346,-1285.5638 915.5271,-1275.9596 915.5271,-1275.9596"/>
</g>
<!-- Opponent&#45;&gt;Goal net -->
<g id="edge9" class="edge">
<title>Opponent&#45;&gt;Goal net</title>
<path fill="none" stroke="#000000" stroke-dasharray="5,2" d="M887.9994,-2340.6906C953.2615,-2327.5766 1057.8527,-2306.5596 1127.6364,-2292.537"/>
<polygon fill="#000000" stroke="#000000" points="1137.6709,-2290.5206 1128.7534,-2296.9026 1132.7689,-2291.5057 1127.8669,-2292.4908 1127.8669,-2292.4908 1127.8669,-2292.4908 1132.7689,-2291.5057 1126.9803,-2288.079 1137.6709,-2290.5206 1137.6709,-2290.5206"/>
</g>
<!-- Stick -->
<g id="node7" class="node has&#45;pronunciation">
<title>Stick</title>
<g id="a_node7"><a xlink:href="../stick.html" xlink:title="Клюшка" target="_top">
<ellipse fill="none" stroke="#c0c0c0" stroke-width=".2" cx="1355.2974" cy="-863.1498" rx="48.5816" ry="48.5816"/>
<text text-anchor="middle" x="1355.2974" y="-876.6498" font-family="Times,serif" font-size="15.00" fill="#000000">Stick</text>
<text text-anchor="middle" x="1355.2974" y="-859.6498" font-family="Times,serif" font-size="15.00" fill="#000000">Клюшка</text>
<text text-anchor="middle" x="1355.2974" y="-842.6498" font-family="Times,serif" font-size="15.00" fill="#000000">Стик</text>
</a>
</g>
</g>
<!-- Puck -->
<g id="node8" class="node has&#45;pronunciation">
<title>Puck</title>
<g id="a_node8"><a xlink:href="../puck.html" xlink:title="Шайба" target="_top">
<ellipse fill="none" stroke="#c0c0c0" stroke-width=".2" cx="1364.9016" cy="-1998.3923" rx="52.1524" ry="52.1524"/>
<text text-anchor="middle" x="1364.9016" y="-2015.3923" font-family="Times,serif" font-size="20.00" fill="#000000">Puck</text>
<text text-anchor="middle" x="1364.9016" y="-1993.3923" font-family="Times,serif" font-size="20.00" fill="#000000">Шайба</text>
<text text-anchor="middle" x="1364.9016" y="-1971.3923" font-family="Times,serif" font-size="20.00" fill="#000000">Пак</text>
</a>
</g>
</g>
<!-- Stick&#45;&gt;Puck -->
<g id="edge6" class="edge">
<title>Stick&#45;&gt;Puck</title>
<path fill="none" stroke="#000000" stroke-dasharray="5,2" d="M1355.7131,-912.2941C1357.2561,-1094.6767 1362.6534,-1732.6513 1364.3719,-1935.7738"/>
<polygon fill="#000000" stroke="#000000" points="1364.4581,-1945.9698 1359.8736,-1936.0083 1364.4158,-1940.97 1364.3734,-1935.9702 1364.3734,-1935.9702 1364.3734,-1935.9702 1364.4158,-1940.97 1368.8733,-1935.9321 1364.4581,-1945.9698 1364.4581,-1945.9698"/>
</g>
<!-- Puck&#45;&gt;Ice -->
<g id="edge7" class="edge">
<title>Puck&#45;&gt;Ice</title>
<path fill="none" stroke="#000000" stroke-dasharray="5,2" d="M1360.1516,-2050.7419C1341.1899,-2259.7145 1271.0323,-3032.9052 1252.1481,-3241.0241"/>
<polygon fill="#000000" stroke="#000000" points="1251.236,-3251.0758 1247.6582,-3240.71 1251.6879,-3246.0962 1252.1398,-3241.1167 1252.1398,-3241.1167 1252.1398,-3241.1167 1251.6879,-3246.0962 1256.6214,-3241.5234 1251.236,-3251.0758 1251.236,-3251.0758"/>
</g>
<!-- Puck&#45;&gt;Goal net -->
<g id="edge8" class="edge">
<title>Puck&#45;&gt;Goal net</title>
<path fill="none" stroke="#000000" stroke-dasharray="5,2" d="M1338.1687,-2043.6374C1310.7101,-2090.1105 1267.7475,-2162.8239 1236.9521,-2214.9446"/>
<polygon fill="#000000" stroke="#000000" points="1231.735,-2223.7745 1232.9476,-2212.8759 1234.2784,-2219.4698 1236.8219,-2215.165 1236.8219,-2215.165 1236.8219,-2215.165 1234.2784,-2219.4698 1240.6962,-2217.4541 1231.735,-2223.7745 1231.735,-2223.7745"/>
</g>
<!-- Sport&#45;&gt;Game -->
<g id="edge34" class="edge">
<title>Sport&#45;&gt;Game</title>
<path fill="none" stroke="#000000" stroke-dasharray="5,2" d="M491.5743,-866.8342C503.4303,-1037.7487 550.3054,-1713.493 564.888,-1923.7129"/>
<polygon fill="#000000" stroke="#000000" points="565.5986,-1933.9569 560.4172,-1924.2923 565.2525,-1928.9689 564.9065,-1923.9809 564.9065,-1923.9809 564.9065,-1923.9809 565.2525,-1928.9689 569.3957,-1923.6694 565.5986,-1933.9569 565.5986,-1933.9569"/>
</g>
<!-- Score -->
<g id="node10" class="node has&#45;pronunciation">
<title>Score</title>
<g id="a_node10"><a xlink:href="../score.html" xlink:title="Счёт" target="_top">
<ellipse fill="none" stroke="#c0c0c0" stroke-width=".2" cx="623.6835" cy="-415.5468" rx="52.1524" ry="52.1524"/>
<text text-anchor="middle" x="623.6835" y="-432.5468" font-family="Times,serif" font-size="20.00" fill="#000000">Score</text>
<text text-anchor="middle" x="623.6835" y="-410.5468" font-family="Times,serif" font-size="20.00" fill="#000000">Счёт</text>
<text text-anchor="middle" x="623.6835" y="-388.5468" font-family="Times,serif" font-size="20.00" fill="#000000">Скор</text>
</a>
</g>
</g>
<!-- Score&#45;&gt;Goal -->
<g id="edge11" class="edge">
<title>Score&#45;&gt;Goal</title>
<path fill="none" stroke="#000000" stroke-dasharray="5,2" d="M658.5601,-455.2071C750.1153,-559.3203 997.0246,-840.096 1095.5483,-952.1335"/>
<polygon fill="#000000" stroke="#000000" points="1102.3814,-959.9039 1092.3985,-955.3661 1099.0796,-956.1491 1095.7777,-952.3944 1095.7777,-952.3944 1095.7777,-952.3944 1099.0796,-956.1491 1099.157,-949.4227 1102.3814,-959.9039 1102.3814,-959.9039"/>
</g>
<!-- Point -->
<g id="node12" class="node has&#45;pronunciation">
<title>Point</title>
<g id="a_node12"><a xlink:href="../point.html" xlink:title="Очко" target="_top">
<ellipse fill="none" stroke="#c0c0c0" stroke-width=".2" cx="887.0836" cy="-207.6933" rx="41.9398" ry="41.9398"/>
<text text-anchor="middle" x="887.0836" y="-221.1933" font-family="Times,serif" font-size="15.00" fill="#000000">Point</text>
<text text-anchor="middle" x="887.0836" y="-204.1933" font-family="Times,serif" font-size="15.00" fill="#000000">Очко</text>
<text text-anchor="middle" x="887.0836" y="-187.1933" font-family="Times,serif" font-size="15.00" fill="#000000">Пойнт</text>
</a>
</g>
</g>
<!-- Score&#45;&gt;Point -->
<g id="edge12" class="edge">
<title>Score&#45;&gt;Point</title>
<path fill="none" stroke="#000000" stroke-dasharray="5,2" d="M664.8397,-383.0697C714.3183,-344.0253 796.8435,-278.9032 846.2002,-239.955"/>
<polygon fill="#000000" stroke="#000000" points="854.1235,-233.7026 849.0609,-243.43 850.1984,-236.8 846.2733,-239.8974 846.2733,-239.8974 846.2733,-239.8974 850.1984,-236.8 843.4857,-236.3648 854.1235,-233.7026 854.1235,-233.7026"/>
</g>
<!-- Goal&#45;&gt;Goal net -->
<g id="edge19" class="edge">
<title>Goal&#45;&gt;Goal net</title>
<path fill="none" stroke="#000000" stroke-dasharray="5,2" d="M1139.5424,-1051.7503C1149.3897,-1252.6286 1184.6863,-1972.6594 1196.0824,-2205.1327"/>
<polygon fill="#000000" stroke="#000000" points="1196.5747,-2215.1742 1191.5903,-2205.4065 1196.3298,-2210.1802 1196.0849,-2205.1862 1196.0849,-2205.1862 1196.0849,-2205.1862 1196.3298,-2210.1802 1200.5795,-2204.9658 1196.5747,-2215.1742 1196.5747,-2215.1742"/>
</g>
<!-- Goal&#45;&gt;Puck -->
<g id="edge18" class="edge">
<title>Goal&#45;&gt;Puck</title>
<path fill="none" stroke="#000000" stroke-dasharray="5,2" d="M1148.6636,-1050.5025C1187.1094,-1219.0317 1309.4922,-1755.5026 1350.9873,-1937.398"/>
<polygon fill="#000000" stroke="#000000" points="1353.2529,-1947.3294 1346.6414,-1938.5807 1352.1408,-1942.4546 1351.0287,-1937.5798 1351.0287,-1937.5798 1351.0287,-1937.5798 1352.1408,-1942.4546 1355.416,-1936.5789 1353.2529,-1947.3294 1353.2529,-1947.3294"/>
</g>
<!-- Point&#45;&gt;Team -->
<g id="edge17" class="edge">
<title>Point&#45;&gt;Team</title>
<path fill="none" stroke="#000000" stroke-dasharray="5,2" d="M879.06,-248.8091C846.184,-417.2774 721.6694,-1055.335 682.5255,-1255.9228"/>
<polygon fill="#000000" stroke="#000000" points="680.562,-1265.9841 678.0608,-1255.3073 681.5198,-1261.0767 682.4775,-1256.1693 682.4775,-1256.1693 682.4775,-1256.1693 681.5198,-1261.0767 686.8941,-1257.0312 680.562,-1265.9841 680.562,-1265.9841"/>
</g>
<!-- Point&#45;&gt;Player -->
<g id="edge16" class="edge">
<title>Point&#45;&gt;Player</title>
<path fill="none" stroke="#000000" stroke-dasharray="5,2" d="M888.407,-249.6436C893.481,-410.4851 911.6993,-987.9844 917.5134,-1172.284"/>
<polygon fill="#000000" stroke="#000000" points="917.8296,-1182.3097 913.0165,-1172.4566 917.6719,-1177.3122 917.5142,-1172.3147 917.5142,-1172.3147 917.5142,-1172.3147 917.6719,-1177.3122 922.012,-1172.1728 917.8296,-1182.3097 917.8296,-1182.3097"/>
</g>
<!-- Point&#45;&gt;Goal -->
<g id="edge13" class="edge">
<title>Point&#45;&gt;Goal</title>
<path fill="none" stroke="#000000" stroke-dasharray="5,2" d="M899.6466,-247.4884C940.4418,-376.7122 1069.3703,-785.1097 1118.0824,-939.4116"/>
<polygon fill="#000000" stroke="#000000" points="1121.1732,-949.2021 1113.8714,-941.0207 1119.6679,-944.434 1118.1626,-939.666 1118.1626,-939.666 1118.1626,-939.666 1119.6679,-944.434 1122.4538,-938.3112 1121.1732,-949.2021 1121.1732,-949.2021"/>
</g>
<!-- Shot&#45;&gt;Goal net -->
<g id="edge24" class="edge">
<title>Shot&#45;&gt;Goal net</title>
<path fill="none" stroke="#000000" stroke-dasharray="5,2" d="M1457.6413,-1454.183C1406.9362,-1616.1122 1274.183,-2040.0648 1221.5814,-2208.0503"/>
<polygon fill="#000000" stroke="#000000" points="1218.5346,-2217.7805 1217.2285,-2206.8927 1220.0287,-2213.0089 1221.5229,-2208.2374 1221.5229,-2208.2374 1221.5229,-2208.2374 1220.0287,-2213.0089 1225.8173,-2209.5821 1218.5346,-2217.7805 1218.5346,-2217.7805"/>
</g>
<!-- Shot&#45;&gt;Stick -->
<g id="edge23" class="edge">
<title>Shot&#45;&gt;Stick</title>
<path fill="none" stroke="#000000" stroke-dasharray="5,2" d="M1462.4916,-1324.3C1438.3174,-1220.3021 1391.6141,-1019.3846 1368.6741,-920.6967"/>
<polygon fill="#000000" stroke="#000000" points="1366.3966,-910.8986 1373.0439,-919.62 1367.5287,-915.7688 1368.6608,-920.6389 1368.6608,-920.6389 1368.6608,-920.6389 1367.5287,-915.7688 1364.2777,-921.6578 1366.3966,-910.8986 1366.3966,-910.8986"/>
</g>
<!-- Shot&#45;&gt;Puck -->
<g id="edge22" class="edge">
<title>Shot&#45;&gt;Puck</title>
<path fill="none" stroke="#000000" stroke-dasharray="5,2" d="M1465.4612,-1456.2268C1443.4743,-1574.7692 1397.7182,-1821.4623 1376.3534,-1936.6502"/>
<polygon fill="#000000" stroke="#000000" points="1374.487,-1946.7132 1371.8862,-1936.0602 1375.3988,-1941.7971 1376.3107,-1936.8809 1376.3107,-1936.8809 1376.3107,-1936.8809 1375.3988,-1941.7971 1380.7353,-1937.7016 1374.487,-1946.7132 1374.487,-1946.7132"/>
</g>
<!-- Shot&#45;&gt;Goal -->
<g id="edge21" class="edge">
<title>Shot&#45;&gt;Goal</title>
<path fill="none" stroke="#000000" stroke-dasharray="5,2" d="M1433.5508,-1339.2758C1367.2604,-1263.2718 1242.9969,-1120.7998 1178.3786,-1046.7129"/>
<polygon fill="#000000" stroke="#000000" points="1171.5583,-1038.8933 1181.5228,-1043.4716 1174.8449,-1042.6614 1178.1315,-1046.4295 1178.1315,-1046.4295 1178.1315,-1046.4295 1174.8449,-1042.6614 1174.7401,-1049.3874 1171.5583,-1038.8933 1171.5583,-1038.8933"/>
</g>
<!-- Flip shot -->
<g id="node14" class="node has&#45;pronunciation">
<title>Flip shot</title>
<g id="a_node14"><a xlink:href="../flip-shot.html" xlink:title="Подкидка" target="_top">
<ellipse fill="none" stroke="#c0c0c0" stroke-width=".2" cx="1891.0968" cy="-878.0098" rx="55.7232" ry="55.7232"/>
<text text-anchor="middle" x="1891.0968" y="-891.5098" font-family="Times,serif" font-size="15.00" fill="#000000">Flip shot</text>
<text text-anchor="middle" x="1891.0968" y="-874.5098" font-family="Times,serif" font-size="15.00" fill="#000000">Подкидка</text>
<text text-anchor="middle" x="1891.0968" y="-857.5098" font-family="Times,serif" font-size="15.00" fill="#000000">Флип шат</text>
</a>
</g>
</g>
<!-- Shot&#45;&gt;Flip shot -->
<g id="edge25" class="edge">
<title>Shot&#45;&gt;Flip shot</title>
<path fill="none" stroke="#000000" stroke-dasharray="5,2" d="M1520.0457,-1337.5739C1599.5975,-1239.0452 1770.59,-1027.263 1849.5593,-929.4559"/>
<polygon fill="#000000" stroke="#000000" points="1855.9971,-921.4824 1853.2163,-932.0899 1852.8561,-925.3727 1849.7151,-929.263 1849.7151,-929.263 1849.7151,-929.263 1852.8561,-925.3727 1846.2138,-926.436 1855.9971,-921.4824 1855.9971,-921.4824"/>
</g>
<!-- Wrist shot -->
<g id="node15" class="node has&#45;pronunciation">
<title>Wrist shot</title>
<g id="a_node15"><a xlink:href="../wrist-shot.html" xlink:title="Кистевой" target="_top">
<ellipse fill="none" stroke="#c0c0c0" stroke-width=".2" cx="1903.8252" cy="-1366.7539" rx="56.6372" ry="56.6372"/>
<text text-anchor="middle" x="1903.8252" y="-1380.2539" font-family="Times,serif" font-size="15.00" fill="#000000">Wrist shot</text>
<text text-anchor="middle" x="1903.8252" y="-1363.2539" font-family="Times,serif" font-size="15.00" fill="#000000">Кистевой</text>
<text text-anchor="middle" x="1903.8252" y="-1346.2539" font-family="Times,serif" font-size="15.00" fill="#000000">Рист шат</text>
</a>
</g>
</g>
<!-- Shot&#45;&gt;Wrist shot -->
<g id="edge26" class="edge">
<title>Shot&#45;&gt;Wrist shot</title>
<path fill="none" stroke="#000000" stroke-dasharray="5,2" d="M1545.2655,-1386.2788C1625.0992,-1381.9316 1757.16,-1374.7404 1836.7864,-1370.4044"/>
<polygon fill="#000000" stroke="#000000" points="1847.1851,-1369.8382 1837.4446,-1374.8754 1842.1925,-1370.1101 1837.1999,-1370.382 1837.1999,-1370.382 1837.1999,-1370.382 1842.1925,-1370.1101 1836.9551,-1365.8887 1847.1851,-1369.8382 1847.1851,-1369.8382"/>
</g>
<!-- Slapshot -->
<g id="node16" class="node has&#45;pronunciation">
<title>Slapshot</title>
<g id="a_node16"><a xlink:href="../slapshot.html" xlink:title="Щелчок" target="_top">
<ellipse fill="none" stroke="#c0c0c0" stroke-width=".2" cx="1552.3112" cy="-50.9117" rx="50.8235" ry="50.8235"/>
<text text-anchor="middle" x="1552.3112" y="-64.4117" font-family="Times,serif" font-size="15.00" fill="#000000">Slapshot</text>
<text text-anchor="middle" x="1552.3112" y="-47.4117" font-family="Times,serif" font-size="15.00" fill="#000000">Щелчок</text>
<text text-anchor="middle" x="1552.3112" y="-30.4117" font-family="Times,serif" font-size="15.00" fill="#000000">Слэпшат</text>
</a>
</g>
</g>
<!-- Shot&#45;&gt;Slapshot -->
<g id="edge27" class="edge">
<title>Shot&#45;&gt;Slapshot</title>
<path fill="none" stroke="#000000" stroke-dasharray="5,2" d="M1481.5016,-1322.6341C1494.3642,-1091.6245 1536.5917,-333.2297 1548.9098,-112.0002"/>
<polygon fill="#000000" stroke="#000000" points="1549.4736,-101.8757 1553.4106,-112.1105 1549.1955,-106.868 1548.9175,-111.8603 1548.9175,-111.8603 1548.9175,-111.8603 1549.1955,-106.868 1544.4245,-111.61 1549.4736,-101.8757 1549.4736,-101.8757"/>
</g>
<!-- Snap shot -->
<g id="node17" class="node has&#45;pronunciation">
<title>Snap shot</title>
<g id="a_node17"><a xlink:href="../snap-shot.html" xlink:title="Короткий щелчок" target="_top">
<ellipse fill="none" stroke="#c0c0c0" stroke-width=".2" cx="1763.6603" cy="-494.7179" rx="91.8478" ry="91.8478"/>
<text text-anchor="middle" x="1763.6603" y="-508.2179" font-family="Times,serif" font-size="15.00" fill="#000000">Snap shot</text>
<text text-anchor="middle" x="1763.6603" y="-491.2179" font-family="Times,serif" font-size="15.00" fill="#000000">Короткий щелчок</text>
<text text-anchor="middle" x="1763.6603" y="-474.2179" font-family="Times,serif" font-size="15.00" fill="#000000">Снэп шат</text>
</a>
</g>
</g>
<!-- Shot&#45;&gt;Snap shot -->
<g id="edge28" class="edge">
<title>Shot&#45;&gt;Snap shot</title>
<path fill="none" stroke="#000000" stroke-dasharray="5,2" d="M1498.2002,-1325.9311C1547.6082,-1171.2239 1673.7426,-776.2698 1732.5725,-592.0606"/>
<polygon fill="#000000" stroke="#000000" points="1735.6649,-582.3777 1736.9092,-593.2727 1734.1437,-587.1407 1732.6225,-591.9037 1732.6225,-591.9037 1732.6225,-591.9037 1734.1437,-587.1407 1728.3358,-590.5346 1735.6649,-582.3777 1735.6649,-582.3777"/>
</g>
<!-- Backhand shot -->
<g id="node18" class="node has&#45;pronunciation">
<title>Backhand shot</title>
<g id="a_node18"><a xlink:href="../backhand-shot.html" xlink:title="С неудобной" target="_top">
<ellipse fill="none" stroke="#c0c0c0" stroke-width=".2" cx="1876.3228" cy="-2040.6667" rx="75.8212" ry="75.8212"/>
<text text-anchor="middle" x="1876.3228" y="-2054.1667" font-family="Times,serif" font-size="15.00" fill="#000000">Backhand shot</text>
<text text-anchor="middle" x="1876.3228" y="-2037.1667" font-family="Times,serif" font-size="15.00" fill="#000000">С неудобной</text>
<text text-anchor="middle" x="1876.3228" y="-2020.1667" font-family="Times,serif" font-size="15.00" fill="#000000">ˈБэкˌхэнд шат</text>
</a>
</g>
</g>
<!-- Shot&#45;&gt;Backhand shot -->
<g id="edge31" class="edge">
<title>Shot&#45;&gt;Backhand shot</title>
<path fill="none" stroke="#000000" stroke-dasharray="5,2" d="M1512.9487,-1447.416C1585.3821,-1565.6721 1751.0388,-1836.126 1831.2095,-1967.014"/>
<polygon fill="#000000" stroke="#000000" points="1836.5982,-1975.8116 1827.5375,-1969.6346 1833.9865,-1971.5479 1831.3749,-1967.2841 1831.3749,-1967.2841 1831.3749,-1967.2841 1833.9865,-1971.5479 1835.2123,-1964.9337 1836.5982,-1975.8116 1836.5982,-1975.8116"/>
</g>
<!-- One&#45;timer -->
<g id="node19" class="node has&#45;pronunciation">
<title>One&#45;timer</title>
<g id="a_node19"><a xlink:href="../one-timer.html" xlink:title="В одно касание" target="_top">
<ellipse fill="none" stroke="#c0c0c0" stroke-width=".2" cx="1735.035" cy="-2513.6119" rx="79.8063" ry="79.8063"/>
<text text-anchor="middle" x="1735.035" y="-2527.1119" font-family="Times,serif" font-size="15.00" fill="#000000">One&#45;timer</text>
<text text-anchor="middle" x="1735.035" y="-2510.1119" font-family="Times,serif" font-size="15.00" fill="#000000">В одно касание</text>
<text text-anchor="middle" x="1735.035" y="-2493.1119" font-family="Times,serif" font-size="15.00" fill="#000000">Уан&#45;ˈтаймэр</text>
</a>
</g>
</g>
<!-- Shot&#45;&gt;One&#45;timer -->
<g id="edge33" class="edge">
<title>Shot&#45;&gt;One&#45;timer</title>
<path fill="none" stroke="#000000" stroke-dasharray="5,2" d="M1492.7922,-1455.6367C1536.7481,-1647.6104 1665.0384,-2207.9074 1714.8928,-2425.6426"/>
<polygon fill="#000000" stroke="#000000" points="1717.1353,-2435.4366 1710.5169,-2426.6932 1716.0193,-2430.5627 1714.9033,-2425.6888 1714.9033,-2425.6888 1714.9033,-2425.6888 1716.0193,-2430.5627 1719.2898,-2424.6844 1717.1353,-2435.4366 1717.1353,-2435.4366"/>
</g>
<!-- Snap shot&#45;&gt;Wrist shot -->
<g id="edge29" class="edge">
<title>Snap shot&#45;&gt;Wrist shot</title>
<path fill="none" stroke="#000000" stroke-dasharray="5,2" d="M1778.2637,-585.5732C1806.5715,-761.6899 1868.3067,-1145.7758 1893.1519,-1300.3503"/>
<polygon fill="#000000" stroke="#000000" points="1894.8053,-1310.6365 1888.7753,-1301.4773 1894.0117,-1305.6998 1893.2182,-1300.7632 1893.2182,-1300.7632 1893.2182,-1300.7632 1894.0117,-1305.6998 1897.6612,-1300.049 1894.8053,-1310.6365 1894.8053,-1310.6365"/>
</g>
<!-- Snap shot&#45;&gt;Slapshot -->
<g id="edge30" class="edge">
<title>Snap shot&#45;&gt;Slapshot</title>
<path fill="none" stroke="#000000" stroke-dasharray="5,2" d="M1724.0312,-411.5018C1681.4765,-322.1424 1615.0716,-182.7005 1578.5623,-106.0357"/>
<polygon fill="#000000" stroke="#000000" points="1574.2618,-97.0051 1582.6242,-104.0988 1576.4116,-101.5194 1578.5614,-106.0336 1578.5614,-106.0336 1578.5614,-106.0336 1576.4116,-101.5194 1574.4986,-107.9684 1574.2618,-97.0051 1574.2618,-97.0051"/>
</g>
<!-- Backhand shot&#45;&gt;Wrist shot -->
<g id="edge32" class="edge">
<title>Backhand shot&#45;&gt;Wrist shot</title>
<path fill="none" stroke="#000000" stroke-dasharray="5,2" d="M1879.4109,-1964.9964C1884.8226,-1832.3883 1895.9336,-1560.1273 1901.0876,-1433.8351"/>
<polygon fill="#000000" stroke="#000000" points="1901.5079,-1423.5364 1905.5963,-1433.7116 1901.304,-1428.5322 1901.1,-1433.528 1901.1,-1433.528 1901.1,-1433.528 1901.304,-1428.5322 1896.6038,-1433.3445 1901.5079,-1423.5364 1901.5079,-1423.5364"/>
</g>
<!-- Game&#45;&gt;Team -->
<g id="edge37" class="edge">
<title>Game&#45;&gt;Team</title>
<path fill="none" stroke="#000000" stroke-dasharray="5,2" d="M577.116,-1934.4683C595.5835,-1812.5169 641.6094,-1508.5822 661.3934,-1377.9371"/>
<polygon fill="#000000" stroke="#000000" points="662.9419,-1367.7114 665.8938,-1378.2724 662.1932,-1372.655 661.4446,-1377.5986 661.4446,-1377.5986 661.4446,-1377.5986 662.1932,-1372.655 656.9953,-1376.9248 662.9419,-1367.7114 662.9419,-1367.7114"/>
</g>
<!-- Game&#45;&gt;Rink -->
<g id="edge38" class="edge">
<title>Game&#45;&gt;Rink</title>
<path fill="none" stroke="#000000" stroke-dasharray="5,2" d="M582.9227,-2037.0167C629.4079,-2208.7605 781.2703,-2769.8293 833.2713,-2961.9513"/>
<polygon fill="#000000" stroke="#000000" points="835.8921,-2971.634 828.9356,-2963.1571 834.5857,-2966.8077 833.2794,-2961.9813 833.2794,-2961.9813 833.2794,-2961.9813 834.5857,-2966.8077 837.6231,-2960.8056 835.8921,-2971.634 835.8921,-2971.634"/>
</g>
<!-- Period -->
<g id="node22" class="node has&#45;pronunciation">
<title>Period</title>
<g id="a_node22"><a xlink:href="../period.html" xlink:title="Период" target="_top">
<ellipse fill="none" stroke="#c0c0c0" stroke-width=".2" cx="48.0833" cy="-1687.7877" rx="48.1667" ry="48.1667"/>
<text text-anchor="middle" x="48.0833" y="-1701.2877" font-family="Times,serif" font-size="15.00" fill="#000000">Period</text>
<text text-anchor="middle" x="48.0833" y="-1684.2877" font-family="Times,serif" font-size="15.00" fill="#000000">Период</text>
<text text-anchor="middle" x="48.0833" y="-1667.2877" font-family="Times,serif" font-size="15.00" fill="#000000">ˈПириэд</text>
</a>
</g>
</g>
<!-- Game&#45;&gt;Period -->
<g id="edge39" class="edge">
<title>Game&#45;&gt;Period</title>
<path fill="none" stroke="#000000" stroke-dasharray="5,2" d="M523.4487,-1960.2254C426.2829,-1904.5385 200.0912,-1774.9053 98.7606,-1716.8315"/>
<polygon fill="#000000" stroke="#000000" points="89.934,-1711.7728 100.8477,-1712.841 94.272,-1714.259 98.6101,-1716.7453 98.6101,-1716.7453 98.6101,-1716.7453 94.272,-1714.259 96.3725,-1720.6495 89.934,-1711.7728 89.934,-1711.7728"/>
</g>
<!-- Overtime -->
<g id="node23" class="node has&#45;pronunciation">
<title>Overtime</title>
<g id="a_node23"><a xlink:href="../overtime.html" xlink:title="Овертайм" target="_top">
<ellipse fill="none" stroke="#c0c0c0" stroke-width=".2" cx="153.0489" cy="-2308.6214" rx="67.3507" ry="67.3507"/>
<text text-anchor="middle" x="153.0489" y="-2322.1214" font-family="Times,serif" font-size="15.00" fill="#000000">Overtime</text>
<text text-anchor="middle" x="153.0489" y="-2305.1214" font-family="Times,serif" font-size="15.00" fill="#000000">Овертайм</text>
<text text-anchor="middle" x="153.0489" y="-2288.1214" font-family="Times,serif" font-size="15.00" fill="#000000">ˈОувэрˌтайм</text>
</a>
</g>
</g>
<!-- Game&#45;&gt;Overtime -->
<g id="edge40" class="edge">
<title>Game&#45;&gt;Overtime</title>
<path fill="none" stroke="#000000" stroke-dasharray="5,2" d="M527.8136,-2018.5366C454.2158,-2075.5046 300.3494,-2194.6042 214.4233,-2261.1148"/>
<polygon fill="#000000" stroke="#000000" points="206.325,-2267.3833 211.4783,-2257.7038 210.2789,-2264.3228 214.2328,-2261.2623 214.2328,-2261.2623 214.2328,-2261.2623 210.2789,-2264.3228 216.9873,-2264.8208 206.325,-2267.3833 206.325,-2267.3833"/>
</g>
<!-- Shootout -->
<g id="node24" class="node has&#45;pronunciation">
<title>Shootout</title>
<g id="a_node24"><a xlink:href="../shootout.html" xlink:title="Буллиты" target="_top">
<ellipse fill="none" stroke="#c0c0c0" stroke-width=".2" cx="302.9903" cy="-2728.5064" rx="50.8235" ry="50.8235"/>
<text text-anchor="middle" x="302.9903" y="-2742.0064" font-family="Times,serif" font-size="15.00" fill="#000000">Shootout</text>
<text text-anchor="middle" x="302.9903" y="-2725.0064" font-family="Times,serif" font-size="15.00" fill="#000000">Буллиты</text>
<text text-anchor="middle" x="302.9903" y="-2708.0064" font-family="Times,serif" font-size="15.00" fill="#000000">ˈШутaут</text>
</a>
</g>
</g>
<!-- Game&#45;&gt;Shootout -->
<g id="edge42" class="edge">
<title>Game&#45;&gt;Shootout</title>
<path fill="none" stroke="#000000" stroke-dasharray="5,2" d="M551.5656,-2035.7314C504.2118,-2167.7058 374.6482,-2528.7971 323.8332,-2670.4176"/>
<polygon fill="#000000" stroke="#000000" points="320.3129,-2680.2288 319.4546,-2669.2966 322.0015,-2675.5226 323.6902,-2670.8164 323.6902,-2670.8164 323.6902,-2670.8164 322.0015,-2675.5226 327.9258,-2672.3362 320.3129,-2680.2288 320.3129,-2680.2288"/>
</g>
<!-- Hockey -->
<g id="node21" class="node root has&#45;pronunciation">
<title>Hockey</title>
<g id="a_node21"><a xlink:href="../hockey.html" xlink:title="Хоккей" target="_top">
<ellipse fill="none" stroke="#c0c0c0" stroke-width=".2" cx="1058.0407" cy="-1677.6104" rx="45.011" ry="45.011"/>
<text text-anchor="middle" x="1058.0407" y="-1691.1104" font-family="Times,serif" font-size="15.00" fill="#000000">Hockey</text>
<text text-anchor="middle" x="1058.0407" y="-1674.1104" font-family="Times,serif" font-size="15.00" fill="#000000">Хоккей</text>
<text text-anchor="middle" x="1058.0407" y="-1657.1104" font-family="Times,serif" font-size="15.00" fill="#000000">ˈХаки</text>
</a>
</g>
</g>
<!-- Hockey&#45;&gt;Team -->
<g id="edge48" class="edge">
<title>Hockey&#45;&gt;Team</title>
<path fill="none" stroke="#000000" stroke-dasharray="5,2" d="M1024.6786,-1646.5237C955.1653,-1581.7513 794.7522,-1432.2787 715.9816,-1358.8804"/>
<polygon fill="#000000" stroke="#000000" points="708.6193,-1352.0202 719.0032,-1355.5451 712.2773,-1355.4288 715.9354,-1358.8374 715.9354,-1358.8374 715.9354,-1358.8374 712.2773,-1355.4288 712.8677,-1362.1297 708.6193,-1352.0202 708.6193,-1352.0202"/>
</g>
<!-- Hockey&#45;&gt;Player -->
<g id="edge50" class="edge">
<title>Hockey&#45;&gt;Player</title>
<path fill="none" stroke="#000000" stroke-dasharray="5,2" d="M1044.6125,-1634.2114C1019.1818,-1552.0206 964.0494,-1373.8352 936.1734,-1283.7412"/>
<polygon fill="#000000" stroke="#000000" points="933.1563,-1273.9901 940.4111,-1282.2131 934.6342,-1278.7667 936.1122,-1283.5433 936.1122,-1283.5433 936.1122,-1283.5433 934.6342,-1278.7667 931.8133,-1284.8735 933.1563,-1273.9901 933.1563,-1273.9901"/>
</g>
<!-- Hockey&#45;&gt;Goal net -->
<g id="edge53" class="edge">
<title>Hockey&#45;&gt;Goal net</title>
<path fill="none" stroke="#000000" stroke-dasharray="5,2" d="M1068.4541,-1721.7632C1092.709,-1824.6039 1153.1521,-2080.882 1182.7659,-2206.4441"/>
<polygon fill="#000000" stroke="#000000" points="1185.1027,-2216.352 1178.4273,-2207.652 1183.9549,-2211.4855 1182.8071,-2206.619 1182.8071,-2206.619 1182.8071,-2206.619 1183.9549,-2211.4855 1187.1869,-2205.586 1185.1027,-2216.352 1185.1027,-2216.352"/>
</g>
<!-- Hockey&#45;&gt;Stick -->
<g id="edge51" class="edge">
<title>Hockey&#45;&gt;Stick</title>
<path fill="none" stroke="#000000" stroke-dasharray="5,2" d="M1073.6039,-1634.9682C1123.4292,-1498.4508 1279.0153,-1072.1567 1334.9843,-918.8061"/>
<polygon fill="#000000" stroke="#000000" points="1338.5246,-909.1059 1339.3233,-920.0427 1336.8103,-913.8028 1335.096,-918.4998 1335.096,-918.4998 1335.096,-918.4998 1336.8103,-913.8028 1330.8688,-916.9569 1338.5246,-909.1059 1338.5246,-909.1059"/>
</g>
<!-- Hockey&#45;&gt;Puck -->
<g id="edge52" class="edge">
<title>Hockey&#45;&gt;Puck</title>
<path fill="none" stroke="#000000" stroke-dasharray="5,2" d="M1089.4381,-1710.4322C1144.594,-1768.0903 1258.9597,-1887.6443 1321.588,-1953.1138"/>
<polygon fill="#000000" stroke="#000000" points="1328.5921,-1960.4356 1318.4278,-1956.3201 1325.1359,-1956.8226 1321.6796,-1953.2095 1321.6796,-1953.2095 1321.6796,-1953.2095 1325.1359,-1956.8226 1324.9313,-1950.0988 1328.5921,-1960.4356 1328.5921,-1960.4356"/>
</g>
<!-- Hockey&#45;&gt;Goal -->
<g id="edge54" class="edge">
<title>Hockey&#45;&gt;Goal</title>
<path fill="none" stroke="#000000" stroke-dasharray="5,2" d="M1063.2804,-1632.5749C1076.9879,-1514.7599 1113.9331,-1197.2188 1129.6887,-1061.8002"/>
<polygon fill="#000000" stroke="#000000" points="1130.8762,-1051.5939 1134.1902,-1062.047 1130.2983,-1056.5604 1129.7204,-1061.5269 1129.7204,-1061.5269 1129.7204,-1061.5269 1130.2983,-1056.5604 1125.2505,-1061.0068 1130.8762,-1051.5939 1130.8762,-1051.5939"/>
</g>
<!-- Hockey&#45;&gt;Shot -->
<g id="edge49" class="edge">
<title>Hockey&#45;&gt;Shot</title>
<path fill="none" stroke="#000000" stroke-dasharray="5,2" d="M1095.6567,-1651.8298C1167.4851,-1602.6013 1324.9021,-1494.7135 1413.6385,-1433.8969"/>
<polygon fill="#000000" stroke="#000000" points="1422.0063,-1428.1619 1416.3016,-1437.5272 1417.882,-1430.9886 1413.7576,-1433.8153 1413.7576,-1433.8153 1413.7576,-1433.8153 1417.882,-1430.9886 1411.2136,-1430.1034 1422.0063,-1428.1619 1422.0063,-1428.1619"/>
</g>
<!-- Hockey&#45;&gt;Game -->
<g id="edge36" class="edge">
<title>Hockey&#45;&gt;Game</title>
<path fill="none" stroke="#000000" stroke-dasharray="5,2" d="M1019.6854,-1701.8461C932.9548,-1756.6488 721.5991,-1890.1988 622.357,-1952.9073"/>
<polygon fill="#000000" stroke="#000000" points="613.6841,-1958.3874 619.7341,-1949.2415 617.911,-1955.7165 622.1379,-1953.0457 622.1379,-1953.0457 622.1379,-1953.0457 617.911,-1955.7165 624.5417,-1956.8499 613.6841,-1958.3874 613.6841,-1958.3874"/>
</g>
<!-- Overtime&#45;&gt;Period -->
<g id="edge41" class="edge">
<title>Overtime&#45;&gt;Period</title>
<path fill="none" stroke="#000000" stroke-dasharray="5,2" d="M141.8157,-2242.1814C121.1266,-2119.8126 77.3341,-1860.7961 57.8203,-1745.3785"/>
<polygon fill="#000000" stroke="#000000" points="56.1211,-1735.3284 62.2252,-1744.4382 56.9546,-1740.2584 57.7882,-1745.1884 57.7882,-1745.1884 57.7882,-1745.1884 56.9546,-1740.2584 53.3512,-1745.9387 56.1211,-1735.3284 56.1211,-1735.3284"/>
</g>
<!-- Winner -->
<g id="node25" class="node has&#45;pronunciation">
<title>Winner</title>
<g id="a_node25"><a xlink:href="../winner.html" xlink:title="Победитель" target="_top">
<ellipse fill="none" stroke="#c0c0c0" stroke-width=".2" cx="287.4602" cy="-1452.012" rx="65.1077" ry="65.1077"/>
<text text-anchor="middle" x="287.4602" y="-1465.512" font-family="Times,serif" font-size="15.00" fill="#000000">Winner</text>
<text text-anchor="middle" x="287.4602" y="-1448.512" font-family="Times,serif" font-size="15.00" fill="#000000">Победитель</text>
<text text-anchor="middle" x="287.4602" y="-1431.512" font-family="Times,serif" font-size="15.00" fill="#000000">ˈУинэр</text>
</a>
</g>
</g>
<!-- Overtime&#45;&gt;Winner -->
<g id="edge46" class="edge">
<title>Overtime&#45;&gt;Winner</title>
<path fill="none" stroke="#000000" stroke-dasharray="5,2" d="M163.4841,-2242.1175C188.1488,-2084.928 249.9094,-1691.3247 275.7764,-1526.4734"/>
<polygon fill="#000000" stroke="#000000" points="277.3533,-1516.4239 280.2486,-1527.0007 276.5781,-1521.3635 275.803,-1526.3031 275.803,-1526.3031 275.803,-1526.3031 276.5781,-1521.3635 271.3574,-1525.6055 277.3533,-1516.4239 277.3533,-1516.4239"/>
</g>
<!-- Shootout&#45;&gt;Winner -->
<g id="edge47" class="edge">
<title>Shootout&#45;&gt;Winner</title>
<path fill="none" stroke="#000000" stroke-dasharray="5,2" d="M302.3671,-2677.2826C299.9573,-2479.203 291.241,-1762.7772 288.3783,-1527.4731"/>
<polygon fill="#000000" stroke="#000000" points="288.2545,-1517.3012 292.8759,-1527.2456 288.3154,-1522.3008 288.3763,-1527.3004 288.3763,-1527.3004 288.3763,-1527.3004 288.3154,-1522.3008 283.8766,-1527.3552 288.2545,-1517.3012 288.2545,-1517.3012"/>
</g>
<!-- Winner&#45;&gt;Team -->
<g id="edge45" class="edge">
<title>Winner&#45;&gt;Team</title>
<path fill="none" stroke="#000000" stroke-dasharray="5,2" d="M349.0299,-1430.2656C421.4715,-1404.6792 540.8671,-1362.5088 612.0196,-1337.3777"/>
<polygon fill="#000000" stroke="#000000" points="621.7294,-1333.9482 613.799,-1341.5218 617.0148,-1335.6134 612.3003,-1337.2786 612.3003,-1337.2786 612.3003,-1337.2786 617.0148,-1335.6134 610.8016,-1333.0355 621.7294,-1333.9482 621.7294,-1333.9482"/>
</g>
<!-- Winner&#45;&gt;Score -->
<g id="edge44" class="edge">
<title>Winner&#45;&gt;Score</title>
<path fill="none" stroke="#000000" stroke-dasharray="5,2" d="M314.0497,-1392.3431C362.2599,-1282.4226 465.1067,-1039.7619 530.0258,-827.6541 567.4525,-705.3715 597.3304,-558.5687 612.5897,-477.3179"/>
<polygon fill="#000000" stroke="#000000" points="614.4668,-467.2595 617.0558,-477.9153 613.5495,-472.1746 612.6322,-477.0898 612.6322,-477.0898 612.6322,-477.0898 613.5495,-472.1746 608.2086,-476.2642 614.4668,-467.2595 614.4668,-467.2595"/>
</g>
<!-- Winner&#45;&gt;Game -->
<g id="edge43" class="edge">
<title>Winner&#45;&gt;Game</title>
<path fill="none" stroke="#000000" stroke-dasharray="5,2" d="M317.8834,-1509.7161C372.4488,-1613.2109 486.2558,-1829.07 539.9728,-1930.9557"/>
<polygon fill="#000000" stroke="#000000" points="544.669,-1939.8631 536.0245,-1933.116 542.3371,-1935.4402 540.0052,-1931.0173 540.0052,-1931.0173 540.0052,-1931.0173 542.3371,-1935.4402 543.9858,-1928.9185 544.669,-1939.8631 544.669,-1939.8631"/>
</g>
</g>
</svg>
