<?xml version="1.0" encoding="UTF-8" standalone="no"?>
<?xml-stylesheet href="../static/svg.css" type="text/css"?>
<!DOCTYPE svg PUBLIC "-//W3C//DTD SVG 1.1//EN"
 "http://www.w3.org/Graphics/SVG/1.1/DTD/svg11.dtd">
<!-- Generated by graphviz version 2.40.1 (20161225.0304)
 -->
<!-- Title: term Pages: 1 -->
<svg width="368pt" height="557pt"
 viewBox="0.00 0.00 368.00 557.27" xmlns="http://www.w3.org/2000/svg" xmlns:xlink="http://www.w3.org/1999/xlink">
<g id="graph0" class="graph" transform="scale(1 1) rotate(0) translate(4 553.2686)">
<title>term</title>
<!-- Stick -->
<g id="node1" class="node root has&#45;pronunciation">
<title>Stick</title>
<g id="a_node1"><a xlink:href="javascript:history.back()" xlink:title="Клюшка" target="_top">
<ellipse fill="none" stroke="#c0c0c0" stroke-width=".2" cx="48.7904" cy="-232.2011" rx="48.5816" ry="48.5816"/>
<text text-anchor="middle" x="48.7904" y="-245.7011" font-family="Times,serif" font-size="15.00" fill="#000000">Stick</text>
<text text-anchor="middle" x="48.7904" y="-228.7011" font-family="Times,serif" font-size="15.00" fill="#000000">Клюшка</text>
<text text-anchor="middle" x="48.7904" y="-211.7011" font-family="Times,serif" font-size="15.00" fill="#000000">Стик</text>
</a>
</g>
</g>
<!-- Puck -->
<g id="node4" class="node has&#45;pronunciation">
<title>Puck</title>
<g id="a_node4"><a xlink:href="../puck.html" xlink:title="Шайба" target="_top">
<ellipse fill="none" stroke="#c0c0c0" stroke-width=".2" cx="152.5968" cy="-484.2148" rx="65.1077" ry="65.1077"/>
<text text-anchor="middle" x="152.5968" y="-506.2148" font-family="Times,serif" font-size="25.00" fill="#000000">Puck</text>
<text text-anchor="middle" x="152.5968" y="-478.2148" font-family="Times,serif" font-size="25.00" fill="#000000">Шайба</text>
<text text-anchor="middle" x="152.5968" y="-450.2148" font-family="Times,serif" font-size="25.00" fill="#000000">Пак</text>
</a>
</g>
</g>
<!-- Stick&#45;&gt;Puck -->
<g id="edge6" class="edge">
<title>Stick&#45;&gt;Puck</title>
<path fill="none" stroke="#000000" stroke-dasharray="5,2" d="M67.4688,-277.5472C83.1851,-315.7022 105.913,-370.8794 123.9321,-414.6247"/>
<polygon fill="#000000" stroke="#000000" points="127.8178,-424.0583 119.8483,-416.5259 125.9135,-419.4351 124.0091,-414.812 124.0091,-414.812 124.0091,-414.812 125.9135,-419.4351 128.17,-413.098 127.8178,-424.0583 127.8178,-424.0583"/>
</g>
<!-- Shot -->
<g id="node2" class="node has&#45;pronunciation">
<title>Shot</title>
<g id="a_node2"><a xlink:href="../shot.html" xlink:title="Бросок" target="_top">
<ellipse fill="none" stroke="#c0c0c0" stroke-width=".2" cx="292.8257" cy="-297.1216" rx="67.3507" ry="67.3507"/>
<text text-anchor="middle" x="292.8257" y="-319.1216" font-family="Times,serif" font-size="25.00" fill="#000000">Shot</text>
<text text-anchor="middle" x="292.8257" y="-291.1216" font-family="Times,serif" font-size="25.00" fill="#000000">Бросок</text>
<text text-anchor="middle" x="292.8257" y="-263.1216" font-family="Times,serif" font-size="25.00" fill="#000000">Шат</text>
</a>
</g>
</g>
<!-- Shot&#45;&gt;Stick -->
<g id="edge4" class="edge">
<title>Shot&#45;&gt;Stick</title>
<path fill="none" stroke="#000000" stroke-dasharray="5,2" d="M227.7493,-279.8094C189.9344,-269.7495 142.7137,-257.1875 106.2743,-247.4935"/>
<polygon fill="#000000" stroke="#000000" points="96.2992,-244.8398 107.12,-243.062 101.1311,-246.1253 105.9631,-247.4108 105.9631,-247.4108 105.9631,-247.4108 101.1311,-246.1253 104.8062,-251.7595 96.2992,-244.8398 96.2992,-244.8398"/>
</g>
<!-- Shot&#45;&gt;Puck -->
<g id="edge1" class="edge">
<title>Shot&#45;&gt;Puck</title>
<path fill="none" stroke="#000000" stroke-dasharray="5,2" d="M252.4538,-350.9857C235.3728,-373.7752 215.4008,-400.4217 197.8259,-423.8702"/>
<polygon fill="#000000" stroke="#000000" points="191.718,-432.0192 194.1148,-421.3184 194.7168,-428.0183 197.7156,-424.0173 197.7156,-424.0173 197.7156,-424.0173 194.7168,-428.0183 201.3164,-426.7162 191.718,-432.0192 191.718,-432.0192"/>
</g>
<!-- Hockey -->
<g id="node3" class="node has&#45;pronunciation">
<title>Hockey</title>
<g id="a_node3"><a xlink:href="../hockey.html" xlink:title="Хоккей" target="_top">
<ellipse fill="none" stroke="#c0c0c0" stroke-width=".2" cx="188.7644" cy="-45.2548" rx="45.011" ry="45.011"/>
<text text-anchor="middle" x="188.7644" y="-58.7548" font-family="Times,serif" font-size="15.00" fill="#000000">Hockey</text>
<text text-anchor="middle" x="188.7644" y="-41.7548" font-family="Times,serif" font-size="15.00" fill="#000000">Хоккей</text>
<text text-anchor="middle" x="188.7644" y="-24.7548" font-family="Times,serif" font-size="15.00" fill="#000000">ˈХаки</text>
</a>
</g>
</g>
<!-- Hockey&#45;&gt;Stick -->
<g id="edge5" class="edge">
<title>Hockey&#45;&gt;Stick</title>
<path fill="none" stroke="#000000" stroke-dasharray="5,2" d="M161.4437,-81.7438C139.4604,-111.1041 108.3954,-152.5939 84.4532,-184.5707"/>
<polygon fill="#000000" stroke="#000000" points="78.2168,-192.8998 80.6082,-182.1978 81.2136,-188.8974 84.2104,-184.8949 84.2104,-184.8949 84.2104,-184.8949 81.2136,-188.8974 87.8126,-187.592 78.2168,-192.8998 78.2168,-192.8998"/>
</g>
<!-- Hockey&#45;&gt;Shot -->
<g id="edge2" class="edge">
<title>Hockey&#45;&gt;Shot</title>
<path fill="none" stroke="#000000" stroke-dasharray="5,2" d="M206.0648,-87.1282C221.604,-124.7389 244.7494,-180.759 263.2267,-225.4811"/>
<polygon fill="#000000" stroke="#000000" points="267.0943,-234.8421 259.1168,-227.3183 265.1851,-230.221 263.2758,-225.5999 263.2758,-225.5999 263.2758,-225.5999 265.1851,-230.221 267.4348,-223.8815 267.0943,-234.8421 267.0943,-234.8421"/>
</g>
<!-- Hockey&#45;&gt;Puck -->
<g id="edge3" class="edge">
<title>Hockey&#45;&gt;Puck</title>
<path fill="none" stroke="#000000" stroke-dasharray="5,2" d="M185.03,-90.5779C178.8196,-165.9531 166.3074,-317.8112 158.7691,-409.3027"/>
<polygon fill="#000000" stroke="#000000" points="157.9428,-419.3304 154.2793,-408.9946 158.3535,-414.3472 158.7641,-409.3641 158.7641,-409.3641 158.7641,-409.3641 158.3535,-414.3472 163.2489,-409.7337 157.9428,-419.3304 157.9428,-419.3304"/>
</g>
</g>
</svg>
