<?xml version="1.0" encoding="UTF-8" standalone="no"?>
<?xml-stylesheet href="../static/svg.css" type="text/css"?>
<!DOCTYPE svg PUBLIC "-//W3C//DTD SVG 1.1//EN"
 "http://www.w3.org/Graphics/SVG/1.1/DTD/svg11.dtd">
<!-- Generated by graphviz version 2.40.1 (20161225.0304)
 -->
<!-- Title: term Pages: 1 -->
<svg width="275pt" height="457pt"
 viewBox="0.00 0.00 275.09 456.88" xmlns="http://www.w3.org/2000/svg" xmlns:xlink="http://www.w3.org/1999/xlink">
<g id="graph0" class="graph" transform="scale(1 1) rotate(0) translate(4 452.8821)">
<title>term</title>
<!-- Point -->
<g id="node1" class="node root has&#45;pronunciation">
<title>Point</title>
<g id="a_node1"><a xlink:href="javascript:history.back()" xlink:title="Очко" target="_top">
<ellipse fill="none" stroke="#c0c0c0" stroke-width=".2" cx="178.4453" cy="-222.8624" rx="41.9398" ry="41.9398"/>
<text text-anchor="middle" x="178.4453" y="-236.3624" font-family="Times,serif" font-size="15.00" fill="#000000">Point</text>
<text text-anchor="middle" x="178.4453" y="-219.3624" font-family="Times,serif" font-size="15.00" fill="#000000">Очко</text>
<text text-anchor="middle" x="178.4453" y="-202.3624" font-family="Times,serif" font-size="15.00" fill="#000000">Пойнт</text>
</a>
</g>
</g>
<!-- Goal -->
<g id="node3" class="node has&#45;pronunciation">
<title>Goal</title>
<g id="a_node3"><a xlink:href="../goal.html" xlink:title="Гол" target="_top">
<ellipse fill="none" stroke="#c0c0c0" stroke-width=".2" cx="76.4001" cy="-103.9492" rx="52.1524" ry="52.1524"/>
<text text-anchor="middle" x="76.4001" y="-120.9492" font-family="Times,serif" font-size="20.00" fill="#000000">Goal</text>
<text text-anchor="middle" x="76.4001" y="-98.9492" font-family="Times,serif" font-size="20.00" fill="#000000">Гол</text>
<text text-anchor="middle" x="76.4001" y="-76.9492" font-family="Times,serif" font-size="20.00" fill="#000000">Гoул</text>
</a>
</g>
</g>
<!-- Point&#45;&gt;Goal -->
<g id="edge5" class="edge">
<title>Point&#45;&gt;Goal</title>
<path fill="none" stroke="#000000" stroke-dasharray="5,2" d="M151.099,-190.9958C140.7352,-178.9189 128.6969,-164.8906 117.3506,-151.6688"/>
<polygon fill="#000000" stroke="#000000" points="110.7679,-143.998 120.6952,-148.6563 114.0241,-147.7924 117.2802,-151.5868 117.2802,-151.5868 117.2802,-151.5868 114.0241,-147.7924 113.8653,-154.5174 110.7679,-143.998 110.7679,-143.998"/>
</g>
<!-- Player -->
<g id="node4" class="node has&#45;pronunciation">
<title>Player</title>
<g id="a_node4"><a xlink:href="../player.html" xlink:title="Игрок" target="_top">
<ellipse fill="none" stroke="#c0c0c0" stroke-width=".2" cx="46.669" cy="-283.092" rx="46.8387" ry="46.8387"/>
<text text-anchor="middle" x="46.669" y="-296.592" font-family="Times,serif" font-size="15.00" fill="#000000">Player</text>
<text text-anchor="middle" x="46.669" y="-279.592" font-family="Times,serif" font-size="15.00" fill="#000000">Игрок</text>
<text text-anchor="middle" x="46.669" y="-262.592" font-family="Times,serif" font-size="15.00" fill="#000000">&#39;Плейэр</text>
</a>
</g>
</g>
<!-- Point&#45;&gt;Player -->
<g id="edge6" class="edge">
<title>Point&#45;&gt;Player</title>
<path fill="none" stroke="#000000" stroke-dasharray="5,2" d="M140.3301,-240.2833C127.3604,-246.2112 112.6334,-252.9423 98.7607,-259.283"/>
<polygon fill="#000000" stroke="#000000" points="89.325,-263.5956 96.5494,-255.3458 93.8726,-261.5171 98.4201,-259.4386 98.4201,-259.4386 98.4201,-259.4386 93.8726,-261.5171 100.2907,-263.5314 89.325,-263.5956 89.325,-263.5956"/>
</g>
<!-- Team -->
<g id="node5" class="node has&#45;pronunciation">
<title>Team</title>
<g id="a_node5"><a xlink:href="../team.html" xlink:title="Команда" target="_top">
<ellipse fill="none" stroke="#c0c0c0" stroke-width=".2" cx="157.5096" cy="-397.2633" rx="51.7379" ry="51.7379"/>
<text text-anchor="middle" x="157.5096" y="-410.7633" font-family="Times,serif" font-size="15.00" fill="#000000">Team</text>
<text text-anchor="middle" x="157.5096" y="-393.7633" font-family="Times,serif" font-size="15.00" fill="#000000">Команда</text>
<text text-anchor="middle" x="157.5096" y="-376.7633" font-family="Times,serif" font-size="15.00" fill="#000000">Тим</text>
</a>
</g>
</g>
<!-- Point&#45;&gt;Team -->
<g id="edge7" class="edge">
<title>Point&#45;&gt;Team</title>
<path fill="none" stroke="#000000" stroke-dasharray="5,2" d="M173.4306,-264.6358C170.8806,-285.8789 167.7314,-312.1122 164.9088,-335.6254"/>
<polygon fill="#000000" stroke="#000000" points="163.6802,-345.8604 160.4042,-335.3953 164.2762,-340.896 164.8721,-335.9316 164.8721,-335.9316 164.8721,-335.9316 164.2762,-340.896 169.3401,-336.468 163.6802,-345.8604 163.6802,-345.8604"/>
</g>
<!-- Score -->
<g id="node2" class="node has&#45;pronunciation">
<title>Score</title>
<g id="a_node2"><a xlink:href="../score.html" xlink:title="Счёт" target="_top">
<ellipse fill="none" stroke="#c0c0c0" stroke-width=".2" cx="214.766" cy="-52.3259" rx="52.1524" ry="52.1524"/>
<text text-anchor="middle" x="214.766" y="-69.3259" font-family="Times,serif" font-size="20.00" fill="#000000">Score</text>
<text text-anchor="middle" x="214.766" y="-47.3259" font-family="Times,serif" font-size="20.00" fill="#000000">Счёт</text>
<text text-anchor="middle" x="214.766" y="-25.3259" font-family="Times,serif" font-size="20.00" fill="#000000">Скор</text>
</a>
</g>
</g>
<!-- Score&#45;&gt;Point -->
<g id="edge4" class="edge">
<title>Score&#45;&gt;Point</title>
<path fill="none" stroke="#000000" stroke-dasharray="5,2" d="M203.77,-103.9553C199.1737,-125.5361 193.8483,-150.5407 189.2704,-172.0354"/>
<polygon fill="#000000" stroke="#000000" points="187.1574,-181.9562 184.8393,-171.2381 188.199,-177.0659 189.2406,-172.1756 189.2406,-172.1756 189.2406,-172.1756 188.199,-177.0659 193.6419,-173.113 187.1574,-181.9562 187.1574,-181.9562"/>
</g>
<!-- Score&#45;&gt;Goal -->
<g id="edge1" class="edge">
<title>Score&#45;&gt;Goal</title>
<path fill="none" stroke="#000000" stroke-dasharray="5,2" d="M165.5937,-70.6717C155.8223,-74.3174 145.4681,-78.1804 135.4074,-81.934"/>
<polygon fill="#000000" stroke="#000000" points="125.8802,-85.4886 133.6763,-77.7768 130.5647,-83.7408 135.2493,-81.9929 135.2493,-81.9929 135.2493,-81.9929 130.5647,-83.7408 136.8223,-86.2091 125.8802,-85.4886 125.8802,-85.4886"/>
</g>
<!-- Player&#45;&gt;Goal -->
<g id="edge2" class="edge">
<title>Player&#45;&gt;Goal</title>
<path fill="none" stroke="#000000" stroke-dasharray="5,2" d="M54.3255,-236.9583C57.9225,-215.2849 62.2625,-189.1346 66.139,-165.777"/>
<polygon fill="#000000" stroke="#000000" points="67.8256,-155.6145 70.6275,-166.2164 67.0069,-160.547 66.1882,-165.4796 66.1882,-165.4796 66.1882,-165.4796 67.0069,-160.547 61.749,-164.7428 67.8256,-155.6145 67.8256,-155.6145"/>
</g>
<!-- Team&#45;&gt;Player -->
<g id="edge3" class="edge">
<title>Team&#45;&gt;Player</title>
<path fill="none" stroke="#000000" stroke-dasharray="5,2" d="M121.5228,-360.1952C110.3204,-348.6561 97.9051,-335.8676 86.4585,-324.0771"/>
<polygon fill="#000000" stroke="#000000" points="79.4761,-316.8849 89.6705,-320.9254 82.959,-320.4724 86.4418,-324.0599 86.4418,-324.0599 86.4418,-324.0599 82.959,-320.4724 83.2131,-327.1945 79.4761,-316.8849 79.4761,-316.8849"/>
</g>
</g>
</svg>
