<?xml version="1.0" encoding="UTF-8" standalone="no"?>
<?xml-stylesheet href="../static/svg.css" type="text/css"?>
<!DOCTYPE svg PUBLIC "-//W3C//DTD SVG 1.1//EN"
 "http://www.w3.org/Graphics/SVG/1.1/DTD/svg11.dtd">
<!-- Generated by graphviz version 2.40.1 (20161225.0304)
 -->
<!-- Title: term Pages: 1 -->
<svg width="516pt" height="852pt"
 viewBox="0.00 0.00 515.52 852.17" xmlns="http://www.w3.org/2000/svg" xmlns:xlink="http://www.w3.org/1999/xlink">
<g id="graph0" class="graph" transform="scale(1 1) rotate(0) translate(4 848.1738)">
<title>term</title>
<!-- Goal net -->
<g id="node1" class="node root has&#45;pronunciation">
<title>Goal net</title>
<g id="a_node1"><a xlink:href="javascript:history.back()" xlink:title="Ворота" target="_top">
<ellipse fill="none" stroke="#c0c0c0" stroke-width=".2" cx="280.231" cy="-471.28" rx="77.5641" ry="77.5641"/>
<text text-anchor="middle" x="280.231" y="-493.28" font-family="Times,serif" font-size="25.00" fill="#000000">Goal net</text>
<text text-anchor="middle" x="280.231" y="-465.28" font-family="Times,serif" font-size="25.00" fill="#000000">Ворота</text>
<text text-anchor="middle" x="280.231" y="-437.28" font-family="Times,serif" font-size="25.00" fill="#000000">Гoул нет</text>
</a>
</g>
</g>
<!-- Rink -->
<g id="node2" class="node has&#45;pronunciation">
<title>Rink</title>
<g id="a_node2"><a xlink:href="../rink.html" xlink:title="Площадка" target="_top">
<ellipse fill="none" stroke="#c0c0c0" stroke-width=".2" cx="422.8443" cy="-786.8982" rx="57.0522" ry="57.0522"/>
<text text-anchor="middle" x="422.8443" y="-800.3982" font-family="Times,serif" font-size="15.00" fill="#000000">Rink</text>
<text text-anchor="middle" x="422.8443" y="-783.3982" font-family="Times,serif" font-size="15.00" fill="#000000">Площадка</text>
<text text-anchor="middle" x="422.8443" y="-766.3982" font-family="Times,serif" font-size="15.00" fill="#000000">Ринк</text>
</a>
</g>
</g>
<!-- Rink&#45;&gt;Goal net -->
<g id="edge7" class="edge">
<title>Rink&#45;&gt;Goal net</title>
<path fill="none" stroke="#000000" stroke-dasharray="5,2" d="M399.1345,-734.426C376.6262,-684.6128 342.4735,-609.0293 316.5367,-551.6283"/>
<polygon fill="#000000" stroke="#000000" points="312.2848,-542.2184 320.5033,-549.4783 314.3437,-546.7749 316.4025,-551.3313 316.4025,-551.3313 316.4025,-551.3313 314.3437,-546.7749 312.3017,-553.1843 312.2848,-542.2184 312.2848,-542.2184"/>
</g>
<!-- Puck -->
<g id="node3" class="node has&#45;pronunciation">
<title>Puck</title>
<g id="a_node3"><a xlink:href="../puck.html" xlink:title="Шайба" target="_top">
<ellipse fill="none" stroke="#c0c0c0" stroke-width=".2" cx="269.4504" cy="-65.0538" rx="65.1077" ry="65.1077"/>
<text text-anchor="middle" x="269.4504" y="-87.0538" font-family="Times,serif" font-size="25.00" fill="#000000">Puck</text>
<text text-anchor="middle" x="269.4504" y="-59.0538" font-family="Times,serif" font-size="25.00" fill="#000000">Шайба</text>
<text text-anchor="middle" x="269.4504" y="-31.0538" font-family="Times,serif" font-size="25.00" fill="#000000">Пак</text>
</a>
</g>
</g>
<!-- Puck&#45;&gt;Goal net -->
<g id="edge8" class="edge">
<title>Puck&#45;&gt;Goal net</title>
<path fill="none" stroke="#000000" stroke-dasharray="5,2" d="M271.1825,-130.3211C273.0024,-198.8991 275.8758,-307.1725 277.8953,-383.2693"/>
<polygon fill="#000000" stroke="#000000" points="278.162,-393.318 273.3982,-383.4409 278.0293,-388.3197 277.8966,-383.3215 277.8966,-383.3215 277.8966,-383.3215 278.0293,-388.3197 282.395,-383.2021 278.162,-393.318 278.162,-393.318"/>
</g>
<!-- Opponent -->
<g id="node4" class="node has&#45;pronunciation">
<title>Opponent</title>
<g id="a_node4"><a xlink:href="../opponent.html" xlink:title="Противник" target="_top">
<ellipse fill="none" stroke="#c0c0c0" stroke-width=".2" cx="60.8112" cy="-669.6544" rx="60.623" ry="60.623"/>
<text text-anchor="middle" x="60.8112" y="-683.1544" font-family="Times,serif" font-size="15.00" fill="#000000">Opponent</text>
<text text-anchor="middle" x="60.8112" y="-666.1544" font-family="Times,serif" font-size="15.00" fill="#000000">Противник</text>
<text text-anchor="middle" x="60.8112" y="-649.1544" font-family="Times,serif" font-size="15.00" fill="#000000">Эˈпoунэнт</text>
</a>
</g>
</g>
<!-- Opponent&#45;&gt;Goal net -->
<g id="edge9" class="edge">
<title>Opponent&#45;&gt;Goal net</title>
<path fill="none" stroke="#000000" stroke-dasharray="5,2" d="M106.0091,-628.7916C137.2666,-600.5321 179.3601,-562.476 214.3411,-530.8502"/>
<polygon fill="#000000" stroke="#000000" points="222.1481,-523.7919 217.7481,-533.8364 218.4392,-527.1451 214.7302,-530.4984 214.7302,-530.4984 214.7302,-530.4984 218.4392,-527.1451 211.7123,-527.1603 222.1481,-523.7919 222.1481,-523.7919"/>
</g>
<!-- Goal -->
<g id="node5" class="node has&#45;pronunciation">
<title>Goal</title>
<g id="a_node5"><a xlink:href="../goal.html" xlink:title="Гол" target="_top">
<ellipse fill="none" stroke="#c0c0c0" stroke-width=".2" cx="422.8479" cy="-119.9309" rx="65.1077" ry="65.1077"/>
<text text-anchor="middle" x="422.8479" y="-141.9309" font-family="Times,serif" font-size="25.00" fill="#000000">Goal</text>
<text text-anchor="middle" x="422.8479" y="-113.9309" font-family="Times,serif" font-size="25.00" fill="#000000">Гол</text>
<text text-anchor="middle" x="422.8479" y="-85.9309" font-family="Times,serif" font-size="25.00" fill="#000000">Гoул</text>
</a>
</g>
</g>
<!-- Goal&#45;&gt;Goal net -->
<g id="edge10" class="edge">
<title>Goal&#45;&gt;Goal net</title>
<path fill="none" stroke="#000000" stroke-dasharray="5,2" d="M398.3312,-180.33C374.9237,-237.9964 339.4726,-325.3331 313.5186,-389.273"/>
<polygon fill="#000000" stroke="#000000" points="309.5996,-398.9279 309.1912,-387.9696 311.4802,-394.295 313.3608,-389.6621 313.3608,-389.6621 313.3608,-389.6621 311.4802,-394.295 317.5303,-391.3546 309.5996,-398.9279 309.5996,-398.9279"/>
</g>
<!-- Goal&#45;&gt;Puck -->
<g id="edge1" class="edge">
<title>Goal&#45;&gt;Puck</title>
<path fill="none" stroke="#000000" stroke-dasharray="5,2" d="M361.3391,-97.9265C354.4626,-95.4664 347.4163,-92.9457 340.4336,-90.4476"/>
<polygon fill="#000000" stroke="#000000" points="330.973,-87.0632 341.9044,-86.1946 335.6808,-88.7474 340.3886,-90.4316 340.3886,-90.4316 340.3886,-90.4316 335.6808,-88.7474 338.8728,-94.6686 330.973,-87.0632 330.973,-87.0632"/>
</g>
<!-- Shot -->
<g id="node6" class="node has&#45;pronunciation">
<title>Shot</title>
<g id="a_node6"><a xlink:href="../shot.html" xlink:title="Бросок" target="_top">
<ellipse fill="none" stroke="#c0c0c0" stroke-width=".2" cx="440.3453" cy="-329.6568" rx="67.3507" ry="67.3507"/>
<text text-anchor="middle" x="440.3453" y="-351.6568" font-family="Times,serif" font-size="25.00" fill="#000000">Shot</text>
<text text-anchor="middle" x="440.3453" y="-323.6568" font-family="Times,serif" font-size="25.00" fill="#000000">Бросок</text>
<text text-anchor="middle" x="440.3453" y="-295.6568" font-family="Times,serif" font-size="25.00" fill="#000000">Шат</text>
</a>
</g>
</g>
<!-- Shot&#45;&gt;Goal net -->
<g id="edge11" class="edge">
<title>Shot&#45;&gt;Goal net</title>
<path fill="none" stroke="#000000" stroke-dasharray="5,2" d="M389.6842,-374.4672C375.8749,-386.6817 360.7105,-400.0948 346.1856,-412.9423"/>
<polygon fill="#000000" stroke="#000000" points="338.6589,-419.5998 343.1679,-409.6037 342.4041,-416.2871 346.1493,-412.9744 346.1493,-412.9744 346.1493,-412.9744 342.4041,-416.2871 349.1307,-416.3451 338.6589,-419.5998 338.6589,-419.5998"/>
</g>
<!-- Shot&#45;&gt;Puck -->
<g id="edge3" class="edge">
<title>Shot&#45;&gt;Puck</title>
<path fill="none" stroke="#000000" stroke-dasharray="5,2" d="M403.8937,-273.2173C376.5073,-230.814 338.979,-172.7075 310.5307,-128.6599"/>
<polygon fill="#000000" stroke="#000000" points="304.9678,-120.0467 314.1733,-126.0055 307.6805,-124.2468 310.3932,-128.447 310.3932,-128.447 310.3932,-128.447 307.6805,-124.2468 306.613,-130.8884 304.9678,-120.0467 304.9678,-120.0467"/>
</g>
<!-- Shot&#45;&gt;Goal -->
<g id="edge2" class="edge">
<title>Shot&#45;&gt;Goal</title>
<path fill="none" stroke="#000000" stroke-dasharray="5,2" d="M434.7368,-262.4328C432.9425,-240.9255 430.9449,-216.9827 429.1072,-194.9558"/>
<polygon fill="#000000" stroke="#000000" points="428.2754,-184.9858 433.5913,-194.577 428.6912,-189.9685 429.1069,-194.9512 429.1069,-194.9512 429.1069,-194.9512 428.6912,-189.9685 424.6225,-195.3254 428.2754,-184.9858 428.2754,-184.9858"/>
</g>
<!-- Hockey -->
<g id="node7" class="node has&#45;pronunciation">
<title>Hockey</title>
<g id="a_node7"><a xlink:href="../hockey.html" xlink:title="Хоккей" target="_top">
<ellipse fill="none" stroke="#c0c0c0" stroke-width=".2" cx="181.6616" cy="-235.7205" rx="45.011" ry="45.011"/>
<text text-anchor="middle" x="181.6616" y="-249.2205" font-family="Times,serif" font-size="15.00" fill="#000000">Hockey</text>
<text text-anchor="middle" x="181.6616" y="-232.2205" font-family="Times,serif" font-size="15.00" fill="#000000">Хоккей</text>
<text text-anchor="middle" x="181.6616" y="-215.2205" font-family="Times,serif" font-size="15.00" fill="#000000">ˈХаки</text>
</a>
</g>
</g>
<!-- Hockey&#45;&gt;Goal net -->
<g id="edge12" class="edge">
<title>Hockey&#45;&gt;Goal net</title>
<path fill="none" stroke="#000000" stroke-dasharray="5,2" d="M199.1703,-277.5624C212.1753,-308.6415 230.3263,-352.0185 246.1563,-389.8488"/>
<polygon fill="#000000" stroke="#000000" points="250.1263,-399.3363 242.1149,-391.8485 248.1962,-394.7239 246.2661,-390.1114 246.2661,-390.1114 246.2661,-390.1114 248.1962,-394.7239 250.4173,-388.3743 250.1263,-399.3363 250.1263,-399.3363"/>
</g>
<!-- Hockey&#45;&gt;Puck -->
<g id="edge5" class="edge">
<title>Hockey&#45;&gt;Puck</title>
<path fill="none" stroke="#000000" stroke-dasharray="5,2" d="M202.4663,-195.2748C212.1824,-176.3861 224.0086,-153.3954 235.0043,-132.0191"/>
<polygon fill="#000000" stroke="#000000" points="239.6574,-122.9733 239.0847,-133.9242 237.3702,-127.4195 235.0831,-131.8658 235.0831,-131.8658 235.0831,-131.8658 237.3702,-127.4195 231.0815,-129.8074 239.6574,-122.9733 239.6574,-122.9733"/>
</g>
<!-- Hockey&#45;&gt;Goal -->
<g id="edge6" class="edge">
<title>Hockey&#45;&gt;Goal</title>
<path fill="none" stroke="#000000" stroke-dasharray="5,2" d="M222.5756,-216.0783C258.7613,-198.7062 312.2719,-173.0166 354.8794,-152.5614"/>
<polygon fill="#000000" stroke="#000000" points="364.0712,-148.1486 357.0039,-156.5333 359.5637,-150.3126 355.0563,-152.4766 355.0563,-152.4766 355.0563,-152.4766 359.5637,-150.3126 353.1087,-148.4199 364.0712,-148.1486 364.0712,-148.1486"/>
</g>
<!-- Hockey&#45;&gt;Shot -->
<g id="edge4" class="edge">
<title>Hockey&#45;&gt;Shot</title>
<path fill="none" stroke="#000000" stroke-dasharray="5,2" d="M224.378,-251.2321C263.0963,-265.292 320.9814,-286.3119 367.0806,-303.052"/>
<polygon fill="#000000" stroke="#000000" points="376.7277,-306.5552 365.7922,-307.3716 372.028,-304.8485 367.3282,-303.1419 367.3282,-303.1419 367.3282,-303.1419 372.028,-304.8485 368.8642,-298.9121 376.7277,-306.5552 376.7277,-306.5552"/>
</g>
</g>
</svg>
