<?xml version="1.0" encoding="UTF-8" standalone="no"?>
<?xml-stylesheet href="../static/svg.css" type="text/css"?>
<!DOCTYPE svg PUBLIC "-//W3C//DTD SVG 1.1//EN"
 "http://www.w3.org/Graphics/SVG/1.1/DTD/svg11.dtd">
<!-- Generated by graphviz version 2.40.1 (20161225.0304)
 -->
<!-- Title: term Pages: 1 -->
<svg width="258pt" height="357pt"
 viewBox="0.00 0.00 258.27 357.50" xmlns="http://www.w3.org/2000/svg" xmlns:xlink="http://www.w3.org/1999/xlink">
<g id="graph0" class="graph" transform="scale(1 1) rotate(0) translate(4 353.4991)">
<title>term</title>
<!-- Period -->
<g id="node1" class="node root has&#45;pronunciation">
<title>Period</title>
<g id="a_node1"><a xlink:href="javascript:history.back()" xlink:title="Период" target="_top">
<ellipse fill="none" stroke="#c0c0c0" stroke-width=".2" cx="48.7904" cy="-295.4378" rx="48.5816" ry="48.5816"/>
<text text-anchor="middle" x="48.7904" y="-308.9378" font-family="Times,serif" font-size="15.00" fill="#000000">Period</text>
<text text-anchor="middle" x="48.7904" y="-291.9378" font-family="Times,serif" font-size="15.00" fill="#000000">Период</text>
<text text-anchor="middle" x="48.7904" y="-274.9378" font-family="Times,serif" font-size="15.00" fill="#000000">ˈПириэд</text>
</a>
</g>
</g>
<!-- Game -->
<g id="node2" class="node has&#45;pronunciation">
<title>Game</title>
<g id="a_node2"><a xlink:href="../game.html" xlink:title="Игра" target="_top">
<ellipse fill="none" stroke="#c0c0c0" stroke-width=".2" cx="197.9468" cy="-297.1732" rx="52.1524" ry="52.1524"/>
<text text-anchor="middle" x="197.9468" y="-314.1732" font-family="Times,serif" font-size="20.00" fill="#000000">Game</text>
<text text-anchor="middle" x="197.9468" y="-292.1732" font-family="Times,serif" font-size="20.00" fill="#000000">Игра</text>
<text text-anchor="middle" x="197.9468" y="-270.1732" font-family="Times,serif" font-size="20.00" fill="#000000">Гейм</text>
</a>
</g>
</g>
<!-- Game&#45;&gt;Period -->
<g id="edge2" class="edge">
<title>Game&#45;&gt;Period</title>
<path fill="none" stroke="#000000" stroke-dasharray="5,2" d="M145.3598,-296.5614C133.3031,-296.4211 120.4042,-296.271 108.0864,-296.1277"/>
<polygon fill="#000000" stroke="#000000" points="97.9074,-296.0093 107.9591,-291.626 102.9071,-296.0675 107.9067,-296.1257 107.9067,-296.1257 107.9067,-296.1257 102.9071,-296.0675 107.8543,-300.6254 97.9074,-296.0093 97.9074,-296.0093"/>
</g>
<!-- Overtime -->
<g id="node3" class="node has&#45;pronunciation">
<title>Overtime</title>
<g id="a_node3"><a xlink:href="../overtime.html" xlink:title="Овертайм" target="_top">
<ellipse fill="none" stroke="#c0c0c0" stroke-width=".2" cx="124.3786" cy="-68.5894" rx="68.6788" ry="68.6788"/>
<text text-anchor="middle" x="124.3786" y="-82.0894" font-family="Times,serif" font-size="15.00" fill="#000000">Overtime</text>
<text text-anchor="middle" x="124.3786" y="-65.0894" font-family="Times,serif" font-size="15.00" fill="#000000">Овертайм</text>
<text text-anchor="middle" x="124.3786" y="-48.0894" font-family="Times,serif" font-size="15.00" fill="#000000">ˈОувэрˌтайм</text>
</a>
</g>
</g>
<!-- Game&#45;&gt;Overtime -->
<g id="edge1" class="edge">
<title>Game&#45;&gt;Overtime</title>
<path fill="none" stroke="#000000" stroke-dasharray="5,2" d="M181.8928,-247.292C172.1574,-217.0429 159.5454,-177.8562 148.6135,-143.8898"/>
<polygon fill="#000000" stroke="#000000" points="145.4297,-133.9973 152.777,-142.1377 146.9615,-138.7569 148.4934,-143.5164 148.4934,-143.5164 148.4934,-143.5164 146.9615,-138.7569 144.2098,-144.8951 145.4297,-133.9973 145.4297,-133.9973"/>
</g>
<!-- Overtime&#45;&gt;Period -->
<g id="edge3" class="edge">
<title>Overtime&#45;&gt;Period</title>
<path fill="none" stroke="#000000" stroke-dasharray="5,2" d="M102.6167,-133.899C91.5102,-167.2309 78.1362,-207.3677 67.4979,-239.2945"/>
<polygon fill="#000000" stroke="#000000" points="64.2897,-248.9226 63.1818,-238.0129 65.8703,-244.179 67.451,-239.4355 67.451,-239.4355 67.451,-239.4355 65.8703,-244.179 71.7202,-240.858 64.2897,-248.9226 64.2897,-248.9226"/>
</g>
</g>
</svg>
