<?xml version="1.0" encoding="UTF-8" standalone="no"?>
<?xml-stylesheet href="../static/svg.css" type="text/css"?>
<!DOCTYPE svg PUBLIC "-//W3C//DTD SVG 1.1//EN"
 "http://www.w3.org/Graphics/SVG/1.1/DTD/svg11.dtd">
<!-- Generated by graphviz version 2.40.1 (20161225.0304)
 -->
<!-- Title: term Pages: 1 -->
<svg width="1229pt" height="2063pt"
 viewBox="0.00 0.00 1228.75 2062.88" xmlns="http://www.w3.org/2000/svg" xmlns:xlink="http://www.w3.org/1999/xlink">
<g id="graph0" class="graph" transform="scale(1 1) rotate(0) translate(4 2058.8811)">
<title>term</title>
<!-- Team -->
<g id="node1" class="node has&#45;pronunciation">
<title>Team</title>
<g id="a_node1"><a xlink:href="../team.html" xlink:title="Команда" target="_top">
<ellipse fill="none" stroke="#c0c0c0" stroke-width=".2" cx="173.4072" cy="-540.6862" rx="51.7379" ry="51.7379"/>
<text text-anchor="middle" x="173.4072" y="-554.1862" font-family="Times,serif" font-size="15.00" fill="#000000">Team</text>
<text text-anchor="middle" x="173.4072" y="-537.1862" font-family="Times,serif" font-size="15.00" fill="#000000">Команда</text>
<text text-anchor="middle" x="173.4072" y="-520.1862" font-family="Times,serif" font-size="15.00" fill="#000000">Тим</text>
</a>
</g>
</g>
<!-- Player -->
<g id="node2" class="node has&#45;pronunciation">
<title>Player</title>
<g id="a_node2"><a xlink:href="../player.html" xlink:title="Игрок" target="_top">
<ellipse fill="none" stroke="#c0c0c0" stroke-width=".2" cx="430.0679" cy="-683.3833" rx="46.8387" ry="46.8387"/>
<text text-anchor="middle" x="430.0679" y="-696.8833" font-family="Times,serif" font-size="15.00" fill="#000000">Player</text>
<text text-anchor="middle" x="430.0679" y="-679.8833" font-family="Times,serif" font-size="15.00" fill="#000000">Игрок</text>
<text text-anchor="middle" x="430.0679" y="-662.8833" font-family="Times,serif" font-size="15.00" fill="#000000">&#39;Плейэр</text>
</a>
</g>
</g>
<!-- Team&#45;&gt;Player -->
<g id="edge1" class="edge">
<title>Team&#45;&gt;Player</title>
<path fill="none" stroke="#000000" stroke-dasharray="5,2" d="M218.7022,-565.8691C263.9932,-591.0498 333.4661,-629.675 380.2801,-655.7025"/>
<polygon fill="#000000" stroke="#000000" points="389.0366,-660.5709 378.1099,-659.6446 384.6666,-658.1412 380.2966,-655.7116 380.2966,-655.7116 380.2966,-655.7116 384.6666,-658.1412 382.4833,-651.7786 389.0366,-660.5709 389.0366,-660.5709"/>
</g>
<!-- Sport -->
<g id="node9" class="node">
<title>Sport</title>
<g id="a_node9"><a xlink:href="../sport.html" xlink:title="Спорт" target="_top">
<ellipse fill="none" stroke="#c0c0c0" stroke-width=".2" cx="270.2176" cy="-254.9065" rx="39.6962" ry="39.6962"/>
<text text-anchor="middle" x="270.2176" y="-259.9065" font-family="Times,serif" font-size="15.00" fill="#000000">Sport</text>
<text text-anchor="middle" x="270.2176" y="-242.9065" font-family="Times,serif" font-size="15.00" fill="#000000">Спорт</text>
</a>
</g>
</g>
<!-- Team&#45;&gt;Sport -->
<g id="edge10" class="edge">
<title>Team&#45;&gt;Sport</title>
<path fill="none" stroke="#000000" stroke-dasharray="5,2" d="M190.0495,-491.5589C208.0286,-438.4855 236.4748,-354.5138 254.2049,-302.1754"/>
<polygon fill="#000000" stroke="#000000" points="257.4937,-292.4668 258.5473,-303.382 255.8895,-297.2025 254.2852,-301.9381 254.2852,-301.9381 254.2852,-301.9381 255.8895,-297.2025 250.0231,-300.4943 257.4937,-292.4668 257.4937,-292.4668"/>
</g>
<!-- Player&#45;&gt;Sport -->
<g id="edge15" class="edge">
<title>Player&#45;&gt;Sport</title>
<path fill="none" stroke="#000000" stroke-dasharray="5,2" d="M413.7123,-639.5424C383.4022,-558.2965 318.7671,-385.0427 287.6581,-301.6553"/>
<polygon fill="#000000" stroke="#000000" points="284.1248,-292.1843 291.8363,-299.9806 285.8725,-296.869 287.6202,-301.5536 287.6202,-301.5536 287.6202,-301.5536 285.8725,-296.869 283.404,-303.1265 284.1248,-292.1843 284.1248,-292.1843"/>
</g>
<!-- Goal -->
<g id="node11" class="node has&#45;pronunciation">
<title>Goal</title>
<g id="a_node11"><a xlink:href="../goal.html" xlink:title="Гол" target="_top">
<ellipse fill="none" stroke="#c0c0c0" stroke-width=".2" cx="640.338" cy="-741.5713" rx="65.1077" ry="65.1077"/>
<text text-anchor="middle" x="640.338" y="-763.5713" font-family="Times,serif" font-size="25.00" fill="#000000">Goal</text>
<text text-anchor="middle" x="640.338" y="-735.5713" font-family="Times,serif" font-size="25.00" fill="#000000">Гол</text>
<text text-anchor="middle" x="640.338" y="-707.5713" font-family="Times,serif" font-size="25.00" fill="#000000">Гoул</text>
</a>
</g>
</g>
<!-- Player&#45;&gt;Goal -->
<g id="edge14" class="edge">
<title>Player&#45;&gt;Goal</title>
<path fill="none" stroke="#000000" stroke-dasharray="5,2" d="M475.1761,-695.8661C502.0715,-703.3088 536.8485,-712.9327 567.5488,-721.4283"/>
<polygon fill="#000000" stroke="#000000" points="577.358,-724.1428 566.52,-725.8127 572.5391,-722.8093 567.7202,-721.4757 567.7202,-721.4757 567.7202,-721.4757 572.5391,-722.8093 568.9204,-717.1387 577.358,-724.1428 577.358,-724.1428"/>
</g>
<!-- Shot -->
<g id="node13" class="node has&#45;pronunciation">
<title>Shot</title>
<g id="a_node13"><a xlink:href="../shot.html" xlink:title="Бросок" target="_top">
<ellipse fill="none" stroke="#c0c0c0" stroke-width=".2" cx="768.4863" cy="-1263.9363" rx="67.3507" ry="67.3507"/>
<text text-anchor="middle" x="768.4863" y="-1285.9363" font-family="Times,serif" font-size="25.00" fill="#000000">Shot</text>
<text text-anchor="middle" x="768.4863" y="-1257.9363" font-family="Times,serif" font-size="25.00" fill="#000000">Бросок</text>
<text text-anchor="middle" x="768.4863" y="-1229.9363" font-family="Times,serif" font-size="25.00" fill="#000000">Шат</text>
</a>
</g>
</g>
<!-- Player&#45;&gt;Shot -->
<g id="edge20" class="edge">
<title>Player&#45;&gt;Shot</title>
<path fill="none" stroke="#000000" stroke-dasharray="5,2" d="M453.5961,-723.7457C510.9932,-822.2097 658.6658,-1075.5405 729.4783,-1197.0186"/>
<polygon fill="#000000" stroke="#000000" points="734.6476,-1205.8863 725.7237,-1199.5133 732.1295,-1201.5667 729.6114,-1197.247 729.6114,-1197.247 729.6114,-1197.247 732.1295,-1201.5667 733.4992,-1194.9807 734.6476,-1205.8863 734.6476,-1205.8863"/>
</g>
<!-- Rink -->
<g id="node3" class="node has&#45;pronunciation">
<title>Rink</title>
<g id="a_node3"><a xlink:href="../rink.html" xlink:title="Площадка" target="_top">
<ellipse fill="none" stroke="#c0c0c0" stroke-width=".2" cx="92.6181" cy="-1760.4831" rx="57.0522" ry="57.0522"/>
<text text-anchor="middle" x="92.6181" y="-1773.9831" font-family="Times,serif" font-size="15.00" fill="#000000">Rink</text>
<text text-anchor="middle" x="92.6181" y="-1756.9831" font-family="Times,serif" font-size="15.00" fill="#000000">Площадка</text>
<text text-anchor="middle" x="92.6181" y="-1739.9831" font-family="Times,serif" font-size="15.00" fill="#000000">Ринк</text>
</a>
</g>
</g>
<!-- Ice -->
<g id="node4" class="node has&#45;pronunciation">
<title>Ice</title>
<g id="a_node4"><a xlink:href="../ice.html" xlink:title="Лёд" target="_top">
<ellipse fill="none" stroke="#c0c0c0" stroke-width=".2" cx="329.8709" cy="-2013.1618" rx="41.9398" ry="41.9398"/>
<text text-anchor="middle" x="329.8709" y="-2026.6618" font-family="Times,serif" font-size="15.00" fill="#000000">Ice</text>
<text text-anchor="middle" x="329.8709" y="-2009.6618" font-family="Times,serif" font-size="15.00" fill="#000000">Лёд</text>
<text text-anchor="middle" x="329.8709" y="-1992.6618" font-family="Times,serif" font-size="15.00" fill="#000000">Айс</text>
</a>
</g>
</g>
<!-- Rink&#45;&gt;Ice -->
<g id="edge2" class="edge">
<title>Rink&#45;&gt;Ice</title>
<path fill="none" stroke="#000000" stroke-dasharray="5,2" d="M132.0619,-1802.4915C177.2456,-1850.6129 250.6353,-1928.7744 294.1817,-1975.1521"/>
<polygon fill="#000000" stroke="#000000" points="301.1669,-1982.5914 291.0413,-1978.3816 297.7444,-1978.9464 294.3218,-1975.3013 294.3218,-1975.3013 294.3218,-1975.3013 297.7444,-1978.9464 297.6024,-1972.221 301.1669,-1982.5914 301.1669,-1982.5914"/>
</g>
<!-- Goal net -->
<g id="node5" class="node has&#45;pronunciation">
<title>Goal net</title>
<g id="a_node5"><a xlink:href="../goal-net.html" xlink:title="Ворота" target="_top">
<ellipse fill="none" stroke="#c0c0c0" stroke-width=".2" cx="367.6458" cy="-1299.2136" rx="77.5641" ry="77.5641"/>
<text text-anchor="middle" x="367.6458" y="-1321.2136" font-family="Times,serif" font-size="25.00" fill="#000000">Goal net</text>
<text text-anchor="middle" x="367.6458" y="-1293.2136" font-family="Times,serif" font-size="25.00" fill="#000000">Ворота</text>
<text text-anchor="middle" x="367.6458" y="-1265.2136" font-family="Times,serif" font-size="25.00" fill="#000000">Гoул нет</text>
</a>
</g>
</g>
<!-- Rink&#45;&gt;Goal net -->
<g id="edge3" class="edge">
<title>Rink&#45;&gt;Goal net</title>
<path fill="none" stroke="#000000" stroke-dasharray="5,2" d="M122.0509,-1711.1192C170.0911,-1630.5473 265.6727,-1470.2402 322.3898,-1375.1157"/>
<polygon fill="#000000" stroke="#000000" points="327.5854,-1366.4018 326.3293,-1377.2955 325.0248,-1370.6964 322.4642,-1374.9909 322.4642,-1374.9909 322.4642,-1374.9909 325.0248,-1370.6964 318.599,-1372.6864 327.5854,-1366.4018 327.5854,-1366.4018"/>
</g>
<!-- Opponent -->
<g id="node6" class="node has&#45;pronunciation">
<title>Opponent</title>
<g id="a_node6"><a xlink:href="../opponent.html" xlink:title="Противник" target="_top">
<ellipse fill="none" stroke="#c0c0c0" stroke-width=".2" cx="60.8112" cy="-978.9253" rx="60.623" ry="60.623"/>
<text text-anchor="middle" x="60.8112" y="-992.4253" font-family="Times,serif" font-size="15.00" fill="#000000">Opponent</text>
<text text-anchor="middle" x="60.8112" y="-975.4253" font-family="Times,serif" font-size="15.00" fill="#000000">Противник</text>
<text text-anchor="middle" x="60.8112" y="-958.4253" font-family="Times,serif" font-size="15.00" fill="#000000">Эˈпoунэнт</text>
</a>
</g>
</g>
<!-- Opponent&#45;&gt;Team -->
<g id="edge4" class="edge">
<title>Opponent&#45;&gt;Team</title>
<path fill="none" stroke="#000000" stroke-dasharray="5,2" d="M75.9964,-919.8224C97.4542,-836.3056 136.4327,-684.5959 158.0069,-600.6262"/>
<polygon fill="#000000" stroke="#000000" points="160.5493,-590.7309 162.4192,-601.5362 159.305,-595.5736 158.0608,-600.4163 158.0608,-600.4163 158.0608,-600.4163 159.305,-595.5736 153.7023,-599.2965 160.5493,-590.7309 160.5493,-590.7309"/>
</g>
<!-- Opponent&#45;&gt;Player -->
<g id="edge5" class="edge">
<title>Opponent&#45;&gt;Player</title>
<path fill="none" stroke="#000000" stroke-dasharray="5,2" d="M108.3291,-940.8933C180.1115,-883.4409 315.2414,-775.2869 385.3406,-719.1817"/>
<polygon fill="#000000" stroke="#000000" points="393.5582,-712.6045 388.5629,-722.3665 389.6546,-715.7289 385.7509,-718.8533 385.7509,-718.8533 385.7509,-718.8533 389.6546,-715.7289 382.939,-715.34 393.5582,-712.6045 393.5582,-712.6045"/>
</g>
<!-- Opponent&#45;&gt;Goal net -->
<g id="edge9" class="edge">
<title>Opponent&#45;&gt;Goal net</title>
<path fill="none" stroke="#000000" stroke-dasharray="5,2" d="M103.1531,-1023.1237C155.8388,-1078.1195 246.193,-1172.4354 306.4193,-1235.3025"/>
<polygon fill="#000000" stroke="#000000" points="313.6101,-1242.8086 303.4427,-1238.7004 310.1511,-1239.198 306.6922,-1235.5874 306.6922,-1235.5874 306.6922,-1235.5874 310.1511,-1239.198 309.9417,-1232.4744 313.6101,-1242.8086 313.6101,-1242.8086"/>
</g>
<!-- Stick -->
<g id="node7" class="node has&#45;pronunciation">
<title>Stick</title>
<g id="a_node7"><a xlink:href="../stick.html" xlink:title="Клюшка" target="_top">
<ellipse fill="none" stroke="#c0c0c0" stroke-width=".2" cx="804.4278" cy="-894.7813" rx="48.5816" ry="48.5816"/>
<text text-anchor="middle" x="804.4278" y="-908.2813" font-family="Times,serif" font-size="15.00" fill="#000000">Stick</text>
<text text-anchor="middle" x="804.4278" y="-891.2813" font-family="Times,serif" font-size="15.00" fill="#000000">Клюшка</text>
<text text-anchor="middle" x="804.4278" y="-874.2813" font-family="Times,serif" font-size="15.00" fill="#000000">Стик</text>
</a>
</g>
</g>
<!-- Puck -->
<g id="node8" class="node has&#45;pronunciation">
<title>Puck</title>
<g id="a_node8"><a xlink:href="../puck.html" xlink:title="Шайба" target="_top">
<ellipse fill="none" stroke="#c0c0c0" stroke-width=".2" cx="556.0521" cy="-1388.8786" rx="65.1077" ry="65.1077"/>
<text text-anchor="middle" x="556.0521" y="-1410.8786" font-family="Times,serif" font-size="25.00" fill="#000000">Puck</text>
<text text-anchor="middle" x="556.0521" y="-1382.8786" font-family="Times,serif" font-size="25.00" fill="#000000">Шайба</text>
<text text-anchor="middle" x="556.0521" y="-1354.8786" font-family="Times,serif" font-size="25.00" fill="#000000">Пак</text>
</a>
</g>
</g>
<!-- Stick&#45;&gt;Puck -->
<g id="edge6" class="edge">
<title>Stick&#45;&gt;Puck</title>
<path fill="none" stroke="#000000" stroke-dasharray="5,2" d="M782.3861,-938.6292C738.8808,-1025.1751 641.7138,-1218.4707 589.9817,-1321.3821"/>
<polygon fill="#000000" stroke="#000000" points="585.4246,-1330.4476 585.8954,-1319.4919 587.6703,-1325.9803 589.916,-1321.513 589.916,-1321.513 589.916,-1321.513 587.6703,-1325.9803 593.9365,-1323.5341 585.4246,-1330.4476 585.4246,-1330.4476"/>
</g>
<!-- Puck&#45;&gt;Ice -->
<g id="edge7" class="edge">
<title>Puck&#45;&gt;Ice</title>
<path fill="none" stroke="#000000" stroke-dasharray="5,2" d="M533.8497,-1450.1597C488.9666,-1574.0416 388.2544,-1852.0175 347.4952,-1964.5169"/>
<polygon fill="#000000" stroke="#000000" points="344.087,-1973.924 343.2626,-1962.9891 345.7902,-1969.223 347.4934,-1964.522 347.4934,-1964.522 347.4934,-1964.522 345.7902,-1969.223 351.7243,-1966.0549 344.087,-1973.924 344.087,-1973.924"/>
</g>
<!-- Puck&#45;&gt;Goal net -->
<g id="edge8" class="edge">
<title>Puck&#45;&gt;Goal net</title>
<path fill="none" stroke="#000000" stroke-dasharray="5,2" d="M497.2142,-1360.8769C481.3628,-1353.333 463.9487,-1345.0454 447.1713,-1337.0608"/>
<polygon fill="#000000" stroke="#000000" points="437.93,-1332.6628 448.8934,-1332.8968 442.4448,-1334.8115 446.9596,-1336.9601 446.9596,-1336.9601 446.9596,-1336.9601 442.4448,-1334.8115 445.0258,-1341.0234 437.93,-1332.6628 437.93,-1332.6628"/>
</g>
<!-- Score -->
<g id="node10" class="node has&#45;pronunciation">
<title>Score</title>
<g id="a_node10"><a xlink:href="../score.html" xlink:title="Счёт" target="_top">
<ellipse fill="none" stroke="#c0c0c0" stroke-width=".2" cx="750.686" cy="-65.0538" rx="65.1077" ry="65.1077"/>
<text text-anchor="middle" x="750.686" y="-87.0538" font-family="Times,serif" font-size="25.00" fill="#000000">Score</text>
<text text-anchor="middle" x="750.686" y="-59.0538" font-family="Times,serif" font-size="25.00" fill="#000000">Счёт</text>
<text text-anchor="middle" x="750.686" y="-31.0538" font-family="Times,serif" font-size="25.00" fill="#000000">Скор</text>
</a>
</g>
</g>
<!-- Score&#45;&gt;Goal -->
<g id="edge11" class="edge">
<title>Score&#45;&gt;Goal</title>
<path fill="none" stroke="#000000" stroke-dasharray="5,2" d="M740.2052,-129.3089C719.678,-255.1565 674.2824,-533.4664 652.4841,-667.1062"/>
<polygon fill="#000000" stroke="#000000" points="650.8294,-677.2512 647.998,-666.6572 651.6343,-672.3164 652.4393,-667.3816 652.4393,-667.3816 652.4393,-667.3816 651.6343,-672.3164 656.8806,-668.1061 650.8294,-677.2512 650.8294,-677.2512"/>
</g>
<!-- Point -->
<g id="node12" class="node has&#45;pronunciation">
<title>Point</title>
<g id="a_node12"><a xlink:href="../point.html" xlink:title="Очко" target="_top">
<ellipse fill="none" stroke="#c0c0c0" stroke-width=".2" cx="473.7855" cy="-145.2876" rx="41.9398" ry="41.9398"/>
<text text-anchor="middle" x="473.7855" y="-158.7876" font-family="Times,serif" font-size="15.00" fill="#000000">Point</text>
<text text-anchor="middle" x="473.7855" y="-141.7876" font-family="Times,serif" font-size="15.00" fill="#000000">Очко</text>
<text text-anchor="middle" x="473.7855" y="-124.7876" font-family="Times,serif" font-size="15.00" fill="#000000">Пойнт</text>
</a>
</g>
</g>
<!-- Score&#45;&gt;Point -->
<g id="edge12" class="edge">
<title>Score&#45;&gt;Point</title>
<path fill="none" stroke="#000000" stroke-dasharray="5,2" d="M688.1988,-83.1599C638.5646,-97.5418 570.065,-117.39 523.9639,-130.7481"/>
<polygon fill="#000000" stroke="#000000" points="514.1939,-133.579 522.5464,-126.4736 518.9964,-132.1874 523.7988,-130.7958 523.7988,-130.7958 523.7988,-130.7958 518.9964,-132.1874 525.0513,-135.118 514.1939,-133.579 514.1939,-133.579"/>
</g>
<!-- Goal&#45;&gt;Goal net -->
<g id="edge19" class="edge">
<title>Goal&#45;&gt;Goal net</title>
<path fill="none" stroke="#000000" stroke-dasharray="5,2" d="M611.6706,-800.1948C562.4095,-900.9313 461.663,-1106.953 406.2684,-1220.2321"/>
<polygon fill="#000000" stroke="#000000" points="401.8697,-1229.2273 402.2202,-1218.267 404.0662,-1224.7356 406.2627,-1220.2439 406.2627,-1220.2439 406.2627,-1220.2439 404.0662,-1224.7356 410.3053,-1222.2207 401.8697,-1229.2273 401.8697,-1229.2273"/>
</g>
<!-- Goal&#45;&gt;Puck -->
<g id="edge18" class="edge">
<title>Goal&#45;&gt;Puck</title>
<path fill="none" stroke="#000000" stroke-dasharray="5,2" d="M631.9094,-806.3024C616.1796,-927.1059 582.4418,-1186.2085 565.7767,-1314.1951"/>
<polygon fill="#000000" stroke="#000000" points="564.461,-1324.2993 561.29,-1313.802 565.1067,-1319.3412 565.7523,-1314.3831 565.7523,-1314.3831 565.7523,-1314.3831 565.1067,-1319.3412 570.2146,-1314.9641 564.461,-1324.2993 564.461,-1324.2993"/>
</g>
<!-- Point&#45;&gt;Team -->
<g id="edge17" class="edge">
<title>Point&#45;&gt;Team</title>
<path fill="none" stroke="#000000" stroke-dasharray="5,2" d="M448.4343,-178.6583C395.5145,-248.3185 273.0701,-409.4964 210.9729,-491.2372"/>
<polygon fill="#000000" stroke="#000000" points="204.7938,-499.3709 207.2598,-488.6859 207.8184,-495.3895 210.8431,-491.4081 210.8431,-491.4081 210.8431,-491.4081 207.8184,-495.3895 214.4263,-494.1302 204.7938,-499.3709 204.7938,-499.3709"/>
</g>
<!-- Point&#45;&gt;Player -->
<g id="edge16" class="edge">
<title>Point&#45;&gt;Player</title>
<path fill="none" stroke="#000000" stroke-dasharray="5,2" d="M470.3915,-187.0633C462.6175,-282.7485 443.5134,-517.8901 434.6822,-626.5883"/>
<polygon fill="#000000" stroke="#000000" points="433.8604,-636.7039 430.185,-626.3723 434.2653,-631.7203 434.6702,-626.7367 434.6702,-626.7367 434.6702,-626.7367 434.2653,-631.7203 439.1555,-627.1011 433.8604,-636.7039 433.8604,-636.7039"/>
</g>
<!-- Point&#45;&gt;Goal -->
<g id="edge13" class="edge">
<title>Point&#45;&gt;Goal</title>
<path fill="none" stroke="#000000" stroke-dasharray="5,2" d="M485.1024,-185.8038C512.8681,-285.2091 584.6667,-542.2595 620.0368,-668.8897"/>
<polygon fill="#000000" stroke="#000000" points="622.8286,-678.885 615.8042,-670.4642 621.4835,-674.0693 620.1383,-669.2536 620.1383,-669.2536 620.1383,-669.2536 621.4835,-674.0693 624.4725,-668.043 622.8286,-678.885 622.8286,-678.885"/>
</g>
<!-- Shot&#45;&gt;Goal net -->
<g id="edge24" class="edge">
<title>Shot&#45;&gt;Goal net</title>
<path fill="none" stroke="#000000" stroke-dasharray="5,2" d="M701.3946,-1269.8409C633.9185,-1275.7793 529.5419,-1284.9653 455.4997,-1291.4817"/>
<polygon fill="#000000" stroke="#000000" points="445.2603,-1292.3828 454.8273,-1287.0234 450.2411,-1291.9444 455.2218,-1291.506 455.2218,-1291.506 455.2218,-1291.506 450.2411,-1291.9444 455.6164,-1295.9887 445.2603,-1292.3828 445.2603,-1292.3828"/>
</g>
<!-- Shot&#45;&gt;Stick -->
<g id="edge23" class="edge">
<title>Shot&#45;&gt;Stick</title>
<path fill="none" stroke="#000000" stroke-dasharray="5,2" d="M775.0367,-1196.6568C781.8019,-1127.1712 792.2542,-1019.8166 798.7001,-953.6105"/>
<polygon fill="#000000" stroke="#000000" points="799.6991,-943.3502 803.2088,-953.7393 799.2145,-948.3267 798.7299,-953.3032 798.7299,-953.3032 798.7299,-953.3032 799.2145,-948.3267 794.2511,-952.8671 799.6991,-943.3502 799.6991,-943.3502"/>
</g>
<!-- Shot&#45;&gt;Puck -->
<g id="edge22" class="edge">
<title>Shot&#45;&gt;Puck</title>
<path fill="none" stroke="#000000" stroke-dasharray="5,2" d="M710.4377,-1298.0773C682.7164,-1314.3815 649.4417,-1333.9519 620.8934,-1350.7425"/>
<polygon fill="#000000" stroke="#000000" points="612.1967,-1355.8574 618.5351,-1346.9088 616.5066,-1353.3226 620.8164,-1350.7877 620.8164,-1350.7877 620.8164,-1350.7877 616.5066,-1353.3226 623.0978,-1354.6666 612.1967,-1355.8574 612.1967,-1355.8574"/>
</g>
<!-- Shot&#45;&gt;Goal -->
<g id="edge21" class="edge">
<title>Shot&#45;&gt;Goal</title>
<path fill="none" stroke="#000000" stroke-dasharray="5,2" d="M752.4507,-1198.5711C728.4677,-1100.8105 683.3999,-917.1027 658.3268,-814.8982"/>
<polygon fill="#000000" stroke="#000000" points="655.8901,-804.9654 662.6431,-813.6052 657.0814,-809.8214 658.2727,-814.6774 658.2727,-814.6774 658.2727,-814.6774 657.0814,-809.8214 653.9023,-815.7496 655.8901,-804.9654 655.8901,-804.9654"/>
</g>
<!-- Flip shot -->
<g id="node14" class="node has&#45;pronunciation">
<title>Flip shot</title>
<g id="a_node14"><a xlink:href="../flip-shot.html" xlink:title="Подкидка" target="_top">
<ellipse fill="none" stroke="#c0c0c0" stroke-width=".2" cx="1140.3509" cy="-1432.2288" rx="55.7232" ry="55.7232"/>
<text text-anchor="middle" x="1140.3509" y="-1445.7288" font-family="Times,serif" font-size="15.00" fill="#000000">Flip shot</text>
<text text-anchor="middle" x="1140.3509" y="-1428.7288" font-family="Times,serif" font-size="15.00" fill="#000000">Подкидка</text>
<text text-anchor="middle" x="1140.3509" y="-1411.7288" font-family="Times,serif" font-size="15.00" fill="#000000">Флип шат</text>
</a>
</g>
</g>
<!-- Shot&#45;&gt;Flip shot -->
<g id="edge25" class="edge">
<title>Shot&#45;&gt;Flip shot</title>
<path fill="none" stroke="#000000" stroke-dasharray="5,2" d="M829.8922,-1291.7264C899.1454,-1323.0679 1011.055,-1373.7141 1079.9093,-1404.8751"/>
<polygon fill="#000000" stroke="#000000" points="1089.3303,-1409.1387 1078.3644,-1409.1153 1084.7751,-1407.0771 1080.2198,-1405.0156 1080.2198,-1405.0156 1080.2198,-1405.0156 1084.7751,-1407.0771 1082.0752,-1400.9159 1089.3303,-1409.1387 1089.3303,-1409.1387"/>
</g>
<!-- Wrist shot -->
<g id="node15" class="node has&#45;pronunciation">
<title>Wrist shot</title>
<g id="a_node15"><a xlink:href="../wrist-shot.html" xlink:title="Кистевой" target="_top">
<ellipse fill="none" stroke="#c0c0c0" stroke-width=".2" cx="1036.2018" cy="-1650.8827" rx="56.6372" ry="56.6372"/>
<text text-anchor="middle" x="1036.2018" y="-1664.3827" font-family="Times,serif" font-size="15.00" fill="#000000">Wrist shot</text>
<text text-anchor="middle" x="1036.2018" y="-1647.3827" font-family="Times,serif" font-size="15.00" fill="#000000">Кистевой</text>
<text text-anchor="middle" x="1036.2018" y="-1630.3827" font-family="Times,serif" font-size="15.00" fill="#000000">Рист шат</text>
</a>
</g>
</g>
<!-- Shot&#45;&gt;Wrist shot -->
<g id="edge26" class="edge">
<title>Shot&#45;&gt;Wrist shot</title>
<path fill="none" stroke="#000000" stroke-dasharray="5,2" d="M806.8434,-1319.3762C857.8661,-1393.1227 947.5157,-1522.699 998.3049,-1596.1079"/>
<polygon fill="#000000" stroke="#000000" points="1003.9995,-1604.3387 994.6092,-1598.6754 1001.1547,-1600.2268 998.3098,-1596.115 998.3098,-1596.115 998.3098,-1596.115 1001.1547,-1600.2268 1002.0105,-1593.5547 1003.9995,-1604.3387 1003.9995,-1604.3387"/>
</g>
<!-- Slapshot -->
<g id="node16" class="node has&#45;pronunciation">
<title>Slapshot</title>
<g id="a_node16"><a xlink:href="../slapshot.html" xlink:title="Щелчок" target="_top">
<ellipse fill="none" stroke="#c0c0c0" stroke-width=".2" cx="1084.5701" cy="-738.5558" rx="50.8235" ry="50.8235"/>
<text text-anchor="middle" x="1084.5701" y="-752.0558" font-family="Times,serif" font-size="15.00" fill="#000000">Slapshot</text>
<text text-anchor="middle" x="1084.5701" y="-735.0558" font-family="Times,serif" font-size="15.00" fill="#000000">Щелчок</text>
<text text-anchor="middle" x="1084.5701" y="-718.0558" font-family="Times,serif" font-size="15.00" fill="#000000">Слэпшат</text>
</a>
</g>
</g>
<!-- Shot&#45;&gt;Slapshot -->
<g id="edge27" class="edge">
<title>Shot&#45;&gt;Slapshot</title>
<path fill="none" stroke="#000000" stroke-dasharray="5,2" d="M803.2169,-1206.2085C865.0968,-1103.3545 993.5021,-889.925 1053.0183,-790.9999"/>
<polygon fill="#000000" stroke="#000000" points="1058.2151,-782.362 1056.9158,-793.2506 1055.6374,-786.6463 1053.0598,-790.9307 1053.0598,-790.9307 1053.0598,-790.9307 1055.6374,-786.6463 1049.2039,-788.6109 1058.2151,-782.362 1058.2151,-782.362"/>
</g>
<!-- Snap shot -->
<g id="node17" class="node has&#45;pronunciation">
<title>Snap shot</title>
<g id="a_node17"><a xlink:href="../snap-shot.html" xlink:title="Короткий щелчок" target="_top">
<ellipse fill="none" stroke="#c0c0c0" stroke-width=".2" cx="1128.8253" cy="-1134.7767" rx="91.8478" ry="91.8478"/>
<text text-anchor="middle" x="1128.8253" y="-1148.2767" font-family="Times,serif" font-size="15.00" fill="#000000">Snap shot</text>
<text text-anchor="middle" x="1128.8253" y="-1131.2767" font-family="Times,serif" font-size="15.00" fill="#000000">Короткий щелчок</text>
<text text-anchor="middle" x="1128.8253" y="-1114.2767" font-family="Times,serif" font-size="15.00" fill="#000000">Снэп шат</text>
</a>
</g>
</g>
<!-- Shot&#45;&gt;Snap shot -->
<g id="edge28" class="edge">
<title>Shot&#45;&gt;Snap shot</title>
<path fill="none" stroke="#000000" stroke-dasharray="5,2" d="M832.0782,-1241.1424C887.6176,-1221.2349 969.058,-1192.0436 1032.5778,-1169.2756"/>
<polygon fill="#000000" stroke="#000000" points="1042.2125,-1165.8221 1034.3174,-1173.4325 1037.5057,-1167.5092 1032.799,-1169.1964 1032.799,-1169.1964 1032.799,-1169.1964 1037.5057,-1167.5092 1031.2806,-1164.9603 1042.2125,-1165.8221 1042.2125,-1165.8221"/>
</g>
<!-- Backhand shot -->
<g id="node18" class="node has&#45;pronunciation">
<title>Backhand shot</title>
<g id="a_node18"><a xlink:href="../backhand-shot.html" xlink:title="С неудобной" target="_top">
<ellipse fill="none" stroke="#c0c0c0" stroke-width=".2" cx="880.3692" cy="-1925.494" rx="75.8212" ry="75.8212"/>
<text text-anchor="middle" x="880.3692" y="-1938.994" font-family="Times,serif" font-size="15.00" fill="#000000">Backhand shot</text>
<text text-anchor="middle" x="880.3692" y="-1921.994" font-family="Times,serif" font-size="15.00" fill="#000000">С неудобной</text>
<text text-anchor="middle" x="880.3692" y="-1904.994" font-family="Times,serif" font-size="15.00" fill="#000000">ˈБэкˌхэнд шат</text>
</a>
</g>
</g>
<!-- Shot&#45;&gt;Backhand shot -->
<g id="edge31" class="edge">
<title>Shot&#45;&gt;Backhand shot</title>
<path fill="none" stroke="#000000" stroke-dasharray="5,2" d="M779.7263,-1330.3979C800.1815,-1451.3482 843.4548,-1707.221 866.0118,-1840.5994"/>
<polygon fill="#000000" stroke="#000000" points="867.7318,-1850.7698 861.6272,-1841.6602 866.898,-1845.8398 866.0642,-1840.9098 866.0642,-1840.9098 866.0642,-1840.9098 866.898,-1845.8398 870.5012,-1840.1593 867.7318,-1850.7698 867.7318,-1850.7698"/>
</g>
<!-- One&#45;timer -->
<g id="node19" class="node has&#45;pronunciation">
<title>One&#45;timer</title>
<g id="a_node19"><a xlink:href="../one-timer.html" xlink:title="В одно касание" target="_top">
<ellipse fill="none" stroke="#c0c0c0" stroke-width=".2" cx="688.6468" cy="-1962.5948" rx="79.8062" ry="79.8063"/>
<text text-anchor="middle" x="688.6468" y="-1976.0948" font-family="Times,serif" font-size="15.00" fill="#000000">One&#45;timer</text>
<text text-anchor="middle" x="688.6468" y="-1959.0948" font-family="Times,serif" font-size="15.00" fill="#000000">В одно касание</text>
<text text-anchor="middle" x="688.6468" y="-1942.0948" font-family="Times,serif" font-size="15.00" fill="#000000">Уан&#45;ˈтаймэр</text>
</a>
</g>
</g>
<!-- Shot&#45;&gt;One&#45;timer -->
<g id="edge33" class="edge">
<title>Shot&#45;&gt;One&#45;timer</title>
<path fill="none" stroke="#000000" stroke-dasharray="5,2" d="M760.8309,-1330.9266C746.3854,-1457.3365 715.104,-1731.0731 698.8763,-1873.0787"/>
<polygon fill="#000000" stroke="#000000" points="697.7343,-1883.0716 694.3989,-1872.6253 698.302,-1878.1039 698.8698,-1873.1363 698.8698,-1873.1363 698.8698,-1873.1363 698.302,-1878.1039 703.3407,-1873.6472 697.7343,-1883.0716 697.7343,-1883.0716"/>
</g>
<!-- Snap shot&#45;&gt;Wrist shot -->
<g id="edge29" class="edge">
<title>Snap shot&#45;&gt;Wrist shot</title>
<path fill="none" stroke="#000000" stroke-dasharray="5,2" d="M1112.5856,-1225.2661C1094.1075,-1328.2272 1064.3769,-1493.8887 1047.9892,-1585.2022"/>
<polygon fill="#000000" stroke="#000000" points="1046.2038,-1595.1508 1043.5411,-1584.5131 1047.0871,-1590.2294 1047.9703,-1585.3081 1047.9703,-1585.3081 1047.9703,-1585.3081 1047.0871,-1590.2294 1052.3996,-1586.103 1046.2038,-1595.1508 1046.2038,-1595.1508"/>
</g>
<!-- Snap shot&#45;&gt;Slapshot -->
<g id="edge30" class="edge">
<title>Snap shot&#45;&gt;Slapshot</title>
<path fill="none" stroke="#000000" stroke-dasharray="5,2" d="M1118.6167,-1043.3781C1110.2451,-968.4266 1098.6292,-864.4286 1091.36,-799.3466"/>
<polygon fill="#000000" stroke="#000000" points="1090.2318,-789.2459 1095.8141,-798.6845 1090.7869,-794.215 1091.3419,-799.1841 1091.3419,-799.1841 1091.3419,-799.1841 1090.7869,-794.215 1086.8697,-799.6836 1090.2318,-789.2459 1090.2318,-789.2459"/>
</g>
<!-- Backhand shot&#45;&gt;Wrist shot -->
<g id="edge32" class="edge">
<title>Backhand shot&#45;&gt;Wrist shot</title>
<path fill="none" stroke="#000000" stroke-dasharray="5,2" d="M917.8933,-1859.3683C943.9282,-1813.4891 978.2795,-1752.9546 1003.2562,-1708.94"/>
<polygon fill="#000000" stroke="#000000" points="1008.2792,-1700.0885 1007.2575,-1711.0067 1005.8115,-1704.4371 1003.3438,-1708.7857 1003.3438,-1708.7857 1003.3438,-1708.7857 1005.8115,-1704.4371 999.43,-1706.5648 1008.2792,-1700.0885 1008.2792,-1700.0885"/>
</g>
<!-- Hockey -->
<g id="node20" class="node root has&#45;pronunciation">
<title>Hockey</title>
<g id="a_node20"><a xlink:href="../hockey.html" xlink:title="Хоккей" target="_top">
<ellipse fill="none" stroke="#c0c0c0" stroke-width=".2" cx="478.3544" cy="-952.4755" rx="45.011" ry="45.011"/>
<text text-anchor="middle" x="478.3544" y="-965.9755" font-family="Times,serif" font-size="15.00" fill="#000000">Hockey</text>
<text text-anchor="middle" x="478.3544" y="-948.9755" font-family="Times,serif" font-size="15.00" fill="#000000">Хоккей</text>
<text text-anchor="middle" x="478.3544" y="-931.9755" font-family="Times,serif" font-size="15.00" fill="#000000">ˈХаки</text>
</a>
</g>
</g>
<!-- Hockey&#45;&gt;Team -->
<g id="edge34" class="edge">
<title>Hockey&#45;&gt;Team</title>
<path fill="none" stroke="#000000" stroke-dasharray="5,2" d="M451.2924,-915.932C396.4874,-841.9254 272.3236,-674.2592 210.2199,-590.3966"/>
<polygon fill="#000000" stroke="#000000" points="204.2271,-582.3041 213.7947,-587.6624 207.2027,-586.3223 210.1783,-590.3405 210.1783,-590.3405 210.1783,-590.3405 207.2027,-586.3223 206.562,-593.0185 204.2271,-582.3041 204.2271,-582.3041"/>
</g>
<!-- Hockey&#45;&gt;Player -->
<g id="edge37" class="edge">
<title>Hockey&#45;&gt;Player</title>
<path fill="none" stroke="#000000" stroke-dasharray="5,2" d="M470.3267,-907.7383C462.0474,-861.5991 449.1148,-789.5282 440.151,-739.5747"/>
<polygon fill="#000000" stroke="#000000" points="438.3577,-729.5809 444.5533,-738.6289 439.2409,-734.5023 440.124,-739.4237 440.124,-739.4237 440.124,-739.4237 439.2409,-734.5023 435.6947,-740.2185 438.3577,-729.5809 438.3577,-729.5809"/>
</g>
<!-- Hockey&#45;&gt;Goal net -->
<g id="edge40" class="edge">
<title>Hockey&#45;&gt;Goal net</title>
<path fill="none" stroke="#000000" stroke-dasharray="5,2" d="M464.5569,-995.6891C447.0632,-1050.4791 416.52,-1146.1402 394.3901,-1215.4508"/>
<polygon fill="#000000" stroke="#000000" points="391.3255,-1225.0489 390.0804,-1214.154 392.8463,-1220.2858 394.3672,-1215.5227 394.3672,-1215.5227 394.3672,-1215.5227 392.8463,-1220.2858 398.654,-1216.8915 391.3255,-1225.0489 391.3255,-1225.0489"/>
</g>
<!-- Hockey&#45;&gt;Stick -->
<g id="edge38" class="edge">
<title>Hockey&#45;&gt;Stick</title>
<path fill="none" stroke="#000000" stroke-dasharray="5,2" d="M523.0098,-944.5744C581.0398,-934.3068 682.4817,-916.358 746.4137,-905.0462"/>
<polygon fill="#000000" stroke="#000000" points="756.3399,-903.2898 747.2769,-909.4634 751.4164,-904.161 746.4929,-905.0322 746.4929,-905.0322 746.4929,-905.0322 751.4164,-904.161 745.7088,-900.601 756.3399,-903.2898 756.3399,-903.2898"/>
</g>
<!-- Hockey&#45;&gt;Puck -->
<g id="edge39" class="edge">
<title>Hockey&#45;&gt;Puck</title>
<path fill="none" stroke="#000000" stroke-dasharray="5,2" d="M486.3043,-997.1274C499.6317,-1071.9829 526.6121,-1223.5232 542.8316,-1314.6231"/>
<polygon fill="#000000" stroke="#000000" points="544.609,-1324.6063 538.4258,-1315.55 543.7326,-1319.6838 542.8561,-1314.7612 542.8561,-1314.7612 542.8561,-1314.7612 543.7326,-1319.6838 547.2864,-1313.9723 544.609,-1324.6063 544.609,-1324.6063"/>
</g>
<!-- Hockey&#45;&gt;Sport -->
<g id="edge35" class="edge">
<title>Hockey&#45;&gt;Sport</title>
<path fill="none" stroke="#000000" stroke-dasharray="5,2" d="M461.7793,-909.9573C441.526,-857.208 406.8655,-764.3001 381.7995,-683.1415 339.7284,-546.9244 300.0213,-383.1808 281.3559,-303.3872"/>
<polygon fill="#000000" stroke="#000000" points="279.0779,-293.6183 285.7314,-302.335 280.2135,-298.4877 281.349,-303.357 281.349,-303.357 281.349,-303.357 280.2135,-298.4877 276.9666,-304.379 279.0779,-293.6183 279.0779,-293.6183"/>
</g>
<!-- Hockey&#45;&gt;Goal -->
<g id="edge41" class="edge">
<title>Hockey&#45;&gt;Goal</title>
<path fill="none" stroke="#000000" stroke-dasharray="5,2" d="M506.2004,-916.2198C530.3359,-884.7951 565.7449,-838.6923 594.1226,-801.7442"/>
<polygon fill="#000000" stroke="#000000" points="600.4327,-793.5284 597.9103,-804.2003 597.3871,-797.4938 594.3415,-801.4592 594.3415,-801.4592 594.3415,-801.4592 597.3871,-797.4938 590.7726,-798.7182 600.4327,-793.5284 600.4327,-793.5284"/>
</g>
<!-- Hockey&#45;&gt;Shot -->
<g id="edge36" class="edge">
<title>Hockey&#45;&gt;Shot</title>
<path fill="none" stroke="#000000" stroke-dasharray="5,2" d="M509.4036,-985.8073C558.5693,-1038.5874 654.9377,-1142.0402 715.2794,-1206.8179"/>
<polygon fill="#000000" stroke="#000000" points="722.4539,-1214.5199 712.3451,-1210.2699 719.0459,-1210.8613 715.6378,-1207.2027 715.6378,-1207.2027 715.6378,-1207.2027 719.0459,-1210.8613 718.9305,-1204.1354 722.4539,-1214.5199 722.4539,-1214.5199"/>
</g>
</g>
</svg>
