<?xml version="1.0" encoding="UTF-8" standalone="no"?>
<?xml-stylesheet href="../static/svg.css" type="text/css"?>
<!DOCTYPE svg PUBLIC "-//W3C//DTD SVG 1.1//EN"
 "http://www.w3.org/Graphics/SVG/1.1/DTD/svg11.dtd">
<!-- Generated by graphviz version 2.40.1 (20161225.0304)
 -->
<!-- Title: term Pages: 1 -->
<svg width="350pt" height="576pt"
 viewBox="0.00 0.00 350.47 576.15" xmlns="http://www.w3.org/2000/svg" xmlns:xlink="http://www.w3.org/1999/xlink">
<g id="graph0" class="graph" transform="scale(1 1) rotate(0) translate(4 572.1536)">
<title>term</title>
<!-- Snap shot -->
<g id="node1" class="node root has&#45;pronunciation">
<title>Snap shot</title>
<g id="a_node1"><a xlink:href="javascript:history.back()" xlink:title="Короткий щелчок" target="_top">
<ellipse fill="none" stroke="#c0c0c0" stroke-width=".2" cx="91.9239" cy="-268.411" rx="91.8478" ry="91.8478"/>
<text text-anchor="middle" x="91.9239" y="-281.911" font-family="Times,serif" font-size="15.00" fill="#000000">Snap shot</text>
<text text-anchor="middle" x="91.9239" y="-264.911" font-family="Times,serif" font-size="15.00" fill="#000000">Короткий щелчок</text>
<text text-anchor="middle" x="91.9239" y="-247.911" font-family="Times,serif" font-size="15.00" fill="#000000">Снэп шат</text>
</a>
</g>
</g>
<!-- Wrist shot -->
<g id="node3" class="node has&#45;pronunciation">
<title>Wrist shot</title>
<g id="a_node3"><a xlink:href="../wrist-shot.html" xlink:title="Кистевой" target="_top">
<ellipse fill="none" stroke="#c0c0c0" stroke-width=".2" cx="208.7322" cy="-56.5685" rx="56.6372" ry="56.6372"/>
<text text-anchor="middle" x="208.7322" y="-70.0685" font-family="Times,serif" font-size="15.00" fill="#000000">Wrist shot</text>
<text text-anchor="middle" x="208.7322" y="-53.0685" font-family="Times,serif" font-size="15.00" fill="#000000">Кистевой</text>
<text text-anchor="middle" x="208.7322" y="-36.0685" font-family="Times,serif" font-size="15.00" fill="#000000">Рист шат</text>
</a>
</g>
</g>
<!-- Snap shot&#45;&gt;Wrist shot -->
<g id="edge4" class="edge">
<title>Snap shot&#45;&gt;Wrist shot</title>
<path fill="none" stroke="#000000" stroke-dasharray="5,2" d="M136.4173,-187.7182C149.677,-163.6705 163.9524,-137.7807 176.2881,-115.409"/>
<polygon fill="#000000" stroke="#000000" points="181.2686,-106.3763 180.3807,-117.3062 178.8543,-110.7548 176.44,-115.1333 176.44,-115.1333 176.44,-115.1333 178.8543,-110.7548 172.4993,-112.9605 181.2686,-106.3763 181.2686,-106.3763"/>
</g>
<!-- Slapshot -->
<g id="node4" class="node has&#45;pronunciation">
<title>Slapshot</title>
<g id="a_node4"><a xlink:href="../slapshot.html" xlink:title="Щелчок" target="_top">
<ellipse fill="none" stroke="#c0c0c0" stroke-width=".2" cx="157.861" cy="-517.2419" rx="50.8235" ry="50.8235"/>
<text text-anchor="middle" x="157.861" y="-530.7419" font-family="Times,serif" font-size="15.00" fill="#000000">Slapshot</text>
<text text-anchor="middle" x="157.861" y="-513.7419" font-family="Times,serif" font-size="15.00" fill="#000000">Щелчок</text>
<text text-anchor="middle" x="157.861" y="-496.7419" font-family="Times,serif" font-size="15.00" fill="#000000">Слэпшат</text>
</a>
</g>
</g>
<!-- Snap shot&#45;&gt;Slapshot -->
<g id="edge5" class="edge">
<title>Snap shot&#45;&gt;Slapshot</title>
<path fill="none" stroke="#000000" stroke-dasharray="5,2" d="M115.5424,-357.5419C124.3736,-390.8687 134.1806,-427.8778 142.1284,-457.8708"/>
<polygon fill="#000000" stroke="#000000" points="144.7483,-467.7578 137.8369,-459.2442 143.4675,-462.9246 142.1868,-458.0915 142.1868,-458.0915 142.1868,-458.0915 143.4675,-462.9246 146.5366,-456.9388 144.7483,-467.7578 144.7483,-467.7578"/>
</g>
<!-- Shot -->
<g id="node2" class="node has&#45;pronunciation">
<title>Shot</title>
<g id="a_node2"><a xlink:href="../shot.html" xlink:title="Бросок" target="_top">
<ellipse fill="none" stroke="#c0c0c0" stroke-width=".2" cx="275.2929" cy="-305.5127" rx="67.3507" ry="67.3507"/>
<text text-anchor="middle" x="275.2929" y="-327.5127" font-family="Times,serif" font-size="25.00" fill="#000000">Shot</text>
<text text-anchor="middle" x="275.2929" y="-299.5127" font-family="Times,serif" font-size="25.00" fill="#000000">Бросок</text>
<text text-anchor="middle" x="275.2929" y="-271.5127" font-family="Times,serif" font-size="25.00" fill="#000000">Шат</text>
</a>
</g>
</g>
<!-- Shot&#45;&gt;Snap shot -->
<g id="edge3" class="edge">
<title>Shot&#45;&gt;Snap shot</title>
<path fill="none" stroke="#000000" stroke-dasharray="5,2" d="M209.3516,-292.1706C203.6947,-291.026 197.8957,-289.8527 192.0504,-288.67"/>
<polygon fill="#000000" stroke="#000000" points="182.1867,-286.6742 192.8806,-284.2468 187.0874,-287.6659 191.9881,-288.6575 191.9881,-288.6575 191.9881,-288.6575 187.0874,-287.6659 191.0957,-293.0681 182.1867,-286.6742 182.1867,-286.6742"/>
</g>
<!-- Shot&#45;&gt;Wrist shot -->
<g id="edge1" class="edge">
<title>Shot&#45;&gt;Wrist shot</title>
<path fill="none" stroke="#000000" stroke-dasharray="5,2" d="M257.8918,-240.4307C248.104,-203.8232 235.9227,-158.2637 226.1346,-121.6553"/>
<polygon fill="#000000" stroke="#000000" points="223.4413,-111.5821 230.3717,-120.0804 224.7328,-116.4124 226.0244,-121.2428 226.0244,-121.2428 226.0244,-121.2428 224.7328,-116.4124 221.6771,-122.4051 223.4413,-111.5821 223.4413,-111.5821"/>
</g>
<!-- Shot&#45;&gt;Slapshot -->
<g id="edge2" class="edge">
<title>Shot&#45;&gt;Slapshot</title>
<path fill="none" stroke="#000000" stroke-dasharray="5,2" d="M242.5816,-364.4911C225.3607,-395.5403 204.3999,-433.3326 187.636,-463.5576"/>
<polygon fill="#000000" stroke="#000000" points="182.577,-472.6791 183.492,-461.7514 185.0021,-468.3066 187.4273,-463.9341 187.4273,-463.9341 187.4273,-463.9341 185.0021,-468.3066 191.3626,-466.1167 182.577,-472.6791 182.577,-472.6791"/>
</g>
</g>
</svg>
