<?xml version="1.0" encoding="UTF-8" standalone="no"?>
<?xml-stylesheet href="../static/svg.css" type="text/css"?>
<!DOCTYPE svg PUBLIC "-//W3C//DTD SVG 1.1//EN"
 "http://www.w3.org/Graphics/SVG/1.1/DTD/svg11.dtd">
<!-- Generated by graphviz version 2.40.1 (20161225.0304)
 -->
<!-- Title: term Pages: 1 -->
<svg width="256pt" height="354pt"
 viewBox="0.00 0.00 255.93 354.03" xmlns="http://www.w3.org/2000/svg" xmlns:xlink="http://www.w3.org/1999/xlink">
<g id="graph0" class="graph" transform="scale(1 1) rotate(0) translate(4 350.0251)">
<title>term</title>
<!-- Period -->
<g id="node1" class="node root has&#45;pronunciation">
<title>Period</title>
<g id="a_node1"><a xlink:href="javascript:history.back()" xlink:title="Период" target="_top">
<ellipse fill="none" stroke="#c0c0c0" stroke-width=".2" cx="48.0833" cy="-291.9794" rx="48.1667" ry="48.1667"/>
<text text-anchor="middle" x="48.0833" y="-305.4794" font-family="Times,serif" font-size="15.00" fill="#000000">Period</text>
<text text-anchor="middle" x="48.0833" y="-288.4794" font-family="Times,serif" font-size="15.00" fill="#000000">Период</text>
<text text-anchor="middle" x="48.0833" y="-271.4794" font-family="Times,serif" font-size="15.00" fill="#000000">ˈПириэд</text>
</a>
</g>
</g>
<!-- Game -->
<g id="node2" class="node has&#45;pronunciation">
<title>Game</title>
<g id="a_node2"><a xlink:href="../game.html" xlink:title="Игра" target="_top">
<ellipse fill="none" stroke="#c0c0c0" stroke-width=".2" cx="195.6034" cy="-293.6992" rx="52.1524" ry="52.1524"/>
<text text-anchor="middle" x="195.6034" y="-310.6992" font-family="Times,serif" font-size="20.00" fill="#000000">Game</text>
<text text-anchor="middle" x="195.6034" y="-288.6992" font-family="Times,serif" font-size="20.00" fill="#000000">Игра</text>
<text text-anchor="middle" x="195.6034" y="-266.6992" font-family="Times,serif" font-size="20.00" fill="#000000">Гейм</text>
</a>
</g>
</g>
<!-- Game&#45;&gt;Period -->
<g id="edge2" class="edge">
<title>Game&#45;&gt;Period</title>
<path fill="none" stroke="#000000" stroke-dasharray="5,2" d="M143.178,-293.088C131.2732,-292.9492 118.5573,-292.801 106.424,-292.6595"/>
<polygon fill="#000000" stroke="#000000" points="96.3996,-292.5427 106.4515,-288.1597 101.3993,-292.601 106.399,-292.6594 106.399,-292.6594 106.399,-292.6594 101.3993,-292.601 106.3465,-297.159 96.3996,-292.5427 96.3996,-292.5427"/>
</g>
<!-- Overtime -->
<g id="node3" class="node has&#45;pronunciation">
<title>Overtime</title>
<g id="a_node3"><a xlink:href="../overtime.html" xlink:title="Овертайм" target="_top">
<ellipse fill="none" stroke="#c0c0c0" stroke-width=".2" cx="122.8422" cy="-67.1751" rx="67.3507" ry="67.3507"/>
<text text-anchor="middle" x="122.8422" y="-80.6751" font-family="Times,serif" font-size="15.00" fill="#000000">Overtime</text>
<text text-anchor="middle" x="122.8422" y="-63.6751" font-family="Times,serif" font-size="15.00" fill="#000000">Овертайм</text>
<text text-anchor="middle" x="122.8422" y="-46.6751" font-family="Times,serif" font-size="15.00" fill="#000000">ˈОувэрˌтайм</text>
</a>
</g>
</g>
<!-- Game&#45;&gt;Overtime -->
<g id="edge1" class="edge">
<title>Game&#45;&gt;Overtime</title>
<path fill="none" stroke="#000000" stroke-dasharray="5,2" d="M179.5456,-243.7071C169.8706,-213.5865 157.3723,-174.6761 146.5728,-141.0543"/>
<polygon fill="#000000" stroke="#000000" points="143.4286,-131.2657 150.7713,-139.4104 144.9577,-136.0262 146.4869,-140.7866 146.4869,-140.7866 146.4869,-140.7866 144.9577,-136.0262 142.2025,-142.1628 143.4286,-131.2657 143.4286,-131.2657"/>
</g>
<!-- Overtime&#45;&gt;Period -->
<g id="edge3" class="edge">
<title>Overtime&#45;&gt;Period</title>
<path fill="none" stroke="#000000" stroke-dasharray="5,2" d="M101.6193,-130.9937C90.548,-164.2856 77.1352,-204.6185 66.5047,-236.5852"/>
<polygon fill="#000000" stroke="#000000" points="63.3006,-246.2202 62.1861,-235.3111 64.8784,-241.4757 66.4562,-236.7311 66.4562,-236.7311 66.4562,-236.7311 64.8784,-241.4757 70.7263,-238.1512 63.3006,-246.2202 63.3006,-246.2202"/>
</g>
</g>
</svg>
