<?xml version="1.0" encoding="UTF-8" standalone="no"?>
<?xml-stylesheet href="../static/svg.css" type="text/css"?>
<!DOCTYPE svg PUBLIC "-//W3C//DTD SVG 1.1//EN"
 "http://www.w3.org/Graphics/SVG/1.1/DTD/svg11.dtd">
<!-- Generated by graphviz version 2.40.1 (20161225.0304)
 -->
<!-- Title: term Pages: 1 -->
<svg width="352pt" height="571pt"
 viewBox="0.00 0.00 352.48 570.86" xmlns="http://www.w3.org/2000/svg" xmlns:xlink="http://www.w3.org/1999/xlink">
<g id="graph0" class="graph" transform="scale(1 1) rotate(0) translate(4 566.8633)">
<title>term</title>
<!-- Player -->
<g id="node1" class="node root has&#45;pronunciation">
<title>Player</title>
<g id="a_node1"><a xlink:href="javascript:history.back()" xlink:title="Игрок" target="_top">
<ellipse fill="none" stroke="#c0c0c0" stroke-width=".2" cx="153.6585" cy="-281.3835" rx="46.8387" ry="46.8387"/>
<text text-anchor="middle" x="153.6585" y="-294.8835" font-family="Times,serif" font-size="15.00" fill="#000000">Player</text>
<text text-anchor="middle" x="153.6585" y="-277.8835" font-family="Times,serif" font-size="15.00" fill="#000000">Игрок</text>
<text text-anchor="middle" x="153.6585" y="-260.8835" font-family="Times,serif" font-size="15.00" fill="#000000">&#39;Плейэр</text>
</a>
</g>
</g>
<!-- Goal -->
<g id="node6" class="node has&#45;pronunciation">
<title>Goal</title>
<g id="a_node6"><a xlink:href="../goal.html" xlink:title="Гол" target="_top">
<ellipse fill="none" stroke="#c0c0c0" stroke-width=".2" cx="192.3285" cy="-497.8094" rx="65.1077" ry="65.1077"/>
<text text-anchor="middle" x="192.3285" y="-519.8094" font-family="Times,serif" font-size="25.00" fill="#000000">Goal</text>
<text text-anchor="middle" x="192.3285" y="-491.8094" font-family="Times,serif" font-size="25.00" fill="#000000">Гол</text>
<text text-anchor="middle" x="192.3285" y="-463.8094" font-family="Times,serif" font-size="25.00" fill="#000000">Гoул</text>
</a>
</g>
</g>
<!-- Player&#45;&gt;Goal -->
<g id="edge12" class="edge">
<title>Player&#45;&gt;Goal</title>
<path fill="none" stroke="#000000" stroke-dasharray="5,2" d="M161.9067,-327.5468C166.8906,-355.44 173.3588,-391.6407 179.0487,-423.4861"/>
<polygon fill="#000000" stroke="#000000" points="180.8659,-433.6564 174.6771,-424.6039 179.9864,-428.7344 179.107,-423.8123 179.107,-423.8123 179.107,-423.8123 179.9864,-428.7344 183.5368,-423.0208 180.8659,-433.6564 180.8659,-433.6564"/>
</g>
<!-- Sport -->
<g id="node7" class="node">
<title>Sport</title>
<g id="a_node7"><a xlink:href="../sport.html" xlink:title="Спорт" target="_top">
<ellipse fill="none" stroke="#c0c0c0" stroke-width=".2" cx="39.598" cy="-149.7183" rx="39.6962" ry="39.6962"/>
<text text-anchor="middle" x="39.598" y="-154.7183" font-family="Times,serif" font-size="15.00" fill="#000000">Sport</text>
<text text-anchor="middle" x="39.598" y="-137.7183" font-family="Times,serif" font-size="15.00" fill="#000000">Спорт</text>
</a>
</g>
</g>
<!-- Player&#45;&gt;Sport -->
<g id="edge13" class="edge">
<title>Player&#45;&gt;Sport</title>
<path fill="none" stroke="#000000" stroke-dasharray="5,2" d="M123.0923,-246.0996C107.3871,-227.9704 88.2414,-205.8696 72.2473,-187.407"/>
<polygon fill="#000000" stroke="#000000" points="65.6049,-179.7393 75.5539,-184.3512 68.8788,-183.5185 72.1527,-187.2977 72.1527,-187.2977 72.1527,-187.2977 68.8788,-183.5185 68.7514,-190.2441 65.6049,-179.7393 65.6049,-179.7393"/>
</g>
<!-- Team -->
<g id="node2" class="node has&#45;pronunciation">
<title>Team</title>
<g id="a_node2"><a xlink:href="../team.html" xlink:title="Команда" target="_top">
<ellipse fill="none" stroke="#c0c0c0" stroke-width=".2" cx="149.6389" cy="-126.7326" rx="51.7379" ry="51.7379"/>
<text text-anchor="middle" x="149.6389" y="-140.2326" font-family="Times,serif" font-size="15.00" fill="#000000">Team</text>
<text text-anchor="middle" x="149.6389" y="-123.2326" font-family="Times,serif" font-size="15.00" fill="#000000">Команда</text>
<text text-anchor="middle" x="149.6389" y="-106.2326" font-family="Times,serif" font-size="15.00" fill="#000000">Тим</text>
</a>
</g>
</g>
<!-- Team&#45;&gt;Player -->
<g id="edge8" class="edge">
<title>Team&#45;&gt;Player</title>
<path fill="none" stroke="#000000" stroke-dasharray="5,2" d="M150.9885,-178.6593C151.3703,-193.3464 151.7878,-209.4087 152.1768,-224.3775"/>
<polygon fill="#000000" stroke="#000000" points="152.4408,-234.5355 147.6824,-224.6559 152.3109,-229.5372 152.1809,-224.5389 152.1809,-224.5389 152.1809,-224.5389 152.3109,-229.5372 156.6794,-224.4219 152.4408,-234.5355 152.4408,-234.5355"/>
</g>
<!-- Team&#45;&gt;Sport -->
<g id="edge1" class="edge">
<title>Team&#45;&gt;Sport</title>
<path fill="none" stroke="#000000" stroke-dasharray="5,2" d="M98.8059,-137.3508C95.2634,-138.0908 91.6976,-138.8356 88.1677,-139.5729"/>
<polygon fill="#000000" stroke="#000000" points="78.3641,-141.6207 87.2326,-135.171 83.2584,-140.5983 88.1528,-139.576 88.1528,-139.576 88.1528,-139.576 83.2584,-140.5983 89.0729,-143.9809 78.3641,-141.6207 78.3641,-141.6207"/>
</g>
<!-- Opponent -->
<g id="node3" class="node has&#45;pronunciation">
<title>Opponent</title>
<g id="a_node3"><a xlink:href="../opponent.html" xlink:title="Противник" target="_top">
<ellipse fill="none" stroke="#c0c0c0" stroke-width=".2" cx="283.6724" cy="-60.8112" rx="60.623" ry="60.623"/>
<text text-anchor="middle" x="283.6724" y="-74.3112" font-family="Times,serif" font-size="15.00" fill="#000000">Opponent</text>
<text text-anchor="middle" x="283.6724" y="-57.3112" font-family="Times,serif" font-size="15.00" fill="#000000">Противник</text>
<text text-anchor="middle" x="283.6724" y="-40.3112" font-family="Times,serif" font-size="15.00" fill="#000000">Эˈпoунэнт</text>
</a>
</g>
</g>
<!-- Opponent&#45;&gt;Player -->
<g id="edge9" class="edge">
<title>Opponent&#45;&gt;Player</title>
<path fill="none" stroke="#000000" stroke-dasharray="5,2" d="M252.696,-113.3635C231.4392,-149.4263 203.4216,-196.9589 182.6125,-232.2622"/>
<polygon fill="#000000" stroke="#000000" points="177.4858,-240.9597 178.6871,-230.0598 180.0248,-236.6523 182.5638,-232.3449 182.5638,-232.3449 182.5638,-232.3449 180.0248,-236.6523 186.4404,-234.63 177.4858,-240.9597 177.4858,-240.9597"/>
</g>
<!-- Opponent&#45;&gt;Team -->
<g id="edge2" class="edge">
<title>Opponent&#45;&gt;Team</title>
<path fill="none" stroke="#000000" stroke-dasharray="5,2" d="M228.7691,-87.8141C220.9748,-91.6476 212.9543,-95.5923 205.1486,-99.4314"/>
<polygon fill="#000000" stroke="#000000" points="196.1103,-103.8766 203.0977,-95.4252 200.597,-101.6699 205.0838,-99.4632 205.0838,-99.4632 205.0838,-99.4632 200.597,-101.6699 207.0698,-103.5013 196.1103,-103.8766 196.1103,-103.8766"/>
</g>
<!-- Point -->
<g id="node4" class="node has&#45;pronunciation">
<title>Point</title>
<g id="a_node4"><a xlink:href="../point.html" xlink:title="Очко" target="_top">
<ellipse fill="none" stroke="#c0c0c0" stroke-width=".2" cx="46.0578" cy="-393.9979" rx="41.9398" ry="41.9398"/>
<text text-anchor="middle" x="46.0578" y="-407.4979" font-family="Times,serif" font-size="15.00" fill="#000000">Point</text>
<text text-anchor="middle" x="46.0578" y="-390.4979" font-family="Times,serif" font-size="15.00" fill="#000000">Очко</text>
<text text-anchor="middle" x="46.0578" y="-373.4979" font-family="Times,serif" font-size="15.00" fill="#000000">Пойнт</text>
</a>
</g>
</g>
<!-- Point&#45;&gt;Player -->
<g id="edge10" class="edge">
<title>Point&#45;&gt;Player</title>
<path fill="none" stroke="#000000" stroke-dasharray="5,2" d="M74.8928,-363.8193C86.9734,-351.1758 101.2119,-336.2738 114.237,-322.6418"/>
<polygon fill="#000000" stroke="#000000" points="121.3268,-315.2216 117.6721,-325.5606 117.8727,-318.8367 114.4185,-322.4518 114.4185,-322.4518 114.4185,-322.4518 117.8727,-318.8367 111.1649,-319.3431 121.3268,-315.2216 121.3268,-315.2216"/>
</g>
<!-- Point&#45;&gt;Team -->
<g id="edge4" class="edge">
<title>Point&#45;&gt;Team</title>
<path fill="none" stroke="#000000" stroke-dasharray="5,2" d="M61.2303,-354.849C78.6344,-309.9419 107.3341,-235.8897 127.2945,-184.3868"/>
<polygon fill="#000000" stroke="#000000" points="130.9151,-175.0446 131.4973,-185.9951 129.1082,-179.7067 127.3014,-184.3689 127.3014,-184.3689 127.3014,-184.3689 129.1082,-179.7067 123.1055,-182.7427 130.9151,-175.0446 130.9151,-175.0446"/>
</g>
<!-- Point&#45;&gt;Goal -->
<g id="edge3" class="edge">
<title>Point&#45;&gt;Goal</title>
<path fill="none" stroke="#000000" stroke-dasharray="5,2" d="M80.3518,-418.3371C95.3728,-428.9979 113.4734,-441.8442 130.7003,-454.0705"/>
<polygon fill="#000000" stroke="#000000" points="139.0696,-460.0104 128.3102,-457.8924 134.9922,-457.1166 130.9147,-454.2227 130.9147,-454.2227 130.9147,-454.2227 134.9922,-457.1166 133.5192,-450.553 139.0696,-460.0104 139.0696,-460.0104"/>
</g>
<!-- Hockey -->
<g id="node5" class="node has&#45;pronunciation">
<title>Hockey</title>
<g id="a_node5"><a xlink:href="../hockey.html" xlink:title="Хоккей" target="_top">
<ellipse fill="none" stroke="#c0c0c0" stroke-width=".2" cx="253.5823" cy="-291.9289" rx="45.011" ry="45.011"/>
<text text-anchor="middle" x="253.5823" y="-305.4289" font-family="Times,serif" font-size="15.00" fill="#000000">Hockey</text>
<text text-anchor="middle" x="253.5823" y="-288.4289" font-family="Times,serif" font-size="15.00" fill="#000000">Хоккей</text>
<text text-anchor="middle" x="253.5823" y="-271.4289" font-family="Times,serif" font-size="15.00" fill="#000000">ˈХаки</text>
</a>
</g>
</g>
<!-- Hockey&#45;&gt;Player -->
<g id="edge11" class="edge">
<title>Hockey&#45;&gt;Player</title>
<path fill="none" stroke="#000000" stroke-dasharray="5,2" d="M208.2982,-287.1499C208.2143,-287.141 208.1304,-287.1322 208.0464,-287.1233"/>
<polygon fill="#000000" stroke="#000000" points="200.2196,-286.2973 210.6367,-282.8718 205.192,-286.8221 210.1643,-287.3469 210.1643,-287.3469 210.1643,-287.3469 205.192,-286.8221 209.692,-291.8221 200.2196,-286.2973 200.2196,-286.2973"/>
</g>
<!-- Hockey&#45;&gt;Team -->
<g id="edge5" class="edge">
<title>Hockey&#45;&gt;Team</title>
<path fill="none" stroke="#000000" stroke-dasharray="5,2" d="M229.4744,-253.6143C215.587,-231.5432 197.9311,-203.4829 182.7561,-179.3654"/>
<polygon fill="#000000" stroke="#000000" points="177.2891,-170.6768 186.4235,-176.7442 179.9519,-174.9087 182.6147,-179.1407 182.6147,-179.1407 182.6147,-179.1407 179.9519,-174.9087 178.806,-181.5373 177.2891,-170.6768 177.2891,-170.6768"/>
</g>
<!-- Hockey&#45;&gt;Goal -->
<g id="edge7" class="edge">
<title>Hockey&#45;&gt;Goal</title>
<path fill="none" stroke="#000000" stroke-dasharray="5,2" d="M240.6668,-335.3393C232.8755,-361.5269 222.7541,-395.5459 213.7876,-425.6833"/>
<polygon fill="#000000" stroke="#000000" points="210.9214,-435.3169 209.46,-424.4489 212.3472,-430.5246 213.7731,-425.7322 213.7731,-425.7322 213.7731,-425.7322 212.3472,-430.5246 218.0863,-427.0155 210.9214,-435.3169 210.9214,-435.3169"/>
</g>
<!-- Hockey&#45;&gt;Sport -->
<g id="edge6" class="edge">
<title>Hockey&#45;&gt;Sport</title>
<path fill="none" stroke="#000000" stroke-dasharray="5,2" d="M215.9019,-266.2831C206.8178,-260.1335 197.1309,-253.6034 188.1128,-247.5782 152.2431,-223.6123 111.2921,-196.659 81.489,-177.1168"/>
<polygon fill="#000000" stroke="#000000" points="73.0047,-171.5562 83.8352,-173.2741 77.1866,-174.297 81.3685,-177.0378 81.3685,-177.0378 81.3685,-177.0378 77.1866,-174.297 78.9018,-180.8015 73.0047,-171.5562 73.0047,-171.5562"/>
</g>
</g>
</svg>
