<?xml version="1.0" encoding="UTF-8" standalone="no"?>
<?xml-stylesheet href="../static/svg.css" type="text/css"?>
<!DOCTYPE svg PUBLIC "-//W3C//DTD SVG 1.1//EN"
 "http://www.w3.org/Graphics/SVG/1.1/DTD/svg11.dtd">
<!-- Generated by graphviz version 2.40.1 (20161225.0304)
 -->
<!-- Title: term Pages: 1 -->
<svg width="256pt" height="352pt"
 viewBox="0.00 0.00 256.30 352.37" xmlns="http://www.w3.org/2000/svg" xmlns:xlink="http://www.w3.org/1999/xlink">
<g id="graph0" class="graph" transform="scale(1 1) rotate(0) translate(4 348.3699)">
<title>term</title>
<!-- Shootout -->
<g id="node1" class="node root has&#45;pronunciation">
<title>Shootout</title>
<g id="a_node1"><a xlink:href="javascript:history.back()" xlink:title="Буллиты" target="_top">
<ellipse fill="none" stroke="#c0c0c0" stroke-width=".2" cx="50.9117" cy="-290.3207" rx="50.8235" ry="50.8235"/>
<text text-anchor="middle" x="50.9117" y="-303.8207" font-family="Times,serif" font-size="15.00" fill="#000000">Shootout</text>
<text text-anchor="middle" x="50.9117" y="-286.8207" font-family="Times,serif" font-size="15.00" fill="#000000">Буллиты</text>
<text text-anchor="middle" x="50.9117" y="-269.8207" font-family="Times,serif" font-size="15.00" fill="#000000">ˈШутaут</text>
</a>
</g>
</g>
<!-- Winner -->
<g id="node3" class="node has&#45;pronunciation">
<title>Winner</title>
<g id="a_node3"><a xlink:href="../winner.html" xlink:title="Победитель" target="_top">
<ellipse fill="none" stroke="#c0c0c0" stroke-width=".2" cx="124.4269" cy="-65.0538" rx="65.1077" ry="65.1077"/>
<text text-anchor="middle" x="124.4269" y="-78.5538" font-family="Times,serif" font-size="15.00" fill="#000000">Winner</text>
<text text-anchor="middle" x="124.4269" y="-61.5538" font-family="Times,serif" font-size="15.00" fill="#000000">Победитель</text>
<text text-anchor="middle" x="124.4269" y="-44.5538" font-family="Times,serif" font-size="15.00" fill="#000000">ˈУинэр</text>
</a>
</g>
</g>
<!-- Shootout&#45;&gt;Winner -->
<g id="edge3" class="edge">
<title>Shootout&#45;&gt;Winner</title>
<path fill="none" stroke="#000000" stroke-dasharray="5,2" d="M66.7729,-241.7185C76.723,-211.229 89.7323,-171.3658 100.8745,-137.2236"/>
<polygon fill="#000000" stroke="#000000" points="104.1148,-127.2945 105.2902,-138.1972 102.5635,-132.0478 101.0123,-136.8011 101.0123,-136.8011 101.0123,-136.8011 102.5635,-132.0478 96.7343,-135.405 104.1148,-127.2945 104.1148,-127.2945"/>
</g>
<!-- Game -->
<g id="node2" class="node has&#45;pronunciation">
<title>Game</title>
<g id="a_node2"><a xlink:href="../game.html" xlink:title="Игра" target="_top">
<ellipse fill="none" stroke="#c0c0c0" stroke-width=".2" cx="195.9775" cy="-292.044" rx="52.1524" ry="52.1524"/>
<text text-anchor="middle" x="195.9775" y="-309.044" font-family="Times,serif" font-size="20.00" fill="#000000">Game</text>
<text text-anchor="middle" x="195.9775" y="-287.044" font-family="Times,serif" font-size="20.00" fill="#000000">Игра</text>
<text text-anchor="middle" x="195.9775" y="-265.044" font-family="Times,serif" font-size="20.00" fill="#000000">Гейм</text>
</a>
</g>
</g>
<!-- Game&#45;&gt;Shootout -->
<g id="edge2" class="edge">
<title>Game&#45;&gt;Shootout</title>
<path fill="none" stroke="#000000" stroke-dasharray="5,2" d="M143.6054,-291.4218C133.5014,-291.3018 122.8303,-291.175 112.4655,-291.0519"/>
<polygon fill="#000000" stroke="#000000" points="102.2351,-290.9304 112.2879,-286.5496 107.2347,-290.9898 112.2344,-291.0493 112.2344,-291.0493 112.2344,-291.0493 107.2347,-290.9898 112.1809,-295.5489 102.2351,-290.9304 102.2351,-290.9304"/>
</g>
<!-- Winner&#45;&gt;Game -->
<g id="edge1" class="edge">
<title>Winner&#45;&gt;Game</title>
<path fill="none" stroke="#000000" stroke-dasharray="5,2" d="M144.073,-127.3801C154.3834,-160.0892 166.9543,-199.9695 177.1422,-232.2901"/>
<polygon fill="#000000" stroke="#000000" points="180.2223,-242.0616 172.9241,-233.8771 178.7191,-237.2929 177.2159,-232.5242 177.2159,-232.5242 177.2159,-232.5242 178.7191,-237.2929 181.5077,-231.1713 180.2223,-242.0616 180.2223,-242.0616"/>
</g>
</g>
</svg>
