<?xml version="1.0" encoding="UTF-8" standalone="no"?>
<?xml-stylesheet href="../static/svg.css" type="text/css"?>
<!DOCTYPE svg PUBLIC "-//W3C//DTD SVG 1.1//EN"
 "http://www.w3.org/Graphics/SVG/1.1/DTD/svg11.dtd">
<!-- Generated by graphviz version 2.40.1 (20161225.0304)
 -->
<!-- Title: term Pages: 1 -->
<svg width="315pt" height="540pt"
 viewBox="0.00 0.00 315.11 540.01" xmlns="http://www.w3.org/2000/svg" xmlns:xlink="http://www.w3.org/1999/xlink">
<g id="graph0" class="graph" transform="scale(1 1) rotate(0) translate(4 536.0119)">
<title>term</title>
<!-- Wrist shot -->
<g id="node1" class="node root has&#45;pronunciation">
<title>Wrist shot</title>
<g id="a_node1"><a xlink:href="javascript:history.back()" xlink:title="Кистевой" target="_top">
<ellipse fill="none" stroke="#c0c0c0" stroke-width=".2" cx="56.5685" cy="-259.1822" rx="56.6372" ry="56.6372"/>
<text text-anchor="middle" x="56.5685" y="-272.6822" font-family="Times,serif" font-size="15.00" fill="#000000">Wrist shot</text>
<text text-anchor="middle" x="56.5685" y="-255.6822" font-family="Times,serif" font-size="15.00" fill="#000000">Кистевой</text>
<text text-anchor="middle" x="56.5685" y="-238.6822" font-family="Times,serif" font-size="15.00" fill="#000000">Рист шат</text>
</a>
</g>
</g>
<!-- Shot -->
<g id="node2" class="node has&#45;pronunciation">
<title>Shot</title>
<g id="a_node2"><a xlink:href="../shot.html" xlink:title="Бросок" target="_top">
<ellipse fill="none" stroke="#c0c0c0" stroke-width=".2" cx="239.9376" cy="-288.4755" rx="67.3507" ry="67.3507"/>
<text text-anchor="middle" x="239.9376" y="-310.4755" font-family="Times,serif" font-size="25.00" fill="#000000">Shot</text>
<text text-anchor="middle" x="239.9376" y="-282.4755" font-family="Times,serif" font-size="25.00" fill="#000000">Бросок</text>
<text text-anchor="middle" x="239.9376" y="-254.4755" font-family="Times,serif" font-size="25.00" fill="#000000">Шат</text>
</a>
</g>
</g>
<!-- Shot&#45;&gt;Wrist shot -->
<g id="edge3" class="edge">
<title>Shot&#45;&gt;Wrist shot</title>
<path fill="none" stroke="#000000" stroke-dasharray="5,2" d="M173.4779,-277.8585C156.9267,-275.2145 139.1862,-272.3804 122.6531,-269.7393"/>
<polygon fill="#000000" stroke="#000000" points="112.5363,-268.1231 123.121,-265.257 117.4737,-268.9119 122.4111,-269.7007 122.4111,-269.7007 122.4111,-269.7007 117.4737,-268.9119 121.7012,-274.1443 112.5363,-268.1231 112.5363,-268.1231"/>
</g>
<!-- Snap shot -->
<g id="node3" class="node has&#45;pronunciation">
<title>Snap shot</title>
<g id="a_node3"><a xlink:href="../snap-shot.html" xlink:title="Короткий щелчок" target="_top">
<ellipse fill="none" stroke="#c0c0c0" stroke-width=".2" cx="173.3769" cy="-91.9239" rx="91.8478" ry="91.8478"/>
<text text-anchor="middle" x="173.3769" y="-105.4239" font-family="Times,serif" font-size="15.00" fill="#000000">Snap shot</text>
<text text-anchor="middle" x="173.3769" y="-88.4239" font-family="Times,serif" font-size="15.00" fill="#000000">Короткий щелчок</text>
<text text-anchor="middle" x="173.3769" y="-71.4239" font-family="Times,serif" font-size="15.00" fill="#000000">Снэп шат</text>
</a>
</g>
</g>
<!-- Shot&#45;&gt;Snap shot -->
<g id="edge1" class="edge">
<title>Shot&#45;&gt;Snap shot</title>
<path fill="none" stroke="#000000" stroke-dasharray="5,2" d="M218.3272,-224.6608C214.4334,-213.1625 210.2956,-200.9435 206.1677,-188.7542"/>
<polygon fill="#000000" stroke="#000000" points="202.8643,-178.9993 210.3341,-187.0276 204.4681,-183.7352 206.0719,-188.471 206.0719,-188.471 206.0719,-188.471 204.4681,-183.7352 201.8096,-189.9144 202.8643,-178.9993 202.8643,-178.9993"/>
</g>
<!-- Backhand shot -->
<g id="node4" class="node has&#45;pronunciation">
<title>Backhand shot</title>
<g id="a_node4"><a xlink:href="../backhand-shot.html" xlink:title="С неудобной" target="_top">
<ellipse fill="none" stroke="#c0c0c0" stroke-width=".2" cx="122.5056" cy="-455.6444" rx="76.2353" ry="76.2353"/>
<text text-anchor="middle" x="122.5056" y="-469.1444" font-family="Times,serif" font-size="15.00" fill="#000000">Backhand shot</text>
<text text-anchor="middle" x="122.5056" y="-452.1444" font-family="Times,serif" font-size="15.00" fill="#000000">С неудобной</text>
<text text-anchor="middle" x="122.5056" y="-435.1444" font-family="Times,serif" font-size="15.00" fill="#000000">ˈБэкˌхэнд шат</text>
</a>
</g>
</g>
<!-- Shot&#45;&gt;Backhand shot -->
<g id="edge2" class="edge">
<title>Shot&#45;&gt;Backhand shot</title>
<path fill="none" stroke="#000000" stroke-dasharray="5,2" d="M201.1605,-343.6761C191.9766,-356.7498 182.0542,-370.8747 172.4519,-384.5439"/>
<polygon fill="#000000" stroke="#000000" points="166.524,-392.9826 168.59,-382.2131 169.3981,-388.8912 172.2722,-384.7998 172.2722,-384.7998 172.2722,-384.7998 169.3981,-388.8912 175.9545,-387.3865 166.524,-392.9826 166.524,-392.9826"/>
</g>
<!-- Snap shot&#45;&gt;Wrist shot -->
<g id="edge4" class="edge">
<title>Snap shot&#45;&gt;Wrist shot</title>
<path fill="none" stroke="#000000" stroke-dasharray="5,2" d="M120.441,-167.723C111.892,-179.9643 103.1854,-192.4313 95.0625,-204.0626"/>
<polygon fill="#000000" stroke="#000000" points="89.2615,-212.369 91.2978,-201.5939 92.1244,-208.2697 94.9872,-204.1704 94.9872,-204.1704 94.9872,-204.1704 92.1244,-208.2697 98.6766,-206.747 89.2615,-212.369 89.2615,-212.369"/>
</g>
<!-- Backhand shot&#45;&gt;Wrist shot -->
<g id="edge5" class="edge">
<title>Backhand shot&#45;&gt;Wrist shot</title>
<path fill="none" stroke="#000000" stroke-dasharray="5,2" d="M98.1404,-383.0473C91.4872,-363.2236 84.3313,-341.9024 77.8636,-322.6317"/>
<polygon fill="#000000" stroke="#000000" points="74.6502,-313.0572 82.0982,-321.1056 76.2411,-317.7973 77.832,-322.5375 77.832,-322.5375 77.832,-322.5375 76.2411,-317.7973 73.5659,-323.9693 74.6502,-313.0572 74.6502,-313.0572"/>
</g>
</g>
</svg>
