<?xml version="1.0" encoding="UTF-8" standalone="no"?>
<?xml-stylesheet href="../static/svg.css" type="text/css"?>
<!DOCTYPE svg PUBLIC "-//W3C//DTD SVG 1.1//EN"
 "http://www.w3.org/Graphics/SVG/1.1/DTD/svg11.dtd">
<!-- Generated by graphviz version 2.40.1 (20161225.0304)
 -->
<!-- Title: term Pages: 1 -->
<svg width="693pt" height="1142pt"
 viewBox="0.00 0.00 692.52 1141.68" xmlns="http://www.w3.org/2000/svg" xmlns:xlink="http://www.w3.org/1999/xlink">
<g id="graph0" class="graph" transform="scale(1 1) rotate(0) translate(4 1137.6841)">
<title>term</title>
<!-- Game -->
<g id="node1" class="node root has&#45;pronunciation">
<title>Game</title>
<g id="a_node1"><a xlink:href="javascript:history.back()" xlink:title="Игра" target="_top">
<ellipse fill="none" stroke="#c0c0c0" stroke-width=".2" cx="312.3066" cy="-500.0183" rx="52.1524" ry="52.1524"/>
<text text-anchor="middle" x="312.3066" y="-517.0183" font-family="Times,serif" font-size="20.00" fill="#000000">Game</text>
<text text-anchor="middle" x="312.3066" y="-495.0183" font-family="Times,serif" font-size="20.00" fill="#000000">Игра</text>
<text text-anchor="middle" x="312.3066" y="-473.0183" font-family="Times,serif" font-size="20.00" fill="#000000">Гейм</text>
</a>
</g>
</g>
<!-- Team -->
<g id="node6" class="node has&#45;pronunciation">
<title>Team</title>
<g id="a_node6"><a xlink:href="../team.html" xlink:title="Команда" target="_top">
<ellipse fill="none" stroke="#c0c0c0" stroke-width=".2" cx="320.34" cy="-863.2955" rx="51.7379" ry="51.7379"/>
<text text-anchor="middle" x="320.34" y="-876.7955" font-family="Times,serif" font-size="15.00" fill="#000000">Team</text>
<text text-anchor="middle" x="320.34" y="-859.7955" font-family="Times,serif" font-size="15.00" fill="#000000">Команда</text>
<text text-anchor="middle" x="320.34" y="-842.7955" font-family="Times,serif" font-size="15.00" fill="#000000">Тим</text>
</a>
</g>
</g>
<!-- Game&#45;&gt;Team -->
<g id="edge14" class="edge">
<title>Game&#45;&gt;Team</title>
<path fill="none" stroke="#000000" stroke-dasharray="5,2" d="M313.4662,-552.4539C314.9239,-618.3762 317.4228,-731.3744 318.9723,-801.4474"/>
<polygon fill="#000000" stroke="#000000" points="319.1938,-811.4639 314.4738,-801.5658 319.0832,-806.4651 318.9727,-801.4663 318.9727,-801.4663 318.9727,-801.4663 319.0832,-806.4651 323.4716,-801.3668 319.1938,-811.4639 319.1938,-811.4639"/>
</g>
<!-- Rink -->
<g id="node7" class="node has&#45;pronunciation">
<title>Rink</title>
<g id="a_node7"><a xlink:href="../rink.html" xlink:title="Площадка" target="_top">
<ellipse fill="none" stroke="#c0c0c0" stroke-width=".2" cx="57.2756" cy="-138.6887" rx="57.0522" ry="57.0522"/>
<text text-anchor="middle" x="57.2756" y="-152.1887" font-family="Times,serif" font-size="15.00" fill="#000000">Rink</text>
<text text-anchor="middle" x="57.2756" y="-135.1887" font-family="Times,serif" font-size="15.00" fill="#000000">Площадка</text>
<text text-anchor="middle" x="57.2756" y="-118.1887" font-family="Times,serif" font-size="15.00" fill="#000000">Ринк</text>
</a>
</g>
</g>
<!-- Game&#45;&gt;Rink -->
<g id="edge15" class="edge">
<title>Game&#45;&gt;Rink</title>
<path fill="none" stroke="#000000" stroke-dasharray="5,2" d="M282.0497,-457.1501C235.7716,-391.583 147.4155,-266.3995 96.3496,-194.049"/>
<polygon fill="#000000" stroke="#000000" points="90.3122,-185.4952 99.7552,-191.0702 93.1955,-189.5802 96.0787,-193.6651 96.0787,-193.6651 96.0787,-193.6651 93.1955,-189.5802 92.4022,-196.2601 90.3122,-185.4952 90.3122,-185.4952"/>
</g>
<!-- Period -->
<g id="node8" class="node has&#45;pronunciation">
<title>Period</title>
<g id="a_node8"><a xlink:href="../period.html" xlink:title="Период" target="_top">
<ellipse fill="none" stroke="#c0c0c0" stroke-width=".2" cx="635.7345" cy="-308.3095" rx="48.5816" ry="48.5816"/>
<text text-anchor="middle" x="635.7345" y="-321.8095" font-family="Times,serif" font-size="15.00" fill="#000000">Period</text>
<text text-anchor="middle" x="635.7345" y="-304.8095" font-family="Times,serif" font-size="15.00" fill="#000000">Период</text>
<text text-anchor="middle" x="635.7345" y="-287.8095" font-family="Times,serif" font-size="15.00" fill="#000000">ˈПириэд</text>
</a>
</g>
</g>
<!-- Game&#45;&gt;Period -->
<g id="edge16" class="edge">
<title>Game&#45;&gt;Period</title>
<path fill="none" stroke="#000000" stroke-dasharray="5,2" d="M357.6184,-473.1601C417.354,-437.7524 522.1683,-375.6248 584.6537,-338.5872"/>
<polygon fill="#000000" stroke="#000000" points="593.5554,-333.3108 587.2475,-342.2809 589.2542,-335.8603 584.953,-338.4098 584.953,-338.4098 584.953,-338.4098 589.2542,-335.8603 582.6584,-334.5387 593.5554,-333.3108 593.5554,-333.3108"/>
</g>
<!-- Overtime -->
<g id="node9" class="node has&#45;pronunciation">
<title>Overtime</title>
<g id="a_node9"><a xlink:href="../overtime.html" xlink:title="Овертайм" target="_top">
<ellipse fill="none" stroke="#c0c0c0" stroke-width=".2" cx="380.7798" cy="-77.7066" rx="68.6788" ry="68.6788"/>
<text text-anchor="middle" x="380.7798" y="-91.2066" font-family="Times,serif" font-size="15.00" fill="#000000">Overtime</text>
<text text-anchor="middle" x="380.7798" y="-74.2066" font-family="Times,serif" font-size="15.00" fill="#000000">Овертайм</text>
<text text-anchor="middle" x="380.7798" y="-57.2066" font-family="Times,serif" font-size="15.00" fill="#000000">ˈОувэрˌтайм</text>
</a>
</g>
</g>
<!-- Game&#45;&gt;Overtime -->
<g id="edge17" class="edge">
<title>Game&#45;&gt;Overtime</title>
<path fill="none" stroke="#000000" stroke-dasharray="5,2" d="M320.7028,-448.2346C332.5712,-375.0355 354.3445,-240.7472 368.1636,-155.5177"/>
<polygon fill="#000000" stroke="#000000" points="369.7665,-145.6315 372.6079,-156.2229 368.9662,-150.5671 368.1659,-155.5026 368.1659,-155.5026 368.1659,-155.5026 368.9662,-150.5671 363.7239,-154.7824 369.7665,-145.6315 369.7665,-145.6315"/>
</g>
<!-- Shootout -->
<g id="node10" class="node has&#45;pronunciation">
<title>Shootout</title>
<g id="a_node10"><a xlink:href="../shootout.html" xlink:title="Буллиты" target="_top">
<ellipse fill="none" stroke="#c0c0c0" stroke-width=".2" cx="517.8508" cy="-50.9117" rx="50.8235" ry="50.8235"/>
<text text-anchor="middle" x="517.8508" y="-64.4117" font-family="Times,serif" font-size="15.00" fill="#000000">Shootout</text>
<text text-anchor="middle" x="517.8508" y="-47.4117" font-family="Times,serif" font-size="15.00" fill="#000000">Буллиты</text>
<text text-anchor="middle" x="517.8508" y="-30.4117" font-family="Times,serif" font-size="15.00" fill="#000000">ˈШутaут</text>
</a>
</g>
</g>
<!-- Game&#45;&gt;Shootout -->
<g id="edge18" class="edge">
<title>Game&#45;&gt;Shootout</title>
<path fill="none" stroke="#000000" stroke-dasharray="5,2" d="M334.1088,-452.3812C372.4273,-368.6569 451.643,-195.5735 492.4009,-106.5188"/>
<polygon fill="#000000" stroke="#000000" points="496.5801,-97.3874 496.5103,-108.3531 494.4993,-101.9339 492.4185,-106.4804 492.4185,-106.4804 492.4185,-106.4804 494.4993,-101.9339 488.3267,-104.6076 496.5801,-97.3874 496.5801,-97.3874"/>
</g>
<!-- Sport -->
<g id="node2" class="node">
<title>Sport</title>
<g id="a_node2"><a xlink:href="../sport.html" xlink:title="Спорт" target="_top">
<ellipse fill="none" stroke="#c0c0c0" stroke-width=".2" cx="449.6188" cy="-1094.0862" rx="39.6962" ry="39.6962"/>
<text text-anchor="middle" x="449.6188" y="-1099.0862" font-family="Times,serif" font-size="15.00" fill="#000000">Sport</text>
<text text-anchor="middle" x="449.6188" y="-1082.0862" font-family="Times,serif" font-size="15.00" fill="#000000">Спорт</text>
</a>
</g>
</g>
<!-- Sport&#45;&gt;Game -->
<g id="edge10" class="edge">
<title>Sport&#45;&gt;Game</title>
<path fill="none" stroke="#000000" stroke-dasharray="5,2" d="M440.6094,-1055.1077C417.2511,-954.0501 354.5993,-682.9933 326.4014,-560.9979"/>
<polygon fill="#000000" stroke="#000000" points="324.1066,-551.0697 330.7431,-559.7994 325.2326,-555.9412 326.3587,-560.8128 326.3587,-560.8128 326.3587,-560.8128 325.2326,-555.9412 321.9743,-561.8262 324.1066,-551.0697 324.1066,-551.0697"/>
</g>
<!-- Player -->
<g id="node3" class="node has&#45;pronunciation">
<title>Player</title>
<g id="a_node3"><a xlink:href="../player.html" xlink:title="Игрок" target="_top">
<ellipse fill="none" stroke="#c0c0c0" stroke-width=".2" cx="177.4635" cy="-1041.9951" rx="46.8387" ry="46.8387"/>
<text text-anchor="middle" x="177.4635" y="-1055.4951" font-family="Times,serif" font-size="15.00" fill="#000000">Player</text>
<text text-anchor="middle" x="177.4635" y="-1038.4951" font-family="Times,serif" font-size="15.00" fill="#000000">Игрок</text>
<text text-anchor="middle" x="177.4635" y="-1021.4951" font-family="Times,serif" font-size="15.00" fill="#000000">&#39;Плейэр</text>
</a>
</g>
</g>
<!-- Player&#45;&gt;Game -->
<g id="edge11" class="edge">
<title>Player&#45;&gt;Game</title>
<path fill="none" stroke="#000000" stroke-dasharray="5,2" d="M188.844,-996.2536C213.1032,-898.748 269.9085,-670.4297 297.1767,-560.8304"/>
<polygon fill="#000000" stroke="#000000" points="299.6422,-550.9205 301.5946,-561.7111 298.435,-555.7725 297.2278,-560.6246 297.2278,-560.6246 297.2278,-560.6246 298.435,-555.7725 292.8609,-559.5381 299.6422,-550.9205 299.6422,-550.9205"/>
</g>
<!-- Player&#45;&gt;Sport -->
<g id="edge1" class="edge">
<title>Player&#45;&gt;Sport</title>
<path fill="none" stroke="#000000" stroke-dasharray="5,2" d="M223.3232,-1050.7728C272.5017,-1060.1856 350.2926,-1075.0749 400.6415,-1084.7118"/>
<polygon fill="#000000" stroke="#000000" points="410.6386,-1086.6253 399.9709,-1089.1651 405.7278,-1085.6853 400.8169,-1084.7453 400.8169,-1084.7453 400.8169,-1084.7453 405.7278,-1085.6853 401.6629,-1080.3255 410.6386,-1086.6253 410.6386,-1086.6253"/>
</g>
<!-- Hockey -->
<g id="node4" class="node has&#45;pronunciation">
<title>Hockey</title>
<g id="a_node4"><a xlink:href="../hockey.html" xlink:title="Хоккей" target="_top">
<ellipse fill="none" stroke="#c0c0c0" stroke-width=".2" cx="53.4688" cy="-707.6823" rx="45.011" ry="45.011"/>
<text text-anchor="middle" x="53.4688" y="-721.1823" font-family="Times,serif" font-size="15.00" fill="#000000">Hockey</text>
<text text-anchor="middle" x="53.4688" y="-704.1823" font-family="Times,serif" font-size="15.00" fill="#000000">Хоккей</text>
<text text-anchor="middle" x="53.4688" y="-687.1823" font-family="Times,serif" font-size="15.00" fill="#000000">ˈХаки</text>
</a>
</g>
</g>
<!-- Hockey&#45;&gt;Game -->
<g id="edge12" class="edge">
<title>Hockey&#45;&gt;Game</title>
<path fill="none" stroke="#000000" stroke-dasharray="5,2" d="M88.9164,-679.2429C134.1264,-642.9712 212.5307,-580.0679 263.4011,-539.2549"/>
<polygon fill="#000000" stroke="#000000" points="271.3198,-532.9018 266.3359,-542.6696 267.4198,-536.0307 263.5198,-539.1597 263.5198,-539.1597 263.5198,-539.1597 267.4198,-536.0307 260.7038,-535.6497 271.3198,-532.9018 271.3198,-532.9018"/>
</g>
<!-- Hockey&#45;&gt;Player -->
<g id="edge3" class="edge">
<title>Hockey&#45;&gt;Player</title>
<path fill="none" stroke="#000000" stroke-dasharray="5,2" d="M69.2988,-750.3628C91.8252,-811.0982 133.1115,-922.4137 157.6437,-988.557"/>
<polygon fill="#000000" stroke="#000000" points="161.1374,-997.9767 153.4407,-990.1657 159.3986,-993.2888 157.6598,-988.6008 157.6598,-988.6008 157.6598,-988.6008 159.3986,-993.2888 161.879,-987.0359 161.1374,-997.9767 161.1374,-997.9767"/>
</g>
<!-- Hockey&#45;&gt;Team -->
<g id="edge2" class="edge">
<title>Hockey&#45;&gt;Team</title>
<path fill="none" stroke="#000000" stroke-dasharray="5,2" d="M92.8466,-730.6436C138.8989,-757.4968 215.3635,-802.0835 266.784,-832.0669"/>
<polygon fill="#000000" stroke="#000000" points="275.4461,-837.1177 264.5406,-835.9678 271.1267,-834.5991 266.8074,-832.0804 266.8074,-832.0804 266.8074,-832.0804 271.1267,-834.5991 269.0742,-828.193 275.4461,-837.1177 275.4461,-837.1177"/>
</g>
<!-- Winner -->
<g id="node5" class="node has&#45;pronunciation">
<title>Winner</title>
<g id="a_node5"><a xlink:href="../winner.html" xlink:title="Победитель" target="_top">
<ellipse fill="none" stroke="#c0c0c0" stroke-width=".2" cx="532.3818" cy="-528.1835" rx="65.1077" ry="65.1077"/>
<text text-anchor="middle" x="532.3818" y="-541.6835" font-family="Times,serif" font-size="15.00" fill="#000000">Winner</text>
<text text-anchor="middle" x="532.3818" y="-524.6835" font-family="Times,serif" font-size="15.00" fill="#000000">Победитель</text>
<text text-anchor="middle" x="532.3818" y="-507.6835" font-family="Times,serif" font-size="15.00" fill="#000000">ˈУинэр</text>
</a>
</g>
</g>
<!-- Winner&#45;&gt;Game -->
<g id="edge13" class="edge">
<title>Winner&#45;&gt;Game</title>
<path fill="none" stroke="#000000" stroke-dasharray="5,2" d="M467.839,-519.9233C438.3407,-516.1481 403.5483,-511.6954 374.3583,-507.9596"/>
<polygon fill="#000000" stroke="#000000" points="364.285,-506.6705 374.7753,-503.4764 369.2445,-507.3052 374.2041,-507.94 374.2041,-507.94 374.2041,-507.94 369.2445,-507.3052 373.6328,-512.4036 364.285,-506.6705 364.285,-506.6705"/>
</g>
<!-- Winner&#45;&gt;Team -->
<g id="edge4" class="edge">
<title>Winner&#45;&gt;Team</title>
<path fill="none" stroke="#000000" stroke-dasharray="5,2" d="M497.3675,-583.5204C457.4546,-646.5989 392.6938,-748.9471 353.5492,-810.8116"/>
<polygon fill="#000000" stroke="#000000" points="347.9656,-819.6359 349.51,-808.7793 350.6391,-815.4106 353.3126,-811.1854 353.3126,-811.1854 353.3126,-811.1854 350.6391,-815.4106 357.1153,-813.5916 347.9656,-819.6359 347.9656,-819.6359"/>
</g>
<!-- Team&#45;&gt;Sport -->
<g id="edge6" class="edge">
<title>Team&#45;&gt;Sport</title>
<path fill="none" stroke="#000000" stroke-dasharray="5,2" d="M345.5732,-908.3421C368.5953,-949.4415 402.4017,-1009.7934 425.1736,-1050.446"/>
<polygon fill="#000000" stroke="#000000" points="430.1415,-1059.3149 421.3283,-1052.7896 427.6979,-1054.9526 425.2544,-1050.5904 425.2544,-1050.5904 425.2544,-1050.5904 427.6979,-1054.9526 429.1804,-1048.3912 430.1415,-1059.3149 430.1415,-1059.3149"/>
</g>
<!-- Team&#45;&gt;Player -->
<g id="edge5" class="edge">
<title>Team&#45;&gt;Player</title>
<path fill="none" stroke="#000000" stroke-dasharray="5,2" d="M287.9191,-903.8452C265.6429,-931.7067 236.0652,-968.7004 213.1235,-997.3942"/>
<polygon fill="#000000" stroke="#000000" points="206.8403,-1005.2527 209.5704,-994.6321 209.9627,-1001.3475 213.0851,-997.4423 213.0851,-997.4423 213.0851,-997.4423 209.9627,-1001.3475 216.5998,-1000.2524 206.8403,-1005.2527 206.8403,-1005.2527"/>
</g>
<!-- Overtime&#45;&gt;Winner -->
<g id="edge8" class="edge">
<title>Overtime&#45;&gt;Winner</title>
<path fill="none" stroke="#000000" stroke-dasharray="5,2" d="M402.6621,-142.7287C430.7309,-226.1333 479.2506,-370.307 508.3292,-456.7123"/>
<polygon fill="#000000" stroke="#000000" points="511.6023,-466.4382 504.1477,-458.3959 510.0075,-461.6994 508.4126,-456.9605 508.4126,-456.9605 508.4126,-456.9605 510.0075,-461.6994 512.6776,-455.5252 511.6023,-466.4382 511.6023,-466.4382"/>
</g>
<!-- Overtime&#45;&gt;Period -->
<g id="edge7" class="edge">
<title>Overtime&#45;&gt;Period</title>
<path fill="none" stroke="#000000" stroke-dasharray="5,2" d="M431.7609,-123.8183C478.6041,-166.1873 547.3155,-228.3358 591.791,-268.5632"/>
<polygon fill="#000000" stroke="#000000" points="599.2576,-275.3167 588.8226,-271.946 595.5494,-271.9627 591.8412,-268.6086 591.8412,-268.6086 591.8412,-268.6086 595.5494,-271.9627 594.8598,-265.2713 599.2576,-275.3167 599.2576,-275.3167"/>
</g>
<!-- Shootout&#45;&gt;Winner -->
<g id="edge9" class="edge">
<title>Shootout&#45;&gt;Winner</title>
<path fill="none" stroke="#000000" stroke-dasharray="5,2" d="M519.4059,-101.9881C521.9728,-186.2969 527.1085,-354.981 530.0915,-452.957"/>
<polygon fill="#000000" stroke="#000000" points="530.3999,-463.0864 525.5976,-453.228 530.2477,-458.0887 530.0955,-453.0911 530.0955,-453.0911 530.0955,-453.0911 530.2477,-458.0887 534.5934,-452.9541 530.3999,-463.0864 530.3999,-463.0864"/>
</g>
</g>
</svg>
