<?xml version="1.0" encoding="UTF-8" standalone="no"?>
<?xml-stylesheet href="../static/svg.css" type="text/css"?>
<!DOCTYPE svg PUBLIC "-//W3C//DTD SVG 1.1//EN"
 "http://www.w3.org/Graphics/SVG/1.1/DTD/svg11.dtd">
<!-- Generated by graphviz version 2.40.1 (20161225.0304)
 -->
<!-- Title: term Pages: 1 -->
<svg width="284pt" height="427pt"
 viewBox="0.00 0.00 284.29 426.77" xmlns="http://www.w3.org/2000/svg" xmlns:xlink="http://www.w3.org/1999/xlink">
<g id="graph0" class="graph" transform="scale(1 1) rotate(0) translate(4 422.7693)">
<title>term</title>
<!-- Sport -->
<g id="node1" class="node root ">
<title>Sport</title>
<g id="a_node1"><a xlink:href="javascript:history.back()" xlink:title="Спорт" target="_top">
<ellipse fill="none" stroke="#c0c0c0" stroke-width=".2" cx="39.598" cy="-185.8675" rx="39.6962" ry="39.6962"/>
<text text-anchor="middle" x="39.598" y="-190.8675" font-family="Times,serif" font-size="15.00" fill="#000000">Sport</text>
<text text-anchor="middle" x="39.598" y="-173.8675" font-family="Times,serif" font-size="15.00" fill="#000000">Спорт</text>
</a>
</g>
</g>
<!-- Team -->
<g id="node2" class="node has&#45;pronunciation">
<title>Team</title>
<g id="a_node2"><a xlink:href="../team.html" xlink:title="Команда" target="_top">
<ellipse fill="none" stroke="#c0c0c0" stroke-width=".2" cx="224.6743" cy="-234.2066" rx="51.7379" ry="51.7379"/>
<text text-anchor="middle" x="224.6743" y="-247.7066" font-family="Times,serif" font-size="15.00" fill="#000000">Team</text>
<text text-anchor="middle" x="224.6743" y="-230.7066" font-family="Times,serif" font-size="15.00" fill="#000000">Команда</text>
<text text-anchor="middle" x="224.6743" y="-213.7066" font-family="Times,serif" font-size="15.00" fill="#000000">Тим</text>
</a>
</g>
</g>
<!-- Team&#45;&gt;Sport -->
<g id="edge4" class="edge">
<title>Team&#45;&gt;Sport</title>
<path fill="none" stroke="#000000" stroke-dasharray="5,2" d="M174.59,-221.1253C147.631,-214.0841 114.5347,-205.4398 87.8601,-198.4728"/>
<polygon fill="#000000" stroke="#000000" points="77.9775,-195.8916 88.7901,-194.0648 82.8152,-197.1552 87.6529,-198.4188 87.6529,-198.4188 87.6529,-198.4188 82.8152,-197.1552 86.5157,-202.7727 77.9775,-195.8916 77.9775,-195.8916"/>
</g>
<!-- Player -->
<g id="node3" class="node has&#45;pronunciation">
<title>Player</title>
<g id="a_node3"><a xlink:href="../player.html" xlink:title="Игрок" target="_top">
<ellipse fill="none" stroke="#c0c0c0" stroke-width=".2" cx="145.7542" cy="-46.669" rx="46.8387" ry="46.8387"/>
<text text-anchor="middle" x="145.7542" y="-60.169" font-family="Times,serif" font-size="15.00" fill="#000000">Player</text>
<text text-anchor="middle" x="145.7542" y="-43.169" font-family="Times,serif" font-size="15.00" fill="#000000">Игрок</text>
<text text-anchor="middle" x="145.7542" y="-26.169" font-family="Times,serif" font-size="15.00" fill="#000000">&#39;Плейэр</text>
</a>
</g>
</g>
<!-- Team&#45;&gt;Player -->
<g id="edge1" class="edge">
<title>Team&#45;&gt;Player</title>
<path fill="none" stroke="#000000" stroke-dasharray="5,2" d="M204.5552,-186.3977C193.3619,-159.7991 179.4101,-126.6455 167.906,-99.3084"/>
<polygon fill="#000000" stroke="#000000" points="163.9475,-89.9018 171.9741,-97.3735 165.8869,-94.5104 167.8264,-99.1189 167.8264,-99.1189 167.8264,-99.1189 165.8869,-94.5104 163.6787,-100.8644 163.9475,-89.9018 163.9475,-89.9018"/>
</g>
<!-- Player&#45;&gt;Sport -->
<g id="edge5" class="edge">
<title>Player&#45;&gt;Sport</title>
<path fill="none" stroke="#000000" stroke-dasharray="5,2" d="M117.3063,-83.9717C102.6894,-103.1382 84.8704,-126.5035 69.9848,-146.0225"/>
<polygon fill="#000000" stroke="#000000" points="63.8027,-154.1288 66.2886,-143.4484 66.8347,-150.153 69.8668,-146.1772 69.8668,-146.1772 69.8668,-146.1772 66.8347,-150.153 73.445,-148.9061 63.8027,-154.1288 63.8027,-154.1288"/>
</g>
<!-- Hockey -->
<g id="node4" class="node has&#45;pronunciation">
<title>Hockey</title>
<g id="a_node4"><a xlink:href="../hockey.html" xlink:title="Хоккей" target="_top">
<ellipse fill="none" stroke="#c0c0c0" stroke-width=".2" cx="118.3247" cy="-373.5144" rx="45.011" ry="45.011"/>
<text text-anchor="middle" x="118.3247" y="-387.0144" font-family="Times,serif" font-size="15.00" fill="#000000">Hockey</text>
<text text-anchor="middle" x="118.3247" y="-370.0144" font-family="Times,serif" font-size="15.00" fill="#000000">Хоккей</text>
<text text-anchor="middle" x="118.3247" y="-353.0144" font-family="Times,serif" font-size="15.00" fill="#000000">ˈХаки</text>
</a>
</g>
</g>
<!-- Hockey&#45;&gt;Sport -->
<g id="edge6" class="edge">
<title>Hockey&#45;&gt;Sport</title>
<path fill="none" stroke="#000000" stroke-dasharray="5,2" d="M100.6569,-331.4028C88.262,-301.8592 71.6933,-262.3675 58.9431,-231.977"/>
<polygon fill="#000000" stroke="#000000" points="54.9477,-222.4539 62.9661,-229.9343 56.8821,-227.0646 58.8165,-231.6752 58.8165,-231.6752 58.8165,-231.6752 56.8821,-227.0646 54.667,-233.4162 54.9477,-222.4539 54.9477,-222.4539"/>
</g>
<!-- Hockey&#45;&gt;Team -->
<g id="edge2" class="edge">
<title>Hockey&#45;&gt;Team</title>
<path fill="none" stroke="#000000" stroke-dasharray="5,2" d="M145.9892,-337.2766C158.5313,-320.8476 173.5549,-301.1681 187.0976,-283.4285"/>
<polygon fill="#000000" stroke="#000000" points="193.2015,-275.433 190.7103,-286.1121 190.1674,-279.4072 187.1334,-283.3815 187.1334,-283.3815 187.1334,-283.3815 190.1674,-279.4072 183.5566,-280.6509 193.2015,-275.433 193.2015,-275.433"/>
</g>
<!-- Hockey&#45;&gt;Player -->
<g id="edge3" class="edge">
<title>Hockey&#45;&gt;Player</title>
<path fill="none" stroke="#000000" stroke-dasharray="5,2" d="M122.1098,-328.4111C127.0242,-269.8531 135.6045,-167.6106 140.9663,-103.7208"/>
<polygon fill="#000000" stroke="#000000" points="141.8307,-93.4213 145.4785,-103.7627 141.4125,-98.4038 140.9943,-103.3863 140.9943,-103.3863 140.9943,-103.3863 141.4125,-98.4038 136.5101,-103.0099 141.8307,-93.4213 141.8307,-93.4213"/>
</g>
</g>
</svg>
