<?xml version="1.0" encoding="UTF-8" standalone="no"?>
<?xml-stylesheet href="../static/svg.css" type="text/css"?>
<!DOCTYPE svg PUBLIC "-//W3C//DTD SVG 1.1//EN"
 "http://www.w3.org/Graphics/SVG/1.1/DTD/svg11.dtd">
<!-- Generated by graphviz version 2.40.1 (20161225.0304)
 -->
<!-- Title: term Pages: 1 -->
<svg width="511pt" height="852pt"
 viewBox="0.00 0.00 511.17 851.64" xmlns="http://www.w3.org/2000/svg" xmlns:xlink="http://www.w3.org/1999/xlink">
<g id="graph0" class="graph" transform="scale(1 1) rotate(0) translate(4 847.6361)">
<title>term</title>
<!-- Team -->
<g id="node1" class="node root has&#45;pronunciation">
<title>Team</title>
<g id="a_node1"><a xlink:href="javascript:history.back()" xlink:title="Команда" target="_top">
<ellipse fill="none" stroke="#c0c0c0" stroke-width=".2" cx="289.5353" cy="-389.6453" rx="51.7379" ry="51.7379"/>
<text text-anchor="middle" x="289.5353" y="-403.1453" font-family="Times,serif" font-size="15.00" fill="#000000">Team</text>
<text text-anchor="middle" x="289.5353" y="-386.1453" font-family="Times,serif" font-size="15.00" fill="#000000">Команда</text>
<text text-anchor="middle" x="289.5353" y="-369.1453" font-family="Times,serif" font-size="15.00" fill="#000000">Тим</text>
</a>
</g>
</g>
<!-- Player -->
<g id="node7" class="node has&#45;pronunciation">
<title>Player</title>
<g id="a_node7"><a xlink:href="../player.html" xlink:title="Игрок" target="_top">
<ellipse fill="none" stroke="#c0c0c0" stroke-width=".2" cx="238.1429" cy="-236.5925" rx="46.8387" ry="46.8387"/>
<text text-anchor="middle" x="238.1429" y="-250.0925" font-family="Times,serif" font-size="15.00" fill="#000000">Player</text>
<text text-anchor="middle" x="238.1429" y="-233.0925" font-family="Times,serif" font-size="15.00" fill="#000000">Игрок</text>
<text text-anchor="middle" x="238.1429" y="-216.0925" font-family="Times,serif" font-size="15.00" fill="#000000">&#39;Плейэр</text>
</a>
</g>
</g>
<!-- Team&#45;&gt;Player -->
<g id="edge14" class="edge">
<title>Team&#45;&gt;Player</title>
<path fill="none" stroke="#000000" stroke-dasharray="5,2" d="M272.9915,-340.376C267.6699,-324.5275 261.7458,-306.8849 256.3138,-290.7078"/>
<polygon fill="#000000" stroke="#000000" points="253.005,-280.8537 260.4542,-288.9011 254.5966,-285.5936 256.1882,-290.3336 256.1882,-290.3336 256.1882,-290.3336 254.5966,-285.5936 251.9223,-291.766 253.005,-280.8537 253.005,-280.8537"/>
</g>
<!-- Sport -->
<g id="node8" class="node">
<title>Sport</title>
<g id="a_node8"><a xlink:href="../sport.html" xlink:title="Спорт" target="_top">
<ellipse fill="none" stroke="#c0c0c0" stroke-width=".2" cx="463.5741" cy="-455.7236" rx="39.6962" ry="39.6962"/>
<text text-anchor="middle" x="463.5741" y="-460.7236" font-family="Times,serif" font-size="15.00" fill="#000000">Sport</text>
<text text-anchor="middle" x="463.5741" y="-443.7236" font-family="Times,serif" font-size="15.00" fill="#000000">Спорт</text>
</a>
</g>
</g>
<!-- Team&#45;&gt;Sport -->
<g id="edge15" class="edge">
<title>Team&#45;&gt;Sport</title>
<path fill="none" stroke="#000000" stroke-dasharray="5,2" d="M338.0148,-408.0518C362.6992,-417.4239 392.5685,-428.7645 416.9804,-438.0331"/>
<polygon fill="#000000" stroke="#000000" points="426.3885,-441.6051 415.4424,-442.2625 421.7141,-439.8303 417.0397,-438.0556 417.0397,-438.0556 417.0397,-438.0556 421.7141,-439.8303 418.637,-433.8486 426.3885,-441.6051 426.3885,-441.6051"/>
</g>
<!-- Opponent -->
<g id="node2" class="node has&#45;pronunciation">
<title>Opponent</title>
<g id="a_node2"><a xlink:href="../opponent.html" xlink:title="Противник" target="_top">
<ellipse fill="none" stroke="#c0c0c0" stroke-width=".2" cx="436.2106" cy="-75.3626" rx="60.623" ry="60.623"/>
<text text-anchor="middle" x="436.2106" y="-88.8626" font-family="Times,serif" font-size="15.00" fill="#000000">Opponent</text>
<text text-anchor="middle" x="436.2106" y="-71.8626" font-family="Times,serif" font-size="15.00" fill="#000000">Противник</text>
<text text-anchor="middle" x="436.2106" y="-54.8626" font-family="Times,serif" font-size="15.00" fill="#000000">Эˈпoунэнт</text>
</a>
</g>
</g>
<!-- Opponent&#45;&gt;Team -->
<g id="edge9" class="edge">
<title>Opponent&#45;&gt;Team</title>
<path fill="none" stroke="#000000" stroke-dasharray="5,2" d="M410.3257,-130.8266C383.7603,-187.7486 342.6369,-275.8639 315.8984,-333.1568"/>
<polygon fill="#000000" stroke="#000000" points="311.5716,-342.428 311.7229,-331.4631 313.6861,-337.8971 315.8007,-333.3663 315.8007,-333.3663 315.8007,-333.3663 313.6861,-337.8971 319.8785,-335.2694 311.5716,-342.428 311.5716,-342.428"/>
</g>
<!-- Opponent&#45;&gt;Player -->
<g id="edge1" class="edge">
<title>Opponent&#45;&gt;Player</title>
<path fill="none" stroke="#000000" stroke-dasharray="5,2" d="M389.0201,-113.7763C356.6368,-140.1369 313.9538,-174.8814 282.2524,-200.6868"/>
<polygon fill="#000000" stroke="#000000" points="274.4423,-207.0443 279.3568,-197.2413 278.32,-203.8878 282.1977,-200.7313 282.1977,-200.7313 282.1977,-200.7313 278.32,-203.8878 285.0386,-204.2212 274.4423,-207.0443 274.4423,-207.0443"/>
</g>
<!-- Point -->
<g id="node3" class="node has&#45;pronunciation">
<title>Point</title>
<g id="a_node3"><a xlink:href="../point.html" xlink:title="Очко" target="_top">
<ellipse fill="none" stroke="#c0c0c0" stroke-width=".2" cx="119.7497" cy="-41.7193" rx="41.9398" ry="41.9398"/>
<text text-anchor="middle" x="119.7497" y="-55.2193" font-family="Times,serif" font-size="15.00" fill="#000000">Point</text>
<text text-anchor="middle" x="119.7497" y="-38.2193" font-family="Times,serif" font-size="15.00" fill="#000000">Очко</text>
<text text-anchor="middle" x="119.7497" y="-21.2193" font-family="Times,serif" font-size="15.00" fill="#000000">Пойнт</text>
</a>
</g>
</g>
<!-- Point&#45;&gt;Team -->
<g id="edge10" class="edge">
<title>Point&#45;&gt;Team</title>
<path fill="none" stroke="#000000" stroke-dasharray="5,2" d="M130.5005,-82.2526C143.9186,-129.3493 169.3866,-208.5408 204.0093,-270.7217 217.5525,-295.0446 235.1518,-320.3115 250.862,-341.2674"/>
<polygon fill="#000000" stroke="#000000" points="257.0045,-349.3725 247.378,-344.1207 253.9845,-345.3876 250.9644,-341.4027 250.9644,-341.4027 250.9644,-341.4027 253.9845,-345.3876 254.5509,-338.6847 257.0045,-349.3725 257.0045,-349.3725"/>
</g>
<!-- Point&#45;&gt;Player -->
<g id="edge2" class="edge">
<title>Point&#45;&gt;Player</title>
<path fill="none" stroke="#000000" stroke-dasharray="5,2" d="M141.4648,-77.4621C160.2165,-108.327 187.4923,-153.2225 208.2949,-187.4632"/>
<polygon fill="#000000" stroke="#000000" points="213.706,-196.3698 204.6678,-190.1599 211.1098,-192.0966 208.5137,-187.8234 208.5137,-187.8234 208.5137,-187.8234 211.1098,-192.0966 212.3595,-185.4869 213.706,-196.3698 213.706,-196.3698"/>
</g>
<!-- Game -->
<g id="node4" class="node has&#45;pronunciation">
<title>Game</title>
<g id="a_node4"><a xlink:href="../game.html" xlink:title="Игра" target="_top">
<ellipse fill="none" stroke="#c0c0c0" stroke-width=".2" cx="221.7092" cy="-609.8222" rx="52.1524" ry="52.1524"/>
<text text-anchor="middle" x="221.7092" y="-626.8222" font-family="Times,serif" font-size="20.00" fill="#000000">Game</text>
<text text-anchor="middle" x="221.7092" y="-604.8222" font-family="Times,serif" font-size="20.00" fill="#000000">Игра</text>
<text text-anchor="middle" x="221.7092" y="-582.8222" font-family="Times,serif" font-size="20.00" fill="#000000">Гейм</text>
</a>
</g>
</g>
<!-- Game&#45;&gt;Team -->
<g id="edge11" class="edge">
<title>Game&#45;&gt;Team</title>
<path fill="none" stroke="#000000" stroke-dasharray="5,2" d="M237.1849,-559.5852C247.2911,-526.7784 260.5359,-483.7832 271.1744,-449.2485"/>
<polygon fill="#000000" stroke="#000000" points="274.2431,-439.2868 275.5996,-450.1684 272.7711,-444.0652 271.299,-448.8436 271.299,-448.8436 271.299,-448.8436 272.7711,-444.0652 266.9985,-447.5188 274.2431,-439.2868 274.2431,-439.2868"/>
</g>
<!-- Winner -->
<g id="node5" class="node has&#45;pronunciation">
<title>Winner</title>
<g id="a_node5"><a xlink:href="../winner.html" xlink:title="Победитель" target="_top">
<ellipse fill="none" stroke="#c0c0c0" stroke-width=".2" cx="365.2483" cy="-778.5822" rx="65.1077" ry="65.1077"/>
<text text-anchor="middle" x="365.2483" y="-792.0822" font-family="Times,serif" font-size="15.00" fill="#000000">Winner</text>
<text text-anchor="middle" x="365.2483" y="-775.0822" font-family="Times,serif" font-size="15.00" fill="#000000">Победитель</text>
<text text-anchor="middle" x="365.2483" y="-758.0822" font-family="Times,serif" font-size="15.00" fill="#000000">ˈУинэр</text>
</a>
</g>
</g>
<!-- Winner&#45;&gt;Team -->
<g id="edge12" class="edge">
<title>Winner&#45;&gt;Team</title>
<path fill="none" stroke="#000000" stroke-dasharray="5,2" d="M352.7459,-714.3572C338.4943,-641.1472 315.3704,-522.36 301.3932,-450.5591"/>
<polygon fill="#000000" stroke="#000000" points="299.3995,-440.3174 305.7274,-449.2733 300.3549,-445.2253 301.3103,-450.1332 301.3103,-450.1332 301.3103,-450.1332 300.3549,-445.2253 296.8932,-450.9931 299.3995,-440.3174 299.3995,-440.3174"/>
</g>
<!-- Winner&#45;&gt;Game -->
<g id="edge3" class="edge">
<title>Winner&#45;&gt;Game</title>
<path fill="none" stroke="#000000" stroke-dasharray="5,2" d="M322.9582,-728.8614C303.7988,-706.3356 281.247,-679.8212 262.296,-657.5404"/>
<polygon fill="#000000" stroke="#000000" points="255.7544,-649.8494 265.6612,-654.5512 258.9939,-653.6581 262.2334,-657.4668 262.2334,-657.4668 262.2334,-657.4668 258.9939,-653.6581 258.8056,-660.3823 255.7544,-649.8494 255.7544,-649.8494"/>
</g>
<!-- Hockey -->
<g id="node6" class="node has&#45;pronunciation">
<title>Hockey</title>
<g id="a_node6"><a xlink:href="../hockey.html" xlink:title="Хоккей" target="_top">
<ellipse fill="none" stroke="#c0c0c0" stroke-width=".2" cx="45.2548" cy="-453.9164" rx="45.011" ry="45.011"/>
<text text-anchor="middle" x="45.2548" y="-467.4164" font-family="Times,serif" font-size="15.00" fill="#000000">Hockey</text>
<text text-anchor="middle" x="45.2548" y="-450.4164" font-family="Times,serif" font-size="15.00" fill="#000000">Хоккей</text>
<text text-anchor="middle" x="45.2548" y="-433.4164" font-family="Times,serif" font-size="15.00" fill="#000000">ˈХаки</text>
</a>
</g>
</g>
<!-- Hockey&#45;&gt;Team -->
<g id="edge13" class="edge">
<title>Hockey&#45;&gt;Team</title>
<path fill="none" stroke="#000000" stroke-dasharray="5,2" d="M89.2094,-442.3518C128.3324,-432.0584 185.9188,-416.9072 229.3206,-405.488"/>
<polygon fill="#000000" stroke="#000000" points="239.1892,-402.8915 230.6634,-409.788 234.3538,-404.1638 229.5184,-405.4361 229.5184,-405.4361 229.5184,-405.4361 234.3538,-404.1638 228.3733,-401.0842 239.1892,-402.8915 239.1892,-402.8915"/>
</g>
<!-- Hockey&#45;&gt;Game -->
<g id="edge4" class="edge">
<title>Hockey&#45;&gt;Game</title>
<path fill="none" stroke="#000000" stroke-dasharray="5,2" d="M79.277,-483.9766C106.3051,-507.8572 144.4142,-541.5284 174.4126,-568.0334"/>
<polygon fill="#000000" stroke="#000000" points="182.2467,-574.9552 171.7732,-571.7062 178.4997,-571.6446 174.7528,-568.334 174.7528,-568.334 174.7528,-568.334 178.4997,-571.6446 177.7323,-564.9617 182.2467,-574.9552 182.2467,-574.9552"/>
</g>
<!-- Hockey&#45;&gt;Player -->
<g id="edge5" class="edge">
<title>Hockey&#45;&gt;Player</title>
<path fill="none" stroke="#000000" stroke-dasharray="5,2" d="M75.3936,-419.9595C109.0385,-382.0523 163.5496,-320.6356 200.1041,-279.4502"/>
<polygon fill="#000000" stroke="#000000" points="206.9377,-271.7509 203.6652,-282.2171 203.6186,-275.4904 200.2996,-279.23 200.2996,-279.23 200.2996,-279.23 203.6186,-275.4904 196.934,-276.2428 206.9377,-271.7509 206.9377,-271.7509"/>
</g>
<!-- Player&#45;&gt;Game -->
<g id="edge7" class="edge">
<title>Player&#45;&gt;Game</title>
<path fill="none" stroke="#000000" stroke-dasharray="5,2" d="M236.0782,-283.4844C233.1389,-350.2398 227.742,-472.809 224.4643,-547.2496"/>
<polygon fill="#000000" stroke="#000000" points="224.0164,-557.4233 219.9607,-547.235 224.2364,-552.4281 224.4564,-547.433 224.4564,-547.433 224.4564,-547.433 224.2364,-552.4281 228.952,-547.631 224.0164,-557.4233 224.0164,-557.4233"/>
</g>
<!-- Player&#45;&gt;Sport -->
<g id="edge6" class="edge">
<title>Player&#45;&gt;Sport</title>
<path fill="none" stroke="#000000" stroke-dasharray="5,2" d="M271.8922,-269.3987C313.7215,-310.059 384.7087,-379.0623 427.5596,-420.7156"/>
<polygon fill="#000000" stroke="#000000" points="434.9614,-427.9106 424.6542,-424.1671 431.3761,-424.4255 427.7908,-420.9404 427.7908,-420.9404 427.7908,-420.9404 431.3761,-424.4255 430.9274,-417.7136 434.9614,-427.9106 434.9614,-427.9106"/>
</g>
<!-- Sport&#45;&gt;Game -->
<g id="edge8" class="edge">
<title>Sport&#45;&gt;Game</title>
<path fill="none" stroke="#000000" stroke-dasharray="5,2" d="M429.9438,-477.1503C389.7416,-502.7642 321.9775,-545.9386 274.7089,-576.0547"/>
<polygon fill="#000000" stroke="#000000" points="266.1326,-581.5189 272.1482,-572.3504 270.3494,-578.8322 274.5663,-576.1455 274.5663,-576.1455 274.5663,-576.1455 270.3494,-578.8322 276.9843,-579.9407 266.1326,-581.5189 266.1326,-581.5189"/>
</g>
</g>
</svg>
