<?xml version="1.0" encoding="UTF-8" standalone="no"?>
<?xml-stylesheet href="../static/svg.css" type="text/css"?>
<!DOCTYPE svg PUBLIC "-//W3C//DTD SVG 1.1//EN"
 "http://www.w3.org/Graphics/SVG/1.1/DTD/svg11.dtd">
<!-- Generated by graphviz version 2.40.1 (20161225.0304)
 -->
<!-- Title: term Pages: 1 -->
<svg width="244pt" height="402pt"
 viewBox="0.00 0.00 244.04 402.16" xmlns="http://www.w3.org/2000/svg" xmlns:xlink="http://www.w3.org/1999/xlink">
<g id="graph0" class="graph" transform="scale(1 1) rotate(0) translate(4 398.1584)">
<title>term</title>
<!-- Ice -->
<g id="node1" class="node root has&#45;pronunciation">
<title>Ice</title>
<g id="a_node1"><a xlink:href="javascript:history.back()" xlink:title="Лёд" target="_top">
<ellipse fill="none" stroke="#c0c0c0" stroke-width=".2" cx="96.9675" cy="-206.8215" rx="41.9398" ry="41.9398"/>
<text text-anchor="middle" x="96.9675" y="-220.3215" font-family="Times,serif" font-size="15.00" fill="#000000">Ice</text>
<text text-anchor="middle" x="96.9675" y="-203.3215" font-family="Times,serif" font-size="15.00" fill="#000000">Лёд</text>
<text text-anchor="middle" x="96.9675" y="-186.3215" font-family="Times,serif" font-size="15.00" fill="#000000">Айс</text>
</a>
</g>
</g>
<!-- Rink -->
<g id="node2" class="node has&#45;pronunciation">
<title>Rink</title>
<g id="a_node2"><a xlink:href="../rink.html" xlink:title="Площадка" target="_top">
<ellipse fill="none" stroke="#c0c0c0" stroke-width=".2" cx="178.762" cy="-336.8828" rx="57.0522" ry="57.0522"/>
<text text-anchor="middle" x="178.762" y="-350.3828" font-family="Times,serif" font-size="15.00" fill="#000000">Rink</text>
<text text-anchor="middle" x="178.762" y="-333.3828" font-family="Times,serif" font-size="15.00" fill="#000000">Площадка</text>
<text text-anchor="middle" x="178.762" y="-316.3828" font-family="Times,serif" font-size="15.00" fill="#000000">Ринк</text>
</a>
</g>
</g>
<!-- Rink&#45;&gt;Ice -->
<g id="edge1" class="edge">
<title>Rink&#45;&gt;Ice</title>
<path fill="none" stroke="#000000" stroke-dasharray="5,2" d="M148.072,-288.0827C140.4118,-275.9022 132.2411,-262.91 124.7314,-250.9689"/>
<polygon fill="#000000" stroke="#000000" points="119.3968,-242.4863 128.5298,-248.5558 122.0586,-246.7189 124.7205,-250.9514 124.7205,-250.9514 124.7205,-250.9514 122.0586,-246.7189 120.9112,-253.3471 119.3968,-242.4863 119.3968,-242.4863"/>
</g>
<!-- Puck -->
<g id="node3" class="node has&#45;pronunciation">
<title>Puck</title>
<g id="a_node3"><a xlink:href="../puck.html" xlink:title="Шайба" target="_top">
<ellipse fill="none" stroke="#c0c0c0" stroke-width=".2" cx="52.3259" cy="-52.3259" rx="52.1524" ry="52.1524"/>
<text text-anchor="middle" x="52.3259" y="-69.3259" font-family="Times,serif" font-size="20.00" fill="#000000">Puck</text>
<text text-anchor="middle" x="52.3259" y="-47.3259" font-family="Times,serif" font-size="20.00" fill="#000000">Шайба</text>
<text text-anchor="middle" x="52.3259" y="-25.3259" font-family="Times,serif" font-size="20.00" fill="#000000">Пак</text>
</a>
</g>
</g>
<!-- Puck&#45;&gt;Ice -->
<g id="edge2" class="edge">
<title>Puck&#45;&gt;Ice</title>
<path fill="none" stroke="#000000" stroke-dasharray="5,2" d="M66.9432,-102.9135C71.9173,-120.1277 77.473,-139.3551 82.44,-156.5449"/>
<polygon fill="#000000" stroke="#000000" points="85.2876,-166.3999 78.1885,-158.0421 83.8996,-161.5964 82.5116,-156.7929 82.5116,-156.7929 82.5116,-156.7929 83.8996,-161.5964 86.8348,-155.5437 85.2876,-166.3999 85.2876,-166.3999"/>
</g>
</g>
</svg>
