<?xml version="1.0" encoding="UTF-8" standalone="no"?>
<?xml-stylesheet href="../static/svg.css" type="text/css"?>
<!DOCTYPE svg PUBLIC "-//W3C//DTD SVG 1.1//EN"
 "http://www.w3.org/Graphics/SVG/1.1/DTD/svg11.dtd">
<!-- Generated by graphviz version 2.40.1 (20161225.0304)
 -->
<!-- Title: term Pages: 1 -->
<svg width="1230pt" height="2171pt"
 viewBox="0.00 0.00 1230.00 2170.94" xmlns="http://www.w3.org/2000/svg" xmlns:xlink="http://www.w3.org/1999/xlink">
<g id="graph0" class="graph" transform="scale(1 1) rotate(0) translate(4 2166.94)">
<title>term</title>
<!-- Team -->
<g id="node1" class="node">
<title>Team</title>
<g id="a_node1"><a xlink:href="../team.html" xlink:title="Команда" target="_top">
<ellipse fill="none" stroke="#c0c0c0" stroke-width=".2" cx="413.3717" cy="-702.3479" rx="51.7379" ry="29.8983"/>
<text text-anchor="middle" x="413.3717" y="-707.3479" font-family="Times,serif" font-size="15.00" fill="#000000">Team</text>
<text text-anchor="middle" x="413.3717" y="-690.3479" font-family="Times,serif" font-size="15.00" fill="#000000">Команда</text>
</a>
</g>
</g>
<!-- Player -->
<g id="node2" class="node">
<title>Player</title>
<g id="a_node2"><a xlink:href="../player.html" xlink:title="Игрок" target="_top">
<ellipse fill="none" stroke="#c0c0c0" stroke-width=".2" cx="543.3211" cy="-797.6971" rx="39.6962" ry="29.8983"/>
<text text-anchor="middle" x="543.3211" y="-802.6971" font-family="Times,serif" font-size="15.00" fill="#000000">Player</text>
<text text-anchor="middle" x="543.3211" y="-785.6971" font-family="Times,serif" font-size="15.00" fill="#000000">Игрок</text>
</a>
</g>
</g>
<!-- Team&#45;&gt;Player -->
<g id="edge1" class="edge">
<title>Team&#45;&gt;Player</title>
<path fill="none" stroke="#000000" stroke-dasharray="5,2" d="M445.494,-725.9173C463.9569,-739.4643 487.2223,-756.5351 506.432,-770.63"/>
<polygon fill="#000000" stroke="#000000" points="514.6649,-776.6709 503.9403,-774.3832 510.6337,-773.713 506.6024,-770.755 506.6024,-770.755 506.6024,-770.755 510.6337,-773.713 509.2645,-767.1269 514.6649,-776.6709 514.6649,-776.6709"/>
</g>
<!-- Sport -->
<g id="node9" class="node">
<title>Sport</title>
<g id="a_node9"><a xlink:href="../sport.html" xlink:title="Спорт" target="_top">
<ellipse fill="none" stroke="#c0c0c0" stroke-width=".2" cx="325.5912" cy="-431.5794" rx="39.6962" ry="29.8983"/>
<text text-anchor="middle" x="325.5912" y="-436.5794" font-family="Times,serif" font-size="15.00" fill="#000000">Sport</text>
<text text-anchor="middle" x="325.5912" y="-419.5794" font-family="Times,serif" font-size="15.00" fill="#000000">Спорт</text>
</a>
</g>
</g>
<!-- Team&#45;&gt;Sport -->
<g id="edge10" class="edge">
<title>Team&#45;&gt;Sport</title>
<path fill="none" stroke="#000000" stroke-dasharray="5,2" d="M403.8943,-673.1136C387.9934,-624.0656 355.9433,-525.2037 338.1737,-470.3915"/>
<polygon fill="#000000" stroke="#000000" points="335.029,-460.6915 342.3937,-468.8163 336.571,-465.4478 338.113,-470.2041 338.113,-470.2041 338.113,-470.2041 336.571,-465.4478 333.8323,-471.5918 335.029,-460.6915 335.029,-460.6915"/>
</g>
<!-- Player&#45;&gt;Sport -->
<g id="edge15" class="edge">
<title>Player&#45;&gt;Sport</title>
<path fill="none" stroke="#000000" stroke-dasharray="5,2" d="M527.1338,-770.4779C488.4787,-705.4784 390.7721,-541.1826 347.1733,-467.8703"/>
<polygon fill="#000000" stroke="#000000" points="341.885,-458.9778 350.8642,-465.2727 344.4407,-463.2753 346.9965,-467.5728 346.9965,-467.5728 346.9965,-467.5728 344.4407,-463.2753 343.1287,-469.873 341.885,-458.9778 341.885,-458.9778"/>
</g>
<!-- Goal -->
<g id="node11" class="node">
<title>Goal</title>
<g id="a_node11"><a xlink:href="../goal.html" xlink:title="Гол" target="_top">
<ellipse fill="none" stroke="#c0c0c0" stroke-width=".2" cx="649.0994" cy="-640.3856" rx="38.7821" ry="36.5405"/>
<text text-anchor="middle" x="649.0994" y="-646.3856" font-family="Times,serif" font-size="20.00" fill="#000000">Goal</text>
<text text-anchor="middle" x="649.0994" y="-624.3856" font-family="Times,serif" font-size="20.00" fill="#000000">Гол</text>
</a>
</g>
</g>
<!-- Player&#45;&gt;Goal -->
<g id="edge14" class="edge">
<title>Player&#45;&gt;Goal</title>
<path fill="none" stroke="#000000" stroke-dasharray="5,2" d="M561.2649,-771.0113C578.038,-746.0667 603.2985,-708.4998 622.4308,-680.0465"/>
<polygon fill="#000000" stroke="#000000" points="628.1556,-671.5328 626.3098,-682.3423 625.3655,-675.6821 622.5755,-679.8313 622.5755,-679.8313 622.5755,-679.8313 625.3655,-675.6821 618.8412,-677.3203 628.1556,-671.5328 628.1556,-671.5328"/>
</g>
<!-- Shot -->
<g id="node13" class="node">
<title>Shot</title>
<g id="a_node13"><a xlink:href="../shot.html" xlink:title="Бросок" target="_top">
<ellipse fill="none" stroke="#c0c0c0" stroke-width=".2" cx="852.2459" cy="-920.1137" rx="67.3507" ry="45.011"/>
<text text-anchor="middle" x="852.2459" y="-928.1137" font-family="Times,serif" font-size="25.00" fill="#000000">Shot</text>
<text text-anchor="middle" x="852.2459" y="-900.1137" font-family="Times,serif" font-size="25.00" fill="#000000">Бросок</text>
</a>
</g>
</g>
<!-- Player&#45;&gt;Shot -->
<g id="edge20" class="edge">
<title>Player&#45;&gt;Shot</title>
<path fill="none" stroke="#000000" stroke-dasharray="5,2" d="M578.4579,-811.6206C628.4728,-831.4399 721.1651,-868.1707 784.7271,-893.3582"/>
<polygon fill="#000000" stroke="#000000" points="794.2759,-897.1421 783.3214,-897.6416 789.6275,-895.3001 784.9792,-893.4581 784.9792,-893.4581 784.9792,-893.4581 789.6275,-895.3001 786.637,-889.2746 794.2759,-897.1421 794.2759,-897.1421"/>
</g>
<!-- Game -->
<g id="node20" class="node">
<title>Game</title>
<g id="a_node20"><a xlink:href="../game.html" xlink:title="Игра" target="_top">
<ellipse fill="none" stroke="#c0c0c0" stroke-width=".2" cx="326.9816" cy="-1160.852" rx="45.9239" ry="36.5405"/>
<text text-anchor="middle" x="326.9816" y="-1166.852" font-family="Times,serif" font-size="20.00" fill="#000000">Game</text>
<text text-anchor="middle" x="326.9816" y="-1144.852" font-family="Times,serif" font-size="20.00" fill="#000000">Игра</text>
</a>
</g>
</g>
<!-- Player&#45;&gt;Game -->
<g id="edge35" class="edge">
<title>Player&#45;&gt;Game</title>
<path fill="none" stroke="#000000" stroke-dasharray="5,2" d="M527.0605,-824.9927C489.5727,-887.9209 396.8702,-1043.5346 352.0465,-1118.7772"/>
<polygon fill="#000000" stroke="#000000" points="346.8245,-1127.5431 348.0764,-1116.6489 349.3835,-1123.2475 351.9424,-1118.952 351.9424,-1118.952 351.9424,-1118.952 349.3835,-1123.2475 355.8084,-1121.2551 346.8245,-1127.5431 346.8245,-1127.5431"/>
</g>
<!-- Rink -->
<g id="node3" class="node">
<title>Rink</title>
<g id="a_node3"><a xlink:href="../rink.html" xlink:title="Площадка" target="_top">
<ellipse fill="none" stroke="#c0c0c0" stroke-width=".2" cx="462.2094" cy="-1908.6441" rx="57.0522" ry="29.8983"/>
<text text-anchor="middle" x="462.2094" y="-1913.6441" font-family="Times,serif" font-size="15.00" fill="#000000">Rink</text>
<text text-anchor="middle" x="462.2094" y="-1896.6441" font-family="Times,serif" font-size="15.00" fill="#000000">Площадка</text>
</a>
</g>
</g>
<!-- Ice -->
<g id="node4" class="node">
<title>Ice</title>
<g id="a_node4"><a xlink:href="../ice.html" xlink:title="Лёд" target="_top">
<ellipse fill="none" stroke="#c0c0c0" stroke-width=".2" cx="663.732" cy="-2057.9482" rx="28.9828" ry="29.8983"/>
<text text-anchor="middle" x="663.732" y="-2062.9482" font-family="Times,serif" font-size="15.00" fill="#000000">Ice</text>
<text text-anchor="middle" x="663.732" y="-2045.9482" font-family="Times,serif" font-size="15.00" fill="#000000">Лёд</text>
</a>
</g>
</g>
<!-- Rink&#45;&gt;Ice -->
<g id="edge2" class="edge">
<title>Rink&#45;&gt;Ice</title>
<path fill="none" stroke="#000000" stroke-dasharray="5,2" d="M495.4868,-1933.2986C533.2628,-1961.2861 594.4593,-2006.6254 631.7078,-2034.2221"/>
<polygon fill="#000000" stroke="#000000" points="640.1802,-2040.4991 629.4663,-2038.1618 636.1627,-2037.5226 632.1452,-2034.5461 632.1452,-2034.5461 632.1452,-2034.5461 636.1627,-2037.5226 634.824,-2030.9303 640.1802,-2040.4991 640.1802,-2040.4991"/>
</g>
<!-- Goal net -->
<g id="node5" class="node">
<title>Goal net</title>
<g id="a_node5"><a xlink:href="../goal-net.html" xlink:title="Ворота" target="_top">
<ellipse fill="none" stroke="#c0c0c0" stroke-width=".2" cx="635.4892" cy="-1448.3242" rx="59.2941" ry="36.5405"/>
<text text-anchor="middle" x="635.4892" y="-1454.3242" font-family="Times,serif" font-size="20.00" fill="#000000">Goal net</text>
<text text-anchor="middle" x="635.4892" y="-1432.3242" font-family="Times,serif" font-size="20.00" fill="#000000">Ворота</text>
</a>
</g>
</g>
<!-- Rink&#45;&gt;Goal net -->
<g id="edge3" class="edge">
<title>Rink&#45;&gt;Goal net</title>
<path fill="none" stroke="#000000" stroke-dasharray="5,2" d="M473.3125,-1879.1488C502.747,-1800.9555 582.9379,-1587.9274 618.3218,-1493.9298"/>
<polygon fill="#000000" stroke="#000000" points="621.9058,-1484.4087 622.5943,-1495.353 620.1443,-1489.0882 618.3828,-1493.7676 618.3828,-1493.7676 618.3828,-1493.7676 620.1443,-1489.0882 614.1713,-1492.1822 621.9058,-1484.4087 621.9058,-1484.4087"/>
</g>
<!-- Opponent -->
<g id="node6" class="node">
<title>Opponent</title>
<g id="a_node6"><a xlink:href="../opponent.html" xlink:title="Противник" target="_top">
<ellipse fill="none" stroke="#c0c0c0" stroke-width=".2" cx="443.0009" cy="-1448.0385" rx="60.623" ry="29.8983"/>
<text text-anchor="middle" x="443.0009" y="-1453.0385" font-family="Times,serif" font-size="15.00" fill="#000000">Opponent</text>
<text text-anchor="middle" x="443.0009" y="-1436.0385" font-family="Times,serif" font-size="15.00" fill="#000000">Противник</text>
</a>
</g>
</g>
<!-- Opponent&#45;&gt;Team -->
<g id="edge4" class="edge">
<title>Opponent&#45;&gt;Team</title>
<path fill="none" stroke="#000000" stroke-dasharray="5,2" d="M441.8027,-1417.8829C437.1436,-1300.6248 420.2309,-874.9765 414.9549,-742.1931"/>
<polygon fill="#000000" stroke="#000000" points="414.5524,-732.0616 419.4459,-741.875 414.7509,-737.0577 414.9495,-742.0537 414.9495,-742.0537 414.9495,-742.0537 414.7509,-737.0577 410.453,-742.2324 414.5524,-732.0616 414.5524,-732.0616"/>
</g>
<!-- Opponent&#45;&gt;Player -->
<g id="edge5" class="edge">
<title>Opponent&#45;&gt;Player</title>
<path fill="none" stroke="#000000" stroke-dasharray="5,2" d="M447.5721,-1418.4047C463.7949,-1313.2381 518.6221,-957.8118 537.147,-837.7218"/>
<polygon fill="#000000" stroke="#000000" points="538.723,-827.5049 541.6458,-838.0741 537.9607,-832.4464 537.1984,-837.388 537.1984,-837.388 537.1984,-837.388 537.9607,-832.4464 532.751,-836.7019 538.723,-827.5049 538.723,-827.5049"/>
</g>
<!-- Opponent&#45;&gt;Goal net -->
<g id="edge9" class="edge">
<title>Opponent&#45;&gt;Goal net</title>
<path fill="none" stroke="#000000" stroke-dasharray="5,2" d="M503.9054,-1448.1289C523.5981,-1448.1581 545.5832,-1448.1907 565.8581,-1448.2208"/>
<polygon fill="#000000" stroke="#000000" points="575.9687,-1448.2358 565.962,-1452.7209 570.9687,-1448.2284 565.9687,-1448.2209 565.9687,-1448.2209 565.9687,-1448.2209 570.9687,-1448.2284 565.9754,-1443.7209 575.9687,-1448.2358 575.9687,-1448.2358"/>
</g>
<!-- Stick -->
<g id="node7" class="node">
<title>Stick</title>
<g id="a_node7"><a xlink:href="../stick.html" xlink:title="Клюшка" target="_top">
<ellipse fill="none" stroke="#c0c0c0" stroke-width=".2" cx="751.3208" cy="-596.7667" rx="48.5816" ry="29.8983"/>
<text text-anchor="middle" x="751.3208" y="-601.7667" font-family="Times,serif" font-size="15.00" fill="#000000">Stick</text>
<text text-anchor="middle" x="751.3208" y="-584.7667" font-family="Times,serif" font-size="15.00" fill="#000000">Клюшка</text>
</a>
</g>
</g>
<!-- Puck -->
<g id="node8" class="node">
<title>Puck</title>
<g id="a_node8"><a xlink:href="../puck.html" xlink:title="Шайба" target="_top">
<ellipse fill="none" stroke="#c0c0c0" stroke-width=".2" cx="765.7507" cy="-1344.0999" rx="52.1524" ry="36.5405"/>
<text text-anchor="middle" x="765.7507" y="-1350.0999" font-family="Times,serif" font-size="20.00" fill="#000000">Puck</text>
<text text-anchor="middle" x="765.7507" y="-1328.0999" font-family="Times,serif" font-size="20.00" fill="#000000">Шайба</text>
</a>
</g>
</g>
<!-- Stick&#45;&gt;Puck -->
<g id="edge6" class="edge">
<title>Stick&#45;&gt;Puck</title>
<path fill="none" stroke="#000000" stroke-dasharray="5,2" d="M751.8954,-626.5243C754.1122,-741.3353 762.1202,-1156.0715 764.8397,-1296.9168"/>
<polygon fill="#000000" stroke="#000000" points="765.0338,-1306.9672 760.3414,-1297.0559 764.9372,-1301.9681 764.8406,-1296.969 764.8406,-1296.969 764.8406,-1296.969 764.9372,-1301.9681 769.3398,-1296.8821 765.0338,-1306.9672 765.0338,-1306.9672"/>
</g>
<!-- Puck&#45;&gt;Ice -->
<g id="edge7" class="edge">
<title>Puck&#45;&gt;Ice</title>
<path fill="none" stroke="#000000" stroke-dasharray="5,2" d="M760.4806,-1380.9763C743.0583,-1502.8838 687.4053,-1892.3008 669.4061,-2018.2452"/>
<polygon fill="#000000" stroke="#000000" points="667.9791,-2028.2305 664.9392,-2017.6944 668.6865,-2023.2808 669.3939,-2018.3311 669.3939,-2018.3311 669.3939,-2018.3311 668.6865,-2023.2808 673.8487,-2018.9678 667.9791,-2028.2305 667.9791,-2028.2305"/>
</g>
<!-- Puck&#45;&gt;Goal net -->
<g id="edge8" class="edge">
<title>Puck&#45;&gt;Goal net</title>
<path fill="none" stroke="#000000" stroke-dasharray="5,2" d="M731.185,-1371.7564C715.51,-1384.2983 696.7802,-1399.2843 680.0635,-1412.6596"/>
<polygon fill="#000000" stroke="#000000" points="672.041,-1419.0785 677.0379,-1409.3173 675.9451,-1415.9547 679.8493,-1412.831 679.8493,-1412.831 679.8493,-1412.831 675.9451,-1415.9547 682.6607,-1416.3447 672.041,-1419.0785 672.041,-1419.0785"/>
</g>
<!-- Sport&#45;&gt;Game -->
<g id="edge34" class="edge">
<title>Sport&#45;&gt;Game</title>
<path fill="none" stroke="#000000" stroke-dasharray="5,2" d="M325.6483,-461.5274C325.8637,-574.506 326.6281,-975.4523 326.8916,-1113.6357"/>
<polygon fill="#000000" stroke="#000000" points="326.9111,-1123.8908 322.392,-1113.8994 326.9016,-1118.8908 326.892,-1113.8908 326.892,-1113.8908 326.892,-1113.8908 326.9016,-1118.8908 331.392,-1113.8822 326.9111,-1123.8908 326.9111,-1123.8908"/>
</g>
<!-- Score -->
<g id="node10" class="node">
<title>Score</title>
<g id="a_node10"><a xlink:href="../score.html" xlink:title="Счёт" target="_top">
<ellipse fill="none" stroke="#c0c0c0" stroke-width=".2" cx="421.7506" cy="-216.4252" rx="43.6818" ry="36.5405"/>
<text text-anchor="middle" x="421.7506" y="-222.4252" font-family="Times,serif" font-size="20.00" fill="#000000">Score</text>
<text text-anchor="middle" x="421.7506" y="-200.4252" font-family="Times,serif" font-size="20.00" fill="#000000">Счёт</text>
</a>
</g>
</g>
<!-- Score&#45;&gt;Goal -->
<g id="edge11" class="edge">
<title>Score&#45;&gt;Goal</title>
<path fill="none" stroke="#000000" stroke-dasharray="5,2" d="M439.7803,-250.0471C480.8798,-326.6894 581.4332,-514.2016 626.5478,-598.3314"/>
<polygon fill="#000000" stroke="#000000" points="631.3817,-607.3457 622.69,-600.6595 629.0187,-602.9393 626.6558,-598.5329 626.6558,-598.5329 626.6558,-598.5329 629.0187,-602.9393 630.6216,-596.4062 631.3817,-607.3457 631.3817,-607.3457"/>
</g>
<!-- Point -->
<g id="node12" class="node">
<title>Point</title>
<g id="a_node12"><a xlink:href="../point.html" xlink:title="Очко" target="_top">
<ellipse fill="none" stroke="#c0c0c0" stroke-width=".2" cx="538.7101" cy="-123.81" rx="35.2113" ry="29.8983"/>
<text text-anchor="middle" x="538.7101" y="-128.81" font-family="Times,serif" font-size="15.00" fill="#000000">Point</text>
<text text-anchor="middle" x="538.7101" y="-111.81" font-family="Times,serif" font-size="15.00" fill="#000000">Очко</text>
</a>
</g>
</g>
<!-- Score&#45;&gt;Point -->
<g id="edge12" class="edge">
<title>Score&#45;&gt;Point</title>
<path fill="none" stroke="#000000" stroke-dasharray="5,2" d="M453.7103,-191.1177C469.4916,-178.6212 488.542,-163.536 504.6044,-150.8169"/>
<polygon fill="#000000" stroke="#000000" points="512.6985,-144.4075 507.6524,-154.1434 508.7787,-147.5115 504.8588,-150.6155 504.8588,-150.6155 504.8588,-150.6155 508.7787,-147.5115 502.0652,-147.0876 512.6985,-144.4075 512.6985,-144.4075"/>
</g>
<!-- Goal&#45;&gt;Goal net -->
<g id="edge19" class="edge">
<title>Goal&#45;&gt;Goal net</title>
<path fill="none" stroke="#000000" stroke-dasharray="5,2" d="M648.4792,-677.2005C646.265,-808.6408 638.7501,-1254.7509 636.2819,-1401.2699"/>
<polygon fill="#000000" stroke="#000000" points="636.1131,-1411.2931 631.7822,-1401.2186 636.1973,-1406.2938 636.2816,-1401.2945 636.2816,-1401.2945 636.2816,-1401.2945 636.1973,-1406.2938 640.7809,-1401.3703 636.1131,-1411.2931 636.1131,-1411.2931"/>
</g>
<!-- Goal&#45;&gt;Puck -->
<g id="edge18" class="edge">
<title>Goal&#45;&gt;Puck</title>
<path fill="none" stroke="#000000" stroke-dasharray="5,2" d="M655.1254,-676.7385C674.6577,-794.5698 736.2146,-1165.9193 758.0092,-1297.3978"/>
<polygon fill="#000000" stroke="#000000" points="759.6907,-1307.5421 753.6159,-1298.4126 758.873,-1302.6094 758.0553,-1297.6767 758.0553,-1297.6767 758.0553,-1297.6767 758.873,-1302.6094 762.4947,-1296.9408 759.6907,-1307.5421 759.6907,-1307.5421"/>
</g>
<!-- Point&#45;&gt;Team -->
<g id="edge17" class="edge">
<title>Point&#45;&gt;Team</title>
<path fill="none" stroke="#000000" stroke-dasharray="5,2" d="M532.3223,-153.2952C511.5175,-249.3257 445.6839,-553.2011 421.9811,-662.6088"/>
<polygon fill="#000000" stroke="#000000" points="419.8217,-672.5761 417.5411,-661.85 420.8804,-667.6895 421.9391,-662.8028 421.9391,-662.8028 421.9391,-662.8028 420.8804,-667.6895 426.3371,-663.7557 419.8217,-672.5761 419.8217,-672.5761"/>
</g>
<!-- Point&#45;&gt;Player -->
<g id="edge16" class="edge">
<title>Point&#45;&gt;Player</title>
<path fill="none" stroke="#000000" stroke-dasharray="5,2" d="M538.9142,-153.6357C539.6551,-261.9203 542.2037,-634.3959 543.0474,-757.701"/>
<polygon fill="#000000" stroke="#000000" points="543.1168,-767.8347 538.5483,-757.8658 543.0825,-762.8348 543.0482,-757.8349 543.0482,-757.8349 543.0482,-757.8349 543.0825,-762.8348 547.5481,-757.8041 543.1168,-767.8347 543.1168,-767.8347"/>
</g>
<!-- Point&#45;&gt;Goal -->
<g id="edge13" class="edge">
<title>Point&#45;&gt;Goal</title>
<path fill="none" stroke="#000000" stroke-dasharray="5,2" d="M544.9614,-153.0635C563.2794,-238.7842 616.9377,-489.8827 639.2212,-594.1598"/>
<polygon fill="#000000" stroke="#000000" points="641.3404,-604.0771 634.8499,-595.2383 640.2955,-599.1875 639.2506,-594.2979 639.2506,-594.2979 639.2506,-594.2979 640.2955,-599.1875 643.6512,-593.3574 641.3404,-604.0771 641.3404,-604.0771"/>
</g>
<!-- Shot&#45;&gt;Goal net -->
<g id="edge24" class="edge">
<title>Shot&#45;&gt;Goal net</title>
<path fill="none" stroke="#000000" stroke-dasharray="5,2" d="M834.3234,-963.7888C793.7419,-1062.6811 695.1682,-1302.8935 654.017,-1403.1743"/>
<polygon fill="#000000" stroke="#000000" points="650.2177,-1412.4326 649.8511,-1401.4728 652.116,-1407.8069 654.0142,-1403.1812 654.0142,-1403.1812 654.0142,-1403.1812 652.116,-1407.8069 658.1773,-1404.8896 650.2177,-1412.4326 650.2177,-1412.4326"/>
</g>
<!-- Shot&#45;&gt;Stick -->
<g id="edge23" class="edge">
<title>Shot&#45;&gt;Stick</title>
<path fill="none" stroke="#000000" stroke-dasharray="5,2" d="M838.3187,-875.4932C818.485,-811.9494 782.4218,-696.4089 763.5601,-635.9792"/>
<polygon fill="#000000" stroke="#000000" points="760.4657,-626.0655 767.7409,-634.2705 761.9555,-630.8384 763.4453,-635.6113 763.4453,-635.6113 763.4453,-635.6113 761.9555,-630.8384 759.1497,-636.9521 760.4657,-626.0655 760.4657,-626.0655"/>
</g>
<!-- Shot&#45;&gt;Puck -->
<g id="edge22" class="edge">
<title>Shot&#45;&gt;Puck</title>
<path fill="none" stroke="#000000" stroke-dasharray="5,2" d="M843.0713,-965.0863C826.5603,-1046.0206 792.005,-1215.4053 775.2563,-1297.5053"/>
<polygon fill="#000000" stroke="#000000" points="773.2078,-1307.5467 770.7975,-1296.849 774.2072,-1302.6476 775.2067,-1297.7485 775.2067,-1297.7485 775.2067,-1297.7485 774.2072,-1302.6476 779.6159,-1298.6481 773.2078,-1307.5467 773.2078,-1307.5467"/>
</g>
<!-- Shot&#45;&gt;Goal -->
<g id="edge21" class="edge">
<title>Shot&#45;&gt;Goal</title>
<path fill="none" stroke="#000000" stroke-dasharray="5,2" d="M822.7067,-879.4389C783.7208,-825.7562 715.5655,-731.908 677.2744,-679.182"/>
<polygon fill="#000000" stroke="#000000" points="671.1672,-670.7726 680.6846,-676.2196 674.1053,-674.8183 677.0435,-678.8639 677.0435,-678.8639 677.0435,-678.8639 674.1053,-674.8183 673.4023,-681.5083 671.1672,-670.7726 671.1672,-670.7726"/>
</g>
<!-- Flip shot -->
<g id="node14" class="node">
<title>Flip shot</title>
<g id="a_node14"><a xlink:href="../flip-shot.html" xlink:title="Подкидка" target="_top">
<ellipse fill="none" stroke="#c0c0c0" stroke-width=".2" cx="1121.3074" cy="-1040.4292" rx="55.7232" ry="29.8983"/>
<text text-anchor="middle" x="1121.3074" y="-1045.4292" font-family="Times,serif" font-size="15.00" fill="#000000">Flip shot</text>
<text text-anchor="middle" x="1121.3074" y="-1028.4292" font-family="Times,serif" font-size="15.00" fill="#000000">Подкидка</text>
</a>
</g>
</g>
<!-- Shot&#45;&gt;Flip shot -->
<g id="edge25" class="edge">
<title>Shot&#45;&gt;Flip shot</title>
<path fill="none" stroke="#000000" stroke-dasharray="5,2" d="M908.3225,-945.1893C955.7266,-966.3869 1023.1075,-996.5174 1069.3149,-1017.1799"/>
<polygon fill="#000000" stroke="#000000" points="1078.5501,-1021.3096 1067.5842,-1021.3354 1073.9857,-1019.2685 1069.4212,-1017.2274 1069.4212,-1017.2274 1069.4212,-1017.2274 1073.9857,-1019.2685 1071.2582,-1013.1194 1078.5501,-1021.3096 1078.5501,-1021.3096"/>
</g>
<!-- Wrist shot -->
<g id="node15" class="node">
<title>Wrist shot</title>
<g id="a_node15"><a xlink:href="../wrist-shot.html" xlink:title="Кистевой" target="_top">
<ellipse fill="none" stroke="#c0c0c0" stroke-width=".2" cx="1099.437" cy="-688.3978" rx="56.6372" ry="29.8983"/>
<text text-anchor="middle" x="1099.437" y="-693.3978" font-family="Times,serif" font-size="15.00" fill="#000000">Wrist shot</text>
<text text-anchor="middle" x="1099.437" y="-676.3978" font-family="Times,serif" font-size="15.00" fill="#000000">Кистевой</text>
</a>
</g>
</g>
<!-- Shot&#45;&gt;Wrist shot -->
<g id="edge26" class="edge">
<title>Shot&#45;&gt;Wrist shot</title>
<path fill="none" stroke="#000000" stroke-dasharray="5,2" d="M891.6874,-883.1414C939.2338,-838.5716 1018.4226,-764.3404 1064.0696,-721.551"/>
<polygon fill="#000000" stroke="#000000" points="1071.6424,-714.4523 1067.4242,-724.5744 1067.9945,-717.8718 1064.3466,-721.2914 1064.3466,-721.2914 1064.3466,-721.2914 1067.9945,-717.8718 1061.269,-718.0083 1071.6424,-714.4523 1071.6424,-714.4523"/>
</g>
<!-- Slapshot -->
<g id="node16" class="node">
<title>Slapshot</title>
<g id="a_node16"><a xlink:href="../slapshot.html" xlink:title="Щелчок" target="_top">
<ellipse fill="none" stroke="#c0c0c0" stroke-width=".2" cx="984.4278" cy="-106.0301" rx="48.5816" ry="29.8983"/>
<text text-anchor="middle" x="984.4278" y="-111.0301" font-family="Times,serif" font-size="15.00" fill="#000000">Slapshot</text>
<text text-anchor="middle" x="984.4278" y="-94.0301" font-family="Times,serif" font-size="15.00" fill="#000000">Щелчок</text>
</a>
</g>
</g>
<!-- Shot&#45;&gt;Slapshot -->
<g id="edge27" class="edge">
<title>Shot&#45;&gt;Slapshot</title>
<path fill="none" stroke="#000000" stroke-dasharray="5,2" d="M859.5883,-874.8935C883.0353,-730.4875 955.8671,-281.9305 977.9899,-145.6801"/>
<polygon fill="#000000" stroke="#000000" points="979.6139,-135.6781 982.4529,-146.2701 978.8125,-140.6134 978.0111,-145.5488 978.0111,-145.5488 978.0111,-145.5488 978.8125,-140.6134 973.5693,-144.8276 979.6139,-135.6781 979.6139,-135.6781"/>
</g>
<!-- Snap shot -->
<g id="node17" class="node">
<title>Snap shot</title>
<g id="a_node17"><a xlink:href="../snap-shot.html" xlink:title="Короткий щелчок" target="_top">
<ellipse fill="none" stroke="#c0c0c0" stroke-width=".2" cx="1130.0521" cy="-387.6562" rx="91.8478" ry="29.8983"/>
<text text-anchor="middle" x="1130.0521" y="-392.6562" font-family="Times,serif" font-size="15.00" fill="#000000">Snap shot</text>
<text text-anchor="middle" x="1130.0521" y="-375.6562" font-family="Times,serif" font-size="15.00" fill="#000000">Короткий щелчок</text>
</a>
</g>
</g>
<!-- Shot&#45;&gt;Snap shot -->
<g id="edge28" class="edge">
<title>Shot&#45;&gt;Snap shot</title>
<path fill="none" stroke="#000000" stroke-dasharray="5,2" d="M874.7447,-876.9915C927.6861,-775.5213 1059.467,-522.9431 1109.9424,-426.1994"/>
<polygon fill="#000000" stroke="#000000" points="1114.7085,-417.0646 1114.0724,-428.012 1112.3956,-421.4975 1110.0827,-425.9304 1110.0827,-425.9304 1110.0827,-425.9304 1112.3956,-421.4975 1106.0931,-423.8488 1114.7085,-417.0646 1114.7085,-417.0646"/>
</g>
<!-- Backhand shot -->
<g id="node18" class="node">
<title>Backhand shot</title>
<g id="a_node18"><a xlink:href="../backhand-shot.html" xlink:title="С неудобной" target="_top">
<ellipse fill="none" stroke="#c0c0c0" stroke-width=".2" cx="1119.5911" cy="-1391.9988" rx="74.9067" ry="29.8983"/>
<text text-anchor="middle" x="1119.5911" y="-1396.9988" font-family="Times,serif" font-size="15.00" fill="#000000">Backhand shot</text>
<text text-anchor="middle" x="1119.5911" y="-1379.9988" font-family="Times,serif" font-size="15.00" fill="#000000">С неудобной</text>
</a>
</g>
</g>
<!-- Shot&#45;&gt;Backhand shot -->
<g id="edge31" class="edge">
<title>Shot&#45;&gt;Backhand shot</title>
<path fill="none" stroke="#000000" stroke-dasharray="5,2" d="M876.2063,-962.4057C927.8241,-1053.5151 1048.8329,-1267.105 1098.1254,-1354.1101"/>
<polygon fill="#000000" stroke="#000000" points="1103.083,-1362.8606 1094.2383,-1356.3782 1100.6183,-1358.5103 1098.1536,-1354.1599 1098.1536,-1354.1599 1098.1536,-1354.1599 1100.6183,-1358.5103 1102.0689,-1351.9417 1103.083,-1362.8606 1103.083,-1362.8606"/>
</g>
<!-- One&#45;timer -->
<g id="node19" class="node">
<title>One&#45;timer</title>
<g id="a_node19"><a xlink:href="../one-timer.html" xlink:title="В одно касание" target="_top">
<ellipse fill="none" stroke="#c0c0c0" stroke-width=".2" cx="1032.1165" cy="-1792.5632" rx="79.8063" ry="29.8983"/>
<text text-anchor="middle" x="1032.1165" y="-1797.5632" font-family="Times,serif" font-size="15.00" fill="#000000">One&#45;timer</text>
<text text-anchor="middle" x="1032.1165" y="-1780.5632" font-family="Times,serif" font-size="15.00" fill="#000000">В одно касание</text>
</a>
</g>
</g>
<!-- Shot&#45;&gt;One&#45;timer -->
<g id="edge33" class="edge">
<title>Shot&#45;&gt;One&#45;timer</title>
<path fill="none" stroke="#000000" stroke-dasharray="5,2" d="M861.5378,-965.1832C892.839,-1117.0076 994.1319,-1608.3216 1023.8489,-1752.462"/>
<polygon fill="#000000" stroke="#000000" points="1025.9432,-1762.6203 1019.5166,-1753.735 1024.9336,-1757.7233 1023.9239,-1752.8263 1023.9239,-1752.8263 1023.9239,-1752.8263 1024.9336,-1757.7233 1028.3313,-1751.9176 1025.9432,-1762.6203 1025.9432,-1762.6203"/>
</g>
<!-- Snap shot&#45;&gt;Wrist shot -->
<g id="edge29" class="edge">
<title>Snap shot&#45;&gt;Wrist shot</title>
<path fill="none" stroke="#000000" stroke-dasharray="5,2" d="M1127.0047,-417.5919C1121.4573,-472.0855 1109.7105,-587.4776 1103.4933,-648.5512"/>
<polygon fill="#000000" stroke="#000000" points="1102.4721,-658.5831 1099.0081,-648.1787 1102.9785,-653.6088 1103.4849,-648.6345 1103.4849,-648.6345 1103.4849,-648.6345 1102.9785,-653.6088 1107.9618,-649.0903 1102.4721,-658.5831 1102.4721,-658.5831"/>
</g>
<!-- Snap shot&#45;&gt;Slapshot -->
<g id="edge30" class="edge">
<title>Snap shot&#45;&gt;Slapshot</title>
<path fill="none" stroke="#000000" stroke-dasharray="5,2" d="M1114.8799,-358.3142C1088.2435,-306.8016 1033.12,-200.1971 1003.7824,-143.4604"/>
<polygon fill="#000000" stroke="#000000" points="999.1318,-134.4665 1007.7222,-141.2823 1001.4284,-138.9079 1003.725,-143.3492 1003.725,-143.3492 1003.725,-143.3492 1001.4284,-138.9079 999.7277,-145.4162 999.1318,-134.4665 999.1318,-134.4665"/>
</g>
<!-- Backhand shot&#45;&gt;Wrist shot -->
<g id="edge32" class="edge">
<title>Backhand shot&#45;&gt;Wrist shot</title>
<path fill="none" stroke="#000000" stroke-dasharray="5,2" d="M1112.1831,-1362.132C1097.8098,-1301.7804 1067.2446,-1160.783 1063.8467,-1040.2698 1060.6418,-926.6069 1080.6984,-793.2542 1092.0389,-728.1795"/>
<polygon fill="#000000" stroke="#000000" points="1093.8464,-717.9614 1096.5357,-728.5924 1092.9754,-722.8849 1092.1045,-727.8085 1092.1045,-727.8085 1092.1045,-727.8085 1092.9754,-722.8849 1087.6733,-727.0247 1093.8464,-717.9614 1093.8464,-717.9614"/>
</g>
<!-- Game&#45;&gt;Team -->
<g id="edge37" class="edge">
<title>Game&#45;&gt;Team</title>
<path fill="none" stroke="#000000" stroke-dasharray="5,2" d="M333.8327,-1124.4907C349.8023,-1039.7342 389.3944,-829.6046 405.9297,-741.8456"/>
<polygon fill="#000000" stroke="#000000" points="407.7824,-732.0123 410.3529,-742.6726 406.8566,-736.9258 405.9308,-741.8394 405.9308,-741.8394 405.9308,-741.8394 406.8566,-736.9258 401.5086,-741.0061 407.7824,-732.0123 407.7824,-732.0123"/>
</g>
<!-- Game&#45;&gt;Rink -->
<g id="edge38" class="edge">
<title>Game&#45;&gt;Rink</title>
<path fill="none" stroke="#000000" stroke-dasharray="5,2" d="M333.5955,-1197.4258C356.3636,-1323.3307 431.3958,-1738.2485 455.0205,-1868.8904"/>
<polygon fill="#000000" stroke="#000000" points="456.8247,-1878.8674 450.617,-1869.8278 455.935,-1873.9472 455.0452,-1869.027 455.0452,-1869.027 455.0452,-1869.027 455.935,-1873.9472 459.4733,-1868.2262 456.8247,-1878.8674 456.8247,-1878.8674"/>
</g>
<!-- Period -->
<g id="node22" class="node">
<title>Period</title>
<g id="a_node22"><a xlink:href="../period.html" xlink:title="Период" target="_top">
<ellipse fill="none" stroke="#c0c0c0" stroke-width=".2" cx="96.1085" cy="-939.0555" rx="45.011" ry="29.8983"/>
<text text-anchor="middle" x="96.1085" y="-944.0555" font-family="Times,serif" font-size="15.00" fill="#000000">Period</text>
<text text-anchor="middle" x="96.1085" y="-927.0555" font-family="Times,serif" font-size="15.00" fill="#000000">Период</text>
</a>
</g>
</g>
<!-- Game&#45;&gt;Period -->
<g id="edge39" class="edge">
<title>Game&#45;&gt;Period</title>
<path fill="none" stroke="#000000" stroke-dasharray="5,2" d="M297.2716,-1132.3101C254.099,-1090.8347 174.2769,-1014.1507 129.2509,-970.8949"/>
<polygon fill="#000000" stroke="#000000" points="121.7997,-963.7367 132.1287,-967.4194 125.4054,-967.2006 129.0111,-970.6646 129.0111,-970.6646 129.0111,-970.6646 125.4054,-967.2006 125.8935,-973.9097 121.7997,-963.7367 121.7997,-963.7367"/>
</g>
<!-- Overtime -->
<g id="node23" class="node">
<title>Overtime</title>
<g id="a_node23"><a xlink:href="../overtime.html" xlink:title="Овертайм" target="_top">
<ellipse fill="none" stroke="#c0c0c0" stroke-width=".2" cx="55.5773" cy="-1191.6973" rx="55.7232" ry="29.8983"/>
<text text-anchor="middle" x="55.5773" y="-1196.6973" font-family="Times,serif" font-size="15.00" fill="#000000">Overtime</text>
<text text-anchor="middle" x="55.5773" y="-1179.6973" font-family="Times,serif" font-size="15.00" fill="#000000">Овертайм</text>
</a>
</g>
</g>
<!-- Game&#45;&gt;Overtime -->
<g id="edge40" class="edge">
<title>Game&#45;&gt;Overtime</title>
<path fill="none" stroke="#000000" stroke-dasharray="5,2" d="M281.2485,-1166.0496C237.1524,-1171.0612 169.9885,-1178.6944 120.3905,-1184.3312"/>
<polygon fill="#000000" stroke="#000000" points="110.403,-1185.4663 119.8308,-1179.8658 115.371,-1184.9016 120.339,-1184.337 120.339,-1184.337 120.339,-1184.337 115.371,-1184.9016 120.8472,-1188.8082 110.403,-1185.4663 110.403,-1185.4663"/>
</g>
<!-- Shootout -->
<g id="node24" class="node">
<title>Shootout</title>
<g id="a_node24"><a xlink:href="../shootout.html" xlink:title="Буллиты" target="_top">
<ellipse fill="none" stroke="#c0c0c0" stroke-width=".2" cx="136.6279" cy="-1467.2141" rx="50.8235" ry="29.8983"/>
<text text-anchor="middle" x="136.6279" y="-1472.2141" font-family="Times,serif" font-size="15.00" fill="#000000">Shootout</text>
<text text-anchor="middle" x="136.6279" y="-1455.2141" font-family="Times,serif" font-size="15.00" fill="#000000">Буллиты</text>
</a>
</g>
</g>
<!-- Game&#45;&gt;Shootout -->
<g id="edge42" class="edge">
<title>Game&#45;&gt;Shootout</title>
<path fill="none" stroke="#000000" stroke-dasharray="5,2" d="M306.4296,-1193.9292C270.5846,-1251.6194 196.8954,-1370.2173 159.4913,-1430.4169"/>
<polygon fill="#000000" stroke="#000000" points="154.0278,-1439.2101 155.4831,-1428.3412 156.6666,-1434.9631 159.3054,-1430.7161 159.3054,-1430.7161 159.3054,-1430.7161 156.6666,-1434.9631 163.1277,-1433.091 154.0278,-1439.2101 154.0278,-1439.2101"/>
</g>
<!-- Hockey -->
<g id="node21" class="node root ">
<title>Hockey</title>
<g id="a_node21"><a xlink:href="../hockey.html" xlink:title="Хоккей" target="_top">
<ellipse fill="none" stroke="#c0c0c0" stroke-width=".2" cx="582.4733" cy="-1058.2899" rx="45.011" ry="29.8983"/>
<text text-anchor="middle" x="582.4733" y="-1063.2899" font-family="Times,serif" font-size="15.00" fill="#000000">Hockey</text>
<text text-anchor="middle" x="582.4733" y="-1046.2899" font-family="Times,serif" font-size="15.00" fill="#000000">Хоккей</text>
</a>
</g>
</g>
<!-- Hockey&#45;&gt;Team -->
<g id="edge48" class="edge">
<title>Hockey&#45;&gt;Team</title>
<path fill="none" stroke="#000000" stroke-dasharray="5,2" d="M568.9208,-1029.7634C538.6185,-965.98 465.3784,-811.8167 431.3303,-740.1489"/>
<polygon fill="#000000" stroke="#000000" points="426.9887,-731.0103 435.3446,-738.1117 429.1343,-735.5265 431.2799,-740.0428 431.2799,-740.0428 431.2799,-740.0428 429.1343,-735.5265 427.2153,-741.9738 426.9887,-731.0103 426.9887,-731.0103"/>
</g>
<!-- Hockey&#45;&gt;Player -->
<g id="edge50" class="edge">
<title>Hockey&#45;&gt;Player</title>
<path fill="none" stroke="#000000" stroke-dasharray="5,2" d="M578.0201,-1028.6503C570.9551,-981.6266 557.171,-889.8805 549.2684,-837.2819"/>
<polygon fill="#000000" stroke="#000000" points="547.7701,-827.309 553.706,-836.5294 548.513,-832.2535 549.2559,-837.198 549.2559,-837.198 549.2559,-837.198 548.513,-832.2535 544.8058,-837.8666 547.7701,-827.309 547.7701,-827.309"/>
</g>
<!-- Hockey&#45;&gt;Goal net -->
<g id="edge53" class="edge">
<title>Hockey&#45;&gt;Goal net</title>
<path fill="none" stroke="#000000" stroke-dasharray="5,2" d="M586.5016,-1087.926C595.655,-1155.2666 618.0784,-1320.2339 629.1262,-1401.5115"/>
<polygon fill="#000000" stroke="#000000" points="630.4793,-1411.4667 624.6734,-1402.164 629.8059,-1406.5123 629.1324,-1401.5578 629.1324,-1401.5578 629.1324,-1401.5578 629.8059,-1406.5123 633.5914,-1400.9517 630.4793,-1411.4667 630.4793,-1411.4667"/>
</g>
<!-- Hockey&#45;&gt;Stick -->
<g id="edge51" class="edge">
<title>Hockey&#45;&gt;Stick</title>
<path fill="none" stroke="#000000" stroke-dasharray="5,2" d="M593.1635,-1029.0694C622.4753,-948.9495 704.129,-725.7595 737.1715,-635.442"/>
<polygon fill="#000000" stroke="#000000" points="740.6773,-625.8595 741.4675,-636.7968 738.9594,-630.5551 737.2414,-635.2507 737.2414,-635.2507 737.2414,-635.2507 738.9594,-630.5551 733.0154,-633.7046 740.6773,-625.8595 740.6773,-625.8595"/>
</g>
<!-- Hockey&#45;&gt;Puck -->
<g id="edge52" class="edge">
<title>Hockey&#45;&gt;Puck</title>
<path fill="none" stroke="#000000" stroke-dasharray="5,2" d="M600.0467,-1085.6946C632.0896,-1135.6636 700.2188,-1241.9068 738.3859,-1301.4261"/>
<polygon fill="#000000" stroke="#000000" points="744.018,-1310.209 734.8319,-1304.2202 741.319,-1306 738.6199,-1301.7911 738.6199,-1301.7911 738.6199,-1301.7911 741.319,-1306 742.408,-1299.3619 744.018,-1310.209 744.018,-1310.209"/>
</g>
<!-- Hockey&#45;&gt;Goal -->
<g id="edge54" class="edge">
<title>Hockey&#45;&gt;Goal</title>
<path fill="none" stroke="#000000" stroke-dasharray="5,2" d="M587.2114,-1028.5703C598.6529,-956.8053 627.8611,-773.5997 641.6621,-687.0347"/>
<polygon fill="#000000" stroke="#000000" points="643.2666,-676.9711 646.136,-687.5549 642.4793,-681.9087 641.6921,-686.8464 641.6921,-686.8464 641.6921,-686.8464 642.4793,-681.9087 637.2482,-686.1379 643.2666,-676.9711 643.2666,-676.9711"/>
</g>
<!-- Hockey&#45;&gt;Shot -->
<g id="edge49" class="edge">
<title>Hockey&#45;&gt;Shot</title>
<path fill="none" stroke="#000000" stroke-dasharray="5,2" d="M618.297,-1039.9412C661.9244,-1017.5954 736.3659,-979.4669 789.5629,-952.2197"/>
<polygon fill="#000000" stroke="#000000" points="798.572,-947.6052 791.723,-956.1692 794.1218,-949.8846 789.6716,-952.164 789.6716,-952.164 789.6716,-952.164 794.1218,-949.8846 787.6201,-948.1588 798.572,-947.6052 798.572,-947.6052"/>
</g>
<!-- Hockey&#45;&gt;Game -->
<g id="edge36" class="edge">
<title>Hockey&#45;&gt;Game</title>
<path fill="none" stroke="#000000" stroke-dasharray="5,2" d="M543.6696,-1073.8669C499.3043,-1091.6764 426.5261,-1120.8918 377.7024,-1140.4912"/>
<polygon fill="#000000" stroke="#000000" points="368.2725,-1144.2766 375.8763,-1136.3751 372.9126,-1142.4139 377.5527,-1140.5512 377.5527,-1140.5512 377.5527,-1140.5512 372.9126,-1142.4139 379.2292,-1144.7273 368.2725,-1144.2766 368.2725,-1144.2766"/>
</g>
<!-- Overtime&#45;&gt;Period -->
<g id="edge41" class="edge">
<title>Overtime&#45;&gt;Period</title>
<path fill="none" stroke="#000000" stroke-dasharray="5,2" d="M60.3859,-1161.7238C67.7033,-1116.1123 81.6403,-1029.2399 89.7744,-978.5378"/>
<polygon fill="#000000" stroke="#000000" points="91.3689,-968.599 94.2279,-979.1856 90.5768,-973.5359 89.7847,-978.4728 89.7847,-978.4728 89.7847,-978.4728 90.5768,-973.5359 85.3415,-977.7599 91.3689,-968.599 91.3689,-968.599"/>
</g>
<!-- Winner -->
<g id="node25" class="node">
<title>Winner</title>
<g id="a_node25"><a xlink:href="../winner.html" xlink:title="Победитель" target="_top">
<ellipse fill="none" stroke="#c0c0c0" stroke-width=".2" cx="203.0948" cy="-656.9054" rx="65.1077" ry="29.8983"/>
<text text-anchor="middle" x="203.0948" y="-661.9054" font-family="Times,serif" font-size="15.00" fill="#000000">Winner</text>
<text text-anchor="middle" x="203.0948" y="-644.9054" font-family="Times,serif" font-size="15.00" fill="#000000">Победитель</text>
</a>
</g>
</g>
<!-- Overtime&#45;&gt;Winner -->
<g id="edge46" class="edge">
<title>Overtime&#45;&gt;Winner</title>
<path fill="none" stroke="#000000" stroke-dasharray="5,2" d="M66.9934,-1162.5225C84.9417,-1115.8839 120.0694,-1021.4067 142.963,-939.1731 166.6967,-853.9221 186.3035,-751.9493 196.181,-696.9054"/>
<polygon fill="#000000" stroke="#000000" points="197.9681,-686.8646 200.6461,-697.4985 197.0919,-691.7873 196.2158,-696.7099 196.2158,-696.7099 196.2158,-696.7099 197.0919,-691.7873 191.7854,-695.9213 197.9681,-686.8646 197.9681,-686.8646"/>
</g>
<!-- Shootout&#45;&gt;Winner -->
<g id="edge47" class="edge">
<title>Shootout&#45;&gt;Winner</title>
<path fill="none" stroke="#000000" stroke-dasharray="5,2" d="M139.0723,-1437.4137C149.2402,-1313.4557 188.1952,-838.5484 199.8085,-696.9688"/>
<polygon fill="#000000" stroke="#000000" points="200.6282,-686.9767 204.2955,-697.3111 200.2193,-691.9599 199.8105,-696.9432 199.8105,-696.9432 199.8105,-696.9432 200.2193,-691.9599 195.3256,-696.5753 200.6282,-686.9767 200.6282,-686.9767"/>
</g>
<!-- Winner&#45;&gt;Team -->
<g id="edge45" class="edge">
<title>Winner&#45;&gt;Team</title>
<path fill="none" stroke="#000000" stroke-dasharray="5,2" d="M261.9483,-669.6241C290.967,-675.8953 325.863,-683.4366 354.8384,-689.6984"/>
<polygon fill="#000000" stroke="#000000" points="364.821,-691.8557 354.0961,-694.1418 359.9338,-690.7995 355.0466,-689.7433 355.0466,-689.7433 355.0466,-689.7433 359.9338,-690.7995 355.9972,-685.3448 364.821,-691.8557 364.821,-691.8557"/>
</g>
<!-- Winner&#45;&gt;Score -->
<g id="edge44" class="edge">
<title>Winner&#45;&gt;Score</title>
<path fill="none" stroke="#000000" stroke-dasharray="5,2" d="M211.9973,-627.4485C225.5759,-583.7771 253.1971,-499.6561 284.395,-431.2854 314.1414,-366.0958 361.1772,-297.4537 391.7509,-255.7815"/>
<polygon fill="#000000" stroke="#000000" points="397.8244,-247.5627 395.5003,-258.2795 394.8528,-251.5839 391.8813,-255.605 391.8813,-255.605 391.8813,-255.605 394.8528,-251.5839 388.2622,-252.9306 397.8244,-247.5627 397.8244,-247.5627"/>
</g>
<!-- Winner&#45;&gt;Game -->
<g id="edge43" class="edge">
<title>Winner&#45;&gt;Game</title>
<path fill="none" stroke="#000000" stroke-dasharray="5,2" d="M210.382,-686.5481C231.1168,-770.8934 290.5572,-1012.6849 315.6194,-1114.6327"/>
<polygon fill="#000000" stroke="#000000" points="318.0769,-1124.6296 311.3197,-1115.993 316.8833,-1119.7742 315.6896,-1114.9187 315.6896,-1114.9187 315.6896,-1114.9187 316.8833,-1119.7742 320.0595,-1113.8444 318.0769,-1124.6296 318.0769,-1124.6296"/>
</g>
</g>
</svg>
