<?xml version="1.0" encoding="UTF-8" standalone="no"?>
<?xml-stylesheet href="../static/svg.css" type="text/css"?>
<!DOCTYPE svg PUBLIC "-//W3C//DTD SVG 1.1//EN"
 "http://www.w3.org/Graphics/SVG/1.1/DTD/svg11.dtd">
<!-- Generated by graphviz version 2.40.1 (20161225.0304)
 -->
<!-- Title: term Pages: 1 -->
<svg width="849pt" height="1376pt"
 viewBox="0.00 0.00 848.82 1376.41" xmlns="http://www.w3.org/2000/svg" xmlns:xlink="http://www.w3.org/1999/xlink">
<g id="graph0" class="graph" transform="scale(1 1) rotate(0) translate(4 1372.4104)">
<title>term</title>
<!-- Shot -->
<g id="node1" class="node root has&#45;pronunciation">
<title>Shot</title>
<g id="a_node1"><a xlink:href="javascript:history.back()" xlink:title="Бросок" target="_top">
<ellipse fill="none" stroke="#c0c0c0" stroke-width=".2" cx="405.7073" cy="-661.9527" rx="67.3507" ry="67.3507"/>
<text text-anchor="middle" x="405.7073" y="-683.9527" font-family="Times,serif" font-size="25.00" fill="#000000">Shot</text>
<text text-anchor="middle" x="405.7073" y="-655.9527" font-family="Times,serif" font-size="25.00" fill="#000000">Бросок</text>
<text text-anchor="middle" x="405.7073" y="-627.9527" font-family="Times,serif" font-size="25.00" fill="#000000">Шат</text>
</a>
</g>
</g>
<!-- Goal -->
<g id="node4" class="node has&#45;pronunciation">
<title>Goal</title>
<g id="a_node4"><a xlink:href="../goal.html" xlink:title="Гол" target="_top">
<ellipse fill="none" stroke="#c0c0c0" stroke-width=".2" cx="173.767" cy="-1135.5403" rx="65.1077" ry="65.1077"/>
<text text-anchor="middle" x="173.767" y="-1157.5403" font-family="Times,serif" font-size="25.00" fill="#000000">Goal</text>
<text text-anchor="middle" x="173.767" y="-1129.5403" font-family="Times,serif" font-size="25.00" fill="#000000">Гол</text>
<text text-anchor="middle" x="173.767" y="-1101.5403" font-family="Times,serif" font-size="25.00" fill="#000000">Гoул</text>
</a>
</g>
</g>
<!-- Shot&#45;&gt;Goal -->
<g id="edge16" class="edge">
<title>Shot&#45;&gt;Goal</title>
<path fill="none" stroke="#000000" stroke-dasharray="5,2" d="M376.0963,-722.4139C332.7207,-810.9805 252.1601,-975.4732 206.8778,-1067.9329"/>
<polygon fill="#000000" stroke="#000000" points="202.4742,-1076.9244 202.8312,-1065.9644 204.6734,-1072.434 206.8726,-1067.9436 206.8726,-1067.9436 206.8726,-1067.9436 204.6734,-1072.434 210.9139,-1069.9229 202.4742,-1076.9244 202.4742,-1076.9244"/>
</g>
<!-- Puck -->
<g id="node5" class="node has&#45;pronunciation">
<title>Puck</title>
<g id="a_node5"><a xlink:href="../puck.html" xlink:title="Шайба" target="_top">
<ellipse fill="none" stroke="#c0c0c0" stroke-width=".2" cx="311.8746" cy="-1303.3565" rx="65.1077" ry="65.1077"/>
<text text-anchor="middle" x="311.8746" y="-1325.3565" font-family="Times,serif" font-size="25.00" fill="#000000">Puck</text>
<text text-anchor="middle" x="311.8746" y="-1297.3565" font-family="Times,serif" font-size="25.00" fill="#000000">Шайба</text>
<text text-anchor="middle" x="311.8746" y="-1269.3565" font-family="Times,serif" font-size="25.00" fill="#000000">Пак</text>
</a>
</g>
</g>
<!-- Shot&#45;&gt;Puck -->
<g id="edge17" class="edge">
<title>Shot&#45;&gt;Puck</title>
<path fill="none" stroke="#000000" stroke-dasharray="5,2" d="M400.955,-729.1155C395.8305,-795.3095 386.6041,-899.2268 373.4816,-988.5856 361.2708,-1071.7362 342.0449,-1166.2494 328.3196,-1229.8265"/>
<polygon fill="#000000" stroke="#000000" points="326.1659,-1239.7581 323.8874,-1229.0316 327.2255,-1234.8717 328.2852,-1229.9853 328.2852,-1229.9853 328.2852,-1229.9853 327.2255,-1234.8717 332.683,-1230.939 326.1659,-1239.7581 326.1659,-1239.7581"/>
</g>
<!-- Stick -->
<g id="node6" class="node has&#45;pronunciation">
<title>Stick</title>
<g id="a_node6"><a xlink:href="../stick.html" xlink:title="Клюшка" target="_top">
<ellipse fill="none" stroke="#c0c0c0" stroke-width=".2" cx="556.7291" cy="-1269.8679" rx="48.5816" ry="48.5816"/>
<text text-anchor="middle" x="556.7291" y="-1283.3679" font-family="Times,serif" font-size="15.00" fill="#000000">Stick</text>
<text text-anchor="middle" x="556.7291" y="-1266.3679" font-family="Times,serif" font-size="15.00" fill="#000000">Клюшка</text>
<text text-anchor="middle" x="556.7291" y="-1249.3679" font-family="Times,serif" font-size="15.00" fill="#000000">Стик</text>
</a>
</g>
</g>
<!-- Shot&#45;&gt;Stick -->
<g id="edge18" class="edge">
<title>Shot&#45;&gt;Stick</title>
<path fill="none" stroke="#000000" stroke-dasharray="5,2" d="M413.0252,-728.9967C422.5643,-807.6801 441.7803,-941.6182 472.7135,-1053.4328 488.4331,-1110.2549 513.6166,-1172.8007 532.3177,-1215.98"/>
<polygon fill="#000000" stroke="#000000" points="536.3233,-1225.1622 528.2002,-1217.7957 534.324,-1220.5793 532.3248,-1215.9964 532.3248,-1215.9964 532.3248,-1215.9964 534.324,-1220.5793 536.4494,-1214.197 536.3233,-1225.1622 536.3233,-1225.1622"/>
</g>
<!-- Goal net -->
<g id="node7" class="node has&#45;pronunciation">
<title>Goal net</title>
<g id="a_node7"><a xlink:href="../goal-net.html" xlink:title="Ворота" target="_top">
<ellipse fill="none" stroke="#c0c0c0" stroke-width=".2" cx="94.9028" cy="-864.7287" rx="77.5641" ry="77.5641"/>
<text text-anchor="middle" x="94.9028" y="-886.7287" font-family="Times,serif" font-size="25.00" fill="#000000">Goal net</text>
<text text-anchor="middle" x="94.9028" y="-858.7287" font-family="Times,serif" font-size="25.00" fill="#000000">Ворота</text>
<text text-anchor="middle" x="94.9028" y="-830.7287" font-family="Times,serif" font-size="25.00" fill="#000000">Гoул нет</text>
</a>
</g>
</g>
<!-- Shot&#45;&gt;Goal net -->
<g id="edge19" class="edge">
<title>Shot&#45;&gt;Goal net</title>
<path fill="none" stroke="#000000" stroke-dasharray="5,2" d="M349.423,-698.6739C298.861,-731.6616 224.2733,-780.3244 168.8996,-816.4514"/>
<polygon fill="#000000" stroke="#000000" points="160.1841,-822.1377 166.1004,-812.9046 164.3717,-819.4056 168.5593,-816.6735 168.5593,-816.6735 168.5593,-816.6735 164.3717,-819.4056 171.0181,-820.4423 160.1841,-822.1377 160.1841,-822.1377"/>
</g>
<!-- Flip shot -->
<g id="node8" class="node has&#45;pronunciation">
<title>Flip shot</title>
<g id="a_node8"><a xlink:href="../flip-shot.html" xlink:title="Подкидка" target="_top">
<ellipse fill="none" stroke="#c0c0c0" stroke-width=".2" cx="724.0745" cy="-459.1656" rx="55.7232" ry="55.7232"/>
<text text-anchor="middle" x="724.0745" y="-472.6656" font-family="Times,serif" font-size="15.00" fill="#000000">Flip shot</text>
<text text-anchor="middle" x="724.0745" y="-455.6656" font-family="Times,serif" font-size="15.00" fill="#000000">Подкидка</text>
<text text-anchor="middle" x="724.0745" y="-438.6656" font-family="Times,serif" font-size="15.00" fill="#000000">Флип шат</text>
</a>
</g>
</g>
<!-- Shot&#45;&gt;Flip shot -->
<g id="edge20" class="edge">
<title>Shot&#45;&gt;Flip shot</title>
<path fill="none" stroke="#000000" stroke-dasharray="5,2" d="M462.625,-625.6984C520.7216,-588.6932 610.3343,-531.6135 668.0904,-494.8252"/>
<polygon fill="#000000" stroke="#000000" points="676.7246,-489.3255 670.7079,-498.4934 672.5075,-492.0117 668.2903,-494.6979 668.2903,-494.6979 668.2903,-494.6979 672.5075,-492.0117 665.8727,-490.9025 676.7246,-489.3255 676.7246,-489.3255"/>
</g>
<!-- Wrist shot -->
<g id="node9" class="node has&#45;pronunciation">
<title>Wrist shot</title>
<g id="a_node9"><a xlink:href="../wrist-shot.html" xlink:title="Кистевой" target="_top">
<ellipse fill="none" stroke="#c0c0c0" stroke-width=".2" cx="216.2384" cy="-181.0999" rx="56.6372" ry="56.6372"/>
<text text-anchor="middle" x="216.2384" y="-194.5999" font-family="Times,serif" font-size="15.00" fill="#000000">Wrist shot</text>
<text text-anchor="middle" x="216.2384" y="-177.5999" font-family="Times,serif" font-size="15.00" fill="#000000">Кистевой</text>
<text text-anchor="middle" x="216.2384" y="-160.5999" font-family="Times,serif" font-size="15.00" fill="#000000">Рист шат</text>
</a>
</g>
</g>
<!-- Shot&#45;&gt;Wrist shot -->
<g id="edge21" class="edge">
<title>Shot&#45;&gt;Wrist shot</title>
<path fill="none" stroke="#000000" stroke-dasharray="5,2" d="M380.9376,-599.0896C344.5593,-506.7651 277.0817,-335.514 240.8143,-243.4709"/>
<polygon fill="#000000" stroke="#000000" points="237.0839,-234.0035 244.9366,-241.6576 238.9169,-238.6554 240.7499,-243.3073 240.7499,-243.3073 240.7499,-243.3073 238.9169,-238.6554 236.5632,-244.957 237.0839,-234.0035 237.0839,-234.0035"/>
</g>
<!-- Slapshot -->
<g id="node10" class="node has&#45;pronunciation">
<title>Slapshot</title>
<g id="a_node10"><a xlink:href="../slapshot.html" xlink:title="Щелчок" target="_top">
<ellipse fill="none" stroke="#c0c0c0" stroke-width=".2" cx="592.1532" cy="-190.9029" rx="50.8235" ry="50.8235"/>
<text text-anchor="middle" x="592.1532" y="-204.4029" font-family="Times,serif" font-size="15.00" fill="#000000">Slapshot</text>
<text text-anchor="middle" x="592.1532" y="-187.4029" font-family="Times,serif" font-size="15.00" fill="#000000">Щелчок</text>
<text text-anchor="middle" x="592.1532" y="-170.4029" font-family="Times,serif" font-size="15.00" fill="#000000">Слэпшат</text>
</a>
</g>
</g>
<!-- Shot&#45;&gt;Slapshot -->
<g id="edge22" class="edge">
<title>Shot&#45;&gt;Slapshot</title>
<path fill="none" stroke="#000000" stroke-dasharray="5,2" d="M430.4659,-599.4009C466.9274,-507.2821 534.5308,-336.4842 569.6538,-247.7468"/>
<polygon fill="#000000" stroke="#000000" points="573.3607,-238.3814 573.8646,-249.3357 571.5206,-243.0305 569.6804,-247.6796 569.6804,-247.6796 569.6804,-247.6796 571.5206,-243.0305 565.4962,-246.0234 573.3607,-238.3814 573.3607,-238.3814"/>
</g>
<!-- Snap shot -->
<g id="node11" class="node has&#45;pronunciation">
<title>Snap shot</title>
<g id="a_node11"><a xlink:href="../snap-shot.html" xlink:title="Короткий щелчок" target="_top">
<ellipse fill="none" stroke="#c0c0c0" stroke-width=".2" cx="405.5579" cy="-91.9239" rx="91.8478" ry="91.8478"/>
<text text-anchor="middle" x="405.5579" y="-105.4239" font-family="Times,serif" font-size="15.00" fill="#000000">Snap shot</text>
<text text-anchor="middle" x="405.5579" y="-88.4239" font-family="Times,serif" font-size="15.00" fill="#000000">Короткий щелчок</text>
<text text-anchor="middle" x="405.5579" y="-71.4239" font-family="Times,serif" font-size="15.00" fill="#000000">Снэп шат</text>
</a>
</g>
</g>
<!-- Shot&#45;&gt;Snap shot -->
<g id="edge23" class="edge">
<title>Shot&#45;&gt;Snap shot</title>
<path fill="none" stroke="#000000" stroke-dasharray="5,2" d="M405.6897,-594.6059C405.6637,-495.6581 405.6151,-310.2155 405.5847,-194.3349"/>
<polygon fill="#000000" stroke="#000000" points="405.582,-184.0371 410.0848,-194.0359 405.5834,-189.0371 405.5848,-194.0371 405.5848,-194.0371 405.5848,-194.0371 405.5834,-189.0371 401.0848,-194.0383 405.582,-184.0371 405.582,-184.0371"/>
</g>
<!-- Backhand shot -->
<g id="node12" class="node has&#45;pronunciation">
<title>Backhand shot</title>
<g id="a_node12"><a xlink:href="../backhand-shot.html" xlink:title="С неудобной" target="_top">
<ellipse fill="none" stroke="#c0c0c0" stroke-width=".2" cx="75.6604" cy="-421.8406" rx="75.8212" ry="75.8212"/>
<text text-anchor="middle" x="75.6604" y="-435.3406" font-family="Times,serif" font-size="15.00" fill="#000000">Backhand shot</text>
<text text-anchor="middle" x="75.6604" y="-418.3406" font-family="Times,serif" font-size="15.00" fill="#000000">С неудобной</text>
<text text-anchor="middle" x="75.6604" y="-401.3406" font-family="Times,serif" font-size="15.00" fill="#000000">ˈБэкˌхэнд шат</text>
</a>
</g>
</g>
<!-- Shot&#45;&gt;Backhand shot -->
<g id="edge24" class="edge">
<title>Shot&#45;&gt;Backhand shot</title>
<path fill="none" stroke="#000000" stroke-dasharray="5,2" d="M351.2068,-622.3031C294.7847,-581.2555 206.4614,-516.9995 145.078,-472.3425"/>
<polygon fill="#000000" stroke="#000000" points="136.9783,-466.4499 147.7121,-468.694 141.0215,-469.3914 145.0648,-472.3329 145.0648,-472.3329 145.0648,-472.3329 141.0215,-469.3914 142.4174,-475.9718 136.9783,-466.4499 136.9783,-466.4499"/>
</g>
<!-- One&#45;timer -->
<g id="node13" class="node has&#45;pronunciation">
<title>One&#45;timer</title>
<g id="a_node13"><a xlink:href="../one-timer.html" xlink:title="В одно касание" target="_top">
<ellipse fill="none" stroke="#c0c0c0" stroke-width=".2" cx="760.9129" cy="-815.1228" rx="79.8062" ry="79.8062"/>
<text text-anchor="middle" x="760.9129" y="-828.6228" font-family="Times,serif" font-size="15.00" fill="#000000">One&#45;timer</text>
<text text-anchor="middle" x="760.9129" y="-811.6228" font-family="Times,serif" font-size="15.00" fill="#000000">В одно касание</text>
<text text-anchor="middle" x="760.9129" y="-794.6228" font-family="Times,serif" font-size="15.00" fill="#000000">Уан&#45;ˈтаймэр</text>
</a>
</g>
</g>
<!-- Shot&#45;&gt;One&#45;timer -->
<g id="edge25" class="edge">
<title>Shot&#45;&gt;One&#45;timer</title>
<path fill="none" stroke="#000000" stroke-dasharray="5,2" d="M467.5794,-688.6329C525.93,-713.7945 613.8007,-751.6857 678.1573,-779.4373"/>
<polygon fill="#000000" stroke="#000000" points="687.4757,-783.4555 676.5111,-783.6279 682.8843,-781.4756 678.293,-779.4958 678.293,-779.4958 678.293,-779.4958 682.8843,-781.4756 680.0749,-775.3636 687.4757,-783.4555 687.4757,-783.4555"/>
</g>
<!-- Player -->
<g id="node2" class="node has&#45;pronunciation">
<title>Player</title>
<g id="a_node2"><a xlink:href="../player.html" xlink:title="Игрок" target="_top">
<ellipse fill="none" stroke="#c0c0c0" stroke-width=".2" cx="520.9817" cy="-1053.7195" rx="46.8387" ry="46.8387"/>
<text text-anchor="middle" x="520.9817" y="-1067.2195" font-family="Times,serif" font-size="15.00" fill="#000000">Player</text>
<text text-anchor="middle" x="520.9817" y="-1050.2195" font-family="Times,serif" font-size="15.00" fill="#000000">Игрок</text>
<text text-anchor="middle" x="520.9817" y="-1033.2195" font-family="Times,serif" font-size="15.00" fill="#000000">&#39;Плейэр</text>
</a>
</g>
</g>
<!-- Player&#45;&gt;Shot -->
<g id="edge14" class="edge">
<title>Player&#45;&gt;Shot</title>
<path fill="none" stroke="#000000" stroke-dasharray="5,2" d="M507.7582,-1008.7788C488.1923,-942.2829 451.3004,-816.9036 427.6443,-736.5068"/>
<polygon fill="#000000" stroke="#000000" points="424.684,-726.4461 431.8239,-734.7692 426.0954,-731.2428 427.5069,-736.0394 427.5069,-736.0394 427.5069,-736.0394 426.0954,-731.2428 423.1899,-737.3097 424.684,-726.4461 424.684,-726.4461"/>
</g>
<!-- Player&#45;&gt;Goal -->
<g id="edge1" class="edge">
<title>Player&#45;&gt;Goal</title>
<path fill="none" stroke="#000000" stroke-dasharray="5,2" d="M475.2324,-1064.5003C417.1365,-1078.1905 316.1758,-1101.9818 247.233,-1118.2281"/>
<polygon fill="#000000" stroke="#000000" points="237.3023,-1120.5682 246.0036,-1113.8944 242.169,-1119.4213 247.0357,-1118.2745 247.0357,-1118.2745 247.0357,-1118.2745 242.169,-1119.4213 248.0679,-1122.6545 237.3023,-1120.5682 237.3023,-1120.5682"/>
</g>
<!-- Hockey -->
<g id="node3" class="node has&#45;pronunciation">
<title>Hockey</title>
<g id="a_node3"><a xlink:href="../hockey.html" xlink:title="Хоккей" target="_top">
<ellipse fill="none" stroke="#c0c0c0" stroke-width=".2" cx="326.6271" cy="-988.4015" rx="45.011" ry="45.011"/>
<text text-anchor="middle" x="326.6271" y="-1001.9015" font-family="Times,serif" font-size="15.00" fill="#000000">Hockey</text>
<text text-anchor="middle" x="326.6271" y="-984.9015" font-family="Times,serif" font-size="15.00" fill="#000000">Хоккей</text>
<text text-anchor="middle" x="326.6271" y="-967.9015" font-family="Times,serif" font-size="15.00" fill="#000000">ˈХаки</text>
</a>
</g>
</g>
<!-- Hockey&#45;&gt;Shot -->
<g id="edge15" class="edge">
<title>Hockey&#45;&gt;Shot</title>
<path fill="none" stroke="#000000" stroke-dasharray="5,2" d="M337.2922,-944.3752C350.1181,-891.4291 371.8566,-801.6908 387.3879,-737.5765"/>
<polygon fill="#000000" stroke="#000000" points="389.825,-727.5161 391.8441,-738.2945 388.6478,-732.3755 387.4706,-737.235 387.4706,-737.235 387.4706,-737.235 388.6478,-732.3755 383.0971,-736.1755 389.825,-727.5161 389.825,-727.5161"/>
</g>
<!-- Hockey&#45;&gt;Player -->
<g id="edge2" class="edge">
<title>Hockey&#45;&gt;Player</title>
<path fill="none" stroke="#000000" stroke-dasharray="5,2" d="M369.7607,-1002.8977C398.4196,-1012.5293 436.2736,-1025.2511 466.9385,-1035.5568"/>
<polygon fill="#000000" stroke="#000000" points="476.6212,-1038.811 465.7086,-1039.8908 471.8817,-1037.2181 467.1422,-1035.6252 467.1422,-1035.6252 467.1422,-1035.6252 471.8817,-1037.2181 468.5758,-1031.3597 476.6212,-1038.811 476.6212,-1038.811"/>
</g>
<!-- Hockey&#45;&gt;Goal -->
<g id="edge6" class="edge">
<title>Hockey&#45;&gt;Goal</title>
<path fill="none" stroke="#000000" stroke-dasharray="5,2" d="M293.8348,-1019.9665C274.6826,-1038.4018 250.0325,-1062.1292 228.0556,-1083.2835"/>
<polygon fill="#000000" stroke="#000000" points="220.7169,-1090.3476 224.8008,-1080.1705 224.3192,-1086.8801 227.9215,-1083.4126 227.9215,-1083.4126 227.9215,-1083.4126 224.3192,-1086.8801 231.0423,-1086.6547 220.7169,-1090.3476 220.7169,-1090.3476"/>
</g>
<!-- Hockey&#45;&gt;Puck -->
<g id="edge4" class="edge">
<title>Hockey&#45;&gt;Puck</title>
<path fill="none" stroke="#000000" stroke-dasharray="5,2" d="M324.4977,-1033.8623C322.1217,-1084.5889 318.2397,-1167.4667 315.4071,-1227.94"/>
<polygon fill="#000000" stroke="#000000" points="314.9265,-1238.1999 310.8994,-1228.0003 315.1605,-1233.2054 315.3945,-1228.2109 315.3945,-1228.2109 315.3945,-1228.2109 315.1605,-1233.2054 319.8896,-1228.4215 314.9265,-1238.1999 314.9265,-1238.1999"/>
</g>
<!-- Hockey&#45;&gt;Stick -->
<g id="edge3" class="edge">
<title>Hockey&#45;&gt;Stick</title>
<path fill="none" stroke="#000000" stroke-dasharray="5,2" d="M355.3044,-1023.4803C396.6422,-1074.0457 473.038,-1167.4949 518.9367,-1223.6393"/>
<polygon fill="#000000" stroke="#000000" points="525.4795,-1231.6426 515.6663,-1226.7487 522.3149,-1227.7716 519.1502,-1223.9005 519.1502,-1223.9005 519.1502,-1223.9005 522.3149,-1227.7716 522.6342,-1221.0523 525.4795,-1231.6426 525.4795,-1231.6426"/>
</g>
<!-- Hockey&#45;&gt;Goal net -->
<g id="edge5" class="edge">
<title>Hockey&#45;&gt;Goal net</title>
<path fill="none" stroke="#000000" stroke-dasharray="5,2" d="M286.5283,-967.0005C255.2287,-950.2957 210.7929,-926.58 172.5907,-906.1913"/>
<polygon fill="#000000" stroke="#000000" points="163.533,-901.3571 174.474,-902.0956 167.9441,-903.7114 172.3552,-906.0656 172.3552,-906.0656 172.3552,-906.0656 167.9441,-903.7114 170.2364,-910.0356 163.533,-901.3571 163.533,-901.3571"/>
</g>
<!-- Goal&#45;&gt;Puck -->
<g id="edge7" class="edge">
<title>Goal&#45;&gt;Puck</title>
<path fill="none" stroke="#000000" stroke-dasharray="5,2" d="M215.2038,-1185.8907C230.567,-1204.5587 248.1137,-1225.8799 264.0036,-1245.1879"/>
<polygon fill="#000000" stroke="#000000" points="270.467,-1253.0417 260.6378,-1248.1797 267.2897,-1249.1809 264.1125,-1245.3202 264.1125,-1245.3202 264.1125,-1245.3202 267.2897,-1249.1809 267.5871,-1242.4607 270.467,-1253.0417 270.467,-1253.0417"/>
</g>
<!-- Goal&#45;&gt;Goal net -->
<g id="edge8" class="edge">
<title>Goal&#45;&gt;Goal net</title>
<path fill="none" stroke="#000000" stroke-dasharray="5,2" d="M155.5749,-1073.0706C144.9007,-1036.4166 131.2668,-989.5991 119.6281,-949.6331"/>
<polygon fill="#000000" stroke="#000000" points="116.7927,-939.8964 123.9093,-948.2394 118.1907,-944.697 119.5887,-949.4976 119.5887,-949.4976 119.5887,-949.4976 118.1907,-944.697 115.2682,-950.7558 116.7927,-939.8964 116.7927,-939.8964"/>
</g>
<!-- Puck&#45;&gt;Goal net -->
<g id="edge9" class="edge">
<title>Puck&#45;&gt;Goal net</title>
<path fill="none" stroke="#000000" stroke-dasharray="5,2" d="M288.3135,-1242.4261C271.0124,-1199.0297 246.269,-1139.6347 221.3203,-1088.8347 196.4497,-1038.1937 165.3492,-982.9735 140.2195,-940.0184"/>
<polygon fill="#000000" stroke="#000000" points="135.1147,-931.3206 144.0574,-937.6672 137.6455,-935.6328 140.1764,-939.9449 140.1764,-939.9449 140.1764,-939.9449 137.6455,-935.6328 136.2954,-942.2227 135.1147,-931.3206 135.1147,-931.3206"/>
</g>
<!-- Stick&#45;&gt;Puck -->
<g id="edge10" class="edge">
<title>Stick&#45;&gt;Puck</title>
<path fill="none" stroke="#000000" stroke-dasharray="5,2" d="M508.3537,-1276.4841C473.6086,-1281.2362 426.1173,-1287.7316 386.5297,-1293.146"/>
<polygon fill="#000000" stroke="#000000" points="376.3848,-1294.5335 385.6828,-1288.7198 381.3387,-1293.8559 386.2926,-1293.1783 386.2926,-1293.1783 386.2926,-1293.1783 381.3387,-1293.8559 386.9024,-1297.6368 376.3848,-1294.5335 376.3848,-1294.5335"/>
</g>
<!-- Snap shot&#45;&gt;Wrist shot -->
<g id="edge11" class="edge">
<title>Snap shot&#45;&gt;Wrist shot</title>
<path fill="none" stroke="#000000" stroke-dasharray="5,2" d="M322.2441,-131.1675C306.9451,-138.3739 291.2449,-145.7692 276.7733,-152.5859"/>
<polygon fill="#000000" stroke="#000000" points="267.4573,-156.974 274.5864,-148.6417 271.9807,-154.8433 276.504,-152.7127 276.504,-152.7127 276.504,-152.7127 271.9807,-154.8433 278.4216,-156.7836 267.4573,-156.974 267.4573,-156.974"/>
</g>
<!-- Snap shot&#45;&gt;Slapshot -->
<g id="edge12" class="edge">
<title>Snap shot&#45;&gt;Slapshot</title>
<path fill="none" stroke="#000000" stroke-dasharray="5,2" d="M486.8585,-135.0496C504.099,-144.1948 521.8952,-153.6347 537.8394,-162.0923"/>
<polygon fill="#000000" stroke="#000000" points="546.9948,-166.9488 536.052,-166.238 542.5778,-164.6057 538.1607,-162.2627 538.1607,-162.2627 538.1607,-162.2627 542.5778,-164.6057 540.2695,-158.2874 546.9948,-166.9488 546.9948,-166.9488"/>
</g>
<!-- Backhand shot&#45;&gt;Wrist shot -->
<g id="edge13" class="edge">
<title>Backhand shot&#45;&gt;Wrist shot</title>
<path fill="none" stroke="#000000" stroke-dasharray="5,2" d="M113.8883,-356.3752C135.3247,-319.6651 161.8246,-274.284 182.4885,-238.8969"/>
<polygon fill="#000000" stroke="#000000" points="187.6097,-230.1268 186.453,-241.0315 185.0883,-234.4446 182.567,-238.7623 182.567,-238.7623 182.567,-238.7623 185.0883,-234.4446 178.681,-236.4931 187.6097,-230.1268 187.6097,-230.1268"/>
</g>
</g>
</svg>
