<?xml version="1.0" encoding="UTF-8" standalone="no"?>
<?xml-stylesheet href="../static/svg.css" type="text/css"?>
<!DOCTYPE svg PUBLIC "-//W3C//DTD SVG 1.1//EN"
 "http://www.w3.org/Graphics/SVG/1.1/DTD/svg11.dtd">
<!-- Generated by graphviz version 2.40.1 (20161225.0304)
 -->
<!-- Title: term Pages: 1 -->
<svg width="294pt" height="443pt"
 viewBox="0.00 0.00 294.03 442.79" xmlns="http://www.w3.org/2000/svg" xmlns:xlink="http://www.w3.org/1999/xlink">
<g id="graph0" class="graph" transform="scale(1 1) rotate(0) translate(4 438.7866)">
<title>term</title>
<!-- Sport -->
<g id="node1" class="node root ">
<title>Sport</title>
<g id="a_node1"><a xlink:href="javascript:history.back()" xlink:title="Спорт" target="_top">
<ellipse fill="none" stroke="#c0c0c0" stroke-width=".2" cx="39.598" cy="-189.6775" rx="39.6962" ry="39.6962"/>
<text text-anchor="middle" x="39.598" y="-194.6775" font-family="Times,serif" font-size="15.00" fill="#000000">Sport</text>
<text text-anchor="middle" x="39.598" y="-177.6775" font-family="Times,serif" font-size="15.00" fill="#000000">Спорт</text>
</a>
</g>
</g>
<!-- Game -->
<g id="node4" class="node has&#45;pronunciation">
<title>Game</title>
<g id="a_node4"><a xlink:href="../game.html" xlink:title="Игра" target="_top">
<ellipse fill="none" stroke="#c0c0c0" stroke-width=".2" cx="122.4666" cy="-382.4607" rx="52.1524" ry="52.1524"/>
<text text-anchor="middle" x="122.4666" y="-399.4607" font-family="Times,serif" font-size="20.00" fill="#000000">Game</text>
<text text-anchor="middle" x="122.4666" y="-377.4607" font-family="Times,serif" font-size="20.00" fill="#000000">Игра</text>
<text text-anchor="middle" x="122.4666" y="-355.4607" font-family="Times,serif" font-size="20.00" fill="#000000">Гейм</text>
</a>
</g>
</g>
<!-- Sport&#45;&gt;Game -->
<g id="edge6" class="edge">
<title>Sport&#45;&gt;Game</title>
<path fill="none" stroke="#000000" stroke-dasharray="5,2" d="M55.38,-226.3924C67.3475,-254.2332 84.022,-293.0243 97.7529,-324.9675"/>
<polygon fill="#000000" stroke="#000000" points="101.7257,-334.2098 93.6423,-326.7997 99.7511,-329.6162 97.7765,-325.0226 97.7765,-325.0226 97.7765,-325.0226 99.7511,-329.6162 101.9107,-323.2454 101.7257,-334.2098 101.7257,-334.2098"/>
</g>
<!-- Team -->
<g id="node2" class="node has&#45;pronunciation">
<title>Team</title>
<g id="a_node2"><a xlink:href="../team.html" xlink:title="Команда" target="_top">
<ellipse fill="none" stroke="#c0c0c0" stroke-width=".2" cx="234.4113" cy="-239.3398" rx="51.7379" ry="51.7379"/>
<text text-anchor="middle" x="234.4113" y="-252.8398" font-family="Times,serif" font-size="15.00" fill="#000000">Team</text>
<text text-anchor="middle" x="234.4113" y="-235.8398" font-family="Times,serif" font-size="15.00" fill="#000000">Команда</text>
<text text-anchor="middle" x="234.4113" y="-218.8398" font-family="Times,serif" font-size="15.00" fill="#000000">Тим</text>
</a>
</g>
</g>
<!-- Team&#45;&gt;Sport -->
<g id="edge4" class="edge">
<title>Team&#45;&gt;Sport</title>
<path fill="none" stroke="#000000" stroke-dasharray="5,2" d="M184.242,-226.5505C154.6937,-219.018 117.4933,-209.5348 88.2184,-202.072"/>
<polygon fill="#000000" stroke="#000000" points="78.2196,-199.5231 89.0213,-197.6328 83.0646,-200.7582 87.9097,-201.9934 87.9097,-201.9934 87.9097,-201.9934 83.0646,-200.7582 86.7981,-206.3539 78.2196,-199.5231 78.2196,-199.5231"/>
</g>
<!-- Player -->
<g id="node3" class="node has&#45;pronunciation">
<title>Player</title>
<g id="a_node3"><a xlink:href="../player.html" xlink:title="Игрок" target="_top">
<ellipse fill="none" stroke="#c0c0c0" stroke-width=".2" cx="151.3392" cy="-46.669" rx="46.8387" ry="46.8387"/>
<text text-anchor="middle" x="151.3392" y="-60.169" font-family="Times,serif" font-size="15.00" fill="#000000">Player</text>
<text text-anchor="middle" x="151.3392" y="-43.169" font-family="Times,serif" font-size="15.00" fill="#000000">Игрок</text>
<text text-anchor="middle" x="151.3392" y="-26.169" font-family="Times,serif" font-size="15.00" fill="#000000">&#39;Плейэр</text>
</a>
</g>
</g>
<!-- Team&#45;&gt;Player -->
<g id="edge1" class="edge">
<title>Team&#45;&gt;Player</title>
<path fill="none" stroke="#000000" stroke-dasharray="5,2" d="M213.8766,-191.7133C201.7898,-163.6801 186.4832,-128.1793 174.0387,-99.3166"/>
<polygon fill="#000000" stroke="#000000" points="169.9369,-89.8032 178.0285,-97.2043 171.9166,-94.3946 173.8962,-98.986 173.8962,-98.986 173.8962,-98.986 171.9166,-94.3946 169.764,-100.7677 169.9369,-89.8032 169.9369,-89.8032"/>
</g>
<!-- Player&#45;&gt;Sport -->
<g id="edge5" class="edge">
<title>Player&#45;&gt;Sport</title>
<path fill="none" stroke="#000000" stroke-dasharray="5,2" d="M122.563,-83.4973C106.5788,-103.9542 86.6907,-129.4073 70.3939,-150.2643"/>
<polygon fill="#000000" stroke="#000000" points="64.1114,-158.3048 66.7225,-147.6543 67.1899,-154.3649 70.2684,-150.4249 70.2684,-150.4249 70.2684,-150.4249 67.1899,-154.3649 73.8144,-153.1956 64.1114,-158.3048 64.1114,-158.3048"/>
</g>
<!-- Player&#45;&gt;Game -->
<g id="edge2" class="edge">
<title>Player&#45;&gt;Game</title>
<path fill="none" stroke="#000000" stroke-dasharray="5,2" d="M147.3245,-93.3594C142.2503,-152.3739 133.4977,-254.1676 127.848,-319.8735"/>
<polygon fill="#000000" stroke="#000000" points="126.969,-330.0969 123.3423,-319.7482 127.3974,-325.1153 127.8257,-320.1337 127.8257,-320.1337 127.8257,-320.1337 127.3974,-325.1153 132.3092,-320.5193 126.969,-330.0969 126.969,-330.0969"/>
</g>
<!-- Game&#45;&gt;Team -->
<g id="edge3" class="edge">
<title>Game&#45;&gt;Team</title>
<path fill="none" stroke="#000000" stroke-dasharray="5,2" d="M154.8456,-341.0642C167.7199,-324.6044 182.6326,-305.5386 196.0439,-288.3923"/>
<polygon fill="#000000" stroke="#000000" points="202.4916,-280.149 199.8751,-290.7982 199.4111,-284.0874 196.3306,-288.0257 196.3306,-288.0257 196.3306,-288.0257 199.4111,-284.0874 192.7861,-285.2533 202.4916,-280.149 202.4916,-280.149"/>
</g>
</g>
</svg>
