<?xml version="1.0" encoding="UTF-8" standalone="no"?>
<?xml-stylesheet href="../static/svg.css" type="text/css"?>
<!DOCTYPE svg PUBLIC "-//W3C//DTD SVG 1.1//EN"
 "http://www.w3.org/Graphics/SVG/1.1/DTD/svg11.dtd">
<!-- Generated by graphviz version 2.40.1 (20161225.0304)
 -->
<!-- Title: term Pages: 1 -->
<svg width="244pt" height="338pt"
 viewBox="0.00 0.00 244.10 337.88" xmlns="http://www.w3.org/2000/svg" xmlns:xlink="http://www.w3.org/1999/xlink">
<g id="graph0" class="graph" transform="scale(1 1) rotate(0) translate(4 333.8839)">
<title>term</title>
<!-- Stick -->
<g id="node1" class="node root has&#45;pronunciation">
<title>Stick</title>
<g id="a_node1"><a xlink:href="javascript:history.back()" xlink:title="Клюшка" target="_top">
<ellipse fill="none" stroke="#c0c0c0" stroke-width=".2" cx="48.7904" cy="-281.0936" rx="48.5816" ry="48.5816"/>
<text text-anchor="middle" x="48.7904" y="-294.5936" font-family="Times,serif" font-size="15.00" fill="#000000">Stick</text>
<text text-anchor="middle" x="48.7904" y="-277.5936" font-family="Times,serif" font-size="15.00" fill="#000000">Клюшка</text>
<text text-anchor="middle" x="48.7904" y="-260.5936" font-family="Times,serif" font-size="15.00" fill="#000000">Стик</text>
</a>
</g>
</g>
<!-- Puck -->
<g id="node3" class="node has&#45;pronunciation">
<title>Puck</title>
<g id="a_node3"><a xlink:href="../puck.html" xlink:title="Шайба" target="_top">
<ellipse fill="none" stroke="#c0c0c0" stroke-width=".2" cx="120.779" cy="-65.0538" rx="65.1077" ry="65.1077"/>
<text text-anchor="middle" x="120.779" y="-87.0538" font-family="Times,serif" font-size="25.00" fill="#000000">Puck</text>
<text text-anchor="middle" x="120.779" y="-59.0538" font-family="Times,serif" font-size="25.00" fill="#000000">Шайба</text>
<text text-anchor="middle" x="120.779" y="-31.0538" font-family="Times,serif" font-size="25.00" fill="#000000">Пак</text>
</a>
</g>
</g>
<!-- Stick&#45;&gt;Puck -->
<g id="edge3" class="edge">
<title>Stick&#45;&gt;Puck</title>
<path fill="none" stroke="#000000" stroke-dasharray="5,2" d="M64.2337,-234.7476C73.7437,-206.2082 86.1319,-169.0309 96.8881,-136.7512"/>
<polygon fill="#000000" stroke="#000000" points="100.1688,-126.9057 101.2767,-137.8154 98.5881,-131.6492 97.0074,-136.3928 97.0074,-136.3928 97.0074,-136.3928 98.5881,-131.6492 92.7382,-134.9702 100.1688,-126.9057 100.1688,-126.9057"/>
</g>
<!-- Hockey -->
<g id="node2" class="node has&#45;pronunciation">
<title>Hockey</title>
<g id="a_node2"><a xlink:href="../hockey.html" xlink:title="Хоккей" target="_top">
<ellipse fill="none" stroke="#c0c0c0" stroke-width=".2" cx="190.844" cy="-282.7463" rx="45.011" ry="45.011"/>
<text text-anchor="middle" x="190.844" y="-296.2463" font-family="Times,serif" font-size="15.00" fill="#000000">Hockey</text>
<text text-anchor="middle" x="190.844" y="-279.2463" font-family="Times,serif" font-size="15.00" fill="#000000">Хоккей</text>
<text text-anchor="middle" x="190.844" y="-262.2463" font-family="Times,serif" font-size="15.00" fill="#000000">ˈХаки</text>
</a>
</g>
</g>
<!-- Hockey&#45;&gt;Stick -->
<g id="edge2" class="edge">
<title>Hockey&#45;&gt;Stick</title>
<path fill="none" stroke="#000000" stroke-dasharray="5,2" d="M145.5067,-282.2188C133.4617,-282.0787 120.2774,-281.9253 107.6252,-281.7781"/>
<polygon fill="#000000" stroke="#000000" points="97.6243,-281.6617 107.6761,-277.2785 102.624,-281.72 107.6237,-281.7782 107.6237,-281.7782 107.6237,-281.7782 102.624,-281.72 107.5713,-286.2779 97.6243,-281.6617 97.6243,-281.6617"/>
</g>
<!-- Hockey&#45;&gt;Puck -->
<g id="edge1" class="edge">
<title>Hockey&#45;&gt;Puck</title>
<path fill="none" stroke="#000000" stroke-dasharray="5,2" d="M176.9176,-239.477C167.51,-210.2475 154.865,-170.9592 143.9578,-137.0705"/>
<polygon fill="#000000" stroke="#000000" points="140.7834,-127.2075 148.1308,-135.3479 142.3153,-131.9671 143.8472,-136.7267 143.8472,-136.7267 143.8472,-136.7267 142.3153,-131.9671 139.5636,-138.1054 140.7834,-127.2075 140.7834,-127.2075"/>
</g>
</g>
</svg>
