<?xml version="1.0" encoding="UTF-8" standalone="no"?>
<?xml-stylesheet href="../static/svg.css" type="text/css"?>
<!DOCTYPE svg PUBLIC "-//W3C//DTD SVG 1.1//EN"
 "http://www.w3.org/Graphics/SVG/1.1/DTD/svg11.dtd">
<!-- Generated by graphviz version 2.40.1 (20161225.0304)
 -->
<!-- Title: term Pages: 1 -->
<svg width="274pt" height="455pt"
 viewBox="0.00 0.00 274.49 454.55" xmlns="http://www.w3.org/2000/svg" xmlns:xlink="http://www.w3.org/1999/xlink">
<g id="graph0" class="graph" transform="scale(1 1) rotate(0) translate(4 450.5519)">
<title>term</title>
<!-- Overtime -->
<g id="node1" class="node root has&#45;pronunciation">
<title>Overtime</title>
<g id="a_node1"><a xlink:href="javascript:history.back()" xlink:title="Овертайм" target="_top">
<ellipse fill="none" stroke="#c0c0c0" stroke-width=".2" cx="67.1751" cy="-201.4054" rx="67.3507" ry="67.3507"/>
<text text-anchor="middle" x="67.1751" y="-214.9054" font-family="Times,serif" font-size="15.00" fill="#000000">Overtime</text>
<text text-anchor="middle" x="67.1751" y="-197.9054" font-family="Times,serif" font-size="15.00" fill="#000000">Овертайм</text>
<text text-anchor="middle" x="67.1751" y="-180.9054" font-family="Times,serif" font-size="15.00" fill="#000000">ˈОувэрˌтайм</text>
</a>
</g>
</g>
<!-- Period -->
<g id="node3" class="node has&#45;pronunciation">
<title>Period</title>
<g id="a_node3"><a xlink:href="../period.html" xlink:title="Период" target="_top">
<ellipse fill="none" stroke="#c0c0c0" stroke-width=".2" cx="160.8106" cy="-48.0833" rx="48.1667" ry="48.1667"/>
<text text-anchor="middle" x="160.8106" y="-61.5833" font-family="Times,serif" font-size="15.00" fill="#000000">Period</text>
<text text-anchor="middle" x="160.8106" y="-44.5833" font-family="Times,serif" font-size="15.00" fill="#000000">Период</text>
<text text-anchor="middle" x="160.8106" y="-27.5833" font-family="Times,serif" font-size="15.00" fill="#000000">ˈПириэд</text>
</a>
</g>
</g>
<!-- Overtime&#45;&gt;Period -->
<g id="edge4" class="edge">
<title>Overtime&#45;&gt;Period</title>
<path fill="none" stroke="#000000" stroke-dasharray="5,2" d="M102.3079,-143.8777C111.5044,-128.819 121.3435,-112.7081 130.2786,-98.0775"/>
<polygon fill="#000000" stroke="#000000" points="135.7113,-89.1818 134.3397,-100.0616 133.1052,-93.449 130.4992,-97.7162 130.4992,-97.7162 130.4992,-97.7162 133.1052,-93.449 126.6588,-95.3707 135.7113,-89.1818 135.7113,-89.1818"/>
</g>
<!-- Winner -->
<g id="node4" class="node has&#45;pronunciation">
<title>Winner</title>
<g id="a_node4"><a xlink:href="../winner.html" xlink:title="Победитель" target="_top">
<ellipse fill="none" stroke="#c0c0c0" stroke-width=".2" cx="120.0314" cy="-381.4981" rx="65.1077" ry="65.1077"/>
<text text-anchor="middle" x="120.0314" y="-394.9981" font-family="Times,serif" font-size="15.00" fill="#000000">Winner</text>
<text text-anchor="middle" x="120.0314" y="-377.9981" font-family="Times,serif" font-size="15.00" fill="#000000">Победитель</text>
<text text-anchor="middle" x="120.0314" y="-360.9981" font-family="Times,serif" font-size="15.00" fill="#000000">ˈУинэр</text>
</a>
</g>
</g>
<!-- Overtime&#45;&gt;Winner -->
<g id="edge5" class="edge">
<title>Overtime&#45;&gt;Winner</title>
<path fill="none" stroke="#000000" stroke-dasharray="5,2" d="M86.1082,-265.9143C90.2238,-279.9372 94.6038,-294.8608 98.8016,-309.1636"/>
<polygon fill="#000000" stroke="#000000" points="101.6732,-318.9478 94.5391,-310.6198 100.2651,-314.1501 98.857,-309.3525 98.857,-309.3525 98.857,-309.3525 100.2651,-314.1501 103.1748,-308.0852 101.6732,-318.9478 101.6732,-318.9478"/>
</g>
<!-- Game -->
<g id="node2" class="node has&#45;pronunciation">
<title>Game</title>
<g id="a_node2"><a xlink:href="../game.html" xlink:title="Игра" target="_top">
<ellipse fill="none" stroke="#c0c0c0" stroke-width=".2" cx="214.1667" cy="-228.258" rx="52.1524" ry="52.1524"/>
<text text-anchor="middle" x="214.1667" y="-245.258" font-family="Times,serif" font-size="20.00" fill="#000000">Game</text>
<text text-anchor="middle" x="214.1667" y="-223.258" font-family="Times,serif" font-size="20.00" fill="#000000">Игра</text>
<text text-anchor="middle" x="214.1667" y="-201.258" font-family="Times,serif" font-size="20.00" fill="#000000">Гейм</text>
</a>
</g>
</g>
<!-- Game&#45;&gt;Overtime -->
<g id="edge3" class="edge">
<title>Game&#45;&gt;Overtime</title>
<path fill="none" stroke="#000000" stroke-dasharray="5,2" d="M162.343,-218.7908C156.2135,-217.671 149.8632,-216.5109 143.4846,-215.3457"/>
<polygon fill="#000000" stroke="#000000" points="133.4655,-213.5154 144.1114,-210.8858 138.3841,-214.414 143.3027,-215.3125 143.3027,-215.3125 143.3027,-215.3125 138.3841,-214.414 142.494,-219.7393 133.4655,-213.5154 133.4655,-213.5154"/>
</g>
<!-- Game&#45;&gt;Period -->
<g id="edge1" class="edge">
<title>Game&#45;&gt;Period</title>
<path fill="none" stroke="#000000" stroke-dasharray="5,2" d="M199.3041,-178.0693C192.5049,-155.1096 184.4226,-127.817 177.4234,-104.182"/>
<polygon fill="#000000" stroke="#000000" points="174.497,-94.2999 181.6513,-102.6105 175.9167,-99.0941 177.3365,-103.8883 177.3365,-103.8883 177.3365,-103.8883 175.9167,-99.0941 173.0217,-105.1661 174.497,-94.2999 174.497,-94.2999"/>
</g>
<!-- Winner&#45;&gt;Game -->
<g id="edge2" class="edge">
<title>Winner&#45;&gt;Game</title>
<path fill="none" stroke="#000000" stroke-dasharray="5,2" d="M154.2827,-325.7414C163.0766,-311.4261 172.5166,-296.0589 181.2418,-281.8554"/>
<polygon fill="#000000" stroke="#000000" points="186.57,-273.1819 185.17,-284.0581 183.9528,-277.4423 181.3356,-281.7026 181.3356,-281.7026 181.3356,-281.7026 183.9528,-277.4423 177.5013,-279.3472 186.57,-273.1819 186.57,-273.1819"/>
</g>
</g>
</svg>
