<?xml version="1.0" encoding="UTF-8" standalone="no"?>
<?xml-stylesheet href="../static/svg.css" type="text/css"?>
<!DOCTYPE svg PUBLIC "-//W3C//DTD SVG 1.1//EN"
 "http://www.w3.org/Graphics/SVG/1.1/DTD/svg11.dtd">
<!-- Generated by graphviz version 2.40.1 (20161225.0304)
 -->
<!-- Title: term Pages: 1 -->
<svg width="502pt" height="830pt"
 viewBox="0.00 0.00 501.91 829.73" xmlns="http://www.w3.org/2000/svg" xmlns:xlink="http://www.w3.org/1999/xlink">
<g id="graph0" class="graph" transform="scale(1 1) rotate(0) translate(4 825.732)">
<title>term</title>
<!-- Winner -->
<g id="node1" class="node root has&#45;pronunciation">
<title>Winner</title>
<g id="a_node1"><a xlink:href="javascript:history.back()" xlink:title="Победитель" target="_top">
<ellipse fill="none" stroke="#c0c0c0" stroke-width=".2" cx="280.0179" cy="-353.6424" rx="65.1077" ry="65.1077"/>
<text text-anchor="middle" x="280.0179" y="-367.1424" font-family="Times,serif" font-size="15.00" fill="#000000">Winner</text>
<text text-anchor="middle" x="280.0179" y="-350.1424" font-family="Times,serif" font-size="15.00" fill="#000000">Победитель</text>
<text text-anchor="middle" x="280.0179" y="-333.1424" font-family="Times,serif" font-size="15.00" fill="#000000">ˈУинэр</text>
</a>
</g>
</g>
<!-- Game -->
<g id="node4" class="node has&#45;pronunciation">
<title>Game</title>
<g id="a_node4"><a xlink:href="../game.html" xlink:title="Игра" target="_top">
<ellipse fill="none" stroke="#c0c0c0" stroke-width=".2" cx="154.6382" cy="-542.252" rx="52.1524" ry="52.1524"/>
<text text-anchor="middle" x="154.6382" y="-559.252" font-family="Times,serif" font-size="20.00" fill="#000000">Game</text>
<text text-anchor="middle" x="154.6382" y="-537.252" font-family="Times,serif" font-size="20.00" fill="#000000">Игра</text>
<text text-anchor="middle" x="154.6382" y="-515.252" font-family="Times,serif" font-size="20.00" fill="#000000">Гейм</text>
</a>
</g>
</g>
<!-- Winner&#45;&gt;Game -->
<g id="edge6" class="edge">
<title>Winner&#45;&gt;Game</title>
<path fill="none" stroke="#000000" stroke-dasharray="5,2" d="M243.9211,-407.9431C226.7622,-433.7553 206.3406,-464.4758 189.3615,-490.0175"/>
<polygon fill="#000000" stroke="#000000" points="183.7451,-498.4663 185.5336,-487.6473 186.5131,-494.3024 189.2811,-490.1385 189.2811,-490.1385 189.2811,-490.1385 186.5131,-494.3024 193.0287,-492.6297 183.7451,-498.4663 183.7451,-498.4663"/>
</g>
<!-- Score -->
<g id="node5" class="node has&#45;pronunciation">
<title>Score</title>
<g id="a_node5"><a xlink:href="../score.html" xlink:title="Счёт" target="_top">
<ellipse fill="none" stroke="#c0c0c0" stroke-width=".2" cx="407.1095" cy="-52.3259" rx="52.1524" ry="52.1524"/>
<text text-anchor="middle" x="407.1095" y="-69.3259" font-family="Times,serif" font-size="20.00" fill="#000000">Score</text>
<text text-anchor="middle" x="407.1095" y="-47.3259" font-family="Times,serif" font-size="20.00" fill="#000000">Счёт</text>
<text text-anchor="middle" x="407.1095" y="-25.3259" font-family="Times,serif" font-size="20.00" fill="#000000">Скор</text>
</a>
</g>
</g>
<!-- Winner&#45;&gt;Score -->
<g id="edge7" class="edge">
<title>Winner&#45;&gt;Score</title>
<path fill="none" stroke="#000000" stroke-dasharray="5,2" d="M305.4313,-293.3907C327.9354,-240.0367 360.5644,-162.6779 382.7462,-110.088"/>
<polygon fill="#000000" stroke="#000000" points="386.7616,-100.5679 387.0215,-111.5307 384.8185,-105.1749 382.8753,-109.7818 382.8753,-109.7818 382.8753,-109.7818 384.8185,-105.1749 378.729,-108.0329 386.7616,-100.5679 386.7616,-100.5679"/>
</g>
<!-- Team -->
<g id="node6" class="node has&#45;pronunciation">
<title>Team</title>
<g id="a_node6"><a xlink:href="../team.html" xlink:title="Команда" target="_top">
<ellipse fill="none" stroke="#c0c0c0" stroke-width=".2" cx="242.2299" cy="-770.1132" rx="51.7379" ry="51.7379"/>
<text text-anchor="middle" x="242.2299" y="-783.6132" font-family="Times,serif" font-size="15.00" fill="#000000">Team</text>
<text text-anchor="middle" x="242.2299" y="-766.6132" font-family="Times,serif" font-size="15.00" fill="#000000">Команда</text>
<text text-anchor="middle" x="242.2299" y="-749.6132" font-family="Times,serif" font-size="15.00" fill="#000000">Тим</text>
</a>
</g>
</g>
<!-- Winner&#45;&gt;Team -->
<g id="edge8" class="edge">
<title>Winner&#45;&gt;Team</title>
<path fill="none" stroke="#000000" stroke-dasharray="5,2" d="M274.1135,-418.716C266.9222,-497.9737 254.8647,-630.8613 247.8191,-708.5127"/>
<polygon fill="#000000" stroke="#000000" points="246.9013,-718.628 243.3235,-708.2622 247.3532,-713.6484 247.805,-708.6689 247.805,-708.6689 247.805,-708.6689 247.3532,-713.6484 252.2866,-709.0756 246.9013,-718.628 246.9013,-718.628"/>
</g>
<!-- Overtime -->
<g id="node2" class="node has&#45;pronunciation">
<title>Overtime</title>
<g id="a_node2"><a xlink:href="../overtime.html" xlink:title="Овертайм" target="_top">
<ellipse fill="none" stroke="#c0c0c0" stroke-width=".2" cx="426.738" cy="-566.3255" rx="67.3507" ry="67.3507"/>
<text text-anchor="middle" x="426.738" y="-579.8255" font-family="Times,serif" font-size="15.00" fill="#000000">Overtime</text>
<text text-anchor="middle" x="426.738" y="-562.8255" font-family="Times,serif" font-size="15.00" fill="#000000">Овертайм</text>
<text text-anchor="middle" x="426.738" y="-545.8255" font-family="Times,serif" font-size="15.00" fill="#000000">ˈОувэрˌтайм</text>
</a>
</g>
</g>
<!-- Overtime&#45;&gt;Winner -->
<g id="edge4" class="edge">
<title>Overtime&#45;&gt;Winner</title>
<path fill="none" stroke="#000000" stroke-dasharray="5,2" d="M388.572,-511.0007C368.3933,-481.75 343.5588,-445.7502 322.7382,-415.5691"/>
<polygon fill="#000000" stroke="#000000" points="316.9794,-407.2212 326.362,-412.8973 319.8186,-411.3369 322.6579,-415.4526 322.6579,-415.4526 322.6579,-415.4526 319.8186,-411.3369 318.9538,-418.0079 316.9794,-407.2212 316.9794,-407.2212"/>
</g>
<!-- Shootout -->
<g id="node3" class="node has&#45;pronunciation">
<title>Shootout</title>
<g id="a_node3"><a xlink:href="../shootout.html" xlink:title="Буллиты" target="_top">
<ellipse fill="none" stroke="#c0c0c0" stroke-width=".2" cx="50.9117" cy="-254.1411" rx="50.8235" ry="50.8235"/>
<text text-anchor="middle" x="50.9117" y="-267.6411" font-family="Times,serif" font-size="15.00" fill="#000000">Shootout</text>
<text text-anchor="middle" x="50.9117" y="-250.6411" font-family="Times,serif" font-size="15.00" fill="#000000">Буллиты</text>
<text text-anchor="middle" x="50.9117" y="-233.6411" font-family="Times,serif" font-size="15.00" fill="#000000">ˈШутaут</text>
</a>
</g>
</g>
<!-- Shootout&#45;&gt;Winner -->
<g id="edge5" class="edge">
<title>Shootout&#45;&gt;Winner</title>
<path fill="none" stroke="#000000" stroke-dasharray="5,2" d="M97.8276,-274.5168C130.2749,-288.6087 174.0018,-307.5994 210.4842,-323.4438"/>
<polygon fill="#000000" stroke="#000000" points="220.0778,-327.6103 209.1129,-327.7542 215.4916,-325.6185 210.9055,-323.6267 210.9055,-323.6267 210.9055,-323.6267 215.4916,-325.6185 212.6981,-319.4992 220.0778,-327.6103 220.0778,-327.6103"/>
</g>
<!-- Game&#45;&gt;Overtime -->
<g id="edge2" class="edge">
<title>Game&#45;&gt;Overtime</title>
<path fill="none" stroke="#000000" stroke-dasharray="5,2" d="M206.7798,-546.8652C247.2366,-550.4445 303.9342,-555.4607 349.6325,-559.5037"/>
<polygon fill="#000000" stroke="#000000" points="359.8005,-560.4033 349.4428,-564.0045 354.82,-559.9627 349.8394,-559.522 349.8394,-559.522 349.8394,-559.522 354.82,-559.9627 350.236,-555.0395 359.8005,-560.4033 359.8005,-560.4033"/>
</g>
<!-- Game&#45;&gt;Shootout -->
<g id="edge3" class="edge">
<title>Game&#45;&gt;Shootout</title>
<path fill="none" stroke="#000000" stroke-dasharray="5,2" d="M136.807,-492.724C118.7031,-442.4386 90.6939,-364.6403 71.6189,-311.6575"/>
<polygon fill="#000000" stroke="#000000" points="68.1656,-302.0655 75.787,-309.9499 69.8593,-306.7699 71.553,-311.4743 71.553,-311.4743 71.553,-311.4743 69.8593,-306.7699 67.319,-312.9986 68.1656,-302.0655 68.1656,-302.0655"/>
</g>
<!-- Game&#45;&gt;Team -->
<g id="edge1" class="edge">
<title>Game&#45;&gt;Team</title>
<path fill="none" stroke="#000000" stroke-dasharray="5,2" d="M173.4288,-591.134C187.0415,-626.546 205.5011,-674.5669 219.8724,-711.9525"/>
<polygon fill="#000000" stroke="#000000" points="223.6209,-721.7037 215.8323,-713.9842 221.8268,-717.0366 220.0327,-712.3695 220.0327,-712.3695 220.0327,-712.3695 221.8268,-717.0366 224.233,-710.7549 223.6209,-721.7037 223.6209,-721.7037"/>
</g>
</g>
</svg>
