<?xml version="1.0" encoding="UTF-8" standalone="no"?>
<?xml-stylesheet href="../static/svg.css" type="text/css"?>
<!DOCTYPE svg PUBLIC "-//W3C//DTD SVG 1.1//EN"
 "http://www.w3.org/Graphics/SVG/1.1/DTD/svg11.dtd">
<!-- Generated by graphviz version 2.40.1 (20161225.0304)
 -->
<!-- Title: term Pages: 1 -->
<svg width="545pt" height="917pt"
 viewBox="0.00 0.00 545.41 917.43" xmlns="http://www.w3.org/2000/svg" xmlns:xlink="http://www.w3.org/1999/xlink">
<g id="graph0" class="graph" transform="scale(1 1) rotate(0) translate(4 913.4344)">
<title>term</title>
<!-- Puck -->
<g id="node1" class="node root has&#45;pronunciation">
<title>Puck</title>
<g id="a_node1"><a xlink:href="javascript:history.back()" xlink:title="Шайба" target="_top">
<ellipse fill="none" stroke="#c0c0c0" stroke-width=".2" cx="191.8703" cy="-530.2151" rx="52.1524" ry="52.1524"/>
<text text-anchor="middle" x="191.8703" y="-547.2151" font-family="Times,serif" font-size="20.00" fill="#000000">Puck</text>
<text text-anchor="middle" x="191.8703" y="-525.2151" font-family="Times,serif" font-size="20.00" fill="#000000">Шайба</text>
<text text-anchor="middle" x="191.8703" y="-503.2151" font-family="Times,serif" font-size="20.00" fill="#000000">Пак</text>
</a>
</g>
</g>
<!-- Ice -->
<g id="node6" class="node has&#45;pronunciation">
<title>Ice</title>
<g id="a_node6"><a xlink:href="../ice.html" xlink:title="Лёд" target="_top">
<ellipse fill="none" stroke="#c0c0c0" stroke-width=".2" cx="41.7193" cy="-867.7151" rx="41.9398" ry="41.9398"/>
<text text-anchor="middle" x="41.7193" y="-881.2151" font-family="Times,serif" font-size="15.00" fill="#000000">Ice</text>
<text text-anchor="middle" x="41.7193" y="-864.2151" font-family="Times,serif" font-size="15.00" fill="#000000">Лёд</text>
<text text-anchor="middle" x="41.7193" y="-847.2151" font-family="Times,serif" font-size="15.00" fill="#000000">Айс</text>
</a>
</g>
</g>
<!-- Puck&#45;&gt;Ice -->
<g id="edge13" class="edge">
<title>Puck&#45;&gt;Ice</title>
<path fill="none" stroke="#000000" stroke-dasharray="5,2" d="M170.5167,-578.2122C141.907,-642.5195 91.4393,-755.9575 62.9118,-820.0799"/>
<polygon fill="#000000" stroke="#000000" points="58.6978,-829.5518 58.6512,-818.586 60.7303,-824.9835 62.7627,-820.4152 62.7627,-820.4152 62.7627,-820.4152 60.7303,-824.9835 66.8742,-822.2444 58.6978,-829.5518 58.6978,-829.5518"/>
</g>
<!-- Goal net -->
<g id="node7" class="node has&#45;pronunciation">
<title>Goal net</title>
<g id="a_node7"><a xlink:href="../goal-net.html" xlink:title="Ворота" target="_top">
<ellipse fill="none" stroke="#c0c0c0" stroke-width=".2" cx="73.7487" cy="-236.2928" rx="62.8651" ry="62.8651"/>
<text text-anchor="middle" x="73.7487" y="-253.2928" font-family="Times,serif" font-size="20.00" fill="#000000">Goal net</text>
<text text-anchor="middle" x="73.7487" y="-231.2928" font-family="Times,serif" font-size="20.00" fill="#000000">Ворота</text>
<text text-anchor="middle" x="73.7487" y="-209.2928" font-family="Times,serif" font-size="20.00" fill="#000000">Гoул нет</text>
</a>
</g>
</g>
<!-- Puck&#45;&gt;Goal net -->
<g id="edge14" class="edge">
<title>Puck&#45;&gt;Goal net</title>
<path fill="none" stroke="#000000" stroke-dasharray="5,2" d="M172.2323,-481.3498C152.7999,-432.9962 122.8887,-358.5681 101.1279,-304.4205"/>
<polygon fill="#000000" stroke="#000000" points="97.3004,-294.8966 105.2049,-302.4973 99.1649,-299.536 101.0294,-304.1754 101.0294,-304.1754 101.0294,-304.1754 99.1649,-299.536 96.854,-305.8534 97.3004,-294.8966 97.3004,-294.8966"/>
</g>
<!-- Stick -->
<g id="node2" class="node has&#45;pronunciation">
<title>Stick</title>
<g id="a_node2"><a xlink:href="../stick.html" xlink:title="Клюшка" target="_top">
<ellipse fill="none" stroke="#c0c0c0" stroke-width=".2" cx="488.6228" cy="-605.262" rx="48.5816" ry="48.5816"/>
<text text-anchor="middle" x="488.6228" y="-618.762" font-family="Times,serif" font-size="15.00" fill="#000000">Stick</text>
<text text-anchor="middle" x="488.6228" y="-601.762" font-family="Times,serif" font-size="15.00" fill="#000000">Клюшка</text>
<text text-anchor="middle" x="488.6228" y="-584.762" font-family="Times,serif" font-size="15.00" fill="#000000">Стик</text>
</a>
</g>
</g>
<!-- Stick&#45;&gt;Puck -->
<g id="edge9" class="edge">
<title>Stick&#45;&gt;Puck</title>
<path fill="none" stroke="#000000" stroke-dasharray="5,2" d="M441.2733,-593.2876C390.1007,-580.3464 308.3964,-559.6839 252.5479,-545.5601"/>
<polygon fill="#000000" stroke="#000000" points="242.78,-543.0899 253.5781,-541.179 247.6274,-544.3158 252.4748,-545.5417 252.4748,-545.5417 252.4748,-545.5417 247.6274,-544.3158 251.3715,-549.9043 242.78,-543.0899 242.78,-543.0899"/>
</g>
<!-- Goal -->
<g id="node3" class="node has&#45;pronunciation">
<title>Goal</title>
<g id="a_node3"><a xlink:href="../goal.html" xlink:title="Гол" target="_top">
<ellipse fill="none" stroke="#c0c0c0" stroke-width=".2" cx="210.9203" cy="-52.3259" rx="52.1524" ry="52.1524"/>
<text text-anchor="middle" x="210.9203" y="-69.3259" font-family="Times,serif" font-size="20.00" fill="#000000">Goal</text>
<text text-anchor="middle" x="210.9203" y="-47.3259" font-family="Times,serif" font-size="20.00" fill="#000000">Гол</text>
<text text-anchor="middle" x="210.9203" y="-25.3259" font-family="Times,serif" font-size="20.00" fill="#000000">Гoул</text>
</a>
</g>
</g>
<!-- Goal&#45;&gt;Puck -->
<g id="edge10" class="edge">
<title>Goal&#45;&gt;Puck</title>
<path fill="none" stroke="#000000" stroke-dasharray="5,2" d="M208.8271,-104.8354C205.2927,-193.4994 198.1573,-372.4986 194.3675,-467.5691"/>
<polygon fill="#000000" stroke="#000000" points="193.9669,-477.6187 189.8689,-467.4474 194.1661,-472.6227 194.3653,-467.6267 194.3653,-467.6267 194.3653,-467.6267 194.1661,-472.6227 198.8617,-467.806 193.9669,-477.6187 193.9669,-477.6187"/>
</g>
<!-- Goal&#45;&gt;Goal net -->
<g id="edge1" class="edge">
<title>Goal&#45;&gt;Goal net</title>
<path fill="none" stroke="#000000" stroke-dasharray="5,2" d="M179.4503,-94.5316C161.0998,-119.1423 137.6765,-150.5563 117.5455,-177.555"/>
<polygon fill="#000000" stroke="#000000" points="111.4129,-185.7797 113.7829,-175.073 114.4017,-181.7713 117.3905,-177.7629 117.3905,-177.7629 117.3905,-177.7629 114.4017,-181.7713 120.998,-180.4528 111.4129,-185.7797 111.4129,-185.7797"/>
</g>
<!-- Shot -->
<g id="node4" class="node has&#45;pronunciation">
<title>Shot</title>
<g id="a_node4"><a xlink:href="../shot.html" xlink:title="Бросок" target="_top">
<ellipse fill="none" stroke="#c0c0c0" stroke-width=".2" cx="319.3713" cy="-383.9603" rx="67.3507" ry="67.3507"/>
<text text-anchor="middle" x="319.3713" y="-405.9603" font-family="Times,serif" font-size="25.00" fill="#000000">Shot</text>
<text text-anchor="middle" x="319.3713" y="-377.9603" font-family="Times,serif" font-size="25.00" fill="#000000">Бросок</text>
<text text-anchor="middle" x="319.3713" y="-349.9603" font-family="Times,serif" font-size="25.00" fill="#000000">Шат</text>
</a>
</g>
</g>
<!-- Shot&#45;&gt;Puck -->
<g id="edge11" class="edge">
<title>Shot&#45;&gt;Puck</title>
<path fill="none" stroke="#000000" stroke-dasharray="5,2" d="M275.1354,-434.7027C261.5383,-450.2997 246.6305,-467.4004 233.2335,-482.7678"/>
<polygon fill="#000000" stroke="#000000" points="226.3804,-490.6289 229.5597,-480.134 229.6661,-486.86 232.9517,-483.0911 232.9517,-483.0911 232.9517,-483.0911 229.6661,-486.86 236.3438,-486.0482 226.3804,-490.6289 226.3804,-490.6289"/>
</g>
<!-- Shot&#45;&gt;Stick -->
<g id="edge3" class="edge">
<title>Shot&#45;&gt;Stick</title>
<path fill="none" stroke="#000000" stroke-dasharray="5,2" d="M360.3424,-437.5313C388.5102,-474.3616 425.5639,-522.8105 452.6022,-558.164"/>
<polygon fill="#000000" stroke="#000000" points="458.9023,-566.4015 449.2528,-561.192 455.8648,-562.4299 452.8273,-558.4583 452.8273,-558.4583 452.8273,-558.4583 455.8648,-562.4299 456.4017,-555.7245 458.9023,-566.4015 458.9023,-566.4015"/>
</g>
<!-- Shot&#45;&gt;Goal -->
<g id="edge2" class="edge">
<title>Shot&#45;&gt;Goal</title>
<path fill="none" stroke="#000000" stroke-dasharray="5,2" d="M298.4608,-320.0179C278.8231,-259.9673 249.6678,-170.8128 230.4815,-112.1426"/>
<polygon fill="#000000" stroke="#000000" points="227.2555,-102.2778 234.6409,-110.3838 228.8097,-107.0302 230.3638,-111.7825 230.3638,-111.7825 230.3638,-111.7825 228.8097,-107.0302 226.0867,-113.1812 227.2555,-102.2778 227.2555,-102.2778"/>
</g>
<!-- Shot&#45;&gt;Goal net -->
<g id="edge4" class="edge">
<title>Shot&#45;&gt;Goal net</title>
<path fill="none" stroke="#000000" stroke-dasharray="5,2" d="M261.7837,-349.3388C224.3716,-326.8468 175.5835,-297.5155 137.0793,-274.3669"/>
<polygon fill="#000000" stroke="#000000" points="128.0282,-268.9254 138.9173,-270.2213 132.3134,-271.5017 136.5986,-274.078 136.5986,-274.078 136.5986,-274.078 132.3134,-271.5017 134.28,-277.9347 128.0282,-268.9254 128.0282,-268.9254"/>
</g>
<!-- Hockey -->
<g id="node5" class="node has&#45;pronunciation">
<title>Hockey</title>
<g id="a_node5"><a xlink:href="../hockey.html" xlink:title="Хоккей" target="_top">
<ellipse fill="none" stroke="#c0c0c0" stroke-width=".2" cx="402.0917" cy="-209.1951" rx="45.011" ry="45.011"/>
<text text-anchor="middle" x="402.0917" y="-222.6951" font-family="Times,serif" font-size="15.00" fill="#000000">Hockey</text>
<text text-anchor="middle" x="402.0917" y="-205.6951" font-family="Times,serif" font-size="15.00" fill="#000000">Хоккей</text>
<text text-anchor="middle" x="402.0917" y="-188.6951" font-family="Times,serif" font-size="15.00" fill="#000000">ˈХаки</text>
</a>
</g>
</g>
<!-- Hockey&#45;&gt;Puck -->
<g id="edge12" class="edge">
<title>Hockey&#45;&gt;Puck</title>
<path fill="none" stroke="#000000" stroke-dasharray="5,2" d="M366.1165,-236.7228C337.2631,-260.3057 297.3439,-296.5135 270.8454,-335.2237 242.5419,-376.5708 221.8935,-429.6004 208.8238,-469.9174"/>
<polygon fill="#000000" stroke="#000000" points="205.7455,-479.6171 204.4813,-468.7244 207.258,-474.8514 208.7705,-470.0856 208.7705,-470.0856 208.7705,-470.0856 207.258,-474.8514 213.0597,-471.4469 205.7455,-479.6171 205.7455,-479.6171"/>
</g>
<!-- Hockey&#45;&gt;Stick -->
<g id="edge6" class="edge">
<title>Hockey&#45;&gt;Stick</title>
<path fill="none" stroke="#000000" stroke-dasharray="5,2" d="M411.7661,-253.4762C427.4989,-325.4881 458.6199,-467.9337 476.0473,-547.7019"/>
<polygon fill="#000000" stroke="#000000" points="478.206,-557.5825 471.6752,-548.7735 477.1387,-552.6977 476.0715,-547.8129 476.0715,-547.8129 476.0715,-547.8129 477.1387,-552.6977 480.4678,-546.8524 478.206,-557.5825 478.206,-557.5825"/>
</g>
<!-- Hockey&#45;&gt;Goal -->
<g id="edge8" class="edge">
<title>Hockey&#45;&gt;Goal</title>
<path fill="none" stroke="#000000" stroke-dasharray="5,2" d="M367.0279,-180.4229C336.791,-155.6114 292.8279,-119.5367 259.2551,-91.9879"/>
<polygon fill="#000000" stroke="#000000" points="251.3934,-85.5369 261.9785,-88.4016 255.2587,-88.7086 259.124,-91.8803 259.124,-91.8803 259.124,-91.8803 255.2587,-88.7086 256.2694,-95.3591 251.3934,-85.5369 251.3934,-85.5369"/>
</g>
<!-- Hockey&#45;&gt;Shot -->
<g id="edge5" class="edge">
<title>Hockey&#45;&gt;Shot</title>
<path fill="none" stroke="#000000" stroke-dasharray="5,2" d="M382.6975,-250.1698C373.7139,-269.1496 362.7826,-292.2444 352.5477,-313.8678"/>
<polygon fill="#000000" stroke="#000000" points="348.2117,-323.0286 348.4226,-312.0647 350.3508,-318.5092 352.49,-313.9899 352.49,-313.9899 352.49,-313.9899 350.3508,-318.5092 356.5574,-315.9151 348.2117,-323.0286 348.2117,-323.0286"/>
</g>
<!-- Hockey&#45;&gt;Goal net -->
<g id="edge7" class="edge">
<title>Hockey&#45;&gt;Goal net</title>
<path fill="none" stroke="#000000" stroke-dasharray="5,2" d="M356.7818,-212.9345C302.5099,-217.4135 210.8855,-224.9751 146.6239,-230.2785"/>
<polygon fill="#000000" stroke="#000000" points="136.5551,-231.1094 146.1511,-225.8021 141.5382,-230.6981 146.5212,-230.2869 146.5212,-230.2869 146.5212,-230.2869 141.5382,-230.6981 146.8914,-234.7716 136.5551,-231.1094 136.5551,-231.1094"/>
</g>
</g>
</svg>
