<?xml version="1.0" encoding="UTF-8" standalone="no"?>
<?xml-stylesheet href="../static/svg.css" type="text/css"?>
<!DOCTYPE svg PUBLIC "-//W3C//DTD SVG 1.1//EN"
 "http://www.w3.org/Graphics/SVG/1.1/DTD/svg11.dtd">
<!-- Generated by graphviz version 2.40.1 (20161225.0304)
 -->
<!-- Title: term Pages: 1 -->
<svg width="415pt" height="653pt"
 viewBox="0.00 0.00 414.76 653.42" xmlns="http://www.w3.org/2000/svg" xmlns:xlink="http://www.w3.org/1999/xlink">
<g id="graph0" class="graph" transform="scale(1 1) rotate(0) translate(4 649.4169)">
<title>term</title>
<!-- Opponent -->
<g id="node1" class="node root has&#45;pronunciation">
<title>Opponent</title>
<g id="a_node1"><a xlink:href="javascript:history.back()" xlink:title="Противник" target="_top">
<ellipse fill="none" stroke="#c0c0c0" stroke-width=".2" cx="187.0863" cy="-333.2334" rx="60.623" ry="60.623"/>
<text text-anchor="middle" x="187.0863" y="-346.7334" font-family="Times,serif" font-size="15.00" fill="#000000">Opponent</text>
<text text-anchor="middle" x="187.0863" y="-329.7334" font-family="Times,serif" font-size="15.00" fill="#000000">Противник</text>
<text text-anchor="middle" x="187.0863" y="-312.7334" font-family="Times,serif" font-size="15.00" fill="#000000">Эˈпoунэнт</text>
</a>
</g>
</g>
<!-- Team -->
<g id="node2" class="node has&#45;pronunciation">
<title>Team</title>
<g id="a_node2"><a xlink:href="../team.html" xlink:title="Команда" target="_top">
<ellipse fill="none" stroke="#c0c0c0" stroke-width=".2" cx="355.1398" cy="-223.3872" rx="51.7379" ry="51.7379"/>
<text text-anchor="middle" x="355.1398" y="-236.8872" font-family="Times,serif" font-size="15.00" fill="#000000">Team</text>
<text text-anchor="middle" x="355.1398" y="-219.8872" font-family="Times,serif" font-size="15.00" fill="#000000">Команда</text>
<text text-anchor="middle" x="355.1398" y="-202.8872" font-family="Times,serif" font-size="15.00" fill="#000000">Тим</text>
</a>
</g>
</g>
<!-- Opponent&#45;&gt;Team -->
<g id="edge2" class="edge">
<title>Opponent&#45;&gt;Team</title>
<path fill="none" stroke="#000000" stroke-dasharray="5,2" d="M238.421,-299.6791C258.9449,-286.2639 282.5517,-270.8336 303.1412,-257.3754"/>
<polygon fill="#000000" stroke="#000000" points="311.7628,-251.74 305.8544,-260.9781 307.5776,-254.4757 303.3923,-257.2114 303.3923,-257.2114 303.3923,-257.2114 307.5776,-254.4757 300.9302,-253.4446 311.7628,-251.74 311.7628,-251.74"/>
</g>
<!-- Player -->
<g id="node3" class="node has&#45;pronunciation">
<title>Player</title>
<g id="a_node3"><a xlink:href="../player.html" xlink:title="Игрок" target="_top">
<ellipse fill="none" stroke="#c0c0c0" stroke-width=".2" cx="214.2951" cy="-46.669" rx="46.8387" ry="46.8387"/>
<text text-anchor="middle" x="214.2951" y="-60.169" font-family="Times,serif" font-size="15.00" fill="#000000">Player</text>
<text text-anchor="middle" x="214.2951" y="-43.169" font-family="Times,serif" font-size="15.00" fill="#000000">Игрок</text>
<text text-anchor="middle" x="214.2951" y="-26.169" font-family="Times,serif" font-size="15.00" fill="#000000">&#39;Плейэр</text>
</a>
</g>
</g>
<!-- Opponent&#45;&gt;Player -->
<g id="edge3" class="edge">
<title>Opponent&#45;&gt;Player</title>
<path fill="none" stroke="#000000" stroke-dasharray="5,2" d="M192.8566,-272.4605C197.6043,-222.4574 204.283,-152.1172 208.9194,-103.2869"/>
<polygon fill="#000000" stroke="#000000" points="209.8763,-93.2086 213.4108,-103.5892 209.4036,-98.1862 208.931,-103.1638 208.931,-103.1638 208.931,-103.1638 209.4036,-98.1862 204.4511,-102.7384 209.8763,-93.2086 209.8763,-93.2086"/>
</g>
<!-- Goal net -->
<g id="node4" class="node has&#45;pronunciation">
<title>Goal net</title>
<g id="a_node4"><a xlink:href="../goal-net.html" xlink:title="Ворота" target="_top">
<ellipse fill="none" stroke="#c0c0c0" stroke-width=".2" cx="77.7817" cy="-567.6352" rx="77.5641" ry="77.5641"/>
<text text-anchor="middle" x="77.7817" y="-589.6352" font-family="Times,serif" font-size="25.00" fill="#000000">Goal net</text>
<text text-anchor="middle" x="77.7817" y="-561.6352" font-family="Times,serif" font-size="25.00" fill="#000000">Ворота</text>
<text text-anchor="middle" x="77.7817" y="-533.6352" font-family="Times,serif" font-size="25.00" fill="#000000">Гoул нет</text>
</a>
</g>
</g>
<!-- Opponent&#45;&gt;Goal net -->
<g id="edge4" class="edge">
<title>Opponent&#45;&gt;Goal net</title>
<path fill="none" stroke="#000000" stroke-dasharray="5,2" d="M161.3211,-388.4865C147.5328,-418.0553 130.302,-455.0065 115.0766,-487.6569"/>
<polygon fill="#000000" stroke="#000000" points="110.84,-496.7423 110.9879,-485.7774 112.9531,-492.2108 115.0663,-487.6792 115.0663,-487.6792 115.0663,-487.6792 112.9531,-492.2108 119.1447,-489.5811 110.84,-496.7423 110.84,-496.7423"/>
</g>
<!-- Team&#45;&gt;Player -->
<g id="edge1" class="edge">
<title>Team&#45;&gt;Player</title>
<path fill="none" stroke="#000000" stroke-dasharray="5,2" d="M322.8272,-182.8445C301.0951,-155.5773 272.4341,-119.6162 250.0226,-91.4965"/>
<polygon fill="#000000" stroke="#000000" points="243.5811,-83.4143 253.3329,-88.4297 246.6975,-87.3243 249.8138,-91.2344 249.8138,-91.2344 249.8138,-91.2344 246.6975,-87.3243 246.2947,-94.0391 243.5811,-83.4143 243.5811,-83.4143"/>
</g>
</g>
</svg>
