<?xml version="1.0" encoding="UTF-8" standalone="no"?>
<?xml-stylesheet href="../static/svg.css" type="text/css"?>
<!DOCTYPE svg PUBLIC "-//W3C//DTD SVG 1.1//EN"
 "http://www.w3.org/Graphics/SVG/1.1/DTD/svg11.dtd">
<!-- Generated by graphviz version 2.40.1 (20161225.0304)
 -->
<!-- Title: term Pages: 1 -->
<svg width="316pt" height="421pt"
 viewBox="0.00 0.00 315.85 421.35" xmlns="http://www.w3.org/2000/svg" xmlns:xlink="http://www.w3.org/1999/xlink">
<g id="graph0" class="graph" transform="scale(1 1) rotate(0) translate(4 417.3461)">
<title>term</title>
<!-- Backhand shot -->
<g id="node1" class="node root has&#45;pronunciation">
<title>Backhand shot</title>
<g id="a_node1"><a xlink:href="javascript:history.back()" xlink:title="С неудобной" target="_top">
<ellipse fill="none" stroke="#c0c0c0" stroke-width=".2" cx="76.3675" cy="-336.9785" rx="76.2353" ry="76.2353"/>
<text text-anchor="middle" x="76.3675" y="-350.4785" font-family="Times,serif" font-size="15.00" fill="#000000">Backhand shot</text>
<text text-anchor="middle" x="76.3675" y="-333.4785" font-family="Times,serif" font-size="15.00" fill="#000000">С неудобной</text>
<text text-anchor="middle" x="76.3675" y="-316.4785" font-family="Times,serif" font-size="15.00" fill="#000000">ˈБэкˌхэнд шат</text>
</a>
</g>
</g>
<!-- Wrist shot -->
<g id="node3" class="node has&#45;pronunciation">
<title>Wrist shot</title>
<g id="a_node3"><a xlink:href="../wrist-shot.html" xlink:title="Кистевой" target="_top">
<ellipse fill="none" stroke="#c0c0c0" stroke-width=".2" cx="159.6362" cy="-56.5685" rx="56.6372" ry="56.6372"/>
<text text-anchor="middle" x="159.6362" y="-70.0685" font-family="Times,serif" font-size="15.00" fill="#000000">Wrist shot</text>
<text text-anchor="middle" x="159.6362" y="-53.0685" font-family="Times,serif" font-size="15.00" fill="#000000">Кистевой</text>
<text text-anchor="middle" x="159.6362" y="-36.0685" font-family="Times,serif" font-size="15.00" fill="#000000">Рист шат</text>
</a>
</g>
</g>
<!-- Backhand shot&#45;&gt;Wrist shot -->
<g id="edge3" class="edge">
<title>Backhand shot&#45;&gt;Wrist shot</title>
<path fill="none" stroke="#000000" stroke-dasharray="5,2" d="M98.1366,-263.6704C111.3245,-219.2597 127.9857,-163.1525 140.6389,-120.5425"/>
<polygon fill="#000000" stroke="#000000" points="143.5193,-110.8428 144.9864,-121.7101 142.0959,-115.6359 140.6725,-120.429 140.6725,-120.429 140.6725,-120.429 142.0959,-115.6359 136.3587,-119.148 143.5193,-110.8428 143.5193,-110.8428"/>
</g>
<!-- Shot -->
<g id="node2" class="node has&#45;pronunciation">
<title>Shot</title>
<g id="a_node2"><a xlink:href="../shot.html" xlink:title="Бросок" target="_top">
<ellipse fill="none" stroke="#c0c0c0" stroke-width=".2" cx="240.6796" cy="-339.1237" rx="67.3507" ry="67.3507"/>
<text text-anchor="middle" x="240.6796" y="-361.1237" font-family="Times,serif" font-size="25.00" fill="#000000">Shot</text>
<text text-anchor="middle" x="240.6796" y="-333.1237" font-family="Times,serif" font-size="25.00" fill="#000000">Бросок</text>
<text text-anchor="middle" x="240.6796" y="-305.1237" font-family="Times,serif" font-size="25.00" fill="#000000">Шат</text>
</a>
</g>
</g>
<!-- Shot&#45;&gt;Backhand shot -->
<g id="edge2" class="edge">
<title>Shot&#45;&gt;Backhand shot</title>
<path fill="none" stroke="#000000" stroke-dasharray="5,2" d="M173.3735,-338.245C170.0057,-338.201 166.6034,-338.1566 163.1904,-338.112"/>
<polygon fill="#000000" stroke="#000000" points="152.9426,-337.9782 163.0005,-333.6093 157.9422,-338.0436 162.9418,-338.1089 162.9418,-338.1089 162.9418,-338.1089 157.9422,-338.0436 162.883,-342.6085 152.9426,-337.9782 152.9426,-337.9782"/>
</g>
<!-- Shot&#45;&gt;Wrist shot -->
<g id="edge1" class="edge">
<title>Shot&#45;&gt;Wrist shot</title>
<path fill="none" stroke="#000000" stroke-dasharray="5,2" d="M222.0866,-274.2998C208.8948,-228.3069 191.2658,-166.8441 178.1025,-120.9507"/>
<polygon fill="#000000" stroke="#000000" points="175.2806,-111.1121 182.3633,-119.4838 176.6591,-115.9183 178.0377,-120.7245 178.0377,-120.7245 178.0377,-120.7245 176.6591,-115.9183 173.7121,-121.9652 175.2806,-111.1121 175.2806,-111.1121"/>
</g>
</g>
</svg>
