<?xml version="1.0" encoding="UTF-8" standalone="no"?>
<?xml-stylesheet href="../static/svg.css" type="text/css"?>
<!DOCTYPE svg PUBLIC "-//W3C//DTD SVG 1.1//EN"
 "http://www.w3.org/Graphics/SVG/1.1/DTD/svg11.dtd">
<!-- Generated by graphviz version 2.40.1 (20161225.0304)
 -->
<!-- Title: term Pages: 1 -->
<svg width="429pt" height="702pt"
 viewBox="0.00 0.00 429.30 702.05" xmlns="http://www.w3.org/2000/svg" xmlns:xlink="http://www.w3.org/1999/xlink">
<g id="graph0" class="graph" transform="scale(1 1) rotate(0) translate(4 698.0502)">
<title>term</title>
<!-- Team -->
<g id="node1" class="node root has&#45;pronunciation">
<title>Team</title>
<g id="a_node1"><a xlink:href="javascript:history.back()" xlink:title="Команда" target="_top">
<ellipse fill="none" stroke="#c0c0c0" stroke-width=".2" cx="130.6462" cy="-311.697" rx="51.7379" ry="51.7379"/>
<text text-anchor="middle" x="130.6462" y="-325.197" font-family="Times,serif" font-size="15.00" fill="#000000">Team</text>
<text text-anchor="middle" x="130.6462" y="-308.197" font-family="Times,serif" font-size="15.00" fill="#000000">Команда</text>
<text text-anchor="middle" x="130.6462" y="-291.197" font-family="Times,serif" font-size="15.00" fill="#000000">Тим</text>
</a>
</g>
</g>
<!-- Player -->
<g id="node5" class="node has&#45;pronunciation">
<title>Player</title>
<g id="a_node5"><a xlink:href="../player.html" xlink:title="Игрок" target="_top">
<ellipse fill="none" stroke="#c0c0c0" stroke-width=".2" cx="236.934" cy="-379.6842" rx="46.8387" ry="46.8387"/>
<text text-anchor="middle" x="236.934" y="-393.1842" font-family="Times,serif" font-size="15.00" fill="#000000">Player</text>
<text text-anchor="middle" x="236.934" y="-376.1842" font-family="Times,serif" font-size="15.00" fill="#000000">Игрок</text>
<text text-anchor="middle" x="236.934" y="-359.1842" font-family="Times,serif" font-size="15.00" fill="#000000">&#39;Плейэр</text>
</a>
</g>
</g>
<!-- Team&#45;&gt;Player -->
<g id="edge9" class="edge">
<title>Team&#45;&gt;Player</title>
<path fill="none" stroke="#000000" stroke-dasharray="5,2" d="M174.1842,-339.5462C178.9856,-342.6174 183.8951,-345.7578 188.7491,-348.8626"/>
<polygon fill="#000000" stroke="#000000" points="197.3906,-354.3902 186.5417,-352.7925 193.1786,-351.6959 188.9665,-349.0017 188.9665,-349.0017 188.9665,-349.0017 193.1786,-351.6959 191.3914,-345.2109 197.3906,-354.3902 197.3906,-354.3902"/>
</g>
<!-- Sport -->
<g id="node6" class="node">
<title>Sport</title>
<g id="a_node6"><a xlink:href="../sport.html" xlink:title="Спорт" target="_top">
<ellipse fill="none" stroke="#c0c0c0" stroke-width=".2" cx="199.0866" cy="-654.4522" rx="39.6962" ry="39.6962"/>
<text text-anchor="middle" x="199.0866" y="-659.4522" font-family="Times,serif" font-size="15.00" fill="#000000">Sport</text>
<text text-anchor="middle" x="199.0866" y="-642.4522" font-family="Times,serif" font-size="15.00" fill="#000000">Спорт</text>
</a>
</g>
</g>
<!-- Team&#45;&gt;Sport -->
<g id="edge10" class="edge">
<title>Team&#45;&gt;Sport</title>
<path fill="none" stroke="#000000" stroke-dasharray="5,2" d="M140.8185,-362.6408C153.8966,-428.1369 176.4501,-541.0865 189.3257,-605.5689"/>
<polygon fill="#000000" stroke="#000000" points="191.3062,-615.487 184.9351,-606.5618 190.3271,-610.5838 189.348,-605.6806 189.348,-605.6806 189.348,-605.6806 190.3271,-610.5838 193.7609,-604.7994 191.3062,-615.487 191.3062,-615.487"/>
</g>
<!-- Opponent -->
<g id="node2" class="node has&#45;pronunciation">
<title>Opponent</title>
<g id="a_node2"><a xlink:href="../opponent.html" xlink:title="Противник" target="_top">
<ellipse fill="none" stroke="#c0c0c0" stroke-width=".2" cx="360.4863" cy="-204.5349" rx="60.623" ry="60.623"/>
<text text-anchor="middle" x="360.4863" y="-218.0349" font-family="Times,serif" font-size="15.00" fill="#000000">Opponent</text>
<text text-anchor="middle" x="360.4863" y="-201.0349" font-family="Times,serif" font-size="15.00" fill="#000000">Противник</text>
<text text-anchor="middle" x="360.4863" y="-184.0349" font-family="Times,serif" font-size="15.00" fill="#000000">Эˈпoунэнт</text>
</a>
</g>
</g>
<!-- Opponent&#45;&gt;Team -->
<g id="edge6" class="edge">
<title>Opponent&#45;&gt;Team</title>
<path fill="none" stroke="#000000" stroke-dasharray="5,2" d="M305.1414,-230.3393C269.4145,-246.9968 223.0696,-268.605 187.1218,-285.3655"/>
<polygon fill="#000000" stroke="#000000" points="177.7488,-289.7356 184.9105,-281.4314 182.2804,-287.6227 186.8121,-285.5099 186.8121,-285.5099 186.8121,-285.5099 182.2804,-287.6227 188.7137,-289.5883 177.7488,-289.7356 177.7488,-289.7356"/>
</g>
<!-- Opponent&#45;&gt;Player -->
<g id="edge1" class="edge">
<title>Opponent&#45;&gt;Player</title>
<path fill="none" stroke="#000000" stroke-dasharray="5,2" d="M325.4117,-254.2572C307.9255,-279.0459 286.9049,-308.8449 269.7411,-333.1765"/>
<polygon fill="#000000" stroke="#000000" points="263.843,-341.5377 265.9301,-330.7722 266.7252,-337.4519 269.6073,-333.3662 269.6073,-333.3662 269.6073,-333.3662 266.7252,-337.4519 273.2845,-335.9601 263.843,-341.5377 263.843,-341.5377"/>
</g>
<!-- Point -->
<g id="node3" class="node has&#45;pronunciation">
<title>Point</title>
<g id="a_node3"><a xlink:href="../point.html" xlink:title="Очко" target="_top">
<ellipse fill="none" stroke="#c0c0c0" stroke-width=".2" cx="122.633" cy="-41.7193" rx="41.9398" ry="41.9398"/>
<text text-anchor="middle" x="122.633" y="-55.2193" font-family="Times,serif" font-size="15.00" fill="#000000">Point</text>
<text text-anchor="middle" x="122.633" y="-38.2193" font-family="Times,serif" font-size="15.00" fill="#000000">Очко</text>
<text text-anchor="middle" x="122.633" y="-21.2193" font-family="Times,serif" font-size="15.00" fill="#000000">Пойнт</text>
</a>
</g>
</g>
<!-- Point&#45;&gt;Team -->
<g id="edge7" class="edge">
<title>Point&#45;&gt;Team</title>
<path fill="none" stroke="#000000" stroke-dasharray="5,2" d="M123.8762,-83.6071C125.1964,-128.0857 127.297,-198.8577 128.8083,-249.7764"/>
<polygon fill="#000000" stroke="#000000" points="129.1118,-260.0026 124.3171,-250.1405 128.9635,-255.0048 128.8151,-250.007 128.8151,-250.007 128.8151,-250.007 128.9635,-255.0048 133.3131,-249.8734 129.1118,-260.0026 129.1118,-260.0026"/>
</g>
<!-- Point&#45;&gt;Player -->
<g id="edge2" class="edge">
<title>Point&#45;&gt;Player</title>
<path fill="none" stroke="#000000" stroke-dasharray="5,2" d="M136.0809,-81.482C156.5546,-142.0187 195.5894,-257.4366 218.6302,-325.5635"/>
<polygon fill="#000000" stroke="#000000" points="221.9095,-335.2597 214.4428,-327.2285 220.3076,-330.5232 218.7056,-325.7868 218.7056,-325.7868 218.7056,-325.7868 220.3076,-330.5232 222.9685,-324.345 221.9095,-335.2597 221.9095,-335.2597"/>
</g>
<!-- Hockey -->
<g id="node4" class="node has&#45;pronunciation">
<title>Hockey</title>
<g id="a_node4"><a xlink:href="../hockey.html" xlink:title="Хоккей" target="_top">
<ellipse fill="none" stroke="#c0c0c0" stroke-width=".2" cx="45.2548" cy="-556.5156" rx="45.011" ry="45.011"/>
<text text-anchor="middle" x="45.2548" y="-570.0156" font-family="Times,serif" font-size="15.00" fill="#000000">Hockey</text>
<text text-anchor="middle" x="45.2548" y="-553.0156" font-family="Times,serif" font-size="15.00" fill="#000000">Хоккей</text>
<text text-anchor="middle" x="45.2548" y="-536.0156" font-family="Times,serif" font-size="15.00" fill="#000000">ˈХаки</text>
</a>
</g>
</g>
<!-- Hockey&#45;&gt;Team -->
<g id="edge8" class="edge">
<title>Hockey&#45;&gt;Team</title>
<path fill="none" stroke="#000000" stroke-dasharray="5,2" d="M60.2266,-513.5913C74.1299,-473.7302 94.9435,-414.0574 110.34,-369.9154"/>
<polygon fill="#000000" stroke="#000000" points="113.6368,-360.4634 114.5923,-371.3875 111.9901,-365.1844 110.3433,-369.9055 110.3433,-369.9055 110.3433,-369.9055 111.9901,-365.1844 106.0944,-368.4235 113.6368,-360.4634 113.6368,-360.4634"/>
</g>
<!-- Hockey&#45;&gt;Player -->
<g id="edge4" class="edge">
<title>Hockey&#45;&gt;Player</title>
<path fill="none" stroke="#000000" stroke-dasharray="5,2" d="M78.6428,-525.714C110.852,-495.9998 159.7294,-450.9085 194.6437,-418.6987"/>
<polygon fill="#000000" stroke="#000000" points="202.3126,-411.6238 198.0139,-421.712 198.6376,-415.0142 194.9625,-418.4045 194.9625,-418.4045 194.9625,-418.4045 198.6376,-415.0142 191.9112,-415.097 202.3126,-411.6238 202.3126,-411.6238"/>
</g>
<!-- Hockey&#45;&gt;Sport -->
<g id="edge3" class="edge">
<title>Hockey&#45;&gt;Sport</title>
<path fill="none" stroke="#000000" stroke-dasharray="5,2" d="M83.6763,-580.9765C106.008,-595.194 134.1729,-613.1251 157.0886,-627.7143"/>
<polygon fill="#000000" stroke="#000000" points="165.5911,-633.1274 154.7388,-631.5529 161.3733,-630.4421 157.1555,-627.7569 157.1555,-627.7569 157.1555,-627.7569 161.3733,-630.4421 159.5723,-623.9609 165.5911,-633.1274 165.5911,-633.1274"/>
</g>
<!-- Player&#45;&gt;Sport -->
<g id="edge5" class="edge">
<title>Player&#45;&gt;Sport</title>
<path fill="none" stroke="#000000" stroke-dasharray="5,2" d="M230.5565,-425.9841C223.7175,-475.6347 212.8995,-554.1724 205.8977,-605.0047"/>
<polygon fill="#000000" stroke="#000000" points="204.5074,-615.0978 201.4141,-604.5772 205.1897,-610.1445 205.8721,-605.1913 205.8721,-605.1913 205.8721,-605.1913 205.1897,-610.1445 210.33,-605.8054 204.5074,-615.0978 204.5074,-615.0978"/>
</g>
</g>
</svg>
