<?xml version="1.0" standalone="no"?>
<!DOCTYPE svg PUBLIC "-//W3C//DTD SVG 20010904//EN"
 "http://www.w3.org/TR/2001/REC-SVG-20010904/DTD/svg10.dtd">
<svg version="1.0" xmlns="http://www.w3.org/2000/svg"
 width="700.000000pt" height="700.000000pt" viewBox="0 0 700.000000 700.000000"
 preserveAspectRatio="xMidYMid meet">
<metadata>
Created by potrace 1.11, written by Peter Selinger 2001-2013
</metadata>
<g transform="translate(0.000000,700.000000) scale(0.100000,-0.100000)"
fill="#000000" stroke="none">
<path d="M3118 6215 c-3 -3 -46 -6 -298 -21 -72 -4 -163 -12 -201 -19 -13 -2
-55 -6 -94 -10 -38 -3 -95 -10 -125 -15 -30 -5 -77 -12 -105 -15 -27 -3 -61
-8 -75 -10 -14 -3 -41 -7 -60 -10 -19 -3 -66 -12 -105 -20 -75 -15 -128 -25
-160 -31 -69 -11 -377 -87 -415 -102 -14 -5 -29 -10 -35 -11 -26 -4 -163 -48
-275 -88 -734 -264 -1153 -632 -1165 -1023 -13 -412 374 -775 1125 -1056 284
-107 770 -232 1043 -269 23 -3 83 -12 132 -20 50 -8 108 -17 130 -19 22 -3 69
-8 105 -12 36 -4 79 -8 95 -10 27 -3 63 -6 205 -19 162 -14 351 -20 675 -19
409 0 627 10 855 39 19 3 62 7 95 10 75 7 123 13 155 19 14 3 48 8 75 11 28 3
57 8 65 10 8 2 35 6 60 9 25 3 56 8 70 11 14 3 75 14 135 26 261 50 684 164
810 219 11 5 45 17 75 28 86 31 276 116 375 168 592 311 828 705 660 1099 -17
40 -96 166 -118 190 -189 201 -332 306 -600 438 -205 101 -362 164 -567 226
-58 18 -116 36 -130 41 -64 24 -396 101 -555 129 -33 6 -71 13 -85 16 -58 12
-124 22 -190 29 -22 3 -88 13 -130 21 -14 3 -70 9 -200 21 -30 3 -66 7 -80 9
-14 2 -68 7 -120 10 -53 4 -116 9 -140 11 -50 6 -906 15 -912 9z"/>
<path d="M6992 4473 c-4 -54 -57 -187 -104 -260 -129 -199 -382 -396 -698
-545 -161 -75 -203 -93 -330 -139 -215 -78 -607 -188 -765 -214 -16 -3 -52
-10 -80 -16 -27 -5 -66 -12 -85 -15 -19 -3 -38 -8 -41 -9 -3 -2 -28 -7 -55
-10 -27 -3 -58 -8 -69 -10 -11 -2 -42 -7 -70 -10 -27 -3 -72 -10 -100 -15 -27
-5 -84 -12 -125 -15 -41 -4 -88 -8 -105 -11 -28 -3 -81 -8 -205 -19 -319 -27
-1076 -27 -1325 0 -22 3 -69 7 -105 10 -36 3 -76 7 -90 9 -14 3 -60 7 -102 11
-42 3 -85 7 -95 9 -10 2 -38 7 -63 10 -25 3 -56 8 -70 10 -14 3 -47 7 -75 11
-27 3 -57 8 -65 10 -8 2 -32 6 -52 9 -21 3 -58 10 -83 16 -25 6 -62 13 -83 16
-20 3 -53 9 -72 14 -19 5 -46 11 -60 14 -14 2 -45 9 -70 15 -25 7 -56 14 -70
17 -95 19 -438 122 -540 162 -14 5 -43 17 -65 25 -351 137 -619 295 -803 472
-130 124 -205 241 -249 385 l-22 75 2 -1115 c2 -613 6 -1135 11 -1160 24 -146
64 -241 154 -370 242 -345 792 -648 1530 -845 73 -19 148 -37 165 -40 18 -3
48 -10 67 -15 19 -5 49 -11 65 -13 17 -3 50 -10 75 -16 25 -5 74 -15 110 -20
36 -6 76 -13 90 -15 14 -3 61 -10 105 -16 44 -7 87 -13 95 -15 8 -2 44 -6 80
-9 67 -7 129 -13 190 -21 19 -3 71 -7 115 -10 44 -3 110 -8 148 -11 154 -13
577 -18 812 -9 133 5 382 21 445 30 19 3 62 7 95 10 82 8 113 12 240 30 61 9
126 18 145 21 19 3 42 7 50 9 8 3 33 7 55 10 22 3 51 8 65 11 14 3 34 8 45 10
146 29 206 43 360 84 1004 271 1603 704 1671 1210 4 30 9 415 11 855 3 748 1
1481 -5 1408z"/>
</g>
</svg>
